<svg xmlns="http://www.w3.org/2000/svg" preserveAspectRatio="none" viewBox="0 0 1044 96.35"><defs><style>.cls-1{fill:#fff;}</style></defs><title>background-signup</title><g id="Layer_2" data-name="Layer 2"><g id="Layer_1-2" data-name="Layer 1"><path class="cls-1" d="M280.48,90.86c3.19.11,6.4.11,9.58.32,4.72.29,9.45-.07,14.18.15,3.54.14,7.08-.47,10.69-.07a22.34,22.34,0,0,1,4.41.53,11,11,0,0,0,4.82.08,14.8,14.8,0,0,1,3.11-.33c5.79-.11,11.58-.47,17.37-.14a52.05,52.05,0,0,1,6.87.65,31,31,0,0,0,10.11.21c5.32-.72,10.65-.29,16-.47A115.81,115.81,0,0,1,390.2,92c5.12.36,10.35.25,15.54.29a10.76,10.76,0,0,1,3.42.36,11.21,11.21,0,0,0,4.11.39c2.8-.1,5.58-.07,8.4-.43,3.45-.43,7,.14,10.51.18,7.71,0,15.43,0,23.13-.18,4.58-.11,9.11-.11,13.68.11,5.1.25,10.21.32,15.33.39,1.18,0,2.21.47,3.42.26,6-.9,12.13-.51,18.18-.9,6.24-.4,12.52.61,18.74,1.18,3.49.29,7,.72,10.43.22,2-.32,4-.72,6-.86a50,50,0,0,1,8.29-.26c5.42.58,10.94.51,16.37,1a59.4,59.4,0,0,0,8.75.32,30.81,30.81,0,0,1,4.71-.36,18.93,18.93,0,0,0,5.87,0,14.61,14.61,0,0,1,2.08,0c7,.14,14,.54,21.07.4a17.65,17.65,0,0,1,3.16,0c4.84.86,9.55-.25,14.33-.29,1.58,0,3.26.36,4.78-.07a14.72,14.72,0,0,1,5.2-.32,51.85,51.85,0,0,0,12.2-.15,9.26,9.26,0,0,1,1.74,0c4.09.54,8.21.07,12.31.21,1.31,0,2.39-.57,3.75-.36,3.54.51,7.2.29,10.79.47,5.45.25,11,.07,16.46,0s10.78.07,16.09-.68a26.89,26.89,0,0,1,4.21,0c7,.25,13.9.83,20.91.54,1.72-.07,3.52.29,5.19.11,5-.54,10-.36,15-.61a174.05,174.05,0,0,1,18.82.64c2.47.18,5-.07,7.38.18a71.43,71.43,0,0,0,14.62,0,18.68,18.68,0,0,1,3.79-.22,78.54,78.54,0,0,0,14.87-.11c3.75-.32,7.73,1,11.25-.57.09-.08.41.11.62.14,6.17.22,12.35.76,18.5.29,4-.32,8.09-.15,12.12-.47s8.28.22,12.43.11a15.63,15.63,0,0,1,2.33-.11,77.58,77.58,0,0,0,11.61,0,53.53,53.53,0,0,1,9.31-.14,32,32,0,0,0,5.18.43c7.39-.22,14.76.18,22.14.14,5.8,0,11.65-.28,17.38.33,4.54.5,9.11.35,13.63.5,5,.14,10,1,15-.07a4.7,4.7,0,0,1,1.06,0c3.58.64,7.2-.51,10.78.11a115.21,115.21,0,0,1,20.26,0c3.25.25,6.53.11,9.75.54,4.43.61,8.94,1.15,13.39,1.47a70.33,70.33,0,0,0,17.8-.61c1.35-.25,2.26-.68,2.35-1.62a5.62,5.62,0,0,1,1.11-2.19c1.2-1.8,2-3.7,1.13-5.64a6.56,6.56,0,0,1-.54-2.48c-.13-1.91-.11-3.81-.16-5.72a2.2,2.2,0,0,1,.43-1.62,2.85,2.85,0,0,0,.11-3.45c-.57-1.08-.95-2.08-.27-3.27a3,3,0,0,0-.12-2.7,8.13,8.13,0,0,1-.34-5.39,15.86,15.86,0,0,0-.06-6.72c-.78-3.45-1.19-6.94-1.66-10.43-.62-4.45,1.1-8.8,2.41-13.15a4.5,4.5,0,0,0,.07-3.31,6.89,6.89,0,0,1-.81-3.88c.47-2.37-.16-4.78,1-7.08.78-1.59.5-3.21.49-4.82a7.14,7.14,0,0,1,.12-2.52c1.19-3.38-.66-6-5.27-8A10.31,10.31,0,0,0,1034,.56c-6.06-.11-12.09.82-18.19.21-1.45-.14-3,.18-4.55,0a25.8,25.8,0,0,0-7.29,0c-3.1.36-6.24.61-9.39.68-3.74.11-7.49,0-11.25-.07-4.34-.14-8.75-.1-13.11,0-1.69,0-3.2-.5-4.86-.28A56.19,56.19,0,0,1,955,1.2a23.11,23.11,0,0,0-7.32.29,4.53,4.53,0,0,1-2.42.07C943,1,940.52,1.81,938.43,1c-2.16.61-4.35.07-6.53,0-6.68-.11-13.38.57-20.06-.15A10.49,10.49,0,0,0,910.1,1,106.51,106.51,0,0,1,891,1.28a22.47,22.47,0,0,0-3.84,0c-4.51.54-9.09.29-13.63.43-1.88.07-3.77.07-5.64,0A88.6,88.6,0,0,0,856,1.56c-3.09.25-6.17.22-9.25.36-6.37.33-12.78.18-19.17-.07-1.62-.07-3.27-.18-4.89-.11-4.87.15-9.69,1.19-14.64.33a5.73,5.73,0,0,0-1.75,0c-3,.36-6.21-.14-9.24.47a5.1,5.1,0,0,1-2.42,0c-1.89-.65-4,.14-5.73-.4-2-.65-3.88,0-5.8,0-4.5.07-8.93-.4-13.48-.26-6.86.29-13.75.51-20.65.36a5.6,5.6,0,0,0-1.39.11,6.77,6.77,0,0,1-3.38.07,8.11,8.11,0,0,0-2.78,0,41.52,41.52,0,0,1-10.33.08,10.26,10.26,0,0,0-2.76.17,17.21,17.21,0,0,1-5,.54c-1.87-.25-3.69,0-5.25-.35-1.14.43-1,1.07-1.49,1.54A2.14,2.14,0,0,1,715,3.79c-1-1.08-2.24-1.36-4.6-1.18a33.42,33.42,0,0,1-9.26,0c-.89-.18-1.77-.83-2.87-.47-1.61.58-3.16.11-4.75,0-3-.11-6.09-.29-9.06-.11-3.92.29-7.82.75-11.7,1-2.06-.72-3.88-1.72-6.35-1.76-5.6,0-11.19-.11-16.74-.61A3.71,3.71,0,0,0,648,.81a14.63,14.63,0,0,1-7.27.79,96.09,96.09,0,0,0-15.08-.18,5.94,5.94,0,0,1-1.34-.07c-5.1-.79-10.22-.4-15.32,0a23,23,0,0,1-2.75.18A78.29,78.29,0,0,0,595,1c-4,.25-8-.72-12.12-.43a10.3,10.3,0,0,1-2.07-.14,23.08,23.08,0,0,0-5.93,0,62.38,62.38,0,0,1-13,.1c-2.69-.25-5.63-1-8.15.11a14.53,14.53,0,0,1-7.4.72,69,69,0,0,0-11.13-.11A95,95,0,0,1,519.8.7a29.86,29.86,0,0,0-3.13-.18A107.91,107.91,0,0,0,505.88,1c-5,.43-10.1.46-15.17.57-4.18.11-8.41.61-12.51-.36a4.55,4.55,0,0,0-.64,0c-3.3-.18-6.51.43-9.81.47-3.57.07-7.06-.25-10.59-.29a78.94,78.94,0,0,0-8.7.15,26.5,26.5,0,0,1-4.39.07A55.44,55.44,0,0,0,434.9,1a29.51,29.51,0,0,1-4.82.54c-3.7-.25-7.4.11-11.1.11-1.76,0-3.56,0-5.28.11a60.61,60.61,0,0,1-10.52,0,42.85,42.85,0,0,0-9.58.4,17.33,17.33,0,0,1-4.51.22,56.42,56.42,0,0,0-8.21-.22c-4.89,0-9.78-.18-14.67.11a42,42,0,0,1-5.61,0,231.93,231.93,0,0,0-34.67,0,9.19,9.19,0,0,1-1.39,0,69.28,69.28,0,0,0-13.66,0c-4,.25-8,.94-12.07.54A15.38,15.38,0,0,0,295,3a32.63,32.63,0,0,1-8.38.11,17.77,17.77,0,0,0-5.87.11,10.84,10.84,0,0,1-4.17.07c-2.49-.51-5.1-.18-7.63-.58a16,16,0,0,0-5.24.15c-3.92.79-8,.72-12,.86a5.31,5.31,0,0,1-2.39-.25,11.84,11.84,0,0,0-5.07-.58c-2.83.08-5.65.15-8.47.15a85.09,85.09,0,0,0-14.86,1.29,17.49,17.49,0,0,1-6.95,0,51.93,51.93,0,0,0-9.2-.75C202.2,3.43,200,4,197.5,4c-6-.08-12.09-.47-18.07-.54-7.33-.07-14.66-1-22-.33A10.06,10.06,0,0,1,155,2.89a20.55,20.55,0,0,0-7.13,0,35.2,35.2,0,0,1-13.72.5,56.65,56.65,0,0,0-10.08-.18,83.56,83.56,0,0,1-11-.11c-8.13-.75-16.3-.43-24.44-.82-3.83-.15-7.71.07-11.57.11a49.62,49.62,0,0,1-6.59-.15,10.83,10.83,0,0,0-5.06.25,9,9,0,0,1-2,.18c-2.77.29-5.54-.25-8.31.07C49.57,3.43,44,3.83,38.82,1.89c-.39-.15-.87-.18-1.28-.33C32.48-.13,27.06.66,21.75.63c-1.77,0-2.79.65-4.13,1a7.76,7.76,0,0,1-2,.25,4.3,4.3,0,0,0-2.46.69C10.73,4.15,8,5.59,7.05,7.67c-.39.83-1.55.44-2.14.94,0,.29-.06.61-.06,1,0,2,.42,4.06.05,6.07-.45,2.41-.68,4.86-1,7.27a12.94,12.94,0,0,0,.15,5.57A2.23,2.23,0,0,1,4,29.75,16.77,16.77,0,0,0,3,36.4a25.17,25.17,0,0,1-.69,9A41.77,41.77,0,0,0,.89,57.14,21.14,21.14,0,0,1,1,61a73.74,73.74,0,0,0-.93,14,12.29,12.29,0,0,0,1.62,6.18,19.56,19.56,0,0,1,1.52,3.45c1.06,2.87,2.93,4,7.67,4.2,1.06,1.23,3,1.77,5.28,2s4.7.25,6.41,1.44a1.63,1.63,0,0,0,1,.18,7.07,7.07,0,0,1,4.85.76,6.63,6.63,0,0,0,2.38.25c1.28,0,2.56.14,3.81.21a81.87,81.87,0,0,0,9.44.47,144,144,0,0,1,16.76.4A63.87,63.87,0,0,0,75.37,94a143.45,143.45,0,0,1,15.72-1.54,150,150,0,0,1,21.72,0,25.6,25.6,0,0,0,4.15.4c5.8-.58,11.66.72,17.47-.18a6.6,6.6,0,0,1,1.38.1,77.13,77.13,0,0,0,10.46.58c6-.14,12,.07,18-.22,5.16-.21,10.36-.21,15.54-.17s10.45-.76,15.71-.26a6,6,0,0,0,1.75-.1,52.83,52.83,0,0,1,8.06-.4c4.34-.07,8.69,0,13-.18,2.9-.14,5.77-.65,8.71-.54,2.39.11,4.61-.65,6.94-.43,7.25.65,14.13-.36,21-1.47,1.39-.26,3.1-1,4.51.1M554.71,7.85c0-.61,1-.82,1.51-1.33,1.73.47,3.84.25,5.59,1.23-1.79,1.47-4,1.51-7.1.1m-60.45.33c1.76,1.08,1.3,2.19.25,3.34-3.49-1-3.57-1.8-.25-3.34m509.17,2.87c-2,1.66-4.14.11-6.09.54-.67-.64-.65-1.15,0-1.69,2.22,0,3.74,1.3,6.11,1.15m-261.84,2A5.53,5.53,0,0,0,739,11.7c-2.2-.61-4.06-1.55-4.85-2.88-.95-1.61-3-2.33-5.31-2.73a6.15,6.15,0,0,1-3.24-1.58,59.66,59.66,0,0,1,7.73.29c2.59.36,5.28.43,7.92.61,3.71.29,4.56.86,4.47,3.2,0,.39.27.65.59.93,1.23,1.12,1.3,2.48,2,3.74M620.51,3.43c3.85,1.12,7.71.4,11.53.54,2.21.07,4.39,0,6.64.15a23.06,23.06,0,0,0,8.09-.61,7.22,7.22,0,0,0,4.78,1.07c3.25-.25,6.59.22,9.77-.5,4.23.61,8.59,0,12.86.32.77,1.37.84,2.48.12,3.49-1,.76-2.28-.29-3,.5-.51-.28-.86-.47-1.2-.64A18.05,18.05,0,0,0,658,5.37c-2.35.36-4.73.76-7.07,1.15-2.59.47-5.49,1.3-7.94-.46-.79-.58-2.23-.4-3.32-.15a54.11,54.11,0,0,1-6.53.72,9.33,9.33,0,0,1-5.32-.54c-.9-.43-2.67-.32-4-.25-2.86.11-5.32-.65-8.22-1,1-1.94,3.76-1.8,4.94-1.44M572.67,4.8c.36.61.06,1-.86.93a12,12,0,0,1-6.54-2.55,28.53,28.53,0,0,0,7.4,1.62"/></g></g></svg>