<svg xmlns="http://www.w3.org/2000/svg" viewBox="0 0 140 140.48"><defs><style>.cls-1{fill:#144733;}.cls-2{fill:#fff;}</style></defs><title>btn-prev</title><g id="Layer_2" data-name="Layer 2"><g id="Layer_1-2" data-name="Layer 1"><path class="cls-1" d="M74.59,84.22c-.1-.16-.28-.2-.4-.3S74,84,74,84C74.21,84.27,74.39,84.33,74.59,84.22Z"/><path class="cls-1" d="M69.16,82.3c-.32.07-.35.17-.11.37C69.18,82.58,69.26,82.47,69.16,82.3Z"/><path class="cls-1" d="M106.81,48c-.22-.13-.34.11-.51.12a.13.13,0,0,0,.07.18C106.55,48.27,106.61,48.08,106.81,48Z"/><path class="cls-1" d="M75.47,84.28c.07,0,.11,0,.11-.07a2.06,2.06,0,0,1-.53-.4A.91.91,0,0,0,75.47,84.28Z"/><path class="cls-1" d="M109.81,97.45c-.2,0-.26-.24-.44-.3a.13.13,0,0,0-.07.18C109.47,97.34,109.59,97.58,109.81,97.45Z"/><path class="cls-1" d="M88,88.9a.58.58,0,0,1,.31.46.7.7,0,0,0,.27.46.44.44,0,0,1,.16.23l.52.21a1.48,1.48,0,0,0,0-.47.13.13,0,0,1,0-.12c.1-.26,0-.34-.23-.48s-.42-.19-.61-.3a3.73,3.73,0,0,0-.61-.26A.52.52,0,0,0,88,88.9Z"/><path class="cls-1" d="M79.94,86a.63.63,0,0,0,.4.21,2.77,2.77,0,0,0,.56.11c.09,0,.22,0,.26.11.12.27.39.26.61.29l.62.08a1.16,1.16,0,0,1,.86.61.52.52,0,0,1,.07.11c.1-.07.15.08.27,0a.46.46,0,0,0,.13-.39c-.33-.16-.7-.22-1-.41a3.83,3.83,0,0,1-.8-.23.5.5,0,0,1-.34-.26,1.39,1.39,0,0,1-.67-.17c-.17-.08-.35-.13-.53-.21a2.86,2.86,0,0,1-.9-.39.31.31,0,0,0-.45,0,3.18,3.18,0,0,0,.62.35A.6.6,0,0,1,79.94,86Z"/><path class="cls-1" d="M72.47,61.2a.91.91,0,0,0-.42.47,2.06,2.06,0,0,1,.53-.4C72.58,61.2,72.54,61.16,72.47,61.2Z"/><path class="cls-1" d="M86.05,56.29c.28-.14.33-.22.23-.48a.13.13,0,0,1,0-.12,1.48,1.48,0,0,0,0-.47l-.52.21a.44.44,0,0,1-.16.23.7.7,0,0,0-.27.46.58.58,0,0,1-.31.46.52.52,0,0,0-.2.27,3.73,3.73,0,0,0,.61-.26C85.63,56.48,85.84,56.39,86.05,56.29Z"/><path class="cls-1" d="M66.05,62.81c-.24.21-.21.3.11.37C66.26,63,66.18,62.9,66.05,62.81Z"/><path class="cls-1" d="M71.59,61.26c-.2-.11-.38,0-.57.2,0,.07.11.06.17.1S71.49,61.42,71.59,61.26Z"/><path class="cls-1" d="M5.22,74.29c.28-.15,0-.51.36-.62.06.33.21.65,0,1a.3.3,0,0,0,0,.3c.19.44-.17.93.14,1.35a6.11,6.11,0,0,0,.13,1.86.38.38,0,0,1-.12.3c-.19,0-.33-.39-.6-.07a4.92,4.92,0,0,1,.33,1.36c.16-.4,0-.76.31-.95.16.11.29.2.26.45A1.23,1.23,0,0,0,6,80.1a.4.4,0,0,1,0,.45c-.24.18-.46-.13-.68,0a6.14,6.14,0,0,1,.06,1.76,2.23,2.23,0,0,0,.14,1.36,1.64,1.64,0,0,1,.08,1.11c0,.1-.08.22,0,.31.28.49.13,1.06.34,1.59a11.2,11.2,0,0,1,.51,2.46A3.51,3.51,0,0,0,7,90.9a.93.93,0,0,1,.14.6A3.13,3.13,0,0,0,7.33,93c.32.69.34,1.53,1,2.06.15.13,0,.29.1.41.17.48-.07,1.1.51,1.42a.83.83,0,0,0,0,.86c.2.31,0,.82.51,1,0,0,0,.13,0,.19.18.44.12,1,.46,1.34a4.47,4.47,0,0,1,.79,1.49c.05.14,0,.31.18.39a1.85,1.85,0,0,1,.7,1.09c.35.94.8,1.83,1.13,2.76a1.22,1.22,0,0,0,.29.42.84.84,0,0,1,.25.36,2.11,2.11,0,0,0,.56.91c.09.11.22.2.25.36.12.64.68,1,1.09,1.38a1,1,0,0,1,.39.85c0,.65-.07.94.71,1.22a.82.82,0,0,1,.17.11,2.09,2.09,0,0,0,1.06,1.43c.15.09.36.19.39.32.1.4.46.59.69.87.06.09.18.15.17.26,0,.41.26.54.53.69a1,1,0,0,1,.57.78.9.9,0,0,0,.37.64,13.63,13.63,0,0,1,1.06,1.09,34,34,0,0,0,2.4,2.55.46.46,0,0,1,.15.27c0,.23.21.36.34.52a2.4,2.4,0,0,0,1.07.71c.18.2,0,.53.33.62s.33-.26.62-.28a1.92,1.92,0,0,1,.69.31,1.28,1.28,0,0,1,0,.27c-.05.54.35.88.54,1.32.5.1.61.59.91.89a1.12,1.12,0,0,0,.62.41,1.6,1.6,0,0,1,1.11.79,2.58,2.58,0,0,0,.87.72c.8.45,1.77.64,2.3,1.5,0,0,.12.06.16.1a8.64,8.64,0,0,0,1.57.95c.36.22.6.57,1,.79,1,.61,2,1.17,3,1.78a8.47,8.47,0,0,0,1.51.67,5.63,5.63,0,0,1,.76.33,3.51,3.51,0,0,0,1.25.55,1,1,0,0,1,.51.25,2.87,2.87,0,0,0,1.11.61,3.9,3.9,0,0,1,.69.32,4.83,4.83,0,0,0,1.24.63c.48.13,1,.24,1.43.41A22.9,22.9,0,0,1,50.5,137a10.83,10.83,0,0,0,2.8.86,7.37,7.37,0,0,0,1.17.26c1,.08,2,.33,2.94.47A9.73,9.73,0,0,1,60,139a.91.91,0,0,0,.37,0,4.32,4.32,0,0,1,1.94.24,7.71,7.71,0,0,0,2.56.6A19,19,0,0,1,67,140a3,3,0,0,0,.68.14c.74,0,1.48.12,2.21.17a6.93,6.93,0,0,0,1,.16,19.66,19.66,0,0,1,2.66,0,2.33,2.33,0,0,0,1.69-.27c.15-.12.32,0,.49,0a2.25,2.25,0,0,0,1.26-.08,1.34,1.34,0,0,1,.86-.1c.31,0,.65.17.94,0a3.94,3.94,0,0,1,1.42-.31c.41,0,.77-.3,1.15-.31a6.22,6.22,0,0,0,1.55-.27,1.65,1.65,0,0,1,.31,0,8.74,8.74,0,0,1,1.77.05,4,4,0,0,0,1.28-.17c.44-.07.93.09,1.3-.29.79,0,1.47-.59,2.29-.4a2.83,2.83,0,0,0,.69-.11c.54-.05.9-.45,1.37-.63s.75-.17,1.09-.3.58-.49.88-.71a1.88,1.88,0,0,1,.64-.3,18.42,18.42,0,0,1,2.45-.66,7.17,7.17,0,0,0,2.06-.65c.2-.09.31-.31.52-.34a7.17,7.17,0,0,0,2.35-1.28,4.78,4.78,0,0,1,1-.55.42.42,0,0,0,.32-.19.66.66,0,0,1,.58-.33,1.78,1.78,0,0,0,.58-.26c.68-.36,1.32-.8,2-1.13a4.82,4.82,0,0,0,2-1.5,1.75,1.75,0,0,1,1-.77,1.49,1.49,0,0,0,.59-.36c.56-.43,1-1.08,1.77-1.19a.31.31,0,0,0,.19-.15c.19-.42.63-.55,1-.79s.74-.41,1.08-.66a21.8,21.8,0,0,0,2.64-2.71c.78-.85,3.5-2.13,3.31-2.49a.34.34,0,0,1,.31-.51.81.81,0,0,0,.57-.36c.31-.32.61-.64.89-1a12.36,12.36,0,0,0,.88-.9c.45-.69.91-1.37,1.37-2a10.71,10.71,0,0,1,1.36-1.58,18,18,0,0,0,1.61-2c.46-.62.92-1.25,1.39-1.86.75-1,1.28-2.11,2-3.15a7.85,7.85,0,0,0,.82-1.35,12,12,0,0,1,1.7-3,3.54,3.54,0,0,0,.79-1.43,17.77,17.77,0,0,1,1.17-3.28,24.52,24.52,0,0,0,1.12-2.88,3.73,3.73,0,0,1,.14-.68,25,25,0,0,0,1-3.39c.37-1.17.62-2.37,1-3.53a7,7,0,0,0,.3-1.3,6.85,6.85,0,0,1,.34-1.54,9.44,9.44,0,0,0,.3-1.3c.17-.65.18-1.34.38-2a9.22,9.22,0,0,0,.13-3.14,7.35,7.35,0,0,1,0-1.81c0-.16-.26-.12-.22-.29.3,0,.29-.16.31-.3s-.37-.18-.35-.43.29,0,.36-.17a5.34,5.34,0,0,0,.3-2.85,6,6,0,0,1-.05-.62,4.16,4.16,0,0,0,.05-1c-.06-.32-.07-.65-.15-1-.19-.79-.29-1.58-.44-2.37,0-.18-.18-.38-.1-.55a.79.79,0,0,0-.23-.94c.47-.91,0-1.84.12-2.75-.34-.37-.23-.87-.32-1.3s-.21-.86-.32-1.28c-.17-.64-.2-1.3-.42-1.93a2.56,2.56,0,0,1,0-1.32,2.06,2.06,0,0,0-.12-1.23,4.64,4.64,0,0,1-.35-1.23,25,25,0,0,0-1-2.71c0-.07-.1-.13-.16-.19-.66-.65-.73-1.6-1.2-2.35a.31.31,0,0,1,0-.19,1,1,0,0,0-.31-.92c-.22-.26-.46-.51-.28-.91,0-.12,0-.25-.14-.34-.52-.44-.33-1.25-.86-1.69.07-.28-.19-.41-.29-.61s-.22-.2-.17-.32c.16-.38-.06-.58-.31-.8s-.1-.27-.12-.42a4.1,4.1,0,0,0-.92-2c-.42-.49-.32-1.21-.88-1.57a.18.18,0,0,1,0-.06c.1-.31-.09-.58-.15-.86a2.43,2.43,0,0,0-.79-1.35,3.89,3.89,0,0,1-.91-1,2.2,2.2,0,0,1-.46-1.06c0-.1-.12-.18-.16-.26-.19-.37-.57-.64-.63-1.07a.56.56,0,0,0-.36-.54.29.29,0,0,1-.17-.17,2.22,2.22,0,0,0-.88-1.41,6,6,0,0,0-.92-.75,1.71,1.71,0,0,1-.69-.64,1.68,1.68,0,0,0-.54-.52,2.69,2.69,0,0,1-1.14-1.24c-.16-.41-.61-.67-.67-1.17,0-.06-.11-.13-.17-.18a3.4,3.4,0,0,1-1.26-1.7.48.48,0,0,0-.18-.26,2.8,2.8,0,0,1-1-1c-.58-.17-.91-.77-1.55-.87,0-.32,0-.63-.35-.66a1.41,1.41,0,0,1-1.07-.77,3.61,3.61,0,0,0-.69-.81,8.54,8.54,0,0,0-1.91-1.12,1.79,1.79,0,0,1-.87-.87,2.22,2.22,0,0,0-.31-.52,3.24,3.24,0,0,1-.84-.15c-.31-.07-.53.27-.82.2-.13-.18.11-.3,0-.45l-.05,0c-.55-.36-1.24-.56-1.51-1.26a.25.25,0,0,0-.31-.17c-.26.08-.47-.08-.7-.15-.52-.16-.93-.56-1.49-.61a.53.53,0,0,1-.46-.39.77.77,0,0,0-.24-.38l-.37,0c-.37,0-.68-.12-.8-.55a.85.85,0,0,0-1-.33.51.51,0,0,1-.57,0c0-.16.1-.37-.08-.54a4.07,4.07,0,0,0-1,.09c0-.33.34-.22.43-.44a5.68,5.68,0,0,1-1.82-1,.72.72,0,0,0-.49-.15c-.45.06-.64-.25-.79-.59a1.38,1.38,0,0,0-.23-.5c-.59.1-.87-.46-1.37-.72a.92.92,0,0,1-.72-.12,5,5,0,0,0-1.56-.43c-.31-.06-.57-.12-.71-.44A.53.53,0,0,0,95,9.35,1.26,1.26,0,0,1,94,9a1.19,1.19,0,0,0-.42-.28,16.26,16.26,0,0,1-2.62-1c-.46-.24-1-.4-1.39-.64a1.89,1.89,0,0,0-1.87-.12c-.13.07-.25.17-.42.12l-.15-.2c-.48-.59-.76-.63-1.4-.21-.09.06-.23.16-.28.13a6,6,0,0,0-1.49-.39s-.09-.08-.13-.13a1.14,1.14,0,0,0-.9-.37c-1.2-.1-2.4,0-3.59-.07a2.42,2.42,0,0,1-1.06-.35c-.36-.17-.78.09-1.19,0-.68-.2-1.42,0-2.12-.24-.09,0-.21,0-.31,0a2.7,2.7,0,0,1-1.38-.09,1.28,1.28,0,0,0-1.05,0,1.54,1.54,0,0,1-.57.08,7.09,7.09,0,0,0-1.72,0,2.13,2.13,0,0,0-.81.37,5.39,5.39,0,0,0-2.67.19c-.48.09-1,.45-1.44,0,0,0-.13,0-.19,0a9.39,9.39,0,0,0-2,.71A3.47,3.47,0,0,1,61.33,7c-.23,0-.46.06-.69.09a21.36,21.36,0,0,1-2.54.61c-.36,0-.76.26-1.1.1s-.76.26-1.16.16a.87.87,0,0,0-.61.11,1,1,0,0,1-.61.16,1,1,0,0,0-1,.4,1.32,1.32,0,0,0-1.19-.05,5.1,5.1,0,0,1-2.1.5,2,2,0,0,1-1.16,1c-.5.17-1,.37-1.46.58a3.92,3.92,0,0,1-1.62.66.41.41,0,0,0-.3.21c-.2.48-.83.4-1,.84-.6,0-.95.71-1.62.54-.16,0-.28.12-.36.24a.49.49,0,0,1-.54.23,1.29,1.29,0,0,0-1,.28c-.12.08-.22.2-.39.19-.49,0-.73.35-1,.63-.07.06-.09.19-.2.23-.81.28-1.41,1-2.27,1.17a.38.38,0,0,0-.24.19,1.14,1.14,0,0,1-.58.45,4.52,4.52,0,0,0-1,.76,3.8,3.8,0,0,1-1.33.93c-.32.08-.51.4-.86.45-.17,0-.07.33-.17.38-.7.37-1.17,1-1.83,1.46a3.21,3.21,0,0,0-1.16.94c-.28.53-1,.54-1.15,1.1-.58.21-.86.78-1.32,1.13s-.72.85-1.16,1.07a3.15,3.15,0,0,0-1,.83c-.25.29-.63.37-.86.63a9.46,9.46,0,0,1-1.28,1.09,3.71,3.71,0,0,0-1.2,1.26,1.67,1.67,0,0,1-.78,1c-.09,0-.12.22-.18.33a1.29,1.29,0,0,1-.18.33c-.79.67-1.29,1.62-2.18,2.19a.63.63,0,0,0-.33.58,1.32,1.32,0,0,1-.21.66c-.16.1-.41.06-.47.28-.12.4-.49.57-.72.84-.49-.1-.49-.1-.81,0-.06.23.18.49,0,.73-.53.58-.63,1.43-1.23,2a.28.28,0,0,0-.09.23,1.23,1.23,0,0,1-.6,1,1.89,1.89,0,0,0-.7,1.83.68.68,0,0,0-.17.09c-.38.46-.62,1-1,1.44a1.54,1.54,0,0,0-.52,1.11s0,.08-.06.11c-.57,1-1,2.11-1.49,3.15a17.21,17.21,0,0,0-1.31,3.17,1.37,1.37,0,0,1-.23.45,3.7,3.7,0,0,0-.74,2.18c0,.52-.09,1-.15,1.57a1.63,1.63,0,0,0,0,.31,3,3,0,0,1-.55,1.91,4.07,4.07,0,0,0-.44,2c.05.36.1.71.14,1.07a.57.57,0,0,1-.17.5,1,1,0,0,0-.28.73,6.26,6.26,0,0,1-.1,1,8.82,8.82,0,0,0-.26,1.24c0,.44.16,1-.32,1.32a.16.16,0,0,0,0,.12c0,.48-.18.94,0,1.39-.11.09-.24,0-.31.07-.06.26.3.15.29.46a5.29,5.29,0,0,0-.19,2.3c-.56.24-.61.36-.35.9a1.78,1.78,0,0,1,.25,1.42.77.77,0,0,0,0,.26,13.86,13.86,0,0,0,0,1.44.67.67,0,0,1-.2.71c-.33-.46.2-1.09-.33-1.57-.13.65,0,1.23-.08,1.8A3.08,3.08,0,0,0,5.22,74.29Zm19-6a.6.6,0,0,1,.34-.38c.16-.1.36-.17.45-.35a.18.18,0,0,1,.07,0,.46.46,0,0,0,.36-.22c0-.06.12-.07.18-.1l.3-.13a4.8,4.8,0,0,1,.73-.33A9,9,0,0,0,28,66.23a3.79,3.79,0,0,1,1.19-.36,9.37,9.37,0,0,0,1.32-.29,9.09,9.09,0,0,0,1.74-.64,1.91,1.91,0,0,1,.32-.16c.49-.11.9-.42,1.4-.49l.11-.05a4.22,4.22,0,0,1,.81-.37c.49-.16,1-.36,1.46-.5s.83-.28,1.25-.44a10,10,0,0,0,1.27-.43l.14,0a3.1,3.1,0,0,0,.66-.19l1-.36a4.49,4.49,0,0,0,.72-.19c.19-.08.39-.06.57-.15a4.92,4.92,0,0,1,1.74-.45c.13,0,.29,0,.36-.15l1.63-.74c.25-.1.51-.2.75-.31s.76-.27,1.13-.43a8.82,8.82,0,0,0,.86-.31,1.06,1.06,0,0,0,.33-.18.63.63,0,0,1,.38-.15,1.18,1.18,0,0,0,.27-.06,12.1,12.1,0,0,0,1.39-.49,3.78,3.78,0,0,0,.53-.27,2,2,0,0,1,.8-.32,9.67,9.67,0,0,0,1.29-.41,7.79,7.79,0,0,0,1-.39c.39-.19.81-.33,1.23-.49a.66.66,0,0,0,.26-.14.66.66,0,0,1,.31-.16,5.45,5.45,0,0,1,.69-.2,4.91,4.91,0,0,0,.83-.32q.93-.35,1.86-.66a10.17,10.17,0,0,0,1.09-.41L61.94,54c.09,0,.15-.11.26-.13a11.46,11.46,0,0,0,1.49-.43,7.06,7.06,0,0,0,1.45-.67,2.67,2.67,0,0,1,.83-.33,4.67,4.67,0,0,0,.52-.08,2.77,2.77,0,0,0,.67-.22c.41-.22.86-.37,1.27-.58a3.75,3.75,0,0,1,.69-.29,2.22,2.22,0,0,0,.39-.1A1.16,1.16,0,0,1,70,51a.58.58,0,0,0,.17-.06c.55-.22,1.1-.47,1.67-.66a.75.75,0,0,0,.25-.09,4.92,4.92,0,0,1,1.16-.38c.13,0,.25-.14.39-.13a.93.93,0,0,0,.43-.12,3.09,3.09,0,0,1,1-.34l.14,0a8.18,8.18,0,0,1,1-.39c.11,0,.22,0,.32-.06a6.3,6.3,0,0,1,.84-.37c.43-.19.88-.33,1.32-.48a7.43,7.43,0,0,1,1.32-.39,1.51,1.51,0,0,0,.33-.13c.55-.23,1.08-.49,1.66-.67.14,0,.27-.13.41-.16.42-.08.81-.25,1.22-.37A9.63,9.63,0,0,0,85,45.57c.19-.09.4-.13.59-.23a4.45,4.45,0,0,1,1.17-.43,1.09,1.09,0,0,0,.31-.08,4.63,4.63,0,0,1,1.2-.42c.31-.08.57-.34.92-.27,0,0,0,0,0,0a11.44,11.44,0,0,1,1.47-.57c.34-.08.66-.22,1-.3s.66-.27,1-.38c.07,0,.13,0,.19,0a4.74,4.74,0,0,1,.93-.34,2.78,2.78,0,0,0,.75-.26A3,3,0,0,1,95,42c.6-.19,1.18-.45,1.77-.66a10.11,10.11,0,0,0,1.38-.54,10.07,10.07,0,0,1,1.07-.45,3.92,3.92,0,0,1,1.2-.43l.09,0c.26-.18.59-.16.86-.33A7.11,7.11,0,0,0,103,39c.25-.13.52-.21.76-.35a11.05,11.05,0,0,1,1-.55,4.3,4.3,0,0,1,1.45-.45c.12,0,.21,0,.25.11a.88.88,0,0,0,.18.21.87.87,0,0,1,.32.59.88.88,0,0,0,.06.29c.06.22.14.43.21.64a.37.37,0,0,0,.1.17.43.43,0,0,1,.15.38.5.5,0,0,0,.11.37.47.47,0,0,1,.1.3,1.41,1.41,0,0,0,.19.61,2.6,2.6,0,0,1,.27.75c.08.41.18.81.29,1.21a5.11,5.11,0,0,0,.72,1.39.76.76,0,0,1,.14.36,1.14,1.14,0,0,0,.09.46,4.44,4.44,0,0,0,.37.76,1.43,1.43,0,0,1,.23.52,2.18,2.18,0,0,0,.11.27.81.81,0,0,1-.09,1,.71.71,0,0,1-.32.22,13.47,13.47,0,0,0-1.47.51c-.11.06-.25.07-.36.14a1.76,1.76,0,0,1-.58.21,6.35,6.35,0,0,0-.78.19c-.31.1-.6.22-.9.34s-.7.27-1,.38a2.11,2.11,0,0,1-.38.17,3.59,3.59,0,0,0-.83.3,1.55,1.55,0,0,1-.6.18.24.24,0,0,0-.2.06c-.15.13-.38.11-.52.26a1.42,1.42,0,0,0-.52.19,15.41,15.41,0,0,0-1.6.6l-.14,0a6.43,6.43,0,0,0-1.55.52,1.17,1.17,0,0,1-.31.12,8.77,8.77,0,0,0-1.1.35,2.2,2.2,0,0,0-.45.17,6.36,6.36,0,0,1-1,.35c-.26.06-.5.15-.76.23a14,14,0,0,0-1.53.56,2.54,2.54,0,0,1-.38.16,4.49,4.49,0,0,0-1.19.39.34.34,0,0,1-.14.05,6.57,6.57,0,0,1-.76.21.43.43,0,0,0-.2.07c-.12.13-.32.1-.44.21s-.31.12-.46.17c-.37.12-.7.3-1.07.42-.56.17-1.12.34-1.67.56l-.12,0a.4.4,0,0,0-.27.09.58.58,0,0,1-.22.08,2.64,2.64,0,0,0-.83.29.6.6,0,0,1-.23.06,1.12,1.12,0,0,0-.42.09c-.14.08-.3.11-.41.19s-.12-.09-.18-.13a.17.17,0,0,0-.09.13c0,.15-.13.22-.32.26a2,2,0,0,0-.74.28c-.07,0-.11.14-.22.13s-.25.08-.38.14a4.44,4.44,0,0,1-.72.27c-.32.09-.65.15-1,.24a1.35,1.35,0,0,1-.44.38,12.67,12.67,0,0,0-1.32.55.18.18,0,0,1-.14,0,.93.93,0,0,0-.61.13,6.46,6.46,0,0,1-1.2.46l-.11,0a4.07,4.07,0,0,1-1.22.45c-.08,0-.16,0-.23.06a4.62,4.62,0,0,1-.88.39c-.33.09-.62.32-1,.4l-.16.08a1.47,1.47,0,0,1-.47.17,3.79,3.79,0,0,0-1,.37c-.21.1-.41.27-.66.22a.94.94,0,0,0-.62.14,4.8,4.8,0,0,1-.89.34,6.06,6.06,0,0,0-1.21.5l-.24.11a5.54,5.54,0,0,1-.88.26c-.42.1-.83.25-1.24.38a3,3,0,0,0-1,.41l0,0c-.26.11-.54.14-.81.23s-.55.23-.83.34a5.78,5.78,0,0,1-.7.24,1.69,1.69,0,0,0-.36.12,3.53,3.53,0,0,1-.71.33,2,2,0,0,0-.41.08c-.28.13-.59.2-.89.31a3.09,3.09,0,0,1-.43.14,4,4,0,0,0-.84.3,2.51,2.51,0,0,1-.78.24,1.07,1.07,0,0,0-.37.11,3.27,3.27,0,0,1-.65.26c-.39.14-.78.31-1.18.42a2.41,2.41,0,0,0-.45.16,14.44,14.44,0,0,1-2.78,1l-.1,0a4.4,4.4,0,0,1-1.1.4,5.08,5.08,0,0,0-1,.29.81.81,0,0,1-.31.1,1.72,1.72,0,0,0-.67.23,1.43,1.43,0,0,1-.48.16.6.6,0,0,0-.34.11c-.17.13-.4.17-.58.29a1,1,0,0,1-.43.13,5.08,5.08,0,0,0-1,.26.36.36,0,0,0-.18.1.75.75,0,0,1-.38.21l-.68.23a5.4,5.4,0,0,1-1.25.29,1,1,0,0,0-.55.2,3.13,3.13,0,0,1-.71.35l-.07,0c.35.15.69.31,1,.45s.94.4,1.43.59c.19.07.39.07.59.16a3.61,3.61,0,0,1,.71.35,1,1,0,0,0,.55.2,5.4,5.4,0,0,1,1.25.29l.68.23a.7.7,0,0,1,.38.22.44.44,0,0,0,.18.09,5.08,5.08,0,0,0,1,.26,1,1,0,0,1,.43.13c.18.12.41.16.58.29a.6.6,0,0,0,.34.11,1.43,1.43,0,0,1,.48.16,1.92,1.92,0,0,0,.67.24.66.66,0,0,1,.31.09,5.08,5.08,0,0,0,1,.29,4.4,4.4,0,0,1,1.1.4l.1,0a14.44,14.44,0,0,1,2.78,1,2.41,2.41,0,0,0,.45.16c.4.12.79.28,1.18.42a3.27,3.27,0,0,1,.65.26,1.07,1.07,0,0,0,.37.11,2.51,2.51,0,0,1,.78.24,4,4,0,0,0,.84.3,3.09,3.09,0,0,1,.43.14c.3.11.61.18.89.31a2,2,0,0,0,.41.08,3.53,3.53,0,0,1,.71.33,1.27,1.27,0,0,0,.36.12,5.78,5.78,0,0,1,.7.24c.28.11.55.25.83.34a7.53,7.53,0,0,1,.81.24h0a3,3,0,0,0,1,.41c.41.13.82.28,1.24.38a6.82,6.82,0,0,1,.88.26l.24.11a6.06,6.06,0,0,0,1.21.5,4.8,4.8,0,0,1,.89.34.94.94,0,0,0,.62.14c.25,0,.45.12.66.22a3.79,3.79,0,0,0,1,.37,1.47,1.47,0,0,1,.47.17l.16.08c.34.08.63.31,1,.4a4.62,4.62,0,0,1,.88.39,1.55,1.55,0,0,0,.23.06,4.07,4.07,0,0,1,1.22.45l.11,0a6.46,6.46,0,0,1,1.2.46.88.88,0,0,0,.61.13.18.18,0,0,1,.14,0,12.67,12.67,0,0,0,1.32.55,1.35,1.35,0,0,1,.44.38c.32.09.65.15,1,.24a4.44,4.44,0,0,1,.72.27c.13.06.23.15.38.14s.15.09.22.13a2,2,0,0,0,.74.28c.19,0,.28.11.32.26a.17.17,0,0,0,.09.13c.06,0,.07-.12.18-.13s.27.11.41.19a1.12,1.12,0,0,0,.42.09.6.6,0,0,1,.23.06,2.64,2.64,0,0,0,.83.29.58.58,0,0,1,.22.08.36.36,0,0,0,.27.09l.12,0c.55.22,1.11.39,1.67.56.37.12.7.3,1.07.42.15.06.32,0,.46.17s.32.08.44.21a.43.43,0,0,0,.2.07,6.57,6.57,0,0,1,.76.21.34.34,0,0,1,.14.05,4.49,4.49,0,0,0,1.19.39,2.54,2.54,0,0,1,.38.16,14,14,0,0,0,1.53.56c.26.08.5.17.76.23a5.46,5.46,0,0,1,1,.36,3,3,0,0,0,.45.16,8.77,8.77,0,0,0,1.1.35,1.17,1.17,0,0,1,.31.12,6.43,6.43,0,0,0,1.55.52l.14,0a15.41,15.41,0,0,0,1.6.6,1.42,1.42,0,0,0,.52.19c.14.15.37.13.52.26a.24.24,0,0,0,.2.06,1.41,1.41,0,0,1,.6.19,3.56,3.56,0,0,0,.83.29,2.11,2.11,0,0,1,.38.17c.35.11.71.24,1,.38s.59.24.9.34a6.35,6.35,0,0,0,.78.19,1.76,1.76,0,0,1,.58.21c.11.07.25.08.36.14a13.47,13.47,0,0,0,1.47.51.71.71,0,0,1,.32.22.81.81,0,0,1,.09,1,2.18,2.18,0,0,0-.11.27,1.43,1.43,0,0,1-.23.52,4.44,4.44,0,0,0-.37.76,1.14,1.14,0,0,0-.09.46.76.76,0,0,1-.14.36,5.11,5.11,0,0,0-.72,1.39c-.11.4-.21.8-.29,1.21a2.6,2.6,0,0,1-.27.75,1.41,1.41,0,0,0-.19.61.47.47,0,0,1-.1.3.5.5,0,0,0-.11.37.43.43,0,0,1-.15.38.37.37,0,0,0-.1.17c-.07.21-.15.42-.21.64a.88.88,0,0,0-.06.29.87.87,0,0,1-.32.59.88.88,0,0,0-.18.21c0,.1-.13.12-.25.11a4.3,4.3,0,0,1-1.45-.45,11.05,11.05,0,0,1-1-.55c-.24-.14-.51-.22-.76-.34a6.69,6.69,0,0,0-1.62-.59c-.27-.17-.6-.15-.86-.33l-.09,0a3.92,3.92,0,0,1-1.2-.43,8.35,8.35,0,0,1-1.07-.45,10.11,10.11,0,0,0-1.38-.54c-.59-.21-1.17-.47-1.77-.66a3,3,0,0,1-.4-.2,2.78,2.78,0,0,0-.75-.26,4.74,4.74,0,0,1-.93-.34,1.05,1.05,0,0,0-.19,0c-.33-.11-.64-.29-1-.38s-.65-.22-1-.3a10.14,10.14,0,0,1-1.47-.57s0,0,0,0c-.35.07-.61-.19-.92-.27a4.63,4.63,0,0,1-1.2-.42,1.09,1.09,0,0,0-.31-.08,4.45,4.45,0,0,1-1.17-.43c-.19-.09-.4-.14-.59-.23a9.63,9.63,0,0,0-1.48-.62c-.41-.12-.8-.29-1.22-.37-.14,0-.27-.12-.41-.16-.58-.18-1.11-.44-1.66-.67a1.51,1.51,0,0,0-.33-.13,7.43,7.43,0,0,1-1.32-.39c-.44-.15-.89-.29-1.32-.48a7.86,7.86,0,0,1-.84-.36c-.1-.07-.21,0-.32-.07a8.18,8.18,0,0,1-1-.39l-.14,0a3.09,3.09,0,0,1-1-.34.93.93,0,0,0-.43-.12c-.14,0-.26-.09-.39-.13a4.92,4.92,0,0,1-1.16-.38,1.06,1.06,0,0,0-.25-.09c-.57-.19-1.12-.44-1.67-.66a.58.58,0,0,0-.17-.06,1.16,1.16,0,0,1-.47-.17,2.22,2.22,0,0,0-.39-.1,3.75,3.75,0,0,1-.69-.29c-.41-.21-.86-.36-1.27-.58a2.77,2.77,0,0,0-.67-.22A4.67,4.67,0,0,0,69,93a2.67,2.67,0,0,1-.83-.33A7.06,7.06,0,0,0,66.69,92a11.46,11.46,0,0,0-1.49-.43c-.11,0-.17-.1-.26-.13L63.72,91a10.17,10.17,0,0,0-1.09-.41q-.93-.32-1.86-.66a4.91,4.91,0,0,0-.83-.32,5.45,5.45,0,0,1-.69-.2.66.66,0,0,1-.31-.16.66.66,0,0,0-.26-.14c-.42-.16-.84-.3-1.23-.49a7.79,7.79,0,0,0-1-.39,9.67,9.67,0,0,0-1.29-.41,1.85,1.85,0,0,1-.8-.32,3.78,3.78,0,0,0-.53-.27,12.1,12.1,0,0,0-1.39-.49,1.18,1.18,0,0,0-.27-.06.63.63,0,0,1-.38-.15,1.06,1.06,0,0,0-.33-.18,8.82,8.82,0,0,0-.86-.31c-.37-.16-.76-.26-1.13-.43s-.5-.21-.75-.31l-1.63-.74c-.07-.16-.23-.13-.36-.15A4.92,4.92,0,0,1,45,83.91c-.18-.09-.38-.07-.57-.15a4.49,4.49,0,0,0-.72-.19c-.35-.11-.7-.24-1-.36A3.1,3.1,0,0,0,42,83l-.14,0a10,10,0,0,0-1.27-.43c-.42-.16-.83-.31-1.25-.44s-1-.34-1.46-.5a4.22,4.22,0,0,1-.81-.37l-.11,0c-.5-.07-.91-.38-1.4-.49a1.91,1.91,0,0,1-.32-.16,9.09,9.09,0,0,0-1.74-.64,9.37,9.37,0,0,0-1.32-.29A3.79,3.79,0,0,1,31,79.25a9,9,0,0,0-1.33-.53,4.8,4.8,0,0,1-.73-.33l-.3-.13c-.06,0-.14,0-.18-.1a.46.46,0,0,0-.36-.22.18.18,0,0,1-.07,0s0,0-.06-.07-.05,0-.07,0a1.6,1.6,0,0,1-.69-.38c-.06-.08-.14,0-.21,0s0-.07,0-.11a5.49,5.49,0,0,0-.24-.68c-.14-.25-.25-.52-.38-.78a2.16,2.16,0,0,1-.21-.62.22.22,0,0,0-.06-.13,2.79,2.79,0,0,1-.34-.72,4.19,4.19,0,0,0-.42-1,6.66,6.66,0,0,1-.59-1.27,3,3,0,0,0-.15-.42,11.47,11.47,0,0,1-.64-1.53,1.81,1.81,0,0,1-.12-.73,2.1,2.1,0,0,0,0-.43C23.73,68.66,23.84,68.49,24.21,68.32Z"/><path class="cls-1" d="M76.46,60a2.86,2.86,0,0,1,.9-.39c.18-.08.36-.13.53-.21a1.39,1.39,0,0,1,.67-.17A.5.5,0,0,1,78.9,59a3.83,3.83,0,0,1,.8-.23c.32-.19.69-.25,1-.41a.46.46,0,0,0-.13-.39c-.12,0-.17.1-.27,0a.52.52,0,0,1-.07.11,1.16,1.16,0,0,1-.86.61l-.62.08c-.22,0-.49,0-.61.29,0,.08-.17.11-.26.11a2.77,2.77,0,0,0-.56.11.63.63,0,0,0-.4.21.6.6,0,0,1-.31.15A3.18,3.18,0,0,0,76,60,.31.31,0,0,0,76.46,60Z"/><path class="cls-2" d="M69.59,79.22c-.1-.16-.28-.2-.4-.3S69,79,69,79C69.21,79.27,69.39,79.33,69.59,79.22Z"/><path class="cls-2" d="M64.16,77.3c-.32.07-.35.17-.11.37C64.18,77.58,64.26,77.47,64.16,77.3Z"/><path class="cls-2" d="M101.81,43c-.22-.13-.34.11-.51.12a.13.13,0,0,0,.07.18C101.55,43.27,101.61,43.08,101.81,43Z"/><path class="cls-2" d="M70.47,79.28c.07,0,.11,0,.11-.07a2.06,2.06,0,0,1-.53-.4A.91.91,0,0,0,70.47,79.28Z"/><path class="cls-2" d="M104.81,92.45c-.2,0-.26-.24-.44-.3a.13.13,0,0,0-.07.18C104.47,92.34,104.59,92.58,104.81,92.45Z"/><path class="cls-2" d="M83,83.9a.58.58,0,0,1,.31.46.7.7,0,0,0,.27.46.44.44,0,0,1,.16.23l.52.21a1.48,1.48,0,0,0,0-.47.13.13,0,0,1,0-.12c.1-.26,0-.34-.23-.48s-.42-.19-.61-.3a3.73,3.73,0,0,0-.61-.26A.52.52,0,0,0,83,83.9Z"/><path class="cls-2" d="M74.94,81a.63.63,0,0,0,.4.21,2.77,2.77,0,0,0,.56.11c.09,0,.22,0,.26.11.12.27.39.26.61.29l.62.08a1.16,1.16,0,0,1,.86.61.52.52,0,0,1,.07.11c.1-.07.15.08.27,0a.46.46,0,0,0,.13-.39c-.33-.16-.7-.22-1-.41a3.83,3.83,0,0,1-.8-.23.5.5,0,0,1-.34-.26,1.39,1.39,0,0,1-.67-.17c-.17-.08-.35-.13-.53-.21a2.86,2.86,0,0,1-.9-.39.31.31,0,0,0-.45,0,3.18,3.18,0,0,0,.62.35A.6.6,0,0,1,74.94,81Z"/><path class="cls-2" d="M67.47,56.2a.91.91,0,0,0-.42.47,2.06,2.06,0,0,1,.53-.4C67.58,56.2,67.54,56.16,67.47,56.2Z"/><path class="cls-2" d="M81.05,51.29c.28-.14.33-.22.23-.48a.13.13,0,0,1,0-.12,1.48,1.48,0,0,0,0-.47l-.52.21a.44.44,0,0,1-.16.23.7.7,0,0,0-.27.46.58.58,0,0,1-.31.46.52.52,0,0,0-.2.27,3.73,3.73,0,0,0,.61-.26C80.63,51.48,80.84,51.39,81.05,51.29Z"/><path class="cls-2" d="M61.05,57.81c-.24.21-.21.3.11.37C61.26,58,61.18,57.9,61.05,57.81Z"/><path class="cls-2" d="M66.59,56.26c-.2-.11-.38,0-.57.2,0,.07.11.06.17.1S66.49,56.42,66.59,56.26Z"/><path class="cls-2" d="M.22,69.29c.28-.15,0-.51.36-.62.06.33.21.65,0,1a.3.3,0,0,0-.05.3c.19.44-.17.93.14,1.35a6.11,6.11,0,0,0,.13,1.86.38.38,0,0,1-.12.3c-.19,0-.33-.39-.6-.07a4.92,4.92,0,0,1,.33,1.36c.16-.4,0-.76.31-.95.16.11.29.2.26.45A1.23,1.23,0,0,0,1,75.1a.4.4,0,0,1-.05.45c-.24.18-.46-.13-.68,0a6.14,6.14,0,0,1,.06,1.76,2.23,2.23,0,0,0,.14,1.36,1.64,1.64,0,0,1,.08,1.11c0,.1-.08.22,0,.31.28.49.13,1.06.34,1.59a11.2,11.2,0,0,1,.51,2.46A3.51,3.51,0,0,0,2,85.9a.93.93,0,0,1,.14.6A3.13,3.13,0,0,0,2.33,88c.32.69.34,1.53,1,2.06.15.13,0,.29.1.41.17.48-.07,1.1.51,1.42a.83.83,0,0,0,0,.86c.2.31,0,.82.51,1,0,0,0,.13,0,.19.18.44.12,1,.46,1.34a4.47,4.47,0,0,1,.79,1.49c0,.14,0,.31.18.39a1.85,1.85,0,0,1,.7,1.09c.35.94.8,1.83,1.13,2.76a1.22,1.22,0,0,0,.29.42.84.84,0,0,1,.25.36,2.11,2.11,0,0,0,.56.91c.09.11.22.2.25.36.12.64.68,1,1.09,1.38a1,1,0,0,1,.39.85c0,.65-.07.94.71,1.22a.82.82,0,0,1,.17.11,2.09,2.09,0,0,0,1.06,1.43c.15.09.36.19.39.32.1.4.46.59.69.87.06.09.18.15.17.26-.05.41.26.54.53.69a1,1,0,0,1,.57.78.9.9,0,0,0,.37.64,13.63,13.63,0,0,1,1.06,1.09,34,34,0,0,0,2.4,2.55.46.46,0,0,1,.15.27c0,.23.21.36.34.52a2.4,2.4,0,0,0,1.07.71c.18.2,0,.53.33.62s.33-.26.62-.28a1.92,1.92,0,0,1,.69.31,1.28,1.28,0,0,1,0,.27c-.05.54.35.88.54,1.32.5.1.61.59.91.89a1.12,1.12,0,0,0,.62.41,1.6,1.6,0,0,1,1.11.79,2.58,2.58,0,0,0,.87.72c.8.45,1.77.64,2.3,1.5,0,0,.12.06.16.1a8.64,8.64,0,0,0,1.57,1c.36.22.6.57,1,.79,1,.61,2,1.17,3,1.78a8.47,8.47,0,0,0,1.51.67,5.63,5.63,0,0,1,.76.33,3.51,3.51,0,0,0,1.25.55,1,1,0,0,1,.51.25,2.87,2.87,0,0,0,1.11.61,3.9,3.9,0,0,1,.69.32,4.83,4.83,0,0,0,1.24.63c.48.13,1,.24,1.43.41A22.9,22.9,0,0,1,45.5,132a10.83,10.83,0,0,0,2.8.86,7.37,7.37,0,0,0,1.17.26c1,.08,2,.33,2.94.47A9.73,9.73,0,0,1,55,134a.91.91,0,0,0,.37,0,4.32,4.32,0,0,1,1.94.24,7.71,7.71,0,0,0,2.56.6A19,19,0,0,1,62,135a3,3,0,0,0,.68.14c.74,0,1.48.12,2.21.17a6.93,6.93,0,0,0,1,.16,19.66,19.66,0,0,1,2.66,0,2.33,2.33,0,0,0,1.69-.27c.15-.12.32,0,.49,0a2.25,2.25,0,0,0,1.26-.08,1.34,1.34,0,0,1,.86-.1c.31,0,.65.17.94,0a3.94,3.94,0,0,1,1.42-.31c.41,0,.77-.3,1.15-.31a6.22,6.22,0,0,0,1.55-.27,1.65,1.65,0,0,1,.31,0,8.74,8.74,0,0,1,1.77.05,4,4,0,0,0,1.28-.17c.44-.07.93.09,1.3-.29.79,0,1.47-.59,2.29-.4a2.83,2.83,0,0,0,.69-.11c.54-.05.9-.45,1.37-.63s.75-.17,1.09-.3.58-.49.88-.71a1.88,1.88,0,0,1,.64-.3,18.42,18.42,0,0,1,2.45-.66,7.17,7.17,0,0,0,2.06-.65c.2-.09.31-.31.52-.34a7.17,7.17,0,0,0,2.35-1.28,4.78,4.78,0,0,1,1-.55.42.42,0,0,0,.32-.19.66.66,0,0,1,.58-.33,1.78,1.78,0,0,0,.58-.26c.68-.36,1.32-.8,2-1.13a4.82,4.82,0,0,0,2-1.5,1.75,1.75,0,0,1,1-.77,1.49,1.49,0,0,0,.59-.36c.56-.43,1-1.08,1.77-1.19a.31.31,0,0,0,.19-.15c.19-.42.63-.55,1-.79s.74-.41,1.08-.66a21.8,21.8,0,0,0,2.64-2.71c.78-.85,3.5-2.13,3.31-2.49a.34.34,0,0,1,.31-.51.81.81,0,0,0,.57-.36c.31-.32.61-.64.89-1a12.36,12.36,0,0,0,.88-.9c.45-.69.91-1.37,1.37-2a10.71,10.71,0,0,1,1.36-1.58,18,18,0,0,0,1.61-2c.46-.62.92-1.25,1.39-1.86.75-1,1.28-2.11,2-3.15a7.85,7.85,0,0,0,.82-1.35,12,12,0,0,1,1.7-3,3.54,3.54,0,0,0,.79-1.43,17.77,17.77,0,0,1,1.17-3.28,24.52,24.52,0,0,0,1.12-2.88,3.73,3.73,0,0,1,.14-.68,25,25,0,0,0,1-3.39c.37-1.17.62-2.37,1-3.53a7,7,0,0,0,.3-1.3,6.85,6.85,0,0,1,.34-1.54,9.44,9.44,0,0,0,.3-1.3c.17-.65.18-1.34.38-2a9.22,9.22,0,0,0,.13-3.14,7.35,7.35,0,0,1,0-1.81c0-.16-.26-.12-.22-.29.3,0,.29-.16.31-.3s-.37-.18-.35-.43.29,0,.36-.17a5.34,5.34,0,0,0,.3-2.85,6,6,0,0,1-.05-.62,4.16,4.16,0,0,0,.05-1c-.06-.32-.07-.65-.15-1-.19-.79-.29-1.58-.44-2.37,0-.18-.18-.38-.1-.55a.79.79,0,0,0-.23-.94c.47-.91,0-1.84.12-2.75-.34-.37-.23-.87-.32-1.3s-.21-.86-.32-1.28c-.17-.64-.2-1.3-.42-1.93a2.56,2.56,0,0,1,0-1.32,2.06,2.06,0,0,0-.12-1.23,4.64,4.64,0,0,1-.35-1.23,25,25,0,0,0-1-2.71c0-.07-.1-.13-.16-.19-.66-.65-.73-1.6-1.2-2.35a.31.31,0,0,1,0-.19,1,1,0,0,0-.31-.92c-.22-.26-.46-.51-.28-.91,0-.12,0-.25-.14-.34-.52-.44-.33-1.25-.86-1.69.07-.28-.19-.41-.29-.61s-.22-.2-.17-.32c.16-.38-.06-.58-.31-.8s-.1-.27-.12-.42a4.1,4.1,0,0,0-.92-2c-.42-.49-.32-1.21-.88-1.57a.18.18,0,0,1,0-.06c.1-.31-.09-.58-.15-.86a2.43,2.43,0,0,0-.79-1.35,3.89,3.89,0,0,1-.91-1,2.2,2.2,0,0,1-.46-1.06c0-.1-.12-.18-.16-.26-.19-.37-.57-.64-.63-1.07a.56.56,0,0,0-.36-.54.29.29,0,0,1-.17-.17,2.22,2.22,0,0,0-.88-1.41,6,6,0,0,0-.92-.75,1.71,1.71,0,0,1-.69-.64,1.68,1.68,0,0,0-.54-.52,2.69,2.69,0,0,1-1.14-1.24c-.16-.41-.61-.67-.67-1.17,0-.06-.11-.13-.17-.18a3.4,3.4,0,0,1-1.26-1.7.48.48,0,0,0-.18-.26,2.8,2.8,0,0,1-1-1c-.58-.17-.91-.77-1.55-.87,0-.32,0-.63-.35-.66a1.41,1.41,0,0,1-1.07-.77,3.61,3.61,0,0,0-.69-.81,8.54,8.54,0,0,0-1.91-1.12,1.79,1.79,0,0,1-.87-.87,2.22,2.22,0,0,0-.31-.52,3.24,3.24,0,0,1-.84-.15c-.31-.07-.53.27-.82.2-.13-.18.11-.3,0-.45l-.05,0c-.55-.36-1.24-.56-1.51-1.26a.25.25,0,0,0-.31-.17c-.26.08-.47-.08-.7-.15-.52-.16-.93-.56-1.49-.61a.53.53,0,0,1-.46-.39.77.77,0,0,0-.24-.38l-.37,0c-.37,0-.68-.12-.8-.55a.85.85,0,0,0-1-.33.51.51,0,0,1-.57,0c0-.16.1-.37-.08-.54a4.07,4.07,0,0,0-1,.09c0-.33.34-.22.43-.44a5.68,5.68,0,0,1-1.82-1A.72.72,0,0,0,96,7.5c-.45.06-.64-.25-.79-.59a1.38,1.38,0,0,0-.23-.5c-.59.1-.87-.46-1.37-.72a.92.92,0,0,1-.72-.12,5,5,0,0,0-1.56-.43c-.31-.06-.57-.12-.71-.44A.53.53,0,0,0,90,4.35,1.26,1.26,0,0,1,89,4a1.19,1.19,0,0,0-.42-.28,16.26,16.26,0,0,1-2.62-1c-.46-.24-1-.4-1.39-.64a1.89,1.89,0,0,0-1.87-.12c-.13.07-.25.17-.42.12l-.15-.2c-.48-.59-.76-.63-1.4-.21-.09.06-.23.16-.28.13a6,6,0,0,0-1.49-.39s-.09-.08-.13-.13a1.14,1.14,0,0,0-.9-.37c-1.2-.1-2.4,0-3.59-.07A2.42,2.42,0,0,1,73.26.44c-.36-.17-.78.09-1.19,0C71.39.2,70.65.37,70,.16c-.09,0-.21,0-.31,0A2.7,2.7,0,0,1,68.26.11a1.28,1.28,0,0,0-1.05,0,1.54,1.54,0,0,1-.57.08,7.09,7.09,0,0,0-1.72,0,2.13,2.13,0,0,0-.81.37,5.39,5.39,0,0,0-2.67.19c-.48.09-1,.45-1.44,0,0,0-.13,0-.19,0a9.39,9.39,0,0,0-2,.71A3.47,3.47,0,0,1,56.33,2c-.23,0-.46.06-.69.09a21.36,21.36,0,0,1-2.54.61c-.36,0-.76.26-1.1.1s-.76.26-1.16.16a.87.87,0,0,0-.61.11,1,1,0,0,1-.61.16,1,1,0,0,0-1,.4,1.32,1.32,0,0,0-1.19,0,5.1,5.1,0,0,1-2.1.5,2,2,0,0,1-1.16,1c-.5.17-1,.37-1.46.58a3.92,3.92,0,0,1-1.62.66.41.41,0,0,0-.3.21c-.2.48-.83.4-1,.84-.6,0-.95.71-1.62.54-.16,0-.28.12-.36.24a.49.49,0,0,1-.54.23,1.29,1.29,0,0,0-1,.28c-.12.08-.22.2-.39.19-.49,0-.73.35-1,.63-.07.06-.09.19-.2.23-.81.28-1.41,1-2.27,1.17a.38.38,0,0,0-.24.19,1.14,1.14,0,0,1-.58.45,4.52,4.52,0,0,0-1,.76,3.8,3.8,0,0,1-1.33.93c-.32.08-.51.4-.86.45-.17,0-.07.33-.17.38-.7.37-1.17,1-1.83,1.46a3.21,3.21,0,0,0-1.16.94c-.28.53-1,.54-1.15,1.1-.58.21-.86.78-1.32,1.13s-.72.85-1.16,1.07a3.15,3.15,0,0,0-1,.83c-.25.29-.63.37-.86.63a9.46,9.46,0,0,1-1.28,1.09,3.71,3.71,0,0,0-1.2,1.26,1.67,1.67,0,0,1-.78,1c-.09,0-.12.22-.18.33a1.29,1.29,0,0,1-.18.33c-.79.67-1.29,1.62-2.18,2.19a.63.63,0,0,0-.33.58,1.32,1.32,0,0,1-.21.66c-.16.1-.41.06-.47.28-.12.4-.49.57-.72.84-.49-.1-.49-.1-.81,0-.06.23.18.49,0,.73-.53.58-.63,1.43-1.23,2a.28.28,0,0,0-.09.23,1.23,1.23,0,0,1-.6,1,1.89,1.89,0,0,0-.7,1.83.68.68,0,0,0-.17.09c-.38.46-.62,1-1,1.44a1.54,1.54,0,0,0-.52,1.11s0,.08-.06.11c-.57,1-1,2.11-1.49,3.15a17.21,17.21,0,0,0-1.31,3.17,1.37,1.37,0,0,1-.23.45,3.7,3.7,0,0,0-.74,2.18c0,.52-.09,1-.15,1.57a1.63,1.63,0,0,0,0,.31,3,3,0,0,1-.55,1.91,4.07,4.07,0,0,0-.44,2c.05.36.1.71.14,1.07a.57.57,0,0,1-.17.5,1,1,0,0,0-.28.73,6.26,6.26,0,0,1-.1,1,8.82,8.82,0,0,0-.26,1.24c0,.44.16,1-.32,1.32a.16.16,0,0,0,0,.12c0,.48-.18.94-.05,1.39-.11.09-.24,0-.31.07s.3.15.29.46a5.29,5.29,0,0,0-.19,2.3c-.56.24-.61.36-.35.9a1.78,1.78,0,0,1,.25,1.42.77.77,0,0,0,0,.26,13.86,13.86,0,0,0,.05,1.44.67.67,0,0,1-.2.71c-.33-.46.2-1.09-.33-1.57-.13.65,0,1.23-.08,1.8A3.08,3.08,0,0,0,.22,69.29Zm19-6a.6.6,0,0,1,.34-.38c.16-.1.36-.17.45-.35a.18.18,0,0,1,.07-.05.46.46,0,0,0,.36-.22c0-.06.12-.07.18-.1l.3-.13a4.8,4.8,0,0,1,.73-.33A9,9,0,0,0,23,61.23a3.79,3.79,0,0,1,1.19-.36,9.37,9.37,0,0,0,1.32-.29,9.09,9.09,0,0,0,1.74-.64,1.91,1.91,0,0,1,.32-.16c.49-.11.9-.42,1.4-.49l.11,0a4.22,4.22,0,0,1,.81-.37c.49-.16,1-.36,1.46-.5s.83-.28,1.25-.44a10,10,0,0,0,1.27-.43l.14,0a3.1,3.1,0,0,0,.66-.19l1-.36a4.49,4.49,0,0,0,.72-.19c.19-.08.39-.06.57-.15a4.92,4.92,0,0,1,1.74-.45c.13,0,.29,0,.36-.15l1.63-.74c.25-.1.51-.2.75-.31s.76-.27,1.13-.43a8.82,8.82,0,0,0,.86-.31,1.06,1.06,0,0,0,.33-.18.63.63,0,0,1,.38-.15,1.18,1.18,0,0,0,.27-.06,12.1,12.1,0,0,0,1.39-.49,3.78,3.78,0,0,0,.53-.27,2,2,0,0,1,.8-.32,9.67,9.67,0,0,0,1.29-.41,7.79,7.79,0,0,0,1-.39c.39-.19.81-.33,1.23-.49a.66.66,0,0,0,.26-.14.66.66,0,0,1,.31-.16,5.45,5.45,0,0,1,.69-.2,4.91,4.91,0,0,0,.83-.32q.93-.35,1.86-.66a10.17,10.17,0,0,0,1.09-.41L56.94,49c.09,0,.15-.11.26-.13a11.46,11.46,0,0,0,1.49-.43,7.06,7.06,0,0,0,1.45-.67,2.67,2.67,0,0,1,.83-.33,4.67,4.67,0,0,0,.52-.08,2.77,2.77,0,0,0,.67-.22c.41-.22.86-.37,1.27-.58a3.75,3.75,0,0,1,.69-.29,2.22,2.22,0,0,0,.39-.1A1.16,1.16,0,0,1,65,46a.58.58,0,0,0,.17-.06c.55-.22,1.1-.47,1.67-.66a.75.75,0,0,0,.25-.09,4.92,4.92,0,0,1,1.16-.38c.13,0,.25-.14.39-.13a.93.93,0,0,0,.43-.12,3.09,3.09,0,0,1,1-.34l.14,0a8.18,8.18,0,0,1,1-.39c.11,0,.22,0,.32-.06a6.3,6.3,0,0,1,.84-.37c.43-.19.88-.33,1.32-.48a7.43,7.43,0,0,1,1.32-.39,1.51,1.51,0,0,0,.33-.13c.55-.23,1.08-.49,1.66-.67.14,0,.27-.13.41-.16.42-.08.81-.25,1.22-.37A9.63,9.63,0,0,0,80,40.57c.19-.09.4-.13.59-.23a4.45,4.45,0,0,1,1.17-.43,1.09,1.09,0,0,0,.31-.08,4.63,4.63,0,0,1,1.2-.42c.31-.08.57-.34.92-.27,0,0,0,0,0,0a11.44,11.44,0,0,1,1.47-.57c.34-.08.66-.22,1-.3s.66-.27,1-.38c.07,0,.13,0,.19,0a4.74,4.74,0,0,1,.93-.34,2.78,2.78,0,0,0,.75-.26A3,3,0,0,1,90,37c.6-.19,1.18-.45,1.77-.66a10.11,10.11,0,0,0,1.38-.54,10.07,10.07,0,0,1,1.07-.45,3.92,3.92,0,0,1,1.2-.43l.09,0c.26-.18.59-.16.86-.33A7.11,7.11,0,0,0,98,34c.25-.13.52-.21.76-.35a11.05,11.05,0,0,1,1-.55,4.3,4.3,0,0,1,1.45-.45c.12,0,.21,0,.25.11a.88.88,0,0,0,.18.21.87.87,0,0,1,.32.59.88.88,0,0,0,.06.29c.06.22.14.43.21.64a.37.37,0,0,0,.1.17.43.43,0,0,1,.15.38.5.5,0,0,0,.11.37.47.47,0,0,1,.1.3,1.41,1.41,0,0,0,.19.61,2.6,2.6,0,0,1,.27.75c.08.41.18.81.29,1.21a5.11,5.11,0,0,0,.72,1.39.76.76,0,0,1,.14.36,1.14,1.14,0,0,0,.09.46,4.44,4.44,0,0,0,.37.76,1.43,1.43,0,0,1,.23.52,2.18,2.18,0,0,0,.11.27.81.81,0,0,1-.09,1,.71.71,0,0,1-.32.22,13.47,13.47,0,0,0-1.47.51c-.11.06-.25.07-.36.14a1.76,1.76,0,0,1-.58.21,6.35,6.35,0,0,0-.78.19c-.31.1-.6.22-.9.34s-.7.27-1,.38a2.11,2.11,0,0,1-.38.17,3.59,3.59,0,0,0-.83.3,1.55,1.55,0,0,1-.6.18.24.24,0,0,0-.2.06c-.15.13-.38.11-.52.26a1.42,1.42,0,0,0-.52.19,15.41,15.41,0,0,0-1.6.6l-.14,0a6.43,6.43,0,0,0-1.55.52,1.17,1.17,0,0,1-.31.12,8.77,8.77,0,0,0-1.1.35,2.2,2.2,0,0,0-.45.17,6.36,6.36,0,0,1-1,.35c-.26.06-.5.15-.76.23a14,14,0,0,0-1.53.56,2.54,2.54,0,0,1-.38.16,4.49,4.49,0,0,0-1.19.39.34.34,0,0,1-.14.05,6.57,6.57,0,0,1-.76.21.43.43,0,0,0-.2.07c-.12.13-.32.1-.44.21s-.31.12-.46.17c-.37.12-.7.3-1.07.42-.56.17-1.12.34-1.67.56l-.12,0a.4.4,0,0,0-.27.09.58.58,0,0,1-.22.08,2.64,2.64,0,0,0-.83.29.6.6,0,0,1-.23.06,1.12,1.12,0,0,0-.42.09c-.14.08-.3.11-.41.19s-.12-.09-.18-.13a.17.17,0,0,0-.09.13c0,.15-.13.22-.32.26a2,2,0,0,0-.74.28c-.07,0-.11.14-.22.13s-.25.08-.38.14a4.44,4.44,0,0,1-.72.27c-.32.09-.65.15-1,.24a1.35,1.35,0,0,1-.44.38,12.67,12.67,0,0,0-1.32.55.18.18,0,0,1-.14,0,.93.93,0,0,0-.61.13,6.46,6.46,0,0,1-1.2.46l-.11,0a4.07,4.07,0,0,1-1.22.45c-.08,0-.16,0-.23.06a4.62,4.62,0,0,1-.88.39c-.33.09-.62.32-1,.4l-.16.08a1.47,1.47,0,0,1-.47.17,3.79,3.79,0,0,0-1,.37c-.21.1-.41.27-.66.22a.94.94,0,0,0-.62.14,4.8,4.8,0,0,1-.89.34,6.06,6.06,0,0,0-1.21.5l-.24.11a5.54,5.54,0,0,1-.88.26c-.42.1-.83.25-1.24.38a3,3,0,0,0-1,.41l0,0c-.26.11-.54.14-.81.23s-.55.23-.83.34a5.78,5.78,0,0,1-.7.24,1.69,1.69,0,0,0-.36.12,3.53,3.53,0,0,1-.71.33,2,2,0,0,0-.41.08c-.28.13-.59.2-.89.31a3.09,3.09,0,0,1-.43.14,4,4,0,0,0-.84.3,2.51,2.51,0,0,1-.78.24,1.07,1.07,0,0,0-.37.11,3.27,3.27,0,0,1-.65.26c-.39.14-.78.31-1.18.42a2.41,2.41,0,0,0-.45.16,14.44,14.44,0,0,1-2.78,1l-.1,0a4.4,4.4,0,0,1-1.1.4,5.08,5.08,0,0,0-1,.29.81.81,0,0,1-.31.1,1.72,1.72,0,0,0-.67.23,1.43,1.43,0,0,1-.48.16.6.6,0,0,0-.34.11c-.17.13-.4.17-.58.29a1,1,0,0,1-.43.13,5.08,5.08,0,0,0-1,.26.36.36,0,0,0-.18.1.75.75,0,0,1-.38.21l-.68.23a5.4,5.4,0,0,1-1.25.29,1,1,0,0,0-.55.2,3.13,3.13,0,0,1-.71.35l-.07,0c.35.15.69.31,1,.45s.94.4,1.43.59c.19.07.39.07.59.16a3.61,3.61,0,0,1,.71.35,1,1,0,0,0,.55.2,5.4,5.4,0,0,1,1.25.29l.68.23a.7.7,0,0,1,.38.22.44.44,0,0,0,.18.09,5.08,5.08,0,0,0,1,.26,1,1,0,0,1,.43.13c.18.12.41.16.58.29a.6.6,0,0,0,.34.11,1.43,1.43,0,0,1,.48.16,1.92,1.92,0,0,0,.67.24.66.66,0,0,1,.31.09,5.08,5.08,0,0,0,1,.29,4.4,4.4,0,0,1,1.1.4l.1,0a14.44,14.44,0,0,1,2.78,1,2.41,2.41,0,0,0,.45.16c.4.12.79.28,1.18.42a3.27,3.27,0,0,1,.65.26,1.07,1.07,0,0,0,.37.11,2.51,2.51,0,0,1,.78.24,4,4,0,0,0,.84.3,3.09,3.09,0,0,1,.43.14c.3.11.61.18.89.31a2,2,0,0,0,.41.08,3.53,3.53,0,0,1,.71.33,1.27,1.27,0,0,0,.36.12,5.78,5.78,0,0,1,.7.24c.28.11.55.25.83.34a7.53,7.53,0,0,1,.81.24h0a3,3,0,0,0,1,.41c.41.13.82.28,1.24.38a6.82,6.82,0,0,1,.88.26l.24.11a6.06,6.06,0,0,0,1.21.5,4.8,4.8,0,0,1,.89.34.94.94,0,0,0,.62.14c.25,0,.45.12.66.22a3.79,3.79,0,0,0,1,.37,1.47,1.47,0,0,1,.47.17l.16.08c.34.08.63.31,1,.4a4.62,4.62,0,0,1,.88.39,1.55,1.55,0,0,0,.23.06,4.07,4.07,0,0,1,1.22.45l.11,0a6.46,6.46,0,0,1,1.2.46.88.88,0,0,0,.61.13.18.18,0,0,1,.14,0,12.67,12.67,0,0,0,1.32.55,1.35,1.35,0,0,1,.44.38c.32.09.65.15,1,.24a4.44,4.44,0,0,1,.72.27c.13.06.23.15.38.14s.15.09.22.13a2,2,0,0,0,.74.28c.19,0,.28.11.32.26a.17.17,0,0,0,.09.13c.06,0,.07-.12.18-.13s.27.11.41.19a1.12,1.12,0,0,0,.42.09.6.6,0,0,1,.23.06,2.64,2.64,0,0,0,.83.29.58.58,0,0,1,.22.08.36.36,0,0,0,.27.09l.12,0c.55.22,1.11.39,1.67.56.37.12.7.3,1.07.42.15.06.32,0,.46.17s.32.08.44.21a.43.43,0,0,0,.2.07,6.57,6.57,0,0,1,.76.21.34.34,0,0,1,.14.05,4.49,4.49,0,0,0,1.19.39,2.54,2.54,0,0,1,.38.16,14,14,0,0,0,1.53.56c.26.08.5.17.76.23a5.46,5.46,0,0,1,1,.36,3,3,0,0,0,.45.16,8.77,8.77,0,0,0,1.1.35,1.17,1.17,0,0,1,.31.12,6.43,6.43,0,0,0,1.55.52l.14,0a15.41,15.41,0,0,0,1.6.6,1.42,1.42,0,0,0,.52.19c.14.15.37.13.52.26a.24.24,0,0,0,.2.06,1.41,1.41,0,0,1,.6.19,3.56,3.56,0,0,0,.83.29,2.11,2.11,0,0,1,.38.17c.35.11.71.24,1,.38s.59.24.9.34a6.35,6.35,0,0,0,.78.19,1.76,1.76,0,0,1,.58.21c.11.07.25.08.36.14a13.47,13.47,0,0,0,1.47.51.71.71,0,0,1,.32.22.81.81,0,0,1,.09,1,2.18,2.18,0,0,0-.11.27,1.43,1.43,0,0,1-.23.52,4.44,4.44,0,0,0-.37.76,1.14,1.14,0,0,0-.09.46.76.76,0,0,1-.14.36,5.11,5.11,0,0,0-.72,1.39c-.11.4-.21.8-.29,1.21a2.6,2.6,0,0,1-.27.75,1.41,1.41,0,0,0-.19.61.47.47,0,0,1-.1.3.5.5,0,0,0-.11.37.43.43,0,0,1-.15.38.37.37,0,0,0-.1.17c-.07.21-.15.42-.21.64a.88.88,0,0,0-.06.29.87.87,0,0,1-.32.59.88.88,0,0,0-.18.21c0,.1-.13.12-.25.11a4.3,4.3,0,0,1-1.45-.45,11.05,11.05,0,0,1-1-.55c-.24-.14-.51-.22-.76-.34a6.69,6.69,0,0,0-1.62-.59c-.27-.17-.6-.15-.86-.33l-.09,0a3.92,3.92,0,0,1-1.2-.43,8.35,8.35,0,0,1-1.07-.45,10.11,10.11,0,0,0-1.38-.54c-.59-.21-1.17-.47-1.77-.66a3,3,0,0,1-.4-.2,2.78,2.78,0,0,0-.75-.26,4.74,4.74,0,0,1-.93-.34,1.05,1.05,0,0,0-.19,0c-.33-.11-.64-.29-1-.38s-.65-.22-1-.3a10.14,10.14,0,0,1-1.47-.57s0,0,0,0c-.35.07-.61-.19-.92-.27a4.63,4.63,0,0,1-1.2-.42,1.09,1.09,0,0,0-.31-.08,4.45,4.45,0,0,1-1.17-.43c-.19-.09-.4-.14-.59-.23a9.63,9.63,0,0,0-1.48-.62c-.41-.12-.8-.29-1.22-.37-.14,0-.27-.12-.41-.16-.58-.18-1.11-.44-1.66-.67a1.51,1.51,0,0,0-.33-.13,7.43,7.43,0,0,1-1.32-.39c-.44-.15-.89-.29-1.32-.48a7.86,7.86,0,0,1-.84-.36c-.1-.07-.21,0-.32-.07a8.18,8.18,0,0,1-1-.39l-.14,0a3.09,3.09,0,0,1-1-.34.93.93,0,0,0-.43-.12c-.14,0-.26-.09-.39-.13a4.92,4.92,0,0,1-1.16-.38,1.06,1.06,0,0,0-.25-.09c-.57-.19-1.12-.44-1.67-.66a.58.58,0,0,0-.17-.06,1.16,1.16,0,0,1-.47-.17,2.22,2.22,0,0,0-.39-.1,3.75,3.75,0,0,1-.69-.29c-.41-.21-.86-.36-1.27-.58a2.77,2.77,0,0,0-.67-.22A4.67,4.67,0,0,0,64,88a2.67,2.67,0,0,1-.83-.33A7.06,7.06,0,0,0,61.69,87a11.46,11.46,0,0,0-1.49-.43c-.11,0-.17-.1-.26-.13L58.72,86a10.17,10.17,0,0,0-1.09-.41q-.93-.32-1.86-.66a4.91,4.91,0,0,0-.83-.32,5.45,5.45,0,0,1-.69-.2.66.66,0,0,1-.31-.16.66.66,0,0,0-.26-.14c-.42-.16-.84-.3-1.23-.49a7.79,7.79,0,0,0-1-.39,9.67,9.67,0,0,0-1.29-.41,1.85,1.85,0,0,1-.8-.32,3.78,3.78,0,0,0-.53-.27,12.1,12.1,0,0,0-1.39-.49,1.18,1.18,0,0,0-.27-.06.63.63,0,0,1-.38-.15,1.06,1.06,0,0,0-.33-.18,8.82,8.82,0,0,0-.86-.31c-.37-.16-.76-.26-1.13-.43s-.5-.21-.75-.31l-1.63-.74c-.07-.16-.23-.13-.36-.15A4.92,4.92,0,0,1,40,78.91c-.18-.09-.38-.07-.57-.15a4.49,4.49,0,0,0-.72-.19c-.35-.11-.7-.24-1-.36A3.1,3.1,0,0,0,37,78l-.14,0a10,10,0,0,0-1.27-.43c-.42-.16-.83-.31-1.25-.44s-1-.34-1.46-.5a4.22,4.22,0,0,1-.81-.37l-.11,0c-.5-.07-.91-.38-1.4-.49a1.91,1.91,0,0,1-.32-.16,9.09,9.09,0,0,0-1.74-.64,9.37,9.37,0,0,0-1.32-.29A3.79,3.79,0,0,1,26,74.25a9,9,0,0,0-1.33-.53,4.8,4.8,0,0,1-.73-.33l-.3-.13c-.06,0-.14,0-.18-.1a.46.46,0,0,0-.36-.22.18.18,0,0,1-.07,0s0,0-.06-.07-.05,0-.07,0a1.6,1.6,0,0,1-.69-.38c-.06-.08-.14,0-.21,0s0-.07,0-.11a5.49,5.49,0,0,0-.24-.68c-.14-.25-.25-.52-.38-.78a2.16,2.16,0,0,1-.21-.62.22.22,0,0,0-.06-.13,2.79,2.79,0,0,1-.34-.72,4.19,4.19,0,0,0-.42-1,6.66,6.66,0,0,1-.59-1.27,3,3,0,0,0-.15-.42,11.47,11.47,0,0,1-.64-1.53,1.81,1.81,0,0,1-.12-.73,2.1,2.1,0,0,0,0-.43C18.73,63.66,18.84,63.49,19.21,63.32Z"/><path class="cls-2" d="M71.46,55a2.86,2.86,0,0,1,.9-.39c.18-.08.36-.13.53-.21a1.39,1.39,0,0,1,.67-.17A.5.5,0,0,1,73.9,54a3.83,3.83,0,0,1,.8-.23c.32-.19.69-.25,1-.41a.46.46,0,0,0-.13-.39c-.12,0-.17.1-.27,0a.52.52,0,0,1-.07.11,1.16,1.16,0,0,1-.86.61l-.62.08c-.22,0-.49,0-.61.29,0,.08-.17.11-.26.11a2.77,2.77,0,0,0-.56.11.63.63,0,0,0-.4.21.6.6,0,0,1-.31.15A3.18,3.18,0,0,0,71,55,.31.31,0,0,0,71.46,55Z"/></g></g></svg>