<svg xmlns="http://www.w3.org/2000/svg" viewBox="0 0 42.85 45"><defs><style>.cls-1{fill:#00a786;}</style></defs><title>btn-prev</title><g id="Layer_2" data-name="Layer 2"><g id="Layer_1-2" data-name="Layer 1"><path class="cls-1" d="M22.09,26.31s-.09-.06-.13-.1-.05,0-.05,0,.11.1.18.06"/><path class="cls-1" d="M20.37,25.67c-.11,0-.12.06,0,.13a.1.1,0,0,0,0-.13"/><path class="cls-1" d="M32.31,14.29c-.07,0-.1,0-.16,0a0,0,0,0,0,0,.06c.06,0,.08-.08.14-.1"/><path class="cls-1" d="M22.37,26.33s0,0,0,0a1.09,1.09,0,0,1-.17-.13.29.29,0,0,0,.14.15"/><path class="cls-1" d="M33.27,30.71c-.07,0-.09-.08-.14-.1s0,0,0,.06.1.08.17,0"/><path class="cls-1" d="M26.35,27.87a.16.16,0,0,1,.1.15.24.24,0,0,0,.09.15.35.35,0,0,1,.05.08l.16.07a.43.43,0,0,0,0-.16s0,0,0,0,0-.11-.07-.16l-.2-.1-.19-.08a.24.24,0,0,0,.06.09"/><path class="cls-1" d="M23.79,26.89a.17.17,0,0,0,.12.07,1.16,1.16,0,0,0,.18,0s.07,0,.08,0,.13.08.2.09l.19,0a.39.39,0,0,1,.28.2l0,0s.05,0,.08,0a.15.15,0,0,0,0-.13c-.11-.06-.23-.08-.33-.14a.73.73,0,0,1-.25-.08A.15.15,0,0,1,24.3,27a.37.37,0,0,1-.21-.06l-.17-.07a.84.84,0,0,1-.29-.13.09.09,0,0,0-.14,0,.78.78,0,0,0,.2.11s.08,0,.1.05"/><path class="cls-1" d="M21.42,18.67a.29.29,0,0,0-.14.15,1.09,1.09,0,0,1,.17-.13s0,0,0,0"/><path class="cls-1" d="M25.72,17c.1-.05.11-.08.08-.16s0,0,0,0a.43.43,0,0,0,0-.16l-.16.07a.35.35,0,0,1-.05.08.2.2,0,0,0-.09.15.18.18,0,0,1-.1.15.16.16,0,0,0-.06.09l.19-.08.19-.1"/><path class="cls-1" d="M19.38,19.2c-.08.07-.07.1,0,.13a.09.09,0,0,0,0-.13"/><path class="cls-1" d="M21.14,18.69c-.07,0-.12,0-.19.06s0,0,.06,0,.09-.05.13-.1"/><path class="cls-1" d="M6.1,21a.19.19,0,0,1,.1-.12c.06,0,.12-.06.15-.12l0,0a.12.12,0,0,0,.11-.07s0,0,.06,0l.1-.05.23-.11a3.07,3.07,0,0,0,.42-.17,1.05,1.05,0,0,1,.38-.12,3.2,3.2,0,0,0,.42-.1,2.83,2.83,0,0,0,.55-.21l.1-.06c.16,0,.29-.13.45-.16h0a1.26,1.26,0,0,1,.26-.13c.15-.05.3-.12.46-.16l.4-.15a3.17,3.17,0,0,0,.4-.14h0A.86.86,0,0,0,11,19l.33-.12.23-.06c.06,0,.12,0,.18-.05a1.5,1.5,0,0,1,.55-.15s.09,0,.11-.05l.52-.24.24-.11.36-.14c.09,0,.18-.05.27-.1a.39.39,0,0,0,.11-.06.13.13,0,0,1,.12-.05l.08,0,.44-.16a1,1,0,0,0,.17-.1.66.66,0,0,1,.25-.1,3,3,0,0,0,.42-.14,2,2,0,0,0,.31-.13l.4-.16a.18.18,0,0,0,.08,0,.23.23,0,0,1,.1-.05l.22-.07a1.39,1.39,0,0,0,.26-.1l.59-.22.35-.14.38-.16s.05,0,.09,0a4.26,4.26,0,0,0,.47-.15,2.15,2.15,0,0,0,.46-.22.66.66,0,0,1,.26-.11l.17,0a.86.86,0,0,0,.21-.07l.4-.19a.88.88,0,0,1,.22-.1.61.61,0,0,0,.13,0,.34.34,0,0,1,.15-.06l.05,0,.53-.22s.06,0,.08,0a1.6,1.6,0,0,1,.37-.12.31.31,0,0,1,.12-.05.25.25,0,0,0,.14,0,1.15,1.15,0,0,1,.31-.11l0,0a2,2,0,0,1,.31-.12s.07,0,.1,0a2.21,2.21,0,0,1,.27-.12c.13-.06.28-.11.42-.16a2.58,2.58,0,0,1,.42-.13.21.21,0,0,0,.1,0c.18-.08.35-.16.53-.22a.52.52,0,0,1,.13-.06,2.91,2.91,0,0,0,.39-.12,4.73,4.73,0,0,0,.47-.2l.18-.08a1,1,0,0,1,.37-.14l.1,0a1.34,1.34,0,0,1,.38-.14c.1,0,.18-.11.29-.09h0a2.43,2.43,0,0,1,.47-.19l.31-.1c.11,0,.21-.09.31-.12l.06,0a1.82,1.82,0,0,1,.3-.11l.24-.09.12-.07a5.42,5.42,0,0,0,.56-.22,3.34,3.34,0,0,0,.44-.17,2.6,2.6,0,0,1,.34-.16,1.34,1.34,0,0,1,.38-.14h0c.08-.06.19-.05.27-.11a2,2,0,0,0,.52-.19c.08,0,.16-.07.24-.12a3.3,3.3,0,0,1,.32-.18,1.46,1.46,0,0,1,.46-.15s.07,0,.08,0,0,0,.06.07a.28.28,0,0,1,.1.2.29.29,0,0,0,0,.09,1.72,1.72,0,0,0,.07.21.09.09,0,0,0,0,.06.12.12,0,0,1,0,.13.19.19,0,0,0,0,.12.15.15,0,0,1,0,.1.47.47,0,0,0,.06.2,1.06,1.06,0,0,1,.09.25c0,.14.06.27.09.4a1.65,1.65,0,0,0,.23.46.25.25,0,0,1,0,.12.41.41,0,0,0,0,.16,1.42,1.42,0,0,0,.12.25.51.51,0,0,1,.07.17.36.36,0,0,0,0,.09.29.29,0,0,1,0,.35.17.17,0,0,1-.1.07c-.16.07-.32.09-.47.17s-.08,0-.11,0a.62.62,0,0,1-.19.07,1.14,1.14,0,0,0-.25.06l-.28.11-.34.13a.45.45,0,0,1-.12.06,1.14,1.14,0,0,0-.26.09.44.44,0,0,1-.19.07,0,0,0,0,0-.06,0c-.05,0-.13,0-.17.08a.33.33,0,0,0-.16.07,3.13,3.13,0,0,0-.51.19l-.05,0a1.78,1.78,0,0,0-.49.17l-.09,0a2.17,2.17,0,0,0-.36.12L29,16a1.88,1.88,0,0,1-.3.12l-.24.08a4.09,4.09,0,0,0-.49.18l-.12.05a2.32,2.32,0,0,0-.37.13l0,0a1.09,1.09,0,0,1-.24.07l-.06,0c0,.05-.11,0-.14.08s-.1,0-.15.05l-.34.14a4.76,4.76,0,0,0-.53.19s0,0,0,0a.11.11,0,0,0-.08,0,.11.11,0,0,1-.07,0,.88.88,0,0,0-.27.1l-.07,0a.25.25,0,0,0-.13,0c-.05,0-.1,0-.13.06s0,0-.06,0,0,0,0,0,0,.07-.1.09a.78.78,0,0,0-.24.09s0,0-.06,0a.22.22,0,0,0-.12.05l-.23.09-.31.08a.57.57,0,0,1-.14.13,3.79,3.79,0,0,0-.42.18h0a.28.28,0,0,0-.2,0,1.77,1.77,0,0,1-.38.15l0,0a1.43,1.43,0,0,1-.39.15l-.07,0a1.75,1.75,0,0,1-.28.13c-.11,0-.2.1-.31.13l-.05,0a.38.38,0,0,1-.15,0,1.51,1.51,0,0,0-.33.13c-.06,0-.13.09-.21.07a.24.24,0,0,0-.2,0,1.36,1.36,0,0,1-.28.11,1.8,1.8,0,0,0-.38.16l-.08,0a2.29,2.29,0,0,1-.28.09l-.39.12a.87.87,0,0,0-.31.14h0a2,2,0,0,1-.26.08c-.09,0-.17.08-.26.12a1.11,1.11,0,0,1-.22.07l-.12,0a.91.91,0,0,1-.22.11c-.05,0-.09,0-.13,0a1.42,1.42,0,0,1-.29.1l-.13.05a1.48,1.48,0,0,0-.27.1.57.57,0,0,1-.25.08l-.11,0a.9.9,0,0,1-.21.08l-.37.14a.94.94,0,0,0-.15.06,4.67,4.67,0,0,1-.88.33l0,0a2.09,2.09,0,0,1-.35.13,1.12,1.12,0,0,0-.31.1l-.1,0a.57.57,0,0,0-.22.07.39.39,0,0,1-.15.06.23.23,0,0,0-.11,0c0,.05-.12.06-.18.1a.33.33,0,0,1-.14,0,1.11,1.11,0,0,0-.31.09.07.07,0,0,0-.06,0,.21.21,0,0,1-.12.07l-.22.08a1.83,1.83,0,0,1-.39.09.4.4,0,0,0-.18.07,1.19,1.19,0,0,1-.22.12h0a3.49,3.49,0,0,0,.34.15l.45.2a1.33,1.33,0,0,1,.19.05.94.94,0,0,1,.22.12.4.4,0,0,0,.18.07,1.83,1.83,0,0,1,.39.09l.22.08a.19.19,0,0,1,.12.07.09.09,0,0,0,.06,0,1.17,1.17,0,0,0,.32.09.33.33,0,0,1,.13,0,1.74,1.74,0,0,1,.19.1l.1,0a.25.25,0,0,1,.15.05.57.57,0,0,0,.22.07l.1,0a1.24,1.24,0,0,0,.31.1,2.09,2.09,0,0,1,.35.13l0,0a4.43,4.43,0,0,1,.88.33.47.47,0,0,0,.15.06l.37.14a.9.9,0,0,1,.21.08l.11,0a.73.73,0,0,1,.25.08,1.48,1.48,0,0,0,.27.1l.14.05a1.57,1.57,0,0,1,.28.1s.09,0,.13,0a1.2,1.2,0,0,1,.23.11l.11,0a.81.81,0,0,1,.22.07,2.21,2.21,0,0,0,.27.12l.25.07h0a.87.87,0,0,0,.31.14l.39.12a2.29,2.29,0,0,1,.28.09.2.2,0,0,1,.08,0,1.68,1.68,0,0,0,.39.16,1.13,1.13,0,0,1,.28.12A.26.26,0,0,0,22,26c.08,0,.15,0,.21.07a1.51,1.51,0,0,0,.33.13.33.33,0,0,1,.15,0l.05,0c.11,0,.2.1.31.13a2.39,2.39,0,0,1,.28.13l.07,0a1.43,1.43,0,0,1,.39.15l0,0a1.58,1.58,0,0,1,.38.15.28.28,0,0,0,.2,0h0a3.79,3.79,0,0,0,.42.18.58.58,0,0,1,.14.13l.31.08a2.18,2.18,0,0,1,.23.09.26.26,0,0,0,.12.05s.05,0,.07,0a.65.65,0,0,0,.23.09c.06,0,.09,0,.1.09s0,0,0,0,0,0,.06,0a.52.52,0,0,0,.13.06.19.19,0,0,0,.13,0l.08,0a.74.74,0,0,0,.26.1l.07,0a.11.11,0,0,0,.09,0h0a5.62,5.62,0,0,0,.53.19l.34.14s.11,0,.15.06.1,0,.14.07l.06,0a1.68,1.68,0,0,1,.24.07l.05,0a1.6,1.6,0,0,0,.37.12l.13.06.48.18.24.08a1.57,1.57,0,0,1,.3.12l.15.05a2.06,2.06,0,0,0,.35.12l.09,0a1.78,1.78,0,0,0,.49.17l.05,0a4.5,4.5,0,0,0,.51.2.44.44,0,0,0,.16.06c.05.05.12,0,.17.08s0,0,.06,0a.44.44,0,0,1,.19.07,1.22,1.22,0,0,0,.27.09l.12.06.33.13.28.11.25.06a.62.62,0,0,1,.19.07s.08,0,.11.05.31.1.47.17a.17.17,0,0,1,.1.07.29.29,0,0,1,0,.35.36.36,0,0,0,0,.09.51.51,0,0,1-.07.17c-.06.08-.07.17-.12.25a.9.9,0,0,0,0,.16.28.28,0,0,1,0,.12,1.65,1.65,0,0,0-.23.46c0,.13-.07.26-.09.4a1.06,1.06,0,0,1-.09.25.47.47,0,0,0-.06.2.15.15,0,0,1,0,.1.18.18,0,0,0,0,.12.15.15,0,0,1,0,.13.07.07,0,0,0,0,.06c0,.07,0,.14-.07.21a.3.3,0,0,0,0,.1.27.27,0,0,1-.1.19l-.06.07s0,0-.08,0a1.55,1.55,0,0,1-.46-.15c-.11,0-.21-.12-.32-.18a1.79,1.79,0,0,0-.24-.12,1.84,1.84,0,0,0-.51-.19c-.09-.06-.19-.05-.28-.11h0a1.4,1.4,0,0,1-.39-.14c-.11,0-.23-.09-.34-.15a2.3,2.3,0,0,0-.43-.18c-.19-.08-.37-.16-.56-.22l-.13-.07-.24-.09a1.45,1.45,0,0,1-.29-.11l-.06,0c-.11,0-.21-.09-.32-.12l-.31-.1A2.72,2.72,0,0,1,27.7,32h0c-.11,0-.2-.06-.3-.09a1.46,1.46,0,0,1-.38-.14s-.06,0-.09,0a1,1,0,0,1-.38-.14l-.18-.08a4.73,4.73,0,0,0-.47-.2,2.91,2.91,0,0,0-.39-.12.52.52,0,0,1-.13-.06c-.18-.06-.35-.14-.53-.22a.21.21,0,0,0-.1,0,2.92,2.92,0,0,1-.42-.13l-.42-.16c-.09,0-.18-.07-.27-.12s-.06,0-.1,0a2,2,0,0,1-.31-.12l0,0a1.15,1.15,0,0,1-.31-.11.23.23,0,0,0-.14,0,.31.31,0,0,1-.12,0,1.6,1.6,0,0,1-.37-.12s0,0-.08,0l-.53-.22-.05,0a.39.39,0,0,1-.15-.06.5.5,0,0,0-.13,0,1,1,0,0,1-.21-.1l-.41-.19a.74.74,0,0,0-.21-.07l-.17,0a.73.73,0,0,1-.26-.11,2.15,2.15,0,0,0-.46-.22,4.26,4.26,0,0,0-.47-.15s-.06,0-.09,0l-.38-.16-.35-.14-.59-.22a1.39,1.39,0,0,0-.26-.1L17.22,28a.31.31,0,0,1-.1-.05.14.14,0,0,0-.08,0c-.13-.05-.27-.1-.39-.16a2.15,2.15,0,0,0-.32-.13,3.31,3.31,0,0,0-.41-.14.64.64,0,0,1-.26-.1.65.65,0,0,0-.16-.09c-.15-.07-.3-.11-.45-.17l-.08,0a.15.15,0,0,1-.12-.05L14.74,27a2.15,2.15,0,0,0-.27-.1c-.12,0-.24-.08-.36-.14l-.24-.1-.51-.25c0-.06-.08-.05-.12-.05a1.56,1.56,0,0,1-.55-.15c-.06,0-.12,0-.18-.05a1.55,1.55,0,0,0-.23-.06L12,26a.86.86,0,0,0-.21-.07h-.05a3.17,3.17,0,0,0-.4-.14l-.4-.15c-.15,0-.3-.11-.46-.16a1.58,1.58,0,0,1-.26-.13h0c-.16,0-.29-.13-.45-.16l-.1-.06A2.6,2.6,0,0,0,9,24.88a2.86,2.86,0,0,0-.42-.1,1.12,1.12,0,0,1-.38-.12,2.63,2.63,0,0,0-.42-.17l-.23-.11-.1-.05s0,0,0,0a.14.14,0,0,0-.12-.07s0,0,0,0,0,0,0,0h0c-.08,0-.17-.06-.22-.13s0,0-.07,0,0,0,0,0a1,1,0,0,0-.08-.22l-.11-.26a.74.74,0,0,1-.07-.21.05.05,0,0,0,0,0A.86.86,0,0,1,6.57,23a1.79,1.79,0,0,0-.13-.32,2.35,2.35,0,0,1-.19-.43s0-.09,0-.14a4.34,4.34,0,0,1-.2-.5.69.69,0,0,1,0-.25v-.14A.2.2,0,0,1,6.1,21m-6,2c.09-.05,0-.17.11-.21,0,.11.07.21,0,.32a.12.12,0,0,0,0,.1c.06.15,0,.31,0,.45a1.85,1.85,0,0,0,0,.62.14.14,0,0,1,0,.1c-.06,0-.11-.13-.19,0a1.67,1.67,0,0,1,.1.45c.05-.13,0-.25.1-.31s.1.07.08.15a.45.45,0,0,0,0,.28.16.16,0,0,1,0,.16c-.08.06-.15-.05-.22,0a2,2,0,0,1,0,.59.76.76,0,0,0,.05.45.59.59,0,0,1,0,.37.17.17,0,0,0,0,.1c.09.17,0,.35.11.53A3.61,3.61,0,0,1,.44,28a1.11,1.11,0,0,0,.19.58.4.4,0,0,1,0,.2,1.09,1.09,0,0,0,.07.51c.1.23.11.51.31.69s0,.09,0,.13,0,.37.17.47a.3.3,0,0,0,0,.29c.07.1,0,.27.16.33s0,.05,0,.06,0,.33.14.45a1.38,1.38,0,0,1,.25.5s0,.1.06.13a.61.61,0,0,1,.23.36c.11.31.25.6.35.91a.36.36,0,0,0,.1.14.29.29,0,0,1,.07.12.75.75,0,0,0,.18.3s.07.07.08.12c0,.22.22.33.35.46a.35.35,0,0,1,.12.29c0,.21,0,.31.23.4l.05,0A.66.66,0,0,0,4,35.9s.11.06.12.11.15.19.22.29.06.05.06.08.08.18.16.23a.32.32,0,0,1,.18.26.34.34,0,0,0,.12.22,2.9,2.9,0,0,1,.34.36,10.1,10.1,0,0,0,.76.84.16.16,0,0,1,0,.09c0,.08.06.12.11.18a.74.74,0,0,0,.33.23c.06.07,0,.18.11.21s.11-.09.2-.09a.52.52,0,0,1,.22.1v.09c0,.18.11.29.17.43s.19.2.29.3.1.13.2.14a.49.49,0,0,1,.35.26.72.72,0,0,0,.28.24c.25.15.56.21.72.5,0,0,0,0,.06,0a2.13,2.13,0,0,0,.49.31c.12.08.19.2.31.27l.95.59a2.3,2.3,0,0,0,.48.22l.24.11a1.05,1.05,0,0,0,.4.19.21.21,0,0,1,.16.08.82.82,0,0,0,.35.2.91.91,0,0,1,.22.11,1.53,1.53,0,0,0,.4.21,3.33,3.33,0,0,1,.45.13,7,7,0,0,1,1,.41,3.1,3.1,0,0,0,.89.29,2.22,2.22,0,0,0,.37.09c.32,0,.62.11.94.15a2.71,2.71,0,0,1,.8.16s.08,0,.12,0a1.58,1.58,0,0,1,.62.08,2.1,2.1,0,0,0,.81.2c.22,0,.45,0,.67,0a.79.79,0,0,0,.22,0c.24,0,.47,0,.7.06s.21.06.32,0a7.85,7.85,0,0,1,.84,0,.69.69,0,0,0,.54-.09s.1,0,.16,0a.65.65,0,0,0,.39,0,.45.45,0,0,1,.28,0c.1,0,.2.06.3,0a1.14,1.14,0,0,1,.45-.1c.13,0,.24-.1.36-.11a1.63,1.63,0,0,0,.49-.09h.1a2.09,2.09,0,0,1,.56,0,1.17,1.17,0,0,0,.41-.06c.14,0,.29,0,.41-.1s.47-.19.73-.13c.07,0,.15,0,.22,0s.28-.15.43-.21.24-.06.35-.1.18-.17.28-.24a.54.54,0,0,1,.2-.1,6.94,6.94,0,0,1,.78-.22,2.15,2.15,0,0,0,.65-.21c.07,0,.1-.11.17-.12a2.26,2.26,0,0,0,.74-.42,1.11,1.11,0,0,1,.34-.18.12.12,0,0,0,.1-.07.21.21,0,0,1,.18-.11.46.46,0,0,0,.19-.08c.21-.12.42-.27.64-.38a1.62,1.62,0,0,0,.64-.5.58.58,0,0,1,.32-.25.47.47,0,0,0,.19-.12c.17-.15.31-.36.56-.4a.07.07,0,0,0,.06,0c.06-.14.2-.18.3-.26s.24-.14.35-.22a6.47,6.47,0,0,0,.83-.9c.25-.28,1.12-.71,1.05-.83a.12.12,0,0,1,.1-.17.25.25,0,0,0,.19-.12l.28-.32c.08-.11.21-.19.28-.3l.43-.68a4.33,4.33,0,0,1,.43-.53,5.41,5.41,0,0,0,.51-.65l.45-.62c.23-.32.4-.7.62-1a2.91,2.91,0,0,0,.26-.45,3.93,3.93,0,0,1,.54-1,1.42,1.42,0,0,0,.25-.47,5,5,0,0,1,.37-1.09,6.91,6.91,0,0,0,.35-1,1.89,1.89,0,0,1,.05-.23,8.45,8.45,0,0,0,.32-1.12c.12-.39.2-.79.33-1.17a2.23,2.23,0,0,0,.1-.43,2.29,2.29,0,0,1,.11-.52,3,3,0,0,0,.09-.43c.06-.22.06-.45.12-.66a3,3,0,0,0,0-1,2.51,2.51,0,0,1,0-.61c0-.05-.08,0-.07-.09s.09-.05.1-.1-.12-.06-.11-.14.09,0,.12-.06a1.87,1.87,0,0,0,.09-.94c0-.07,0-.14,0-.21a1.25,1.25,0,0,0,0-.33c0-.1,0-.21,0-.32-.06-.26-.09-.52-.14-.78,0-.06,0-.13,0-.19a.28.28,0,0,0-.07-.31c.15-.3,0-.61,0-.91-.11-.13-.08-.29-.1-.44s-.07-.28-.11-.42-.06-.43-.13-.64a.82.82,0,0,1,0-.44.82.82,0,0,0,0-.41,1.19,1.19,0,0,1-.11-.41,7.28,7.28,0,0,0-.32-.89s0,0,0-.07c-.21-.21-.23-.53-.38-.78a.06.06,0,0,1,0-.06.38.38,0,0,0-.1-.31c-.07-.09-.15-.17-.09-.3a.11.11,0,0,0,0-.11c-.16-.15-.1-.42-.27-.56,0-.1-.06-.14-.09-.21s-.07-.06-.06-.1,0-.2-.09-.27,0-.09,0-.14a1.41,1.41,0,0,0-.29-.66c-.14-.16-.1-.4-.28-.52v0c0-.11,0-.2,0-.29a.81.81,0,0,0-.25-.45,1.37,1.37,0,0,1-.29-.34.72.72,0,0,1-.14-.35s0-.06-.05-.09S39,9.76,39,9.62a.19.19,0,0,0-.12-.18s0,0,0-.06a.72.72,0,0,0-.28-.46,1.68,1.68,0,0,0-.29-.25A.58.58,0,0,1,38,8.45a.69.69,0,0,0-.17-.17.81.81,0,0,1-.36-.41c-.06-.14-.2-.22-.22-.39s0,0-.05-.06a1.12,1.12,0,0,1-.4-.56.15.15,0,0,0-.06-.09,1,1,0,0,1-.33-.33c-.18-.05-.29-.25-.49-.29,0-.1,0-.2-.11-.21a.47.47,0,0,1-.34-.26,1.44,1.44,0,0,0-.22-.27A2.37,2.37,0,0,0,34.67,5a.59.59,0,0,1-.27-.29.75.75,0,0,0-.1-.17,1.28,1.28,0,0,1-.27,0c-.1,0-.17.09-.26.06s0-.09,0-.14v0c-.18-.12-.4-.18-.48-.42,0,0,0-.07-.1,0s-.15,0-.23,0-.29-.19-.47-.21a.15.15,0,0,1-.14-.13.32.32,0,0,0-.08-.12h-.12a.24.24,0,0,1-.25-.19.25.25,0,0,0-.31-.1.17.17,0,0,1-.19,0s0-.12,0-.17a1.83,1.83,0,0,0-.33,0c0-.1.11-.06.14-.14a1.65,1.65,0,0,1-.58-.32.21.21,0,0,0-.15,0c-.15,0-.21-.08-.26-.19a.41.41,0,0,0-.07-.17c-.19,0-.27-.15-.43-.24a.28.28,0,0,1-.23,0,1.43,1.43,0,0,0-.5-.14c-.1,0-.18,0-.22-.15s-.1-.13-.18-.11a.39.39,0,0,1-.33-.14.38.38,0,0,0-.13-.09,6,6,0,0,1-.83-.33L26.84.68a.55.55,0,0,0-.6,0s-.08,0-.13,0L26.06.61c-.15-.2-.24-.21-.44-.07,0,0-.08,0-.09,0a1.65,1.65,0,0,0-.47-.13s0,0,0,0a.36.36,0,0,0-.29-.12c-.38,0-.76,0-1.14,0a.8.8,0,0,1-.34-.11c-.11-.06-.24,0-.37,0s-.46,0-.68-.08c0,0-.06,0-.1,0a1,1,0,0,1-.44,0,.35.35,0,0,0-.33,0,.52.52,0,0,1-.18,0,2,2,0,0,0-.55,0,.67.67,0,0,0-.25.13,1.64,1.64,0,0,0-.85.06c-.15,0-.3.15-.46,0a.06.06,0,0,0-.06,0,2.9,2.9,0,0,0-.64.24,1,1,0,0,1-.46.14l-.22,0a6.85,6.85,0,0,1-.81.2c-.11,0-.24.09-.35,0s-.24.08-.36,0a.28.28,0,0,0-.2,0,.32.32,0,0,1-.19.05.29.29,0,0,0-.31.13c-.14,0-.26-.1-.38,0a1.57,1.57,0,0,1-.67.16.63.63,0,0,1-.37.33,3.71,3.71,0,0,0-.46.19c-.17.08-.31.22-.51.22a.13.13,0,0,0-.1.07c-.06.16-.26.13-.33.28-.19,0-.3.23-.51.18,0,0-.09,0-.12.08a.14.14,0,0,1-.17.07.37.37,0,0,0-.32.1s-.07.06-.13.06-.23.12-.33.21,0,.06-.06.08c-.26.09-.45.31-.72.38a.18.18,0,0,0-.08.07.37.37,0,0,1-.18.15,1.31,1.31,0,0,0-.32.25,1.31,1.31,0,0,1-.43.31c-.1,0-.16.13-.27.15s0,.11-.05.12a7.12,7.12,0,0,0-.58.49A1,1,0,0,0,8,5.44c-.09.18-.31.18-.37.37s-.27.25-.42.37-.22.28-.37.36a.91.91,0,0,0-.31.27c-.08.1-.2.12-.28.21a2.25,2.25,0,0,1-.4.36c-.14.13-.31.23-.38.42a.58.58,0,0,1-.25.34s0,.07-.06.11,0,.09-.06.11c-.24.22-.4.54-.69.73a.2.2,0,0,0-.1.19.44.44,0,0,1-.07.22s-.13,0-.15.09-.15.19-.23.28-.15,0-.25,0,.05.17,0,.25-.2.47-.39.65a.13.13,0,0,0,0,.08.41.41,0,0,1-.19.35.63.63,0,0,0-.22.61s0,0-.06,0-.19.33-.33.48a.53.53,0,0,0-.16.37s0,0,0,0c-.18.34-.3.7-.47,1a5.35,5.35,0,0,0-.42,1.05.51.51,0,0,1-.07.15A1.27,1.27,0,0,0,1,15.7c0,.18,0,.35,0,.53a.17.17,0,0,0,0,.1A1,1,0,0,1,.75,17a1.55,1.55,0,0,0-.14.67c0,.12,0,.23.05.35a.2.2,0,0,1-.06.17.39.39,0,0,0-.09.24,1.84,1.84,0,0,1,0,.33c0,.14-.08.26-.08.41s0,.32-.1.44,0,0,0,0,0,.31,0,.46-.08,0-.1,0,.09.05.09.15A1.78,1.78,0,0,0,.21,21c-.18.08-.19.12-.11.3a.64.64,0,0,1,.08.47s0,.06,0,.08,0,.32,0,.48a.23.23,0,0,1-.07.24c-.1-.15.07-.36-.1-.52,0,.21,0,.41,0,.6A1.27,1.27,0,0,0,.07,23"/><path class="cls-1" d="M22.68,18.28a.84.84,0,0,1,.29-.13l.17-.07a.47.47,0,0,1,.21-.06.15.15,0,0,1,.11-.08.73.73,0,0,1,.25-.08c.1-.06.22-.08.32-.14a.15.15,0,0,0,0-.13s0,0-.08,0,0,0,0,0a.43.43,0,0,1-.28.21l-.19,0c-.08,0-.16,0-.2.1s0,0-.08,0A1.16,1.16,0,0,0,23,18a.21.21,0,0,0-.13.07s-.06,0-.1.05a.93.93,0,0,0-.19.11.09.09,0,0,0,.14,0"/></g></g></svg>