<svg xmlns="http://www.w3.org/2000/svg" viewBox="0 0 324 40"><defs><style>.cls-1{fill:#f9b400;}</style></defs><title>btn-orange</title><g id="Layer_2" data-name="Layer 2"><g id="Layer_1-2" data-name="Layer 1"><path class="cls-1" d="M237,2.28c-1,0-2,0-3-.13-1.46-.12-2.93,0-4.4-.06-1.1-.06-2.2.19-3.32,0a5.38,5.38,0,0,1-1.37-.23,2.52,2.52,0,0,0-1.49,0,3.55,3.55,0,0,1-1,.14c-1.79,0-3.59.19-5.39.06a12.8,12.8,0,0,1-2.13-.27,7.25,7.25,0,0,0-3.14-.09,35.63,35.63,0,0,1-5,.19,25.76,25.76,0,0,1-3.92-.09c-1.59-.15-3.21-.1-4.82-.12A2.67,2.67,0,0,1,197,1.54a2.63,2.63,0,0,0-1.28-.17,20.65,20.65,0,0,0-2.6.18,18.71,18.71,0,0,1-3.26-.07c-2.4,0-4.79,0-7.18.07-1.42,0-2.83,0-4.25,0-1.58-.11-3.17-.14-4.76-.17-.36,0-.68-.19-1.06-.1a52.88,52.88,0,0,1-5.64.37,28.6,28.6,0,0,1-5.82-.49A10.63,10.63,0,0,0,157.94,1a14.82,14.82,0,0,1-1.88.35,11.08,11.08,0,0,1-2.57.11c-1.68-.24-3.39-.21-5.08-.4A13.65,13.65,0,0,0,145.7,1a6.92,6.92,0,0,1-1.47.15,4.46,4.46,0,0,0-1.82,0,3.59,3.59,0,0,1-.65,0c-2.17-.06-4.35-.22-6.53-.16a4.69,4.69,0,0,1-1,0c-1.5-.36-3,.11-4.44.12a4.58,4.58,0,0,0-1.48,0,3.45,3.45,0,0,1-1.62.14,11.69,11.69,0,0,0-3.78.06,2,2,0,0,1-.55,0,30.37,30.37,0,0,0-3.82-.09c-.4,0-.74.24-1.16.15A26.66,26.66,0,0,0,114,1.15c-1.69-.11-3.41,0-5.11,0a29.84,29.84,0,0,0-5,.28,6.37,6.37,0,0,1-1.31,0,63.77,63.77,0,0,0-6.49-.22c-.53,0-1.09-.12-1.6-.05-1.55.22-3.11.15-4.66.25A39.37,39.37,0,0,1,84,1.15c-.77-.08-1.54,0-2.29-.08a16.44,16.44,0,0,0-4.54,0A4.69,4.69,0,0,1,76,1.18a18.31,18.31,0,0,0-4.62,0c-1.16.14-2.4-.43-3.49.24,0,0-.13-.05-.2-.06A39.3,39.3,0,0,0,62,1.28c-1.25.13-2.51.06-3.76.2s-2.57-.1-3.85-.05a4.19,4.19,0,0,1-.73.05,17.33,17.33,0,0,0-3.6,0,13.29,13.29,0,0,1-2.89.06,6.74,6.74,0,0,0-1.61-.18c-2.29.08-4.58-.08-6.87-.06a38.74,38.74,0,0,1-5.39-.14A40.07,40.07,0,0,0,29.06,1,14.87,14.87,0,0,0,24.4,1a.91.91,0,0,1-.33,0c-1.11-.27-2.23.21-3.34,0a27,27,0,0,1-6.29,0c-1-.1-2,0-3-.22C10,.48,8.64.25,7.26.12A16.28,16.28,0,0,0,1.74.37C1.32.48,1,.65,1,1A2.47,2.47,0,0,1,.66,2,3,3,0,0,0,.31,4.3a3.64,3.64,0,0,1,.17,1c0,.79,0,1.58.05,2.37a1.22,1.22,0,0,1-.13.67,1.48,1.48,0,0,0,0,1.43,1.65,1.65,0,0,1,.08,1.36,1.61,1.61,0,0,0,0,1.12,4.36,4.36,0,0,1,.1,2.24,9,9,0,0,0,0,2.79c.25,1.43.37,2.88.52,4.33A17,17,0,0,1,.37,27.1a2.45,2.45,0,0,0,0,1.37A3.67,3.67,0,0,1,.6,30.08,13.71,13.71,0,0,1,.3,33a5.41,5.41,0,0,0-.15,2,4.11,4.11,0,0,1,0,1c-.37,1.4.2,2.47,1.63,3.34a2.6,2.6,0,0,0,1.37.36c1.88,0,3.75-.35,5.65-.09.45.06.94-.08,1.41,0a5.93,5.93,0,0,0,2.26,0,21.87,21.87,0,0,1,2.92-.28c1.16,0,2.32,0,3.49,0,1.34.06,2.71,0,4.07,0a9.57,9.57,0,0,0,1.5.12,13.42,13.42,0,0,1,3.23,0,5.3,5.3,0,0,0,2.27-.12,1.08,1.08,0,0,1,.75,0c.67.25,1.45-.1,2.1.25a5.14,5.14,0,0,1,2,0,49.66,49.66,0,0,1,6.22.06,2.42,2.42,0,0,0,.54-.06,24.69,24.69,0,0,1,6-.12,5.27,5.27,0,0,0,1.19,0,37.3,37.3,0,0,1,4.23-.17,14.6,14.6,0,0,1,1.75,0,20.58,20.58,0,0,0,3.68,0c1-.1,1.92-.09,2.87-.15a51.35,51.35,0,0,1,6,0,12.87,12.87,0,0,0,1.52.05c1.51-.06,3-.5,4.54-.14a1.23,1.23,0,0,0,.54,0,25,25,0,0,0,2.87-.2,1.2,1.2,0,0,1,.75,0c.59.27,1.25-.06,1.78.16s1.21,0,1.8,0c1.4,0,2.77.16,4.18.1,2.13-.12,4.27-.21,6.41-.15A1.57,1.57,0,0,0,92,39a1.49,1.49,0,0,1,1,0,2,2,0,0,0,.87,0,9.3,9.3,0,0,1,3.2,0,2.52,2.52,0,0,0,.86-.08,4.07,4.07,0,0,1,1.55-.22c.58.1,1.15,0,1.63.15.35-.18.32-.45.46-.64a.62.62,0,0,1,.48.29c.32.45.7.57,1.43.5a7.7,7.7,0,0,1,2.87,0c.28.08.55.35.89.2a2.76,2.76,0,0,1,1.48,0,22,22,0,0,0,2.81,0c1.22-.12,2.43-.32,3.63-.41a4.75,4.75,0,0,0,2,.73,47.53,47.53,0,0,1,5.2.26.84.84,0,0,0,.52-.08,3.51,3.51,0,0,1,2.26-.32,22.77,22.77,0,0,0,4.67.07,1.44,1.44,0,0,1,.42,0,15.82,15.82,0,0,0,4.76,0,6.09,6.09,0,0,1,.85-.07,17.81,17.81,0,0,0,3.51.22c1.24-.1,2.49.3,3.76.18a2.73,2.73,0,0,1,.64.06,5.17,5.17,0,0,0,1.84,0,14.7,14.7,0,0,1,4,0,3.85,3.85,0,0,0,2.53,0,3.47,3.47,0,0,1,2.29-.3,15.42,15.42,0,0,0,3.46,0,22.35,22.35,0,0,1,4.77.21,8.07,8.07,0,0,0,1,.07,24.94,24.94,0,0,0,3.34-.19c1.56-.18,3.14-.19,4.71-.24a11.48,11.48,0,0,1,3.88.15h.2c1,.07,2-.18,3.05-.19s2.19.1,3.28.11a18.7,18.7,0,0,0,2.7-.05,5.58,5.58,0,0,1,1.36,0,13.49,13.49,0,0,0,2.85.23,7.54,7.54,0,0,1,1.5-.22c1.15.1,2.29,0,3.44,0a14.9,14.9,0,0,0,1.64-.05,14.31,14.31,0,0,1,3.27,0,9.81,9.81,0,0,0,3-.17,4.19,4.19,0,0,1,1.4-.09,12.73,12.73,0,0,0,2.54.09c1.52,0,3,.08,4.56,0a9.2,9.2,0,0,1,1.74,0,54.49,54.49,0,0,0,10.76,0,2.06,2.06,0,0,1,.43,0,15.84,15.84,0,0,0,4.24,0,17.39,17.39,0,0,1,3.75-.22,3.38,3.38,0,0,0,1.18-.08,7.57,7.57,0,0,1,2.6,0,4.14,4.14,0,0,0,1.82-.05,2.6,2.6,0,0,1,1.3,0c.77.21,1.58.08,2.37.24a3.57,3.57,0,0,0,1.62-.06,17.31,17.31,0,0,1,3.74-.36,1.26,1.26,0,0,1,.74.11,2.87,2.87,0,0,0,1.57.24c.88,0,1.75-.06,2.63-.06a19.77,19.77,0,0,0,4.61-.54,4.06,4.06,0,0,1,2.16,0,12.38,12.38,0,0,0,2.85.31c.79.06,1.48-.17,2.25-.17,1.87,0,3.75.19,5.6.22a48.68,48.68,0,0,0,6.83.13,2.39,2.39,0,0,1,.75.11,4.85,4.85,0,0,0,2.21,0,8.33,8.33,0,0,1,4.26-.21,12.62,12.62,0,0,0,3.13.08,19.25,19.25,0,0,1,3.4,0c2.53.32,5.06.18,7.59.35,1.19.06,2.39,0,3.59,0a11.65,11.65,0,0,1,2.05.06,2.5,2.5,0,0,0,1.56-.1,2.27,2.27,0,0,1,.63-.08c.86-.12,1.72.11,2.57,0a8.14,8.14,0,0,1,5.07.38c.12.06.27.07.4.13,1.57.7,3.25.37,4.9.39a3.18,3.18,0,0,0,1.28-.43,1.74,1.74,0,0,1,.63-.11,1.12,1.12,0,0,0,.77-.28,5.61,5.61,0,0,0,1.88-2.11c.12-.34.48-.18.67-.38,0-.12,0-.26,0-.41a16.3,16.3,0,0,1,0-2.52c.14-1,.21-2,.3-3a7,7,0,0,0,0-2.32,1.34,1.34,0,0,1,0-.52,9.25,9.25,0,0,0,.3-2.76,14.11,14.11,0,0,1,.21-3.73,22.33,22.33,0,0,0,.44-4.88,12,12,0,0,1,0-1.58A40.32,40.32,0,0,0,324,8.89a6.54,6.54,0,0,0-.5-2.57A8.86,8.86,0,0,1,323,4.89c-.33-1.19-.92-1.64-2.38-1.74A2.28,2.28,0,0,0,319,2.3a3.82,3.82,0,0,1-2-.6.46.46,0,0,0-.3-.08,1.7,1.7,0,0,1-1.51-.31,1.53,1.53,0,0,0-.74-.1c-.4,0-.79-.06-1.18-.09a19,19,0,0,0-2.93-.2,33.4,33.4,0,0,1-5.2-.16,14.59,14.59,0,0,0-4.54.24,33.79,33.79,0,0,1-4.88.64,34.5,34.5,0,0,1-6.74,0,6.07,6.07,0,0,0-1.29-.16c-1.8.24-3.62-.3-5.42.08a1.67,1.67,0,0,1-.43-.05,18.39,18.39,0,0,0-3.24-.24c-1.87.06-3.73,0-5.6.09-1.61.09-3.22.09-4.82.07a39.76,39.76,0,0,1-4.88.11,1.46,1.46,0,0,0-.55,0,13,13,0,0,1-2.5.17c-1.34,0-2.69,0-4,.07a24.56,24.56,0,0,1-2.71.23c-.74,0-1.43.27-2.15.18a19.53,19.53,0,0,0-6.52.61c-.44.1-1,.4-1.4,0m-91.6,34c0,.25-.3.34-.47.55-.54-.19-1.19-.1-1.74-.51.56-.61,1.24-.62,2.21,0m18.76-.14c-.55-.44-.4-.91-.08-1.38,1.09.4,1.11.74.08,1.38m-158-1.19c.61-.69,1.28,0,1.89-.22a.48.48,0,0,1,0,.7c-.69,0-1.16-.54-1.9-.48m81.26-.83a1.64,1.64,0,0,0,.81.56,2.5,2.5,0,0,1,1.5,1.2,2.15,2.15,0,0,0,1.65,1.13,1.78,1.78,0,0,1,1,.66A14.45,14.45,0,0,1,96.42,38c-.81-.15-1.64-.18-2.46-.26-1.15-.12-1.42-.35-1.39-1.32a.57.57,0,0,0-.18-.39,4.69,4.69,0,0,1-.61-1.55m39.65,4.08c-1.2-.46-2.39-.16-3.58-.22-.69,0-1.36,0-2.06-.06a5.39,5.39,0,0,0-2.51.25,1.81,1.81,0,0,0-1.49-.44,15.4,15.4,0,0,0-3,.21,37.81,37.81,0,0,0-4-.14,1.61,1.61,0,0,1,0-1.45c.33-.31.71.12,1-.21l.37.27a4.47,4.47,0,0,0,3.75,1l2.19-.48c.81-.19,1.7-.54,2.46.2a1.11,1.11,0,0,0,1,0,13.65,13.65,0,0,1,2-.29,2.25,2.25,0,0,1,1.65.22,2.51,2.51,0,0,0,1.25.11A12,12,0,0,1,133,38a1.15,1.15,0,0,1-1.53.59M146.27,38c-.11-.26,0-.42.27-.39a3.24,3.24,0,0,1,2,1.06,7,7,0,0,0-2.3-.67"/></g></g></svg>