<svg xmlns="http://www.w3.org/2000/svg" preserveAspectRatio="none" viewBox="0 0 42.85 45"><defs><style>.cls-1{fill:#00a786;}</style></defs><title>btn-next</title><g id="Layer_2" data-name="Layer 2"><g id="Layer_1-2" data-name="Layer 1"><path class="cls-1" d="M20.76,18.69s.09.06.13.1.05,0,.05,0-.11-.1-.18-.06"/><path class="cls-1" d="M22.48,19.33c.11,0,.12-.06,0-.13a.1.1,0,0,0,0,.13"/><path class="cls-1" d="M10.53,30.71c.08,0,.11,0,.17,0a0,0,0,0,0,0-.06c-.06,0-.08.08-.15.1"/><path class="cls-1" d="M20.48,18.67s0,0,0,0a.7.7,0,0,1,.16.13.24.24,0,0,0-.13-.15"/><path class="cls-1" d="M9.58,14.29c.06,0,.09.08.14.1s0,0,0-.06-.09-.08-.16,0"/><path class="cls-1" d="M16.5,17.13a.16.16,0,0,1-.1-.15.24.24,0,0,0-.09-.15.35.35,0,0,1,0-.08l-.17-.07a.45.45,0,0,0,0,.16v0c0,.08,0,.11.07.16l.19.1.2.08a.47.47,0,0,0-.06-.09"/><path class="cls-1" d="M19.06,18.11a.17.17,0,0,0-.12-.07,1.16,1.16,0,0,0-.18,0s-.07,0-.08,0-.13-.08-.2-.09l-.19,0a.37.37,0,0,1-.28-.2l0,0s0,0-.08,0a.15.15,0,0,0-.05.13c.11.06.23.08.33.14a.73.73,0,0,1,.25.08.15.15,0,0,1,.11.08.39.39,0,0,1,.21.06l.17.07a.79.79,0,0,1,.28.13.1.1,0,0,0,.15,0,.78.78,0,0,0-.2-.11s-.08,0-.1-.05"/><path class="cls-1" d="M21.43,26.33a.29.29,0,0,0,.14-.15,1.09,1.09,0,0,1-.17.13s0,0,0,0"/><path class="cls-1" d="M17.12,28c-.09.05-.1.08-.07.16s0,0,0,0a.43.43,0,0,0,0,.16l.16-.07a.35.35,0,0,1,.05-.08.2.2,0,0,0,.09-.15.16.16,0,0,1,.1-.15.24.24,0,0,0,.06-.09l-.19.08-.2.1"/><path class="cls-1" d="M23.47,25.8c.08-.07.07-.1,0-.13a.09.09,0,0,0,0,.13"/><path class="cls-1" d="M21.71,26.31c.07,0,.12,0,.19-.06s0,0-.06,0-.09.05-.13.1"/><path class="cls-1" d="M36.75,24a.18.18,0,0,1-.11.12s-.11.06-.14.12l0,0a.14.14,0,0,0-.12.07s0,0,0,0l-.1.05-.23.11a2.63,2.63,0,0,0-.42.17,1.05,1.05,0,0,1-.38.12,3.2,3.2,0,0,0-.42.1,2.6,2.6,0,0,0-.55.21l-.1.05c-.16,0-.29.14-.45.17h0l-.26.13c-.15.05-.3.12-.46.16l-.4.15a3.17,3.17,0,0,0-.4.14h0a.86.86,0,0,0-.21.07l-.33.12-.23.06c-.06,0-.12,0-.18.05a1.56,1.56,0,0,1-.55.15s-.09,0-.12.05l-.51.24-.24.11c-.12.06-.24.09-.36.14a2.15,2.15,0,0,0-.27.1l-.11.06a.15.15,0,0,1-.12.05l-.08,0a4.13,4.13,0,0,0-.45.17.65.65,0,0,0-.16.09.64.64,0,0,1-.26.1,3.31,3.31,0,0,0-.41.14,2.15,2.15,0,0,0-.32.13c-.12.06-.26.11-.39.16a.14.14,0,0,0-.08,0,.31.31,0,0,1-.1.05l-.22.07a1.39,1.39,0,0,0-.26.1l-.59.22-.35.14-.38.16s-.05,0-.09,0a4.26,4.26,0,0,0-.47.15,2.15,2.15,0,0,0-.46.22.73.73,0,0,1-.26.11l-.17,0a.74.74,0,0,0-.21.07l-.4.19a1.38,1.38,0,0,1-.22.1.61.61,0,0,0-.13,0,.39.39,0,0,1-.15.06l0,0-.53.22a.11.11,0,0,0-.08,0,1.6,1.6,0,0,1-.37.12.31.31,0,0,1-.12,0,.23.23,0,0,0-.14,0,1.15,1.15,0,0,1-.31.11l0,0a2,2,0,0,1-.31.12s-.07,0-.1,0l-.27.12-.42.16a2.92,2.92,0,0,1-.42.13.21.21,0,0,0-.1,0c-.18.08-.35.16-.53.22s-.08.05-.13.05-.26.09-.39.13a4.73,4.73,0,0,0-.47.2l-.18.08a1.28,1.28,0,0,1-.37.14.29.29,0,0,0-.1,0,1.34,1.34,0,0,1-.38.14c-.1,0-.19.11-.3.09h0a2.43,2.43,0,0,1-.47.19l-.31.1c-.11,0-.21.09-.31.12l-.07,0a1.45,1.45,0,0,1-.29.11l-.24.09-.12.07c-.2.06-.38.14-.57.21a3.3,3.3,0,0,0-.43.19c-.11.06-.23.1-.34.15a1.34,1.34,0,0,1-.38.14h0c-.08.06-.19.05-.27.11a1.91,1.91,0,0,0-.52.19l-.24.12-.32.18a1.46,1.46,0,0,1-.46.15s-.07,0-.08,0l-.06-.07a.27.27,0,0,1-.1-.19.3.3,0,0,0,0-.1,1.72,1.72,0,0,0-.07-.21.07.07,0,0,0,0-.06.15.15,0,0,1,0-.13.18.18,0,0,0,0-.12.15.15,0,0,1,0-.1.47.47,0,0,0-.06-.2,1.06,1.06,0,0,1-.09-.25c0-.14-.06-.27-.09-.4a1.53,1.53,0,0,0-.23-.46.28.28,0,0,1,0-.12.76.76,0,0,0,0-.16,1.42,1.42,0,0,0-.12-.25.51.51,0,0,1-.07-.17.36.36,0,0,0,0-.09.29.29,0,0,1,0-.35.17.17,0,0,1,.1-.07c.16-.07.32-.09.47-.17s.08,0,.11-.05a.62.62,0,0,1,.19-.07,1.14,1.14,0,0,0,.25-.06l.28-.11.33-.13.12-.06a1.22,1.22,0,0,0,.27-.09.44.44,0,0,1,.19-.07,0,0,0,0,0,.06,0s.12,0,.17-.08a.33.33,0,0,0,.16-.07,2.45,2.45,0,0,0,.51-.2h0a1.78,1.78,0,0,0,.49-.17l.09,0a2.17,2.17,0,0,0,.36-.12l.14-.05a1.88,1.88,0,0,1,.3-.12l.24-.08a3.94,3.94,0,0,0,.48-.18l.13-.06a1.26,1.26,0,0,0,.37-.13h0a1,1,0,0,1,.24-.07l.06,0c0-.05.11,0,.14-.07s.1,0,.15-.06l.34-.14a4.76,4.76,0,0,0,.53-.19h0s.05,0,.08,0l.07,0a.88.88,0,0,0,.27-.1l.07,0a.5.5,0,0,0,.13,0l.13-.06s0,0,.06,0,0,0,0,0,0-.07.1-.09a.78.78,0,0,0,.24-.09s0,0,.06,0,.08,0,.12,0a2.18,2.18,0,0,1,.23-.09l.31-.08a.57.57,0,0,1,.14-.13,3.79,3.79,0,0,0,.42-.18h0a.28.28,0,0,0,.2,0A1.77,1.77,0,0,1,20,26.7l0,0a1.43,1.43,0,0,1,.39-.15l.07,0a1.75,1.75,0,0,1,.28-.13c.11,0,.2-.1.31-.13l.05,0a.38.38,0,0,1,.15,0,1.51,1.51,0,0,0,.33-.13c.06,0,.13-.09.21-.07a.25.25,0,0,0,.19,0,1.45,1.45,0,0,1,.29-.11,1.8,1.8,0,0,0,.38-.16l.08,0a2.29,2.29,0,0,1,.28-.09l.39-.12a.87.87,0,0,0,.31-.14h0l.26-.07c.09,0,.17-.08.26-.12l.22-.08a.27.27,0,0,0,.12,0,.91.91,0,0,1,.22-.11s.09,0,.13,0,.19-.07.28-.11l.14,0a1.48,1.48,0,0,0,.27-.1.57.57,0,0,1,.25-.08l.11,0a.9.9,0,0,1,.21-.08,2.79,2.79,0,0,1,.37-.14.94.94,0,0,0,.15-.06,4.43,4.43,0,0,1,.88-.33l0,0a1.48,1.48,0,0,1,.35-.13,1.24,1.24,0,0,0,.31-.1l.1,0a.57.57,0,0,0,.22-.07.34.34,0,0,1,.15-.06.19.19,0,0,0,.1,0,1.74,1.74,0,0,1,.19-.1.33.33,0,0,1,.14,0,1.11,1.11,0,0,0,.31-.09s.05,0,.06,0a.21.21,0,0,1,.12-.07l.22-.08a1.83,1.83,0,0,1,.39-.09.4.4,0,0,0,.18-.07,1.19,1.19,0,0,1,.22-.12h0l-.34-.14-.45-.2a1.33,1.33,0,0,1-.19-.05,1.14,1.14,0,0,1-.22-.12.4.4,0,0,0-.18-.07A1.7,1.7,0,0,1,29,22l-.22-.08a.24.24,0,0,1-.12-.07.09.09,0,0,0-.06,0,1.17,1.17,0,0,0-.32-.09.33.33,0,0,1-.13,0,1.74,1.74,0,0,1-.19-.1l-.11,0a.3.3,0,0,1-.15-.05.76.76,0,0,0-.21-.08.17.17,0,0,1-.1,0,1.81,1.81,0,0,0-.31-.09,2.09,2.09,0,0,1-.35-.13l0,0a4.76,4.76,0,0,1-.89-.33.59.59,0,0,0-.14-.06l-.37-.14a.9.9,0,0,1-.21-.08.34.34,0,0,0-.12,0,.75.75,0,0,1-.24-.08,1.48,1.48,0,0,0-.27-.1l-.14-.05a1.57,1.57,0,0,1-.28-.1.61.61,0,0,0-.13,0,1.2,1.2,0,0,1-.23-.11l-.11,0a1.42,1.42,0,0,1-.22-.07l-.27-.12a2.41,2.41,0,0,1-.25-.08h0a.87.87,0,0,0-.31-.14l-.39-.12a2.29,2.29,0,0,1-.28-.09l-.08,0a1.68,1.68,0,0,0-.39-.16,1.13,1.13,0,0,1-.28-.12.27.27,0,0,0-.2,0c-.07,0-.14,0-.2-.08l-.33-.12a.33.33,0,0,1-.15,0l-.06,0c-.1,0-.19-.1-.3-.13a1.43,1.43,0,0,1-.28-.13l-.07,0a1.32,1.32,0,0,1-.39-.15l0,0a1.58,1.58,0,0,1-.38-.15.29.29,0,0,0-.2,0h0L18,17.91a.32.32,0,0,1-.14-.12l-.31-.08a2.18,2.18,0,0,1-.23-.09.26.26,0,0,0-.12-.05s0,0-.07,0a.65.65,0,0,0-.23-.09c-.06,0-.09,0-.1-.09s0,0,0,0,0,0-.06,0-.09,0-.13-.06a.21.21,0,0,0-.13,0l-.08,0a.74.74,0,0,0-.26-.1.11.11,0,0,1-.07,0,.14.14,0,0,0-.09,0s0,0,0,0a3.75,3.75,0,0,0-.53-.19l-.34-.14c-.05,0-.11,0-.15-.06s-.1,0-.14-.07l-.06,0a1,1,0,0,1-.24-.07l-.05,0a1.63,1.63,0,0,0-.37-.13l-.13-.05a4.78,4.78,0,0,0-.48-.19l-.24-.07a1.34,1.34,0,0,1-.3-.12l-.15,0a2.06,2.06,0,0,0-.35-.12l-.1,0a1.58,1.58,0,0,0-.49-.17l0,0a3.13,3.13,0,0,0-.51-.19.33.33,0,0,0-.17-.07s-.11,0-.16-.08a.09.09,0,0,0-.06,0,.42.42,0,0,1-.19-.06L10.42,15s-.07,0-.12-.06L10,14.84l-.29-.11a1.05,1.05,0,0,0-.24-.06l-.19-.07s-.08,0-.11,0-.32-.1-.47-.17a.17.17,0,0,1-.1-.07.29.29,0,0,1,0-.35s0-.06,0-.09a.51.51,0,0,1,.07-.17,2.06,2.06,0,0,0,.12-.26.34.34,0,0,0,0-.15.43.43,0,0,1,.05-.12,1.65,1.65,0,0,0,.23-.46c0-.13.07-.27.09-.4a1,1,0,0,1,.08-.25.48.48,0,0,0,.07-.2.15.15,0,0,1,0-.1.19.19,0,0,0,0-.13.15.15,0,0,1,.05-.12s0,0,0-.06.05-.14.07-.21a.3.3,0,0,0,0-.1.27.27,0,0,1,.1-.19l.06-.07s0,0,.08,0a1.55,1.55,0,0,1,.46.15c.11,0,.21.12.32.18a1.79,1.79,0,0,0,.24.12,1.84,1.84,0,0,0,.51.19c.09.06.19,0,.28.11h0a1.4,1.4,0,0,1,.39.14,3.31,3.31,0,0,1,.33.15,2.39,2.39,0,0,0,.44.18c.19.07.37.16.56.22l.13.07a1.13,1.13,0,0,0,.24.08,2.52,2.52,0,0,1,.29.12l.06,0c.11,0,.21.09.32.12l.31.1a3.08,3.08,0,0,1,.47.19h0c.11,0,.2.06.3.09a1.28,1.28,0,0,1,.37.14l.1,0a1.09,1.09,0,0,1,.38.14c.05,0,.12,0,.18.08a3.9,3.9,0,0,0,.47.2,2.91,2.91,0,0,0,.39.12l.13.06a4.77,4.77,0,0,1,.52.22.3.3,0,0,0,.11,0,2.92,2.92,0,0,1,.42.13l.42.16.27.12s.06,0,.1,0a2,2,0,0,1,.31.12.05.05,0,0,0,0,0,1.15,1.15,0,0,1,.31.11.23.23,0,0,0,.14,0,.31.31,0,0,1,.12.05,1.6,1.6,0,0,1,.37.12s.05,0,.08,0l.53.22.05,0a.39.39,0,0,1,.15.06.5.5,0,0,0,.13,0,1,1,0,0,1,.21.1l.41.19a.74.74,0,0,0,.21.07.86.86,0,0,0,.17,0,.73.73,0,0,1,.26.11,2,2,0,0,0,.46.22,4.26,4.26,0,0,0,.47.15s.06,0,.09,0l.38.16.35.14.59.22a1.17,1.17,0,0,0,.26.1l.22.07a.19.19,0,0,1,.1.05.14.14,0,0,0,.08,0c.13.05.27.1.39.16a2.15,2.15,0,0,0,.32.13,3.31,3.31,0,0,0,.41.14.64.64,0,0,1,.26.1.65.65,0,0,0,.16.09,4.13,4.13,0,0,0,.45.17l.08,0a.17.17,0,0,1,.12,0,.41.41,0,0,0,.11.07,2.15,2.15,0,0,0,.27.1c.12,0,.24.08.36.14l.24.11.51.24c0,.05.08,0,.12.05a1.42,1.42,0,0,1,.55.15c.05,0,.12,0,.18.05a1.55,1.55,0,0,0,.23.06l.33.12a.86.86,0,0,0,.21.07h.05a2.7,2.7,0,0,0,.4.14l.4.15c.15,0,.3.11.46.16s.17.08.26.12l0,0c.16,0,.29.13.45.16l.1.06a3.9,3.9,0,0,0,1,.31,1.12,1.12,0,0,1,.38.12,2.63,2.63,0,0,0,.42.17l.23.11.1.05s0,0,0,0a.14.14,0,0,0,.12.07s0,0,0,0,0,0,0,0h0c.08,0,.17.06.22.13s0,0,.07,0a.06.06,0,0,0,0,0,1,1,0,0,0,.08.22l.11.26a.74.74,0,0,1,.07.21.08.08,0,0,0,0,0,.86.86,0,0,1,.11.24,1.79,1.79,0,0,0,.13.32,2.6,2.6,0,0,1,.19.42l0,.15a4.34,4.34,0,0,1,.2.5.69.69,0,0,1,0,.25v.14a.2.2,0,0,1-.14.23m6-2c-.09.06,0,.17-.11.21,0-.11-.07-.21,0-.32a.12.12,0,0,0,0-.1c-.06-.15.05-.31,0-.45a1.85,1.85,0,0,0,0-.62.14.14,0,0,1,0-.1c.06,0,.1.13.19,0a1.76,1.76,0,0,1-.1-.45c-.06.13,0,.25-.1.31s-.1-.07-.08-.15a.54.54,0,0,0,0-.28.16.16,0,0,1,0-.16c.08,0,.15.05.22,0a2,2,0,0,1,0-.59.76.76,0,0,0-.05-.45.53.53,0,0,1,0-.37.17.17,0,0,0,0-.1c-.09-.17,0-.35-.11-.53a3.61,3.61,0,0,1-.16-.82,1.11,1.11,0,0,0-.19-.58.4.4,0,0,1,0-.2,1.11,1.11,0,0,0-.07-.51c-.1-.23-.11-.51-.31-.69,0,0,0-.09,0-.13s0-.37-.17-.47a.3.3,0,0,0,0-.29c-.07-.1,0-.27-.17-.33,0,0,0,0,0-.06s0-.33-.15-.45a1.57,1.57,0,0,1-.25-.5s0-.1,0-.13a.61.61,0,0,1-.23-.36c-.11-.31-.25-.6-.36-.92a.28.28,0,0,0-.09-.13.5.5,0,0,1-.08-.12.64.64,0,0,0-.17-.3s-.07-.07-.08-.12c0-.22-.22-.33-.35-.46a.35.35,0,0,1-.12-.29c0-.21,0-.31-.23-.4l-.05,0a.66.66,0,0,0-.34-.47S38.78,9,38.77,9s-.15-.19-.22-.29-.06,0-.06-.08-.08-.18-.17-.23a.33.33,0,0,1-.17-.26A.34.34,0,0,0,38,7.91a2.9,2.9,0,0,1-.34-.36,10.1,10.1,0,0,0-.76-.84.16.16,0,0,1,0-.09c0-.08-.06-.12-.11-.18a.71.71,0,0,0-.34-.23c0-.07,0-.18-.1-.21s-.11.09-.2.1A.75.75,0,0,1,35.91,6V5.9c0-.18-.11-.29-.17-.44s-.19-.19-.29-.29S35.34,5,35.25,5a.49.49,0,0,1-.35-.26.72.72,0,0,0-.28-.24c-.25-.15-.56-.21-.72-.5,0,0,0,0-.06,0a2.58,2.58,0,0,0-.49-.32c-.12-.07-.19-.19-.31-.26l-.95-.59a2.56,2.56,0,0,0-.48-.22l-.24-.11a1.05,1.05,0,0,0-.4-.19.21.21,0,0,1-.16-.08.86.86,0,0,0-.36-.2,1.06,1.06,0,0,1-.21-.11,1.53,1.53,0,0,0-.4-.21,3.33,3.33,0,0,1-.45-.13,8.44,8.44,0,0,1-1-.41,3.2,3.2,0,0,0-.89-.29,2.22,2.22,0,0,0-.37-.09c-.32,0-.62-.11-.94-.15a2.71,2.71,0,0,1-.8-.16.17.17,0,0,0-.12,0A1.58,1.58,0,0,1,24.67.4a2.31,2.31,0,0,0-.81-.21,5,5,0,0,1-.67,0,.87.87,0,0,0-.22,0c-.24,0-.47,0-.7-.06S22.06,0,22,0a5.89,5.89,0,0,1-.84,0,.69.69,0,0,0-.54.09c-.05,0-.1,0-.16,0a.65.65,0,0,0-.39,0,.45.45,0,0,1-.28,0c-.1,0-.21-.06-.3,0a1.14,1.14,0,0,1-.45.1c-.13,0-.24.1-.36.11a1.37,1.37,0,0,0-.49.09H18a2.09,2.09,0,0,1-.56,0,1.17,1.17,0,0,0-.41.06c-.14,0-.29,0-.41.09s-.47.2-.73.14c-.07,0-.15,0-.22,0s-.29.15-.43.21-.24.06-.35.1-.18.16-.28.24a.75.75,0,0,1-.2.1,6.94,6.94,0,0,1-.78.22,2.15,2.15,0,0,0-.65.21c-.07,0-.1.11-.17.12a2.41,2.41,0,0,0-.75.42,1.19,1.19,0,0,1-.33.18.12.12,0,0,0-.1.07.21.21,0,0,1-.18.11.64.64,0,0,0-.19.08c-.21.12-.42.27-.64.38a1.56,1.56,0,0,0-.64.5A.58.58,0,0,1,9.7,4a.47.47,0,0,0-.19.12c-.18.14-.31.36-.56.4a.07.07,0,0,0-.06,0c-.06.14-.2.18-.31.26s-.23.14-.34.22a7.21,7.21,0,0,0-.84.9c-.24.28-1.11.71-1,.83a.11.11,0,0,1-.11.16A.29.29,0,0,0,6.07,7l-.28.32c-.08.11-.21.19-.28.3l-.43.68a4.33,4.33,0,0,1-.43.53,5.41,5.41,0,0,0-.51.65l-.45.62c-.23.32-.4.7-.62,1a2.91,2.91,0,0,0-.26.45,4.27,4.27,0,0,1-.54,1,1.26,1.26,0,0,0-.25.47,5.59,5.59,0,0,1-.37,1.09,6.91,6.91,0,0,0-.35,1,1.89,1.89,0,0,1-.05.23,10.33,10.33,0,0,0-.33,1.12c-.11.39-.19.79-.33,1.17a3.29,3.29,0,0,0-.09.43,3,3,0,0,1-.11.52,3,3,0,0,0-.09.43c-.06.22-.06.45-.13.66a3.32,3.32,0,0,0,0,1,2.44,2.44,0,0,1,0,.6c0,.06.08,0,.07.1s-.1.05-.1.1.12.06.11.14-.09,0-.12.06A1.87,1.87,0,0,0,0,22.7a1.48,1.48,0,0,1,0,.21,1.85,1.85,0,0,0,0,.33c0,.1,0,.21.05.32.06.26.09.52.14.78,0,.06.05.13,0,.19s0,.21.07.31c-.15.3,0,.61,0,.91.11.13.07.29.1.43s.07.29.11.43.06.43.13.64a.93.93,0,0,1,0,.44.82.82,0,0,0,0,.41,1.46,1.46,0,0,1,.11.41,7.28,7.28,0,0,0,.32.89s0,.05,0,.07c.21.21.23.53.38.78a.06.06,0,0,1,0,.06.38.38,0,0,0,.1.31c.07.08.15.17.09.3a.11.11,0,0,0,.05.11c.16.15.1.42.27.56,0,.1.06.14.09.21s.07.06,0,.1,0,.2.1.27,0,.09,0,.14A1.41,1.41,0,0,0,2.6,33c.14.16.1.4.28.52v0c0,.11,0,.2.05.29a.81.81,0,0,0,.25.45,1,1,0,0,1,.28.34.65.65,0,0,1,.15.35s0,.06.05.09.18.21.2.35a.2.2,0,0,0,.12.18s.05,0,.05.06a.72.72,0,0,0,.28.46,1.68,1.68,0,0,0,.29.25.58.58,0,0,1,.22.22.55.55,0,0,0,.17.17.85.85,0,0,1,.36.41c.05.14.2.22.22.39,0,0,0,0,0,.06a1.12,1.12,0,0,1,.4.56.15.15,0,0,0,.06.09,1,1,0,0,1,.33.33c.18,0,.29.25.49.29,0,.1,0,.2.11.21a.47.47,0,0,1,.34.26,1.44,1.44,0,0,0,.22.27,2.37,2.37,0,0,0,.61.37.59.59,0,0,1,.27.29.75.75,0,0,0,.1.17,1.28,1.28,0,0,1,.27,0c.1,0,.17-.09.26-.06s0,.09,0,.14a0,0,0,0,0,0,0c.18.12.4.18.48.42a.08.08,0,0,0,.1,0c.08,0,.15,0,.22.05s.3.19.48.21a.15.15,0,0,1,.14.13.32.32,0,0,0,.08.12h.12a.24.24,0,0,1,.25.19.25.25,0,0,0,.31.1.17.17,0,0,1,.19,0s0,.12,0,.17a1.31,1.31,0,0,0,.33,0c0,.11-.11.08-.14.15a1.83,1.83,0,0,1,.58.32.21.21,0,0,0,.15,0c.15,0,.21.08.26.19a.47.47,0,0,0,.07.17c.19,0,.27.15.43.24a.28.28,0,0,1,.23,0,1.43,1.43,0,0,0,.5.14c.1,0,.18,0,.22.15a.15.15,0,0,0,.18.11.39.39,0,0,1,.33.14.3.3,0,0,0,.13.09,6,6,0,0,1,.83.33c.15.08.3.13.44.22a.61.61,0,0,0,.6,0s.08,0,.13,0l.05.06c.15.2.24.21.44.07,0,0,.07-.05.09,0a1.65,1.65,0,0,0,.47.13s0,0,0,0a.36.36,0,0,0,.29.12c.38,0,.76,0,1.14,0a.8.8,0,0,1,.34.11c.11.06.24,0,.37,0s.46,0,.68.08c0,0,.06,0,.1,0a.9.9,0,0,1,.43,0,.37.37,0,0,0,.34,0,.52.52,0,0,1,.18,0,2,2,0,0,0,.54,0,.77.77,0,0,0,.26-.12,1.75,1.75,0,0,0,.85-.07c.15,0,.3-.15.46,0a0,0,0,0,0,.05,0,2.8,2.8,0,0,0,.65-.24,1,1,0,0,1,.46-.14l.22,0a7.19,7.19,0,0,1,.8-.2c.12,0,.25-.09.36,0s.23-.08.36,0a.29.29,0,0,0,.2,0,.32.32,0,0,1,.19-.05.29.29,0,0,0,.31-.13c.13,0,.26.09.38,0a1.57,1.57,0,0,1,.67-.16.63.63,0,0,1,.37-.33,3.71,3.71,0,0,0,.46-.19c.17-.08.31-.22.51-.22a.13.13,0,0,0,.1-.07c.06-.16.26-.13.33-.28s.3-.23.51-.18c.05,0,.09,0,.12-.08a.14.14,0,0,1,.17-.07.37.37,0,0,0,.32-.1s.07-.06.13-.06.23-.12.32-.21,0-.06.07-.08c.26-.09.45-.32.72-.38a.18.18,0,0,0,.08-.07.37.37,0,0,1,.18-.15,1.31,1.31,0,0,0,.32-.25,1.31,1.31,0,0,1,.43-.31c.1,0,.16-.13.27-.15s0-.11.05-.12c.23-.13.37-.35.58-.49a1,1,0,0,0,.37-.31c.09-.18.31-.18.37-.37s.27-.25.42-.37.22-.28.36-.36a.86.86,0,0,0,.32-.27c.08-.1.2-.12.27-.21a2.86,2.86,0,0,1,.41-.37,1.15,1.15,0,0,0,.38-.41.58.58,0,0,1,.25-.34s0-.07.06-.11,0-.09.06-.11c.24-.22.4-.54.69-.73a.2.2,0,0,0,.1-.19.36.36,0,0,1,.07-.22s.13,0,.15-.09.15-.19.22-.28.16,0,.26,0,0-.17,0-.25.2-.47.39-.65a.13.13,0,0,0,0-.08.41.41,0,0,1,.19-.35.63.63,0,0,0,.22-.61s0,0,.06,0,.19-.33.32-.48a.5.5,0,0,0,.17-.37l0,0c.18-.34.3-.7.47-1.05a5.61,5.61,0,0,0,.42-1,.34.34,0,0,1,.07-.15,1.35,1.35,0,0,0,.24-.72c0-.18,0-.35,0-.53a.34.34,0,0,0,0-.1A1,1,0,0,1,42.1,28a1.55,1.55,0,0,0,.14-.67c0-.12,0-.23-.05-.35a.23.23,0,0,1,.05-.17.35.35,0,0,0,.1-.24,1.23,1.23,0,0,1,0-.33c0-.14.08-.26.08-.41s-.05-.32.1-.44,0,0,0,0,0-.31,0-.46.08,0,.1,0-.09-.05-.09-.15a2,2,0,0,0,.06-.77c.18-.08.19-.12.11-.3a.65.65,0,0,1-.08-.47.21.21,0,0,0,0-.08c0-.16,0-.32,0-.49a.22.22,0,0,1,.07-.23c.1.15-.07.36.1.52,0-.22,0-.41,0-.6a1.75,1.75,0,0,0-.07-.36"/><path class="cls-1" d="M20.17,26.72a.84.84,0,0,1-.29.13l-.17.07a.47.47,0,0,1-.21.06.15.15,0,0,1-.11.08.73.73,0,0,1-.25.08c-.1.06-.22.08-.32.14a.15.15,0,0,0,0,.13s.05,0,.08,0,0,0,0,0a.43.43,0,0,1,.28-.21l.19,0c.08,0,.16,0,.2-.1s.05,0,.08,0a1.16,1.16,0,0,0,.18,0,.21.21,0,0,0,.13-.07s.06,0,.09-.05a.78.78,0,0,0,.2-.11.09.09,0,0,0-.14,0"/></g></g></svg>