<svg xmlns="http://www.w3.org/2000/svg" preserveAspectRatio="none" viewBox="0 0 160 40"><defs><style>.cls-1{fill:#00a786;}</style></defs><title>btn-green</title><g id="Layer_2" data-name="Layer 2"><g id="Layer_1-2" data-name="Layer 1"><path class="cls-1" d="M117,2.28a14.14,14.14,0,0,1-1.46-.13c-.73-.12-1.45,0-2.18-.06-.54-.06-1.08.19-1.64,0a1.49,1.49,0,0,1-.67-.23.67.67,0,0,0-.74,0,1,1,0,0,1-.48.14,13.9,13.9,0,0,1-2.66.06,3.32,3.32,0,0,1-1.05-.27,1.8,1.8,0,0,0-1.55-.09,8.82,8.82,0,0,1-2.45.19,6.28,6.28,0,0,1-1.93-.09,14.6,14.6,0,0,0-2.38-.12.71.71,0,0,1-.53-.15.74.74,0,0,0-.63-.16,5.13,5.13,0,0,0-1.28.18,4.37,4.37,0,0,1-1.61-.08c-1.19,0-2.37,0-3.55.08a11.34,11.34,0,0,1-2.1-.05c-.78-.1-1.56-.13-2.35-.16-.18,0-.33-.19-.52-.1a13.18,13.18,0,0,1-2.79.37,7.27,7.27,0,0,1-2.87-.49A2.66,2.66,0,0,0,78,1a4.14,4.14,0,0,1-.92.35,2.76,2.76,0,0,1-1.27.11c-.83-.24-1.68-.21-2.51-.4A3.41,3.41,0,0,0,72,1c-.24.05-.5.21-.72.15a1.13,1.13,0,0,0-.9,0c-.1,0-.22,0-.32,0A29.11,29.11,0,0,0,66.78.94a1.16,1.16,0,0,1-.49,0c-.74-.36-1.46.11-2.19.12-.24,0-.5-.15-.73,0a.91.91,0,0,1-.8.14,2.92,2.92,0,0,0-1.87.06.51.51,0,0,1-.27,0,7.42,7.42,0,0,0-1.88-.09c-.21,0-.37.24-.58.15a6.58,6.58,0,0,0-1.65-.19,15.27,15.27,0,0,0-2.53,0,7.4,7.4,0,0,0-2.46.28,1.78,1.78,0,0,1-.65,0,15.62,15.62,0,0,0-3.2-.22c-.26,0-.54-.12-.8-.05a14.85,14.85,0,0,1-2.29.25,10.12,10.12,0,0,1-2.89-.26c-.38-.08-.76,0-1.13-.08a4.06,4.06,0,0,0-2.24,0,1.2,1.2,0,0,1-.58.09,4.52,4.52,0,0,0-2.28,0c-.57.14-1.19-.43-1.72.24,0,0-.07-.05-.1-.06a9.61,9.61,0,0,0-2.83-.12c-.62.13-1.25.06-1.86.19a13.54,13.54,0,0,1-1.91,0c-.12,0-.22.09-.36,0a4.58,4.58,0,0,0-1.77,0,3,3,0,0,1-1.43.06,1.89,1.89,0,0,0-.8-.17c-1.13.08-2.26-.08-3.39-.06a9.5,9.5,0,0,1-2.66-.14A10,10,0,0,0,14.35,1c-.76-.06-1.54-.4-2.3,0a.22.22,0,0,1-.16,0c-.55-.27-1.11.21-1.65,0A6.67,6.67,0,0,1,7.13,1,9.4,9.4,0,0,1,5.64.73a12.26,12.26,0,0,0-2-.61A4.1,4.1,0,0,0,.86.37.66.66,0,0,0,.5,1,4.57,4.57,0,0,1,.33,2,5.58,5.58,0,0,0,.15,4.29a7.3,7.3,0,0,1,.09,1c0,.79,0,1.58,0,2.37a2.5,2.5,0,0,1-.06.67,2.77,2.77,0,0,0,0,1.43,3.44,3.44,0,0,1,0,1.36,3.25,3.25,0,0,0,0,1.12,8.82,8.82,0,0,1,0,2.24,17.33,17.33,0,0,0,0,2.79c.12,1.43.18,2.88.25,4.33A32.06,32.06,0,0,1,.18,27.1a5.23,5.23,0,0,0,0,1.37A6.82,6.82,0,0,1,.3,30.08,28.36,28.36,0,0,1,.15,33a11.12,11.12,0,0,0-.08,2,7.36,7.36,0,0,1,0,1,4.15,4.15,0,0,0,.81,3.34.86.86,0,0,0,.68.36c.93,0,1.85-.35,2.78-.09.23.06.47-.08.7,0a1.5,1.5,0,0,0,1.12,0,5.56,5.56,0,0,1,1.44-.28,11,11,0,0,1,1.72,0,12.26,12.26,0,0,0,2,0c.26,0,.49.21.75.12a3.29,3.29,0,0,1,1.59,0,1.35,1.35,0,0,0,1.12-.12.29.29,0,0,1,.37,0c.33.25.72-.1,1,.25.33-.25.67,0,1,0a12.14,12.14,0,0,1,3.07.06.66.66,0,0,0,.27-.06,6.11,6.11,0,0,1,2.94-.12,1.27,1.27,0,0,0,.58,0,9.27,9.27,0,0,1,2.09-.17,3.62,3.62,0,0,1,.87,0,5.06,5.06,0,0,0,1.82,0c.47-.1.94-.09,1.41-.15a12.57,12.57,0,0,1,2.94,0,3.16,3.16,0,0,0,.75.05c.75-.06,1.48-.5,2.24-.14a.32.32,0,0,0,.27,0c.47-.15,1,.06,1.42-.2a.32.32,0,0,1,.37,0c.29.27.62-.06.88.16s.59,0,.89,0c.69,0,1.36.16,2.06.1A18.66,18.66,0,0,1,45.22,39a.38.38,0,0,0,.21,0A.41.41,0,0,1,46,39a.5.5,0,0,0,.43,0,2.32,2.32,0,0,1,1.58,0,.64.64,0,0,0,.42-.08c.25-.12.54-.31.77-.22s.56,0,.8.15c.18-.18.16-.45.23-.64.12,0,.18.15.24.29.15.45.34.57.7.5a1.94,1.94,0,0,1,1.42,0c.14.08.27.35.44.2s.48-.05.73,0a5.4,5.4,0,0,0,1.39,0c.6-.12,1.19-.32,1.79-.41.31.3.59.72,1,.73a11.74,11.74,0,0,1,2.57.26.25.25,0,0,0,.26-.08,1,1,0,0,1,1.11-.32,5.63,5.63,0,0,0,2.31.07.37.37,0,0,1,.21,0,3.89,3.89,0,0,0,2.34,0c.14,0,.29-.1.43-.07a4.41,4.41,0,0,0,1.73.22c.61-.1,1.23.3,1.86.18a.75.75,0,0,1,.32.06,1.27,1.27,0,0,0,.9,0,3.64,3.64,0,0,1,2,0c.41.1.86.42,1.25,0a1,1,0,0,1,1.13-.3,3.81,3.81,0,0,0,1.71,0,5.56,5.56,0,0,1,2.36.21,2,2,0,0,0,.48.07,6.2,6.2,0,0,0,1.65-.19,14.06,14.06,0,0,1,2.33-.24,2.87,2.87,0,0,1,1.91.15h.1a9.47,9.47,0,0,0,1.5-.19c.55,0,1.09.1,1.63.11a4.58,4.58,0,0,0,1.33-.05,1.37,1.37,0,0,1,.67,0,3.43,3.43,0,0,0,1.41.23c.25-.06.48-.26.74-.22a9.68,9.68,0,0,0,1.7,0,3.68,3.68,0,0,0,.81-.05,3.5,3.5,0,0,1,1.61,0,2.48,2.48,0,0,0,1.47-.17,1.05,1.05,0,0,1,.69-.09,3.17,3.17,0,0,0,1.26.09,15.37,15.37,0,0,0,2.25,0,2.26,2.26,0,0,1,.86,0,13.37,13.37,0,0,0,5.31,0,.5.5,0,0,1,.21,0,3.94,3.94,0,0,0,2.1,0,4.33,4.33,0,0,1,1.85-.22.86.86,0,0,0,.58-.08,1.88,1.88,0,0,1,1.28,0,1.05,1.05,0,0,0,.9-.05.66.66,0,0,1,.64,0c.39.21.79.08,1.17.24a.93.93,0,0,0,.81-.06,4.41,4.41,0,0,1,1.84-.36.37.37,0,0,1,.37.11.8.8,0,0,0,.77.24c.44,0,.87-.06,1.3-.06a5.19,5.19,0,0,0,2.28-.54,1,1,0,0,1,1.06,0,3.24,3.24,0,0,0,1.41.31c.39.06.73-.17,1.11-.17.93,0,1.85.19,2.77.22,1.13,0,2.25.42,3.37.13.13,0,.25.06.37.11a1.23,1.23,0,0,0,1.09,0,2.17,2.17,0,0,1,2.11-.21,3.1,3.1,0,0,0,1.54.08,4.73,4.73,0,0,1,1.68,0,31.69,31.69,0,0,0,3.75.35,13.08,13.08,0,0,0,1.77,0,2.84,2.84,0,0,1,1,.06A.68.68,0,0,0,150,39c.1-.09.21-.05.3-.08.43-.12.85.11,1.28,0a2.18,2.18,0,0,1,2.5.38c.06.06.13.07.2.13.77.7,1.6.37,2.42.39.27,0,.42-.27.63-.43a.47.47,0,0,1,.31-.11.44.44,0,0,0,.38-.28,6.07,6.07,0,0,0,.93-2.11c.06-.34.24-.18.33-.38s0-.26,0-.41c0-.83-.07-1.68,0-2.52.07-1,.1-2,.15-3a16.33,16.33,0,0,0,0-2.32,3,3,0,0,1,0-.52,17,17,0,0,0,.15-2.76,27.21,27.21,0,0,1,.11-3.73,46.74,46.74,0,0,0,.21-4.88c0-.54,0-1.06,0-1.58q.18-2.89.15-5.81a12.8,12.8,0,0,0-.25-2.57c-.1-.46-.17-.94-.24-1.43-.16-1.19-.45-1.64-1.17-1.74a1.2,1.2,0,0,0-.81-.85c-.34-.14-.72-.11-1-.6a.16.16,0,0,0-.15-.08c-.29.17-.53,0-.74-.31-.11-.13-.25-.09-.37-.1a3.69,3.69,0,0,1-.58-.09,4.79,4.79,0,0,0-1.45-.2,8.23,8.23,0,0,1-2.57-.16,3.67,3.67,0,0,0-2.24.24,8.88,8.88,0,0,1-2.41.64,8.48,8.48,0,0,1-3.33,0c-.21,0-.41-.21-.63-.16-.89.24-1.79-.3-2.68.07-.07,0-.14,0-.21,0a4.66,4.66,0,0,0-1.61-.24c-.92.06-1.84,0-2.76.09a17.21,17.21,0,0,1-2.38.07,9.75,9.75,0,0,1-2.41.11.36.36,0,0,0-.27,0,3.3,3.3,0,0,1-1.24.17c-.66,0-1.33,0-2,.07A6.08,6.08,0,0,1,125.2,2c-.37,0-.71.27-1.07.18a5.06,5.06,0,0,0-3.22.61c-.21.1-.47.4-.69,0M75,36.74c0,.25-.15.34-.23.55-.27-.19-.59-.1-.86-.51.27-.61.61-.62,1.09,0m9.26-.14a1.56,1.56,0,0,1,0-1.38c.54.4.55.74,0,1.38m-78-1.19c.3-.69.63,0,.93-.22a.85.85,0,0,1,0,.7c-.34,0-.57-.54-.93-.48m40.13-.83a1.11,1.11,0,0,0,.39.56,2,2,0,0,1,.75,1.2,1.41,1.41,0,0,0,.81,1.13,1.17,1.17,0,0,1,.5.66A3.65,3.65,0,0,1,47.61,38a7.25,7.25,0,0,0-1.21-.26c-.57-.12-.7-.35-.69-1.32a.78.78,0,0,0-.09-.39,9.25,9.25,0,0,1-.3-1.55M64.9,38.57c-.59-.46-1.18-.16-1.76-.22a7,7,0,0,1-1-.06,1.43,1.43,0,0,0-1.24.25c-.2-.37-.45-.5-.73-.44-.5.1-1-.09-1.5.21-.65-.26-1.32,0-2-.14a3.1,3.1,0,0,1,0-1.45c.16-.31.35.12.47-.2l.18.26c.53.78,1.12,1.32,1.85,1l1.08-.48c.4-.19.84-.54,1.22.2.12.23.34.16.51,0a3.67,3.67,0,0,1,1-.29.64.64,0,0,1,.81.22c.14.18.41.13.62.1.44,0,.81.27,1.26.41-.15.8-.58.74-.76.59M72.23,38c0-.26,0-.42.14-.39a1.7,1.7,0,0,1,1,1.06A2.39,2.39,0,0,0,72.23,38"/></g></g></svg>