<svg xmlns="http://www.w3.org/2000/svg" viewBox="0 0 19.38 19.45"><defs><style>.cls-1{fill:#fff;}</style></defs><title>icon-insta</title><g id="Layer_2" data-name="Layer 2"><g id="Layer_1-2" data-name="Layer 1"><path class="cls-1" d="M9.7,11.8A2.1,2.1,0,1,0,7.54,9.7,2.13,2.13,0,0,0,9.7,11.8"/><path class="cls-1" d="M12.15,7.67h1.22a.48.48,0,0,0,.48-.49V6a.48.48,0,0,0-.48-.48H12.15a.48.48,0,0,0-.48.48V7.18a.48.48,0,0,0,.48.49"/><path class="cls-1" d="M12.91,8.9a3.1,3.1,0,0,1,.14.92A3.3,3.3,0,0,1,9.7,13.06,3.3,3.3,0,0,1,6.35,9.82a3.1,3.1,0,0,1,.14-.92h-1v4.54a.43.43,0,0,0,.43.43h7.5a.43.43,0,0,0,.43-.43V8.9Z"/><path class="cls-1" d="M15.08,13.73a1.35,1.35,0,0,1-1.39,1.38h-8a1.35,1.35,0,0,1-1.38-1.38v-8A1.35,1.35,0,0,1,5.69,4.34h8a1.35,1.35,0,0,1,1.39,1.38ZM19.35,9.5s0,.08-.05.09,0-.09,0-.14,0,0,0,0,0-.13,0-.19a.82.82,0,0,0,0-.27s0,0,0,0,.05.05.08,0a1,1,0,0,1,0-.2c0,.06,0,.11,0,.14s0,0,0-.07a.25.25,0,0,0,0-.12s0-.05,0-.07.07,0,.1,0a1,1,0,0,1,0-.25.31.31,0,0,0,0-.19.22.22,0,0,1,0-.16,0,0,0,0,0,0,0c0-.07,0-.15,0-.23a1.37,1.37,0,0,1-.08-.35.44.44,0,0,0-.08-.25s0,0,0-.09a.56.56,0,0,0,0-.22c-.05-.1-.05-.22-.14-.3s0,0,0,0,0-.16-.07-.21a.13.13,0,0,0,0-.12s0-.12-.08-.15V6c0-.06,0-.14-.07-.19a.65.65,0,0,1-.11-.22s0,0,0,0a.31.31,0,0,1-.1-.16c-.05-.14-.11-.26-.16-.4l0-.06a.1.1,0,0,1,0,0,.35.35,0,0,0-.08-.13l0,0c0-.09-.09-.14-.15-.2a.16.16,0,0,1-.06-.12c0-.09,0-.14-.1-.18h0a.27.27,0,0,0-.15-.21s-.05,0-.05,0-.07-.09-.1-.13,0,0,0,0,0-.07-.07-.1a.12.12,0,0,1-.08-.11.15.15,0,0,0-.06-.09l-.15-.16c-.12-.12-.22-.25-.34-.36a.05.05,0,0,1,0,0s0,0-.05-.08a.4.4,0,0,0-.15-.1s0-.07-.05-.09,0,0-.09,0-.06,0-.09,0a.08.08,0,0,1,0,0c0-.08,0-.13-.07-.19s-.09-.08-.13-.13,0,0-.09,0a.2.2,0,0,1-.16-.12.31.31,0,0,0-.13-.1c-.11-.07-.25-.09-.33-.22h0a1.76,1.76,0,0,0-.23-.14c-.05,0-.08-.08-.13-.11l-.44-.26a.78.78,0,0,0-.21-.09l-.11,0A.58.58,0,0,0,14,1a.08.08,0,0,1-.07,0,.6.6,0,0,0-.16-.08l-.1-.05A1,1,0,0,0,13.5.74L13.29.68A3.38,3.38,0,0,1,12.85.5a1.85,1.85,0,0,0-.4-.12l-.17,0L11.86.28a1.61,1.61,0,0,1-.37-.07h-.05a.64.64,0,0,1-.28,0,1.18,1.18,0,0,0-.37-.09c-.1,0-.2,0-.3,0l-.1,0c-.11,0-.21,0-.32,0L9.93,0H9.55a.32.32,0,0,0-.25,0H9.23a.37.37,0,0,0-.18,0,.25.25,0,0,1-.12,0,.2.2,0,0,0-.13,0,.54.54,0,0,1-.21,0c-.06,0-.11,0-.16,0A.93.93,0,0,0,8.2.2H7.91a.58.58,0,0,0-.19,0c-.06,0-.13,0-.19.05s-.21.08-.32,0l-.1,0a.72.72,0,0,0-.2.09l-.16,0a1.06,1.06,0,0,0-.12.1L6.54.62a2.11,2.11,0,0,1-.36.09A1.4,1.4,0,0,0,5.89.8s0,0-.08,0A1.35,1.35,0,0,0,5.48,1l-.15.08,0,0a.08.08,0,0,1-.08.05l-.09,0-.29.16a.68.68,0,0,0-.29.22.31.31,0,0,1-.14.11s-.06,0-.09.05-.14.15-.25.17L4,2c0,.06-.09.08-.14.11l-.15.1a2.79,2.79,0,0,0-.38.39c-.11.12-.5.3-.48.36a0,0,0,0,1,0,.07s-.06,0-.08,0l-.13.14s-.09.08-.13.13l-.19.3a2.09,2.09,0,0,1-.2.22l-.23.28-.2.27c-.11.14-.18.3-.28.45a2.12,2.12,0,0,0-.12.2A1.82,1.82,0,0,1,1,5.46a.55.55,0,0,0-.12.21,2.6,2.6,0,0,1-.16.47,3.47,3.47,0,0,0-.16.41s0,.07,0,.1a2.77,2.77,0,0,0-.15.49c0,.16-.09.34-.15.5a1.29,1.29,0,0,0,0,.19,1.42,1.42,0,0,1-.05.22,1.33,1.33,0,0,0,0,.19,2.74,2.74,0,0,1,0,.28A1.14,1.14,0,0,0,.06,9a1.22,1.22,0,0,1,0,.27s0,0,0,0,0,0,0,0,.06,0,.05.06,0,0,0,0a.79.79,0,0,0,0,.4s0,.06,0,.09A.34.34,0,0,0,0,10c0,.05,0,.1,0,.14s0,.23.06.34,0,.06,0,.08a.11.11,0,0,0,0,.14c-.07.13,0,.26,0,.39a.34.34,0,0,1,.05.19,1.21,1.21,0,0,0,0,.18,1.4,1.4,0,0,0,.06.28.41.41,0,0,1,0,.19.28.28,0,0,0,0,.18.84.84,0,0,1,0,.17c0,.14.11.26.14.39l0,0c.1.09.11.23.18.34v0a.17.17,0,0,0,0,.14s.07.07,0,.12a.08.08,0,0,0,0,.05c.08.07,0,.18.13.25s0,.06,0,.08,0,0,0,0,0,.08.05.12,0,0,0,.05a.51.51,0,0,0,.13.29c.06.07,0,.18.12.23h0a.25.25,0,0,0,0,.12.35.35,0,0,0,.12.19.93.93,0,0,1,.13.15c0,.05.06.09.06.15s0,0,0,0,.08.09.09.15,0,.07.05.08,0,0,0,0a.37.37,0,0,0,.13.2,1.5,1.5,0,0,0,.13.11.22.22,0,0,1,.1.09.27.27,0,0,0,.08.07.4.4,0,0,1,.16.18c0,.06.09.1.1.17a0,0,0,0,0,0,0,.45.45,0,0,1,.18.25l0,0a.33.33,0,0,1,.15.14c.08,0,.13.11.22.12s0,.09,0,.1a.16.16,0,0,1,.15.11l.1.11a1.12,1.12,0,0,0,.28.16.25.25,0,0,1,.12.13s0,.05.05.07l.12,0s.07,0,.12,0,0,0,0,.06h0c.08.05.18.08.22.18a0,0,0,0,0,0,0,.16.16,0,0,1,.1,0,1,1,0,0,0,.21.09.07.07,0,0,1,.07.06.1.1,0,0,0,0,.05h0s.1,0,.11.08a.14.14,0,0,0,.15,0s0,0,.08,0,0,.05,0,.08l.15,0c0,.05,0,0-.06.07a.91.91,0,0,1,.26.13.06.06,0,0,0,.07,0,.12.12,0,0,1,.11.09s0,.05,0,.07.13.07.2.1a.12.12,0,0,1,.1,0,.6.6,0,0,0,.23.06.12.12,0,0,1,.1.07.08.08,0,0,0,.08,0,.2.2,0,0,1,.15.05s0,0,.06,0a3.17,3.17,0,0,1,.37.15l.2.09a.29.29,0,0,0,.27,0s0,0,.06,0,0,0,0,0,.11.09.2,0l0,0c.07,0,.15,0,.22.06s0,0,0,0,.08,0,.13,0h.51a.25.25,0,0,1,.15.05c.06,0,.12,0,.18,0s.2,0,.3,0h0a.44.44,0,0,1,.2,0,.2.2,0,0,0,.15,0h.08a1,1,0,0,0,.25,0,.67.67,0,0,0,.12-.06.82.82,0,0,0,.38,0c.07,0,.14-.07.21,0s0,0,0,0a1.11,1.11,0,0,0,.29-.1.47.47,0,0,1,.2-.06h.1a2.49,2.49,0,0,1,.37-.09c.05,0,.11,0,.16,0s.11,0,.16,0a.14.14,0,0,0,.09,0,.16.16,0,0,1,.09,0,.12.12,0,0,0,.14,0c.06,0,.12,0,.17,0a.78.78,0,0,1,.3-.07.29.29,0,0,1,.17-.14l.21-.08a.48.48,0,0,1,.23-.1.05.05,0,0,0,0,0c0-.07.11-.05.14-.12s.14-.1.24-.08,0,0,.05,0a.07.07,0,0,1,.08,0,.18.18,0,0,0,.14,0,.07.07,0,0,1,.06,0c.07,0,.1-.05.15-.09s0,0,0,0,.2-.14.32-.17,0,0,0,0a.16.16,0,0,1,.08-.06A.83.83,0,0,0,15,17.7c.06-.05.11-.12.19-.14s.07,0,.12-.06,0-.05,0-.06a2.39,2.39,0,0,0,.26-.21.34.34,0,0,0,.16-.13c.05-.08.14-.08.17-.16s.12-.11.19-.16.1-.12.17-.15a.87.87,0,0,0,.14-.12s.09-.06.12-.09a1,1,0,0,1,.19-.16.59.59,0,0,0,.17-.18.24.24,0,0,1,.11-.15s0,0,0,0,0,0,0,0,.19-.24.32-.32a.07.07,0,0,0,0-.08.54.54,0,0,1,0-.1s.06,0,.07,0,.07-.08.1-.12.07,0,.12,0,0-.07,0-.11.09-.2.17-.28,0,0,0,0a.19.19,0,0,1,.09-.15.28.28,0,0,0,.1-.27h0c.06-.07.09-.14.15-.21a.19.19,0,0,0,.08-.16,0,0,0,0,1,0,0c.08-.15.13-.31.21-.45A3.71,3.71,0,0,0,18.8,13l0-.06a.54.54,0,0,0,.11-.32,1.64,1.64,0,0,1,0-.22v0a.43.43,0,0,1,.08-.27.57.57,0,0,0,.07-.29.77.77,0,0,1,0-.15.06.06,0,0,1,0-.07.21.21,0,0,0,0-.11c0-.05,0-.09,0-.14a1,1,0,0,0,0-.18c0-.06,0-.14.05-.19h0c0-.07,0-.14,0-.2s0,0,0,0,0,0,0-.07a.72.72,0,0,0,0-.33c.08,0,.09,0,.05-.13a.24.24,0,0,1,0-.2s0,0,0,0a1.48,1.48,0,0,0,0-.21.11.11,0,0,1,0-.1c.05.07,0,.16.05.23a2.44,2.44,0,0,0,0-.26c0-.05,0-.1,0-.16"/></g></g></svg>