<svg xmlns="http://www.w3.org/2000/svg" viewBox="0 0 236.66 237.5"><defs><style>.cls-1{fill:#00a886;}</style></defs><title>link-menu</title><g id="Layer_2" data-name="Layer 2"><g id="Layer_1-2" data-name="Layer 1"><path class="cls-1" d="M134.36,95.8a.25.25,0,0,1-.05-.2s-.05,0-.06,0a.69.69,0,0,0,0,.25c.07.19,0,.34-.09.52l0,.09c.1,0,.16,0,.17-.11s0-.22,0-.33A.42.42,0,0,0,134.36,95.8Z"/><path class="cls-1" d="M136.15,116.39c-.08,0-.06.12-.07.19s0,0,0,0,.1-.08.07-.18a.51.51,0,0,1-.06-.27s0,0,0,0-.1,0-.16.09a.2.2,0,0,0,.09.11S136.14,116.31,136.15,116.39Z"/><path class="cls-1" d="M136.37,106.32h0c-.13,0-.14.06-.11.19s.12.17.18.26.1,0,.15,0,0-.16,0-.23S136.43,106.39,136.37,106.32Z"/><path class="cls-1" d="M136.59,104.86s0-.12-.11-.13a.44.44,0,0,0,0,.23.46.46,0,0,1,0,.26.09.09,0,0,0,.14,0A.4.4,0,0,1,136.59,104.86Z"/><path class="cls-1" d="M134.67,98.9c-.1,0,0-.17-.14-.2s0,.17,0,.25,0,.17-.12.22,0,0,0,0,0,.22,0,.33a.06.06,0,0,0,0,0,.58.58,0,0,0,.27.24,1.9,1.9,0,0,1,0-.34.51.51,0,0,0,0-.22A.4.4,0,0,1,134.67,98.9Z"/><path class="cls-1" d="M133.4,98.06a.21.21,0,0,0-.11,0c-.06,0-.06.11,0,.18s.08.06.14,0,.09-.05.09-.09,0,0,0-.08A.09.09,0,0,0,133.4,98.06Z"/><path class="cls-1" d="M133.55,95.86a.08.08,0,0,0,.08.07s.06,0,.06-.08,0-.08,0-.14-.08-.08-.15-.08A.3.3,0,0,0,133.55,95.86Z"/><path class="cls-1" d="M134.36,94.91a.08.08,0,0,1,0-.09.33.33,0,0,0,0-.24c-.1,0-.11.06-.11.13a.9.9,0,0,0,.09.32A.14.14,0,0,0,134.36,94.91Z"/><path class="cls-1" d="M128.69,122.06c0-.12,0-.21,0-.29a.07.07,0,0,0,0-.09C128.56,121.83,128.54,122,128.69,122.06Z"/><path class="cls-1" d="M128.29,129.6l.13.16c.1,0,.18,0,.16-.18C128.49,129.62,128.39,129.47,128.29,129.6Z"/><path class="cls-1" d="M128.62,131c.12,0,.24,0,.34,0s0-.16-.08-.25A1,1,0,0,0,128.62,131Z"/><path class="cls-1" d="M131.66,97.36c-.11,0-.1.08-.11.15l-.13.06s0,0,0,0-.06,0-.09,0a.06.06,0,0,0,0,.09c.09,0,.1.12.13.2s.21-.1.32-.12.14.16.14.28.08-.1.1-.16,0-.27-.12-.29A.46.46,0,0,1,131.66,97.36Z"/><path class="cls-1" d="M128.06,128.72l.17-.1s.07.06.12,0a.17.17,0,0,0,0-.14c-.1.07-.18,0-.26,0S128.08,128.65,128.06,128.72Z"/><path class="cls-1" d="M135.64,119.19c0-.13-.09-.2-.09-.31s-.09,0-.07.06a1.33,1.33,0,0,1,.05.19S135.56,119.22,135.64,119.19Z"/><path class="cls-1" d="M129.67,109a.88.88,0,0,1-.12-.21.29.29,0,0,0-.08-.14.6.6,0,0,0,.18.41S129.69,109,129.67,109Z"/><path class="cls-1" d="M128.28,128.9c-.09,0-.09.08-.1.15a.15.15,0,0,1-.13-.05.2.2,0,0,1,0-.15.12.12,0,0,0,0-.13c0,.14-.18.18-.24.3l0,0c.2.15.21.2.45,0C128.37,129,128.36,129,128.28,128.9Z"/><path class="cls-1" d="M129,131.49a.57.57,0,0,1,.27.21.9.9,0,0,1,0,.16.35.35,0,0,1-.2.27.1.1,0,0,0-.08.09c.07,0,.14,0,.21,0a.25.25,0,0,0,.3-.27.26.26,0,0,1,0-.14c-.1-.15-.25-.24-.27-.43a.22.22,0,0,0-.16-.16.11.11,0,0,0-.11,0A.14.14,0,0,0,129,131.49Z"/><path class="cls-1" d="M140.64,115.68a.4.4,0,0,1,.05-.22.14.14,0,0,0-.06-.18c-.06,0-.08,0-.17,0a1,1,0,0,1,.06.41C140.58,115.75,140.65,115.73,140.64,115.68Z"/><path class="cls-1" d="M140.65,119s.07,0,.1-.09a.33.33,0,0,1-.27-.1c-.08,0-.13.07-.21.13A2,2,0,0,1,140.65,119Z"/><path class="cls-1" d="M140.11,118.91c.06,0,.11,0,.11-.07a.09.09,0,0,1,.06-.09c.06,0,.05-.09,0-.15a1,1,0,0,1-.13-.41s0,0-.05,0a.09.09,0,0,0-.09.06c0,.09.11.18,0,.27A.39.39,0,0,1,140.11,118.91Z"/><path class="cls-1" d="M137.32,97.44a2.09,2.09,0,0,1,.28-.24.11.11,0,0,0,0-.16.22.22,0,0,0-.08,0,.26.26,0,0,1-.29-.18.52.52,0,0,0-.14-.19c-.1,0-.16.09-.16.14a1.34,1.34,0,0,0,.14.58C137.18,97.39,137.24,97.44,137.32,97.44Z"/><path class="cls-1" d="M139.31,117c.08,0,.2-.08.27,0,.24-.07.15-.25.15-.41C139.52,116.67,139.35,116.75,139.31,117Z"/><path class="cls-1" d="M139.62,120.93s.07,0,.07.08.08.14.05.23,0,.06,0,.09a.1.1,0,0,1,0,.07c0,.12.07.24.07.36a1.52,1.52,0,0,0,.06.2c0,.12.1.13.2.06a.16.16,0,0,0,.06-.21s-.08,0-.13,0,0-.14,0-.22a.34.34,0,0,0-.1-.28,0,0,0,0,1,0,0,.43.43,0,0,0-.2-.35Z"/><path class="cls-1" d="M139.77,127.28a.44.44,0,0,0-.31.13C139.65,127.45,139.73,127.42,139.77,127.28Z"/><path class="cls-1" d="M139.21,125.13c-.11-.13-.11-.17,0-.28l.05-.06a.08.08,0,0,0,0-.08.07.07,0,0,0-.06,0,.36.36,0,0,0-.16.11s0,.07-.08.08a.25.25,0,0,0-.18.22h0s0,0,.05-.05.13-.09.21,0l.09.1a.43.43,0,0,1-.08.18c-.07,0-.11-.06-.17,0a.24.24,0,0,0,.39.12c.09-.32.09-.39,0-.49C139.3,125,139.3,125.1,139.21,125.13Z"/><path class="cls-1" d="M140.31,126.59s0,0,0,0-.09.34-.18.49v0a.91.91,0,0,0,.35-.12c0-.15-.11-.26-.11-.4S140.31,126.6,140.31,126.59Z"/><path class="cls-1" d="M127.89,109c-.09-.08,0-.24-.17-.32a.32.32,0,0,0,0,.16c0,.09.09.18.13.28A.23.23,0,0,0,127.89,109Z"/><path class="cls-1" d="M139.65,107.33a.3.3,0,0,0,0-.26.14.14,0,0,0-.11,0c0,.12-.09.23,0,.35Z"/><path class="cls-1" d="M138.25,123c.05,0,.09,0,.15,0a.12.12,0,0,0,.11.09c0,.08-.09,0-.11.08a.49.49,0,0,0,0,.12c.12.07.11.07.18,0l.05-.07a.11.11,0,0,0,0-.11,1.17,1.17,0,0,1,0-.32l0,0s-.07,0-.05.06a.06.06,0,0,1,0,.08s-.07,0-.08,0-.08,0-.1-.06,0-.11-.07-.12a.11.11,0,0,0-.12.06s.11.07.08.14S138.24,123,138.25,123Z"/><path class="cls-1" d="M137.89,118.34c0,.11.09.17.12.27.14-.1.07-.23.09-.34l-.11-.06c0-.13.09-.21,0-.33l0,0c-.12-.06-.2,0-.25.1s0,.12,0,.17A.57.57,0,0,1,137.89,118.34Z"/><path class="cls-1" d="M138.58,112.1s-.08,0-.12,0-.06-.14-.15-.11-.14.09-.09.22C138.34,112.18,138.47,112.2,138.58,112.1Z"/><path class="cls-1" d="M141.11,127.35l.06-.26c0-.06,0-.09-.06-.1a.34.34,0,0,1-.19.18l0,0c-.06.06,0,.12,0,.17A.17.17,0,0,0,141.11,127.35Z"/><path class="cls-1" d="M139.34,111.29a.46.46,0,0,1,.09.17.51.51,0,0,0,.16-.09.41.41,0,0,1,0-.19.12.12,0,0,0-.07-.16.67.67,0,0,0-.12.06A.13.13,0,0,0,139.34,111.29Z"/><path class="cls-1" d="M139.34,107.63c0-.08-.1-.1-.14-.16s-.09.12,0,.18S139.25,107.71,139.34,107.63Z"/><path class="cls-1" d="M138.8,114.52c0,.1.08.14.09.21s-.08.09-.11.14a.87.87,0,0,0,.33-.17c-.06-.1-.07-.23-.17-.31S138.83,114.48,138.8,114.52Z"/><path class="cls-1" d="M138.36,104.25s0,.09,0,.14a.71.71,0,0,1,.07.32c0,.13,0,.23.15.29a.43.43,0,0,1,.17.13.09.09,0,0,0,.09,0,.12.12,0,0,0,0-.15c0-.1-.1-.17-.11-.27a.64.64,0,0,0-.14-.35s0-.11-.08-.15a.87.87,0,0,1-.21-.22s0-.06-.08,0,0,.08.12.17S138.38,104.22,138.36,104.25Z"/><path class="cls-1" d="M137.43,108.54s.1,0,.12.06-.09.07-.1.15c.18,0,.24,0,.19-.26C137.52,108.45,137.5,108.45,137.43,108.54Z"/><path class="cls-1" d="M109.28,137.48a.1.1,0,0,0,.07-.11.36.36,0,0,0-.17-.23A.6.6,0,0,0,109.28,137.48Z"/><path class="cls-1" d="M109,130.43c0,.11,0,.13.18.13a.13.13,0,0,0,0-.06,3.38,3.38,0,0,0-.08-.34.34.34,0,0,0-.23-.26.09.09,0,0,0,0,.08c0,.11.07.21.1.32A.5.5,0,0,1,109,130.43Z"/><path class="cls-1" d="M127.46,114.91a1,1,0,0,0,.13.28A.23.23,0,0,0,127.46,114.91Z"/><path class="cls-1" d="M107.27,131.28a.11.11,0,0,0,.15,0s.09-.07.07-.15-.07-.26-.11-.39a.42.42,0,0,1,0-.29c-.1,0-.16,0-.2.08a.36.36,0,0,0,0,.25c0,.14,0,.28.07.43Z"/><path class="cls-1" d="M107.56,130.48a.47.47,0,0,1,.21.29c0,.1,0,.2.06.29s0,.13,0,.18.12,0,.17,0h0a1.21,1.21,0,0,1,.31-.29s0,0,0,0a.37.37,0,0,0,.19-.11.57.57,0,0,1,.22-.11c.14,0,.14,0,.15-.19l-.09-.05a.12.12,0,0,0-.14,0,.28.28,0,0,1-.28,0,.15.15,0,0,0-.18,0,.13.13,0,0,0,0,.16.31.31,0,0,1,0,.23.27.27,0,0,1,0,.12c-.05,0-.1,0-.12-.06a1.61,1.61,0,0,1-.09-.29c0-.07,0-.12-.1-.14a.31.31,0,0,1-.16-.14.38.38,0,0,0-.09-.12.2.2,0,0,0-.24.1C107.45,130.43,107.52,130.45,107.56,130.48Z"/><path class="cls-1" d="M110.24,138.32h.08c.14,0,.24-.07.19-.24a.11.11,0,0,1,0-.08.94.94,0,0,0,0-.37l-.08,0,0,0a.27.27,0,0,0-.11.2c-.11.06-.11.16-.12.25l0,.1A1.17,1.17,0,0,1,110.24,138.32Z"/><path class="cls-1" d="M113.39,137.69a1.06,1.06,0,0,1,.23.19l.16.17.07,0a.2.2,0,0,0,.11-.31,1.32,1.32,0,0,0-.25-.28c-.1-.08-.23-.13-.29-.26s0,0,0,0-.12.1-.17.16v.06a.23.23,0,0,0,.1.26Z"/><path class="cls-1" d="M112.16,138.14c0,.08.13.12.18.2a.37.37,0,0,0,.15.13,1.71,1.71,0,0,1,.27.2.42.42,0,0,0,.22.08.49.49,0,0,0,0-.24,1.36,1.36,0,0,0-.11-.28,1.6,1.6,0,0,0-.23-.38l-.13-.14a.49.49,0,0,0-.4-.23.25.25,0,0,0-.13.25,1.7,1.7,0,0,0,0,.22A.5.5,0,0,0,112.16,138.14Z"/><path class="cls-1" d="M110.82,140.52a.74.74,0,0,0,.31-.12c0-.07.05-.13,0-.19a1.27,1.27,0,0,0-.21-.25s-.12,0-.14,0a1.73,1.73,0,0,0-.16.3c0,.08.05.13.07.2A.12.12,0,0,0,110.82,140.52Z"/><path class="cls-1" d="M107.2,105.49c0-.06,0-.15-.08-.19a.37.37,0,0,0-.28-.1.34.34,0,0,0-.25.2.17.17,0,0,0,.11.26A.47.47,0,0,0,107.2,105.49Zm-.41-.19a.75.75,0,0,0,.07.12s0,.09-.09.1a.25.25,0,0,1-.08-.17S106.74,105.3,106.79,105.3Z"/><path class="cls-1" d="M104.31,124.52a.6.6,0,0,0,0,.19,0,0,0,0,1,0,0,.09.09,0,0,0,.06,0,.57.57,0,0,0,0-.13,1.55,1.55,0,0,1,0-.31,1,1,0,0,1,.06-.35s0-.11.08-.17a.41.41,0,0,0,.06-.23.17.17,0,0,0-.09-.18c-.06,0-.12,0-.14,0v.08a.85.85,0,0,1,0,.23.22.22,0,0,0,0,.21s0,.08,0,.1a.12.12,0,0,0,0,.15c0,.06,0,.11,0,.17A.34.34,0,0,1,104.31,124.52Z"/><path class="cls-1" d="M104.14,125.65s0,.06,0,.09.08,0,.11,0,.1-.07.12-.14a2.77,2.77,0,0,0,.05-.65c-.07,0-.12,0-.13.09a1.68,1.68,0,0,0-.09.32A1.45,1.45,0,0,1,104.14,125.65Z"/><path class="cls-1" d="M106.23,105.84a.33.33,0,0,0,.21-.07.24.24,0,0,0,0-.15.15.15,0,0,0-.16-.07.09.09,0,0,0-.06.13S106.18,105.79,106.23,105.84Z"/><path class="cls-1" d="M107,128.37a.23.23,0,0,0-.27.11l.2,0A.13.13,0,0,0,107,128.37Z"/><path class="cls-1" d="M105,106.21s0,.08.08.08a.13.13,0,0,0,.11-.09.13.13,0,0,1,.07-.11.74.74,0,0,0,.32-.34c0-.25-.18-.34-.34-.45l0,0c-.09,0-.2.05-.21.18s0,.06-.05.08a.34.34,0,0,0-.09.15c-.05.1,0,.19,0,.31A.27.27,0,0,1,105,106.21Z"/><path class="cls-1" d="M109.57,104.42c0-.06,0-.11,0-.15s-.09-.07-.15,0a.18.18,0,0,0-.08.15.61.61,0,0,0,0,.18C109.49,104.6,109.53,104.53,109.57,104.42Z"/><path class="cls-1" d="M108.81,105a.35.35,0,0,0-.23.1c0,.06,0,.1,0,.14S108.75,105.18,108.81,105Z"/><path class="cls-1" d="M114.48,137.62a.34.34,0,0,0,.09-.08s0-.08,0-.08-.11,0-.15,0,0,.08,0,.13A.09.09,0,0,0,114.48,137.62Z"/><path class="cls-1" d="M110,140c-.07-.14-.17-.16-.3-.07C109.79,140,109.88,140,110,140Z"/><path class="cls-1" d="M126.73,123.13a.21.21,0,0,1,0-.15.44.44,0,0,0-.19.12.09.09,0,0,0,0,.11.12.12,0,0,1,0,.18c-.09.1-.06.26-.19.34,0,0,0,0,.06,0A1.1,1.1,0,0,0,126.73,123.13Z"/><path class="cls-1" d="M124.88,100.88l.17.1a.25.25,0,0,0,.22,0,.71.71,0,0,1-.24-.39.11.11,0,0,0-.16,0,.3.3,0,0,0,0,.26Z"/><path class="cls-1" d="M126,100.79l0-.08a.07.07,0,0,0,0-.07c-.18.06-.18.06-.17.23A.2.2,0,0,0,126,100.79Z"/><path class="cls-1" d="M123.42,106a.74.74,0,0,0,.12.37A.34.34,0,0,0,123.42,106Z"/><path class="cls-1" d="M123.87,102.58a.91.91,0,0,0,0,.17c0,.11.05.22,0,.32a.35.35,0,0,1,.05.26s0,.1.07.1a.34.34,0,0,0,.09-.12.28.28,0,0,1,0-.15,3,3,0,0,0-.06-.52,1.55,1.55,0,0,0,0-.23,1,1,0,0,1,0-.42.86.86,0,0,0,0-.16h0s0,0,0,0a.61.61,0,0,0,0,.42A.63.63,0,0,1,123.87,102.58Z"/><path class="cls-1" d="M126.47,122.25c-.09.09-.07.18,0,.24S126.48,122.35,126.47,122.25Z"/><path class="cls-1" d="M127,126.12s0,.07,0,.08.18-.12.1-.34c-.1,0-.14.11-.26.13.06.12,0,.2,0,.3S126.92,126.12,127,126.12Z"/><path class="cls-1" d="M126.66,102c-.06,0-.13.06-.13.16S126.65,102.12,126.66,102Z"/><path class="cls-1" d="M114.69,137.36a.2.2,0,0,0,.13,0,.78.78,0,0,1,0-.22c0-.07.06-.14,0-.22a.15.15,0,0,0-.2.11s0,.1-.08.12,0,0,.06,0S114.68,137.28,114.69,137.36Z"/><path class="cls-1" d="M116.28,138.59s0,0,0,.06,0,.24,0,.37a2.07,2.07,0,0,0,.09-.38.62.62,0,0,1,.11-.4.08.08,0,0,0,0-.08c0-.11,0-.23-.06-.34s-.14,0-.17.1a1.63,1.63,0,0,1-.07.3A.38.38,0,0,1,116.28,138.59Z"/><path class="cls-1" d="M118.72,136.39c0-.16,0-.16-.13-.2s0,.13,0,.19A.07.07,0,0,0,118.72,136.39Z"/><path class="cls-1" d="M117.9,138.26a.27.27,0,0,1,0,.09.09.09,0,0,0,.07.11.4.4,0,0,0,.11-.18c0-.05,0-.08-.06-.13a.69.69,0,0,1-.08-.35.51.51,0,0,0,0-.27c-.16.05-.19.11-.11.25A.57.57,0,0,1,117.9,138.26Z"/><path class="cls-1" d="M115.7,139a.53.53,0,0,1,.22.08s.09,0,.14,0a3.71,3.71,0,0,1-.28-.41.1.1,0,0,0-.14-.05.37.37,0,0,0,0,.29S115.66,139,115.7,139Z"/><path class="cls-1" d="M121.7,101.36a.93.93,0,0,0,0-.24c0-.08,0-.11-.1-.12s0,.11,0,.17a.31.31,0,0,1,0,.19.38.38,0,0,0,0,.42c.06,0,.09,0,.08-.09s0-.08,0-.12A.31.31,0,0,1,121.7,101.36Z"/><path class="cls-1" d="M104.33,106.79a.14.14,0,0,0,.11,0l.17-.07c.1,0,.17-.19.11-.25a1.06,1.06,0,0,1-.11-.21.1.1,0,0,0-.14-.07c-.09.06-.18,0-.27.06s-.1,0-.14,0a.49.49,0,0,0,.07.31A.86.86,0,0,0,104.33,106.79Z"/><path class="cls-1" d="M120.22,136a.14.14,0,0,0,.12-.14.29.29,0,0,1,0-.13c0-.08-.08-.21-.16-.24s-.11,0-.11,0-.12.27,0,.41A.12.12,0,0,0,120.22,136Z"/><path class="cls-1" d="M121.65,99.67a.2.2,0,0,0,.15,0,.07.07,0,0,1,.08,0c0,.12,0,.12,0,.13a1.51,1.51,0,0,0-.11-.61.1.1,0,0,0-.11,0s0,0,0,.06a.62.62,0,0,0-.09.29A.13.13,0,0,0,121.65,99.67Z"/><path class="cls-1" d="M122.25,113.24a.7.7,0,0,0-.2.08v.16C122.19,113.45,122.19,113.33,122.25,113.24Z"/><path class="cls-1" d="M158.44,87a.77.77,0,0,1-.13-.12.2.2,0,0,0-.09,0c-.11,0-.14-.07-.14-.18s0-.17-.18-.21c-.07.16-.21.14-.35.13s-.08,0-.09.1a.12.12,0,0,1,.08.09.09.09,0,0,0,.12.08c.05,0,.08,0,.12,0a.28.28,0,0,0,0-.2s0-.08.08-.08l.11.11s0,.07,0,.11.05.18.12.25a.28.28,0,0,0,.26.09l0,0Z"/><path class="cls-1" d="M157.39,85.4c-.07-.17-.07-.17,0-.28l.18-.08c-.05-.06-.12,0-.16-.08s-.08.2-.21.2a.09.09,0,0,0-.08.06.21.21,0,0,0,0,.22A1.22,1.22,0,0,0,157.39,85.4Z"/><path class="cls-1" d="M157.27,85.87c-.05,0-.12,0-.19,0s0,.07,0,.11.09,0,.11,0,.17-.07.23-.14,0-.07,0-.1S157.32,85.84,157.27,85.87Z"/><path class="cls-1" d="M157.33,87.21a.14.14,0,0,0,.06.16.17.17,0,0,1,.11.18.34.34,0,0,0,.28,0,.2.2,0,0,0-.12-.17.53.53,0,0,1-.2-.22C157.38,87.1,157.35,87.15,157.33,87.21Z"/><path class="cls-1" d="M157.66,85s.07,0,.07.08-.06.09,0,.13.05,0,.08,0a.48.48,0,0,1,.18.08c0-.07,0-.13.07-.18s0-.1-.07-.11-.08,0-.11,0,0,0,0,0,0-.06,0-.08a2.19,2.19,0,0,1-.31-.44c0,.07,0,.13,0,.16A.29.29,0,0,1,157.66,85Z"/><path class="cls-1" d="M158.77,84.79h0s0-.06,0-.08,0,.11,0,.14a.21.21,0,0,0,.24,0l-.07,0C158.82,84.71,158.83,84.71,158.77,84.79Z"/><path class="cls-1" d="M158,84.54c-.08,0-.14,0-.18-.06s0-.09,0-.13a.2.2,0,0,1,.17,0,.79.79,0,0,1,.11.35.06.06,0,0,0,.07,0c.12-.14.18-.14.24,0s-.07.1-.07.16a.67.67,0,0,0,.12.06.15.15,0,0,0,.18-.08.15.15,0,0,0-.11-.15.09.09,0,0,1-.08,0c0-.1.1-.12.14-.19s-.06-.15-.16-.13a1,1,0,0,1-.06.18c-.07,0-.1-.07-.15-.1s-.14-.1-.06-.24l-.08-.12a.18.18,0,0,0,0,.1s0,.08-.05.1l-.16-.14c0,.05,0,.1,0,.13a.19.19,0,0,1,0-.12s-.07.07-.11,0,0,.1,0,.14h.13v.06c-.08,0-.11.1-.18.12s.14.09.19.17S157.93,84.6,158,84.54Z"/><path class="cls-1" d="M158.57,84.21c0,.08,0,.16.05.24h.12s0,.08.07.1a.24.24,0,0,1,.09,0c-.05,0-.08-.12-.16-.1S158.74,84.29,158.57,84.21Z"/><path class="cls-1" d="M158.82,85.64s-.07.07,0,.12.09.07.16.08S158.84,85.71,158.82,85.64Z"/><path class="cls-1" d="M158.76,84.07h-.21a.08.08,0,0,0,0,.09C158.73,84.12,158.73,84.12,158.76,84.07Z"/><path class="cls-1" d="M156.94,89.61c0-.1,0-.21-.15-.27C156.83,89.45,156.84,89.56,156.94,89.61Z"/><path class="cls-1" d="M157.6,88.24c-.11,0-.13,0-.2-.08a.29.29,0,0,1-.2-.08.2.2,0,0,0-.11,0,.1.1,0,0,0-.1,0c.13.09.29.1.4.2s0,0,.06,0l.43-.06s0,0,0,0a.09.09,0,0,0-.07,0Z"/><path class="cls-1" d="M157.33,91.94c.1-.15,0-.21-.08-.31C157.17,91.72,157.18,91.76,157.33,91.94Z"/><path class="cls-1" d="M158,87.52c0,.08,0,.08,0,.13a1.73,1.73,0,0,1,.16.3.12.12,0,0,1,0,.14c0,.06,0,.08,0,.12s0-.14,0-.2c.19-.13.07-.29.06-.43S158.09,87.47,158,87.52Z"/><path class="cls-1" d="M155.34,85.11a.42.42,0,0,1,.22-.11c.05,0,0-.1,0-.14s0,.08.09.1h0l0,0c-.07-.11-.08-.11-.19-.07l-.15.06a.12.12,0,0,0-.09.1.21.21,0,0,0-.22-.06.22.22,0,0,0-.16.17.4.4,0,0,1,.34,0A.07.07,0,0,0,155.34,85.11Z"/><path class="cls-1" d="M156.78,94.1a2.07,2.07,0,0,0-.2-.69C156.5,93.58,156.65,94.06,156.78,94.1Z"/><path class="cls-1" d="M156.24,87.08l0-.12c0-.14.14-.17.22-.24a.16.16,0,0,0-.2,0,.42.42,0,0,1-.24.07l-.06.09a.36.36,0,0,0,.16.11S156.14,87.14,156.24,87.08Z"/><path class="cls-1" d="M156.66,90.53s.06,0,.09,0a.43.43,0,0,1,0-.05,2.89,2.89,0,0,1-.22-.58s0,0,0,0-.09-.12-.14-.17-.11-.15-.2-.17a.47.47,0,0,1-.2-.17l-.13-.12c-.07-.07-.16-.12-.2-.21a.61.61,0,0,0-.19-.2s-.1-.06-.13-.11a.06.06,0,0,0-.09,0,1.09,1.09,0,0,1,.08.15s0,.07.06.09.12.18.23.24.13.18.19.28a.34.34,0,0,1,.06.21,1,1,0,0,0,0,.17c.09,0,.12.07.15.14s.11,0,.14.06.11.11.17.14a1.09,1.09,0,0,1,.27.25Z"/><path class="cls-1" d="M157.53,85.69c0,.16.12.22.27.14a.62.62,0,0,1,0-.18c-.11,0-.17-.17-.32-.19A.79.79,0,0,0,157.53,85.69Z"/><path class="cls-1" d="M86.07,100.45a9,9,0,0,0-1.14.38c-.46.18-.94.35-1.37.54a6.16,6.16,0,0,1-.71.25,10.4,10.4,0,0,0-1.7.59l-1.48.6a18.08,18.08,0,0,1-2.6.83l-.26.06c-.16.1-.43.15-.64.26s-.11.14.08.14c.91-.31,1.83-.68,2.73-1,.67-.27,1.39-.51,2.07-.77a9.08,9.08,0,0,1,1-.33c.55-.23,1.15-.45,1.71-.65s.95-.34,1.41-.51c.82-.28,1.63-.61,2.46-.86a3.87,3.87,0,0,0,1-.45c-.62.21-1.16.37-1.76.6Z"/><path class="cls-1" d="M62.36,108.8a5,5,0,0,1-.57.14l-1.42.5a1.3,1.3,0,0,0,.47,0c.08,0,.14,0,.14,0s.21.07,1-.2c.57-.2,1.14-.41,1.7-.59s1.07-.38,1.64-.59a5.19,5.19,0,0,0-.71.19,5.82,5.82,0,0,1-1.17.29A4.86,4.86,0,0,0,62.36,108.8Z"/><path class="cls-1" d="M158.7,87.35c.05,0,.12-.07.16-.12s0-.06,0-.1,0-.13-.13-.14,0,0,0-.06.07,0,.08,0a.48.48,0,0,0,.05-.18.07.07,0,0,0-.09-.06l-.1,0a.19.19,0,0,0,0,.07.78.78,0,0,1-.07.3.11.11,0,0,0,0,.14C158.62,87.22,158.64,87.3,158.7,87.35Z"/><path class="cls-1" d="M97.8,96.24c.54-.18,1.09-.36,1.6-.5a9.67,9.67,0,0,0-1.43.39C97.77,96.2,97.72,96.24,97.8,96.24Z"/><path class="cls-1" d="M101.27,94.89c.11-.06.31-.15.3-.17a6.43,6.43,0,0,0-1.51.55C100.45,95.18,100.9,95,101.27,94.89Z"/><path class="cls-1" d="M165.69,116.83a.06.06,0,0,0,0-.07.28.28,0,0,0-.09-.1s-.06,0-.05.08a.13.13,0,0,0,.06.1A0,0,0,0,0,165.69,116.83Z"/><path class="cls-1" d="M.62,114.84a9.45,9.45,0,0,0-.52,5,6.41,6.41,0,0,1,.09,1.09,7.33,7.33,0,0,0-.09,1.72c.11.56.14,1.14.27,1.69.22.89.37,1.78.51,2.68l.32-.12,2.87-1c.69-.23,1.39-.49,2.08-.73,1.43-.5,2.88-1,4.3-1.57.77-.25,1.52-.58,2.3-.83l.22-.08c1-.43,2.13-.78,3.19-1.16s1.93-.7,2.9-1c1.23-.42,2.46-.88,3.7-1.33,1.56-.57,3.14-1.13,4.7-1.71l1.11-.38c.68-.23,1.32-.48,2-.73.82-.3,1.65-.61,2.47-.89l.49-.19c.88-.32,1.77-.62,2.65-1s1.71-.63,2.56-1c1.3-.5,2.62-.95,3.94-1.42l.13,0c.72-.34,1.59-.59,2.38-.9,1-.4,2.09-.79,3.16-1.15l.8-.3c1-.4,2.06-.78,3.11-1.14.51-.17,1-.37,1.57-.56,1.33-.46,2.68-.93,4-1.42,1.06-.4,2.13-.78,3.18-1.19.35-.14.74-.26,1.1-.4,1.49-.55,3-1.06,4.45-1.59.3-.11.62-.21.9-.33,1.12-.44,2.28-.85,3.41-1.27s2.33-.86,3.49-1.27c.77-.27,1.54-.56,2.3-.82.29-.09.51-.2.79-.3.87-.31,1.74-.65,2.62-.94l.37-.14c.85-.34,1.72-.64,2.59-1,.36-.12.75-.26,1.1-.41s.68-.25,1-.38c1-.37,2-.78,3-1.12.21-.06.45-.16.68-.24,1.49-.55,3-1.08,4.48-1.61l.44-.16c.41-.17.81-.31,1.24-.46s.67-.25,1-.38l1.86-.66c1.17-.4,2.34-.83,3.5-1.22.58-.2,1.17-.44,1.75-.66s.85-.33,1.27-.5c.72-.29,1.48-.54,2.22-.8,1.33-.45,2.68-.89,4-1.39s2.6-1,3.85-1.45c.25-.1.48-.16.73-.25l3.26-1.17c1-.34,1.94-.69,2.91-1,1.63-.61,3.27-1.2,4.91-1.8.75-.27,1.51-.52,2.24-.8s1.18-.45,1.77-.67a9.17,9.17,0,0,1,.88-.3c.24-.07.48-.16.74-.25,1.1-.4,2.21-.81,3.3-1.19.9-.31,1.8-.64,2.68-1,1.13-.42,2.27-.81,3.39-1.25.68-.27,1.43-.54,2.15-.77.48-.16,1-.33,1.47-.51,1.23-.43,2.46-.89,3.69-1.35l.65-.25c.33-.13.69-.27,1-.37s.62-.21.94-.32c.77-.26,1.52-.56,2.27-.83,1-.35,2-.73,3-1.09l2-.72L163,68.33a5.48,5.48,0,0,0,1-.34c1.44-.58,2.89-1.16,4.44-1.69.5-.17,1-.38,1.47-.56s1.22-.46,1.84-.69c.91-.35,1.84-.68,2.76-1,.57-.21,1.15-.42,1.7-.64l.37-.14c1.13-.38,2.22-.82,3.34-1.22l3.3-1.21c1.27-.48,2.55-.94,3.83-1.41.75-.28,1.49-.53,2.23-.78l.29-.1c1.22-.49,2.48-.89,3.71-1.36.31-.12.59-.2.89-.31,1.54-.53,3.1-1.1,4.61-1.67,1.1-.42,2.23-.85,3.32-1.29s2-.78,3.09-1.15,2.39-.84,3.57-1.28c.68-.26,1.35-.48,2-.71l.82-.29c.17-.06.35-.13.51-.17a8.26,8.26,0,0,0,1-.34l.21-.07c.38-.08.9-.27,1.38-.43a7.34,7.34,0,0,1,1.16-.32l.2-.07a5,5,0,0,0-1.23-1c-.25-.16-.62-.33-.67-.56-.18-.71-.81-1-1.21-1.54-.12-.14-.33-.25-.31-.44.09-.72-.45-1-.93-1.22a1.75,1.75,0,0,1-1-1.37,1.61,1.61,0,0,0-.65-1.12,25.63,25.63,0,0,1-1.86-1.9A57.22,57.22,0,0,0,204,35.4a.82.82,0,0,1-.28-.47,1.76,1.76,0,0,0-.59-.93,4.22,4.22,0,0,0-1.87-1.23c-.31-.36-.06-.93-.58-1.09-.4,0-.59.46-1.09.49a3.47,3.47,0,0,1-1.21-.55,2.52,2.52,0,0,1,0-.47c.09-.94-.62-1.55-1-2.3-.87-.18-1.06-1-1.59-1.56-.32-.31-.58-.67-1.08-.73a2.88,2.88,0,0,1-2-1.38,4.19,4.19,0,0,0-1.52-1.27c-1.4-.79-3.1-1.12-4-2.64-.05-.08-.21-.09-.29-.16a14,14,0,0,0-2.75-1.66c-.64-.4-1-1-1.69-1.4-1.74-1.06-3.53-2-5.26-3.11a15.3,15.3,0,0,0-2.65-1.18,10.57,10.57,0,0,1-1.34-.57,6,6,0,0,0-2.19-1,1.58,1.58,0,0,1-.9-.43,4.73,4.73,0,0,0-1.94-1.06,6.26,6.26,0,0,1-1.2-.57A8.79,8.79,0,0,0,164.82,9a24,24,0,0,1-2.51-.72,41.21,41.21,0,0,1-5.41-2.16A18.64,18.64,0,0,0,152,4.65a15.4,15.4,0,0,0-2.06-.46c-1.73-.14-3.42-.58-5.15-.82a16.22,16.22,0,0,1-4.46-.85,1.82,1.82,0,0,0-.66,0,7.47,7.47,0,0,1-3.39-.42A13.68,13.68,0,0,0,131.78,1a31,31,0,0,1-3.72-.21,5.32,5.32,0,0,0-1.2-.24c-1.3,0-2.58-.2-3.87-.29A10.62,10.62,0,0,0,121.24,0a38.12,38.12,0,0,1-4.66.08c-1,0-2.07-.26-3,.47-.25.21-.56.09-.86.07a3.84,3.84,0,0,0-2.2.15A2.47,2.47,0,0,1,109,1c-.54-.06-1.14-.3-1.64,0a6.75,6.75,0,0,1-2.49.54c-.72.05-1.34.52-2,.54a10.7,10.7,0,0,0-2.72.48,2.51,2.51,0,0,1-.55.07,13.9,13.9,0,0,1-3.09-.1,7.71,7.71,0,0,0-2.24.3c-.78.13-1.64-.16-2.3.52-1.37,0-2.56,1-4,.7-.37-.08-.8.15-1.21.19-.94.08-1.58.78-2.39,1.11-.62.25-1.32.29-1.92.52s-1,.86-1.54,1.25a3.37,3.37,0,0,1-1.12.52A33.25,33.25,0,0,1,75.5,8.7a12.37,12.37,0,0,0-3.6,1.13c-.35.16-.56.55-.92.61-1.65.25-2.77,1.47-4.13,2.24a7.58,7.58,0,0,1-1.83,1,.77.77,0,0,0-.56.34,1.19,1.19,0,0,1-1,.58,3.16,3.16,0,0,0-1,.45c-1.2.64-2.32,1.41-3.56,2a8.56,8.56,0,0,0-3.51,2.64A3.07,3.07,0,0,1,53.56,21a2.6,2.6,0,0,0-1,.64c-1,.75-1.72,1.9-3.1,2.08a.49.49,0,0,0-.33.27c-.34.74-1.1,1-1.7,1.38s-1.3.72-1.88,1.17a36.38,36.38,0,0,0-4.63,4.74c-1.38,1.49-6.14,3.73-5.8,4.37a.59.59,0,0,1-.55.88,1.45,1.45,0,0,0-1,.64c-.54.56-1.07,1.12-1.56,1.72s-1.16,1-1.55,1.58c-.78,1.21-1.59,2.4-2.39,3.6a20.76,20.76,0,0,1-2.38,2.76,34.72,34.72,0,0,0-2.83,3.44c-.8,1.1-1.61,2.2-2.44,3.28C19.08,55.22,18.15,57.2,17,59a14.21,14.21,0,0,0-1.45,2.37,20.67,20.67,0,0,1-3,5.31,6.29,6.29,0,0,0-1.39,2.51,30.56,30.56,0,0,1-2,5.76,39.51,39.51,0,0,0-2,5,7.37,7.37,0,0,1-.24,1.19,41.48,41.48,0,0,0-1.81,5.94c-.65,2-1.1,4.16-1.83,6.19a12.65,12.65,0,0,0-.52,2.27,12,12,0,0,1-.61,2.71,19.32,19.32,0,0,0-.52,2.28c-.29,1.14-.32,2.36-.66,3.48a16.22,16.22,0,0,0-.23,5.51,12.62,12.62,0,0,1,.07,3.18c.06.28.45.2.39.51-.54-.1-.51.28-.55.52.06.42.65.32.6.76S.76,114.63.62,114.84Z"/><path class="cls-1" d="M235.89,106.78l.13,0a2.34,2.34,0,0,0,0-.26A1.71,1.71,0,0,0,235.89,106.78Z"/><path class="cls-1" d="M114.41,90c.68-.33.65-.36-.11-.13C114.09,90,114,90.12,114.41,90Z"/><path class="cls-1" d="M7.52,128.85c.12-.07.12-.1,0-.07a11.8,11.8,0,0,0-1.29.49C6.7,129.08,7.05,129,7.52,128.85Z"/><path class="cls-1" d="M159.33,87.09c.06,0,.1,0,.14,0s.26.28.25.48c.06,0,.09,0,.09,0a2,2,0,0,0,0-.26.45.45,0,0,0-.16-.25.37.37,0,0,1-.16-.21.07.07,0,0,0-.06,0C159.27,86.89,159.37,87,159.33,87.09Z"/><path class="cls-1" d="M158,85.5a.09.09,0,0,0,0,.13l.15.22c.16,0,.19-.06.17-.2s0-.11,0-.15-.16-.08-.24-.11A.76.76,0,0,0,158,85.5Z"/><path class="cls-1" d="M158.93,87.05c0,.08,0,.16,0,.22a.24.24,0,0,0,.12,0c.09-.1,0-.15,0-.23A.25.25,0,0,0,158.93,87.05Z"/><path class="cls-1" d="M141.1,118.53a.11.11,0,0,0,0-.13.21.21,0,0,1,0-.25s0-.1-.08-.13a.22.22,0,0,0-.1.09s.06.09,0,.15a.56.56,0,0,0,0,.36C141,118.65,141.06,118.57,141.1,118.53Z"/><path class="cls-1" d="M158.57,85.33a.27.27,0,0,0,.26,0l-.06-.13c-.05-.1-.07-.11-.15,0a.44.44,0,0,1-.08-.11s0,0-.06,0-.18,0-.27-.08,0,0,0,0,0,.12,0,.18h.22l.09.1s.09,0,.14,0A.1.1,0,0,0,158.57,85.33Z"/><path class="cls-1" d="M159.3,88.21a.06.06,0,0,0,0,.08.34.34,0,0,1,0,.2.09.09,0,0,0,0,.09c.11,0,.11,0,.11-.11a.51.51,0,0,1,0-.17s-.05-.08-.09-.1A.09.09,0,0,0,159.3,88.21Z"/><path class="cls-1" d="M159.28,86.38c-.12,0-.13,0-.14.23.09,0,.11.12.23.1C159.34,86.6,159.38,86.47,159.28,86.38Z"/><path class="cls-1" d="M159.09,86.1c0-.13,0-.13-.09-.19a.24.24,0,0,0-.1.1C159,86,159.05,86,159.09,86.1Z"/><path class="cls-1" d="M158.53,86.46c0,.05,0,.11.09.15s0,0,.07,0-.07-.12-.14-.14a.1.1,0,0,1-.07-.07.42.42,0,0,0-.14-.22c-.13-.12-.19-.12-.33,0s.1.22.13.33A.48.48,0,0,0,158.53,86.46Z"/><path class="cls-1" d="M153.11,108.72a.21.21,0,0,1-.1-.14c0-.13-.14-.21-.18-.34s0,0-.07,0a1.15,1.15,0,0,0,.35.6S153.13,108.72,153.11,108.72Z"/><path class="cls-1" d="M150.37,105.9a1.45,1.45,0,0,0,.2.34s0,0,0-.07-.1-.23-.14-.34,0,0-.05,0-.12-.09-.18-.13,0,.13.08.17S150.35,105.88,150.37,105.9Z"/><path class="cls-1" d="M146.29,95c0,.08.09.14.13.22a3.66,3.66,0,0,0,.26.42.14.14,0,0,0,.11.06.11.11,0,0,0,.09-.1s-.06-.09-.12-.14a.41.41,0,0,1-.14-.15,1.93,1.93,0,0,1-.15-.4.61.61,0,0,0-.16-.32,1.05,1.05,0,0,1-.05.19A.28.28,0,0,0,146.29,95Z"/><path class="cls-1" d="M146.64,91.93c.11.08.23.15.27.29a.93.93,0,0,0,.05.1.1.1,0,0,0,.09,0,.9.9,0,0,1,0-.16.44.44,0,0,0-.14-.3.41.41,0,0,1-.07-.11,1.19,1.19,0,0,0-.08-.2c-.1,0-.16,0-.22.08s0,.2.1.28Z"/><path class="cls-1" d="M147.21,91.67a.22.22,0,0,0,.18.16c0-.1-.08-.18-.11-.25a.73.73,0,0,1-.07-.29.09.09,0,0,1,0-.11.16.16,0,0,1,.12,0c.05,0,.05.1.1.13a.45.45,0,0,1,.14.31.28.28,0,0,0,0,.13.31.31,0,0,1,.09.19.08.08,0,0,0,.05.07s.1,0,.16,0a.2.2,0,0,0,0-.11,4.75,4.75,0,0,1-.14-.63l0-.07a.31.31,0,0,0-.19-.18c0-.09.05-.08.1-.08s0,0,0,0a.16.16,0,0,0,0-.09.31.31,0,0,0-.28.11v.13s0-.09-.1-.09-.22.2-.3.32a.18.18,0,0,0,.06.19C147.17,91.5,147.19,91.58,147.21,91.67Z"/><path class="cls-1" d="M152,104a.56.56,0,0,0,.18.51A1.82,1.82,0,0,0,152,104Z"/><path class="cls-1" d="M151.27,107.34a1.18,1.18,0,0,0,.17.24C151.4,107.41,151.38,107.39,151.27,107.34Z"/><path class="cls-1" d="M150.89,106.79l.24.37A.52.52,0,0,0,150.89,106.79Z"/><path class="cls-1" d="M150.86,106.67a.34.34,0,0,1-.09-.18.21.21,0,0,0-.09-.17,0,0,0,0,0,0,.06,1.31,1.31,0,0,0,.21.36S150.88,106.68,150.86,106.67Z"/><path class="cls-1" d="M148.63,98.18a.41.41,0,0,0,.15.2.06.06,0,0,1,0,.06c0,.1.08.14.12.23,0-.09,0-.14,0-.19a.5.5,0,0,0-.07-.27,1.81,1.81,0,0,1-.19-.29.27.27,0,0,0-.15-.13.12.12,0,0,1-.06-.06,5,5,0,0,1-.37-.57s0,0,0,.06a1,1,0,0,0,.29.54A1.3,1.3,0,0,1,148.63,98.18Z"/><path class="cls-1" d="M146.28,91.84c-.13,0-.14.1,0,.22C146.31,92,146.27,91.92,146.28,91.84Z"/><path class="cls-1" d="M142.67,92.63c0-.14-.11-.27-.15-.4a.25.25,0,0,0-.21-.17c.09.2.16.39.24.57C142.59,92.64,142.62,92.66,142.67,92.63Z"/><path class="cls-1" d="M143.71,130.08a.07.07,0,0,0,.06,0,.08.08,0,0,0,0-.07.47.47,0,0,0-.19-.25c-.07.06-.07.06-.07.15S143.66,130,143.71,130.08Z"/><path class="cls-1" d="M141.44,127.79c-.13,0-.12.14-.21.19C141.39,128,141.39,127.88,141.44,127.79Z"/><path class="cls-1" d="M142.86,93.25c-.06-.06,0-.19-.18-.19C142.72,93.23,142.73,93.25,142.86,93.25Z"/><path class="cls-1" d="M145.58,98.61c-.16-.07-.16-.07-.2,0a.21.21,0,0,0,.1.08S145.58,98.68,145.58,98.61Z"/><path class="cls-1" d="M146.17,98.56c0-.06,0-.11-.09-.13s-.07-.06-.07-.12.12,0,.17.11a.22.22,0,0,0,0-.19,3.59,3.59,0,0,0-.12-.35s0,0-.06,0-.16.18-.21.28a1.3,1.3,0,0,0,0,.4.44.44,0,0,0,.2,0C146.06,98.47,146.09,98.59,146.17,98.56Z"/><path class="cls-1" d="M145.62,96.66c.14-.11.14-.15,0-.25,0,.13-.2.12-.22.24s.13.21.19.31S145.71,96.91,145.62,96.66Z"/><path class="cls-1" d="M161.84,96.9a.33.33,0,0,1,0-.44l0,0a.54.54,0,0,0-.16-.26.88.88,0,0,1-.39,0,3,3,0,0,0,.6,1.1h0s.06,0,.07,0,0-.06-.05-.07S161.89,97,161.84,96.9Z"/><path class="cls-1" d="M159.94,88.69c0-.06,0-.09-.06-.11s-.07,0-.09,0,0-.08-.1-.06-.09,0-.09.08,0,.19,0,.27l.07.09.18,0c.05.09.05.09.16,0s0-.07,0-.08A.12.12,0,0,1,159.94,88.69Z"/><path class="cls-1" d="M160.37,89.11a1,1,0,0,0,0,.11.7.7,0,0,1,.14,0c.05,0,.08,0,.1-.09s0-.1,0-.11-.08-.08-.14-.1h0c-.05,0-.05.09-.1.11S160.36,89.07,160.37,89.11Z"/><path class="cls-1" d="M160.26,88c.09,0,.09,0,.14,0s-.08-.14-.17-.16,0,.06,0,.08.07,0,.09.05S160.27,88,160.26,88Z"/><path class="cls-1" d="M154.3,115.61a.21.21,0,0,0,.07.15.75.75,0,0,1,.21.26c.07,0,.14,0,.19,0s0,0,.07,0a.41.41,0,0,1,.15.17,5.36,5.36,0,0,0,.26.54s0,0,0,0,0-.07-.06-.19-.14-.3-.21-.44a2.65,2.65,0,0,0-.26-.39,1.07,1.07,0,0,0-.28-.28.26.26,0,0,1-.07-.11.84.84,0,0,0-.15-.26l-.09-.1c-.06-.06,0-.16-.12-.23a.38.38,0,0,0,0,.19A2.1,2.1,0,0,1,154.3,115.61Z"/><path class="cls-1" d="M158.91,89.6a.32.32,0,0,1,.17-.27.23.23,0,0,0-.1-.2c-.06,0-.17,0-.17.15s0,0-.07,0,0-.08-.11-.08a.14.14,0,0,0,0,.06c0,.08.07.17.11.26a.12.12,0,0,0,.05,0,.53.53,0,0,1,.2.16.07.07,0,0,0,.08,0C159.1,89.67,159.07,89.63,158.91,89.6Z"/><path class="cls-1" d="M160.27,90s-.06.08-.1.11,0,.1,0,.15.06.1.13.09a.19.19,0,0,0,.13-.28A.2.2,0,0,0,160.27,90Z"/><path class="cls-1" d="M159.66,89.16a.32.32,0,0,0-.47,0c0,.09,0,.19.12.23s.11-.06.16-.1S159.62,89.31,159.66,89.16Z"/><path class="cls-1" d="M159,98.41c0,.1.11.15.16.24h0c.06-.07,0-.1,0-.12A.61.61,0,0,1,159,98.41Z"/><path class="cls-1" d="M159.51,99a1,1,0,0,1,.14.3s0,.08.09.07a.08.08,0,0,0,0,0,1.12,1.12,0,0,0-.08-.26C159.63,99,159.59,99,159.51,99Z"/><path class="cls-1" d="M163.11,104l.32.16c.08-.1.08-.12,0-.24A.62.62,0,0,1,163.11,104Z"/><path class="cls-1" d="M162.56,95.18c.07,0,.1.09.18.09s0-.1,0-.16A.26.26,0,0,0,162.56,95.18Z"/><path class="cls-1" d="M158.59,88.75c0-.11-.07-.16-.12-.22s-.07,0-.06.07,0,.25.07.36.15,0,.12-.17S158.58,88.77,158.59,88.75Z"/><path class="cls-1" d="M163.49,97c-.11,0-.17,0-.26.13.16,0,.28.08.42.09C163.62,97.13,163.59,97,163.49,97Z"/><path class="cls-1" d="M160.66,90.37a.52.52,0,0,1,0,.21.89.89,0,0,0,.35-.11c-.09-.07-.1-.17-.15-.25s-.09,0-.12,0-.09,0-.14-.07a.08.08,0,0,0-.11,0,.08.08,0,0,0,0,.11C160.62,90.27,160.64,90.33,160.66,90.37Z"/><path class="cls-1" d="M160.49,89.39a.55.55,0,0,1-.11-.1c-.12,0,0,.09-.06.13s-.14,0-.19.09a.72.72,0,0,0,.14.26.2.2,0,0,0,.12-.06.46.46,0,0,0-.07-.16s0-.07,0-.09a.21.21,0,0,1,0,.06s0,0,.05.06.08,0,.1,0A.14.14,0,0,0,160.49,89.39Z"/><path class="cls-1" d="M161.24,96.07s0,0,0,0,0,0,0,0-.16-.14-.23-.21a.6.6,0,0,1,0-.27c0-.14,0-.14-.1-.22s0,0,0,0-.16.11-.26,0-.05,0-.07,0a.6.6,0,0,0,.27.37,1.07,1.07,0,0,1,.19.13C161.12,96,161.19,96,161.24,96.07Z"/><path class="cls-1" d="M161.68,101.47a1,1,0,0,1,0-.13,1,1,0,0,0-.18-.39.54.54,0,0,1-.11-.18.7.7,0,0,0-.19-.33s-.07,0-.11,0a.37.37,0,0,0,.07.2,1.2,1.2,0,0,1,.18.38c0,.09.08.19,0,.28s-.07,0-.1,0a.33.33,0,0,0,.15.22.19.19,0,0,1,.09.15c0,.14.08.28.1.43s0,.12.1.12,0-.13,0-.19a3.29,3.29,0,0,0,0-.45A.23.23,0,0,0,161.68,101.47Z"/><path class="cls-1" d="M85.06,132c-.21,0-.11.14-.07.24,0-.07.11-.06.14-.13S85.08,132.11,85.06,132Z"/><path class="cls-1" d="M83.93,139.63c.06-.13.26-.13.35-.26a.34.34,0,0,0,0-.41c.12-.11.3,0,.41-.12s-.07-.27-.11-.34,0-.09-.06-.14.08-.1,0-.19-.2-.08-.16-.21-.09-.07-.12-.12,0-.19-.11-.19,0,.07.07.16a.64.64,0,0,0,.25.49,1.53,1.53,0,0,1-.11.48c0,.06-.14.13-.16.19s0,.13,0,.25a.36.36,0,0,1-.3.23s0-.13-.08-.16,0,.13,0,.18l.08,0S83.85,139.59,83.93,139.63Z"/><path class="cls-1" d="M90.27,112.64s0-.38,0-.43,0-.1-.09-.13a.58.58,0,0,0,.05.26C90.21,112.42,90.22,112.58,90.27,112.64Z"/><path class="cls-1" d="M84.75,130.27c.17-.11.17-.19,0-.34s-.17.18-.17.25S84.73,130.2,84.75,130.27Z"/><path class="cls-1" d="M84.8,137.69c-.08,0-.12.11-.21.05a.28.28,0,0,0-.07-.17s.08,0,.1,0-.06,0-.06-.06l.08-.1c.06,0,.12,0,.16,0s-.06-.09-.13-.06a1.26,1.26,0,0,0-.24.22.83.83,0,0,0,.21.39C84.67,137.78,84.79,137.81,84.8,137.69Z"/><path class="cls-1" d="M84.46,136.6c0,.18.05.21.15.29A.22.22,0,0,0,84.46,136.6Z"/><path class="cls-1" d="M84.77,114.76c0-.14,0-.16-.1-.22s0,.15-.07.24S84.68,114.82,84.77,114.76Z"/><path class="cls-1" d="M85,119.07c0-.13-.16-.25-.2-.37s0-.09,0-.13a.92.92,0,0,0-.16-.31s-.09,0-.1.06c.16.22.1.62.36.8C85,119.12,85,119.11,85,119.07Z"/><path class="cls-1" d="M85,120.66s-.07,0-.08.08c0,.2-.13.27-.26.36.11.17.2,0,.38,0a.38.38,0,0,1,0,.15s-.09,0-.11,0-.08.16,0,.19c.38,0,.1-.58.27-.8,0-.09,0-.2-.11-.29a.15.15,0,0,0-.18.07C84.93,120.54,85,120.58,85,120.66Z"/><path class="cls-1" d="M84.6,115c.11.13.27,0,.16-.12C84.65,114.93,84.65,114.93,84.6,115Z"/><path class="cls-1" d="M82.36,135.9c0,.1.08.2,0,.28a.3.3,0,0,1,0,.13,1,1,0,0,0-.17.1.42.42,0,0,1,0,.13c.08,0,0-.1.08-.16s.12,0,.17-.09.08-.33,0-.51A.22.22,0,0,0,82.36,135.9Z"/><path class="cls-1" d="M81.26,130.86c0-.05,0-.09,0-.13s.13-.12.18-.18,0-.06-.08,0c-.1.19-.1.08-.22,0S81.16,130.81,81.26,130.86Z"/><path class="cls-1" d="M82.22,132.75c.07-.19.32-.32.13-.51h-.11c-.1-.11-.12-.11-.21,0s.14.11.17.19,0,0,0,.14-.1.31-.3.19a1.16,1.16,0,0,0,0,.37C82.17,133.16,82.16,132.93,82.22,132.75Z"/><path class="cls-1" d="M85.22,136.21c.06-.21,0-.3-.13-.31C85.14,136,85.08,136.14,85.22,136.21Z"/><path class="cls-1" d="M81.35,132.82a.47.47,0,0,1,0,.29s-.13,0-.17.07c.11,0,0,.18.12.25s.12,0,.22,0a.18.18,0,0,0,0,.06c0-.15.17-.13.24-.2s-.17-.22-.24-.34S81.45,132.81,81.35,132.82Z"/><path class="cls-1" d="M83.35,138.74c0-.13,0-.65-.18-.61a2.81,2.81,0,0,1,0,.41c0,.06-.11,0-.17,0s0,.19,0,.32C83.12,138.8,83.26,138.82,83.35,138.74Z"/><path class="cls-1" d="M82.62,137.43c.07-.11,0-.18,0-.25s-.06,0-.1,0S82.61,137.35,82.62,137.43Z"/><path class="cls-1" d="M83.3,135.18c0,.06.11.09.16.16a.17.17,0,0,0,.12-.06,2.62,2.62,0,0,0-.32-.94c.06-.07,0-.15,0-.23l-.18.08a.86.86,0,0,1,0,.23c.15.1.11.35.15.5A1,1,0,0,0,83.3,135.18Z"/><path class="cls-1" d="M80.41,137c-.1.09.06.22.15.25a.23.23,0,0,1,.09-.11C80.54,137.15,80.44,137.17,80.41,137Z"/><path class="cls-1" d="M82,138.07c-.09-.08-.19,0-.31,0C81.73,138.08,82,138.25,82,138.07Z"/><path class="cls-1" d="M88,136.92l.06-.11a5.09,5.09,0,0,0-.22-.54,1.25,1.25,0,0,1-.16-.22s0-.14-.06-.16,0,0-.07,0,.19.45.22.55S87.78,136.88,88,136.92Z"/><path class="cls-1" d="M86.9,116.05c.11.06.15.24.28.14-.14,0-.09-.18-.11-.3s-.08-.24-.1-.36-.08-.5,0-.62a.12.12,0,0,0-.09-.13c0-.08.07-.15.07-.24a.91.91,0,0,0-.1-.43c-.18,0-.11.23-.1.37a.65.65,0,0,1-.16.48,1.78,1.78,0,0,0,.16.51C87,115.52,87,115.91,86.9,116.05Z"/><path class="cls-1" d="M87.9,123.56c.06,0,.1,0,.16,0s-.11.12,0,.21c.26.09.19-.11.22-.24a.8.8,0,0,0-.19-.13.41.41,0,0,0,0-.4c0-.09-.09-.17-.12-.26a.73.73,0,0,0,0-.2c-.11,0-.07.06-.09.12s-.14-.09-.19,0a3,3,0,0,0,.3.59C87.79,123.37,87.86,123.47,87.9,123.56Z"/><path class="cls-1" d="M87.2,112.75a.12.12,0,0,0,0,.17C87.33,112.9,87.31,112.77,87.2,112.75Z"/><path class="cls-1" d="M87.38,120.68c-.08.08-.06.21.05.34C87.65,121,87.44,120.75,87.38,120.68Z"/><path class="cls-1" d="M89.14,113.82c.13-.2,0-.53-.06-.75s-.12-.28-.11-.45c-.16,0-.08-.06-.15-.13s-.14,0-.21-.07,0-.23,0-.34-.11-.11-.16-.18a1.12,1.12,0,0,1-.11-.25c-.07-.16-.07-.47-.29-.48a.36.36,0,0,0-.08.27,1.8,1.8,0,0,1,.29.39c0,.09.14.14.17.24s0,.12,0,.18.06.1.07.14a4.94,4.94,0,0,1,.1.53,2.35,2.35,0,0,0,.15.42c.06.15,0,.13,0,.28s.16.49,0,.61c.06.06.15,0,.22.07s.15.1.24.14-.47.5-.09.52c0,.1.07.3.2.31a.88.88,0,0,0,.08-.62c0-.11,0-.58-.05-.6s-.07.1-.17.13S89.23,113.89,89.14,113.82Z"/><path class="cls-1" d="M89.43,116.4a2.7,2.7,0,0,1,.14.4c0,.12.1.17.14.27s0,.45.15.51.35-.21.31-.35c-.42-.12-.48-.6-.48-1a.58.58,0,0,0-.06-.34c0-.12-.15-.2-.16-.32s-.09-.06-.12,0A2.31,2.31,0,0,0,89.43,116.4Z"/><path class="cls-1" d="M88.1,109.9c.19-.1.37-.19.54-.3s.15-.18.3-.28a2,2,0,0,0,.3-.27,2.7,2.7,0,0,0-.67.26l-.33.19c-.07,0-.36.11-.37.19S88.07,109.77,88.1,109.9Z"/><path class="cls-1" d="M88.08,118.37c0-.11-.13-.39-.24-.39,0,.17.18.23.14.41C88,118.4,88.06,118.42,88.08,118.37Z"/><path class="cls-1" d="M85.26,142.39a.23.23,0,0,0,.16,0c.06-.11,0-.17-.1-.23a.76.76,0,0,0-.08-.64A1.66,1.66,0,0,0,85.26,142.39Z"/><path class="cls-1" d="M85.48,135a.31.31,0,0,0,.23.21c0-.1-.15-.17-.06-.28-.08,0-.05-.11-.1-.14a.08.08,0,0,0-.07,0c0,.05,0,.08.06.12S85.49,135,85.48,135Z"/><path class="cls-1" d="M85.76,140.92c.13,0,.23-.22.08-.3S85.69,140.83,85.76,140.92Z"/><path class="cls-1" d="M85.45,131.64s0-.12,0-.15,0-.09,0-.15,0,.18-.16.25C85.34,131.71,85.34,131.71,85.45,131.64Z"/><path class="cls-1" d="M86,121.15s0,0-.09,0a.31.31,0,0,1-.09.2.13.13,0,0,0,0,.09A.28.28,0,0,0,86,121.15Z"/><path class="cls-1" d="M86.41,132.26s.1-.08.1-.15-.06-.14-.13-.21c-.12.12,0,.22,0,.32a.51.51,0,0,1-.25.17c.08.07,0,.16.08.23S86.49,132.39,86.41,132.26Z"/><path class="cls-1" d="M86,120.91c-.09,0-.09,0-.08.18C86.07,121,86.08,121,86,120.91Z"/><path class="cls-1" d="M86.88,118.39c0-.12-.24-.3-.21-.4s.15,0,.18-.15c-.13,0-.26.12-.35,0,0,0-.07,0-.09.08a3.05,3.05,0,0,0,.36.58S86.86,118.44,86.88,118.39Z"/><path class="cls-1" d="M86.08,112.76a.42.42,0,0,0-.06.33C86.13,113.07,86.12,112.85,86.08,112.76Z"/><path class="cls-1" d="M84.86,133.67c.12-.17,0-.24-.13-.24s-.06-.09-.18,0S84.75,133.66,84.86,133.67Z"/><path class="cls-1" d="M72.32,120.52c0-.1,0-.47,0-.53-.08.13,0,.17,0,.29S72.23,120.47,72.32,120.52Z"/><path class="cls-1" d="M74.05,119.67a2.29,2.29,0,0,1,0-.64c-.07-.06-.1-.13-.19,0,.06.1,0,.19,0,.29-.15-.06-.17-.25-.27-.37a1.38,1.38,0,0,0,.15.46A.52.52,0,0,0,74.05,119.67Z"/><path class="cls-1" d="M72.31,123.81a.11.11,0,0,0,.08-.14C72.27,123.59,72.24,123.75,72.31,123.81Z"/><path class="cls-1" d="M71.79,132.33a2.32,2.32,0,0,0-.28-.44C71.42,132,71.62,132.45,71.79,132.33Z"/><path class="cls-1" d="M74.06,120.64c.08-.07.07-.22,0-.36C74,120.41,74,120.53,74.06,120.64Z"/><path class="cls-1" d="M66.48,119.29a.16.16,0,0,0-.1,0s0,.09,0,.15S66.56,119.38,66.48,119.29Z"/><path class="cls-1" d="M75.23,125.6c.11,0,.18,0,.26-.11a.77.77,0,0,0-.28-.31c0-.13-.06-.24-.16-.11,0,.11,0,.22,0,.32A1.48,1.48,0,0,0,75.23,125.6Z"/><path class="cls-1" d="M75.46,134.39c0,.12,0,.19.18.22-.08-.17-.14-.32-.22-.46C75.31,134.21,75.42,134.31,75.46,134.39Z"/><path class="cls-1" d="M74.37,136.32a.1.1,0,0,0,.08,0c0-.19-.08-.36-.1-.55-.13,0-.11.16-.09.26A1.17,1.17,0,0,0,74.37,136.32Z"/><path class="cls-1" d="M74.73,123.74a.81.81,0,0,0,.11-.29l0,.08a.59.59,0,0,1-.17-.26c0-.06.1,0,.13-.06a.06.06,0,0,0,0-.07c-.29,0-.46.24-.25.49C74.55,123.71,74.64,123.81,74.73,123.74Z"/><path class="cls-1" d="M19.14,182.55A3.91,3.91,0,0,1,20,184.4c0,.17.2.31.28.46a.86.86,0,0,0,.07.1c.6-.22,1.21-.44,1.81-.64.94-.33,1.91-.66,2.86-1,.69-.23,1.39-.49,2.08-.73,1.43-.5,2.88-1,4.3-1.57.77-.25,1.53-.58,2.3-.83l.22-.08c1-.43,2.13-.79,3.19-1.17s1.93-.7,2.9-1c1.23-.41,2.46-.88,3.7-1.33,1.56-.57,3.14-1.12,4.7-1.7.37-.14.75-.26,1.11-.38.68-.23,1.32-.48,2-.73.82-.31,1.65-.62,2.47-.9l.49-.18c.88-.33,1.77-.63,2.65-1s1.71-.63,2.56-1c1.3-.49,2.62-1,3.94-1.41l.13,0c.72-.34,1.59-.59,2.38-.89,1-.4,2.09-.79,3.16-1.16l.8-.3c1-.4,2.06-.77,3.11-1.13l1.57-.56c1.33-.47,2.68-.93,4-1.43,1.06-.4,2.13-.78,3.18-1.19l1.1-.39c1.49-.56,3-1.07,4.46-1.6l.89-.32c1.12-.45,2.28-.86,3.41-1.27s2.33-.87,3.49-1.28c.77-.27,1.54-.56,2.3-.81.29-.1.51-.21.79-.31.88-.31,1.75-.65,2.62-.94l.37-.13c.85-.35,1.72-.65,2.59-.95.36-.13.75-.27,1.1-.42s.68-.25,1-.37c1-.37,2-.78,3-1.12l.68-.25c1.49-.55,3-1.07,4.48-1.61l.44-.16c.41-.17.81-.31,1.25-.45l1-.38c.62-.24,1.24-.45,1.86-.67,1.17-.4,2.34-.83,3.5-1.22.59-.2,1.17-.43,1.75-.65l1.27-.51c.72-.28,1.48-.54,2.22-.79,1.33-.46,2.68-.9,4-1.4s2.6-.94,3.85-1.44c.25-.11.48-.17.73-.26l3.26-1.17c1-.34,1.94-.69,2.91-1.05l4.91-1.8c.75-.26,1.51-.51,2.24-.8l1.77-.67c.31-.11.6-.22.88-.3s.48-.16.74-.25c1.1-.4,2.21-.81,3.3-1.19.91-.31,1.8-.63,2.68-1,1.13-.42,2.27-.81,3.39-1.26.68-.27,1.43-.54,2.15-.77.48-.15,1-.33,1.47-.5l3.69-1.35.65-.26c.33-.13.69-.26,1-.37s.62-.21.94-.31c.77-.27,1.52-.57,2.27-.83,1-.36,2-.74,3-1.09l2-.73,4.46-1.56a6.48,6.48,0,0,0,1-.35c1.44-.58,2.89-1.16,4.44-1.69.5-.17,1-.37,1.47-.55l1.84-.7,2.76-1c.57-.21,1.15-.42,1.7-.64l.37-.14c1.13-.39,2.22-.83,3.34-1.23l3.3-1.21c1.27-.48,2.55-.93,3.83-1.4.75-.28,1.49-.54,2.23-.79l.29-.1c1.22-.49,2.49-.88,3.71-1.36.31-.12.59-.2.89-.3,1.55-.54,3.1-1.11,4.61-1.68,1.1-.41,2.23-.84,3.32-1.28s2-.79,3.1-1.16,2.38-.83,3.56-1.28l2-.71.82-.28c.17-.06.35-.13.51-.17a7.06,7.06,0,0,0,1-.35,1.15,1.15,0,0,1,.21-.06c.24-.06.54-.15.84-.25a2,2,0,0,0-.14-1.21.72.72,0,0,1,.07-.81c.43-.31.81.23,1.2,0A10.72,10.72,0,0,1,236,102a3.91,3.91,0,0,0-.24-2.38,2.86,2.86,0,0,1-.14-2,.69.69,0,0,0,.05-.54c-.49-.86-.22-1.85-.6-2.79a20.49,20.49,0,0,1-.89-4.31,6.13,6.13,0,0,0-1-3.08,1.66,1.66,0,0,1-.25-1.06,5.47,5.47,0,0,0-.39-2.7c-.56-1.21-.6-2.68-1.72-3.62-.26-.21-.08-.49-.16-.71-.3-.84.12-1.93-.91-2.48a1.44,1.44,0,0,0-.05-1.52c-.34-.53,0-1.42-.88-1.75,0,0,.07-.23,0-.32-.32-.78-.21-1.74-.81-2.37a7.47,7.47,0,0,1-1.38-2.61c-.09-.24-.07-.53-.32-.68a3.24,3.24,0,0,1-1.24-1.9c-.59-1.65-1.39-3.2-2-4.85a2.31,2.31,0,0,0-.5-.73,1.34,1.34,0,0,1-.44-.63,3.87,3.87,0,0,0-1-1.59c-.17-.2-.39-.35-.44-.63-.22-1.13-1.19-1.7-1.92-2.42a1.75,1.75,0,0,1-.69-1.5c0-.23,0-.43,0-.61a1,1,0,0,0-.31.14,7.5,7.5,0,0,1-1.21.69,5.5,5.5,0,0,1-.51.22l-.43.17c-.28.12-.49.23-.86.37-1.13.41-2.27.86-3.37,1.18l-.28.08c-1.14.32-2.31.76-3.48,1.22-.59.23-1.18.42-1.77.65l-.42.16a10.05,10.05,0,0,1-1.07.4c-.45.15-.93.34-1.4.51l-2.46.9c-1.73.61-3.46,1.26-5.2,1.85-.76.26-1.55.56-2.34.85s-1.42.53-2.14.77q-1.49.48-2.91,1.08c-.46.2-1,.38-1.51.55l-.51.18c-1.55.59-3.12,1.12-4.68,1.68l-3.85,1.38c-.52.19-1,.39-1.53.58s-1.32.47-2,.67c-.49.16-1,.35-1.47.54-1,.42-2.07.81-3.14,1.21-.6.21-1.2.44-1.79.66-.38.14-.75.27-1.09.36l-.51.18c-.86.32-1.72.63-2.54,1l-1.11.41c-.55.17-1.1.39-1.63.56-.29.09-.61.21-.89.33s-.81.31-1.25.46c-.59.2-1.2.42-1.77.65-.28.11-.54.21-.81.3-.88.3-1.71.64-2.56,1s-1.92.73-2.9,1l-.29.11c-2.45.93-4.9,1.83-7.37,2.68l-1.19.43c-1,.39-2.08.76-3.12,1.14-.57.21-1.15.43-1.74.63-.31.1-.63.23-1,.36-.65.26-1.32.51-2,.75s-1.49.53-2.23.82l-1.12.41c-.79.29-1.57.59-2.36.87-.36.12-.67.26-1,.39-.67.26-1.31.47-2,.69-.33.11-.64.23-.93.34-.62.24-1.22.45-1.85.68l-2.25.8c-.7.26-1.37.53-2.08.78l-.13,0c-.89.28-1.78.63-2.66,1l-3.22,1.2c-.76.29-1.51.58-2.28.86l-.67.23c-1.09.37-2.18.75-3.28,1.17-.77.29-1.56.58-2.36.85a15.31,15.31,0,0,0-1.56.61,17.64,17.64,0,0,1-1.73.63c-.93.32-1.84.65-2.75,1-.42.16-.84.32-1.26.46-.15,0-.3.1-.45.15-.86.33-1.73.6-2.58.92s-1.61.57-2.41.85l-.58.22c-1.08.41-2.16.82-3.26,1.18l-.28.1c-1.06.41-2.14.79-3.21,1.16a15.75,15.75,0,0,0-1.53.6l-.35.14c-1.19.4-2.38.83-3.57,1.26-.53.19-.93.29-1.38.42l-2.47,1-1.92.69c-.34.12-.68.22-1,.37a5.47,5.47,0,0,1-.62.2c-.67.22-1.34.48-2,.72a4.4,4.4,0,0,1-1,.3,1.43,1.43,0,0,0-.34.09,1.52,1.52,0,0,1-.29.18c-.34.11-.72.26-1.13.39s-.7.27-1,.41a5.77,5.77,0,0,1-.58.22c-.74.25-1.47.51-2.19.8-.19.08-.42.16-.6.22a6.55,6.55,0,0,0-.71.26,2.09,2.09,0,0,1-.3.11q-2.19.8-4.38,1.62c-1,.36-1.91.68-2.86,1-.41.15-.79.32-1.24.45s-.81.31-1.22.42l-.51.19c-.64.26-1.32.49-2,.74l-.37.14c-1.06.34-2.07.76-3.1,1.14l-1,.37c-1.37.49-2.73,1-4.08,1.48l-2,.73c-.82.32-1.67.62-2.52.92l-1.2.43c-1,.36-1.93.7-2.88,1.07-.26.11-.54.2-.82.3-1.36.47-2.72,1-4.06,1.49l-.37.14c-1.43.49-2.84,1-4.27,1.55-.46.17-.93.31-1.38.5s-1,.36-1.45.5a5.27,5.27,0,0,0-.51.19c-.5.21-1.05.41-1.55.58-.76.26-1.48.53-2.21.81-.35.14-.68.23-1,.36-.93.34-1.86.69-2.79,1L8.24,129c-.67.25-1.33.5-2,.76s-1,.39-1.55.56c-.32.11-.66.25-1,.35-.73.25-1.45.52-2.17.79-.56,1.47.05,3-.07,4.45.61.66.41,1.52.57,2.29s.37,1.5.56,2.24c.29,1.12.35,2.27.73,3.38a4.43,4.43,0,0,1,.08,2.32,3.64,3.64,0,0,0,.21,2.16,8.06,8.06,0,0,1,.61,2.15c.22,1.73,1.33,3.1,1.73,4.74,0,.13.19.23.29.33,1.16,1.15,1.28,2.82,2.1,4.14a.49.49,0,0,1,0,.32A1.79,1.79,0,0,0,9,161.6c.39.46.82.89.51,1.58-.1.21.06.45.24.6.91.78.58,2.2,1.51,3-.14.49.32.72.5,1.06.1.19.39.36.3.56-.29.68.1,1,.54,1.42.2.17.17.46.22.72a7.25,7.25,0,0,0,1.6,3.52c.74.84.56,2.11,1.54,2.74,0,0,0,.08,0,.11-.18.55.15,1,.27,1.51a4.3,4.3,0,0,0,1.38,2.37A6.55,6.55,0,0,1,19.14,182.55Zm76.09-41.92c0-.11,0-.19,0-.29a.25.25,0,0,1,.15-.06C95.51,140.45,95.45,140.58,95.23,140.63ZM157.52,84a.12.12,0,0,0,0,.16.13.13,0,0,1,0,.17c-.15,0-.16,0-.15-.13S157.37,84,157.52,84Zm-.26.29c.08.12.07.15,0,.25a.18.18,0,0,1-.07,0C157.24,84.47,157.16,84.34,157.26,84.31Zm-.48,0c0,.06,0,.18.18.12,0,.07-.08.1-.07.16s-.1-.12-.19-.14C156.76,84.38,156.7,84.29,156.78,84.27Zm-.37.1c.06,0,.11-.08.19,0s-.13.09-.2.13S156.36,84.39,156.41,84.37Zm-14.9,6.11s0-.09,0-.13a.37.37,0,0,1,.13-.28.3.3,0,0,0,.09-.13s.07-.11.13-.13a1.79,1.79,0,0,1,.46-.27c.2-.05.39-.16.58-.22a2.14,2.14,0,0,1,.34-.09.67.67,0,0,0,.18-.07,2.52,2.52,0,0,1,.47-.22c.17-.07.35-.11.51-.19a1,1,0,0,1,.43-.12,1.76,1.76,0,0,0,.59-.18c.23-.07.45-.16.67-.24a.86.86,0,0,1,.5-.08.27.27,0,0,0,.09,0,.87.87,0,0,1,.61.16.61.61,0,0,1,.13.15.92.92,0,0,1,.2.45,2.54,2.54,0,0,0,.13.45l.12.31c0,.08.1.13.12.21.08.27.19.53.29.79,0,.1.08.2.11.3a4.24,4.24,0,0,1,.17.61s0,0,0,0a1,1,0,0,1,.18.47.29.29,0,0,0,0,.1l.18.44a.62.62,0,0,1,.07.19.11.11,0,0,0,0,.08c.07.07.07.16.11.24a3.34,3.34,0,0,1,.1.43c0,.15.06.3.11.44s0,.15,0,.22,0,.19,0,.29,0,.13-.11.15a.64.64,0,0,0-.19.13.54.54,0,0,1,0,.18c.1,0,.11-.09.18-.1s.07.06.12,0c0,.15,0,.3,0,.45.06,0,.1,0,.14.06a.34.34,0,0,0,.14-.05.24.24,0,0,1,.31.12,2.8,2.8,0,0,1,.15.3,3.88,3.88,0,0,1,.22.46l.12.27c.06.16.15.32.21.48a1.22,1.22,0,0,0,.14.28,2.38,2.38,0,0,1,.16.4,2.36,2.36,0,0,1,.15.58,1.14,1.14,0,0,0,.06.25.88.88,0,0,1,.06.27,1.39,1.39,0,0,0,.09.35c.17.45.29.92.5,1.35,0,.19.13.36.18.55a3.33,3.33,0,0,0,.26.58c.08.12.13.25.2.37.17.3.28.62.42.93a6,6,0,0,1,.25.71c0,.1.08.19.1.28a4.36,4.36,0,0,1,.17.51.21.21,0,0,0,0,.07.39.39,0,0,1,.1.19c.09.25.15.5.25.74a7.21,7.21,0,0,1,.3.77c.05.19.16.35.22.53s0,.09.05.13c0,.2.13.39.19.58s.18.47.26.71a3.29,3.29,0,0,0,.21.6.66.66,0,0,1,.06.2c0,.14.14.25.18.39l0,.06a4.93,4.93,0,0,0,.24.64c0,.11.07.21.11.32a.85.85,0,0,0,.13.25.11.11,0,0,1,0,.07c0,.13.13.23.14.36s.16.48.28.7.17.38.25.56a1.79,1.79,0,0,1,.13.39.84.84,0,0,0,.07.26c.08.18.11.38.17.56s.21.62.33.93.2.51.29.76c0,.08.08.15.11.23.1.28.24.54.34.81l.06.08a1.11,1.11,0,0,1,.18.34.37.37,0,0,0,.08.18.82.82,0,0,1,.12.2c.11.17.27.3.39.46a.86.86,0,0,0,.18.2.53.53,0,0,0,.2.13.49.49,0,0,1,.26.19,1.45,1.45,0,0,0,.22.21c0,.14.32.29.24.12a.34.34,0,0,0,.07-.16c0-.1.17-.17.24-.1a.26.26,0,0,0,.32,0c.11,0,.21,0,.31-.08s0,0,.05,0a.34.34,0,0,0,.28,0,6.43,6.43,0,0,0,.77-.29c.19-.1.37-.21.56-.3a.11.11,0,0,0,.07-.06c0-.1.1-.14.17-.18s.25-.17.4-.24a.25.25,0,0,1,.09-.29s0,0,0,0a1.07,1.07,0,0,1,.22-.39,2,2,0,0,0,.18-.32.25.25,0,0,1,.14-.16,3.7,3.7,0,0,0-.07-.48,5,5,0,0,1-.08-.54.94.94,0,0,0-.06-.29,3.34,3.34,0,0,1-.17-.44.23.23,0,0,0-.06-.12l0-.07c0-.16-.11-.29-.13-.45a3,3,0,0,0-.1-.43.19.19,0,0,0,0-.08,1.17,1.17,0,0,1-.18-.48c-.06-.24-.07-.49-.13-.73a2.64,2.64,0,0,0-.15-.55,1.91,1.91,0,0,0-.11-.41,3.42,3.42,0,0,0-.13-.34c-.05-.12-.11-.23-.15-.35s-.09-.21-.12-.31-.14-.34-.19-.52-.1-.24-.13-.37-.14-.35-.18-.53a1.57,1.57,0,0,0-.12-.3,1.38,1.38,0,0,1-.13-.39.75.75,0,0,0-.06-.13c-.12-.29-.26-.57-.36-.87a4,4,0,0,1-.22-.69.65.65,0,0,0,0-.13,1,1,0,0,1,0-.25.76.76,0,0,0-.26-.63.43.43,0,0,1-.14-.21,1,1,0,0,0-.11-.25.15.15,0,0,1,0-.09.55.55,0,0,0-.05-.17.43.43,0,0,1-.06-.2.06.06,0,0,0,0,0,1,1,0,0,1-.14-.52.06.06,0,0,0,0,0c-.06-.12-.07-.25-.12-.37-.13-.29-.22-.59-.34-.88s-.19-.37-.27-.57-.2-.47-.3-.71c0-.07,0-.15,0-.23s-.14-.36-.21-.55-.12-.23-.16-.35-.13-.31-.18-.47a4.73,4.73,0,0,0-.25-.66c-.06-.13-.13-.26-.19-.4l-.09-.26s0,0,0-.07-.13-.33-.21-.49c-.18-.42-.32-.86-.5-1.28-.09-.19-.2-.38-.28-.58s-.13-.4-.22-.59l-.08-.18a2.52,2.52,0,0,1-.19-.82c0-.11,0-.23-.06-.34a1.59,1.59,0,0,0-.16-.43c-.07-.13-.13-.26-.19-.39a2.35,2.35,0,0,1-.14-.45.67.67,0,0,0-.1-.3.82.82,0,0,1-.06-.28.93.93,0,0,0-.15-.39.81.81,0,0,1-.1-.18,2.39,2.39,0,0,0-.12-.22.64.64,0,0,1-.08-.3,3,3,0,0,0-.31-.87.29.29,0,0,1,0-.16,2.26,2.26,0,0,0-.15-.72.25.25,0,0,1,0-.12.68.68,0,0,0-.12-.41c0-.1-.09-.2-.13-.31a.77.77,0,0,1-.1-.4.18.18,0,0,0-.05-.12c-.09-.18-.25-.33-.34-.51a3,3,0,0,1-.29-.75,1.21,1.21,0,0,1-.07-.33c-.1,0,0-.17-.07-.23a.51.51,0,0,1,.15-.32,1.32,1.32,0,0,1,.29-.15,3.75,3.75,0,0,1,.57-.09.17.17,0,0,0,.1,0,.72.72,0,0,1,.25-.07.34.34,0,0,0,.14-.09.17.17,0,0,1,.15-.06.46.46,0,0,0,.33-.11.58.58,0,0,1,.18-.08,2.88,2.88,0,0,1,.42-.11.18.18,0,0,0,.12,0,.26.26,0,0,1,.36,0l0,.06c.11-.06.31-.13.42-.19s.07.11.14.11,0,0,0,0h0a.23.23,0,0,0,.19.07c.12.1.38-.1.39-.14a.19.19,0,0,0,.2,0,.47.47,0,0,1,.1-.36.39.39,0,0,0-.06-.11.14.14,0,0,1,.13-.11.33.33,0,0,0,.21-.09s0,0,.09,0,0,0,0,.09.28.12.26-.18c.05,0,.25,0,.21-.07l.12-.06c0,.05,0,.08,0,.12s.09,0,.1-.08,0,0,.07,0,0-.13.06-.16.18.16.2.11.05,0,.05,0a1.47,1.47,0,0,0,.06.42c.05.09.08.19.12.28s.11.33.18.49l.06.12a2.91,2.91,0,0,1,.18.64c0,.13.06.25.1.37s0,.07,0,.12a.22.22,0,0,1,.11.14s0,.07,0,.09a.07.07,0,0,1,0,.06.23.23,0,0,0,0,.24.17.17,0,0,1,0,.12.33.33,0,0,0,.06.19s0,0,0,0,.15.14.14.24,0,.05,0,.09.1.21.11.28a.62.62,0,0,0,.14.25s.06.08,0,.13a2.19,2.19,0,0,1,.19.58s.06,0,.07.1a.33.33,0,0,0,.11.21.12.12,0,0,1,0,.11.43.43,0,0,0,.1.24.6.6,0,0,1,.08.16c0,.06,0,.1-.06.14.08,0,.11.07.14.11a.9.9,0,0,1,.13.41.46.46,0,0,0,.17.35s0,.07,0,.11,0,.19,0,.25a3.76,3.76,0,0,0,.25.31,1.23,1.23,0,0,1,.22.48.18.18,0,0,0,0,.1.29.29,0,0,1,0,.13.3.3,0,0,0,.09.31l0,0c0,.13.09.22.14.33s.14.26.22.38a.8.8,0,0,1,.11.25c.05.23.13.44.17.67s.08.19.08.29a.05.05,0,0,0,0,0c.11.07.13.19.19.29a.43.43,0,0,1,0,.35.49.49,0,0,1,0,.11c.13.07.17.21.27.31a.18.18,0,0,1,0,.12.61.61,0,0,0,.14.34.67.67,0,0,1,.13.3,1.21,1.21,0,0,1,0,.38.44.44,0,0,0,0,.16s0,.08,0,.12a.37.37,0,0,1,.18.27.33.33,0,0,0,0,.13.26.26,0,0,1,0,.23.13.13,0,0,0,0,.17.13.13,0,0,1,.06.09,2.63,2.63,0,0,0,.27.56.72.72,0,0,1,.18.37.28.28,0,0,0,.07.16.6.6,0,0,1,.12.39s0,0,0,.07a2.7,2.7,0,0,1,.14.4,1.06,1.06,0,0,1,.06.19.88.88,0,0,0,.05.15,1.85,1.85,0,0,1,.2.6.55.55,0,0,0,.05.17c0,.12,0,.25.08.38a1,1,0,0,1,0,.25s0,0,0,.08c.07.19.13.4.22.59s.1.14.13.23a2.49,2.49,0,0,1,.11.29.68.68,0,0,0,.12.22.78.78,0,0,1,.16.33,2.44,2.44,0,0,0,.1.24,2,2,0,0,1,.16.69.11.11,0,0,0,0,.08c.09.1.12.24.22.33a.18.18,0,0,1,.08.17,1.06,1.06,0,0,1,.13.39,1,1,0,0,1,0,.1.16.16,0,0,1,0,.22,1.73,1.73,0,0,0,.27.79.29.29,0,0,1,.13.16,5.14,5.14,0,0,1,.3.94,1.75,1.75,0,0,1,.08.51s0,.09,0,.14c.13.06.14.18.16.29a.4.4,0,0,0,.07.18.75.75,0,0,1,.15.43,1.7,1.7,0,0,0,.3.71,1.06,1.06,0,0,1,.3.47.47.47,0,0,0,.06.15.29.29,0,0,1,0,.14.42.42,0,0,0,.1.26.93.93,0,0,1,.15.47,2.75,2.75,0,0,0,0,.4s0,0,0,0a.54.54,0,0,0,0,.33,1.27,1.27,0,0,0,.15.31c.06.08.11.17.18.25a.18.18,0,0,1,0,.2.34.34,0,0,0,0,.31,1.29,1.29,0,0,1,0,.19,1.42,1.42,0,0,0,.14.36.31.31,0,0,1,0,.19.65.65,0,0,0,0,.31,2.41,2.41,0,0,1,.07.37,1.62,1.62,0,0,0,.12.43.74.74,0,0,1,.08.39.14.14,0,0,0,0,.09.89.89,0,0,1,0,.28,1.24,1.24,0,0,0,0,.27c0,.15,0,.3,0,.45a.38.38,0,0,1-.1.27,2.43,2.43,0,0,1,0,.66.93.93,0,0,1-.12.39.79.79,0,0,0-.13.33,0,0,0,0,1,0,0,2,2,0,0,0-.12.4l-.22.45s-.06.07,0,.12,0,0,0,.06-.1.24-.21.32a.18.18,0,0,0-.07.1.44.44,0,0,1-.08.15c-.07.1-.19.18-.17.33s-.08.17-.14.25a.75.75,0,0,0-.21.35s0,0,0,.06-.13.09-.12.18-.15.23-.23.33a.09.09,0,0,0,0,.1s0,.07-.06.09a.87.87,0,0,0-.2.23.19.19,0,0,1-.06.07c-.11.08-.19.21-.3.3a.61.61,0,0,0-.07.1,1,1,0,0,1-.39.34c-.2.12-.42.22-.62.35h0a2.94,2.94,0,0,1-.44.35l-.27.24a.72.72,0,0,1-.21.12,4.91,4.91,0,0,0-.88.46l-.62.38a.33.33,0,0,1-.14,0h-.35a.82.82,0,0,0-.31.07c-.2.11-.43.16-.63.25a6,6,0,0,1-.9.16,2.17,2.17,0,0,1-.36,0,.72.72,0,0,0-.21.05,1.2,1.2,0,0,1-.5,0h-.09l-.22,0a1.62,1.62,0,0,1-.58-.07.74.74,0,0,1-.26-.1c-.08-.06-.2,0-.28-.11h0c-.21,0-.4-.08-.61-.1a1.54,1.54,0,0,1-.34-.12,2.15,2.15,0,0,1-.27-.1,4.28,4.28,0,0,0-.46-.17,2,2,0,0,1-.2-.11,3.24,3.24,0,0,1-.33-.13.51.51,0,0,1-.24-.17.4.4,0,0,0-.16-.12l-.37-.14c-.05,0-.07-.07-.12-.1l-.22-.14a1,1,0,0,1-.2-.15,2.64,2.64,0,0,0-.47-.33.43.43,0,0,1-.15-.15.3.3,0,0,0-.18-.15.66.66,0,0,1-.22-.15l-.23-.24a.91.91,0,0,0-.16-.13,2.18,2.18,0,0,1-.26-.34.14.14,0,0,0,0-.08,3.34,3.34,0,0,1-.44-.54.37.37,0,0,1-.05-.11,2.11,2.11,0,0,0-.18-.33,1.11,1.11,0,0,1-.15-.31,1.1,1.1,0,0,0-.24-.42.73.73,0,0,1-.2-.34c-.06-.18-.14-.37-.22-.55s-.17-.37-.24-.55a.25.25,0,0,1,0-.11.19.19,0,0,0-.07-.14.42.42,0,0,1-.14-.28.24.24,0,0,0-.11-.2.13.13,0,0,1,0-.09,1.21,1.21,0,0,0-.14-.39l-.24-.55a.2.2,0,0,1,0-.07.16.16,0,0,0-.07-.14.12.12,0,0,1-.08-.09.52.52,0,0,0-.11-.28.93.93,0,0,1-.05-.24l-.12-.42a4,4,0,0,0-.25-.69,1.49,1.49,0,0,1-.18-.3.23.23,0,0,1,0-.14c-.06,0-.09-.06-.11-.12s-.05-.17-.06-.25-.09-.32-.1-.48a.41.41,0,0,0-.1-.21.38.38,0,0,1-.08-.17c0-.18-.13-.34-.17-.51a.9.9,0,0,0-.13-.28,1.71,1.71,0,0,0-.22-.45.37.37,0,0,1,0-.15,1.57,1.57,0,0,0-.16-.46,1.61,1.61,0,0,1-.09-.29c0-.1,0-.21-.06-.31a.47.47,0,0,0-.06-.15,3.75,3.75,0,0,1-.28-.65,1,1,0,0,0-.17-.44c0-.22-.17-.41-.22-.62a1.3,1.3,0,0,0-.1-.25,2.29,2.29,0,0,1-.09-.28,1.37,1.37,0,0,0-.11-.36.83.83,0,0,1-.08-.22.33.33,0,0,0-.08-.18.2.2,0,0,1-.06-.12,8,8,0,0,1-.36-.92.42.42,0,0,0-.09-.16.21.21,0,0,1-.05-.13,1.08,1.08,0,0,0-.1-.35,4.83,4.83,0,0,1-.24-.67,3,3,0,0,0-.28-.63,3.64,3.64,0,0,1-.22-.49c0-.09-.1-.18-.15-.27a.53.53,0,0,0-.06-.1.73.73,0,0,1,0-.54.66.66,0,0,0,0-.2s-.05-.09-.1-.12a1,1,0,0,1-.21-.14.9.9,0,0,1-.12-.36,1.91,1.91,0,0,0-.13-.61,4.35,4.35,0,0,1-.22-.54,2.57,2.57,0,0,1-.15-.47,1.24,1.24,0,0,0-.15-.33.8.8,0,0,1-.08-.16c-.08-.2-.21-.37-.28-.57a1.74,1.74,0,0,1-.19-.61c0-.1,0-.2.1-.26a.27.27,0,0,1-.09-.22c-.05,0-.09,0-.11-.08a.44.44,0,0,0-.19-.25.1.1,0,0,1,0-.08c0-.13-.05-.26-.08-.39a.86.86,0,0,0-.15-.42.53.53,0,0,1-.14-.35.16.16,0,0,0-.05-.14.43.43,0,0,1-.09-.33s0-.1,0-.14c-.12-.06-.13-.18-.16-.29s0-.09.06-.17-.25-.52-.3-.59a2.87,2.87,0,0,1-.28-.48.66.66,0,0,1-.06-.2,1.14,1.14,0,0,0-.09-.26.84.84,0,0,1-.1-.39c0-.07-.07-.09-.11-.13s0-.09,0-.12a.24.24,0,0,0-.06-.1.26.26,0,0,1-.09-.19.4.4,0,0,0-.08-.23.41.41,0,0,1-.05-.29.49.49,0,0,0,0-.12c0-.11,0-.11.07-.19-.08,0-.09-.09-.09-.16s-.09,0-.15,0a.25.25,0,0,1-.06-.14.2.2,0,0,0,0-.08.34.34,0,0,1-.1-.23.53.53,0,0,0-.13-.27.33.33,0,0,1-.08-.25s0-.09,0-.12A.34.34,0,0,1,141.51,90.48ZM116.32,99a1.14,1.14,0,0,0,.54-.2,2.33,2.33,0,0,1,.44-.1c.15,0,.12,0,.22-.13a.57.57,0,0,0,.38-.15.32.32,0,0,1,.09,0h0c.12-.09.28-.11.38-.23a.3.3,0,0,1,.21-.1,2.07,2.07,0,0,0,.56-.12c.12-.07.24-.14.35-.22s.06,0,.09,0a.62.62,0,0,0,.39-.12s.13,0,.19-.06.16.2.18.13.05-.06.1-.06a.54.54,0,0,0,.3-.06c.21-.08.43-.17.64-.27a.39.39,0,0,0,.14-.08.24.24,0,0,1,.11-.06,3.19,3.19,0,0,0,.71-.31,1.75,1.75,0,0,1,.32-.12,1.83,1.83,0,0,0,.48-.25,1,1,0,0,1,.29-.1,3.52,3.52,0,0,0,.45-.18.41.41,0,0,1,.22,0,.13.13,0,0,0,.14.09.9.9,0,0,0,.33.34.35.35,0,0,1,.11.13,1.12,1.12,0,0,0,.17.21s.06.1.1.15a2.16,2.16,0,0,1,.21.29,1.22,1.22,0,0,0,.26.3,2.14,2.14,0,0,1,.51.53,2.82,2.82,0,0,0,.24.36.19.19,0,0,1,.05.1s0,0,0,0,.16.23.28.31.06.1.1.14a6.06,6.06,0,0,1,.35.53,1.61,1.61,0,0,0,.27.36.18.18,0,0,1,0,.07,2.25,2.25,0,0,0,.34.47c.06.08.08.17.14.24s.13.11.18.18a1.58,1.58,0,0,1,.15.24l0,0c.14.07.18.22.27.32a3.43,3.43,0,0,1,.24.33,3.19,3.19,0,0,0,.26.38.88.88,0,0,1,.12.21.24.24,0,0,0,.13.15c.09,0,.12.12.17.19s.11.19.21.23l0,0c0,.1.11.15.15.22s.18.32.27.48a.38.38,0,0,0,.11.11.78.78,0,0,1,.24.27,1.24,1.24,0,0,0,.25.35s.06.09.09.13a3.3,3.3,0,0,0,.3.43,3.9,3.9,0,0,1,.25.36,2.53,2.53,0,0,1,.18.27l0,.06c.15.07.19.22.27.33a2.88,2.88,0,0,0,.22.27c.1.12.19.26.29.39a1.92,1.92,0,0,1,.25.38c0,.05.09.08.13.13.13.21.25.42.37.63a2.22,2.22,0,0,0,.43.54.24.24,0,0,1,.06.08.21.21,0,0,0,.13.11.24.24,0,0,1,.16.15,2.3,2.3,0,0,0,.25.43,2.49,2.49,0,0,0,.29.43,3.2,3.2,0,0,0,.25.27.28.28,0,0,1,.1.21.77.77,0,0,0,.11.3s.05.08.07.13a1.63,1.63,0,0,0,.23.35,1,1,0,0,1,.08.14,1.13,1.13,0,0,0,.21.31.36.36,0,0,1,.07.1,1.9,1.9,0,0,0,.23.39c.15.19.31.37.46.55a.46.46,0,0,0,.16.11l.13.06a.29.29,0,0,0,.13,0,.24.24,0,0,0,.08-.34,1.12,1.12,0,0,1-.14-.4c0-.14-.07-.27-.1-.41a.36.36,0,0,1,0-.15.34.34,0,0,0-.07-.19,2,2,0,0,1-.34-.55.91.91,0,0,0-.2-.32c-.05,0-.05-.1-.07-.15a1.3,1.3,0,0,1-.13-.41.58.58,0,0,0,0-.14,3,3,0,0,1-.19-.35,1.34,1.34,0,0,1-.09-.26.31.31,0,0,0-.06-.19s0-.06,0-.1.12,0,.18,0-.15,0-.23,0-.14-.34-.2-.52a.47.47,0,0,1,0-.35l0-.11s-.06,0-.08,0-.15-.07-.19-.14a1,1,0,0,1-.06-.25,2.66,2.66,0,0,0-.09-.46.51.51,0,0,0-.09-.18c-.06-.1-.12-.2-.19-.3a.42.42,0,0,1-.06-.14c0-.14-.1-.26-.12-.4a1.16,1.16,0,0,0-.13-.41.22.22,0,0,1,0-.16c0-.11-.05-.21-.06-.33s0,0-.05,0a.1.1,0,0,1,0-.06.75.75,0,0,0-.2-.3s0-.13-.1-.18a1.32,1.32,0,0,1-.17-.41c-.1-.23-.16-.46-.26-.67a1.73,1.73,0,0,1-.14-.44,2.74,2.74,0,0,0-.05-.28c0-.07-.08-.13-.11-.21a3.5,3.5,0,0,1-.24-.56,1.24,1.24,0,0,0-.21-.45c-.06-.1-.12-.19-.18-.3s0,0,0-.07a.72.72,0,0,0-.05-.41l-.12-.33a.17.17,0,0,1,0-.12,1,1,0,0,0,0-.29.16.16,0,0,1,0-.1.15.15,0,0,0-.07-.2c-.07,0-.07-.14-.11-.21s0-.09,0-.13,0-.06,0-.11-.15-.15-.14-.27a.2.2,0,0,0-.05-.14.42.42,0,0,1-.1-.37.33.33,0,0,1-.13-.3.18.18,0,0,0,0-.13.17.17,0,0,1,0-.26s0,0,0,0a.31.31,0,0,1-.09-.07.34.34,0,0,1,0-.11s-.08,0-.12,0-.08-.17-.13-.25a.78.78,0,0,1-.11-.2c0-.09-.09-.17-.13-.26a1,1,0,0,1-.11-.4.33.33,0,0,0,0-.14s0,0,0-.08,0-.15,0-.22,0-.21-.09-.31,0-.08-.07-.09a.18.18,0,0,1-.11-.13l-.15-.34a.48.48,0,0,1-.05-.17.86.86,0,0,0,0-.32c0-.13,0-.18.1-.24a3.66,3.66,0,0,1,.43-.15,1.52,1.52,0,0,0,.45-.16,1.83,1.83,0,0,1,.33-.11c.19-.06.39,0,.58-.12s.08,0,.12,0a.36.36,0,0,1,.24-.18c.14,0,.28-.08.41-.14a3.4,3.4,0,0,1,.56-.21s0,0,0,0a1.79,1.79,0,0,1,.63-.24.67.67,0,0,0,.15-.06,1,1,0,0,1,.29-.11.08.08,0,0,0,.07,0c0-.05.11,0,.16-.06l.32-.11s.05,0,.08-.08a.14.14,0,0,1,.17-.06.14.14,0,0,0,.11,0,3.22,3.22,0,0,0,.51-.21.5.5,0,0,1,.13,0s.05.07.07.11a4.15,4.15,0,0,1,.19.69.42.42,0,0,0,0,.1,1,1,0,0,1,.15.38l0,.09c.07.2.15.39.2.58a1.52,1.52,0,0,0,.18.36,2.14,2.14,0,0,1,.16.39s0,0,0,.06c.09.2.18.4.28.6a1.11,1.11,0,0,1,.14.41s.05.06.05.1,0,.14.06.22a.47.47,0,0,0,.09.22,1.79,1.79,0,0,1,.2.39.84.84,0,0,1,.11.3.71.71,0,0,0,.17.44l0,0a2.48,2.48,0,0,0,.17.37c0,.13.1.26.14.39a1.46,1.46,0,0,1,.07.19c0,.12.09.24.12.37s.05.14.07.22a4.27,4.27,0,0,0,.24.65.19.19,0,0,1,0,.07.59.59,0,0,0,.1.26,2.35,2.35,0,0,1,.18.4,3.55,3.55,0,0,0,.22.65.19.19,0,0,1,0,.07.89.89,0,0,0,.09.26,3.49,3.49,0,0,1,.2.44,3.33,3.33,0,0,1,.21.63,0,0,0,0,0,0,0c.08.1.07.22.13.32a.22.22,0,0,1,.05.11,3.89,3.89,0,0,0,.18.58c0,.11.08.22.1.33a.61.61,0,0,0,0,.18.37.37,0,0,1,0,.18s0,.07,0,.1c.11.22.16.46.27.67a.37.37,0,0,1,0,.23.15.15,0,0,0,.05.13.51.51,0,0,1,.15.33.62.62,0,0,0,.1.24c.08.18.15.35.22.53s.09.28.13.41a4.75,4.75,0,0,0,.21.67c0,.09.06.19.09.28a.15.15,0,0,0,0,.1,1.14,1.14,0,0,1,.15.34,1,1,0,0,1,.11.32,2.79,2.79,0,0,0,.14.37,1.47,1.47,0,0,1,.13.37.19.19,0,0,0,.07.12c.05,0,.05.1.05.16a.42.42,0,0,0,0,.2,1.28,1.28,0,0,1,.13.39.79.79,0,0,0,.11.38s0,.1,0,.15l0,.34a.31.31,0,0,0,.05.1,1.43,1.43,0,0,1,.23.52.09.09,0,0,0,0,.08.55.55,0,0,1,.12.24,2.66,2.66,0,0,0,.2.56.53.53,0,0,1,.08.24.48.48,0,0,0,.06.18c.1.25.12.51.21.75s.21.53.33.78a2.16,2.16,0,0,1,.14.43,2.15,2.15,0,0,0,.13.32c.06.18.17.34.23.54a2.32,2.32,0,0,0,.25.53.77.77,0,0,1,.14.4.84.84,0,0,0,.2.45.68.68,0,0,1,.12.24.72.72,0,0,0,.1.22.78.78,0,0,1,.12.22c.06.16.12.31.17.46l.09.3c0,.11.11.19.15.3a2.16,2.16,0,0,1,.16.49,1.6,1.6,0,0,0,.16.48,7.94,7.94,0,0,1,.31.81,2.43,2.43,0,0,0,.26.54.34.34,0,0,1,.06.15,1.33,1.33,0,0,0,.23.44.9.9,0,0,1,.22.42.37.37,0,0,0,.05.11,3.54,3.54,0,0,1,.23.48,1.8,1.8,0,0,1,.21.56.66.66,0,0,0,.1.25.42.42,0,0,1,0,.13,1.19,1.19,0,0,0,.16.39.75.75,0,0,1,.09.25,1.09,1.09,0,0,0,.1.25,1.11,1.11,0,0,1,.07.16c.13.24.14.52.28.75s.14.22.13.36,0,0,0,0a2,2,0,0,1,.2.58v0c.12.14.1.33.19.48a.43.43,0,0,1,0,.16,3,3,0,0,0,.11.4,1.59,1.59,0,0,1,.12.44v0c.1.08.08.22.15.31a.69.69,0,0,1,0,.13.12.12,0,0,1-.06.15l-.08,0-1.63.74a.48.48,0,0,1-.39,0,.16.16,0,0,0-.1,0c-.08.1-.2.09-.3.15l-.21.1c-.19.09-.39.13-.57.22l-.18.06a.64.64,0,0,0-.29.13.42.42,0,0,1-.22.08,1.85,1.85,0,0,0-.62.18l-.38.17a.76.76,0,0,1-.44.09.53.53,0,0,0-.34.13.28.28,0,0,0-.11.08.12.12,0,0,1-.09.05c-.12,0-.23.06-.35.06a.58.58,0,0,0-.19,0c-.18.05-.35.16-.53.21s-.17.12-.27.14a.77.77,0,0,0-.38.14,1.89,1.89,0,0,1-.42.24c-.11,0-.12-.07-.13-.19a.36.36,0,0,0-.09-.26,1.45,1.45,0,0,0-.17-.26,3.1,3.1,0,0,1-.51-.68c-.05-.08-.14-.12-.18-.21a1.11,1.11,0,0,1-.17-.3.3.3,0,0,0-.16-.22s0,0,0,0a1.55,1.55,0,0,0-.14-.29.2.2,0,0,0-.09-.13.07.07,0,0,1,0-.05.34.34,0,0,0-.16-.23c-.08-.06-.14-.14-.22-.2a.71.71,0,0,1-.1-.14.94.94,0,0,0-.17-.31.2.2,0,0,1,0-.08.14.14,0,0,0,0-.09,1.63,1.63,0,0,1-.24-.4s0-.06,0-.09a.78.78,0,0,1-.47-.43.25.25,0,0,1-.14-.11,2.31,2.31,0,0,0-.2-.24.72.72,0,0,1-.17-.23c-.07-.21-.26-.35-.28-.58a1.37,1.37,0,0,1-.19-.36.41.41,0,0,1,0-.22,1.72,1.72,0,0,1-.4-.31l0,0c-.08-.2-.27-.33-.36-.53s-.19-.23-.25-.37-.09-.08-.13-.12-.25-.31-.39-.45-.19-.21-.29-.32a1.32,1.32,0,0,1-.32-.45c-.15-.11-.17-.3-.27-.44s0-.14-.09-.19l-.14-.19a1.28,1.28,0,0,1-.14-.23,1.25,1.25,0,0,0-.21-.35,3.55,3.55,0,0,1-.4-.47,2.14,2.14,0,0,1-.13-.19,1.61,1.61,0,0,0-.33-.41,1.13,1.13,0,0,1-.3-.38c0-.06,0-.13-.11-.15s0,0,0,0c-.07-.18-.2-.33-.28-.5a1.37,1.37,0,0,0-.26-.37l-.06-.11a.9.9,0,0,0-.23-.32s0,0,0,0a5.57,5.57,0,0,0-.43-.56.75.75,0,0,1-.09-.15,1.14,1.14,0,0,0-.26-.35c-.11-.11-.19-.24-.29-.35a1.28,1.28,0,0,1-.16-.28.62.62,0,0,0-.15-.22,1.68,1.68,0,0,1-.3-.35.37.37,0,0,1-.07-.2c0-.07-.69-.56-.7-.81,0,0-.35.1-.33.23a2.86,2.86,0,0,0,0,.42c.05.11.05.43.12.53s.09.4.2.66a1.06,1.06,0,0,0,.12.2,3.24,3.24,0,0,1,.13.41s0,0,0,.06a2.72,2.72,0,0,1,.13.37c0,.11.1.21.12.32a1.66,1.66,0,0,0,.14.37s0,.06,0,.09a.48.48,0,0,0,.07.23.72.72,0,0,1,.09.2c0,.14.08.28.11.43s0,.08.05.12a3.47,3.47,0,0,0,.17.45.42.42,0,0,1,0,.12.19.19,0,0,0,.05.14.51.51,0,0,1,.11.31,1.73,1.73,0,0,0,.12.43c.07.24.17.48.24.72s.12.32.18.48a.31.31,0,0,1,0,.17.1.1,0,0,0,0,.07,3.12,3.12,0,0,1,.18.48,4.45,4.45,0,0,1,.24.7.09.09,0,0,0,0,.06.25.25,0,0,1,.08.15,2.77,2.77,0,0,0,.26.64.42.42,0,0,1,.06.21.19.19,0,0,0,.05.16,1.59,1.59,0,0,1,.21.41c.09.18.17.38.25.57a.91.91,0,0,0,.14.3s0,.1,0,.15a.85.85,0,0,0,.13.25.27.27,0,0,1,.07.14c0,.1.11.18.11.29a.06.06,0,0,0,0,0,1.17,1.17,0,0,1,.19.54.21.21,0,0,0,0,.06,1.13,1.13,0,0,1,.17.39s0,.07,0,.11a1.9,1.9,0,0,1,.15.46s0,0,0,.05a1.3,1.3,0,0,1,.18.4c0,.08.09.15.13.22a5.71,5.71,0,0,1,.21.58c0,.13.12.26.16.4a2.11,2.11,0,0,1,.11.38c0,.12.06.23.09.35a2.37,2.37,0,0,0,.08.34c.1.26.11.55.19.83s.15.56.22.84c0,.13,0,.26.08.38s-.06.19-.17.22a2.81,2.81,0,0,0-.52.26l-.11.05c-.29.11-.56.24-.83.37a1.13,1.13,0,0,1-.35.09.76.76,0,0,0-.33.11.12.12,0,0,1-.1,0l-.06,0c-.17.1-.37.15-.54.24a5.59,5.59,0,0,1-.57.22h0a1.28,1.28,0,0,1-.59.19l-.13,0-.9.4c-.12.05-.19.16-.28.23s-.18,0-.2-.15a2,2,0,0,1-.09-.41.71.71,0,0,0-.09-.28c-.07-.15-.09-.32-.17-.47a2.14,2.14,0,0,1-.16-.42,2.64,2.64,0,0,1-.12-.4s0,0,0,0a.17.17,0,0,1-.08-.16.87.87,0,0,0-.11-.32,1.27,1.27,0,0,1-.06-.18,2.7,2.7,0,0,0-.18-.57s0,0,0,0a.75.75,0,0,0-.1-.24.92.92,0,0,1-.14-.32.21.21,0,0,1,0-.11.23.23,0,0,0,0-.2c-.06-.09-.07-.2-.13-.28a.34.34,0,0,0-.09-.08c0-.07.07-.14,0-.2l0,0a.17.17,0,0,1-.11-.09c0-.12-.14-.21-.13-.34a.29.29,0,0,0-.07-.23.62.62,0,0,1-.12-.3.38.38,0,0,0,0-.16.63.63,0,0,1-.15-.41s0-.07,0-.1a.06.06,0,0,0,0-.06.75.75,0,0,1-.1-.33s0-.08-.06-.13a1.36,1.36,0,0,1-.07-.35c0-.06.1,0,.15-.07s.05.11.1.11.08,0,.13,0-.09,0-.11-.1a0,0,0,0,0,0,0c.05-.06.13,0,.19,0s.16,0,.22-.12a.38.38,0,0,1,0-.44l-.06-.15c-.09,0-.1,0-.08.13s0,.1-.07.15-.13,0-.15.11.07,0,.11.05a.11.11,0,0,1,.1.12s0,.07-.06.07-.07,0-.08,0,0-.05,0-.08l-.14.07a.18.18,0,0,0-.11.1c0,.1-.11.09-.17,0a.73.73,0,0,1-.17-.49s-.07-.11,0-.16a.71.71,0,0,1,.15-.08.29.29,0,0,1,.21-.06s0,0,.07-.06-.12-.16-.07-.26-.08,0-.1,0,0-.07,0-.11-.17.1-.26.16.09.11.08.18,0,.08,0,.09-.1,0-.1,0-.11-.18-.13-.28a.65.65,0,0,1,0-.31.34.34,0,0,0,0-.1s-.09,0-.13,0,0-.07.1-.11,0-.08,0-.12-.08,0-.13,0,0,0,0-.07-.08-.14-.1-.22a1.12,1.12,0,0,0-.05-.13.19.19,0,0,1,.09-.26,0,0,0,0,0,0-.07c-.06,0,0,.07-.11.07s-.05,0-.06-.09a1,1,0,0,0-.11-.23.92.92,0,0,1-.11-.4.5.5,0,0,0,0-.13,1.85,1.85,0,0,1-.15-.39.25.25,0,0,0,0-.12.17.17,0,0,1,0-.21l-.07-.05s0,0-.06-.06a1,1,0,0,1-.11-.43s0,0,0-.07a.14.14,0,0,0,.07-.08c-.07,0-.11.05-.18,0a1.94,1.94,0,0,1-.24-.6c0-.12-.06-.24-.1-.37a.1.1,0,0,0,0-.07.25.25,0,0,1,0-.33c-.12,0-.15,0-.2-.11a4.67,4.67,0,0,1-.24-.62c-.1-.23-.14-.47-.26-.69s-.09-.26-.17-.37-.15-.37-.15-.58a.76.76,0,0,0-.09-.28,1.38,1.38,0,0,1-.12-.34.36.36,0,0,0,0-.11c-.08-.12-.11-.26-.2-.37a.54.54,0,0,1-.09-.22.15.15,0,0,0,0-.09.25.25,0,0,1-.05-.15,1.29,1.29,0,0,0-.12-.38l0-.05a4.53,4.53,0,0,0-.3-.8s0-.11,0-.16a.38.38,0,0,0-.08-.17.06.06,0,0,1,0-.07c0-.08,0-.12-.09-.19a2.22,2.22,0,0,1-.28-.5c-.07-.19-.15-.37-.23-.56a1.13,1.13,0,0,1-.08-.24.4.4,0,0,0-.07-.19,1.31,1.31,0,0,1-.16-.47c0-.06,0-.11-.08-.13s.11-.12.11-.21-.14.13-.23,0a1.87,1.87,0,0,1-.08-.28c0-.14,0-.14.11-.2l0,0s-.06,0-.08,0l-.09,0a.08.08,0,0,1-.07-.07c0-.1,0-.15-.09-.22a.4.4,0,0,1-.07-.19c0-.09,0-.25-.09-.22a1.53,1.53,0,0,1-.24-.62s.08,0,.14,0a.3.3,0,0,1,.1.4.69.69,0,0,0,.17-.1s0-.08,0-.11a.51.51,0,0,0-.15-.21s-.07-.07,0-.13,0-.12,0-.18,0-.13,0-.2a.15.15,0,0,0-.14.08l-.15.23s0,0-.11.08a.42.42,0,0,0-.12-.28c-.09-.1-.11-.24-.18-.34s0-.1,0-.15-.12-.38-.19-.56-.1-.29-.14-.44-.1-.24-.15-.36-.07-.12,0-.19,0,0,0,0a.45.45,0,0,1,0-.3.07.07,0,0,0-.06-.09s0,0,0,0,.06-.06.07-.11a.55.55,0,0,1-.24-.35l0,0a2.64,2.64,0,0,1-.3-.7A.21.21,0,0,1,120,108c-.07,0-.14,0-.17-.06a.06.06,0,0,1,0-.07.05.05,0,0,1,.08,0s0,0,.06,0,0,0,.07-.06-.16-.09-.18-.19-.08,0-.13,0,0-.2,0-.29-.07,0-.11,0,0-.08,0-.12-.1,0-.14-.09a.56.56,0,0,0-.06-.21,3.21,3.21,0,0,1-.12-.33l0-.08a.79.79,0,0,1-.09-.23.7.7,0,0,0-.09-.24.85.85,0,0,1-.06-.17,2.35,2.35,0,0,1-.14-.37,1.8,1.8,0,0,1-.08-.21,2.06,2.06,0,0,0-.12-.35.3.3,0,0,1,0-.1.15.15,0,0,0,0-.11,3.14,3.14,0,0,1-.18-.37,1.82,1.82,0,0,1-.17-.44c0-.12-.07-.22-.1-.34s-.14-.36-.2-.54a1.09,1.09,0,0,0-.2-.44.08.08,0,0,1,0-.07.37.37,0,0,0-.1-.25.33.33,0,0,1,0-.15.7.7,0,0,0-.08-.27.59.59,0,0,1-.09-.3.22.22,0,0,0,0-.11l-.26-.56c0-.11-.07-.23-.12-.34s-.15-.34-.23-.51a3.66,3.66,0,0,1-.22-.58.12.12,0,0,0,0-.08.5.5,0,0,1-.1-.11.16.16,0,0,0-.22-.11c0-.06,0-.11,0-.15A.15.15,0,0,1,116.32,99ZM96,106.33a.79.79,0,0,1,.38-.25,2.86,2.86,0,0,0,.41-.15,4.57,4.57,0,0,1,.62-.22,4,4,0,0,1,.52-.13l.16,0,.56-.2c.13,0,.26-.07.38-.13a.52.52,0,0,1,.33-.06s0,0,0,0a.6.6,0,0,0,.19,0c.06,0,.11,0,.1-.11a.11.11,0,0,1,.07-.12.1.1,0,0,1,.13.06h0c.05,0,.09,0,.14,0s0-.13.12-.16l.63-.28a2.47,2.47,0,0,1,.36-.11.69.69,0,0,0,.13,0,.91.91,0,0,1,.42-.14,1.27,1.27,0,0,0,.39-.12c.14-.06.28-.09.42-.16a.73.73,0,0,1,.26-.09s.1,0,.16,0,.08,0,.12,0,0-.08,0-.08.1-.05.16,0a.2.2,0,0,0,.17,0l.36-.13a.43.43,0,0,1,.22-.06.11.11,0,0,0,.08,0,2.19,2.19,0,0,1,.38-.17c0-.09,0-.12.12-.16.26-.12.54-.2.8-.32a2.92,2.92,0,0,1,.49-.19,3.51,3.51,0,0,1,.53-.15.28.28,0,0,0,.12,0l.36-.23c.08-.06.17-.05.25-.09s.35-.06.51-.14l.16-.1a.69.69,0,0,1,.31-.12,1.62,1.62,0,0,0,.38-.09.4.4,0,0,0,.21-.12.16.16,0,0,1,.09,0l.53-.19.31-.11c.12,0,.23-.07.35-.09a1.12,1.12,0,0,0,.44-.17,1.55,1.55,0,0,1,.29-.14l.28-.1a1,1,0,0,1,.38-.06s.09,0,.1,0,.09,0,.14.07.09.11.14.24a1.27,1.27,0,0,1,.11.38.86.86,0,0,0,.12.35,1.6,1.6,0,0,1,.18.49,1.43,1.43,0,0,0,.18.47,4,4,0,0,1,.17.36.66.66,0,0,0,.09.19s0,0,0,0c0,.2.14.37.16.57a.77.77,0,0,0,.1.25c.13.28.25.55.38.82a2.19,2.19,0,0,1,.17.55.86.86,0,0,0,.09.27.58.58,0,0,1,0,.14c0,.07.08.14,0,.22a.53.53,0,0,1-.24.27,2.46,2.46,0,0,0-.32.19,2.53,2.53,0,0,1-.37.18.56.56,0,0,1-.29.06c-.06,0-.09,0-.14.06a1.14,1.14,0,0,0-.35.17c-.09.07-.19.11-.28.17a.9.9,0,0,1-.23.08c-.15,0-.3,0-.45,0a.55.55,0,0,0-.21.12.82.82,0,0,1-.47.24,3.38,3.38,0,0,0-.34.08,1.21,1.21,0,0,1-.37.11.36.36,0,0,0-.17.07,1.36,1.36,0,0,1-.39.22c-.23.09-.49.13-.73.24a.82.82,0,0,0-.19.09.9.9,0,0,1-.23.08l-.46.09-.06,0a1.41,1.41,0,0,1-.39.19l-.83.3,0,0c-.12,0-.21.07-.31.11a.24.24,0,0,1-.08.06c-.16,0-.31.16-.47.22s-.43.2-.66.28a.28.28,0,0,0-.19.26.34.34,0,0,1,0,.1.72.72,0,0,0,0,.54,4.49,4.49,0,0,0,.31.71.67.67,0,0,1,.07.24c0,.12.07.24.11.36s0,.22.07.33a3,3,0,0,0,.21.44,1.73,1.73,0,0,1,.18.39c.07.22.2.41.29.62a1.64,1.64,0,0,1,.13.43c0,.1.07.18.09.27.07.27.18.54.24.82a1.23,1.23,0,0,0,.16.35,2.57,2.57,0,0,1,.23.6,2.22,2.22,0,0,1,.09.37,2.7,2.7,0,0,0,.19.59.58.58,0,0,0,.08.18s0,0,0,.06a2.33,2.33,0,0,0,.16.53c.07.17.09.36.17.53s.17.46.25.69a.15.15,0,0,0,.13.12.51.51,0,0,1,.17.07.2.2,0,0,0,.15,0c.11,0,.23,0,.32-.09a.23.23,0,0,1,.1,0l.65-.24a.42.42,0,0,1,.15,0,.34.34,0,0,0,.17-.08,2.65,2.65,0,0,1,.37-.12.39.39,0,0,0,.18-.06s0,0,.08,0a.63.63,0,0,0,.27-.1l0,0c.41-.18.82-.34,1.24-.48.14,0,.26-.12.4-.15s0,0,0,0,.15-.08.24-.09a1.91,1.91,0,0,0,.41-.11c.21-.08.42-.17.64-.23a1.43,1.43,0,0,0,.44-.19.19.19,0,0,1,.1,0,.34.34,0,0,0,.19-.07.07.07,0,0,1,.06,0,.9.9,0,0,0,.42-.16.62.62,0,0,1,.19-.07,4.21,4.21,0,0,0,.61-.16,2.27,2.27,0,0,0,.25-.06.11.11,0,0,1,.13,0,1.53,1.53,0,0,1,.35.53.64.64,0,0,0,.08.19c.06.07,0,.16,0,.24a4.13,4.13,0,0,0,.13.63,2,2,0,0,0,.13.49,5.16,5.16,0,0,1,.21.49,3.74,3.74,0,0,1,.17.54c0,.14.07.29.1.43a1.76,1.76,0,0,0,.14.23,2.58,2.58,0,0,1,.23.54v0c.09.22.13.45.23.66a2.35,2.35,0,0,1,.22.68.38.38,0,0,0,.06.16s0,.12,0,.16-.32.15-.45.15a.41.41,0,0,0-.16,0,2.41,2.41,0,0,0-.78.27s-.05,0-.06.06a1.79,1.79,0,0,1-.59.15c-.2.07-.41.16-.62.22a2.24,2.24,0,0,0-.59.27c-.05,0-.13,0-.16.07a.33.33,0,0,1-.3.08.57.57,0,0,0-.22,0,6.55,6.55,0,0,0-.85.29,1.53,1.53,0,0,0-.4.21l-.12.06s-.09,0-.1.1a.14.14,0,0,0-.2,0s-.11,0-.16,0a1.2,1.2,0,0,0-.46.16.62.62,0,0,1-.19.07l-.21.08c-.07,0-.14,0-.15.13a1,1,0,0,1-.3.21.4.4,0,0,0-.25.24.48.48,0,0,0-.08.28,1.27,1.27,0,0,0,.11.38,1.6,1.6,0,0,1,.1.31,1.33,1.33,0,0,0,.13.43,1.28,1.28,0,0,1,.07.39.33.33,0,0,0,0,.15.33.33,0,0,1,.08.18.69.69,0,0,0,.08.28c0,.13.06.26.09.39a2.37,2.37,0,0,0,.21.58.88.88,0,0,1,.12.26,2.4,2.4,0,0,0,.17.4,2.13,2.13,0,0,0,.23.45,1.69,1.69,0,0,1,.13.31c.09.19.16.38.26.56,0,0,0,.06,0,.09s.13.31.17.47a.33.33,0,0,0,.06.1,1.65,1.65,0,0,1,.18.41c0,.13,0,.28.08.41a.15.15,0,0,0,0,.07,4.43,4.43,0,0,0,.29.46l.11.15a.38.38,0,0,1,.08.23,1,1,0,0,0,.16.59.72.72,0,0,1,.09.2.35.35,0,0,0,.24.22,2,2,0,0,0,.29.11h.07a1.9,1.9,0,0,0,.68-.27h0a4.71,4.71,0,0,0,.54-.12,1,1,0,0,0,.38-.15l0,0a8.87,8.87,0,0,0,1-.34c.08,0,.16-.08.23-.1a3.19,3.19,0,0,1,.35-.14,1.69,1.69,0,0,0,.43-.15.89.89,0,0,1,.4-.12.59.59,0,0,0,.19-.05l.43-.13c.23-.07.46-.15.68-.24a.55.55,0,0,1,.22-.06.21.21,0,0,0,.13-.05c.1-.07.24-.08.33-.17h0c.12,0,.22-.08.35-.07l.11,0c.15-.07.31-.12.47-.18s0,0,0,0,.21,0,.31-.05a.18.18,0,0,0,.1,0,.46.46,0,0,1,.44-.17.7.7,0,0,0,.39-.13s.12,0,.15-.1a.3.3,0,0,0,.21,0,.34.34,0,0,1,.37.11.91.91,0,0,1,.28.39.21.21,0,0,0,.06.1.29.29,0,0,1,.1.18c0,.2.1.4.15.6a2,2,0,0,1,.12.44s0,0,0,0a1.88,1.88,0,0,1,.14.24,2.54,2.54,0,0,1,.16.38,3.57,3.57,0,0,0,.19.45.21.21,0,0,1,0,.1,1.79,1.79,0,0,0,.1.35,3.69,3.69,0,0,1,.11.45,8.79,8.79,0,0,0,.22,1,.38.38,0,0,1,.09.27,5.25,5.25,0,0,1,0,.56.12.12,0,0,1,0,.08.74.74,0,0,1-.33.3s-.12,0-.16.07-.38.1-.57.14a2.91,2.91,0,0,0-.39.12c-.09,0-.26.23-.35.21a.36.36,0,0,1-.26.12.14.14,0,0,0-.08,0,.21.21,0,0,1-.1,0c-.15,0-.13,0-.27,0a1.38,1.38,0,0,0-.29.08,1,1,0,0,1-.22.14.36.36,0,0,1-.24.08h0c-.11.08,0,.07-.15.11a2.33,2.33,0,0,1-.36.08.74.74,0,0,0-.3.08l-.06,0c-.12,0-.56.29-.58.28s-.4.13-.48.12a.4.4,0,0,0-.19,0s0,.06,0,.08a.35.35,0,0,1-.14.06c-.13,0-.05.09-.18.05s-.17.06-.26.07-.16.12-.16.14-.08,0-.16,0-.17.15-.23.17-.26.21-.37.15-.23,0-.32.06-.21,0-.3.1-.18,0-.25.06a.59.59,0,0,1-.2.09c-.13,0-.25.09-.38.11a4.09,4.09,0,0,1-.45.23,5.17,5.17,0,0,1-.56.22l-.57.2c-.22.07-.45.18-.67.26l-.4.08-.48.15a.94.94,0,0,0-.23.1c-.07.05-.18,0-.23.1s-.32.1-.45.13-.23.13-.35.17-.51.18-.75.28a.2.2,0,0,1-.11,0,.45.45,0,0,0-.22.08.93.93,0,0,1-.27.12c-.17,0-.17.12-.35.12h0c-.22.1-.46.12-.68.22a.58.58,0,0,1-.14,0,.2.2,0,0,1-.22-.14,1.43,1.43,0,0,1-.14-.5,2.52,2.52,0,0,0-.21-.57.78.78,0,0,1,0-.18c-.07-.27-.12-.54-.17-.81a2,2,0,0,0-.25-.75,1.43,1.43,0,0,1-.17-.49.92.92,0,0,0-.08-.25,1.71,1.71,0,0,1-.13-.38l-.1-.22a1.14,1.14,0,0,1-.12-.41.3.3,0,0,0,0-.1,4.52,4.52,0,0,1-.21-.62.26.26,0,0,0-.07-.11.54.54,0,0,1-.12-.44.45.45,0,0,0,0-.23,1,1,0,0,1-.11-.29.28.28,0,0,0,0-.12,2.22,2.22,0,0,1-.24-.57.81.81,0,0,1-.09-.4.43.43,0,0,0-.06-.17l-.15-.34a1.78,1.78,0,0,0-.17-.3.51.51,0,0,1-.08-.29.48.48,0,0,0-.07-.24,2.5,2.5,0,0,1-.15-.38c-.08-.22-.08-.46-.17-.68s-.15-.41-.25-.61-.08-.25-.14-.38a.84.84,0,0,0-.11-.21,1.24,1.24,0,0,1-.21-.52.79.79,0,0,0-.1-.27,1,1,0,0,1-.12-.25c-.09-.23-.18-.46-.25-.7s-.12-.3-.17-.45l-.21-.64a.91.91,0,0,0-.07-.14,2.06,2.06,0,0,1-.18-.63.55.55,0,0,0-.06-.18,1.23,1.23,0,0,1-.14-.31,6.46,6.46,0,0,1-.27-.6c-.07-.17-.16-.33-.22-.52s-.11-.25-.16-.38A1.63,1.63,0,0,1,103,126a1.91,1.91,0,0,0-.17-.51c-.09-.18-.18-.36-.29-.54s0-.18-.07-.27c-.12-.27-.22-.55-.35-.82a.07.07,0,0,1,0-.06.33.33,0,0,0-.08-.25.82.82,0,0,1-.11-.31,2.52,2.52,0,0,0-.12-.39,2.49,2.49,0,0,0-.25-.52s0,0,0,0a.32.32,0,0,1-.17-.34,3,3,0,0,0-.11-.6,1,1,0,0,0-.14-.25,2.67,2.67,0,0,1-.22-.45.67.67,0,0,0-.11-.18.53.53,0,0,1-.08-.27,1.19,1.19,0,0,0-.09-.53,2,2,0,0,0-.14-.34.8.8,0,0,1-.09-.26,1.9,1.9,0,0,0-.23-.57.68.68,0,0,1-.12-.37A.22.22,0,0,0,100,118a1.21,1.21,0,0,1-.22-.55v0a.85.85,0,0,0-.13-.51,3.11,3.11,0,0,1-.2-.41c-.09-.17-.13-.35-.22-.52a1.2,1.2,0,0,1-.1-.37.4.4,0,0,0,0-.13.21.21,0,0,1,0-.22,1.83,1.83,0,0,1-.34-.7v0a1.07,1.07,0,0,0-.1-.47,1.45,1.45,0,0,1-.08-.36v0c-.11-.17-.12-.38-.22-.56a.22.22,0,0,1,0-.18.59.59,0,0,0-.05-.22.49.49,0,0,1,0-.16.9.9,0,0,0-.13-.39.38.38,0,0,1,0-.15,1.43,1.43,0,0,0-.15-.39,2,2,0,0,1-.19-.53,6.11,6.11,0,0,0-.17-.74.89.89,0,0,0-.28-.45s0,0,0,0-.14-.19-.23-.26a.21.21,0,0,1,0-.06,2.21,2.21,0,0,1-.23-1,.78.78,0,0,0,0-.26,1.79,1.79,0,0,0-.2-.42.53.53,0,0,1-.12-.29,3.62,3.62,0,0,0-.17-.56.53.53,0,0,0-.13-.26,1.55,1.55,0,0,1-.08-.23C96,106.45,96,106.4,96,106.33ZM65,117.44a9.71,9.71,0,0,0,2-.65c.31-.09.58-.27.91-.36a7,7,0,0,0,1-.34c.33-.15.69-.17,1-.31a2.05,2.05,0,0,1,.41-.16c.15,0,.39,0,.5-.12s.55-.3.69-.13a4,4,0,0,1,.66-.24c.23-.09.44-.2.66-.29s.37,0,.55-.09.39-.16.61-.07.29.49.45.71c0,0,.11.07.15.11l.12.17a4.36,4.36,0,0,1,.24.41c.22.32.48.62.68,1,.1.17.19.35.3.52s.17.34.29.4v.12c.2.11.35.55.45.74s.08.23.14.33.13.13.18.21a2.88,2.88,0,0,0,.13.31c.06.08.12.13.17.21a1.43,1.43,0,0,1,.29.67,2.68,2.68,0,0,1,.62.79l.27.5c.07.13.24.25.25.41s.35.39.44.52.26.4.38.59a5.93,5.93,0,0,1,.29.56l.15.27a3,3,0,0,0,.15.31c0,.06.11.09.16.15s.09.2.14.28l.23.37a3.24,3.24,0,0,1,.2.36c.08.17.3.38.3.57,0,0,.06,0,.08,0,.11.24.27.45.4.68s.31.59.48.87.31.48.46.71a3.38,3.38,0,0,0,.3.47,3.56,3.56,0,0,0,.31.26c.12.12.09.29.17.41s.08.05.09.08a1,1,0,0,1,.08.18c0,.16.15.3.19.45a1.43,1.43,0,0,0,.1.42c0,.1.17.19.23.29s.17.34.27.5a3.24,3.24,0,0,1,.19.37.77.77,0,0,0,.16.19c.17-.07-.09-.43-.12-.56,0-.29,0-.62-.06-.92-.06-.47-.24-.91-.27-1.39s-.07-.77-.1-1.16c0-.56-.14-1.09-.22-1.63s-.17-1.07-.31-1.6c-.07-.24-.15-.48-.22-.72a5,5,0,0,1-.15-.86c-.07-.45-.08-.9-.15-1.34,0-.27-.07-.55-.12-.82a2.62,2.62,0,0,1,0-.28c0-.13-.09-.25-.09-.38,0-.3-.11-.59-.14-.9a4.81,4.81,0,0,0-.13-.66c-.08-.32-.17-.63-.24-1a4.27,4.27,0,0,1-.13-.48c0-.09,0-.31-.09-.37s0-.27,0-.34-.06-.37-.09-.55,0-.35-.07-.53-.07-.39,0-.46,0-.26-.08-.39c.13-.14,0-.5,0-.68s0-.58-.09-.66-.08-.26,0-.35a1.24,1.24,0,0,1-.1-.31.81.81,0,0,1,0-.11s0-.08-.06-.13-.08-.25-.1-.36a1.31,1.31,0,0,0,0-.28,1.81,1.81,0,0,1,.79-.41l.92-.35c.29-.11.57-.21.84-.34s.48-.33.63-.18c.12,0,.15-.16.26-.23a1,1,0,0,1,.42-.07c.31-.06.59-.28.9-.32,0,0,0,.06.06.07s0-.07.06-.12a1.14,1.14,0,0,1,.3-.13s0,.06,0,.07c.24,0,.27-.07.28-.22l.63-.28s0,.06.12.06q.58-.22,1.17-.48a9.91,9.91,0,0,1,1.17-.48,17,17,0,0,1,.73,1.83c.11.28.17.57.29.85s.28.59.39.89c.21.55.42,1.11.64,1.66.1.27.17.55.28.82s.15.25.21.38.07.31.13.46c.2.57.43,1.13.66,1.7s.4,1.13.65,1.68a17.06,17.06,0,0,1,.75,1.77c.09.26.18.53.28.79s.16.6.29.87a17.42,17.42,0,0,1,.71,1.67,8,8,0,0,0,.33.74,8.67,8.67,0,0,0,.38.82,1.55,1.55,0,0,1,.13.71,4.45,4.45,0,0,0,.31.91c.18.51.37,1,.59,1.52s.32,1,.52,1.46.45,1.11.65,1.68a4.48,4.48,0,0,0,.22.68,3,3,0,0,0,.21.4c.08.12.2.19.21.36s0,.25,0,.4a1.92,1.92,0,0,0,.11.31c0,.12.13.22.18.34s.06.26.11.39c.24.62.4,1.25.64,1.86.13.31.2.64.33,1l.39.92c.25.61.47,1.23.75,1.83a5.53,5.53,0,0,1,.31.92,4.42,4.42,0,0,0,.1.5,2.53,2.53,0,0,1,.14.49s.06-.12.11,0-.08.1-.08.18a1.38,1.38,0,0,0,.15.36,6.71,6.71,0,0,0,.35.77,9,9,0,0,1,.54,1.42c.1.29,0,.32-.28.43s-.57.25-.86.36-.48.1-.73.17-.6.31-.69.17c0,0,0,0,0,.07a.33.33,0,0,1-.16.07s-.12,0-.16,0a1.12,1.12,0,0,0-.26.08,4.34,4.34,0,0,1-.5.2l-.29.11a2.26,2.26,0,0,1-.26,0,4.83,4.83,0,0,0-1.13.47,1.79,1.79,0,0,1-.53.16,1.32,1.32,0,0,0-.54.1,1.34,1.34,0,0,1-.28-.67l-.18-.52c-.16-.48-.23-1-.41-1.48-.08-.2-.14-.39-.23-.59s-.11-.43-.2-.64a2.12,2.12,0,0,1-.22-1.18.44.44,0,0,1-.2-.3c0-.17.08-.12.14-.25a1.85,1.85,0,0,0,.16-.58c-.06,0-.1,0-.14,0a1,1,0,0,1-.18.51c-.16,0-.16-.38-.14-.47s.18-.19.09-.31c.07-.1,0-.22.06-.31s0-.22,0-.33-.07.17-.18.13-.1-.16-.17-.24l0-.21a.7.7,0,0,1-.24-.3c0-.11,0-.23-.08-.34s-.19-.47-.28-.72a.19.19,0,0,1,.19.15c.15,0,0-.14,0-.17s-.21-.14-.27-.27a4.28,4.28,0,0,1-.17-.66c0-.12-.15-.21-.19-.34s-.09-.28-.14-.42-.18-.78-.4-.78c.17-.1-.18-.8-.27-1-.2-.41-.28-.85-.5-1.26a10.16,10.16,0,0,1-.59-1.36c-.07-.18-.15-.36-.2-.54a1.53,1.53,0,0,0-.07-.29c0-.12-.16-.19-.18-.33s-.22-.11-.08-.22c-.17-.4-.42-.78-.61-1.16a1.27,1.27,0,0,0-.2-.31.87.87,0,0,0-.16-.17h-.08l0-.07h-.13c-.06-.06,0,.35.11.36a2.44,2.44,0,0,1,.09.76c0,.24.12.48.14.73a1.89,1.89,0,0,0,.2.69,4.82,4.82,0,0,1,.13,1c0,.15,0,.3.06.45s0,.29,0,.4a2.21,2.21,0,0,1,.16.35c0,.15,0,.31.08.46s.08.19.09.28,0,.3,0,.45a8.67,8.67,0,0,1,.13.89,2.43,2.43,0,0,0,.08.77,3.64,3.64,0,0,1,.17.92c0,.63.25,1.25.28,1.89a16.4,16.4,0,0,0,.29,1.68c0,.25.07.51.11.77s.16.56.21.85.1.55.15.83.06.38.1.56.12.3.16.45.11.53.17.8a2.53,2.53,0,0,1,.1.78,1.59,1.59,0,0,1,.11.49c0,.19,0,.39.11.59a2.63,2.63,0,0,1,.21.92c0,.32-.57.38-.8.48s-.67.32-1,.46l-1,.44c-.17.06-.32.16-.48.23s-.37.05-.55.12l-1,.41c-.38.14-.68.45-1.09.29,0-.13-.2-.27-.26-.39l-.23-.42c-.13-.26-.27-.52-.38-.79a9.84,9.84,0,0,0-.5-.9,5.05,5.05,0,0,1-.24-.53c0-.14-.07-.36-.19-.46s0-.08,0-.13a4.35,4.35,0,0,1-.76-1.09c-.12-.19-.28-.35-.38-.55s-.17-.39-.28-.57c-.25-.44-.64-.81-.86-1.26a7.15,7.15,0,0,0-.73-1.09c-.26-.36-.43-.74-.7-1.08s-.43-.85-.72-1.23-.48-.68-.73-1-.28-.43-.4-.63-.24-.39-.31-.57c-.09,0-.25-.21-.31-.27a1.1,1.1,0,0,1-.25-.43c-.08-.26-.32-.61-.25-.9.09,0-.29-.43-.28-.61a1.58,1.58,0,0,1-.23-.22c-.11,0-.27.26-.17.36a.43.43,0,0,0-.2.14c0,.05.05.1,0,.16.16,0,.2.42.23.56a5.82,5.82,0,0,0,.22.79c.17.5.36,1,.55,1.49a5.54,5.54,0,0,0,.18.67,4.45,4.45,0,0,1,.3.71c.17.48.29,1,.43,1.46s.35,1,.54,1.5.37,1,.58,1.55.47,1,.68,1.55.28.88.43,1.32a14.72,14.72,0,0,1,.44,1.43,12,12,0,0,0,.41,1.33c.09.22.17.46.25.69a2.19,2.19,0,0,1,.23.65c0,.35-.81.49-1.07.61a29,29,0,0,1-2.71,1.1,4.79,4.79,0,0,0-1.12.48,3.32,3.32,0,0,1-.6.29c-.21.09-.27,0-.38-.22a12.12,12.12,0,0,1-1.29-3.24c-.09-.3-.17-.61-.26-.91s-.25-.55-.33-.84a7.15,7.15,0,0,0-.23-.79c-.08-.19-.32-.51-.27-.71a2.34,2.34,0,0,1-.25-.56,5.11,5.11,0,0,0-.27-.64c-.17-.4-.29-.81-.43-1.2-.3-.78-.55-1.57-.84-2.36s-.56-1.64-.84-2.47-.57-1.49-.83-2.25c-.54-1.6-1.17-3.14-1.76-4.72-.31-.82-.56-1.65-.87-2.47s-.51-1.65-.82-2.47c-.17-.44-.34-.87-.53-1.3s-.4-.8-.55-1.21a12,12,0,0,1-.49-1.38,6.32,6.32,0,0,0-.22-.61,2,2,0,0,1-.18-.66,1.86,1.86,0,0,1-.19-.46c-.07-.16-.13-.32-.19-.49a6.92,6.92,0,0,0-.33-.86c-.11-.26-.16-.54-.27-.82a2.54,2.54,0,0,1-.13-.45,2.59,2.59,0,0,1-.14-.45,2.85,2.85,0,0,1-.37-.79c-.13-.29-.32-.57-.44-.86-.16,0-.45-.33-.47-.48C64.39,117.54,64.74,117.46,65,117.44Z"/><path class="cls-1" d="M83.26,166.22a3.51,3.51,0,0,1-.57.14l-1.42.51a1.38,1.38,0,0,0,.47,0c.08,0,.14,0,.14,0s.21.06,1-.21l1.69-.59c.54-.18,1.07-.37,1.64-.58a4.88,4.88,0,0,0-.71.18,5.19,5.19,0,0,1-1.17.29A5.52,5.52,0,0,0,83.26,166.22Z"/><path class="cls-1" d="M28.42,186.27c.12-.07.12-.09,0-.07a10.11,10.11,0,0,0-1.29.5C27.6,186.5,28,186.45,28.42,186.27Z"/><path class="cls-1" d="M235.65,117.13c-.11-.59-.38-1.14,0-1.71a.52.52,0,0,0,.1-.53c-.34-.76.29-1.63-.25-2.36a6.79,6.79,0,0,0,0-1.19c-1.05.39-2.1.8-3.12,1.09l-.28.09a35.34,35.34,0,0,0-3.48,1.22c-.58.23-1.18.42-1.77.64l-.42.17a10.05,10.05,0,0,1-1.07.4c-.45.15-.93.33-1.4.5-.82.3-1.64.61-2.46.9-1.73.61-3.46,1.26-5.2,1.86-.76.25-1.55.55-2.34.84s-1.42.53-2.14.77c-1,.33-2,.68-2.91,1.08-.46.2-1,.38-1.51.56a5.08,5.08,0,0,0-.51.17c-1.55.6-3.12,1.12-4.68,1.69l-3.85,1.37c-.52.19-1,.39-1.53.58s-1.32.48-2,.68c-.49.15-1,.35-1.47.53-1,.42-2.06.82-3.14,1.21l-1.79.66c-.38.14-.75.28-1.09.37-.16,0-.34.11-.51.17-.86.32-1.72.63-2.54,1-.36.15-.77.3-1.11.41-.55.18-1.1.39-1.63.57-.29.09-.61.21-.89.32s-.81.32-1.24.46c-.6.2-1.21.42-1.78.65l-.81.31c-.88.3-1.71.63-2.56.95s-1.92.73-2.9,1.06l-.29.1c-2.45.93-4.9,1.83-7.37,2.68l-1.19.44c-1,.39-2.08.76-3.11,1.14-.58.21-1.16.43-1.75.62l-1,.36c-.65.26-1.32.52-2,.76s-1.5.53-2.24.81l-1.12.42c-.78.28-1.56.58-2.36.86-.36.13-.67.26-1,.4-.67.25-1.31.46-2,.68-.33.11-.64.23-.93.34-.62.24-1.22.46-1.84.68l-2.26.81c-.7.25-1.37.53-2.07.78l-.14.05c-.89.27-1.78.62-2.66.95-1.08.39-2.16.79-3.22,1.2l-2.28.85-.67.23c-1.09.37-2.18.76-3.28,1.17-.77.29-1.56.59-2.36.86a13.25,13.25,0,0,0-1.56.6,17.66,17.66,0,0,1-1.73.64c-.93.31-1.84.65-2.75,1-.42.16-.84.32-1.26.46l-.45.15c-.86.33-1.73.6-2.58.92s-1.61.58-2.41.85l-.58.23c-1.08.4-2.16.82-3.26,1.18l-.28.1c-1.06.41-2.13.78-3.21,1.16a15.78,15.78,0,0,0-1.53.59l-.35.14c-1.19.41-2.38.84-3.57,1.27-.52.19-.93.29-1.38.41l-2.47,1c-.63.24-1.28.47-1.92.7-.34.12-.68.21-1,.36a4.13,4.13,0,0,1-.62.21c-.67.21-1.34.47-2,.71a4.4,4.4,0,0,1-1,.3,2.19,2.19,0,0,0-.34.09.89.89,0,0,1-.29.18l-1.12.39c-.33.11-.71.27-1.06.41l-.58.23c-.74.25-1.47.51-2.19.8-.19.07-.41.16-.59.21s-.49.17-.72.27l-.29.11L76.91,169c-1,.36-1.91.68-2.86,1-.41.15-.79.32-1.24.45s-.81.31-1.22.43a4.67,4.67,0,0,0-.51.19c-.64.26-1.32.48-2,.73l-.37.14c-1.06.34-2.07.76-3.1,1.15l-1,.37c-1.36.48-2.73,1-4.08,1.48l-2,.73c-.83.32-1.68.62-2.53.91l-1.19.44c-1,.35-1.94.7-2.89,1.07l-.82.29c-1.36.48-2.72,1-4.06,1.5l-.37.14c-1.43.48-2.84,1-4.26,1.54-.47.17-.94.32-1.39.51s-1,.36-1.45.5a5.27,5.27,0,0,0-.51.19c-.5.21-1,.4-1.55.58-.75.25-1.48.52-2.21.8-.35.14-.67.23-1,.37l-2.79,1c-.8.29-1.6.57-2.39.87s-1.33.5-2,.75-1,.4-1.55.57c-.32.1-.66.24-1,.35-.71.24-1.41.5-2.1.76a4.42,4.42,0,0,0,1.26,1.59,11.32,11.32,0,0,0,1.62,1.31,3.11,3.11,0,0,1,1.21,1.12,2.73,2.73,0,0,0,.94.91,4.71,4.71,0,0,1,2,2.18c.28.73,1.08,1.18,1.18,2,0,.12.18.23.3.33a6.12,6.12,0,0,1,2.21,3,.81.81,0,0,0,.3.46,4.83,4.83,0,0,1,1.83,1.73c1,.29,1.59,1.35,2.72,1.52-.06.56,0,1.1.61,1.15a2.5,2.5,0,0,1,1.87,1.36A7.26,7.26,0,0,0,41.82,209a14.32,14.32,0,0,0,3.34,2,3.23,3.23,0,0,1,1.53,1.52,3.55,3.55,0,0,0,.53.93,5.6,5.6,0,0,1,1.48.25c.54.13.93-.47,1.44-.34.22.31-.19.51,0,.78a.27.27,0,0,0,.07.08c1,.63,2.18,1,2.66,2.21a.44.44,0,0,0,.54.29c.46-.14.82.14,1.23.27.91.27,1.62,1,2.61,1.06a.94.94,0,0,1,.81.68,1.39,1.39,0,0,0,.42.68l.64,0c.66.05,1.19.21,1.42,1a1.46,1.46,0,0,0,1.72.56.9.9,0,0,1,1,0c0,.28-.18.64.15,1a8.57,8.57,0,0,0,1.79-.16c0,.57-.59.37-.74.77a9.68,9.68,0,0,1,3.19,1.68,1.17,1.17,0,0,0,.85.26c.8-.09,1.13.44,1.39,1a2.33,2.33,0,0,0,.4.87c1-.17,1.52.82,2.41,1.28a1.5,1.5,0,0,1,1.25.21,9.21,9.21,0,0,0,2.74.75c.55.11,1,.21,1.25.77a.92.92,0,0,0,1,.61,2.19,2.19,0,0,1,1.8.71,2.17,2.17,0,0,0,.74.49,27.26,27.26,0,0,1,4.6,1.76c.79.42,1.65.69,2.44,1.11a3.27,3.27,0,0,0,3.27.2c.22-.11.44-.29.73-.2l.27.36c.85,1,1.32,1.09,2.45.36.15-.1.41-.28.49-.22a9.83,9.83,0,0,0,2.61.67c.09,0,.16.15.23.24a2,2,0,0,0,1.59.64c2.09.17,4.19,0,6.29.12a4.42,4.42,0,0,1,1.85.62c.64.3,1.36-.16,2.09.06,1.2.36,2.49.07,3.71.43.17.05.37-.06.55-.08a5.09,5.09,0,0,1,2.42.16,2.16,2.16,0,0,0,1.84,0,2.53,2.53,0,0,1,1-.14,13.39,13.39,0,0,0,3-.08,3.89,3.89,0,0,0,1.4-.65c1.6.46,3.14,0,4.7-.33.83-.17,1.67-.8,2.52,0,.06.06.23,0,.32,0a16.09,16.09,0,0,0,3.57-1.26,6,6,0,0,1,2.53-.75l1.21-.16c1.52-.22,2.88-1,4.46-1.06.63,0,1.33-.46,1.94-.18.79.37,1.32-.45,2-.27a1.52,1.52,0,0,0,1.08-.21,1.85,1.85,0,0,1,1.06-.28,1.66,1.66,0,0,0,1.73-.7,2.27,2.27,0,0,0,2.1.09,9,9,0,0,1,3.68-.88,3.4,3.4,0,0,1,2-1.71c.88-.29,1.71-.65,2.55-1s1.74-1.15,2.85-1.15a.74.74,0,0,0,.53-.37c.35-.83,1.45-.7,1.82-1.47,1,0,1.67-1.25,2.83-1,.28.07.5-.2.63-.4a.85.85,0,0,1,1-.41,2.19,2.19,0,0,0,1.78-.5c.22-.14.39-.34.68-.32.87.06,1.29-.62,1.82-1.11.13-.11.16-.34.36-.41,1.42-.49,2.48-1.68,4-2a.73.73,0,0,0,.43-.34,2.07,2.07,0,0,1,1-.79,8.63,8.63,0,0,0,1.77-1.33,6.55,6.55,0,0,1,2.33-1.63c.57-.14.9-.71,1.52-.8.29,0,.12-.56.29-.65,1.24-.65,2-1.81,3.21-2.56a5.73,5.73,0,0,0,2-1.66c.49-.92,1.68-.94,2-1.92,1-.37,1.51-1.37,2.33-2s1.25-1.48,2-1.87a5.73,5.73,0,0,0,1.76-1.45c.43-.51,1.09-.65,1.49-1.11a17.05,17.05,0,0,1,2.26-1.91,6.5,6.5,0,0,0,2.1-2.2,3,3,0,0,1,1.37-1.8c.16-.08.21-.38.31-.58a2.48,2.48,0,0,1,.32-.58c1.37-1.17,2.25-2.84,3.82-3.83a1.1,1.1,0,0,0,.57-1,2.24,2.24,0,0,1,.37-1.16c.28-.18.71-.11.83-.49.21-.7.85-1,1.26-1.47.85.17.85.17,1.42-.06.1-.42-.31-.87.06-1.29.92-1,1.1-2.51,2.15-3.46a.57.57,0,0,0,.16-.41,2.13,2.13,0,0,1,1-1.84,3.28,3.28,0,0,0,1.23-3.21,1.24,1.24,0,0,0,.3-.17c.66-.79,1.08-1.76,1.81-2.51a2.74,2.74,0,0,0,.91-1.95c0-.07.07-.13.11-.2,1-1.78,1.68-3.7,2.6-5.51a30.34,30.34,0,0,0,2.31-5.56,2,2,0,0,1,.4-.79,6.68,6.68,0,0,0,1.3-3.82c.07-.92.16-1.84.26-2.75a5.35,5.35,0,0,0,0-.55,5.32,5.32,0,0,1,1-3.35,7.21,7.21,0,0,0,.77-3.51c-.08-.62-.19-1.24-.25-1.86a1,1,0,0,1,.29-.88,1.82,1.82,0,0,0,.5-1.29,11.93,11.93,0,0,1,.17-1.71,20,20,0,0,0,.47-2.17c0-.78-.3-1.71.54-2.32.05,0,.06-.14.05-.21-.08-.83.31-1.64.08-2.44.2-.16.42.07.54-.12.11-.45-.52-.26-.5-.8a9.15,9.15,0,0,0,.32-4c1-.41,1.07-.62.63-1.58a3.13,3.13,0,0,1-.45-2.49,1.31,1.31,0,0,0,0-.44c-.09-.85.08-1.69-.09-2.54a1.15,1.15,0,0,1,.36-1.24c.57.81-.37,1.9.57,2.76.23-1.15,0-2.17.14-3.17a5.83,5.83,0,0,0-.36-1.89C235.78,116.3,236.23,116.92,235.65,117.13Z"/><path class="cls-1" d="M107,157.87a10.93,10.93,0,0,0-1.14.39l-1.37.53a4.85,4.85,0,0,1-.71.26,10.4,10.4,0,0,0-1.7.59l-1.48.59a16.91,16.91,0,0,1-2.6.83l-.26.07c-.15.09-.43.14-.64.26s-.11.14.08.14c.91-.32,1.83-.68,2.73-1,.67-.28,1.39-.52,2.07-.78a7.22,7.22,0,0,1,1-.32c.55-.24,1.15-.46,1.71-.65l1.42-.51c.81-.29,1.62-.62,2.45-.87a3.56,3.56,0,0,0,1-.44c-.62.21-1.16.36-1.76.59C107.54,157.68,107.17,157.82,107,157.87Z"/><path class="cls-1" d="M135.31,147.45c.68-.32.65-.35-.11-.12C135,147.46,134.92,147.54,135.31,147.45Z"/><path class="cls-1" d="M122.17,152.32c.11-.07.32-.15.3-.18a6.43,6.43,0,0,0-1.51.55C121.35,152.6,121.8,152.43,122.17,152.32Z"/><path class="cls-1" d="M102.82,106.89c.1-.13,0-.21-.06-.29s-.13-.08-.21-.08-.08.19,0,.27A.24.24,0,0,0,102.82,106.89Z"/><path class="cls-1" d="M76.72,131.93l-.14,0c.07,0,.11.13.21.12S76.77,132,76.72,131.93Z"/><path class="cls-1" d="M77.44,147a.17.17,0,0,0-.1,0c-.06.09.07.33.08.43s0,.28,0,.33.05-.25,0-.32A1.94,1.94,0,0,0,77.44,147Z"/><path class="cls-1" d="M77.45,139.41c-.14,0-.07.16,0,.26S77.47,139.47,77.45,139.41Z"/><path class="cls-1" d="M79.34,133a1.67,1.67,0,0,1,.13-.82c-.12,0-.13.29-.17.38s-.09.29-.16.4S79.26,133.11,79.34,133Z"/><path class="cls-1" d="M78.07,132.72A.71.71,0,0,0,78,133c.12.11.46.29.55.14C78.38,133,78.27,132.73,78.07,132.72Z"/><path class="cls-1" d="M80.07,134.7l0,.05c.07.06.17.05.21.15C80.28,134.77,80.21,134.7,80.07,134.7Z"/><path class="cls-1" d="M80.39,131.22l-.1-.22s-.06,0-.1,0S80.26,131.2,80.39,131.22Z"/><path class="cls-1" d="M79.47,129a.93.93,0,0,0,.12.29c0,.09,0,.2.08.29s.3.36.27.53c.1,0,.09-.14.08-.21s0-.09-.1-.17-.25-.06-.18-.21.07,0,.14,0a.57.57,0,0,0,0-.29,1.14,1.14,0,0,1,0-.26c0-.09-.06-.4-.14-.46s0,.23-.06.34c.16.14.18.23.1.36C79.63,129.08,79.57,129,79.47,129Z"/><path class="cls-1" d="M78.55,131.18c0,.1-.12.21-.14.29s0,.05.08.17c0,.29-.15.07-.24,0s-.07.11-.18,0,0-.21-.11-.21,0,.35.16.42.31,0,.48,0,.22-.4.16-.52S78.65,131.19,78.55,131.18Z"/><path class="cls-1" d="M77.24,130.58h.19c.12-.13.08-.83-.13-.76,0,.13.32.78,0,.69-.12,0-.37-.52-.42-.5C76.85,130.28,77.14,130.38,77.24,130.58Z"/><path class="cls-1" d="M80.49,135.51s0,0,0,.08a.11.11,0,0,0,.08,0,1.92,1.92,0,0,1,.45-.29c.16-.11.06-.22.19-.34a2.24,2.24,0,0,0-.14-.36s0,0-.06.05,0,.17,0,.26a.32.32,0,0,0-.11.37c-.07.08-.13,0-.18,0s0,.15-.08.17-.06-.23-.21-.11A.26.26,0,0,0,80.49,135.51Z"/><path class="cls-1" d="M76.36,142.58c0-.19,0-.3,0-.37a1.12,1.12,0,0,1,0,.32Z"/><path class="cls-1" d="M76.3,141.48c.09-.27-.18-.67-.34-.87a1.43,1.43,0,0,0,.19.44C76.23,141.17,76.22,141.37,76.3,141.48Z"/><path class="cls-1" d="M78.91,132.93c0-.11.19-.2.08-.31S78.81,132.89,78.91,132.93Z"/><path class="cls-1" d="M76.16,128.92c.15,0,.08-.31,0-.36s0-.12-.09-.18c0,.15.06.15.09.27A2.48,2.48,0,0,1,76.16,128.92Z"/><path class="cls-1" d="M77.38,135.19a.46.46,0,0,0-.29-.29.62.62,0,0,0,.36.56c.1,0,.15-.05.25-.08s.3,0,.35-.11a.86.86,0,0,0-.32-.1c-.06-.06,0-.16,0-.23a.47.47,0,0,0-.21-.21C77.43,134.88,77.58,135.1,77.38,135.19Z"/><path class="cls-1" d="M78.14,125.31c.12.24.32.43.44.67s.23.4.35.16-.14-.68-.25-.86a.2.2,0,0,0-.13.11s-.09,0-.13,0a.31.31,0,0,1,0-.19,2.26,2.26,0,0,1-.13-.2c0-.07-.15-.12-.19-.18s-.09-.47-.22-.34a4.66,4.66,0,0,1,.16.49A1.28,1.28,0,0,0,78.14,125.31Z"/><path class="cls-1" d="M77.91,127.46a2.15,2.15,0,0,1,.07.72c0,.22.18.32.25.55a.85.85,0,0,0,.14.34c.09.1.15.15.14.3a.35.35,0,0,1-.31.06c0,.32.18.23.31.44.26-.12.14-.41.06-.64a8.31,8.31,0,0,0-.27-.9c-.2-.06-.29,0-.21-.29,0,0,.1,0,.12,0a2.37,2.37,0,0,0-.21-.67,4,4,0,0,0-.2-.35c0-.09-.07-.22-.16-.28a1.13,1.13,0,0,0,.11.41C77.79,127.29,77.86,127.35,77.91,127.46Z"/><path class="cls-1" d="M118.7,153.66c.54-.18,1.09-.36,1.6-.5a9.93,9.93,0,0,0-1.43.4C118.67,153.62,118.62,153.66,118.7,153.66Z"/><path class="cls-1" d="M86.08,135.23c-.08,0-.15.19-.15.25a.22.22,0,0,0,.2.08C86.13,135.49,86.17,135.25,86.08,135.23Z"/><path class="cls-1" d="M86.07,140.81c.1,0,.12-.43.06-.47a2,2,0,0,0-.18.26s.06,0,.09,0A1.55,1.55,0,0,0,86.07,140.81Z"/><path class="cls-1" d="M86.1,137.66c.07-.16,0-.23-.12-.32C85.87,137.47,85.92,137.6,86.1,137.66Z"/><path class="cls-1" d="M86,143.79c.09,0,.23-.11.16-.23S86,143.68,86,143.79Z"/><path class="cls-1" d="M85.05,138.93c.06,0,.08-.07.11-.11s0-.22-.08-.22S85,138.81,85.05,138.93Z"/><path class="cls-1" d="M84.84,143.68s0,.1,0,.16-.1,0-.12.1,0,.07,0,.1.15-.12.16-.24S84.92,143.52,84.84,143.68Z"/><path class="cls-1" d="M86.19,139.85s-.12,0-.08.12a.67.67,0,0,0,.15-.13c0-.11,0-.24-.09-.33C86.05,139.57,86.2,139.75,86.19,139.85Z"/><path class="cls-1" d="M85.84,121.51c0,.08,0,.16,0,.23S85.91,121.55,85.84,121.51Z"/><path class="cls-1" d="M87.44,136.79c-.13.14-.13.21,0,.3,0-.09-.09-.2,0-.27s.06.15.07.22C87.71,137.13,87.7,136.7,87.44,136.79Z"/><path class="cls-1" d="M86.82,138.52s-.26,0-.25,0,.35.26.44.22a.84.84,0,0,1,.27.46l.12-.05c-.1,0-.17-.23-.22-.33s0-.15.07-.2.22-.09.32-.12c0-.25-.55.16-.59.15A.18.18,0,0,0,86.82,138.52Z"/><path class="cls-1" d="M87.11,124.52c-.14.06-.15.21,0,.38C87.16,124.89,87.18,124.55,87.11,124.52Z"/><path class="cls-1" d="M86.85,137.38c.18-.07.19-.09.12-.3A1,1,0,0,0,86.85,137.38Z"/><path class="cls-1" d="M87.57,138.33c.05,0,.11,0,.17,0s0,.1.05.13,0-.18-.16-.28A.6.6,0,0,0,87.57,138.33Z"/><path class="cls-1" d="M86.73,117.64a.2.2,0,0,0,.06-.35C86.72,117.31,86.73,117.58,86.73,117.64Z"/><path class="cls-1" d="M84.21,112.38c0,.06,0,.11,0,.18s.08,0,.12-.08,0-.1,0-.14A.13.13,0,0,0,84.21,112.38Z"/><path class="cls-1" d="M86.84,116.82s-.11,0-.16.08.1,0,.08.13-.11,0-.11.1S87,117,86.84,116.82Z"/><path class="cls-1" d="M86.71,137.54l-.09-.06c-.07,0-.1.12-.17,0s0-.1.06-.15a.14.14,0,0,1-.05-.08.27.27,0,0,0-.1.31C86.47,137.6,86.65,137.65,86.71,137.54Z"/><path class="cls-1" d="M86.94,141.63c0,.13,0,.31.09.41s.22-.69,0-.72c0,.16.15.25,0,.4C87,141.72,87,141.64,86.94,141.63Z"/><path class="cls-1" d="M79.92,150.07c.22,0-.11-.28-.16-.32C79.67,149.86,79.85,150,79.92,150.07Z"/><path class="cls-1" d="M79.34,144.45c0,.06.11.4.17.43S79.52,144.36,79.34,144.45Z"/><path class="cls-1" d="M78.89,141.45a.09.09,0,0,0-.09.06c.09.13,0,.31.13.48A.83.83,0,0,0,78.89,141.45Z"/><path class="cls-1" d="M79,151.43c0-.08,0-.14,0-.21s-.13-.15-.15-.25,0-.21-.06-.26,0,.17-.14.19a1.45,1.45,0,0,0,.11.29A.39.39,0,0,0,79,151.43Z"/><path class="cls-1" d="M100.68,112.7c.06,0,0-.11,0-.14a.53.53,0,0,0-.06-.13c0-.05-.07,0-.1-.05a.08.08,0,0,0-.08.06.24.24,0,0,0,0,.23A.15.15,0,0,0,100.68,112.7Z"/><path class="cls-1" d="M101.74,115.88a.26.26,0,0,0,.25.14,2.07,2.07,0,0,0-.24-.47c-.11,0-.13.06-.1.15Z"/><path class="cls-1" d="M96.82,139.44c.16-.07,0-.23,0-.29s0,.12,0,.17-.07,0-.12,0S96.76,139.47,96.82,139.44Z"/><path class="cls-1" d="M101.44,112.77s.06,0,.08-.06a.16.16,0,0,0,0-.12c0-.13-.14-.18-.2-.27s0,0-.08,0a.05.05,0,0,0,0,.07,1,1,0,0,0,.11.33A.12.12,0,0,0,101.44,112.77Z"/><path class="cls-1" d="M91.16,117a.42.42,0,0,0,.23.4S91.21,116.93,91.16,117Z"/><path class="cls-1" d="M91.23,115.66a1,1,0,0,1-.08-.35c0-.11.09-.24,0-.3a1.21,1.21,0,0,0-.06.38C91.06,115.46,91.13,115.74,91.23,115.66Z"/><path class="cls-1" d="M84,118.68c0,.06.05.13,0,.19s.05.12.13.15.06-.07.08-.11,0-.19-.09-.29A.1.1,0,0,0,84,118.68Z"/><path class="cls-1" d="M90.93,114.49c0,.13,0,.25.12.33C91,114.77,91,114.44,90.93,114.49Z"/><path class="cls-1" d="M96.59,130.65c0,.11,0,.2,0,.29C96.66,130.84,96.69,130.74,96.59,130.65Z"/><path class="cls-1" d="M84.08,116.49c-.09.05-.09.09,0,.19C84.16,116.62,84.16,116.58,84.08,116.49Z"/><path class="cls-1" d="M91.64,120.55c.15,0,.19-.44.12-.52s-.38,0-.4,0S91.59,120.49,91.64,120.55Z"/><path class="cls-1" d="M95.31,134.49a.06.06,0,0,1,0,0c0-.11.12-.23,0-.31s0,.37.06.45S95.41,134.49,95.31,134.49Z"/><path class="cls-1" d="M94.39,131.46a1.58,1.58,0,0,0,0-.44s0,0-.08,0a.66.66,0,0,1-.11-.26c0-.11,0-.23,0-.33C94,130.55,94.24,131.45,94.39,131.46Z"/><path class="cls-1" d="M90.42,119.9a.85.85,0,0,1,.26.46c.15-.1,0-.29-.05-.4s-.29-.37-.37-.37S90.38,119.85,90.42,119.9Z"/><path class="cls-1" d="M89.12,147.56l-.22.1c0,.11-.11.19-.1.31a.67.67,0,0,0,.24.31c.24,0,.24-.49.16-.67Z"/><path class="cls-1" d="M89.37,121c-.07.06.06.5.12.55s.08-.06,0-.17A.44.44,0,0,0,89.37,121Z"/><path class="cls-1" d="M89,119.93a.13.13,0,0,1,.12,0c.11.12.13.19.08.26s0-.1-.13-.06.16.22.08.42c.14.11.07.35.22.4s0-.35-.07-.46,0-.39,0-.59,0-.21,0-.32-.09-.16-.13-.23a3.12,3.12,0,0,1-.15-.62c-.17.09,0,.27,0,.41s.15.32.19.54c-.15.06,0,.29-.27.18-.07,0-.19-.36-.26-.28s.23.32.35.52C89,120,89,120,89,119.93Z"/><path class="cls-1" d="M89.3,126.6s0-.13-.08-.14-.33-.11-.13-.19c.08.14.08.14.18.12a.9.9,0,0,0-.24-.51h0l.06.28c0,.1-.18.07-.18.2s.08.19.1.25a2.34,2.34,0,0,0,.24.67c.13.17.29,0,.34-.15a.75.75,0,0,0-.14-.52S89.33,126.63,89.3,126.6Z"/><path class="cls-1" d="M89.08,141.77c0-.13-.19-.08-.11-.25a1.45,1.45,0,0,1-.18-.32c0-.13,0-.27-.15-.36a2.15,2.15,0,0,1,.15.63c0,.14,0,.47.14.55S89.11,141.85,89.08,141.77Z"/><path class="cls-1" d="M88.66,118c0,.11.11.19.16.29s.07.23.14.33A.48.48,0,0,0,88.66,118Z"/><path class="cls-1" d="M88.51,115.79c-.05.09,0,.29.16.26A.24.24,0,0,0,88.51,115.79Z"/><path class="cls-1" d="M89.26,117.92c.06-.09.15-.14.19-.25A2,2,0,0,0,89,117C88.66,117.05,89,117.85,89.26,117.92Z"/><path class="cls-1" d="M90.74,120.42c-.11.21-.08.36.09.46C90.83,120.76,90.69,120.54,90.74,120.42Z"/><path class="cls-1" d="M90.19,138.14c0,.1,0,.21,0,.31a2.09,2.09,0,0,0,.08.34,1.28,1.28,0,0,1,.11.33c0,.12,0,.32.08.41s-.18-1-.16-1.17S90.32,138,90.19,138.14Z"/><path class="cls-1" d="M90.77,144.48c-.13.05-.18.41-.16.54C90.72,145,90.85,144.57,90.77,144.48Z"/><path class="cls-1" d="M90.39,144.83s-.06,0-.09,0,.22.33.31.2A.34.34,0,0,1,90.39,144.83Z"/><path class="cls-1" d="M88.45,142.43c.1,0,.11-.06.16-.09s0-.22-.1-.29S88.44,142.35,88.45,142.43Z"/><path class="cls-1" d="M90.81,146.65a.63.63,0,0,1-.17.43.4.4,0,0,1-.43-.1.64.64,0,0,1-.1.18c-.09.13,0,.11-.16.11s-.3,0-.26.24a.13.13,0,0,1,.1,0s0-.06.06-.07.6-.21.78-.14c.18-.18.48.12.66-.11a.93.93,0,0,0,0-.78c-.11,0,0,.25-.19.26s-.23-.27-.27-.38S90.81,146.57,90.81,146.65Z"/><path class="cls-1" d="M89.86,129.38s.1-.42,0-.55-.11-.12-.14-.21,0-.18,0-.27-.1,0-.13,0C89.67,128.69,89.61,129.13,89.86,129.38Z"/><path class="cls-1" d="M87.11,120s.07,0,.09.06-.09.16,0,.28.08-.38,0-.44S87.11,119.93,87.11,120Z"/><path class="cls-1" d="M90.87,140.56a.48.48,0,0,0,.18.41A.73.73,0,0,0,90.87,140.56Z"/><path class="cls-1" d="M89.77,122.23s0-.11-.08-.13-.07.07,0,.17A.08.08,0,0,0,89.77,122.23Z"/><path class="cls-1" d="M88.16,137.79c-.16,0,0,.13-.07.19s-.09,0-.09.07.06.09.19,0C88.13,138,88.2,137.88,88.16,137.79Z"/><path class="cls-1" d="M88.44,146.18c.12,0,.14,0,.15-.1a.46.46,0,0,0-.18-.31C88.32,145.8,88.37,146.12,88.44,146.18Z"/><path class="cls-1" d="M87.75,143.09c-.08,0-.18-.14-.27-.1s-.06.12-.12.2-.17-.07-.25-.11-.17.28-.4.28c0,.14.25,0,.28-.06s.09,0,.07.1.29,0,.39-.11a.67.67,0,0,1,.42-.18c0-.06.1-.09.12-.14a.31.31,0,0,0-.18-.05C87.81,143,87.75,143,87.75,143.09Z"/><path class="cls-1" d="M86.49,147.08c0,.16.11.2.23.14C86.63,147.19,86.62,147.05,86.49,147.08Z"/><path class="cls-1" d="M87.62,144.93q.22-.09,0-.3C87.5,144.71,87.5,144.76,87.62,144.93Z"/><path class="cls-1" d="M87.07,119.44c0,.16,0,.15.05.2a.75.75,0,0,0,.08.24c.07-.07-.06-.3,0-.38Z"/><path class="cls-1" d="M86.75,123.93a.07.07,0,0,0,.09,0c-.09.17.08.23.13.34s.09,0,.1-.08a.78.78,0,0,1-.24-.41C86.74,123.81,86.74,123.81,86.75,123.93Z"/><path class="cls-1" d="M86.81,134.55a.59.59,0,0,0-.12-.35C86.65,134.44,86.68,134.51,86.81,134.55Z"/><path class="cls-1" d="M87.1,147c.19,0,.2-.17.25-.28A2.35,2.35,0,0,0,87.1,147Z"/><path class="cls-1" d="M88.31,129.6c.06-.09.06-.09,0-.18a.48.48,0,0,0-.27.17c.15,0,.18.42.33.4S88.32,129.74,88.31,129.6Z"/><path class="cls-1" d="M88.48,115.64a.53.53,0,0,0-.18-.5C88.24,115.25,88.36,115.68,88.48,115.64Z"/><path class="cls-1" d="M88,128.21c.06,0,.05.09.08.12a.1.1,0,0,0,.08-.06C88.08,128.15,88.08,128.15,88,128.21Z"/><path class="cls-1" d="M88.23,128.67a.12.12,0,0,0,0,.24S88.24,128.72,88.23,128.67Z"/><path class="cls-1" d="M88.14,132.53c-.09.08-.09.11,0,.22C88.24,132.68,88.13,132.62,88.14,132.53Z"/><path class="cls-1" d="M88.07,142.89a.31.31,0,0,0,.22-.32C88.1,142.56,88.09,142.74,88.07,142.89Z"/><path class="cls-1" d="M88.46,133.43l-.07-.16c-.11,0,0,.13,0,.18S88.43,133.48,88.46,133.43Z"/></g></g></svg>