<svg xmlns="http://www.w3.org/2000/svg" viewBox="0 0 236.5 237.62"><defs><style>.cls-1{fill:#00a886;}</style></defs><title>link-book</title><g id="Layer_2" data-name="Layer 2"><g id="Layer_1-2" data-name="Layer 1"><path class="cls-1" d="M98.64,122.5s-.09,0-.14,0a.28.28,0,0,0-.13,0,.18.18,0,0,0-.07.15c.11.08.17.08.31,0A.07.07,0,0,0,98.64,122.5Z"/><path class="cls-1" d="M100,126.85h-.08c-.07,0-.14,0-.12.13s0,0-.07.06a.69.69,0,0,0,.39-.14C100.06,126.91,100,126.88,100,126.85Z"/><path class="cls-1" d="M100.06,127.45c-.07,0-.09.09-.06.17a.32.32,0,0,1,.09,0,.09.09,0,0,0,.14,0,.68.68,0,0,1,.12-.12C100.16,127.4,100.15,127.4,100.06,127.45Z"/><path class="cls-1" d="M95.82,114.71a.82.82,0,0,0,.06-.27.43.43,0,0,0-.42.16.32.32,0,0,0,.09.17C95.64,114.76,95.72,114.7,95.82,114.71Z"/><path class="cls-1" d="M98.56,120.8c.17,0,.22,0,.31-.12-.08,0-.08-.11-.18-.1a.27.27,0,0,0-.18.1A.31.31,0,0,0,98.56,120.8Z"/><path class="cls-1" d="M99.8,121.06l.12,0A.22.22,0,0,1,100,121a.16.16,0,0,0,.1-.11.48.48,0,0,1,.08-.16C100,120.64,99.86,120.75,99.8,121.06Z"/><path class="cls-1" d="M96.51,112.19c.12-.13.2-.12.31,0s0,0,.05,0l.12,0s0-.08.07-.1.2-.08.25-.31a.16.16,0,0,0-.18.09.22.22,0,0,1-.29.14c-.08,0-.18,0-.25,0l-.17.09a.08.08,0,0,0-.07.07l-.06.1a.14.14,0,0,0,.11,0S96.47,112.22,96.51,112.19Z"/><path class="cls-1" d="M96.9,114.13s.09,0,.11-.06,0-.06,0-.1c-.19,0-.14-.15-.16-.26a.25.25,0,0,0-.16.26.07.07,0,0,0,0,.06C96.77,114.07,96.86,114.05,96.9,114.13Z"/><path class="cls-1" d="M99.88,124c.05,0,.13-.09.18-.15a.21.21,0,0,1,.22-.12s0-.06,0-.06h-.19s-.06,0-.08,0-.17,0-.26,0a.13.13,0,0,0-.12.14s0,0,0,.06a.34.34,0,0,1,.14,0S99.79,124,99.88,124Z"/><path class="cls-1" d="M98,114.86a.17.17,0,0,0,0-.18.23.23,0,0,0-.16,0c-.06,0-.14,0-.15.08.15,0,.15,0,.23.12S97.93,114.91,98,114.86Z"/><path class="cls-1" d="M102.53,133.23a.59.59,0,0,0-.19.05c-.13.06-.16.13-.1.26s.21,0,.32,0,.11-.1.1-.17S102.61,133.24,102.53,133.23Z"/><path class="cls-1" d="M97,116.53c-.06,0-.09-.1-.16-.1s-.2-.05-.3,0-.06,0-.09,0-.08,0-.1,0-.1.14-.15.21.06.14.12.2l.09,0a1.34,1.34,0,0,1,.31-.17.16.16,0,0,1,.22.09s0,0,.06,0S96.94,116.61,97,116.53Z"/><path class="cls-1" d="M97.64,120.27a.3.3,0,0,0,0-.13c-.29.1-.29.1-.4.23s0,.09.12.06A.56.56,0,0,0,97.64,120.27Z"/><path class="cls-1" d="M96.32,117.36s0,0,0,0a1.93,1.93,0,0,1-.06-.41s0,0,0,0,0,.24,0,.37S96.27,117.37,96.32,117.36Z"/><path class="cls-1" d="M96.78,118.07c-.08.05-.17,0-.22.06s0,.08.27.1a.12.12,0,0,0,.13-.08C96.89,118.14,96.81,118.17,96.78,118.07Z"/><path class="cls-1" d="M101.9,131.75c0-.07,0-.07,0-.1s-.18-.15-.18-.28,0,0,0,0,0-.06,0-.07a.28.28,0,0,0-.13,0c-.08,0-.08,0-.16,0s0,.12-.08.15l0,.1.29,0A.32.32,0,0,1,101.9,131.75Z"/><path class="cls-1" d="M102.23,132.8c0-.06,0-.08-.08-.09s-.12,0-.14-.1.08,0,.07-.11-.07,0-.19.23a.14.14,0,0,0,0,.14.4.4,0,0,0,.24,0C102.19,132.89,102.23,132.86,102.23,132.8Z"/><path class="cls-1" d="M99.09,109.68a1.37,1.37,0,0,0-.43.23C98.9,109.94,99,109.87,99.09,109.68Z"/><path class="cls-1" d="M99.49,111.29a.07.07,0,0,0-.1,0c0,.06,0,.12,0,.2l.3,0A.29.29,0,0,1,99.49,111.29Z"/><path class="cls-1" d="M98.33,108.28s0-.07,0-.09,0-.11-.09-.18c-.17.14-.17.14-.18.25a.23.23,0,0,1,.11.08Z"/><path class="cls-1" d="M100.83,109.54s0,.07.08.06.16,0,.24,0h0c-.06,0-.13,0-.18,0A.1.1,0,0,0,100.83,109.54Z"/><path class="cls-1" d="M100.2,116.83s-.08,0-.11,0-.11,0-.13.09A.67.67,0,0,0,100.2,116.83Z"/><path class="cls-1" d="M95,138.41a1,1,0,0,1-.26.51c.17,0,.1.19.17.26h.15a.13.13,0,0,0,.11-.06.41.41,0,0,0,.06-.35,2.84,2.84,0,0,0-.16-.35Zm0,.53a.08.08,0,0,1-.08,0s0,0,0-.07a.09.09,0,0,1,0-.1s.06,0,.07,0S95,138.89,95,138.94Z"/><path class="cls-1" d="M100.33,109.17c.11,0,.18,0,.24-.11s0-.12,0-.19a.18.18,0,0,1,.07-.15l.2-.18a.13.13,0,0,0,.06-.13.17.17,0,0,0-.19,0,1.72,1.72,0,0,0-.37.22.34.34,0,0,0,.13.16,3.57,3.57,0,0,0-.31.37C100.24,109.21,100.29,109.16,100.33,109.17Z"/><path class="cls-1" d="M99.81,106.86a.11.11,0,0,1,.08-.13.18.18,0,0,0,.13-.16c-.21,0-.31.15-.29.34s0,.06,0,.1S99.83,107,99.81,106.86Z"/><path class="cls-1" d="M103.71,129.56s.07-.06.05-.1-.07-.08-.14-.06A.19.19,0,0,0,103.71,129.56Z"/><path class="cls-1" d="M102.62,126.45a.2.2,0,0,0-.11,0,6,6,0,0,0-.69.3c-.11.06-.11,0-.1.2.18,0,.32-.17.49-.22a3.66,3.66,0,0,0,.51-.21C102.72,126.47,102.68,126.45,102.62,126.45Z"/><path class="cls-1" d="M103.66,130.62a.16.16,0,0,0,0,.11s0-.06,0-.09l.12,0s.1,0,.14,0C103.79,130.58,103.74,130.58,103.66,130.62Z"/><path class="cls-1" d="M103.3,130.43a.15.15,0,0,0,0,.13c.07,0,.15,0,.22-.06C103.48,130.49,103.42,130.35,103.3,130.43Z"/><path class="cls-1" d="M102.06,128.48v0c.26,0,.26,0,.33-.06s-.07-.07-.14,0Z"/><path class="cls-1" d="M105.37,134.58a.08.08,0,0,0,0-.1.24.24,0,0,0-.24-.07.24.24,0,0,0-.07.16.08.08,0,0,0,0,.07A.21.21,0,0,0,105.37,134.58Z"/><path class="cls-1" d="M103.08,127.92c-.06,0,0-.12,0-.19a1,1,0,0,0-.28.12.22.22,0,0,1-.13.06.45.45,0,0,0-.18,0,.13.13,0,0,1,.1,0c.08.09.19.08.29.09s.21-.08.33-.07a.07.07,0,0,0,.07,0S103.13,127.94,103.08,127.92Z"/><path class="cls-1" d="M100,119.36c-.06,0,0-.09-.11-.11a1.13,1.13,0,0,1-.18.07c.12,0,.2.1.31.07s.19-.12.3-.12,0,0,0,0v0a.07.07,0,0,0-.06,0,.17.17,0,0,1-.19,0C100,119.23,100,119.31,100,119.36Z"/><path class="cls-1" d="M98.31,117.19s0,.08.06.09a.73.73,0,0,0,.49-.11l-.14-.11a.71.71,0,0,1-.26.16S98.36,117.16,98.31,117.19Z"/><path class="cls-1" d="M113.8,140.49h0s0,0,0,0,.12.08.19.1l0,0s0,0,0,0,0,0,0-.09-.07-.07-.11-.11S113.87,140.43,113.8,140.49Z"/><path class="cls-1" d="M112.39,122.1c0,.13.11.12.17.17s.11,0,.17,0l-.09-.25C112.54,122,112.44,122,112.39,122.1Z"/><path class="cls-1" d="M113.26,126a.43.43,0,0,0-.09.21l.12.12a1.31,1.31,0,0,0,.21-.08c0-.11-.07-.16-.1-.23S113.32,126,113.26,126Z"/><path class="cls-1" d="M117,131s.07,0,.11,0l-.06-.22a.38.38,0,0,0-.32-.32c-.17,0-.22,0-.31.13s-.14,0-.33.21c.08,0,.13-.06.19,0a.12.12,0,0,0,.1,0,.19.19,0,0,1,.19.06.11.11,0,0,0,.08,0A.41.41,0,0,1,117,131Z"/><path class="cls-1" d="M118,135.64a1.61,1.61,0,0,1-.26.15C117.8,135.84,117.85,135.8,118,135.64Z"/><path class="cls-1" d="M111.6,120.49a1.08,1.08,0,0,1-.28.11s0,.08,0,.11a.29.29,0,0,0,.2-.07.23.23,0,0,1,.23,0c.09.15,0,.28,0,.42s0,0,.07,0a.26.26,0,0,0,.1-.21,1.45,1.45,0,0,1,0-.3C111.79,120.52,111.7,120.45,111.6,120.49Z"/><path class="cls-1" d="M107.61,112.24s0,.07,0,.1a.17.17,0,0,0,.17,0s.12,0,.14-.07-.07,0-.1-.06-.13-.06-.2,0-.23,0-.35.07,0,0-.06,0a.46.46,0,0,0,.22,0A.19.19,0,0,1,107.61,112.24Z"/><path class="cls-1" d="M112.71,125a.23.23,0,0,1-.14,0,.37.37,0,0,0-.37.15c0,.08,0,.08.11.12s0,0,.07,0a.14.14,0,0,1,.2,0s.06,0,.09,0,0-.13.11-.2C112.76,125,112.73,125,112.71,125Z"/><path class="cls-1" d="M114.94,132.72a0,0,0,0,0,0,.07c.09,0,.26,0,.28.17.09,0,.18.08.23-.05a.94.94,0,0,0-.12-.22A.25.25,0,0,0,114.94,132.72Z"/><path class="cls-1" d="M117.61,131.36c.09.07.12.07.17,0S117.68,131.27,117.61,131.36Z"/><path class="cls-1" d="M111.5,111.08c.06-.07,0-.11,0-.17s-.08,0-.07.1A.08.08,0,0,0,111.5,111.08Z"/><path class="cls-1" d="M111.75,112.08s.09,0,.15,0a.36.36,0,0,0-.11-.25C111.73,111.92,111.76,112,111.75,112.08Z"/><path class="cls-1" d="M111.62,111.45s0,0,0,0a.13.13,0,0,0,0,.1l.13.07C111.68,111.5,111.68,111.5,111.62,111.45Z"/><path class="cls-1" d="M121.68,98.89a.1.1,0,0,1,.08-.12.19.19,0,0,0,.13-.17c-.21,0-.31.16-.29.35,0,0,0,.06,0,.1S121.7,99,121.68,98.89Z"/><path class="cls-1" d="M114.21,120.72c.07.06.14,0,.23,0s0-.09,0-.13A.21.21,0,0,0,114.21,120.72Z"/><path class="cls-1" d="M118.34,134s-.09,0-.13,0,.08.05.08.12-.1.13-.17.14-.11.06-.17.13a.74.74,0,0,0,.15,0c.06,0,.11-.08.17-.08a.36.36,0,0,0,.28-.2s0-.09,0-.14S118.4,134.07,118.34,134Z"/><path class="cls-1" d="M117.27,132.53a.33.33,0,0,1,.25.05c0-.1.1-.17,0-.27a.82.82,0,0,0-.26.14S117.27,132.5,117.27,132.53Z"/><path class="cls-1" d="M111.62,122.88l.1.11a1.28,1.28,0,0,0,.27-.11.28.28,0,0,0-.06-.14A.55.55,0,0,0,111.62,122.88Z"/><path class="cls-1" d="M113.84,135c-.09.14-.17.26,0,.43a.55.55,0,0,1,.17,0,.17.17,0,0,0,.06-.11,1,1,0,0,1-.12-.17S113.91,135.07,113.84,135Z"/><path class="cls-1" d="M102.37,124s0,0,0,0,.14,0,.14,0,0-.11,0-.17a.18.18,0,0,0-.19,0A.09.09,0,0,0,102.37,124Z"/><path class="cls-1" d="M102.44,122.49h-.14a.06.06,0,0,0-.06,0c0,.08-.1.09-.17.09a.21.21,0,0,0-.16.07.91.91,0,0,1-.17.17s0,0,0,.06c.21,0,.22,0,.24.1a.22.22,0,0,1-.12,0l0,0c-.08,0-.15,0-.16.06s-.11.19-.19.27,0,0,0,.06.14.06.22,0,.06-.09.12-.11a.13.13,0,0,1,.17,0s0,.09,0,.14,0,0,0,0a.47.47,0,0,1,0,.31l.19,0c.07.08.1.09.16,0s.05-.09,0-.14,0-.06,0-.09-.06,0-.1,0-.06.06-.11.06-.06-.16.07-.18l.11-.05c.14-.08.23-.12.33,0s-.16,0-.2.13.07.07.12.1.1-.08.15-.08,0,.13.08.18a.19.19,0,0,0,0-.15s0-.09,0-.1.07-.16.09-.25-.08-.06-.08-.13.06,0,.06-.1a.25.25,0,0,1-.06-.3.64.64,0,0,1,0-.07.23.23,0,0,0-.06-.21C102.53,122.45,102.49,122.49,102.44,122.49Zm-.18.77s-.07,0-.1,0-.06.08-.11.05,0-.08,0-.14a.15.15,0,0,1,.09,0s0-.11.14-.09S102.29,123.2,102.26,123.26Z"/><path class="cls-1" d="M93.1,133.48c0-.09,0-.15-.07-.22s0-.11-.16-.11c-.1.18,0,.36,0,.53C93.05,133.67,93.09,133.64,93.1,133.48Z"/><path class="cls-1" d="M111.59,121.09c-.08,0-.16.06-.25,0s0,0,0,0a.19.19,0,0,0-.09.13A1.32,1.32,0,0,0,111.59,121.09Z"/><path class="cls-1" d="M98.69,109.41h0a.14.14,0,0,0,0-.2.26.26,0,0,0-.33-.15c0-.06-.13-.1-.13-.19s.17-.08.23-.15a.06.06,0,0,0-.08,0,.85.85,0,0,0-.31.17s0,.07-.06.11a.48.48,0,0,1-.14.34.07.07,0,0,1,0,.11.37.37,0,0,0-.14.24.27.27,0,0,0,.21-.06,2,2,0,0,1,.33-.15A.39.39,0,0,1,98.69,109.41Z"/><path class="cls-1" d="M104.72,132a.2.2,0,0,1,.12-.06s0,0,0-.05l-.47.18C104.52,132.07,104.64,132.1,104.72,132Z"/><path class="cls-1" d="M105.79,137.72l.28-.05c.05,0,.06-.06.07-.12S106,137.54,105.79,137.72Z"/><path class="cls-1" d="M106.2,136c0-.11,0-.11-.17-.11s0,0,0,0-.28,0-.37.14a.54.54,0,0,0,0,.11l.2-.08a.18.18,0,0,1,.2,0,.13.13,0,0,0,.1,0c.1,0,.16-.05.23-.11S106.25,136.06,106.2,136Z"/><path class="cls-1" d="M106.68,136.49s.07,0,.07,0,0-.12,0-.19c-.15.08-.15.08-.18.16S106.64,136.45,106.68,136.49Z"/><path class="cls-1" d="M110.89,114.9c.13,0,.26,0,.38,0s.06,0,.06,0a0,0,0,0,0,0,0,.34.34,0,0,1-.22,0A.16.16,0,0,0,110.89,114.9Z"/><path class="cls-1" d="M108.84,112.16v0l-.44.17C108.55,112.27,108.74,112.34,108.84,112.16Z"/><path class="cls-1" d="M115.33,129.22c0,.11.14.06.21.06s.07-.06.07-.13A.35.35,0,0,0,115.33,129.22Z"/><path class="cls-1" d="M104.91,134.28a.58.58,0,0,0-.25-.09c-.1,0-.17,0-.19-.14l0-.05c-.1,0-.18-.07-.28,0a.05.05,0,0,1,0-.06s.05,0,.07,0-.18,0-.23-.1a.77.77,0,0,1-.17.05c-.13,0-.2.11-.32.14v0c0,.09.06.24.15.23a1.09,1.09,0,0,0,.25,0,.19.19,0,0,1,.19,0,.22.22,0,0,0,.28-.05s.08,0,.12,0a.07.07,0,0,1,0,.08s-.06,0-.08,0,0,.12,0,.2a.64.64,0,0,0,.47,0C104.85,134.41,104.92,134.37,104.91,134.28Z"/><path class="cls-1" d="M110.69,118.1a.12.12,0,0,0,0,.18.8.8,0,0,1,.13.32.36.36,0,0,0,.1.18c0-.13.06-.24.05-.35a.52.52,0,0,1,0-.3.06.06,0,0,0,0-.07s-.09-.1-.16-.08S110.73,118.08,110.69,118.1Z"/><path class="cls-1" d="M112,128.74a3.07,3.07,0,0,1-.25-.59,3.65,3.65,0,0,0-.18-.41,2.92,2.92,0,0,1-.19-.49.51.51,0,0,0-.06-.21,1.5,1.5,0,0,1-.17-.46.53.53,0,0,0-.07-.2,1.54,1.54,0,0,1-.2-.43l-.19-.48a.23.23,0,0,1,0-.11.28.28,0,0,0,0-.16c-.07-.12-.15-.24-.21-.36a.56.56,0,0,1-.1-.24,1.6,1.6,0,0,0-.12-.37,1.26,1.26,0,0,0-.16-.46,1.2,1.2,0,0,0-.13-.36c0-.13-.08-.25-.13-.38a2.59,2.59,0,0,1-.11-.37,1.45,1.45,0,0,0-.09-.22,1.62,1.62,0,0,1-.17-.41,2.05,2.05,0,0,0-.16-.55.07.07,0,0,1,0-.06,1.72,1.72,0,0,0-.11-.5c0-.12-.09-.24-.11-.37a1.86,1.86,0,0,0-.14-.37,1.6,1.6,0,0,1-.1-.31.47.47,0,0,0-.09-.22.7.7,0,0,1-.11-.27,1.08,1.08,0,0,0-.11-.36,7.19,7.19,0,0,1-.34-.75.61.61,0,0,0-.13-.22.66.66,0,0,1-.11-.26,1.27,1.27,0,0,0-.11-.38,2.19,2.19,0,0,0-.17-.55s0,0,0-.08a.9.9,0,0,0-.07-.27,2.6,2.6,0,0,0-.1-.25,2.91,2.91,0,0,0-.21-.48.26.26,0,0,1-.06-.19.11.11,0,0,0,0-.06c-.11-.12-.1-.28-.14-.43a.19.19,0,0,1-.11-.16s0,0,0,0a.36.36,0,0,1-.09-.23.15.15,0,0,0,0-.07,3.42,3.42,0,0,1-.23-.42.6.6,0,0,0-.06-.22c-.11-.17-.16-.37-.26-.55a.67.67,0,0,1-.08-.17A1.84,1.84,0,0,0,106,113c-.08-.25-.25-.44-.32-.69a1.31,1.31,0,0,0-.25-.44.51.51,0,0,1-.17-.34.21.21,0,0,0,0-.1c-.09-.2-.29-.3-.43-.46h-.05a2.72,2.72,0,0,1-.35-.16.58.58,0,0,1-.29-.17s0,0,0,0a.36.36,0,0,1-.27-.06s0,0,0,0-.15,0-.22,0a1,1,0,0,1-.3,0,1.45,1.45,0,0,0-.62.07,5.12,5.12,0,0,1-.67.19,1.32,1.32,0,0,0-.39.15,2.46,2.46,0,0,1-.45.25.85.85,0,0,0-.22.13l-.28.24a.3.3,0,0,1-.2.08.08.08,0,0,0-.08,0s.09,0,.08.1,0,.18-.07.26a.17.17,0,0,0,0,.14.29.29,0,0,1,0,.09,1,1,0,0,0-.09.29,1,1,0,0,0,0,.35s0,0,0,0a.37.37,0,0,0,0,.23.3.3,0,0,1-.07.24.5.5,0,0,1,0,.21.41.41,0,0,0,0,.22.28.28,0,0,1,0,.22.23.23,0,0,0,0,.27.51.51,0,0,1,.09.18,3.68,3.68,0,0,1,.18.59.17.17,0,0,0,.06.12s0,0,0,.07a3.85,3.85,0,0,1,.2.57c.08.29.18.56.24.84a.35.35,0,0,0,.07.15,2.87,2.87,0,0,1,.27.66c0,.12.07.23.11.34a5.49,5.49,0,0,1,.24.68c0,.1.07.18.09.28a1.16,1.16,0,0,0,.07.31c0,.11.07.22.11.33a3.1,3.1,0,0,0,.21.58s0,0,0,0a1.49,1.49,0,0,0,.15.45c0,.06,0,.13.05.19a3.2,3.2,0,0,1,.1.42c0,.08,0,.14,0,.2s.1.1.07.16.1,0,.14.11a1.51,1.51,0,0,0,.22.44.82.82,0,0,1,.18.39,1.2,1.2,0,0,0,.15.37,1.24,1.24,0,0,1,.12.32c0,.11,0,.22.08.34a1.15,1.15,0,0,1,0,.61l.06.15a.13.13,0,0,1,.13.14.09.09,0,0,0,0,0,.83.83,0,0,1,.08.22.77.77,0,0,0,.07.28,1.31,1.31,0,0,1,.16.34,1.15,1.15,0,0,1,.1.23,2.43,2.43,0,0,0,.2.61,1.7,1.7,0,0,1,.18.44,1,1,0,0,0,0,.17c0,.16.11.3.13.45a1.87,1.87,0,0,0,.08.34,1.18,1.18,0,0,0,.19.43.86.86,0,0,1,.16.41,1.37,1.37,0,0,0,.08.35l.29.68a1.52,1.52,0,0,1,.09.28,4.81,4.81,0,0,0,.2.53.27.27,0,0,1,.05.14.78.78,0,0,0,.07.23,1.74,1.74,0,0,1,.16.41,1.39,1.39,0,0,0,.11.21,2.52,2.52,0,0,0,.12.29c.13.2.2.43.31.64s.2.63.34.94.19.56.3.83c0,.06,0,.13,0,.18a.33.33,0,0,1,.07.16.88.88,0,0,0,0,.15,4.43,4.43,0,0,1,.2.45.3.3,0,0,0,.11.14c.13.07.22.2.35.28a.76.76,0,0,1,.17.22,1.19,1.19,0,0,0,.38.36.78.78,0,0,1,.26.25s.1,0,.13.06,0,0,.07,0,.26.12.37.19.2.16.33.16a2,2,0,0,1,.55.07.71.71,0,0,0,.21,0,3,3,0,0,0,.73-.11.42.42,0,0,0,.19-.06,5.3,5.3,0,0,1,.57-.33,2,2,0,0,0,.25-.18,1.92,1.92,0,0,1,.42-.28c.13-.07.27-.1.34-.25l0,0a1.32,1.32,0,0,0,.26-.36.76.76,0,0,1,.18-.22.62.62,0,0,0,.14-.18.16.16,0,0,1-.1-.17.28.28,0,0,1,.06-.25.17.17,0,0,0,0-.12c0-.05.06-.06,0-.11v0s0-.06,0-.09,0-.07,0-.11,0-.33,0-.51a1,1,0,0,0-.1-.4c-.09-.21-.14-.44-.22-.66s-.15-.41-.21-.62a1.63,1.63,0,0,1-.11-.31.28.28,0,0,0,0-.12,1,1,0,0,1-.1-.31,2.17,2.17,0,0,0-.12-.36,1.57,1.57,0,0,1-.1-.28.63.63,0,0,0-.09-.24.29.29,0,0,1,0-.1.61.61,0,0,0,0-.18,1.21,1.21,0,0,1-.08-.25.85.85,0,0,0-.11-.35.7.7,0,0,1-.09-.24A.32.32,0,0,0,112,128.74Z"/><path class="cls-1" d="M110.48,114.46c.09,0,.15-.08.13-.18s.06,0,.08,0,.1,0,.14.09,0,0,0,.08a.13.13,0,0,1,0,.07.39.39,0,0,1-.14.08l-.18.09c-.08.07,0,.16-.08.23s.14.09.23,0-.13,0-.15-.12,0-.07.06-.07a1.89,1.89,0,0,0,.23,0,1.17,1.17,0,0,0,.37-.08c.12-.06.13-.06.24.05s.13,0,.13-.11a.14.14,0,0,0-.15-.05s-.1,0-.13,0-.17-.07-.2-.18a.05.05,0,0,0,0,0c-.08,0-.09-.06-.11-.13s-.17,0-.25,0-.17.07-.24.12a1.67,1.67,0,0,1-.23.12c-.08,0-.06.16-.18.18A1.62,1.62,0,0,0,110.48,114.46Z"/><path class="cls-1" d="M117.81,132.51s.06,0,.06,0a.19.19,0,0,0,0-.08.11.11,0,0,0-.1,0C117.75,132.48,117.76,132.51,117.81,132.51Z"/><path class="cls-1" d="M80.67,137.62a.54.54,0,0,0,.27-.16c.08-.07.08-.06,0-.16a.43.43,0,0,0,0-.05c0-.19-.06-.21-.25-.29,0,0,0,0,0,0a.24.24,0,0,0-.16-.11.1.1,0,0,1-.05-.06l-.12-.21a.09.09,0,0,0,0,.11.63.63,0,0,1,.06.36,1.53,1.53,0,0,0,0,.3A.29.29,0,0,0,80.67,137.62Z"/><path class="cls-1" d="M72.5,118.17a1.61,1.61,0,0,0-.15-.26.17.17,0,0,1,0,0,.71.71,0,0,0-.07-.26.28.28,0,0,1,0-.12c0-.08,0-.13-.07-.19h0a.28.28,0,0,0-.16.29,1.61,1.61,0,0,1,0,.31c0,.1.05.22,0,.32s.06.14.11.19A.46.46,0,0,0,72.5,118.17Z"/><path class="cls-1" d="M77.48,130.52c.12.09.12.09.27,0a1.11,1.11,0,0,1,0-.17.56.56,0,0,0-.13-.32.16.16,0,0,0-.16-.06c-.07,0-.09.06-.09.12a.39.39,0,0,1,0,.18.15.15,0,0,0,0,.14C77.38,130.47,77.44,130.48,77.48,130.52Z"/><path class="cls-1" d="M82.05,150c-.06,0-.1,0-.11.11a.19.19,0,0,0,.19,0C82.1,150,82.09,150,82.05,150Z"/><path class="cls-1" d="M76.55,128.94a.11.11,0,0,0,.08,0,.3.3,0,0,0,.06-.22.12.12,0,0,0-.12,0C76.6,128.85,76.6,128.85,76.55,128.94Z"/><path class="cls-1" d="M81.33,141.15c-.06.07,0,.13,0,.2s.06-.13.1-.19S81.37,141.12,81.33,141.15Z"/><path class="cls-1" d="M75.33,123.89c.13,0,.17,0,.22-.11s-.1,0-.16,0-.07-.11-.12-.15-.08,0-.14.09.06.09.1.13A.16.16,0,0,1,75.33,123.89Z"/><path class="cls-1" d="M77.38,135.92c-.09.06-.2.05-.27.16C77.27,136.14,77.38,136.08,77.38,135.92Z"/><path class="cls-1" d="M122.2,101.21a.21.21,0,0,0,.24-.11.31.31,0,0,0,0-.19.18.18,0,0,1,.07-.15c.07-.06.13-.13.2-.18a.13.13,0,0,0,.06-.13.16.16,0,0,0-.19,0,2,2,0,0,0-.37.22.28.28,0,0,0,.13.15c-.09.14-.22.24-.31.38S122.16,101.2,122.2,101.21Z"/><path class="cls-1" d="M72.08,116.75a.78.78,0,0,1,0-.18c.07-.14.07-.14,0-.25s0-.06-.06-.06-.09,0-.12.08a.56.56,0,0,1-.24.22.26.26,0,0,0,.15.29Z"/><path class="cls-1" d="M79.07,137.3c-.07,0,0,.08-.08.11l0,0a1.08,1.08,0,0,0-.18.11l.07.08h0a.15.15,0,0,0,.17-.12s0-.07.08,0a.13.13,0,0,0,.08,0c.06,0,0-.14.07-.18l-.08-.1A.54.54,0,0,1,79.07,137.3Z"/><path class="cls-1" d="M76.72,132.76a.26.26,0,0,0-.22.12s.07.08.14.09A1,1,0,0,0,76.72,132.76Z"/><path class="cls-1" d="M78.68,134.86l-.07,0a.61.61,0,0,1-.32.25C78.47,135.12,78.69,135,78.68,134.86Z"/><path class="cls-1" d="M79.84,139.63a.09.09,0,0,0,.12-.12s0-.06,0-.08a.18.18,0,0,1-.09-.14s0,0-.09,0,0,.11,0,.16a.31.31,0,0,1,.06.19Z"/><path class="cls-1" d="M81.33,141.48a.4.4,0,0,1-.08.2c0,.07-.15,0-.2.11.1,0,.18.1.28,0S81.46,141.61,81.33,141.48Z"/><path class="cls-1" d="M80.79,144.34a.1.1,0,0,0,0,.09c.12,0,.16,0,.24-.08l-.12-.06A.08.08,0,0,0,80.79,144.34Z"/><path class="cls-1" d="M73.77,123.28a1.74,1.74,0,0,1-.11-.18.29.29,0,0,0-.29.16s.06.1.11.11a.19.19,0,0,1,.16.19C73.83,123.52,73.88,123.42,73.77,123.28Z"/><path class="cls-1" d="M81.44,144a.12.12,0,0,0-.09.07c.07.1,0,.19,0,.31.11-.06.23,0,.33-.11A1.09,1.09,0,0,0,81.44,144Z"/><path class="cls-1" d="M83.49,149.54a.16.16,0,0,0-.08.19,1.25,1.25,0,0,0,.29-.11C83.6,149.52,83.56,149.5,83.49,149.54Z"/><path class="cls-1" d="M93.37,135.61c0,.06,0,.13,0,.19a.27.27,0,0,0,0-.15C93.48,135.6,93.44,135.57,93.37,135.61Z"/><path class="cls-1" d="M85.65,100.76a10.93,10.93,0,0,0-1.14.39c-.46.18-.94.35-1.37.54a6.9,6.9,0,0,1-.71.25,10.4,10.4,0,0,0-1.7.59l-1.48.6a19.44,19.44,0,0,1-2.6.83l-.27.06c-.15.1-.42.15-.63.26s-.11.14.08.14c.91-.31,1.82-.68,2.73-1,.67-.27,1.39-.51,2.07-.77a6.28,6.28,0,0,1,1-.33c.55-.23,1.15-.45,1.71-.65s.94-.34,1.41-.51c.82-.29,1.63-.61,2.46-.86a3.87,3.87,0,0,0,1-.45c-.62.21-1.16.37-1.76.59C86.22,100.57,85.85,100.71,85.65,100.76Z"/><path class="cls-1" d="M97.38,96.56c.54-.18,1.09-.36,1.6-.5a9.67,9.67,0,0,0-1.43.39C97.35,96.52,97.3,96.56,97.38,96.56Z"/><path class="cls-1" d="M5.78,129.59c.5-.19.85-.25,1.32-.42.12-.07.12-.1,0-.07A11.8,11.8,0,0,0,5.78,129.59Z"/><path class="cls-1" d="M.78,127.21l2.87-1c.69-.23,1.39-.49,2.08-.73,1.43-.5,2.88-1,4.3-1.57.77-.25,1.52-.58,2.3-.83l.22-.08c1-.43,2.13-.79,3.19-1.16s1.93-.7,2.9-1c1.23-.42,2.46-.88,3.7-1.33L27,117.8l1.11-.38c.68-.23,1.32-.48,2-.73.82-.3,1.65-.61,2.47-.89l.49-.19c.88-.32,1.77-.62,2.64-1l2.57-1c1.3-.5,2.62-1,3.94-1.42l.13,0c.72-.34,1.59-.59,2.38-.9,1-.4,2.09-.79,3.16-1.15l.8-.3c1-.4,2.06-.78,3.1-1.14.52-.17,1.05-.38,1.58-.56,1.33-.46,2.68-.93,4-1.42,1.06-.4,2.13-.78,3.18-1.19.35-.14.74-.26,1.1-.4,1.49-.55,3-1.06,4.45-1.59l.9-.33c1.11-.44,2.27-.86,3.41-1.27s2.33-.86,3.49-1.27c.77-.27,1.54-.57,2.3-.82.29-.09.51-.2.79-.3.87-.31,1.74-.65,2.62-.94l.37-.14c.85-.34,1.72-.64,2.59-1,.36-.12.75-.26,1.1-.41s.68-.25,1-.38c1-.37,2-.78,3-1.12.21-.06.45-.16.67-.24,1.5-.55,3-1.08,4.49-1.61l.44-.16c.41-.17.81-.31,1.24-.46s.67-.25,1-.38q.93-.34,1.86-.66c1.16-.4,2.33-.83,3.5-1.22.58-.2,1.17-.44,1.75-.66s.85-.33,1.27-.5c.72-.29,1.47-.54,2.22-.8,1.33-.45,2.68-.9,4-1.4s2.6-.94,3.85-1.44c.25-.1.48-.16.73-.25,1.09-.4,2.17-.79,3.26-1.17l2.91-1q2.44-.91,4.91-1.8c.74-.27,1.51-.52,2.24-.81s1.18-.44,1.77-.66a9.17,9.17,0,0,1,.88-.3c.24-.07.48-.16.73-.25,1.11-.4,2.22-.81,3.31-1.19.9-.31,1.8-.64,2.68-1,1.13-.42,2.27-.81,3.39-1.25.68-.27,1.43-.55,2.15-.78.48-.15,1-.33,1.47-.5,1.23-.43,2.46-.89,3.69-1.35l.65-.25a10.44,10.44,0,0,1,1-.37c.31-.09.63-.21.95-.32.77-.26,1.52-.56,2.27-.83,1-.35,2-.74,3-1.09l2-.72,4.47-1.57a6.44,6.44,0,0,0,1-.34c1.44-.59,2.89-1.16,4.44-1.69.5-.17,1-.38,1.46-.56s1.23-.46,1.85-.7l2.76-1c.57-.21,1.15-.42,1.7-.64l.37-.14c1.13-.38,2.22-.82,3.34-1.23l3.29-1.21,3.83-1.4c.76-.28,1.5-.53,2.24-.78l.29-.1c1.22-.49,2.48-.89,3.71-1.36.31-.12.59-.2.89-.31,1.54-.53,3.1-1.1,4.61-1.67,1.1-.42,2.23-.85,3.32-1.29s2-.78,3.09-1.15,2.39-.84,3.57-1.28c.68-.26,1.34-.48,2-.71l.82-.29c.17-.06.35-.13.5-.17a7.86,7.86,0,0,0,1.05-.34l.21-.07c.38-.08.9-.27,1.38-.43l.35-.12a2.18,2.18,0,0,1-.35-.68A5.59,5.59,0,0,0,213,46.57c-1-.94-1.48-2.3-2.86-2.8-.32-.12-.25-.44-.4-.62-.57-.69-.54-1.85-1.7-2a1.45,1.45,0,0,0-.56-1.41c-.51-.38-.53-1.32-1.44-1.34,0,0,0-.24-.07-.32-.57-.62-.8-1.56-1.57-1.94a7.43,7.43,0,0,1-2.19-2c-.17-.19-.25-.48-.54-.53a3.23,3.23,0,0,1-1.81-1.37c-1.12-1.34-2.4-2.53-3.51-3.88a2.25,2.25,0,0,0-.72-.51,1.41,1.41,0,0,1-.63-.45,3.9,3.9,0,0,0-1.47-1.16,1.43,1.43,0,0,1-.63-.43c-.59-1-1.7-1.2-2.62-1.63A1.74,1.74,0,0,1,189.07,23c-.31-1.08-.44-1.59-1.9-1.58a1.81,1.81,0,0,1-.34-.08,3.61,3.61,0,0,0-2.6-1.72c-.29-.06-.7-.09-.83-.29-.41-.61-1.11-.69-1.66-1-.16-.09-.39-.13-.44-.31-.16-.71-.75-.75-1.29-.83a1.75,1.75,0,0,1-1.4-1,1.65,1.65,0,0,0-1-.83,23,23,0,0,1-2.4-1.15,56.16,56.16,0,0,0-5.48-2.76.85.85,0,0,1-.42-.35c-.19-.38-.55-.49-.87-.66a4.23,4.23,0,0,0-2.18-.53c-.42-.23-.37-.85-.92-.83-.37.15-.39.64-.86.84a3.52,3.52,0,0,1-1.32-.1,4.58,4.58,0,0,1-.18-.44c-.23-.91-1.1-1.24-1.68-1.84-.88.14-1.35-.61-2-.92A1.92,1.92,0,0,0,158,6.34a2.83,2.83,0,0,1-2.3-.63A4.27,4.27,0,0,0,153.84,5c-1.58-.27-3.29,0-4.68-1.1-.07-.06-.23,0-.32-.06a14.26,14.26,0,0,0-3.16-.62c-.73-.15-1.33-.59-2.07-.74-2-.4-4-.71-6-1.11a15.7,15.7,0,0,0-2.89-.22,8.87,8.87,0,0,1-1.46-.07A6,6,0,0,0,130.87,1a1.55,1.55,0,0,1-1-.1,4.82,4.82,0,0,0-2.19-.33,6.73,6.73,0,0,1-1.33-.13A8.91,8.91,0,0,0,123.94.1a22.89,22.89,0,0,1-2.61.18A41.93,41.93,0,0,1,115.51.1a18.82,18.82,0,0,0-5.13.26,14.94,14.94,0,0,0-2.09.27c-1.68.47-3.42.63-5.12,1a16.6,16.6,0,0,1-4.49.73,1.78,1.78,0,0,0-.62.22,7.56,7.56,0,0,1-3.33.76,13.75,13.75,0,0,0-4.58.54A32.73,32.73,0,0,1,86.58,5a5.62,5.62,0,0,0-1.21.18c-1.22.43-2.49.69-3.74,1a10,10,0,0,0-1.73.34,37.51,37.51,0,0,1-4.35,1.67c-1,.31-2,.46-2.63,1.46-.17.28-.5.27-.79.36a3.86,3.86,0,0,0-2,.89,2.49,2.49,0,0,1-1.36.68c-.53.13-1.18.11-1.57.51A6.54,6.54,0,0,1,65,13.45c-.67.3-1.09,1-1.71,1.2A10.19,10.19,0,0,0,60.93,16a3.13,3.13,0,0,1-.48.25,14.56,14.56,0,0,1-3,1,7.78,7.78,0,0,0-2,1c-.69.39-1.59.41-2,1.27-1.3.46-2.06,1.84-3.53,2-.38,0-.7.41-1.07.59-.85.4-1.22,1.27-1.87,1.86-.5.44-1.14.73-1.63,1.14s-.65,1.15-1,1.7a3.42,3.42,0,0,1-.86.88,33.3,33.3,0,0,1-3.66,2.56,12.52,12.52,0,0,0-3,2.29c-.28.27-.34.71-.66.89-1.46.8-2.09,2.33-3.1,3.52a8.13,8.13,0,0,1-1.41,1.52c-.18.13-.37.26-.4.5a1.2,1.2,0,0,1-.77.9,3,3,0,0,0-.79.77c-.9,1-1.7,2.12-2.67,3.08a8.47,8.47,0,0,0-2.39,3.68,3.08,3.08,0,0,1-1.23,1.87,2.53,2.53,0,0,0-.74.95c-.67,1.05-1,2.37-2.2,3a.53.53,0,0,0-.23.36c-.06.82-.7,1.28-1.12,1.88s-1,1.13-1.37,1.74a37,37,0,0,0-2.73,6.05c-.78,1.86-4.49,5.6-3.95,6.08a.6.6,0,0,1-.22,1c-.44.19-.56.58-.72,1-.31.7-.62,1.41-.88,2.14s-.74,1.32-.91,2c-.32,1.4-.68,2.79-1,4.19a19.36,19.36,0,0,1-1.29,3.42,33.14,33.14,0,0,0-1.48,4.2c-.37,1.3-.77,2.61-1.18,3.91-.64,2.06-.84,4.24-1.33,6.35a14.52,14.52,0,0,0-.55,2.73,20.42,20.42,0,0,1-1,6,6.3,6.3,0,0,0-.44,2.83,30.44,30.44,0,0,1,0,6.11,40.75,40.75,0,0,0-.11,5.41,7.53,7.53,0,0,1,.18,1.21,28.62,28.62,0,0,0,.28,5.39Z"/><path class="cls-1" d="M235.38,111.57c-1.13.41-2.27.86-3.37,1.18l-.28.08c-1.14.32-2.31.77-3.48,1.23-.59.23-1.18.42-1.77.64l-.42.17c-.33.14-.67.27-1.07.4s-.93.33-1.4.5l-2.46.9c-1.73.61-3.46,1.26-5.2,1.85-.76.26-1.55.56-2.34.85s-1.42.53-2.14.77c-1,.33-2,.68-2.91,1.08-.46.2-1,.38-1.51.56a5.08,5.08,0,0,0-.51.17c-1.55.6-3.12,1.12-4.68,1.69L198,125c-.52.19-1,.39-1.53.58s-1.32.47-2,.68c-.49.15-1,.35-1.47.53-1,.42-2.07.82-3.14,1.21l-1.79.66c-.38.14-.75.28-1.09.37-.16,0-.34.11-.51.17-.86.32-1.72.63-2.54,1-.36.15-.77.3-1.11.41-.55.18-1.1.39-1.63.57a9.44,9.44,0,0,0-.89.32c-.41.17-.81.31-1.25.46-.59.2-1.2.42-1.77.65l-.81.31c-.88.3-1.71.63-2.56.95s-1.92.73-2.9,1.06l-.29.1c-2.45.93-4.9,1.83-7.37,2.68l-1.19.44-3.12,1.14c-.57.21-1.15.43-1.74.62-.31.1-.63.23-1,.36-.65.26-1.32.51-2,.76s-1.49.53-2.23.81l-1.12.42-2.36.86c-.36.13-.67.26-1,.4-.67.25-1.31.46-2,.68-.33.11-.64.23-.93.34-.62.24-1.22.46-1.85.68l-2.25.81c-.7.25-1.37.53-2.08.78l-.13.05c-.89.27-1.78.62-2.66.95L132.53,149c-.76.3-1.51.58-2.28.86l-.67.23c-1.09.37-2.18.76-3.28,1.17-.77.29-1.56.59-2.36.86a13.25,13.25,0,0,0-1.56.6c-.52.24-1.16.44-1.73.64-.93.31-1.84.65-2.75,1-.42.16-.84.32-1.26.46l-.45.15c-.86.33-1.73.6-2.58.92s-1.61.58-2.41.85l-.58.22c-1.08.41-2.16.83-3.26,1.19l-.28.1c-1.06.41-2.14.78-3.21,1.15-.54.19-1.07.39-1.53.6l-.35.14c-1.19.41-2.38.84-3.57,1.27-.53.19-.93.28-1.38.41l-2.47.95c-.63.24-1.28.47-1.92.69-.34.12-.68.22-1,.37s-.43.14-.62.21c-.67.21-1.34.47-2,.71a4.4,4.4,0,0,1-1,.3,2.19,2.19,0,0,0-.34.09.89.89,0,0,1-.29.18c-.34.11-.72.26-1.13.39s-.7.27-1,.41l-.58.23c-.74.25-1.47.51-2.19.8-.19.07-.42.16-.6.21a5,5,0,0,0-.71.27l-.3.11-4.38,1.61c-1,.36-1.91.68-2.86,1-.41.15-.79.32-1.24.45s-.81.31-1.22.43a4.67,4.67,0,0,0-.51.19c-.64.26-1.32.48-2,.73l-.37.14c-1.06.34-2.07.76-3.1,1.14l-1,.38c-1.37.48-2.73,1-4.08,1.48l-2,.73c-.82.31-1.67.62-2.52.91l-1.2.44c-1,.35-1.93.7-2.88,1.07l-.82.29c-1.36.48-2.72,1-4.06,1.5l-.37.14c-1.43.48-2.84,1-4.27,1.54-.46.17-.93.31-1.38.51s-1,.35-1.45.5a3.52,3.52,0,0,0-.51.19c-.5.21-1,.4-1.55.57-.76.26-1.48.53-2.21.81-.35.14-.68.23-1,.36q-1.4.52-2.79,1c-.8.28-1.6.57-2.39.87s-1.33.5-2,.75-1,.39-1.55.57c-.32.1-.66.24-1,.35-.65.22-1.3.46-1.94.7a27.11,27.11,0,0,1,2.4,2.63c.07.11.25.16.38.22,1.48.68,2.16,2.21,3.38,3.17a.44.44,0,0,1,.14.29,1.79,1.79,0,0,0,1.07,1.34c.52.29,1.07.55,1,1.31,0,.23.21.4.42.48,1.13.42,1.3,1.87,2.44,2.27,0,.51.54.57.83.83s.49.2.48.43c0,.73.45.93,1,1.14.25.09.32.38.45.61A7.23,7.23,0,0,0,39,206.59c1,.55,1.25,1.8,2.39,2.06,0,0,0,.06,0,.1,0,.58.49.91.77,1.33a4.35,4.35,0,0,0,2.11,1.76,6.23,6.23,0,0,1,2.1,1.13c.53.45,1.14.76,1.4,1.46.06.16.3.22.43.34.53.49,1.31.7,1.66,1.37a1,1,0,0,0,.93.68.49.49,0,0,1,.38.19,3.9,3.9,0,0,0,2.28,1.79,11.88,11.88,0,0,0,2,.68,3.09,3.09,0,0,1,1.52.64,2.72,2.72,0,0,0,1.2.53A4.67,4.67,0,0,1,60.78,222c.51.59,1.42.74,1.81,1.52,0,.11.25.15.39.2a6.11,6.11,0,0,1,3.09,2,.84.84,0,0,0,.44.33,4.8,4.8,0,0,1,2.31,1c1.06-.08,2,.72,3.08.5.13.54.35,1,1,.87a2.48,2.48,0,0,1,2.22.64,6.93,6.93,0,0,0,1.64.91,14.07,14.07,0,0,0,3.8.69,3.24,3.24,0,0,1,2,.91,3.5,3.5,0,0,0,.82.68,5.72,5.72,0,0,1,1.48-.26c.55-.06.71-.76,1.24-.82.3.23,0,.55.21.75a.19.19,0,0,0,.1.05c1.12.27,2.37.18,3.25,1.17a.43.43,0,0,0,.6.09c.39-.29.83-.14,1.26-.17.94-.05,1.86.37,2.81.11a.93.93,0,0,1,1,.36,1.32,1.32,0,0,0,.62.49l.62-.17a1.32,1.32,0,0,1,1.66.43,1.46,1.46,0,0,0,1.81-.06.91.91,0,0,1,.93-.38c.11.25,0,.66.46.84A8.85,8.85,0,0,0,103,234c.17.54-.43.55-.43,1a9.91,9.91,0,0,1,3.58.49,1.17,1.17,0,0,0,.88,0c.72-.37,1.21,0,1.66.49.2.21.32.51.67.68.92-.52,1.71.24,2.7.37a1.56,1.56,0,0,1,1.25-.23,9.08,9.08,0,0,0,2.84-.23,1.41,1.41,0,0,1,1.43.3.93.93,0,0,0,1.13.24,2.2,2.2,0,0,1,1.94.05,2.26,2.26,0,0,0,.85.21,27,27,0,0,1,4.93.07c.89.13,1.79.09,2.67.22a3.32,3.32,0,0,0,3.15-.93c.16-.18.31-.43.61-.44l.38.24c1.14.68,1.62.58,2.43-.5.11-.14.28-.4.38-.37a10,10,0,0,0,2.68-.26c.1,0,.2.09.3.14a2,2,0,0,0,1.71.06c2-.55,4-1.39,6-2a4.48,4.48,0,0,1,2-.06c.7.07,1.22-.61,2-.65,1.25-.08,2.37-.79,3.64-.87.16,0,.32-.18.49-.26a4.94,4.94,0,0,1,2.33-.68,2.17,2.17,0,0,0,1.72-.64,2.76,2.76,0,0,1,.88-.47,13.33,13.33,0,0,0,2.82-1.11,4.07,4.07,0,0,0,1.1-1.09c1.65-.11,2.94-1.09,4.29-1.92.73-.44,1.3-1.32,2.37-.88.07,0,.22,0,.3-.11a16.21,16.21,0,0,0,2.93-2.41,5.9,5.9,0,0,1,2.12-1.57l1.08-.56c1.35-.73,2.36-1.93,3.82-2.52.59-.24,1.1-.89,1.76-.83.88.07,1.09-.88,1.81-1a1.53,1.53,0,0,0,.94-.56,1.88,1.88,0,0,1,.91-.63,1.69,1.69,0,0,0,1.39-1.25c.77,0,1.51,0,2-.63.81-1.07,2-1.47,3.16-2.09a3.38,3.38,0,0,1,1.32-2.3,27.31,27.31,0,0,0,2-1.84c.73-.7,1.25-1.66,2.28-2.05a.69.69,0,0,0,.37-.53c0-.9,1.13-1.15,1.22-2,1-.37,1.14-1.74,2.33-1.87.29,0,.4-.36.45-.59a.84.84,0,0,1,.76-.71,2.19,2.19,0,0,0,1.5-1.08c.16-.21.25-.46.53-.54.84-.24,1-1,1.34-1.66.08-.15,0-.38.19-.5,1.17-1,1.76-2.44,3-3.29a.75.75,0,0,0,.29-.46,2,2,0,0,1,.69-1.09,8.24,8.24,0,0,0,1.21-1.86,6.43,6.43,0,0,1,1.63-2.33c.49-.32.61-1,1.16-1.27.25-.14-.08-.57,0-.71.94-1,1.31-2.41,2.14-3.51a5.74,5.74,0,0,0,1.34-2.25c.16-1,1.26-1.46,1.23-2.49.83-.7,1-1.8,1.51-2.66a17.17,17.17,0,0,1,1.26-2.46,5.44,5.44,0,0,0,1.16-2c.23-.63.81-1,1-1.56a17.55,17.55,0,0,1,1.46-2.57,6.33,6.33,0,0,0,1.22-2.78,3,3,0,0,1,.68-2.16c.12-.13.07-.43.1-.65a1.93,1.93,0,0,1,.1-.65c.88-1.58,1.14-3.44,2.27-4.91a1.11,1.11,0,0,0,.19-1.16,2.25,2.25,0,0,1,0-1.21c.2-.26.63-.35.61-.75,0-.73.47-1.22.68-1.81.86-.12.86-.12,1.32-.54,0-.43-.6-.71-.39-1.23.52-1.28.18-2.74.84-4a.56.56,0,0,0,0-.44,2.14,2.14,0,0,1,.35-2.09,3.28,3.28,0,0,0,.06-3.43,1.05,1.05,0,0,0,.22-.26c.35-1,.41-2,.84-3a2.75,2.75,0,0,0,.2-2.14c0-.06,0-.14,0-.22.33-2,.32-4.05.57-6.07a30.19,30.19,0,0,0,.26-6,2.2,2.2,0,0,1,.11-.88,6.63,6.63,0,0,0-.09-4c-.25-.87-.47-1.75-.69-2.64Z"/><path class="cls-1" d="M81.15,149.49a.13.13,0,0,0-.07.06s0,0,0,.09a1.19,1.19,0,0,1,.42-.18c.06,0,.16-.05.15-.16A1.39,1.39,0,0,0,81.15,149.49Z"/><path class="cls-1" d="M100.85,95.21c.1-.06.31-.15.3-.17a6.43,6.43,0,0,0-1.51.55C100,95.5,100.47,95.32,100.85,95.21Z"/><path class="cls-1" d="M114,90.35c.69-.33.66-.36-.1-.13C113.67,90.35,113.59,90.44,114,90.35Z"/><path class="cls-1" d="M28,186.52a11.8,11.8,0,0,0-1.29.49c.5-.19.85-.25,1.32-.42C28.12,186.52,28.12,186.5,28,186.52Z"/><path class="cls-1" d="M73,125.44s0-.07,0-.11a.15.15,0,0,1,0-.07s0,0,0-.07a.46.46,0,0,0-.15.33C73,125.48,73,125.48,73,125.44Z"/><path class="cls-1" d="M71.93,122.92c-.13,0-.21.11-.33.14.1.15.17.21.24.23A.41.41,0,0,1,71.93,122.92Z"/><path class="cls-1" d="M122.05,152.46a6.43,6.43,0,0,0-1.51.55c.39-.09.84-.26,1.21-.37C121.86,152.57,122.06,152.49,122.05,152.46Z"/><path class="cls-1" d="M134.78,147.65c-.21.13-.28.21.11.12C135.57,147.45,135.54,147.42,134.78,147.65Z"/><path class="cls-1" d="M118.45,153.88c-.2.06-.25.1-.17.1.54-.18,1.09-.36,1.6-.5A9.93,9.93,0,0,0,118.45,153.88Z"/><path class="cls-1" d="M81.46,167.2c0,.1.21.06,1-.21l1.7-.59c.54-.18,1.07-.37,1.64-.58a3.84,3.84,0,0,0-.71.18,5.19,5.19,0,0,1-1.17.29,5.52,5.52,0,0,0-1.08.25,3.51,3.51,0,0,1-.57.14l-1.42.51a1.36,1.36,0,0,0,.47,0C81.4,167.19,81.46,167.18,81.46,167.2Z"/><path class="cls-1" d="M99.46,160.87c.67-.28,1.39-.52,2.07-.78a7.22,7.22,0,0,1,1-.32c.55-.24,1.15-.46,1.71-.65l1.41-.51c.82-.29,1.63-.62,2.46-.87a3.85,3.85,0,0,0,1-.44c-.62.21-1.16.36-1.76.59-.29.11-.66.25-.86.3a9,9,0,0,0-1.14.39c-.45.18-.94.35-1.37.53a3.81,3.81,0,0,1-.71.25,11.5,11.5,0,0,0-1.7.6l-1.48.59a16.91,16.91,0,0,1-2.6.83l-.26.07c-.16.09-.43.14-.64.26s-.11.14.08.14C97.64,161.53,98.56,161.17,99.46,160.87Z"/><path class="cls-1" d="M61.94,109.12a5,5,0,0,1-.57.14l-1.42.5a1.3,1.3,0,0,0,.47,0c.07,0,.14,0,.14,0s.21.07,1-.2c.57-.2,1.14-.41,1.7-.59s1.07-.38,1.64-.59a5.19,5.19,0,0,0-.71.19,6,6,0,0,1-1.17.29A4.86,4.86,0,0,0,61.94,109.12Z"/><path class="cls-1" d="M80,129.33a1.8,1.8,0,0,0,.46-.1,3.25,3.25,0,0,1,.52-.12.43.43,0,0,1,.16,0l.24-.18a1,1,0,0,1,.37-.21c.09,0,.18-.1.27-.12a4.4,4.4,0,0,0,.51-.18.92.92,0,0,1,.28-.09.83.83,0,0,0,.39-.16c.09,0,.14-.15.21-.21s.28-.26.42-.39.18-.31.33-.42a0,0,0,0,0,0,0c0-.1.09-.16.14-.23a.3.3,0,0,0,.05-.16.36.36,0,0,1,0-.17.63.63,0,0,0,0-.43,2.68,2.68,0,0,1-.07-.27,2,2,0,0,0,0-.43c0-.26-.09-.52-.15-.77a2.47,2.47,0,0,0-.1-.29,2.5,2.5,0,0,0-.23-.5s0,0,0-.06,0-.21-.06-.31-.07-.34-.1-.51a1.15,1.15,0,0,0-.06-.28c-.07-.14-.06-.29-.16-.42a.3.3,0,0,1-.1-.22.09.09,0,0,0,0,0,.92.92,0,0,1-.19-.48,1.26,1.26,0,0,0-.21-.49c-.07-.11-.19-.19-.17-.35s0,0,0,0-.12-.16-.1-.26a.8.8,0,0,0,0-.31s0-.08,0-.07-.12,0-.13-.06a.45.45,0,0,1-.17-.1c0-.06,0-.1,0-.14s-.08,0-.09,0-.06-.1-.1-.14a.18.18,0,0,1-.22-.17s-.08,0-.1,0a.27.27,0,0,0-.19-.08,2.69,2.69,0,0,0-.34-.12l-.2-.06c-.09,0-.22,0-.26-.12h-.11a.33.33,0,0,1-.26,0,.47.47,0,0,0-.16,0,.26.26,0,0,1-.26-.13c0,.15-.07.21-.17.22a1,1,0,0,0-.51.23s0,0-.06,0a.45.45,0,0,0-.23.07.62.62,0,0,1-.38,0h-.07c-.11,0-.24,0-.33.1h0a.24.24,0,0,0-.22.11.44.44,0,0,1-.34.12s0,0,0,0,0-.14,0-.22a.14.14,0,0,0,0,.13.36.36,0,0,1-.22.27c-.06,0-.12,0-.16.1a.16.16,0,0,1-.12.06s0,0-.07,0-.11.09-.17.13-.31.17-.27.25.13.26.18.39a.73.73,0,0,1,0,.2.48.48,0,0,0,.09.38.11.11,0,0,1,0,.07A2.55,2.55,0,0,0,77,122a1.59,1.59,0,0,1,.07.2,2.21,2.21,0,0,0,.12.42.44.44,0,0,1,0,.15.87.87,0,0,0,.11.32s0,.05,0,.08a.45.45,0,0,0,0,.2c.06.13.11.26.16.39a.42.42,0,0,1,0,.12.78.78,0,0,0,.1.39c0,.07.05.11.06.17s0,.14,0,.2.07.12.08.2a1.33,1.33,0,0,0,.13.52.33.33,0,0,1,0,.14.31.31,0,0,0,0,.21,1.11,1.11,0,0,1,.18.51.19.19,0,0,0,0,.1s0,.06.05.1a.4.4,0,0,0,0,.13,1.19,1.19,0,0,1,.18.55.4.4,0,0,1,.12.28.48.48,0,0,0,.09.26.17.17,0,0,1,0,.11s0,.07,0,.1a.6.6,0,0,0,.16.25s0,.06,0,.08c.08.18.1.38.17.55a.26.26,0,0,1,0,.21.08.08,0,0,0,0,.08.46.46,0,0,1,.05.23.25.25,0,0,0,.06.14.61.61,0,0,0,.44,0A.71.71,0,0,1,80,129.33Z"/><path class="cls-1" d="M89.56,146.7h0l-.07.06a.29.29,0,0,0,.16,0,.91.91,0,0,1,.3-.14.34.34,0,0,0,.14-.05C89.87,146.55,89.73,146.68,89.56,146.7Z"/><path class="cls-1" d="M79.76,115.7a.21.21,0,0,0,.08-.27.12.12,0,0,0-.11-.09s-.06,0-.07.09,0,.13-.14.12a.11.11,0,0,0-.09.06A.3.3,0,0,0,79.76,115.7Z"/><path class="cls-1" d="M91.18,147a1.07,1.07,0,0,0-.39.22,2.41,2.41,0,0,0,.58-.17C91.32,147,91.24,147,91.18,147Z"/><path class="cls-1" d="M90.77,146.18s0,0,0,0a4.13,4.13,0,0,0-.46.31c.1,0,.19,0,.26-.1h0a2.23,2.23,0,0,0,.57-.18c.09,0,.19-.08.19-.2s0-.06.06-.07.05,0,.05-.07-.14,0-.2.06A1.13,1.13,0,0,1,90.77,146.18Z"/><path class="cls-1" d="M78.82,116.07c-.1,0-.15,0-.15,0s0,.08.06.08S78.8,116.13,78.82,116.07Z"/><path class="cls-1" d="M76.55,116.26c.09,0,.18,0,.26,0a.12.12,0,0,1,.13,0,.42.42,0,0,0,.2.17c0-.24-.1-.45-.14-.67h0a.57.57,0,0,1-.06.28c0,.09-.08.11-.18.1a.25.25,0,0,1-.26-.2c-.06,0-.11,0-.15,0a1.34,1.34,0,0,0,.07.18A.13.13,0,0,0,76.55,116.26Z"/><path class="cls-1" d="M76.83,116.88s-.06,0,0,.08a.28.28,0,0,0,.3,0c0-.1.07-.16.12-.25a.2.2,0,0,0-.13.06A.29.29,0,0,1,76.83,116.88Z"/><path class="cls-1" d="M89.58,147.62c-.06,0-.09.06-.15.06a.59.59,0,0,0-.26.1l-.15.07-.46.16a1.07,1.07,0,0,1-.3.06.94.94,0,0,0-.29.06.15.15,0,0,1-.19,0,.16.16,0,0,1-.08.06s-.07,0,0,.09a1.67,1.67,0,0,1,.29-.06,3.15,3.15,0,0,0,.44-.11,1,1,0,0,1,.37-.11c.13,0,.26-.06.39-.07a2.18,2.18,0,0,0,.56-.19.43.43,0,0,0,.2-.15c.13,0,.22-.07.36-.09-.1,0-.1,0-.13,0A1.84,1.84,0,0,1,89.58,147.62Z"/><path class="cls-1" d="M95.55,143.76a.43.43,0,0,1-.22,0,.3.3,0,0,0-.19,0c-.09.06-.19.09-.28.15a.39.39,0,0,1,.2.06.76.76,0,0,0,.33,0,.16.16,0,0,1,.1,0,.13.13,0,0,0,.15-.06c.07-.11,0-.23.06-.34A.26.26,0,0,0,95.55,143.76Z"/><path class="cls-1" d="M94.48,140.14a.12.12,0,0,0,.1.1.07.07,0,0,0,.06,0c0-.06,0-.09,0-.12A.24.24,0,0,0,94.48,140.14Z"/><path class="cls-1" d="M94.94,143.11a.69.69,0,0,0-.41.15C94.71,143.27,94.82,143.16,94.94,143.11Z"/><path class="cls-1" d="M94.36,139c0,.05,0,.09,0,.14s-.09,0-.11,0,.1.06.1.12.08.08.1.14c-.06.21-.08.32-.36.17-.11.09,0,.21,0,.32s.1.12.2.08-.06-.2.09-.22l.12.13a.25.25,0,0,0,.14.11.56.56,0,0,0,.1-.36,1.07,1.07,0,0,1,0-.25c0-.06,0-.13,0-.17s-.06-.23-.14-.33A.66.66,0,0,0,94.36,139Z"/><path class="cls-1" d="M94.21,145.1c-.07,0-.17,0-.23.1a.23.23,0,0,1-.23.07.76.76,0,0,0-.26,0c.06,0,.09.05.13.07a.43.43,0,0,0,.16,0s0,0,.09,0,.18,0,.24-.14,0,0,0,0,0-.09.11-.13a.64.64,0,0,0,.13-.1A.31.31,0,0,0,94.21,145.1Z"/><path class="cls-1" d="M93.7,146.17a1.11,1.11,0,0,0-.34.22c-.09,0-.15.1-.23.12s-.15.08-.24.12c.06.05.12,0,.17.07.09-.12.24-.08.35-.16s0-.08.19-.21a.14.14,0,0,1,.08.07s0,.06.1,0,0-.06,0-.09,0-.08,0-.08a.77.77,0,0,0,.47-.31.78.78,0,0,1-.37,0A.36.36,0,0,1,93.7,146.17Z"/><path class="cls-1" d="M93,140.28c0,.09,0,.17,0,.25a.36.36,0,0,1,0,.23c0,.08,0,.16-.06.24a.18.18,0,0,1-.1.14.14.14,0,0,0-.08.05.06.06,0,0,0,0,.07c.14.1.27.21.45.12h.07a.21.21,0,0,0,.18-.1c0-.06-.1-.05-.15-.06a.33.33,0,0,1-.24-.22c.07-.07.12-.15.21-.18s0,.11.09.12.16-.09.08-.2a.22.22,0,0,1,0-.3.12.12,0,0,0,.05-.1C93.34,140.26,93.18,140.16,93,140.28Z"/><path class="cls-1" d="M91.63,142.62a.14.14,0,0,0,.17-.07,1.34,1.34,0,0,1-.21,0,.08.08,0,0,0-.08,0,.47.47,0,0,1-.52,0,.58.58,0,0,1,.08-.3.2.2,0,0,0,0-.17.6.6,0,0,1,0-.23,1.29,1.29,0,0,0,0-.44v0a.14.14,0,0,0,0-.14.24.24,0,0,1,0-.23.24.24,0,0,0,0-.14,1.76,1.76,0,0,1-.07-.33,1.68,1.68,0,0,1,0-.63s0-.05,0-.07a.2.2,0,0,0-.06-.27s0-.26,0-.22-.74-.85-.7-1c-.17-.07-.18-.22-.23-.37a.63.63,0,0,1,.08-.43l-.08,0a.15.15,0,0,1-.21,0l-.16-.16a.15.15,0,0,0,0-.17.41.41,0,0,1-.07-.11,2,2,0,0,1-.14-.43,1.83,1.83,0,0,1-.06-.25,1.08,1.08,0,0,0-.09-.29.14.14,0,0,1,0-.11c0-.08,0-.13-.07-.18a1.51,1.51,0,0,1-.33-.49c-.07-.05-.13-.15-.22-.13a.43.43,0,0,1-.25,0,.37.37,0,0,0-.09-.16.3.3,0,0,1-.12-.24c0-.06-.13,0-.17-.08s-.18-.08-.27-.12-.06,0-.08,0a.54.54,0,0,0-.27-.09.68.68,0,0,1-.26-.12h0s0,0,0,.05-.07-.05-.12,0a1.8,1.8,0,0,1-.46,0l-.09,0-.27.11s-.12,0-.12.11,0,0,0,0a4,4,0,0,0-.47.22c-.17.07-.35.1-.52.17s-.08,0-.09,0-.06,0-.09,0a.08.08,0,0,0-.08,0c-.23.1-.49.14-.73.25a.48.48,0,0,1-.18,0,.32.32,0,0,0-.2.1.7.7,0,0,1-.24.13l-.24.09a.23.23,0,0,1-.3,0,.12.12,0,0,0-.15,0,.11.11,0,0,0-.06.11,1.17,1.17,0,0,0,0,.27.36.36,0,0,0,0,.1.42.42,0,0,1,0,.33.53.53,0,0,0,.16.56.59.59,0,0,1,.14.3,2.47,2.47,0,0,0,.16.65c0,.07.07.12.09.18a2.61,2.61,0,0,0,.24.66.14.14,0,0,1,0,.07.73.73,0,0,0,.08.25c.06.13.06.28.12.41a3.45,3.45,0,0,1,.12.46c0,.16.09.31.12.47a3,3,0,0,0,.13.39,1,1,0,0,1,.07.24c0,.09.08.15.09.25a2.46,2.46,0,0,0,.16.59.79.79,0,0,1,.08.23c0,.09,0,.14.07.21a1.12,1.12,0,0,1,.12.32.42.42,0,0,0,0,.1.77.77,0,0,1,.14.32,2,2,0,0,1,.13.48,3,3,0,0,0,.2.52.05.05,0,0,0,0,0c.11.08.1.2.13.31v.06a.27.27,0,0,0,.22.2l.2.05s0,0,.07,0,.22,0,.21.06,0,.09.09.1a.7.7,0,0,1,.14,0,.94.94,0,0,0,.47,0l.08-.11a.14.14,0,0,0,.16-.06.24.24,0,0,1,.09-.06c.1-.05.21-.07.28-.16a.05.05,0,0,1,0,0c.08,0,.13-.05.19-.1a.46.46,0,0,1,.18-.13,3.11,3.11,0,0,1,.5-.21.2.2,0,0,0,.14-.06.07.07,0,0,1,.08,0c.1,0,.16-.06.23-.1l.1-.05c.17,0,.32-.12.48-.18a1.88,1.88,0,0,1,.57-.17l.06,0c.1-.07.21-.13.31-.21s.24-.3.44-.33l0,0a3.61,3.61,0,0,1,.33-.35.14.14,0,0,0,.18.07,1.38,1.38,0,0,0,.44-.09S91.6,142.61,91.63,142.62Z"/><path class="cls-1" d="M82.72,143.93s.11,0,.15-.05-.19-.1-.22-.21a.09.09,0,0,0-.1.08.49.49,0,0,1-.29.24c-.12,0-.25.08-.29.23h.14l0,0A.73.73,0,0,1,82.72,143.93Z"/><path class="cls-1" d="M87,123.1l0,0V123s-.06,0-.1,0S86.91,123.07,87,123.1Z"/><path class="cls-1" d="M91.16,132.85a1.27,1.27,0,0,1,.1.46c.08,0,.13,0,.13-.11a.43.43,0,0,1-.13-.26S91.25,132.85,91.16,132.85Z"/><path class="cls-1" d="M93.24,137.89a.31.31,0,0,1,0,.31c0,.05.1.1.15.07s.15-.06.17-.14a2,2,0,0,1,.08-.22.06.06,0,0,0,0-.08.32.32,0,0,0-.31-.07C93.24,137.79,93.21,137.83,93.24,137.89Z"/><path class="cls-1" d="M90.9,132.07a.58.58,0,0,1-.1-.24,1.56,1.56,0,0,1-.1-.37.15.15,0,0,0,0-.07c0-.12-.11-.23-.15-.35l0,0s0,0-.07,0,0,0,0,.06a.48.48,0,0,1,.11.38.11.11,0,0,0,0,.08s0,.07,0,.11a.73.73,0,0,0,.23.41S90.88,132.11,90.9,132.07Z"/><path class="cls-1" d="M82.05,115.88s0,0,0,0a5.58,5.58,0,0,0-.1-.59c0-.08,0-.17-.13-.21a.07.07,0,0,0,0,.09.58.58,0,0,1,0,.19.36.36,0,0,0,.06.2.34.34,0,0,1,.09.19A.21.21,0,0,0,82.05,115.88Z"/><path class="cls-1" d="M85.07,148a.91.91,0,0,0-.36.09s0,0,0,.07.12,0,.2,0a1.93,1.93,0,0,1,.43-.07c.09,0,.16-.06.23-.15a.26.26,0,0,0-.12,0A1.24,1.24,0,0,1,85.07,148Z"/><path class="cls-1" d="M92.48,134.47s0,.08,0,.12.1,0,.12-.07S92.58,134.44,92.48,134.47Z"/><path class="cls-1" d="M84.66,145.73s-.1.05-.15,0a.18.18,0,0,0-.14,0h-.08a.5.5,0,0,0-.39.2s-.07.08-.14.06a.17.17,0,0,0-.18,0c-.06.09-.21.1-.22.23s0,0,0,0a.67.67,0,0,1-.18.11s-.06,0,0,.05l.16,0a1,1,0,0,1,.37,0,.63.63,0,0,0,.27,0l.46-.19a.32.32,0,0,0,.21-.2c0-.07,0-.14.07-.21s.1,0,.15,0S84.7,145.71,84.66,145.73Z"/><path class="cls-1" d="M88.69,125.71a.07.07,0,0,0,.09-.08,1,1,0,0,1,0-.17.17.17,0,0,0-.07-.22l-.21.08C88.52,125.48,88.64,125.58,88.69,125.71Z"/><path class="cls-1" d="M92.45,142.33s0-.05,0-.07-.21.05-.28.15A.24.24,0,0,0,92.45,142.33Z"/><path class="cls-1" d="M88.24,132.45c.07-.21,0-.4,0-.61a.14.14,0,0,0-.07.13,1.87,1.87,0,0,1,0,.41C88.15,132.43,88.19,132.45,88.24,132.45Z"/><path class="cls-1" d="M89.64,134.14a.12.12,0,0,0-.1,0s0,.12.09.19C89.61,134.28,89.68,134.22,89.64,134.14Z"/><path class="cls-1" d="M90.86,134.87c0,.06.09.16.2.13a.36.36,0,0,0,.08-.12c0-.09.09-.09.16,0s0,.11.11.14a.67.67,0,0,0,.23-.1c0-.16,0-.31-.11-.43s-.22,0-.2.22a.53.53,0,0,1-.17.08c-.17.07-.17.07-.3,0A.09.09,0,0,0,90.86,134.87Z"/><path class="cls-1" d="M88.68,129.64a.55.55,0,0,0,.23.35c0-.09.07-.12.09-.18a.66.66,0,0,1,0-.14.39.39,0,0,0-.15-.37.63.63,0,0,1-.15-.18l-.13-.22s-.07,0-.1,0,.06-.09,0-.13,0,.16-.09.23A1.66,1.66,0,0,1,88.68,129.64Z"/><path class="cls-1" d="M86.21,121.1s0-.13-.13-.15,0,.14,0,.21S86.19,121.14,86.21,121.1Z"/><path class="cls-1" d="M92.5,138a.36.36,0,0,0,.11.14.34.34,0,0,0,.18-.09.33.33,0,0,0-.15-.25C92.56,137.86,92.56,137.86,92.5,138Z"/><path class="cls-1" d="M88.06,123.8s-.08,0-.07.08,0,.21.06.31a.17.17,0,0,0,.12-.06C88.13,124,88.16,123.9,88.06,123.8Z"/><path class="cls-1" d="M150.12,121.31c-.19,0,.09.46.14.54a.13.13,0,0,0,.15.07C150.42,121.81,150.24,121.33,150.12,121.31Z"/><path class="cls-1" d="M148.79,117.61a1.22,1.22,0,0,1,.17.15c0,.06,0,.16.11.2C149.17,117.78,149,117.5,148.79,117.61Z"/><path class="cls-1" d="M150.7,122.7c0-.16,0-.18-.08-.23A.49.49,0,0,0,150.7,122.7Z"/><path class="cls-1" d="M146.72,112.46c0,.05,0,.22.07.24s.19,0,.23-.06.13-.23.07-.38-.24-.22-.39-.33C146.73,112.11,146.7,112.29,146.72,112.46Z"/><path class="cls-1" d="M148.47,117.93a.2.2,0,0,1,.05-.18c0-.06.11-.18.07-.25a.75.75,0,0,0-.24-.19A.79.79,0,0,0,148.47,117.93Z"/><path class="cls-1" d="M148.41,118.11c0,.08-.07.4.11.35A1,1,0,0,0,148.41,118.11Z"/><path class="cls-1" d="M147.78,115.71a1.43,1.43,0,0,0,0-.29c0-.08,0-.25-.06-.26s0,.3,0,.38,0,.12,0,.18,0,0,0,.12a1.3,1.3,0,0,1-.08.17c-.05.06-.17,0-.26.08l-.14,0-.15,0a.37.37,0,0,0-.16.37.19.19,0,0,0,.08.07c.08,0,.05,0,.11,0a.38.38,0,0,1,.22-.13c.09,0,.21,0,.27-.13s0-.19.08-.2.09,0,.09-.11S147.76,115.8,147.78,115.71Z"/><path class="cls-1" d="M151.39,125.85a1,1,0,0,0,.16.37.31.31,0,0,0,.26.16c0-.1-.16-.19-.21-.27S151.5,125.89,151.39,125.85Z"/><path class="cls-1" d="M150.47,120.59a2.12,2.12,0,0,1-.11-.21c-.05-.09-.13-.31-.23-.32.05.19.16.36.21.55s0,.36.07.54.1.26.14.39,0,.18,0,.22.11-.06.14-.1c.26-.28-.1-.57-.19-.84A2,2,0,0,0,150.47,120.59Z"/><path class="cls-1" d="M146.81,109c-.06-.09-.08-.07-.17-.09s-.21-.24-.31-.43-.16-.31-.29-.21a1.17,1.17,0,0,0-.15.27c0,.1,0,.13,0,.23a1.06,1.06,0,0,0,.19.23c.08.07.14.05.23.08s.26.2.38.27a1.79,1.79,0,0,1,.25.22s.07.14.15.13c0-.19-.14-.26-.21-.43A.81.81,0,0,0,146.81,109Z"/><path class="cls-1" d="M148.17,107.46c-.07,0-.14,0-.18,0-.11.23.3.06.35.06s.07,0,.07-.07-.12,0-.18,0S148.19,107.47,148.17,107.46Z"/><path class="cls-1" d="M149.28,108.92c.08-.07.14-.33.05-.4S149.25,108.84,149.28,108.92Z"/><path class="cls-1" d="M147.2,107.91c.06,0,.26-.15.13-.18S147.19,107.86,147.2,107.91Z"/><path class="cls-1" d="M149.68,106.65a.83.83,0,0,1-.12.08.07.07,0,0,0,.08,0,1,1,0,0,0,.4-.2c-.12,0-.16-.06-.26,0Z"/><path class="cls-1" d="M149.25,121.12c0,.08,0,.24,0,.3s.13,0,.17.09a.61.61,0,0,1,.05-.12c.14-.36-.07-.51-.32-.73C149.12,120.79,149.24,121,149.25,121.12Z"/><path class="cls-1" d="M148.43,115.2a.66.66,0,0,0-.13-.31c-.11-.07-.09.06-.1.13S148.45,115.45,148.43,115.2Z"/><path class="cls-1" d="M142.6,96.37c.12,0,.25-.1.19-.25S142.47,96.19,142.6,96.37Z"/><path class="cls-1" d="M141.73,94.8a.7.7,0,0,0,.18.34c.07-.09.11-.15.07-.26s-.13-.29-.2-.31S141.7,94.72,141.73,94.8Z"/><path class="cls-1" d="M145.53,110.64c-.08-.11-.15-.07-.19,0a.35.35,0,0,0,.3.51.56.56,0,0,1,.28.1c.06,0,.11.18.19.18s-.11-.16-.09-.26c.1-.33-.26-.17-.39-.27S145.61,110.75,145.53,110.64Z"/><path class="cls-1" d="M149.24,125.85c-.13.05,0,.72.06.85s.09.28.14.42,0,.14.11.14.12-.06.13-.07-.11-.53-.19-.66S149.37,125.81,149.24,125.85Z"/><path class="cls-1" d="M151.08,88.29a.16.16,0,0,0-.24.1.38.38,0,0,0,.12.41C151.18,89,151.29,88.41,151.08,88.29Z"/><path class="cls-1" d="M142.17,96.68c-.12-.18-.15-.4-.28-.58C141.82,96.27,141.87,96.76,142.17,96.68Z"/><path class="cls-1" d="M142.5,99.54c.1-.11,0-.28,0-.39s-.15-.27-.23-.14.05.37.06.45S142.42,99.62,142.5,99.54Z"/><path class="cls-1" d="M152.61,92.58s0-.14.07-.18.09,0,.13,0-.06-.28-.05-.41-.16.08-.16.08-.15.07-.18.17S152.45,92.74,152.61,92.58Z"/><path class="cls-1" d="M152.81,90.44c-.1.06-.17,0-.28,0,.12.12.18,0,.32.06s.09,0,.16.1.06.08.12,0,0-.17,0-.23-.05-.26-.08-.4,0-.31-.15-.47-.22-.32-.31-.24.06.33.08.4a2.42,2.42,0,0,0,.23.52A.15.15,0,0,1,152.81,90.44Z"/><path class="cls-1" d="M150.45,105.81c-.14,0-.17.24-.19.35s.05.13.19.15.23.13.23,0S150.62,105.8,150.45,105.81Z"/><path class="cls-1" d="M152,88.27a.81.81,0,0,0-.12-.18c-.08-.08-.06,0-.14,0s-.28,0-.17.19S151.83,88.32,152,88.27Z"/><path class="cls-1" d="M147.88,120.18c-.1.15-.15.37,0,.47C148,120.51,148.05,120.28,147.88,120.18Z"/><path class="cls-1" d="M149.91,124c-.08-.06-.18,0-.25-.08s-.06-.14-.11-.21a1.27,1.27,0,0,1-.15-.31,1.49,1.49,0,0,0-.37-.66c-.09-.09-.18-.13-.2,0s.06.26.07.38a.81.81,0,0,0,.31.55l.2.17c.1.07.1.11.14.22a2.75,2.75,0,0,0,.14.3.69.69,0,0,0,.15.31c.19,0,.14-.24.15-.4A.3.3,0,0,0,149.91,124Z"/><path class="cls-1" d="M150.73,125.93a.72.72,0,0,0-.34-.39c0,.13.06.27.07.4a.7.7,0,0,0,.09.32c0,.11,0,.33.19.34a.2.2,0,0,0,.22-.22c0-.1-.1-.13-.15-.19S150.76,126,150.73,125.93Z"/><path class="cls-1" d="M144,108.71c-.14.11,0,.2.09.22a.46.46,0,0,1,.3.19,1.17,1.17,0,0,1,.14.41c0,.07,0,.13,0,.2a.36.36,0,0,0,0,.11s0,.06.06,0a1.49,1.49,0,0,0,.71.26.69.69,0,0,0-.18-.36c-.07,0-.15,0-.21-.08s-.1-.18-.17-.25-.2-.13-.26-.24S144.21,108.58,144,108.71Z"/><path class="cls-1" d="M148.16,119.08c0-.09,0-.18,0-.25-.2.15-.1,0-.24-.06s0,.12,0,.18C148.06,118.9,148,118.93,148.16,119.08Z"/><path class="cls-1" d="M149.18,121.38s0,0-.09,0-.15-.28-.31-.36c-.07.1.06.23.12.3a.85.85,0,0,1,.15.3c0,.1.07.32.17.32s.09,0,.11-.1,0-.17-.08-.28S149.21,121.41,149.18,121.38Z"/><path class="cls-1" d="M146.83,115.44c0-.14,0-.23-.07-.27A.46.46,0,0,0,146.83,115.44Z"/><path class="cls-1" d="M138.57,93.51c0-.07,0-.22-.06-.23a.11.11,0,0,0-.12.13c0,.07,0,.25.08.27S138.56,93.58,138.57,93.51Z"/><path class="cls-1" d="M140,97.37c0,.11.06.12.1.21s0,.16.13.24c0-.08-.08-.16,0-.23C140.13,97.56,140.11,97.44,140,97.37Z"/><path class="cls-1" d="M152.78,105.27c.08.21.09.45.35.54a.21.21,0,0,1,.12-.2A4,4,0,0,1,152.78,105.27Z"/><path class="cls-1" d="M151.77,100.51c-.08.12,0,.3-.11.44a.37.37,0,0,1-.18.17s-.18,0-.21,0,0,.33.1.41.13.27.26.24a.25.25,0,0,0,.16-.29c0-.16-.13-.22-.09-.39a1.42,1.42,0,0,1,.14-.41s0-.17,0-.2S151.8,100.47,151.77,100.51Z"/><path class="cls-1" d="M150.29,94.16c.09.1.08.21.15.33s0,.06.1.06a.15.15,0,0,0,.11,0,.24.24,0,0,0,.13-.2c0-.13-.1-.1-.19-.13a.36.36,0,0,1-.21-.13c-.17-.18-.12-.3,0-.51s.09-.2.11-.28-.07-.15-.17-.2a1.64,1.64,0,0,1-.33-.14c-.05,0-.07-.2-.16-.16s-.14.31-.17.37-.12.23,0,.31a.75.75,0,0,1,.52.43A2.69,2.69,0,0,0,150.29,94.16Z"/><path class="cls-1" d="M156.83,114.2a.14.14,0,0,0,.08.15c.15,0,.19-.12.1-.21S156.87,114.15,156.83,114.2Z"/><path class="cls-1" d="M150.9,98.51c-.15,0-.08.16,0,.23s.13.06.19.1.11.13.18.16.16-.09.26-.09C151.26,99,151.2,98.42,150.9,98.51Z"/><path class="cls-1" d="M150.4,98.73c-.07.07-.08.09,0,.21C150.46,98.82,150.46,98.82,150.4,98.73Z"/><path class="cls-1" d="M153.24,91.52c-.13.08-.45,0-.33.26,0,0,0,0,.09.08a.24.24,0,0,0,.09,0c.1,0,0,0,.11-.07s.06-.2.14-.26a.58.58,0,0,1,.32,0c.07-.18-.22-.48-.35-.58C153.22,91.08,153.41,91.4,153.24,91.52Z"/><path class="cls-1" d="M153.43,105.78a.22.22,0,0,0-.11-.12c.06.07-.07.15,0,.22S153.44,105.84,153.43,105.78Z"/><path class="cls-1" d="M156.67,114.64c.08-.07.07-.12,0-.17S156.57,114.55,156.67,114.64Z"/><path class="cls-1" d="M155.58,111.65c-.09,0,0,.34.07.42s.06.43.16.39.07-.4.08-.49S155.66,111.62,155.58,111.65Z"/><path class="cls-1" d="M152.2,94.17c.33,0,0-.65-.07-.79-.18-.3-.52-.49-.63-.83a.75.75,0,0,1,0-.42,1.34,1.34,0,0,0,.07-.18c0-.08,0-.16,0-.24a1,1,0,0,0-.07-.55c-.11.1-.35.09-.43.22a1.59,1.59,0,0,0-.09.5.58.58,0,0,0,.07.45,1.64,1.64,0,0,1,.27.46c0,.16-.05.2-.19.23s-.1.16,0,.29.16.24.3.31a2.07,2.07,0,0,1,.25.19l.11.11s0,0,.06,0a.1.1,0,0,1,.05,0C152,94.06,152.07,94.19,152.2,94.17Z"/><path class="cls-1" d="M152.92,95.93c-.07,0-.09.15-.16.21.08.08.22-.08.28-.13S153,95.87,152.92,95.93Z"/><path class="cls-1" d="M149.24,101.37c-.14.12.07.25.16.3a.87.87,0,0,1,.3.33C149.82,101.86,149.43,101.2,149.24,101.37Z"/><path class="cls-1" d="M152.07,94.65c-.16-.06-.2.17-.22.25s-.06.07,0,.17a1.17,1.17,0,0,0,.17.28c.11.12.29.21.28.39a4,4,0,0,1-.08.5c0,.25.22.09.31,0a.36.36,0,0,0,0-.41,1.5,1.5,0,0,1-.18-.59.78.78,0,0,0-.15-.32S152.12,94.68,152.07,94.65Z"/><path class="cls-1" d="M151.87,98.59c.11,0,.08-.11.1-.17S151.84,98.45,151.87,98.59Z"/><path class="cls-1" d="M151.24,96.19c-.12.06-.06.07-.07.16s0,.14,0,.18-.17-.08-.27,0a.9.9,0,0,0,.27.07c.09,0,.12.06.18,0s0-.16.11-.1.06.15.09.19a.26.26,0,0,0,.13-.38c0-.11-.06-.15-.16-.17A.5.5,0,0,0,151.24,96.19Z"/><path class="cls-1" d="M150.51,90.7c.1,0,.06-.1.06-.2a1.31,1.31,0,0,0-.17-.54c-.05-.08-.1-.18-.19-.09a.13.13,0,0,0,0,.16,1.94,1.94,0,0,0,.19.59A.15.15,0,0,0,150.51,90.7Z"/><path class="cls-1" d="M149.52,90.36c-.15,0,.07.3.1.36s.07.35.18.32-.06-.27-.12-.37S149.6,90.36,149.52,90.36Z"/><path class="cls-1" d="M227.68,76.19c-.38.43.26.86-.22,1.25-.3-.51-.74-.94-.56-1.61a.51.51,0,0,0-.09-.53c-.58-.6-.28-1.63-1-2.14a10.68,10.68,0,0,0-1.33-3,.59.59,0,0,1,0-.56c.33-.08.79.45,1-.25a8.59,8.59,0,0,1-1.35-2c0,.75.45,1.24.05,1.75-.32-.09-.6-.16-.68-.59a2.24,2.24,0,0,0-.62-1.37.73.73,0,0,1-.2-.79c.3-.44.83-.06,1.13-.4a10.42,10.42,0,0,1-1.16-2.87,3.89,3.89,0,0,0-1-2.15,2.9,2.9,0,0,1-.81-1.78c0-.19,0-.4-.13-.53-.76-.64-.84-1.66-1.52-2.42a16,16,0,0,1-2-3.24c-.24.14-.55.3-.84.45a5.5,5.5,0,0,1-.51.22l-.43.17c-.28.12-.49.23-.86.36-1.13.41-2.27.87-3.37,1.18l-.28.09c-1.14.32-2.31.76-3.48,1.22-.59.23-1.18.42-1.77.65l-.42.16a10.05,10.05,0,0,1-1.07.4c-.45.15-.93.34-1.4.51-.82.3-1.64.61-2.46.9-1.73.61-3.46,1.25-5.2,1.85-.76.26-1.56.55-2.34.84s-1.42.54-2.14.78q-1.49.48-2.91,1.08c-.46.19-1,.38-1.51.55-.17.06-.34.11-.51.18-1.55.59-3.12,1.12-4.68,1.68-1.28.46-2.57.91-3.85,1.38-.52.19-1,.38-1.53.57s-1.32.48-2,.68c-.49.16-1,.35-1.47.54-1,.42-2.07.81-3.14,1.2l-1.79.67c-.38.13-.75.27-1.09.36a3.91,3.91,0,0,0-.51.18c-.86.32-1.73.63-2.55,1-.35.15-.76.3-1.1.42-.55.17-1.1.39-1.64.56-.28.09-.6.21-.88.33s-.81.31-1.25.45-1.2.43-1.77.66c-.28.11-.54.21-.81.3-.88.3-1.71.64-2.56,1s-1.92.73-2.9,1l-.29.11c-2.45.93-4.9,1.83-7.37,2.68-.39.13-.8.29-1.19.43-1,.39-2.08.76-3.12,1.14-.57.21-1.15.43-1.74.63-.31.1-.64.23-1,.36-.65.26-1.32.51-2,.75s-1.49.53-2.23.82l-1.12.41c-.79.29-1.57.59-2.36.86-.36.13-.67.27-1,.4-.67.25-1.31.46-2,.68l-.93.35c-.62.24-1.23.45-1.85.68l-2.25.8c-.7.26-1.37.53-2.08.78l-.13,0c-.89.28-1.78.62-2.67,1-1.07.4-2.15.79-3.21,1.2-.76.29-1.51.58-2.28.85l-.67.24c-1.09.37-2.18.75-3.28,1.17-.77.29-1.56.58-2.36.85a16.47,16.47,0,0,0-1.57.61,18.36,18.36,0,0,1-1.73.63c-.92.32-1.83.65-2.75,1-.42.16-.83.32-1.26.46l-.44.15c-.86.33-1.73.6-2.58.92s-1.61.57-2.41.85l-.58.22c-1.08.41-2.16.82-3.26,1.18l-.28.1c-1.07.41-2.14.79-3.21,1.16a15.75,15.75,0,0,0-1.53.6l-.36.14c-1.18.4-2.37.83-3.56,1.26-.53.19-.93.29-1.38.42l-2.47.94c-.63.24-1.28.47-1.92.7-.34.12-.68.22-1,.37a5.47,5.47,0,0,1-.62.2c-.67.22-1.34.47-2,.72a4.55,4.55,0,0,1-1,.3,1.43,1.43,0,0,0-.34.09,1.41,1.41,0,0,1-.3.18c-.33.11-.71.26-1.12.39s-.7.27-1.05.41l-.58.22c-.74.25-1.47.51-2.19.8-.19.08-.42.16-.6.22a6.55,6.55,0,0,0-.71.26,2.09,2.09,0,0,1-.3.11q-2.19.79-4.38,1.62c-1,.36-1.91.68-2.87,1-.4.15-.78.32-1.23.45s-.81.31-1.22.42l-.51.19c-.64.26-1.32.49-2,.74-.12,0-.25.1-.37.13-1.07.35-2.07.77-3.1,1.15l-1,.37-4.07,1.48-2,.73c-.82.32-1.67.62-2.52.92l-1.2.43c-1,.36-1.93.7-2.89,1.07l-.81.3c-1.36.47-2.72,1-4.06,1.49l-.37.14c-1.43.49-2.84,1-4.27,1.55-.46.16-.93.31-1.38.5s-1,.36-1.45.5a5.27,5.27,0,0,0-.51.19c-.5.21-1.05.41-1.55.58-.76.26-1.48.53-2.21.81-.35.14-.68.23-1,.36-.93.34-1.87.69-2.79,1l-2.39.87c-.67.25-1.33.5-2,.76s-1,.39-1.55.56c-.33.11-.66.25-1,.35-.84.29-1.66.6-2.48.91.07.88.13,1.76.13,2.65a12.17,12.17,0,0,0,.29,2.32,12.12,12.12,0,0,1,.35,2.75,16.74,16.74,0,0,0,.3,2.32c.11,1.17.49,2.33.56,3.5a16.34,16.34,0,0,0,1.67,5.26,12.41,12.41,0,0,1,1.15,3c.15.24.5,0,.54.34-.54.1-.38.44-.34.68.21.37.73.08.83.51s-.43.25-.49.49A9.49,9.49,0,0,0,7,160.54a6.1,6.1,0,0,1,.46,1,7.73,7.73,0,0,0,.5,1.64c.3.49.52,1,.84,1.5.78,1.18,1.42,2.43,2.14,3.64.17.28.52.51.49.84a1.4,1.4,0,0,0,.95,1.42c-.24,1.77,1,3,1.44,4.6.8.41.9,1.29,1.31,1.95s.87,1.28,1.3,1.92c.66.95,1.11,2,1.85,2.92a4.45,4.45,0,0,1,.86,2.15,3.77,3.77,0,0,0,.43,1.26c.7-.26,1.39-.51,2.07-.74l2.87-1c.69-.23,1.39-.49,2.08-.73,1.43-.5,2.88-1,4.3-1.56.77-.25,1.52-.58,2.3-.83l.22-.08c1-.43,2.13-.79,3.19-1.17s1.93-.7,2.9-1c1.23-.42,2.46-.88,3.7-1.33,1.56-.57,3.14-1.12,4.7-1.7.36-.14.75-.26,1.11-.39.68-.23,1.32-.47,2-.72.82-.31,1.65-.62,2.47-.9L54,173c.88-.33,1.77-.63,2.65-1s1.71-.63,2.56-1c1.3-.49,2.62-1,3.94-1.42l.13,0c.72-.34,1.59-.59,2.38-.89,1-.4,2.09-.79,3.16-1.16l.8-.3c1-.4,2.06-.77,3.11-1.13l1.57-.56c1.33-.47,2.68-.94,4-1.43,1.06-.4,2.13-.78,3.18-1.19l1.1-.39c1.49-.56,3-1.07,4.45-1.6.3-.1.62-.21.9-.32,1.12-.45,2.28-.86,3.41-1.28s2.33-.86,3.49-1.27c.77-.27,1.54-.56,2.3-.81.29-.1.51-.21.79-.31.87-.31,1.74-.65,2.62-.94l.37-.13c.85-.35,1.72-.65,2.59-.95.36-.13.75-.27,1.1-.42s.68-.25,1-.37c1-.37,2-.79,3-1.12l.68-.25c1.49-.55,3-1.07,4.48-1.61l.44-.16c.41-.17.81-.31,1.24-.45s.67-.26,1-.38c.62-.24,1.24-.45,1.86-.67,1.17-.4,2.34-.83,3.5-1.22.58-.2,1.17-.43,1.75-.65l1.27-.51c.72-.28,1.48-.54,2.22-.79,1.33-.46,2.68-.9,4-1.4s2.6-.95,3.85-1.44c.25-.11.48-.17.73-.26l3.26-1.17c1-.34,1.94-.69,2.91-1l4.91-1.8c.75-.27,1.51-.52,2.24-.8l1.77-.67c.3-.11.6-.22.88-.3s.48-.16.74-.25c1.1-.4,2.21-.81,3.3-1.19.9-.31,1.8-.64,2.68-1,1.13-.42,2.27-.82,3.39-1.26.68-.27,1.43-.54,2.15-.77.48-.15,1-.33,1.47-.5l3.69-1.35.65-.26c.33-.13.69-.27,1-.37l.94-.31c.77-.27,1.52-.57,2.27-.83,1-.36,2-.74,3-1.09l2-.73,4.47-1.57a5.48,5.48,0,0,0,1-.34c1.44-.58,2.89-1.16,4.44-1.69.5-.17,1-.37,1.47-.55l1.84-.7,2.76-1c.57-.22,1.15-.42,1.7-.65L197,121c1.13-.38,2.22-.82,3.34-1.22l3.3-1.21c1.27-.48,2.55-.93,3.83-1.41l2.23-.78.29-.1c1.22-.49,2.48-.89,3.71-1.36.31-.12.59-.2.89-.3,1.54-.54,3.1-1.11,4.61-1.68,1.1-.42,2.23-.84,3.32-1.28s2-.79,3.09-1.16,2.39-.83,3.57-1.28l2-.71.82-.28c.17-.06.35-.14.51-.18a5.92,5.92,0,0,0,1-.34l.21-.07a13.81,13.81,0,0,0,1.34-.41,7.46,7.46,0,0,0-.51-3.28c-.3-.56-.6-1.1-.87-1.67a1,1,0,0,1,0-.93,1.84,1.84,0,0,0,0-1.37,11.39,11.39,0,0,1-.43-1.67,20.75,20.75,0,0,0-.3-2.2c-.27-.73-.86-1.5-.29-2.37,0,0,0-.15,0-.21-.36-.76-.28-1.65-.76-2.32.13-.22.42-.08.47-.3-.06-.45-.58-.06-.75-.58a9.26,9.26,0,0,0-1.07-3.9c.79-.73.79-1,0-1.7a3.09,3.09,0,0,1-1.27-2.19,1,1,0,0,0-.17-.41,25.09,25.09,0,0,0-.95-2.35,1.17,1.17,0,0,1-.08-1.29c.81.56.31,1.91,1.48,2.39-.18-1.16-.78-2-1-3A5.65,5.65,0,0,0,227.68,76.19ZM95.62,134.09a.76.76,0,0,1,0,.16,1.25,1.25,0,0,0,.19.56s0,0,0,.05a1.45,1.45,0,0,0,.15.5,1.89,1.89,0,0,1,.1.41,1.52,1.52,0,0,0,.09.28,8.7,8.7,0,0,1,.26.87,3.13,3.13,0,0,0,.16.52,1.35,1.35,0,0,1,.06.34,1.22,1.22,0,0,1,.06.26,1.25,1.25,0,0,0,.07.26,2.2,2.2,0,0,1,.12.44,1.92,1.92,0,0,0,.19.7.5.5,0,0,1,0,.3s.09.06.09.12a2.83,2.83,0,0,0,.08.4v0a2.41,2.41,0,0,0,.08.6c0,.07.09.12.08.2a3.44,3.44,0,0,1,.12.64.92.92,0,0,1,0,.33,1.76,1.76,0,0,1-.06.4,1.21,1.21,0,0,0-.06.38,2.13,2.13,0,0,1-.08.71,1.48,1.48,0,0,1-.17.41s0,0,0,.06,0,.08,0,.11a1.81,1.81,0,0,1-.12.28.79.79,0,0,1-.2.33.11.11,0,0,0,0,.07.3.3,0,0,1-.06.14.14.14,0,0,0,0,.11.31.31,0,0,1-.13.24.1.1,0,0,0-.06.09c0,.08-.06.14-.09.2a1.47,1.47,0,0,0-.25.48l0,.06a.19.19,0,0,0-.09.16c0,.06-.07.1-.13.13s0,.13,0,.16-.07,0-.07.08-.12.17-.19.25-.06,0-.07.1-.08.1-.14.13a.38.38,0,0,0-.14.11.52.52,0,0,1-.19.14s0,0,0,0a1.27,1.27,0,0,1-.27.3,1.29,1.29,0,0,1-.17.16l-.44.29a1,1,0,0,0-.37.34c0,.07-.13.11-.15.22s-.08.08-.13.1a1.15,1.15,0,0,1-.17.06,1.23,1.23,0,0,0-.36.23,3.36,3.36,0,0,1-.29.24,1.38,1.38,0,0,1-.25.14c-.19,0-.37.09-.55.1a.12.12,0,0,1,0-.16c.08,0,0-.1,0-.16a.28.28,0,0,0-.29.13,1.8,1.8,0,0,0,.08.21s0,.07,0,.09a.26.26,0,0,1-.1,0,.77.77,0,0,0-.33.15A.93.93,0,0,1,91,150a.84.84,0,0,0-.38.15.45.45,0,0,1-.27.08c-.11-.07,0-.2-.06-.27a.33.33,0,0,0-.07.13c0,.12-.09.28-.28.28,0,0,0,0-.06,0s-.31.13-.45.23a.44.44,0,0,1-.22.07,1,1,0,0,0-.24.09c-.21.06-.39.19-.6.26l-.42.17c-.17.08-.35.1-.52.17a2.31,2.31,0,0,0-.35.18,3.57,3.57,0,0,1-.46.16l-.14,0a1.41,1.41,0,0,1-.22.06.22.22,0,0,0-.15.06.19.19,0,0,1-.26,0h-.06a.44.44,0,0,1-.23.15.18.18,0,0,0-.07.05.2.2,0,0,1-.27,0,.27.27,0,0,1-.19.1.66.66,0,0,0-.35.16.34.34,0,0,1-.25.08.64.64,0,0,0-.49.21.15.15,0,0,1-.15.06.36.36,0,0,0-.23,0,2.64,2.64,0,0,0-.38.18,1.18,1.18,0,0,1-.37.09c-.05,0-.05-.06-.07-.06s0,.1-.07.12l-.13,0s0,0-.07,0l-.22.09s0,0,0,.06a1.16,1.16,0,0,1-.35.18c-.06,0-.09,0-.13,0a1.59,1.59,0,0,0-.25-.33.84.84,0,0,1-.15-.26,3.08,3.08,0,0,1-.19-.47c0-.15-.1-.28-.14-.42a.42.42,0,0,0-.09-.19.1.1,0,0,1,0-.1c0-.07,0-.13,0-.2a.43.43,0,0,1,0-.17c0-.09-.09-.16-.11-.25a.3.3,0,0,0-.08-.17.18.18,0,0,1,0-.1c0-.13-.08-.23-.09-.35s-.09-.16-.12-.24a.71.71,0,0,1-.08-.18c0-.09-.09-.13-.13-.2a1.08,1.08,0,0,1-.16-.42.88.88,0,0,0-.12-.32,1.44,1.44,0,0,0-.16-.33c0-.21-.23-.36-.25-.58,0,0,0,0,0,0a1.49,1.49,0,0,1-.17-.39,2.65,2.65,0,0,0-.11-.3,3.21,3.21,0,0,1-.12-.33c0-.08-.09-.15-.13-.23a1,1,0,0,1-.13-.49.55.55,0,0,0-.12-.35,1.63,1.63,0,0,1-.09-.19s0-.07,0-.1a.19.19,0,0,1-.06-.16.3.3,0,0,0,0-.16,1.77,1.77,0,0,1-.15-.38.51.51,0,0,0-.1-.21.22.22,0,0,1-.05-.11c-.08-.25-.21-.48-.28-.73a3,3,0,0,1-.1-.32s0,0,0-.07a1.47,1.47,0,0,1-.23-.6l-.06-.17a1.34,1.34,0,0,1-.14-.38,1.09,1.09,0,0,0-.09-.23c-.1-.29-.22-.56-.34-.83a2.57,2.57,0,0,1-.21-.52,5.76,5.76,0,0,1-.18-.59c0-.1,0-.19-.06-.29a.78.78,0,0,0-.09-.24,1.74,1.74,0,0,1-.24-.58.77.77,0,0,0-.11-.27,1.55,1.55,0,0,1-.13-.36l0-.12a2.4,2.4,0,0,1-.11-.23,1.6,1.6,0,0,0-.1-.23c-.06-.13-.1-.28-.17-.41v0a3.47,3.47,0,0,0-.25-.77.75.75,0,0,1,0-.16c0-.11-.11-.19-.13-.3a1.2,1.2,0,0,0-.08-.27,1.79,1.79,0,0,1-.16-.46.58.58,0,0,0,0-.14,2.42,2.42,0,0,1-.23-.58c0-.18-.14-.36-.21-.54a3.07,3.07,0,0,1-.17-.42c0-.07-.07-.13-.09-.21s-.18-.44-.28-.66-.1-.31-.16-.46-.19-.48-.27-.72c0,0,0-.06,0-.08s0-.18-.08-.25-.13-.33-.16-.52a.32.32,0,0,0,0-.09,2,2,0,0,1-.08-.26c0-.07-.06-.12-.09-.18a3.38,3.38,0,0,1-.11-.34c-.06-.2-.14-.4-.21-.61a1.17,1.17,0,0,1,0-.2.48.48,0,0,0-.07-.2,2.23,2.23,0,0,1-.19-.51.47.47,0,0,0-.06-.15,1.92,1.92,0,0,1-.14-.36,6,6,0,0,0-.2-.6,3.36,3.36,0,0,1-.16-.33,2.13,2.13,0,0,1-.07-.27,4.5,4.5,0,0,0-.26-.81,1.4,1.4,0,0,1-.1-.16c-.06-.23-.12-.45-.2-.67a2.63,2.63,0,0,0-.09-.3c-.12-.24-.15-.52-.27-.76,0,0,0-.06,0-.09a.21.21,0,0,0,0-.13.07.07,0,0,1,0-.05,1.35,1.35,0,0,0-.08-.4,2.18,2.18,0,0,0-.27-.71.28.28,0,0,1,0-.13,1.72,1.72,0,0,0-.08-.38c0-.08,0-.17-.1-.24a.06.06,0,0,1,0,0c0-.09,0-.16,0-.24a2.45,2.45,0,0,1-.08-.29.91.91,0,0,0-.17-.34.78.78,0,0,1-.07-.25.49.49,0,0,0-.06-.17.37.37,0,0,1-.07-.35v-.07c-.11,0-.12-.14-.13-.23a1.05,1.05,0,0,0-.17-.39,1.73,1.73,0,0,1-.16-.37A.91.91,0,0,0,69,119a.64.64,0,0,1-.07-.27.61.61,0,0,1,0-.13s.08,0,.12,0,0,0,0,0-.17-.17-.2-.28,0-.07,0-.1a3.82,3.82,0,0,1-.18-.51c-.1-.24-.14-.5-.22-.75a.34.34,0,0,1,0-.2.18.18,0,0,1,.12-.13,2.19,2.19,0,0,1,.43-.15s.1-.06.15-.08l.31-.12A5.55,5.55,0,0,0,70,116a1.25,1.25,0,0,1,.25-.09,1.82,1.82,0,0,1,.51-.13.47.47,0,0,0,.25-.11,1,1,0,0,1,.35-.14,4.65,4.65,0,0,0,.63-.21,4.65,4.65,0,0,1,.52-.2c.13,0,.25-.07.38-.09s0,0,0,0,.24-.1.35-.15a1.66,1.66,0,0,1,.31-.12,2,2,0,0,0,.23-.06,3.09,3.09,0,0,1,.43-.14.14.14,0,0,0,.09,0,.31.31,0,0,1,.24-.08s0,0,.06,0a1.69,1.69,0,0,1,.66-.28,2.43,2.43,0,0,0,.38-.13,1,1,0,0,0,.35-.15.08.08,0,0,1,.07,0,1.23,1.23,0,0,0,.44-.19,1.17,1.17,0,0,1,.63-.25c.05,0,.09,0,.1.07s.1-.07.17,0h0c.15-.08.32-.09.47-.16a6.19,6.19,0,0,1,.6-.23.12.12,0,0,1,.15,0,1.6,1.6,0,0,0,.39-.11.27.27,0,0,1,.15,0c.14,0,.28-.06.42-.06a.71.71,0,0,0,.24-.06,1.24,1.24,0,0,1,.27,0,2.91,2.91,0,0,0,.51,0,.38.38,0,0,1,.26,0H81a.24.24,0,0,1,.2,0,.14.14,0,0,0,.09,0,3,3,0,0,0,.32-.07h.07a2.69,2.69,0,0,1,.75.14.21.21,0,0,0,.1,0,2.75,2.75,0,0,1,.49.14.22.22,0,0,1,.12.11.19.19,0,0,1,.21.08s0,0,.08,0l.34.14.37.14a.35.35,0,0,0,.11,0,.17.17,0,0,1,.12.05s0,0,.06,0,.23.14.33.23.3.26.45.39a1.3,1.3,0,0,1,.15.18,1.6,1.6,0,0,0,.47.35.44.44,0,0,1,.15.12s.06.09.12.09a0,0,0,0,1,0,0,.78.78,0,0,0,.24.3l.29.37a1.14,1.14,0,0,0,.11.11,3.16,3.16,0,0,1,.36.48.92.92,0,0,1,.18.3.32.32,0,0,0,.14.14,1.26,1.26,0,0,1,.3.31s0,0,.06.06a.26.26,0,0,1,.15.17.87.87,0,0,0,.15.24c.07.1.16.18.16.32s0,0,0,.06.08.21.17.28a2.58,2.58,0,0,0,.08.26.15.15,0,0,0,0,.09c.09.09.09.22.17.31v0a.85.85,0,0,0,.09.32c.06.23.12.46.19.69a2.81,2.81,0,0,0,.19.53.4.4,0,0,1,.07.2.39.39,0,0,0,.08.21.24.24,0,0,1,.06.09,2.05,2.05,0,0,0,.16.41.51.51,0,0,0,.1.21.3.3,0,0,1,.06.14.74.74,0,0,0,.12.31,2.17,2.17,0,0,1,.17.42,2,2,0,0,0,.17.49c.08.17.1.35.17.52a5.61,5.61,0,0,1,.17.62,3.75,3.75,0,0,1,.12.6s0,0,0,0,0,0,0,.08a.36.36,0,0,0,0,.27,2.22,2.22,0,0,1,.07.45c0,.14,0,.29,0,.44a2,2,0,0,0,0,.35,1.93,1.93,0,0,0,0,.34.13.13,0,0,1,0,.06c-.06,0,0,.13,0,.2a1.5,1.5,0,0,1-.13.62c0,.1,0,.2-.06.3a.28.28,0,0,1-.2.22c0,.07,0,.11,0,.17s0,.12-.05.16,0,.05.05.08a.23.23,0,0,0,.17.13,2,2,0,0,1,.4.23s0,.09.1.13.09.09.16.11,0,.08.1.09.1.11.18.1l0,0c0,.08.07.07.11.09s0,.08,0,.11.17.07.24.13,0,.05.08.06a3.26,3.26,0,0,1,.4.24.27.27,0,0,1,.08.07.08.08,0,0,0,0,0,.49.49,0,0,1,.3.21s0,0,0,0a.85.85,0,0,0,.39.23c0,.08.09.11.16.15s.18.12.28.16l.09.06a.61.61,0,0,1,.31.28.64.64,0,0,0,.13.15c.07,0,.11.13.18.18s0,0,0,0c.06.18.23.29.31.46s.18.27.24.42a1.21,1.21,0,0,0,.08.25,0,0,0,0,0,0,0,3.6,3.6,0,0,1,.29.55l0,.06A6,6,0,0,1,95.62,134.09Zm19-16.49a.62.62,0,0,1,.07.23l0,.1c.07.18.13.35.2.52a1.59,1.59,0,0,1,.1.39s0,0,0,.06a4.26,4.26,0,0,1,.15.47,1.3,1.3,0,0,0,.15.34.61.61,0,0,1,.11.3,2.33,2.33,0,0,0,.11.28l.06.21a2,2,0,0,0,.1.4c.06.19.15.37.21.56s.1.33.16.49.11.45.19.66a1.68,1.68,0,0,1,.07.24c0,.07.07.13.1.2a4.84,4.84,0,0,0,.36.72.18.18,0,0,1,0,.1,1,1,0,0,0,.1.38c0,.1.05.2.07.3a1,1,0,0,0,.16.39.27.27,0,0,1,0,.15l0,.09c.06.15.12.31.19.47a2.47,2.47,0,0,0,.1.29c0,.06.08.12.11.19a1.06,1.06,0,0,1,.09.25.69.69,0,0,0,.07.15,3.74,3.74,0,0,1,.17.57l0,.08a2.9,2.9,0,0,1,.25.57c0,.09,0,.2.09.29s.11.34.18.5.14.41.21.62a1.34,1.34,0,0,0,.16.37,1.34,1.34,0,0,1,.11.39c0,.05,0,.11,0,.16a1.31,1.31,0,0,1,.12.33,1.71,1.71,0,0,0,.09.3c.05.19.09.38.15.57a2.37,2.37,0,0,1,.14.75,1.36,1.36,0,0,0,.08.39,1,1,0,0,1,.07.29.78.78,0,0,0,0,.21.07.07,0,0,1,0,.05,2.09,2.09,0,0,0,0,.25.61.61,0,0,0,0,.3v0a1,1,0,0,0-.09.42c0,.17-.07.34-.08.52a.94.94,0,0,0,0,.37.23.23,0,0,1,0,.18.19.19,0,0,0,0,.1.16.16,0,0,1,0,.13.22.22,0,0,0-.06.13.17.17,0,0,1,0,.15s0,0,0,0-.08.23-.11.35a2.12,2.12,0,0,1-.1.36c-.07.2-.14.39-.19.59s-.13.35-.17.53l0,.06a2.19,2.19,0,0,0-.25.48,1.25,1.25,0,0,1-.21.3,1.38,1.38,0,0,0-.14.27.85.85,0,0,1-.21.32c-.08,0,0,.15-.1.19a.26.26,0,0,0-.12.19.37.37,0,0,0-.2.24s-.07.07-.11.1-.1.06-.11.14a.26.26,0,0,1-.15.14.12.12,0,0,0-.1.08c0,.08-.11.12-.17.17a.61.61,0,0,0-.16.16.48.48,0,0,1-.11.09c-.13,0-.24.14-.38.18a.23.23,0,0,0-.14.13.2.2,0,0,1-.12.12,3,3,0,0,0-.3.18.27.27,0,0,0-.1.11.2.2,0,0,1-.1.08.44.44,0,0,0-.19.19.73.73,0,0,1-.26.2c-.12.08-.28.09-.38.22a0,0,0,0,1,0,0,2.08,2.08,0,0,0-.48.28,5.33,5.33,0,0,1-.84.39,1.86,1.86,0,0,1-.46.13c-.12,0-.23,0-.34,0a.3.3,0,0,0-.13,0c-.13.05-.27.07-.4.11s-.11-.06-.18,0a.2.2,0,0,1-.17,0,.14.14,0,0,0-.11,0,1,1,0,0,1-.52.06s0,0,0,0a.74.74,0,0,1-.39,0,.62.62,0,0,0-.23,0s-.11,0-.16,0,0,0-.07,0a.76.76,0,0,1-.3,0c-.07,0-.15,0-.23,0s-.11.06-.14,0,0,0-.06,0l-.16,0a.18.18,0,0,1-.12,0,.36.36,0,0,0-.23,0s-.06,0-.07-.06a.74.74,0,0,0-.21,0s-.07,0-.08-.05,0,0-.07,0a.71.71,0,0,1-.45-.1H108a3.58,3.58,0,0,1-.77-.23,1.12,1.12,0,0,0-.26-.08.51.51,0,0,1-.31-.11h0a2,2,0,0,1-.42-.12.64.64,0,0,1-.28-.18,1.19,1.19,0,0,0-.29-.21c-.08,0-.12-.12-.21-.13s-.23-.13-.36-.21a.12.12,0,0,1-.18-.06s0-.06-.08-.08a.92.92,0,0,0-.36-.17s0,0,0-.07a.45.45,0,0,0-.2-.21.44.44,0,0,1-.18-.2,1,1,0,0,0-.16-.2c-.13-.15-.25-.31-.39-.46a1.5,1.5,0,0,1-.27-.34,1.58,1.58,0,0,0-.26-.36c-.11-.12-.17-.27-.28-.39a.7.7,0,0,1-.08-.2c0-.11-.13-.2-.13-.32a.14.14,0,0,0,0-.06.52.52,0,0,1-.11-.3.2.2,0,0,0-.1-.14c-.06,0,0-.1-.07-.12a.13.13,0,0,1-.07-.13c0-.06-.06-.1-.06-.15a.06.06,0,0,0,0-.07.92.92,0,0,1-.17-.45,1.19,1.19,0,0,0-.15-.35.43.43,0,0,1,0-.07,2.9,2.9,0,0,0-.16-.47h0a1.6,1.6,0,0,1-.23-.4,3.13,3.13,0,0,1-.19-.36,1.55,1.55,0,0,1-.07-.23,1.2,1.2,0,0,0-.16-.27.37.37,0,0,1-.07-.14s-.07,0-.1,0,0,0,.07,0-.13-.29-.2-.43a.88.88,0,0,1-.07-.23,1.49,1.49,0,0,0-.23-.57.64.64,0,0,1-.06-.18.33.33,0,0,0-.14-.24s0-.05,0-.08a2.63,2.63,0,0,0-.09-.3,8.51,8.51,0,0,1-.29-.85.94.94,0,0,0,0-.09.46.46,0,0,1-.08-.21.88.88,0,0,0-.12-.28,2.49,2.49,0,0,1-.11-.29c-.06-.15-.12-.3-.19-.45a2.88,2.88,0,0,1-.2-.56,1.41,1.41,0,0,0-.06-.22.3.3,0,0,1,0-.16.11.11,0,0,0,0,0,1.37,1.37,0,0,1-.19-.47.38.38,0,0,0-.06-.16,2.23,2.23,0,0,1-.27-.73,2.74,2.74,0,0,0-.17-.48.47.47,0,0,1-.06-.2.3.3,0,0,0-.08-.18.54.54,0,0,1-.08-.19,2,2,0,0,0-.13-.39,1.93,1.93,0,0,1-.12-.41,3.82,3.82,0,0,0-.13-.36.59.59,0,0,1,0-.19.08.08,0,0,0,0,0,1.51,1.51,0,0,1-.22-.6.28.28,0,0,0,0-.13c-.08-.15-.12-.32-.19-.47a6.39,6.39,0,0,1-.31-.83c-.06-.19-.13-.36-.17-.55a1.45,1.45,0,0,0-.09-.22c-.06-.12-.06-.24-.12-.36s-.1-.27-.15-.41a1.08,1.08,0,0,1-.08-.19.56.56,0,0,1-.06-.23.79.79,0,0,0-.08-.26,2.49,2.49,0,0,1-.18-.45.39.39,0,0,0-.08-.2s0,0,0-.06-.15-.31-.14-.48-.06-.23-.16-.3a.26.26,0,0,1-.06-.13,2,2,0,0,1,0-.26.17.17,0,0,0,0-.1.6.6,0,0,1-.13-.28c0-.16-.12-.32-.16-.49a.67.67,0,0,0-.1-.23,1.58,1.58,0,0,1-.18-.5v0a1.67,1.67,0,0,0-.09-.77,1,1,0,0,1,0-.25.38.38,0,0,0,0-.1,1.42,1.42,0,0,1-.11-.35s0-.06,0-.09,0,0,0-.08-.09-.25-.17-.36a.31.31,0,0,1-.06-.23A.56.56,0,0,0,94,115a.35.35,0,0,1-.08-.26.31.31,0,0,0,0-.08s0,0,0-.06A1.52,1.52,0,0,0,94,114a.16.16,0,0,0,0-.1c-.07-.09,0-.21-.11-.3s0,0,0-.07a2.14,2.14,0,0,0,0-.44c0-.11-.06-.22-.09-.33a.31.31,0,0,0,0-.23v0c.11-.09.06-.23.12-.33a.24.24,0,0,0,0-.08c0-.1,0-.18,0-.27s0,0,0,0a1.2,1.2,0,0,1,.14-.49s0-.09,0-.13,0,0,0-.06a1.73,1.73,0,0,1,.11-.37s0,0,0,0,0-.16.06-.25a.16.16,0,0,1,.13-.14s.07,0,.08-.07.1-.15.17-.22,0-.07,0-.1,0-.2.12-.27,0-.14,0-.21a.45.45,0,0,1,.12-.26,1.55,1.55,0,0,0,.2-.32c.05-.1.13-.13.21-.19s.09,0,.07-.12a.07.07,0,0,1,.06-.07.43.43,0,0,0,.26-.3,1.61,1.61,0,0,1,.25-.32l.08-.07s0,0,0-.09a1.45,1.45,0,0,1,.18-.1l.16-.13a1.16,1.16,0,0,1,.39-.3,1.25,1.25,0,0,1,.24-.16.19.19,0,0,1,.14-.2c.06,0,.1-.08.18-.1s.09-.19.18-.24.12-.08.19-.11.07-.16.15-.2a3.85,3.85,0,0,1,.47-.19l.26-.13s0,0,0,0,0-.06,0-.08a2.2,2.2,0,0,1,.47-.27l.07,0s0,0,0-.05a.09.09,0,0,1,.06-.06c.28-.11.38-.2.67-.29.09,0,.3-.08.35-.17a.19.19,0,0,1,.24-.09s.06,0,.08,0,.06,0,.11,0h.07c0,.11.39,0,.43-.08s0-.07,0-.11l.29-.11a1.57,1.57,0,0,1,.29,0,.47.47,0,0,0,.17,0,.37.37,0,0,1,.21,0c.19-.08.25,0,.44-.12a1.8,1.8,0,0,1,.22-.06H103c.08.08.17,0,.25,0l.17,0a.08.08,0,0,1,.1,0c0,.06.1,0,.16,0s.07,0,.1,0,.1,0,.16.07a.56.56,0,0,1,.18.07.33.33,0,0,0,.22,0,.17.17,0,0,0,.17.14l.12,0a.44.44,0,0,0,.33.09s.09,0,.13,0a.08.08,0,0,0,.09,0,.27.27,0,0,1,.18,0,1.14,1.14,0,0,0,.51.17l.28,0a1,1,0,0,0,.25.07c.13.1.31.12.44.23l.07,0c.14,0,.2.1.3.19a.37.37,0,0,1,.21.08,4.37,4.37,0,0,1,.49.23l.11.09c.1.11.22.21.33.31s.12.13.21.14a.06.06,0,0,1,.06.05,0,0,0,0,0,0,0c.13,0,.19.13.3.19a2.37,2.37,0,0,1,.66.52c.1.1.18.22.29.31s0,.11.1.15l.3.28a2,2,0,0,1,.28.3l.18.19a1.19,1.19,0,0,0,.2.19,1.58,1.58,0,0,1,.35.43.76.76,0,0,0,.17.23.63.63,0,0,1,.16.23,4.93,4.93,0,0,1,.19.54,1.66,1.66,0,0,0,.13.27,2.06,2.06,0,0,0,.16.37,1.86,1.86,0,0,1,.14.37c0,.14.11.29.15.44s.11.29.16.44.08.11.1.18.07.26.11.39a1.86,1.86,0,0,1,.06.34.43.43,0,0,0,.09.21.73.73,0,0,1,.09.22c0,.14.1.28.13.43s0,.2.07.3a.3.3,0,0,0,.1.2.25.25,0,0,1,.08.16c0,.13.12.24.16.38s.09.25.14.38a1.09,1.09,0,0,0,.08.15,4.65,4.65,0,0,1,.2.52,5.18,5.18,0,0,0,.26.65,5.24,5.24,0,0,0,.23.48,2,2,0,0,1,.13.37A1.17,1.17,0,0,0,114.66,117.6Zm21.88-8a1.55,1.55,0,0,1,.07.23.36.36,0,0,0,0,.1c.07.17.13.35.2.52a1.66,1.66,0,0,1,.11.38.15.15,0,0,0,0,.07,2.84,2.84,0,0,1,.15.47,1.33,1.33,0,0,0,.16.34.91.91,0,0,1,.11.3,1.33,1.33,0,0,0,.1.28.83.83,0,0,1,.06.21,2.92,2.92,0,0,0,.1.4c.07.19.15.37.22.56l.15.49c.07.22.12.45.19.66a2,2,0,0,1,.07.23c0,.08.08.13.1.21a6,6,0,0,0,.36.72.18.18,0,0,1,0,.1,1,1,0,0,0,.1.38,1.46,1.46,0,0,1,.07.3,1.34,1.34,0,0,0,.16.39.42.42,0,0,1,.06.14.24.24,0,0,0,0,.09l.19.48c0,.09.06.19.1.28a2,2,0,0,1,.11.2.75.75,0,0,1,.09.25c0,.06.06.09.07.15a5.4,5.4,0,0,1,.18.57.11.11,0,0,0,0,.08,2.38,2.38,0,0,1,.24.57c0,.09.06.2.09.29s.11.34.18.5.14.41.21.62a2,2,0,0,0,.16.37,1.76,1.76,0,0,1,.12.39.58.58,0,0,0,.05.16,1.83,1.83,0,0,1,.11.33,1.71,1.71,0,0,0,.09.3c.06.19.1.38.16.57a3.12,3.12,0,0,1,.14.74.92.92,0,0,0,.08.4,1.37,1.37,0,0,1,.07.29.51.51,0,0,0,0,.21.07.07,0,0,1,0,.05,1,1,0,0,0,0,.25.57.57,0,0,0,0,.29v0a1,1,0,0,0-.1.42c0,.17-.07.34-.08.51a1,1,0,0,0,0,.38.19.19,0,0,1,0,.18.12.12,0,0,0,0,.1.2.2,0,0,1,0,.13.18.18,0,0,0-.06.13.17.17,0,0,1-.06.15s0,0,0,0-.08.23-.12.35a2.42,2.42,0,0,1-.1.36c-.07.19-.13.39-.19.59s-.12.35-.17.53c0,0,0,0,0,.06a2.16,2.16,0,0,0-.24.48,1.61,1.61,0,0,1-.21.3,1,1,0,0,0-.15.27.74.74,0,0,1-.21.31c-.07,0,0,.16-.1.2a.24.24,0,0,0-.11.19c-.1.06-.19.11-.21.24s-.07.07-.11.1-.1.05-.11.14-.08.11-.15.14a.14.14,0,0,0-.1.08c0,.08-.1.12-.17.17a.46.46,0,0,0-.15.16.38.38,0,0,1-.12.09c-.13,0-.24.14-.37.18a.22.22,0,0,0-.15.13.2.2,0,0,1-.12.12,1.83,1.83,0,0,0-.3.18.19.19,0,0,0-.1.1.15.15,0,0,1-.1.09.44.44,0,0,0-.19.19c-.05.1-.17.14-.26.2s-.28.09-.37.22l0,0a2.15,2.15,0,0,0-.49.28,5.67,5.67,0,0,1-.83.39,4.12,4.12,0,0,1-.47.13c-.11,0-.22,0-.33,0a.27.27,0,0,0-.13,0c-.13,0-.27.07-.41.11s-.11-.06-.17,0-.11.06-.17,0a.17.17,0,0,0-.12,0,1,1,0,0,1-.51.06s0,0-.05,0a.68.68,0,0,1-.4,0,.85.85,0,0,0-.22,0c-.06,0-.11,0-.16,0s0,0-.08,0a.62.62,0,0,1-.3,0,.56.56,0,0,0-.22,0c-.06,0-.12.06-.15,0s0,0-.06,0h-.16a.14.14,0,0,1-.12,0c-.06,0-.15,0-.23,0s-.06,0-.06-.05h-.22s-.07,0-.08,0,0,0-.07,0a.71.71,0,0,1-.45-.1l-.06,0a3.39,3.39,0,0,1-.77-.22,1.53,1.53,0,0,0-.26-.08.62.62,0,0,1-.32-.11l0,0a1.46,1.46,0,0,1-.41-.11.68.68,0,0,1-.28-.18,1.25,1.25,0,0,0-.3-.21c-.07,0-.12-.12-.21-.13s-.23-.13-.36-.21a.11.11,0,0,1-.17-.07s-.06,0-.09-.07a.76.76,0,0,0-.35-.17s0,0-.06-.07a.45.45,0,0,0-.2-.21.49.49,0,0,1-.18-.2,1.49,1.49,0,0,0-.15-.2c-.14-.15-.26-.32-.4-.46a1.76,1.76,0,0,1-.27-.34,1.54,1.54,0,0,0-.25-.36c-.12-.12-.17-.27-.28-.39a.52.52,0,0,1-.09-.2,1.27,1.27,0,0,1-.13-.32.14.14,0,0,0,0-.06.52.52,0,0,1-.11-.3.19.19,0,0,0-.09-.14c-.07,0,0-.1-.07-.12a.12.12,0,0,1-.08-.13c0-.06,0-.1,0-.15a.08.08,0,0,0,0-.07.92.92,0,0,1-.17-.45,1.35,1.35,0,0,0-.14-.35.1.1,0,0,1,0-.07,4.43,4.43,0,0,0-.17-.47h0a1.6,1.6,0,0,1-.23-.4c-.07-.12-.13-.24-.19-.36a1.55,1.55,0,0,1-.07-.23c0-.11-.11-.18-.16-.27s0-.09-.07-.14-.07,0-.1,0,0,0,.07,0-.12-.29-.2-.43a.86.86,0,0,1-.06-.23,1.8,1.8,0,0,0-.23-.57A.45.45,0,0,1,122,125a.33.33,0,0,0-.14-.24.2.2,0,0,1,0-.08,1.49,1.49,0,0,0-.09-.3c-.1-.28-.21-.56-.29-.86a.11.11,0,0,0,0-.08.46.46,0,0,1-.08-.21.88.88,0,0,0-.12-.28,2.49,2.49,0,0,1-.11-.29c-.06-.15-.12-.31-.19-.45a2.84,2.84,0,0,1-.19-.56,1.42,1.42,0,0,0-.07-.22.43.43,0,0,1-.05-.16s0,0,0,0a1.35,1.35,0,0,1-.18-.47.87.87,0,0,0-.07-.17,2.07,2.07,0,0,1-.27-.73,3,3,0,0,0-.17-.47.66.66,0,0,1-.06-.2.25.25,0,0,0-.08-.18.4.4,0,0,1-.07-.19,3,3,0,0,0-.14-.39,1.93,1.93,0,0,1-.12-.41,2.17,2.17,0,0,0-.12-.36.42.42,0,0,1-.06-.19.08.08,0,0,0,0,0,1.35,1.35,0,0,1-.21-.61.42.42,0,0,0,0-.12c-.08-.15-.13-.32-.2-.47a8.29,8.29,0,0,1-.31-.83c0-.19-.12-.37-.17-.55a1.45,1.45,0,0,0-.09-.22c0-.12-.06-.24-.12-.36s-.1-.27-.15-.41,0-.12-.08-.19a.77.77,0,0,1-.06-.23.7.7,0,0,0-.08-.27,1.82,1.82,0,0,1-.17-.44.4.4,0,0,0-.09-.2l0-.06c0-.17-.14-.31-.14-.48s-.06-.23-.16-.31a.15.15,0,0,1,0-.12,1.22,1.22,0,0,1-.06-.26.1.1,0,0,0,0-.1.72.72,0,0,1-.13-.28c0-.17-.12-.32-.15-.49a.7.7,0,0,0-.11-.23,2.21,2.21,0,0,1-.18-.51h0a1.81,1.81,0,0,0-.08-.77,1.23,1.23,0,0,1-.05-.25s0-.07,0-.11a1.29,1.29,0,0,1-.1-.35s0-.05,0-.08,0,0,0-.08-.08-.25-.17-.36a.31.31,0,0,1-.06-.23.56.56,0,0,0-.1-.36.35.35,0,0,1-.08-.26.24.24,0,0,0,0-.08s0,0,0-.06c.13-.2.07-.42.1-.63a.14.14,0,0,0,0-.11c-.07-.08,0-.2-.1-.3s0,0,0-.06a2.14,2.14,0,0,0,0-.44c0-.11-.06-.22-.09-.33s.09-.14.06-.24,0,0,0,0,.06-.23.11-.33a.09.09,0,0,0,0-.08c0-.1,0-.18,0-.27l0,0a1.22,1.22,0,0,1,.15-.49s0-.09,0-.14a0,0,0,0,1,0-.05,1,1,0,0,1,.11-.37v0c-.05-.1,0-.16,0-.25s.07-.12.13-.14.08,0,.08-.07.1-.15.17-.22,0-.07,0-.1,0-.2.12-.27,0-.14.05-.21a.42.42,0,0,1,.12-.26,2.2,2.2,0,0,0,.21-.32c0-.1.13-.13.2-.19s.09,0,.08-.12,0-.06,0-.07a.5.5,0,0,0,.27-.3c0-.14.16-.21.24-.32l.08-.07s0,0,0-.09.12-.06.18-.1a.7.7,0,0,0,.16-.13,1.4,1.4,0,0,1,.39-.3c.09,0,.15-.13.25-.16a.17.17,0,0,1,.13-.2c.07,0,.11-.08.18-.1s.09-.19.19-.24l.18-.11c0-.12.07-.16.15-.2a4.78,4.78,0,0,1,.48-.19l.25-.13s0,0,0,0,0-.06,0-.08a1.64,1.64,0,0,1,.46-.27s0,0,.07-.06,0,0,0,0,0,0,.07-.06c.28-.11.38-.2.66-.29.09,0,.3-.08.35-.17a.2.2,0,0,1,.24-.1s.07,0,.09,0,0,0,.1,0,.07,0,.08,0,.39,0,.43-.08,0-.07,0-.11l.28-.11a1.67,1.67,0,0,1,.3,0l.17,0a.34.34,0,0,1,.2,0c.19-.08.26,0,.45-.12a.71.71,0,0,1,.22-.06h0c.08.07.17,0,.25,0l.18,0a.07.07,0,0,1,.09,0,.12.12,0,0,0,.16,0s.08,0,.1,0,.11.06.16.08a.62.62,0,0,1,.19.07s.13,0,.21,0a.18.18,0,0,0,.17.14l.13,0a.52.52,0,0,0,.32.09s.1,0,.13,0,.06,0,.1,0a.26.26,0,0,1,.17,0,1.19,1.19,0,0,0,.51.17,1.37,1.37,0,0,1,.28,0,1.17,1.17,0,0,0,.25.07c.14.1.31.12.44.23l.08,0c.13,0,.19.1.29.19s.15,0,.22.08a3.49,3.49,0,0,1,.48.23l.11.09.34.31c.06,0,.11.13.2.14a.06.06,0,0,1,.06,0s0,0,0,0,.2.13.3.19a2.37,2.37,0,0,1,.66.52c.1.1.18.22.29.31s.06.11.11.15.19.19.29.27a2.62,2.62,0,0,1,.28.3l.18.2a1.19,1.19,0,0,0,.2.19,1.44,1.44,0,0,1,.35.43,1.24,1.24,0,0,0,.17.23.53.53,0,0,1,.16.23,5.62,5.62,0,0,1,.19.53,1.43,1.43,0,0,0,.13.28,2,2,0,0,0,.17.37,2,2,0,0,1,.14.37c0,.14.1.29.14.44s.11.29.16.44a1.62,1.62,0,0,1,.1.18c0,.13.07.26.11.39a1.3,1.3,0,0,1,.07.33.49.49,0,0,0,.08.21.68.68,0,0,1,.09.22c0,.15.1.29.13.44s0,.2.07.3a.31.31,0,0,0,.11.2.28.28,0,0,1,.08.15,2.5,2.5,0,0,0,.15.38c0,.13.09.26.14.39l.09.15a4.6,4.6,0,0,1,.19.52c.09.22.15.44.26.65s.14.32.23.47a1.71,1.71,0,0,1,.13.38A2.44,2.44,0,0,0,136.54,109.64Zm17.29-11.17a1.27,1.27,0,0,1,0,.48,5.56,5.56,0,0,1-.1,1,5.84,5.84,0,0,0-.1.84c0,.65-.09,1.28-.17,1.92,0,.15,0,.3-.05.44a2.77,2.77,0,0,1,0,.3c-.06.24-.3.42-.1.68s.23.15.33.23a1.76,1.76,0,0,1,.3.31,2,2,0,0,0,.34.37,2.41,2.41,0,0,1,.21.24c.15.18.28.37.42.56a4.81,4.81,0,0,0,.42.48c.11.13.19.24.31.36a3,3,0,0,1,.29.32c.19.28.42.51.62.78s.45.56.69.83a5.41,5.41,0,0,1,.6.66,3.29,3.29,0,0,0,.61.74,2,2,0,0,1,.36.35c.1.13.17.28.27.41s.26.28.37.44.16.27.25.4.36.37.51.57a.27.27,0,0,0,.13.13.53.53,0,0,1,.14.11,4.68,4.68,0,0,1,.29.37,4,4,0,0,0,.52.62,2.74,2.74,0,0,1,.55.63,4.84,4.84,0,0,0,.56.63c.11.12.23.2.33.33a4.14,4.14,0,0,0,.35.38c.22.23.47.45.68.69a9.19,9.19,0,0,1,.64.76,4.9,4.9,0,0,0,.65.64c.46.43.87.93,1.32,1.36a.93.93,0,0,1,.26.33,3.78,3.78,0,0,0,.17.35,3,3,0,0,0,.23.38,1.67,1.67,0,0,0,.35.24,2.38,2.38,0,0,1,.41.23,2.73,2.73,0,0,1,.27.31,1.82,1.82,0,0,1,.15.23,1.09,1.09,0,0,0,0,.17c.06.12.23.16.29.28.15.32-.41.39-.57.51s0,.07-.08.13,0,0,0,.07-.08,0-.1,0-.3,0-.44,0-.25.2-.39.27-.29.09-.42.15a.62.62,0,0,1-.29.07.71.71,0,0,0-.21,0,1.79,1.79,0,0,1-.24.12l-.2,0c-.3.1-.57.29-.87.37l-.46.11a3.09,3.09,0,0,0-.51.18,4.89,4.89,0,0,1-.9.27,5.23,5.23,0,0,1-.54.12,1.27,1.27,0,0,1-.43,0,.89.89,0,0,1-.31-.27,3.07,3.07,0,0,0-.25-.26c-.2-.21-.34-.46-.52-.69s-.41-.55-.6-.84-.19-.16-.32-.26a1.48,1.48,0,0,1-.26-.3,3,3,0,0,0-.57-.61c-.13-.11-.2-.25-.33-.36a2.72,2.72,0,0,1-.29-.3c-.2-.22-.45-.35-.63-.58s-.19-.28-.28-.38a1.54,1.54,0,0,1-.12-.13,2.39,2.39,0,0,0-.12-.22,5,5,0,0,0-.59-.78,4.28,4.28,0,0,1-.66-.75c-.08-.14-.19-.27-.27-.4s-.06-.16-.11-.21l-.1-.06a3.78,3.78,0,0,1-.55-.64c-.19-.22-.39-.45-.59-.66,0,0-.06,0-.08,0s0-.1-.06-.12l-.13-.13a1.83,1.83,0,0,0-.26-.36,4.25,4.25,0,0,1-.46-.57c-.09-.14-.14-.36-.26-.47l-.28-.21a.35.35,0,0,0-.38,0c-.11.07-.08.2-.11.3s-.17.2-.21.33a2.09,2.09,0,0,0-.08.36c0,.12,0,.21,0,.33a2.63,2.63,0,0,0-.06.39.61.61,0,0,1-.17.42.9.9,0,0,0-.22.36,3.07,3.07,0,0,0,.06.51,3.75,3.75,0,0,1-.05.47,4.57,4.57,0,0,0,0,.52,1.9,1.9,0,0,0,0,.41,1.49,1.49,0,0,0,.1.51,1.27,1.27,0,0,1,.12.23c0,.07,0,.14,0,.2a6.44,6.44,0,0,0,.34,1c.14.34.27.67.39,1s.16.64.28,1,.24.73.38,1.09a8.23,8.23,0,0,1,.37,1,5.73,5.73,0,0,1,.14.56c0,.15.16.23.2.39l.3.93a4.88,4.88,0,0,0,.4.83.57.57,0,0,1,0,.46c0,.14-.18.16-.29.24a1.29,1.29,0,0,1-.39.23c-.17.06-.32.14-.49.19a3.24,3.24,0,0,0-.41.13c-.15.06-.31.09-.45.15a2.57,2.57,0,0,1-.52.21,2.72,2.72,0,0,0-.37.13c-.3.09-.59.23-.89.34a3.21,3.21,0,0,1-.53.15c-.17,0-.33.12-.5.17s-.58.29-.89.18-.32-.56-.35-.87a1.6,1.6,0,0,0-.13-.51,3.6,3.6,0,0,0-.12-.44c-.14-.31-.28-.65-.4-1-.06-.15-.16-.26-.21-.4a4.26,4.26,0,0,1-.15-.47,5,5,0,0,0-.26-.8,5,5,0,0,1-.36-1c-.13-.38-.23-.77-.38-1.15a5.89,5.89,0,0,1-.35-.91,19209062453926.4,19209062453926.4,0,0,0-.32-.92,3.59,3.59,0,0,1-.37-1,5,5,0,0,0-.3-1c-.11-.34-.16-.7-.28-1s-.25-.65-.35-1-.19-.73-.31-1.09a8.62,8.62,0,0,1-.32-1c-.06-.34-.16-.65-.25-1a7.24,7.24,0,0,0-.41-1c-.07-.17-.1-.36-.17-.53a3.67,3.67,0,0,0-.26-.48,1,1,0,0,1-.09-.27,1.33,1.33,0,0,0-.09-.21,3.45,3.45,0,0,1-.14-.42c0-.16-.09-.31-.12-.47a2.21,2.21,0,0,0-.21-.5c-.09-.18-.07-.38-.16-.56a2.71,2.71,0,0,1-.17-.39c-.11-.34-.25-.67-.34-1a1.54,1.54,0,0,0-.2-.43,4.47,4.47,0,0,1-.19-.46c-.08-.18-.19-.33-.26-.51a3.9,3.9,0,0,0-.17-.48,9.32,9.32,0,0,1-.38-1c-.06-.17-.16-.33-.22-.5a3.63,3.63,0,0,0-.19-.52,2.35,2.35,0,0,1-.17-.44c0-.15-.1-.31-.15-.46s-.18-.31-.24-.48-.08-.32-.14-.48c-.12-.33-.26-.66-.38-1-.07-.19-.13-.38-.19-.56s-.14-.32-.2-.48c-.23-.67-.63-1.26-.83-1.94-.1-.34-.21-.67-.32-1s-.21-.68-.31-1a2.81,2.81,0,0,0-.3-.84,6.07,6.07,0,0,1-.41-.9l-.2-.42a1.71,1.71,0,0,1-.13-.23c0-.07,0-.15,0-.22-.1-.28-.23-.55-.32-.83,0-.12-.06-.15.08-.19a1.34,1.34,0,0,0,.27-.07,7.23,7.23,0,0,1,.84-.41c.35-.11.69-.23,1-.35.15,0,.31-.07.46-.11s.25-.1.39-.15.35-.17.53-.23l.53-.13c.35-.1.65-.27,1-.39a3,3,0,0,1,.48-.16,1.71,1.71,0,0,0,.47-.12c.07,0,.11-.13.17-.1s.08.25.1.31.09.23.12.35.06.34.11.5.14.3.19.46a3,3,0,0,0,.11.43c.07.17.11.33.18.5a5,5,0,0,1,.21.48,6.82,6.82,0,0,0,.4,1,2.1,2.1,0,0,1,.19.53,1.72,1.72,0,0,0,.11.5,7.93,7.93,0,0,1,.37,1c.09.35.21.7.33,1.05s.21.63.33.95c.24.65.39,1.34.66,2,.12.28.14.6.24.88a6.37,6.37,0,0,1,.29.94,1.67,1.67,0,0,0,.12.49,4,4,0,0,1,.14.46c.09.19.3.49.55.38s.1-.21.09-.34a3.39,3.39,0,0,1,0-.45,1.45,1.45,0,0,1,.06-.3,4.1,4.1,0,0,0,.06-.49,2.56,2.56,0,0,1,.1-.48,1.16,1.16,0,0,0,0-.18c0-.07,0-.08.08-.16a1.28,1.28,0,0,0,0-.39c0-.14,0-.28,0-.42s0-.3.05-.46a3.15,3.15,0,0,1,.09-.42,5.14,5.14,0,0,0,.16-.78,2.63,2.63,0,0,1,.13-.84.91.91,0,0,0,.08-.13s0-.05,0-.06,0-.09,0-.13,0-.22.06-.34a5.22,5.22,0,0,0,0-1,1.15,1.15,0,0,1,.12-.4,1,1,0,0,0,.09-.3s.06.06.11,0-.13-.17-.15-.3a3.56,3.56,0,0,0-.1-.47.59.59,0,0,1,0-.37c0-.13.09-.25.11-.38s0-.31,0-.47,0-.28.05-.43a1.07,1.07,0,0,1,.1-.4,1.17,1.17,0,0,0,.15-.39,3.29,3.29,0,0,0,0-.77,1.53,1.53,0,0,1,.07-.7,3.12,3.12,0,0,0,.15-.43c0-.13,0-.26,0-.39a3.73,3.73,0,0,0,.11-.64,3.51,3.51,0,0,1,.12-.79,1.7,1.7,0,0,0,0-.45c0-.2,0-.32.19-.42a5.45,5.45,0,0,1,.55-.25c.49-.19,1-.36,1.49-.51a8.27,8.27,0,0,0,.84-.28c.27-.11.56-.16.83-.27a7,7,0,0,0,.75-.31,2.76,2.76,0,0,1,.39-.18c.14-.05.29-.05.43-.11s.46-.28.72-.37a4.69,4.69,0,0,1,.81-.24c.43-.07,0,1.07,0,1.19-.13.54-.31,1.1-.4,1.66,0,.27,0,.57-.05.84a3,3,0,0,1,0,.43l-.06.49c-.05.33-.16.64-.2,1s-.1.69-.14,1c-.09.69-.2,1.37-.32,2-.06.35-.07.71-.12,1.06,0,.18-.07.36-.09.55a1.9,1.9,0,0,1-.11.39,6.12,6.12,0,0,0-.09,1c0,.35-.07.71-.1,1.06a1.22,1.22,0,0,1-.08.47c-.08.14-.18,0-.26.07S153.81,98.39,153.83,98.47Z"/><path class="cls-1" d="M148,95.14a1.57,1.57,0,0,1,.3.2s.07,0,.1,0S148.14,95.14,148,95.14Z"/><path class="cls-1" d="M150.19,100.27c-.09.1.1.13.17.14S150.28,100.16,150.19,100.27Z"/><path class="cls-1" d="M163.64,119.14a4.82,4.82,0,0,0,.27.5,2.11,2.11,0,0,0,.43.36,2.38,2.38,0,0,1,.41.43c.12.14.2.32.33.45s.12.09.18.15a1.14,1.14,0,0,0,.15.16c.18.1.22,0,.17-.15a1.12,1.12,0,0,0-.08-.26c-.06-.08-.15-.14-.2-.22s-.1-.3-.2-.36-.18,0-.27,0-.23-.27-.3-.41-.21-.32-.3-.48a3.27,3.27,0,0,0-.32-.5c-.11-.12-.21-.24-.31-.37s-.11-.11-.16-.17a.08.08,0,0,1-.08,0,.08.08,0,0,0,0-.07c-.32-.11,0,.26,0,.37S163.53,119,163.64,119.14Z"/><path class="cls-1" d="M162.52,117.17a.69.69,0,0,0-.11-.28s-.1,0-.17,0-.18-.32-.4-.23c0,.16.17.37.29.48S162.53,117.42,162.52,117.17Z"/><path class="cls-1" d="M148.69,98.33c-.13,0,.07.19.1.22S148.76,98.3,148.69,98.33Z"/><path class="cls-1" d="M149.87,100.48s.19.2.19.06.06-.16,0-.21-.19-.06-.24-.11A.4.4,0,0,0,149.87,100.48Z"/><path class="cls-1" d="M163.47,121.7c.11-.07,0-.29,0-.38a3.36,3.36,0,0,1-.14-.45c0-.14,0-.28-.06-.42s-.17-.33-.24-.18a1.15,1.15,0,0,0,.09.44,1.54,1.54,0,0,1,.08.19s0,.1,0,.16.06.1.08.16a1.81,1.81,0,0,1,0,.23C163.27,121.53,163.37,121.76,163.47,121.7Z"/><path class="cls-1" d="M151.6,105.43c0,.07,0,.2.07.25s.15,0,.13-.11,0-.28-.12-.27S151.61,105.38,151.6,105.43Z"/><path class="cls-1" d="M160,116.86s.09.07.12.07a1.54,1.54,0,0,0,.3,0c.17,0,.28-.09.29-.27a.38.38,0,0,0-.22-.36c0,.12.23.58,0,.58s-.12-.33-.27-.36-.08.12-.1.2-.13.12-.2,0-.11-.56-.29-.55a3.2,3.2,0,0,1,.07.41.46.46,0,0,0,.11.27C159.83,116.89,159.86,116.83,160,116.86Z"/><path class="cls-1" d="M159.67,119.87c.06.11,0,.24.13.32a.91.91,0,0,1,0-.23c0-.11,0-.3-.11-.36s-.17,0-.19.06S159.62,119.79,159.67,119.87Z"/><path class="cls-1" d="M161.12,116.58c.19,0-.07-.18,0-.3s.08.11.17.11c.06-.15-.07-.2-.14-.3s-.06-.25-.22-.28a1.66,1.66,0,0,0-.11.49.21.21,0,0,0,.12.21S161.08,116.6,161.12,116.58Z"/><path class="cls-1" d="M156.72,110.83a1.31,1.31,0,0,1,0-.28c0-.06.1-.16,0-.18s-.09.2-.22.16a.53.53,0,0,1,0,.13C156.4,110.89,156.7,111.12,156.72,110.83Z"/><path class="cls-1" d="M156.59,111.76c.12-.15,0-.39-.15-.47s-.09.08-.08.15S156.43,112,156.59,111.76Z"/><path class="cls-1" d="M159.05,115.41c0-.08,0-.31-.06-.39a.6.6,0,0,0-.22-.4.3.3,0,0,1-.23.16,1.39,1.39,0,0,1,.3.43C158.87,115.28,159,115.55,159.05,115.41Z"/><path class="cls-1" d="M149.87,94.68c0-.09,0-.09-.09-.17a1.14,1.14,0,0,1-.1-.19c0-.09,0-.22-.16-.23a2.73,2.73,0,0,0,.1.41C149.68,94.68,149.77,94.57,149.87,94.68Z"/><path class="cls-1" d="M161.81,119c.08.16.13.35.21.52s.19,0,.17-.16-.06-.39-.07-.6a1.64,1.64,0,0,0-.07-.54,1,1,0,0,0-.4-.3s-.11-.09-.14-.09-.07.08-.11.14.09.34.14.45S161.71,118.79,161.81,119Z"/><path class="cls-1" d="M160.41,115.52c0-.1-.25-.49-.28-.23a.93.93,0,0,0,.24.81A3.86,3.86,0,0,0,160.41,115.52Z"/><path class="cls-1" d="M117.69,106.75a.53.53,0,0,0,.06-.27.41.41,0,0,0-.42.16.56.56,0,0,0,.09.17C117.52,106.8,117.6,106.74,117.69,106.75Z"/><path class="cls-1" d="M120.52,114.53s-.1,0-.14,0a.31.31,0,0,0-.13,0,.17.17,0,0,0-.08.15c.11.08.17.08.31,0S120.53,114.57,120.52,114.53Z"/><path class="cls-1" d="M118.65,110.11c-.07,0-.16,0-.22.06s0,.08.27.1a.12.12,0,0,0,.13-.08C118.76,110.18,118.68,110.21,118.65,110.11Z"/><path class="cls-1" d="M118.19,109.4l0,0a1.93,1.93,0,0,1-.06-.41s-.05,0-.05,0,0,.24,0,.36S118.14,109.41,118.19,109.4Z"/><path class="cls-1" d="M119.51,112.3a.26.26,0,0,0,0-.12c-.28.1-.28.1-.39.22s0,.1.12.07A.49.49,0,0,0,119.51,112.3Z"/><path class="cls-1" d="M121.9,118.88h-.09c-.07,0-.14,0-.11.13s0,0-.07.06a.74.74,0,0,0,.38-.14C121.94,119,121.91,118.92,121.9,118.88Z"/><path class="cls-1" d="M121.93,119.49a.12.12,0,0,0-.05.17s.06,0,.08,0,.11,0,.14,0a.68.68,0,0,1,.12-.12C122,119.44,122,119.44,121.93,119.49Z"/><path class="cls-1" d="M122.71,101.58s0,.07.07.06a1,1,0,0,1,.24,0h0s-.13,0-.17,0A.1.1,0,0,0,122.71,101.58Z"/><path class="cls-1" d="M123.78,123.79c0-.07,0-.07,0-.11s-.18-.14-.19-.27l0,0s0-.06,0-.07a.25.25,0,0,0-.12,0c-.09,0-.09,0-.17,0s0,.12-.07.14l0,.11.29,0A.35.35,0,0,1,123.78,123.79Z"/><path class="cls-1" d="M126.59,124a.2.2,0,0,1,.12-.06s0,0,0,0l-.46.18C126.4,124.11,126.51,124.14,126.59,124Z"/><path class="cls-1" d="M128.07,128.07c0-.1,0-.1-.16-.1s0,0,0,0-.29,0-.38.14a1,1,0,0,1,0,.11l.2-.08a.2.2,0,0,1,.21,0,.11.11,0,0,0,.09,0,.27.27,0,0,0,.23-.11C128.17,128,128.12,128.1,128.07,128.07Z"/><path class="cls-1" d="M127.66,129.76l.28,0a.14.14,0,0,0,.08-.12C127.91,129.57,127.89,129.58,127.66,129.76Z"/><path class="cls-1" d="M126.79,126.32a.62.62,0,0,0-.26-.09c-.09,0-.17,0-.19-.14s0,0,0,0-.17-.07-.27,0,0,0,0-.06,0,0,.07,0-.17,0-.23-.1a.77.77,0,0,1-.17.05c-.13,0-.2.11-.31.14s0,0,0,0a.2.2,0,0,0,.15.23l.25,0a.19.19,0,0,1,.19,0,.23.23,0,0,0,.29,0s.07,0,.11,0a.07.07,0,0,1,0,.08s-.06,0-.07,0,0,.12,0,.19a.57.57,0,0,0,.46,0A.16.16,0,0,0,126.79,126.32Z"/><path class="cls-1" d="M120.43,112.84c.18,0,.23,0,.31-.12s-.08-.11-.18-.1a.27.27,0,0,0-.18.1A.31.31,0,0,0,120.43,112.84Z"/><path class="cls-1" d="M118.9,108.57c-.06,0-.09-.1-.16-.1s-.2,0-.3,0-.06,0-.08,0-.08,0-.11,0a1.13,1.13,0,0,1-.15.21.28.28,0,0,0,.12.2.18.18,0,0,0,.1,0,1.11,1.11,0,0,1,.3-.17.18.18,0,0,1,.23.09,0,0,0,0,0,.06,0C118.94,108.72,118.82,108.65,118.9,108.57Z"/><path class="cls-1" d="M121.75,116a1.3,1.3,0,0,0,.18-.15.24.24,0,0,1,.23-.12s0-.06,0-.06h-.19a.08.08,0,0,1-.08,0c-.08-.08-.17,0-.26,0a.13.13,0,0,0-.11.14.14.14,0,0,1,0,.06.22.22,0,0,1,.14,0S121.67,116,121.75,116Z"/><path class="cls-1" d="M124.41,125.27a.49.49,0,0,0-.2,0c-.13.06-.15.12-.1.26s.22,0,.32,0,.11-.09.1-.16S124.49,125.28,124.41,125.27Z"/><path class="cls-1" d="M124.1,124.83s0-.07-.08-.08-.12,0-.13-.1.07,0,.06-.11-.07,0-.18.22a.16.16,0,0,0,0,.15.43.43,0,0,0,.25,0A.1.1,0,0,0,124.1,124.83Z"/><path class="cls-1" d="M127.25,126.62a.09.09,0,0,0,0-.1.27.27,0,0,0-.24-.08.27.27,0,0,0-.06.17.07.07,0,0,0,0,.07A.21.21,0,0,0,127.25,126.62Z"/><path class="cls-1" d="M125,120s0-.12,0-.19a.7.7,0,0,0-.28.12.25.25,0,0,1-.14.06.28.28,0,0,0-.17,0,.12.12,0,0,1,.1,0c.08.09.18.08.28.09s.21-.09.34-.08,0,0,.06,0S125,120,125,120Z"/><path class="cls-1" d="M128.55,128.53s.07,0,.07,0,.06-.13,0-.19-.15.08-.18.16S128.52,128.49,128.55,128.53Z"/><path class="cls-1" d="M122.07,108.87s-.07,0-.11,0-.1,0-.13.09A.61.61,0,0,0,122.07,108.87Z"/><path class="cls-1" d="M125.58,121.6s.08-.06,0-.1-.07-.08-.14-.07S125.52,121.57,125.58,121.6Z"/><path class="cls-1" d="M121.85,111.4s0-.09-.1-.11l-.18.07c.11,0,.2.1.31.07s.18-.12.29-.12l0,0v0s0,0-.06,0a.16.16,0,0,1-.19,0C121.88,111.27,121.89,111.35,121.85,111.4Z"/><path class="cls-1" d="M121,101.72a1.32,1.32,0,0,0-.44.23C120.77,102,120.92,101.91,121,101.72Z"/><path class="cls-1" d="M120.21,100.32s0-.07,0-.1,0-.1-.09-.17c-.16.14-.16.14-.18.25s.08,0,.12.08Z"/><path class="cls-1" d="M121.36,103.33a.07.07,0,0,0-.1,0c0,.06,0,.12,0,.2l.31,0A.31.31,0,0,1,121.36,103.33Z"/><path class="cls-1" d="M125.53,122.66a.27.27,0,0,0,0,.11s0-.07,0-.09l.13,0s.09,0,.13,0C125.67,122.62,125.62,122.61,125.53,122.66Z"/><path class="cls-1" d="M121.67,113.1l.12,0a.18.18,0,0,1,.13-.11.17.17,0,0,0,.09-.11.51.51,0,0,1,.09-.16C121.89,112.68,121.73,112.79,121.67,113.1Z"/><path class="cls-1" d="M125.17,122.47a.14.14,0,0,0,.06.12c.07,0,.15,0,.21,0C125.35,122.52,125.29,122.39,125.17,122.47Z"/><path class="cls-1" d="M118.38,104.23a.21.21,0,0,1,.32,0s0,0,0,0l.12,0s0-.08.07-.1.2-.08.25-.31c-.1,0-.14,0-.17.09a.22.22,0,0,1-.29.14c-.09,0-.18,0-.26,0l-.17.08a.14.14,0,0,0-.07.08l0,.1a.17.17,0,0,0,.1,0S118.35,104.26,118.38,104.23Z"/><path class="cls-1" d="M120.18,109.23s0,.08.06.09a.71.71,0,0,0,.49-.11l-.14-.11a.71.71,0,0,1-.26.16S120.24,109.2,120.18,109.23Z"/><path class="cls-1" d="M119.83,106.9a.17.17,0,0,0,0-.18.25.25,0,0,0-.17,0c-.06,0-.13,0-.15.08.15,0,.15,0,.24.12S119.8,107,119.83,106.9Z"/><path class="cls-1" d="M118.77,106.17s.09,0,.11-.06a.38.38,0,0,0,0-.1c-.19,0-.13-.15-.15-.26a.25.25,0,0,0-.17.26s0,0,0,.06S118.74,106.09,118.77,106.17Z"/><path class="cls-1" d="M124.5,118.48a.42.42,0,0,0-.12,0,5.19,5.19,0,0,0-.68.3c-.11.06-.12,0-.1.19a4.31,4.31,0,0,0,.49-.22,2.61,2.61,0,0,0,.5-.2C124.59,118.51,124.56,118.49,124.5,118.48Z"/><path class="cls-1" d="M123.94,120.52v0c.26,0,.26,0,.34-.06a.1.1,0,0,0-.14,0Z"/><path class="cls-1" d="M135.14,118.08a.37.37,0,0,0-.1.21l.13.12.2-.08c0-.11-.07-.16-.1-.23S135.2,118,135.14,118.08Z"/><path class="cls-1" d="M139.82,127.68a2.07,2.07,0,0,1-.25.15C139.67,127.87,139.73,127.84,139.82,127.68Z"/><path class="cls-1" d="M134.26,114.14c0,.12.11.12.17.17s.11,0,.18,0-.07-.17-.1-.25S134.31,114,134.26,114.14Z"/><path class="cls-1" d="M138.88,123s.06,0,.1,0a1.6,1.6,0,0,0,0-.21.39.39,0,0,0-.32-.32.25.25,0,0,0-.32.13c-.14,0-.14,0-.32.21.07,0,.12-.06.18,0a.14.14,0,0,0,.11,0,.2.2,0,0,1,.18,0s.05,0,.09,0A.39.39,0,0,1,138.88,123Z"/><path class="cls-1" d="M139.14,124.57a.32.32,0,0,1,.25,0c0-.09.1-.16,0-.26a.63.63,0,0,0-.27.14S139.14,124.54,139.14,124.57Z"/><path class="cls-1" d="M134.59,117a.38.38,0,0,1-.15,0,.39.39,0,0,0-.37.15c0,.08,0,.08.11.12s.06,0,.07,0a.13.13,0,0,1,.2,0,.07.07,0,0,0,.1,0c-.08-.1-.06-.14.11-.2C134.64,117,134.61,117,134.59,117Z"/><path class="cls-1" d="M133.47,112.53a1,1,0,0,1-.28.11s0,.08,0,.1a.26.26,0,0,0,.2-.06.21.21,0,0,1,.23,0c.08.15,0,.28-.06.42s.06,0,.08,0a.27.27,0,0,0,.09-.22,1.47,1.47,0,0,1,0-.29C133.67,112.56,133.57,112.49,133.47,112.53Z"/><path class="cls-1" d="M136.81,124.76a.06.06,0,0,0,0,.07c.1,0,.27,0,.29.17.08,0,.17.08.23,0a.94.94,0,0,0-.12-.22A.26.26,0,0,0,136.81,124.76Z"/><path class="cls-1" d="M140.21,126.05c-.05,0-.09,0-.13,0s.08.05.08.12-.1.13-.17.13-.11.07-.16.14a.32.32,0,0,0,.14,0c.06,0,.11-.07.17-.07a.36.36,0,0,0,.29-.2c0-.05,0-.1,0-.15A.11.11,0,0,1,140.21,126.05Z"/><path class="cls-1" d="M153.29,87.52c0-.07,0-.16,0-.24a.75.75,0,0,0-.06-.33c-.05-.07-.17-.06-.26,0s-.06.11-.12.16.18.27.24.36S153.32,87.76,153.29,87.52Z"/><path class="cls-1" d="M153.34,88.3a.52.52,0,0,0,.13.43c.08.1.2.29.34.3a4.9,4.9,0,0,0,0-.77c0-.14-.09-.34-.25-.32S153.35,88.18,153.34,88.3Z"/><path class="cls-1" d="M133.63,104.11s.09.06.14,0a.32.32,0,0,0-.11-.25C133.61,104,133.64,104,133.63,104.11Z"/><path class="cls-1" d="M139.48,123.39c.09.08.13.08.17,0S139.56,123.31,139.48,123.39Z"/><path class="cls-1" d="M129.48,104.28c.05,0,0,.07.06.1a.15.15,0,0,0,.16,0c.05,0,.13,0,.15-.07s-.08,0-.11-.06-.12-.07-.19-.06l-.36.08s-.05,0-.05,0a.42.42,0,0,0,.21,0A.15.15,0,0,1,129.48,104.28Z"/><path class="cls-1" d="M136.08,112.76c.07.06.14,0,.24,0s0-.09,0-.13A.2.2,0,0,0,136.08,112.76Z"/><path class="cls-1" d="M133.49,103.49h0a.09.09,0,0,0,0,.1l.12.07C133.55,103.54,133.55,103.54,133.49,103.49Z"/><path class="cls-1" d="M133.38,103.12c.05-.07,0-.11,0-.17s-.08,0-.07.1S133.32,103.13,133.38,103.12Z"/><path class="cls-1" d="M135.71,127.06c-.09.13-.17.26,0,.43a.47.47,0,0,1,.17,0,.17.17,0,0,0,.06-.11.62.62,0,0,1-.11-.17S135.79,127.1,135.71,127.06Z"/><path class="cls-1" d="M139.69,124.55a.06.06,0,0,0,.06,0,.11.11,0,0,0,0-.08s-.05,0-.09,0S139.63,124.55,139.69,124.55Z"/><path class="cls-1" d="M120.56,101.45h0a.14.14,0,0,0,0-.2.26.26,0,0,0-.32-.15c0-.07-.13-.1-.13-.19s.16-.08.22-.15a.06.06,0,0,0-.08,0,.94.94,0,0,0-.31.17.12.12,0,0,0,0,.11.48.48,0,0,1-.14.34s0,.07,0,.1a.58.58,0,0,0-.14.24.26.26,0,0,0,.21,0,2.41,2.41,0,0,1,.33-.15A.4.4,0,0,1,120.56,101.45Z"/><path class="cls-1" d="M132.35,106.5c.09,0,.15-.08.13-.18s.07,0,.08,0,.1,0,.14.09,0,.05,0,.07,0,0,0,.08a.29.29,0,0,1-.13.08.76.76,0,0,0-.18.09c-.08.06,0,.15-.09.23s.15.09.23,0-.12,0-.15-.12,0-.07.06-.07a.94.94,0,0,0,.24-.06,1.1,1.1,0,0,0,.36-.07c.13-.06.13-.06.25,0s.13,0,.13-.11a.13.13,0,0,0-.15,0c-.05,0-.1,0-.13,0s-.18-.07-.21-.18,0,0,0,0-.1-.07-.12-.13-.17,0-.25,0-.17.07-.24.12a1.67,1.67,0,0,1-.23.12c-.08,0-.06.15-.18.17A1.36,1.36,0,0,0,132.35,106.5Z"/><path class="cls-1" d="M133.84,120.78a5.22,5.22,0,0,1-.25-.59c-.06-.14-.1-.28-.17-.42a1.61,1.61,0,0,1-.19-.49,1.52,1.52,0,0,0-.06-.2,1.28,1.28,0,0,1-.17-.46.7.7,0,0,0-.08-.2,1.89,1.89,0,0,1-.2-.43c-.05-.16-.13-.32-.19-.49a.29.29,0,0,1,0-.1.26.26,0,0,0-.05-.17l-.21-.35a1.22,1.22,0,0,1-.1-.24,1.58,1.58,0,0,0-.11-.37,1.5,1.5,0,0,0-.17-.46,1.33,1.33,0,0,0-.12-.37c-.05-.12-.09-.25-.14-.37s-.08-.25-.11-.37a2.18,2.18,0,0,0-.09-.23,1.78,1.78,0,0,1-.17-.4,1.88,1.88,0,0,0-.16-.56.07.07,0,0,1,0-.05,1.65,1.65,0,0,0-.1-.5c0-.12-.09-.24-.12-.37a1.82,1.82,0,0,0-.13-.37,1.63,1.63,0,0,1-.11-.31.45.45,0,0,0-.08-.22.57.57,0,0,1-.11-.27,2.26,2.26,0,0,0-.11-.37c-.12-.24-.25-.48-.35-.74a.78.78,0,0,0-.12-.22.46.46,0,0,1-.11-.26,2.5,2.5,0,0,0-.11-.39,2.14,2.14,0,0,0-.18-.54.19.19,0,0,1,0-.08.9.9,0,0,0-.07-.27c0-.08-.07-.17-.11-.25a2.91,2.91,0,0,0-.21-.48.39.39,0,0,1-.06-.19.1.1,0,0,0,0-.07c-.11-.11-.09-.27-.14-.42a.18.18,0,0,1-.1-.16s0,0,0,0a.33.33,0,0,1-.1-.23.15.15,0,0,0,0-.07,3.36,3.36,0,0,1-.22-.42.71.71,0,0,0-.06-.22,5.52,5.52,0,0,1-.26-.55.53.53,0,0,1-.08-.17,2.77,2.77,0,0,0-.1-.26c-.07-.24-.24-.43-.31-.68a1.31,1.31,0,0,0-.26-.44.61.61,0,0,1-.17-.34.29.29,0,0,0,0-.1c-.1-.2-.29-.3-.43-.46h0a2.21,2.21,0,0,1-.35-.16.6.6,0,0,1-.3-.17s0,0,0,0a.42.42,0,0,1-.27-.06s0,0,0,0-.15,0-.23,0a.93.93,0,0,1-.29,0,1.48,1.48,0,0,0-.63.07c-.22.07-.44.14-.67.19a1,1,0,0,0-.38.15,2.85,2.85,0,0,1-.45.25.78.78,0,0,0-.22.12c-.1.09-.2.16-.29.25a.27.27,0,0,1-.19.08.06.06,0,0,0-.08,0s.08,0,.07.1,0,.18-.07.26a.29.29,0,0,0,0,.14.15.15,0,0,1,0,.09,1.4,1.4,0,0,0-.09.29,1.31,1.31,0,0,0,0,.34s0,0,0,0a.34.34,0,0,0,0,.24.27.27,0,0,1-.08.23.54.54,0,0,1,0,.22.42.42,0,0,0,0,.22.33.33,0,0,1,0,.22.23.23,0,0,0,0,.27.31.31,0,0,1,.09.18,3.68,3.68,0,0,1,.18.59.23.23,0,0,0,.06.12s0,0,0,.06a4,4,0,0,1,.21.58c.07.28.17.56.24.84a.34.34,0,0,0,.06.15,3.44,3.44,0,0,1,.28.66c0,.11.07.23.11.34a6.78,6.78,0,0,1,.23.68c0,.09.07.18.09.27a1.65,1.65,0,0,0,.07.32,3.19,3.19,0,0,1,.11.33,3.1,3.1,0,0,0,.21.58.08.08,0,0,1,0,.05,2.38,2.38,0,0,0,.15.45l.06.19c0,.14.06.28.1.42s0,.14,0,.2c.09.06.1.1.07.16s.1,0,.14.11a1.51,1.51,0,0,0,.22.44,1,1,0,0,1,.19.39,1,1,0,0,0,.14.37,1.27,1.27,0,0,1,.13.32c0,.11.05.22.08.33a1.44,1.44,0,0,1,0,.62,1.21,1.21,0,0,0,0,.14c.08,0,.14.06.13.15s0,0,0,0a.81.81,0,0,1,.07.22c0,.09,0,.2.08.28a1.74,1.74,0,0,1,.16.34,1.6,1.6,0,0,1,.1.23,1.9,1.9,0,0,0,.2.61,1.39,1.39,0,0,1,.17.44.86.86,0,0,1,0,.17,3.88,3.88,0,0,0,.14.45c0,.11,0,.23.07.34a1.38,1.38,0,0,0,.19.43,1,1,0,0,1,.17.41,2.17,2.17,0,0,0,.07.35c.1.22.19.45.3.67a2.45,2.45,0,0,1,.08.29,4.87,4.87,0,0,0,.21.53.58.58,0,0,1,0,.14.48.48,0,0,0,.07.23,1.84,1.84,0,0,1,.16.41.81.81,0,0,0,.1.21,1.51,1.51,0,0,0,.13.29c.12.2.2.43.3.64s.21.63.35.94.19.55.29.83c0,.06,0,.13,0,.18a.26.26,0,0,1,.07.16.88.88,0,0,0,0,.15c.07.15.15.3.21.45a.22.22,0,0,0,.1.13c.13.08.22.21.35.29a.79.79,0,0,1,.18.22,1.19,1.19,0,0,0,.38.36,1,1,0,0,1,.26.25s.1,0,.13.06,0,0,.07,0a.79.79,0,0,1,.37.2c.1.06.19.16.33.16a1.67,1.67,0,0,1,.54.07.51.51,0,0,0,.21,0,3,3,0,0,0,.73-.1.53.53,0,0,0,.19-.06,5.3,5.3,0,0,1,.57-.33,1.44,1.44,0,0,0,.25-.18,1.92,1.92,0,0,1,.42-.28c.13-.07.27-.1.34-.25s0,0,0,0a1.36,1.36,0,0,0,.27-.36.92.92,0,0,1,.17-.22.9.9,0,0,0,.15-.18.15.15,0,0,1-.11-.17.4.4,0,0,1,.06-.26s0-.07,0-.11.07-.06.06-.11a0,0,0,0,0,0,0s0-.06,0-.1a.15.15,0,0,0,0-.1c0-.17,0-.33,0-.51a.93.93,0,0,0-.09-.4,5.11,5.11,0,0,1-.22-.66c-.07-.21-.16-.41-.21-.62s-.11-.2-.11-.31a.31.31,0,0,0-.05-.12,1.86,1.86,0,0,1-.1-.31,1.18,1.18,0,0,0-.12-.36,1.42,1.42,0,0,1-.1-.29.9.9,0,0,0-.08-.23.18.18,0,0,1,0-.1.53.53,0,0,0,0-.18,1.21,1.21,0,0,1-.08-.25,1,1,0,0,0-.1-.35.54.54,0,0,1-.09-.24A.33.33,0,0,0,133.84,120.78Z"/><path class="cls-1" d="M135.67,132.53h0s0,0,0,0,.12.08.19.1l0,0s0,0,0,0a.09.09,0,0,0,0-.09c-.06,0-.08-.08-.12-.11S135.75,132.47,135.67,132.53Z"/><path class="cls-1" d="M124.32,114.53h-.15a.07.07,0,0,0-.06,0c0,.08-.1.08-.17.09a.21.21,0,0,0-.16.07.91.91,0,0,1-.17.17,0,0,0,0,0,0,.06c.21,0,.23,0,.25.09a.2.2,0,0,1-.13.06l0,0c-.08,0-.15,0-.16.06s-.1.2-.19.28,0,0,0,.06.14.06.23,0a.41.41,0,0,1,.11-.12c.07,0,.11,0,.18,0s0,.09,0,.13,0,0-.06.06a.51.51,0,0,1,0,.3l.19,0c.06.08.09.09.15.05a.09.09,0,0,0,0-.14s0-.06,0-.09l-.1,0s-.06.06-.1.06-.06-.16.07-.18a.31.31,0,0,0,.1,0c.14-.08.24-.12.33,0s-.15,0-.2.13.07.07.12.1.1-.08.16-.08,0,.13.07.18a.16.16,0,0,0,0-.15s0-.09,0-.1.06-.16.09-.25-.09-.06-.09-.13.06-.05.06-.11a.26.26,0,0,1-.06-.3s0,0,0-.06a.23.23,0,0,0,0-.21C124.41,114.49,124.37,114.53,124.32,114.53Zm-.19.76s-.06,0-.1,0-.06.08-.11,0,0-.08,0-.15.06,0,.1,0,0-.1.13-.08S124.16,115.24,124.13,115.29Z"/><path class="cls-1" d="M124.24,116l.05.06s.14,0,.14,0,0-.11,0-.17a.19.19,0,0,0-.19,0A.08.08,0,0,0,124.24,116Z"/><path class="cls-1" d="M133.5,114.92a.52.52,0,0,0,.1.11,2,2,0,0,0,.26-.11.22.22,0,0,0-.06-.14A.49.49,0,0,0,133.5,114.92Z"/><path class="cls-1" d="M133.46,113.13c-.08,0-.16.06-.24,0s0,0-.05,0a.19.19,0,0,0-.09.12A1.29,1.29,0,0,0,133.46,113.13Z"/><path class="cls-1" d="M132.76,106.94c.14,0,.26,0,.39,0a0,0,0,0,0,0,0,0,0,0,0,0,0,0,.41.41,0,0,1-.22,0A.15.15,0,0,0,132.76,106.94Z"/><path class="cls-1" d="M132.56,110.14a.12.12,0,0,0,0,.18,1,1,0,0,1,.14.32.34.34,0,0,0,.09.18c0-.14.06-.24.06-.35a.51.51,0,0,1,0-.3.08.08,0,0,0,0-.08s-.08-.09-.16-.07S132.61,110.11,132.56,110.14Z"/><path class="cls-1" d="M137.21,121.26c0,.11.14.06.21.06s.07-.06.06-.13A.33.33,0,0,0,137.21,121.26Z"/><path class="cls-1" d="M130.72,104.2l0,0-.43.17C130.42,104.31,130.61,104.38,130.72,104.2Z"/></g></g></svg>