<svg xmlns="http://www.w3.org/2000/svg" viewBox="0 0 238.72 236.87"><defs><style>.cls-1{fill:#00a886;}</style></defs><title>link-blog</title><g id="Layer_2" data-name="Layer 2"><g id="Layer_1-2" data-name="Layer 1"><path class="cls-1" d="M123.34,123.56c0-.07.07-.1.08-.18a.7.7,0,0,0-.29-.08.19.19,0,0,1-.14,0,.51.51,0,0,0-.17-.07.14.14,0,0,1,.05.09.39.39,0,0,0,.16.25c.09.1.23.08.31.16a.06.06,0,0,0,.08,0C123.42,123.63,123.36,123.61,123.34,123.56Z"/><path class="cls-1" d="M122.9,121.94a9.59,9.59,0,0,1,1,.33.1.1,0,0,0,0-.14.24.24,0,0,0-.11-.06,5.94,5.94,0,0,0-.72-.21C123,121.84,123,121.82,122.9,121.94Z"/><path class="cls-1" d="M122.76,125.24s.09,0,.1,0,0-.1-.07-.14S122.73,125.17,122.76,125.24Z"/><path class="cls-1" d="M125.25,116.13a.61.61,0,0,0,.07.1.2.2,0,0,1,.17,0,.17.17,0,0,0,.14,0,.51.51,0,0,1,.17-.07C125.68,116,125.5,115.93,125.25,116.13Z"/><path class="cls-1" d="M126.6,112.17s0,.08,0,.11a.71.71,0,0,0,.46.24l0-.17a.62.62,0,0,1-.3-.06S126.67,112.19,126.6,112.17Z"/><path class="cls-1" d="M127.85,110.15a.15.15,0,0,0,.08-.16.2.2,0,0,0-.11-.13s-.1-.08-.17,0c.11.1.11.1.11.25S127.79,110.17,127.85,110.15Z"/><path class="cls-1" d="M120.63,129.67a.61.61,0,0,0-.15-.24c-.06-.07-.1-.14,0-.23s0,0,0-.06-.09-.16-.2-.19a.06.06,0,0,1,0-.07s0,0,.08,0-.12-.12-.11-.22a.48.48,0,0,1-.16-.08c-.1-.09-.23,0-.34-.09h0c-.08,0-.11.22,0,.27a1.27,1.27,0,0,0,.22.13.2.2,0,0,1,.13.15.23.23,0,0,0,.26.14c.06,0,.08,0,.09.07s0,0-.07,0,0,0-.07,0-.12.06-.16.13a.55.55,0,0,0,.38.28A.16.16,0,0,0,120.63,129.67Z"/><path class="cls-1" d="M119.07,132.89l.25.14c.05,0,.09,0,.14,0S119.36,132.9,119.07,132.89Z"/><path class="cls-1" d="M122.17,123.36c.19.18.19.18.3.18s0-.11-.08-.14l-.21-.06Z"/><path class="cls-1" d="M120.48,131.85c0-.1,0-.1-.06-.18s0,0,0,0-.22-.18-.38-.13l-.06.09.21.07a.18.18,0,0,1,.14.15.18.18,0,0,0,.06.09.3.3,0,0,0,.24.06C120.62,131.85,120.5,131.91,120.48,131.85Z"/><path class="cls-1" d="M120.79,130.2a.11.11,0,0,0,0-.09.26.26,0,0,0-.14-.22.29.29,0,0,0-.15.09s0,0,0,.07A.21.21,0,0,0,120.79,130.2Z"/><path class="cls-1" d="M121.88,125.64a.16.16,0,0,0,0,.14c.07,0,.12.09.2.09S122,125.66,121.88,125.64Z"/><path class="cls-1" d="M122,126a.27.27,0,0,0,0,.12s0,0,.09,0l.08.1h0s.06.07.12.07C122.16,126.08,122.12,126,122,126Z"/><path class="cls-1" d="M121.3,121.24a.12.12,0,0,0-.15.1.18.18,0,0,1,0,.07c0,.07.06.1.13.07a.47.47,0,0,1,.17,0C121.42,121.27,121.41,121.26,121.3,121.24Z"/><path class="cls-1" d="M134.76,123.51c0,.17-.2.2-.32.29,0,0,0,0,.07,0a.28.28,0,0,0,.21-.1,1.5,1.5,0,0,1,.24-.2c-.1,0-.12-.16-.22-.19a2,2,0,0,1-.29-.1s0,.06-.09.06a.27.27,0,0,0,.19.08A.24.24,0,0,1,134.76,123.51Z"/><path class="cls-1" d="M135.58,120.91a.12.12,0,0,0-.15.11.83.83,0,0,1-.1.34.4.4,0,0,0,0,.2c.09-.1.2-.15.27-.24a.63.63,0,0,1,.21-.22,0,0,0,0,0,0-.06c0-.07,0-.13-.07-.16S135.63,120.92,135.58,120.91Z"/><path class="cls-1" d="M134.34,123.8c-.07,0-.17-.06-.19-.16a0,0,0,0,0,0,0,.24.24,0,0,0-.15,0A1.26,1.26,0,0,0,134.34,123.8Z"/><path class="cls-1" d="M137,114.38s0,.08,0,.11a.14.14,0,0,0,.13.1c.06,0,.09.1.16,0s-.05-.07,0-.12-.06-.13-.12-.17l-.32-.17a.08.08,0,0,0-.08,0,.46.46,0,0,0,.18.12A.23.23,0,0,1,137,114.38Z"/><path class="cls-1" d="M134.32,125.35c0,.06.09.07.16.08s.06-.17.08-.25-.15-.12-.26-.08S134.31,125.27,134.32,125.35Z"/><path class="cls-1" d="M119.47,127.32a.44.44,0,0,0-.18-.09c-.14,0-.21,0-.25.13s.2.1.28.17.14,0,.18-.06S119.52,127.37,119.47,127.32Z"/><path class="cls-1" d="M138,115.12v0l-.44-.15C137.71,115,137.81,115.19,138,115.12Z"/><path class="cls-1" d="M119.94,125.76c.08,0,.08,0,.09-.07s0-.23,0-.33,0,0,0,0,0-.06,0-.08a.19.19,0,0,0-.11-.07c-.08,0-.08,0-.11-.14a.18.18,0,0,1-.15.07l0,.11.21.21A.34.34,0,0,1,119.94,125.76Z"/><path class="cls-1" d="M121.43,120.72s-.06,0-.1,0a.83.83,0,0,0,.39.14.1.1,0,0,1,0-.12l-.07,0C121.54,120.67,121.48,120.63,121.43,120.72Z"/><path class="cls-1" d="M119.52,126.78s0-.08,0-.12-.07-.1,0-.16.09,0,.12,0-.07,0-.29.06a.14.14,0,0,0-.1.11.59.59,0,0,0,.17.18A.12.12,0,0,0,119.52,126.78Z"/><path class="cls-1" d="M122,127.77a.21.21,0,0,1,.13,0s0,0,.07,0l-.48-.16C121.76,127.7,121.82,127.81,122,127.77Z"/><path class="cls-1" d="M123.1,116.35c0,.13.07.17.23.2a.07.07,0,0,0,.09-.06c0-.06-.06-.07-.09-.11a.25.25,0,0,0-.08-.1A.16.16,0,0,0,123.1,116.35Z"/><path class="cls-1" d="M124.85,111.87c-.09,0-.11-.13-.21-.1s0,.1.15.25a.11.11,0,0,0,.15,0C124.89,112,124.81,112,124.85,111.87Z"/><path class="cls-1" d="M131.65,106.21a.4.4,0,0,1,.29.2l0,0a.14.14,0,0,0,.15-.13A.26.26,0,0,0,132,106c0-.08,0-.16,0-.23s.18,0,.27,0,0-.06,0-.08a1,1,0,0,0-.34-.07.14.14,0,0,0-.12.06.46.46,0,0,1-.33.16q0,.09-.06.09a.45.45,0,0,0-.26.09.26.26,0,0,0,.2.1A2.25,2.25,0,0,1,131.65,106.21Z"/><path class="cls-1" d="M124.46,115.13a.24.24,0,0,0,.32.11c-.06,0,0-.14-.08-.19a.26.26,0,0,0-.21,0A.35.35,0,0,0,124.46,115.13Z"/><path class="cls-1" d="M125.7,110.39a.07.07,0,0,0-.1,0l-.25.07c-.07.07,0,.15,0,.23l.1,0a1.21,1.21,0,0,1,.34.07c.11.05.14.09.12.21s0,0,0,.06,0-.16.13-.17,0-.14-.05-.18-.12-.17-.24-.2S125.71,110.43,125.7,110.39Z"/><path class="cls-1" d="M126.49,114.94s0-.1,0-.15l-.19-.07c.06.11.09.21.2.25s.21,0,.31.1,0,0,.06,0,0,0,0,0,0,0,0-.07a.18.18,0,0,1-.17-.1C126.6,114.85,126.55,114.93,126.49,114.94Z"/><path class="cls-1" d="M127.5,108.9s.08,0,.13,0l.05-.08c-.15-.12,0-.21,0-.3a.25.25,0,0,0-.3.09.09.09,0,0,0,0,.07C127.44,108.77,127.53,108.81,127.5,108.9Z"/><path class="cls-1" d="M128.45,107.14a.23.23,0,0,1,.28.17s0,0,0,0a.39.39,0,0,0,.08.1s.07,0,.12,0,.2.06.39-.09a.17.17,0,0,0-.2,0,.22.22,0,0,1-.31-.07c-.06-.07-.11-.16-.21-.16a.58.58,0,0,1-.18,0,.14.14,0,0,0-.11,0l-.11,0s.05,0,.09.06A.22.22,0,0,0,128.45,107.14Z"/><path class="cls-1" d="M126.29,108.64a.5.5,0,0,0,.22-.16.41.41,0,0,0-.42-.15.29.29,0,0,0,0,.18C126.12,108.57,126.22,108.57,126.29,108.64Z"/><path class="cls-1" d="M123.34,118.1a.1.1,0,0,1,0,0,.21.21,0,0,1,.09.1c0,.06,0,.13.05.19a.89.89,0,0,0,.23,0,.23.23,0,0,1,.26,0s0,0,0-.07l-.15-.11s-.06,0-.06,0-.11-.13-.19-.18A.13.13,0,0,0,123.34,118.1Z"/><path class="cls-1" d="M105.36,133a2.24,2.24,0,0,0,.39.14C105.64,133,105.48,133.07,105.36,133Z"/><path class="cls-1" d="M104.86,131a1.84,1.84,0,0,0-.28-.09C104.69,131,104.75,131,104.86,131Z"/><path class="cls-1" d="M107,131.84a3,3,0,0,0-.47-.18l-.6-.08s-.07,0-.1,0a3.27,3.27,0,0,0,1.09.41Z"/><path class="cls-1" d="M123.76,114.06a.63.63,0,0,0,.33.06.23.23,0,0,0,.07-.1c-.28-.11-.28-.11-.45-.09C123.69,114,123.69,114,123.76,114.06Z"/><path class="cls-1" d="M120.55,132.52s.06,0,.07,0,.12-.05.11-.15c-.16,0-.16,0-.24,0S120.56,132.46,120.55,132.52Z"/><path class="cls-1" d="M104.21,130.65a.38.38,0,0,0,.42.13A2,2,0,0,1,104.21,130.65Z"/><path class="cls-1" d="M125,111h0a1.65,1.65,0,0,1,.22-.36s0,0,0,0l-.23.29S124.91,111,125,111Z"/><path class="cls-1" d="M134.47,105.16a.11.11,0,0,1,.14,0,.16.16,0,0,0,.2-.05.3.3,0,0,0-.44.08s-.07,0-.09.06S134.42,105.25,134.47,105.16Z"/><path class="cls-1" d="M133.52,107.9s0,.08,0,.1.12.11.19.14h0c0-.07-.1-.09-.11-.14S133.58,107.9,133.52,107.9Z"/><path class="cls-1" d="M133.36,107.29c.07.1.16.09.26.07s.11-.07.16-.12a.18.18,0,0,1,.15-.07h.27a.13.13,0,0,0,.13-.06c0-.08-.06-.11-.13-.14a2.14,2.14,0,0,0-.43-.07.28.28,0,0,0,0,.2c-.17,0-.33,0-.49.09C133.27,107.26,133.34,107.26,133.36,107.29Z"/><path class="cls-1" d="M125.66,119.05a.19.19,0,0,1-.13,0s0,0,0-.06-.1-.12-.16-.06a.48.48,0,0,1-.32.09s-.06,0-.08,0,.08.13.21.11a.29.29,0,0,1,.16,0c.07,0,.1,0,.11.14s0,.08-.09.11,0,0-.07,0a.52.52,0,0,1-.21.23l.17.11c0,.1,0,.13.08.14a.09.09,0,0,0,.1-.1s0,0,0-.1-.07,0-.1,0-.08,0-.11,0,0-.15.16-.09l.12,0c.16,0,.26.06.26.2s-.15-.06-.23,0,0,.1,0,.16.12,0,.16,0-.07.11-.06.18a.15.15,0,0,0,.1-.11s0-.09.07-.09.15-.07.22-.13,0-.1,0-.16.08,0,.12,0a.26.26,0,0,1,.15-.27.1.1,0,0,0,.05,0,.19.19,0,0,0,.1-.19s-.1,0-.14-.07l-.12-.1a.06.06,0,0,0-.06,0c-.08,0-.13,0-.19,0a.21.21,0,0,0-.17,0,1,1,0,0,1-.24,0s0,0,0,0C125.71,118.94,125.72,119,125.66,119.05Zm0,.25s.11,0,.16,0-.06.08-.12.11,0-.06-.07-.08-.09,0-.11,0,0-.09.1-.1S125.66,119.26,125.68,119.3Z"/><path class="cls-1" d="M125.35,120v.08c0,.07.09.12.13.07s.1-.06.13-.12a.19.19,0,0,0-.16-.11C125.39,119.94,125.35,120,125.35,120Z"/><path class="cls-1" d="M123.47,140.23h0s0,0,0,0,0,.14.08.2a.06.06,0,0,1,0,0l0,0a.13.13,0,0,0,.07-.06c0-.05,0-.11,0-.17S123.56,140.23,123.47,140.23Z"/><path class="cls-1" d="M127,136c-.15,0-.3.1-.31.31.06,0,.08.09.12.13a.14.14,0,0,0,.11-.05c0-.06,0-.13,0-.2S127.07,136.11,127,136Z"/><path class="cls-1" d="M129.82,139.17a1.71,1.71,0,0,1-.3,0C129.58,139.22,129.64,139.23,129.82,139.17Z"/><path class="cls-1" d="M128.3,113.12s-.07,0-.08-.08-.06-.08-.15,0A.52.52,0,0,0,128.3,113.12Z"/><path class="cls-1" d="M130.73,110.11a.4.4,0,0,0-.18.16.26.26,0,0,1-.21.14.43.43,0,0,1-.14.16.51.51,0,0,0-.14.18.22.22,0,0,1-.14.16.25.25,0,0,0-.15.24.41.41,0,0,1,0,.19,3,3,0,0,1-.25.58.25.25,0,0,0,0,.13.25.25,0,0,1,0,.08,4.07,4.07,0,0,1-.22.58c-.12.26-.22.54-.36.8a.42.42,0,0,0,0,.16,2.92,2.92,0,0,1-.22.69c0,.11-.09.21-.13.33s-.15.46-.26.68-.06.18-.11.27a1.51,1.51,0,0,0-.15.28c0,.12-.09.22-.13.33a3,3,0,0,0-.21.59s0,0,0,0a2.14,2.14,0,0,0-.18.44,1.54,1.54,0,0,1-.08.19c0,.13-.13.25-.19.39s-.07.12-.15.13,0,.15,0,.17.07.08,0,.18a1.61,1.61,0,0,0-.12.48.88.88,0,0,1-.11.42,1.07,1.07,0,0,0-.13.38,1.28,1.28,0,0,1-.11.33l-.15.31a1.29,1.29,0,0,1-.39.48s0,.1,0,.15a.13.13,0,0,1,0,.2s0,0,0,.06a.58.58,0,0,1-.08.22c0,.09-.12.17-.12.27a1.48,1.48,0,0,1-.1.36,1.13,1.13,0,0,1-.08.24,2.48,2.48,0,0,0-.23.61,1.76,1.76,0,0,1-.15.44s-.06.11-.09.15-.11.3-.19.45a2.85,2.85,0,0,0-.16.3,1.22,1.22,0,0,0-.13.46.91.91,0,0,1-.14.42,2,2,0,0,0-.17.32c-.07.24-.15.47-.21.71a1.39,1.39,0,0,1-.12.28c-.06.18-.14.36-.18.54a.35.35,0,0,1-.06.14.92.92,0,0,0-.09.23,2.07,2.07,0,0,1-.14.42.86.86,0,0,0-.06.23c0,.1-.07.2-.09.3a6,6,0,0,1-.18.7c-.07.32-.25.62-.34.94s-.21.56-.31.84c0,.06-.08.1-.08.17a.34.34,0,0,1,0,.17.94.94,0,0,0-.06.15,4.27,4.27,0,0,1-.13.48.25.25,0,0,0,0,.17c0,.14,0,.3.09.45a.9.9,0,0,1,0,.28,1.35,1.35,0,0,0,.06.53.82.82,0,0,1,0,.35s.08.07.06.14,0,.05,0,.07.12.26.16.39a.63.63,0,0,0,.16.34,1.42,1.42,0,0,1,.36.41,1.14,1.14,0,0,0,.15.16,2.75,2.75,0,0,0,.63.39.64.64,0,0,0,.19.08,4.9,4.9,0,0,1,.65.11,1.63,1.63,0,0,0,.31,0,2.21,2.21,0,0,1,.51.05c.14,0,.27.1.42,0h0a1.28,1.28,0,0,0,.43-.1,1,1,0,0,1,.28-.06.64.64,0,0,0,.23-.05.15.15,0,0,1,0-.2.41.41,0,0,1,.21-.16s.06,0,.08-.08.09,0,.11,0l0,0s0-.05.07-.06.06,0,.09-.07.18-.28.3-.41a.89.89,0,0,0,.18-.38c.07-.22.18-.43.26-.65s.15-.42.24-.62.05-.22.12-.31a.36.36,0,0,0,0-.11,1.52,1.52,0,0,1,.12-.32,1.19,1.19,0,0,0,.15-.35,1.33,1.33,0,0,1,.1-.28.7.7,0,0,0,.09-.24.18.18,0,0,1,0-.1.89.89,0,0,0,.08-.17.93.93,0,0,1,.1-.25,1,1,0,0,0,.14-.33.54.54,0,0,1,.09-.25.25.25,0,0,0,.06-.13,3.94,3.94,0,0,1,.19-.61c0-.15.11-.29.14-.44a1.74,1.74,0,0,1,.17-.5,1,1,0,0,0,.08-.2,1.33,1.33,0,0,1,.17-.47.68.68,0,0,0,.07-.2,1.83,1.83,0,0,1,.12-.46,4.2,4.2,0,0,0,.17-.5.19.19,0,0,1,.05-.1.35.35,0,0,0,.06-.16c0-.14.05-.28.07-.42a1,1,0,0,1,.08-.24,1.61,1.61,0,0,0,.15-.36,1.35,1.35,0,0,0,.17-.46,1,1,0,0,0,.14-.37c.05-.12.1-.25.14-.37s.1-.25.16-.37a.94.94,0,0,0,.07-.22,2,2,0,0,1,.13-.43,1.81,1.81,0,0,0,.24-.53s0,0,0,0a1.55,1.55,0,0,0,.24-.46c.06-.11.09-.23.15-.35a2.13,2.13,0,0,0,.14-.38,1.57,1.57,0,0,1,.12-.3.63.63,0,0,0,.08-.23.55.55,0,0,1,.09-.28,1.76,1.76,0,0,0,.15-.35,7.23,7.23,0,0,1,.21-.8.8.8,0,0,0,.05-.26.44.44,0,0,1,.09-.27,2.32,2.32,0,0,0,.16-.36,1.78,1.78,0,0,0,.21-.54l0-.07a1.15,1.15,0,0,0,.12-.25c0-.09.06-.18.08-.27a2.88,2.88,0,0,0,.15-.5.27.27,0,0,1,.08-.19.14.14,0,0,0,0-.06c0-.17.1-.28.17-.42a.21.21,0,0,1,0-.2.08.08,0,0,0,0,0,.29.29,0,0,1,.08-.23s0-.05,0-.08a2.63,2.63,0,0,1,.1-.47.78.78,0,0,0,.09-.21c0-.2.12-.39.15-.59a1,1,0,0,1,0-.18,2.77,2.77,0,0,0,.1-.26c.1-.24.09-.5.2-.73a1.47,1.47,0,0,0,.08-.51.55.55,0,0,1,.1-.37.35.35,0,0,0,0-.11,2.22,2.22,0,0,0,0-.63s0,0,0,0a1.89,1.89,0,0,1-.17-.35.54.54,0,0,1-.11-.32,0,0,0,0,0,0,0,.38.38,0,0,1-.16-.22l0,0a1.18,1.18,0,0,0-.18-.13.84.84,0,0,1-.24-.18,1.5,1.5,0,0,0-.53-.34,6.27,6.27,0,0,1-.64-.3,1.17,1.17,0,0,0-.4-.13,3.06,3.06,0,0,1-.51-.1.51.51,0,0,0-.25,0H132a.26.26,0,0,1-.2-.07.09.09,0,0,0-.09,0s0,.09,0,.13-.11.15-.23.15a.18.18,0,0,0-.12.08s0,0-.08.06a1.4,1.4,0,0,0-.26.16,1.48,1.48,0,0,0-.25.25Z"/><path class="cls-1" d="M132.4,105.3c.06,0,0,0,.07-.06s.08-.07,0-.19c-.22,0-.22,0-.3.07s0,.09,0,.13A.37.37,0,0,0,132.4,105.3Z"/><path class="cls-1" d="M132.08,106.88a1.65,1.65,0,0,0-.48-.1C131.76,107,131.92,107,132.08,106.88Z"/><path class="cls-1" d="M131.34,108.38a.07.07,0,0,0-.06-.08c-.07,0-.08.1-.1.18l.26.17A.34.34,0,0,1,131.34,108.38Z"/><path class="cls-1" d="M140.31,116.94c0,.06,0,.1.11.1a.38.38,0,0,0,.08-.26C140.4,116.81,140.37,116.89,140.31,116.94Z"/><path class="cls-1" d="M156,115.33a.39.39,0,0,0,.17.06.54.54,0,0,0,.09-.12c.11-.12.17-.28.28-.39v0a2.76,2.76,0,0,1,.18-.39c0-.06.06-.11.08-.17s0-.17-.08-.17-.14,0-.17.06-.16.15-.21.23-.17.27-.26.4a.56.56,0,0,0-.09.31C156,115.19,156,115.26,156,115.33Z"/><path class="cls-1" d="M154.19,114.28c0,.1-.07.18-.09.28a.93.93,0,0,1-.13.31.39.39,0,0,0,0,.3c0-.09.11-.15.15-.23s.16-.4.26-.59,0-.12,0-.18.09-.09.11-.15a.61.61,0,0,0,0-.4c0-.05,0-.07-.11-.07s-.07.16-.08.24S154.21,114.11,154.19,114.28Z"/><path class="cls-1" d="M161.31,123.52s0,.07,0,.08,0,.13,0,.2,0,.07,0,.11,0,0,0,0a1.06,1.06,0,0,0,.13-.55c.05-.13.06-.27.12-.4s0,0-.06,0a.37.37,0,0,0-.12.24A1,1,0,0,1,161.31,123.52Z"/><path class="cls-1" d="M160.12,123.1c.06,0,.09,0,.12-.06s0,0,0-.07.09-.29.16-.43a.15.15,0,0,0,0-.17.34.34,0,0,0-.27.13.64.64,0,0,0-.09.5A.1.1,0,0,0,160.12,123.1Z"/><path class="cls-1" d="M142.59,146.29a.45.45,0,0,1,.16,0,.16.16,0,0,0,.12,0c-.07-.09,0-.16,0-.26-.14,0-.25-.05-.36,0-.06-.15-.15-.19-.28-.14s0,0,0,.06A.25.25,0,0,0,142.59,146.29Z"/><path class="cls-1" d="M160.52,117.17l.09-.31a.14.14,0,0,0,0-.14c0,.17-.14.32-.1.51A.06.06,0,0,0,160.52,117.17Z"/><path class="cls-1" d="M158.89,116.38a.91.91,0,0,0,.1-.29.46.46,0,0,0-.21.32C158.84,116.44,158.87,116.43,158.89,116.38Z"/><path class="cls-1" d="M144.4,131.64l.13.08c.07,0,.11,0,.13-.05s0-.11,0-.18S144.42,131.48,144.4,131.64Z"/><path class="cls-1" d="M143,134.59a.49.49,0,0,0,0,.15.24.24,0,0,0,.13-.11.05.05,0,0,0,0-.08S143.05,134.56,143,134.59Z"/><path class="cls-1" d="M141.34,144.53c0-.06,0-.12,0-.19a1.16,1.16,0,0,1,.12-.44.14.14,0,0,0,0-.11c0-.11,0-.21,0-.34-.13.16-.11.35-.18.5a2.46,2.46,0,0,1-.2.47C141.2,144.63,141.2,144.63,141.34,144.53Z"/><path class="cls-1" d="M145.19,129.05c0,.1-.1.12-.18.09s-.12-.07-.09-.17a.22.22,0,0,0,0-.18c-.09,0-.09,0-.13.06a.23.23,0,0,0,0,.29.12.12,0,0,0,.15.09l.08,0a.09.09,0,0,1,.11.08,1.62,1.62,0,0,1,0,.22.39.39,0,0,0,.17.38,1.47,1.47,0,0,1,.22-.41.54.54,0,0,0,.1-.2c0-.13.08-.27,0-.4a.61.61,0,0,0-.27.08A.2.2,0,0,0,145.19,129.05Z"/><path class="cls-1" d="M146.38,124.54c-.09,0-.09.07,0,.17C146.45,124.65,146.42,124.59,146.38,124.54Z"/><path class="cls-1" d="M150.54,116.46s0,0,.05,0,0-.28,0-.45a.77.77,0,0,0-.08.41Z"/><path class="cls-1" d="M150.18,119.13a.08.08,0,0,0,.09,0,.47.47,0,0,0,.07-.12.64.64,0,0,0,.1-.24.09.09,0,0,0-.05-.12s-.11,0-.13,0l-.1.14a.83.83,0,0,0-.06.21S150.12,119.13,150.18,119.13Z"/><path class="cls-1" d="M117.54,87.66c.53.21,1.07.43,1.55.65a9.89,9.89,0,0,0-1.35-.63C117.54,87.61,117.47,87.6,117.54,87.66Z"/><path class="cls-1" d="M82.1,74.4a2.8,2.8,0,0,1-.53-.27l-1.43-.53c.12.11.11.18.36.33.06,0,.12.07.11.09s.11.19.9.49l1.68.65c.54.21,1.08.41,1.65.61a4.79,4.79,0,0,0-.67-.32,5.15,5.15,0,0,1-1.09-.54A5.06,5.06,0,0,0,82.1,74.4Z"/><path class="cls-1" d="M143.47,146.54c-.08,0-.15-.1-.14-.2a.07.07,0,0,0,0-.05l-.12-.09c0,.09-.06.21-.2.18h0C143.11,146.6,143.25,146.59,143.47,146.54Z"/><path class="cls-1" d="M105.77,83.31a9.77,9.77,0,0,0-1.13-.44c-.47-.16-1-.33-1.41-.47a5.42,5.42,0,0,1-.7-.27,10.35,10.35,0,0,0-1.69-.64L99.31,81a17,17,0,0,1-2.54-1l-.25-.13c-.18,0-.42-.16-.66-.21s-.17,0,0,.17c.91.35,1.85.66,2.74,1,.7.21,1.4.49,2.1.73a7.19,7.19,0,0,1,1,.42c.58.17,1.18.39,1.74.6s1,.35,1.42.53c.82.3,1.65.57,2.46.92a3.7,3.7,0,0,0,1.08.32c-.62-.24-1.13-.47-1.74-.69C106.34,83.53,106,83.4,105.77,83.31Z"/><path class="cls-1" d="M134.35,93.6c.74.19.74.15,0-.17C134.11,93.4,134,93.42,134.35,93.6Z"/><path class="cls-1" d="M26.16,49.69c.68.27,1.38.52,2.07.78,1.43.54,2.88,1.09,4.33,1.58.76.3,1.55.53,2.31.84l.22.08c1.08.34,2.15.78,3.21,1.17s1.94.7,2.91,1.08c1.21.48,2.46.92,3.71,1.37,1.57.57,3.14,1.16,4.73,1.73l1.1.42c.67.26,1.32.48,2,.72.83.29,1.66.58,2.48.9.19.08.33.12.5.18.89.32,1.77.66,2.66,1l2.59.92c1.33.46,2.64,1,4,1.45l.13.06c.78.2,1.61.57,2.42.85,1.06.36,2.12.74,3.18,1.15.26.1.54.19.81.28,1.05.36,2.09.74,3.13,1.14.51.2,1,.38,1.57.58,1.33.51,2.68,1,4,1.5,1.07.37,2.14.77,3.21,1.14l1.11.4c1.5.54,3,1.1,4.46,1.66.3.11.61.23.9.32,1.15.38,2.31.81,3.45,1.22l3.52,1.28c.77.29,1.55.57,2.3.87.29.11.53.17.81.27.87.33,1.76.63,2.62,1l.38.14c.88.28,1.74.61,2.61.94.36.14.74.28,1.11.39s.69.25,1,.37c1,.37,2,.68,3.06,1.1l.68.24c1.51.54,3,1.11,4.5,1.66l.44.16c.43.14.83.29,1.26.46s.67.23,1,.35c.63.22,1.25.46,1.87.69,1.15.45,2.33.87,3.48,1.32.58.23,1.19.43,1.78.64l1.3.43c.74.24,1.49.53,2.23.82,1.32.51,2.64,1,4,1.51s2.62.95,3.9,1.37c.27.09.48.19.73.28,1.1.4,2.19.8,3.27,1.21s1.95.72,2.92,1.07l5,1.79c.75.28,1.5.58,2.25.83l1.8.63c.31.11.6.22.87.34s.47.19.73.28c1.1.41,2.22.81,3.31,1.23q1.35.51,2.7,1c1.14.4,2.27.84,3.42,1.22.7.23,1.45.51,2.16.8l1.45.56c1.24.47,2.48.9,3.72,1.35l.67.22c.34.11.7.24,1,.38s.62.25.93.37c.77.3,1.53.54,2.29.83,1,.37,2,.73,3,1.11l2,.76,4.45,1.68a5.56,5.56,0,0,0,1,.36c1.5.48,3,1,4.52,1.56.5.19,1,.33,1.49.52s1.25.44,1.87.65l2.79,1c.57.21,1.15.42,1.73.61l.37.13c1.12.43,2.25.8,3.37,1.21s2.21.81,3.32,1.2l3.86,1.39c.76.28,1.5.56,2.23.85l.29.11c1.26.41,2.49.92,3.74,1.35l.88.34c1.54.59,3.11,1.15,4.64,1.69,1.12.39,2.27.79,3.39,1.15s2.07.71,3.13,1.11,2.38.9,3.58,1.33c.69.24,1.35.5,2,.75l.81.31c.17.06.36.13.51.2a7.43,7.43,0,0,0,1,.41l.21.08a11.06,11.06,0,0,0,1.3.55,5.45,5.45,0,0,0,.53-2.59c-.11-1.33.35-2.72-.39-4-.17-.3.09-.49.09-.73,0-.9.77-1.77,0-2.65a1.44,1.44,0,0,0,.47-1.44c-.14-.62.44-1.35-.24-1.95,0,0,.15-.19.14-.29,0-.84.4-1.71,0-2.5a7.52,7.52,0,0,1-.41-2.92c0-.26.12-.53-.07-.75a3.25,3.25,0,0,1-.51-2.22c0-1.75-.22-3.48-.21-5.23a2.33,2.33,0,0,0-.22-.86,1.29,1.29,0,0,1-.2-.74,3.75,3.75,0,0,0-.38-1.83,1.49,1.49,0,0,1-.2-.74c.18-1.14-.54-2-1-2.94a1.75,1.75,0,0,1-.14-1.64c.46-1,.68-1.51-.44-2.44a1.82,1.82,0,0,1-.21-.29,3.6,3.6,0,0,0-.9-3c-.18-.24-.47-.52-.45-.75.08-.74-.4-1.25-.61-1.87-.06-.17-.22-.35-.14-.52.33-.65-.1-1-.46-1.46a1.75,1.75,0,0,1-.46-1.63,1.66,1.66,0,0,0-.23-1.28,22,22,0,0,1-1.11-2.42,57.37,57.37,0,0,0-2.43-5.64.81.81,0,0,1-.1-.54,1.66,1.66,0,0,0-.25-1.07,4.08,4.08,0,0,0-1.33-1.8c-.18-.45.26-.9-.18-1.23-.38-.13-.71.23-1.2.09a3.89,3.89,0,0,1-.95-.93,4.72,4.72,0,0,1,.15-.45c.41-.85,0-1.66-.11-2.49-.76-.47-.65-1.34-1-2a1.91,1.91,0,0,0-.77-1.05,2.84,2.84,0,0,1-1.37-2,4.21,4.21,0,0,0-1-1.71c-1-1.23-2.53-2.11-2.88-3.86,0-.09-.17-.16-.22-.26a14.71,14.71,0,0,0-2-2.5c-.46-.59-.64-1.31-1.11-1.89-1.28-1.6-2.63-3.13-3.9-4.73a15.33,15.33,0,0,0-2.09-2,10.12,10.12,0,0,1-1.07-1,6.06,6.06,0,0,0-1.74-1.68,1.49,1.49,0,0,1-.69-.71,4.81,4.81,0,0,0-1.47-1.67,5.64,5.64,0,0,1-.94-1,9.39,9.39,0,0,0-1.67-1.78,25.08,25.08,0,0,1-2.13-1.54A41.09,41.09,0,0,1,193.42,26a18.65,18.65,0,0,0-4.11-3.1,14.31,14.31,0,0,0-1.79-1.14c-1.59-.72-3-1.72-4.57-2.54A16.38,16.38,0,0,1,179,16.93a1.7,1.7,0,0,0-.62-.23,7.68,7.68,0,0,1-3-1.56,13.93,13.93,0,0,0-3.87-2.54,32.32,32.32,0,0,1-3.44-1.47,5.56,5.56,0,0,0-1.05-.64c-1.22-.46-2.37-1.08-3.55-1.6A11.32,11.32,0,0,0,161.9,8a34.41,34.41,0,0,1-4.42-1.52c-.94-.37-1.87-1-3-.57-.31.1-.56-.12-.83-.24a4,4,0,0,0-2.13-.61,2.54,2.54,0,0,1-1.49-.36c-.49-.24-1-.68-1.53-.62A6.52,6.52,0,0,1,146,3.76c-.7-.2-1.44,0-2.08-.18a10.37,10.37,0,0,0-2.73-.48,2.5,2.5,0,0,1-.54-.13,14.39,14.39,0,0,1-2.89-1.15,7.24,7.24,0,0,0-2.21-.49c-.78-.15-1.49-.71-2.34-.3-1.3-.49-2.77.08-4-.72-.32-.2-.81-.13-1.2-.24-.91-.24-1.76.19-2.64.22-.67,0-1.34-.17-2-.16a8,8,0,0,0-1.88.64,3.39,3.39,0,0,1-1.23.11,31.7,31.7,0,0,1-4.45-.39A12.66,12.66,0,0,0,112,.32c-.38,0-.71.32-1.07.25-1.64-.32-3.11.43-4.66.7a8.35,8.35,0,0,1-2,.26.79.79,0,0,0-.64.12,1.21,1.21,0,0,1-1.17.2,2.93,2.93,0,0,0-1.1.08c-1.35.19-2.67.52-4,.64a8.44,8.44,0,0,0-4.21,1.27,3.1,3.1,0,0,1-2.15.64,2.51,2.51,0,0,0-1.18.25c-1.19.37-2.27,1.2-3.64.89a.55.55,0,0,0-.4.14c-.58.58-1.37.52-2.07.72s-1.48.23-2.18.45a37,37,0,0,0-6,2.87c-1.81.92-7.07,1.4-7,2.11a.6.6,0,0,1-.83.64,1.47,1.47,0,0,0-1.16.26c-.69.34-1.39.68-2.06,1.08a21.58,21.58,0,0,0-2,1c-1.16.86-2.33,1.7-3.49,2.55a19.12,19.12,0,0,1-3.19,1.78,32.26,32.26,0,0,0-3.84,2.27c-1.13.75-2.28,1.5-3.43,2.23-1.83,1.16-3.38,2.71-5.12,4a14.09,14.09,0,0,0-2.17,1.73,20.88,20.88,0,0,1-4.62,4,6.25,6.25,0,0,0-2.17,1.87A30,30,0,0,1,30.52,40,41.64,41.64,0,0,0,27,44a6.73,6.73,0,0,1-.64,1,22.84,22.84,0,0,0-2.76,3.59Z"/><path class="cls-1" d="M121.08,88.86c.13,0,.34.09.35,0a6.26,6.26,0,0,0-1.52-.54C120.27,88.55,120.72,88.7,121.08,88.86Z"/><path class="cls-1" d="M145.19,147.49c.07-.05.16-.06.21-.13a.18.18,0,0,0,0-.2c0-.06-.09,0-.15,0l-.1,0a.15.15,0,0,1-.17,0c-.06,0-.05-.11,0-.17v0s0-.05,0-.07l0,0-.06.06C144.87,147.26,144.87,147.26,145.19,147.49Z"/><path class="cls-1" d="M152.9,143.58c0-.11,0-.25.11-.36a.28.28,0,0,0-.23.31A.15.15,0,0,0,152.9,143.58Z"/><path class="cls-1" d="M144.16,147.4a2.84,2.84,0,0,0,.18-.51.34.34,0,0,0,0-.2.09.09,0,0,0-.14-.05l-.12.09c0,.07,0,.11-.06.16a.55.55,0,0,0-.08.15.77.77,0,0,1-.12.24C143.89,147.4,144,147.39,144.16,147.4Z"/><path class="cls-1" d="M25.56,53.85c.51.18.81.36,1.28.53.15,0,.16,0,0-.08A11.9,11.9,0,0,0,25.56,53.85Z"/><path class="cls-1" d="M152.8,147a.06.06,0,0,0,.07,0,1,1,0,0,0,.1-.18c0-.09.08-.18.12-.27a.84.84,0,0,0,.14-.32c-.08,0-.09,0-.12.08a1.19,1.19,0,0,1-.25.38.3.3,0,0,0-.1.27A.05.05,0,0,0,152.8,147Z"/><path class="cls-1" d="M158,136.25a.71.71,0,0,0,0,.2.58.58,0,0,1,0,.18.45.45,0,0,0,0,.11.25.25,0,0,1-.09.2.16.16,0,0,0,0,.07c0,.07-.07.15-.12.23s-.07.17-.11.26a.07.07,0,0,0,0,.09l0,0a2.92,2.92,0,0,0,.35-.68l0-.07a1.85,1.85,0,0,0,.13-.29.37.37,0,0,0,.05-.17,1.18,1.18,0,0,1,0-.27,1,1,0,0,1,.21-.42c.09-.12.09-.15,0-.24a.09.09,0,0,0-.06,0c-.05,0-.11,0-.13.08a.52.52,0,0,0-.11.3A1.18,1.18,0,0,1,158,136.25Z"/><path class="cls-1" d="M142.63,132.79a.24.24,0,0,0,.26-.18,1.35,1.35,0,0,1,.2-.44,4.09,4.09,0,0,1,.28-.33s0-.09-.05-.13a.12.12,0,0,0-.07.1,1,1,0,0,1-.26.34c-.09.08-.22.14-.24.28s-.05,0-.07.07,0,0-.05,0S142.56,132.7,142.63,132.79Z"/><path class="cls-1" d="M140.61,116.37s0,0,0,0a.11.11,0,0,0-.09.06,1.39,1.39,0,0,0,.06.13C140.63,116.45,140.63,116.45,140.61,116.37Z"/><path class="cls-1" d="M146,126.62a.31.31,0,0,0,.06-.28.07.07,0,0,0-.13,0,.54.54,0,0,0-.1.16.1.1,0,0,0,.06.14A.18.18,0,0,0,146,126.62Z"/><path class="cls-1" d="M132.42,128.71a.47.47,0,0,0-.21.11,1,1,0,0,1,0,.16.58.58,0,0,0,.21.07c.08-.07.05-.16.08-.24S132.5,128.71,132.42,128.71Z"/><path class="cls-1" d="M133.53,125.3a.53.53,0,0,0-.33-.09v.15a.9.9,0,0,0,.28.08A.26.26,0,0,0,133.53,125.3Z"/><path class="cls-1" d="M136.87,125.29a.22.22,0,0,0-.27-.08c0,.1.1.11.17.17S136.85,125.34,136.87,125.29Z"/><path class="cls-1" d="M129.38,135a.07.07,0,0,0,0,.06c.05.09.21.16.11.32.06.07.08.17.21.11a1.23,1.23,0,0,0,.05-.25A.26.26,0,0,0,129.38,135Z"/><path class="cls-1" d="M132.12,134.94q0,.08.09.06l.09-.2a.38.38,0,0,0,0-.45c-.11-.14-.16-.16-.32-.11s-.12-.07-.39-.05c.07,0,.13,0,.15.11a.2.2,0,0,0,.08.08.21.21,0,0,1,.11.16s0,.05.05.07A.4.4,0,0,1,132.12,134.94Z"/><path class="cls-1" d="M131.83,136.66a.19.19,0,0,0,0-.07.07.07,0,0,0-.06-.07c-.08.08-.09.11,0,.14S131.8,136.68,131.83,136.66Z"/><path class="cls-1" d="M132,132.51c0,.12.07.14.13.18s.09,0,.13-.05A.35.35,0,0,0,132,132.51Z"/><path class="cls-1" d="M131.17,138.16c0-.06-.06-.06-.11-.06s0,.08,0,.14a.28.28,0,0,1-.22,0c-.08,0-.13,0-.21,0a.31.31,0,0,0,.11.09c.06,0,.13,0,.18.05a.35.35,0,0,0,.34,0c.07,0,.09-.05.08-.13A.13.13,0,0,1,131.17,138.16Z"/><path class="cls-1" d="M132.49,135.73c0-.11,0-.11-.16-.09S132.38,135.77,132.49,135.73Z"/><path class="cls-1" d="M138.2,118.8s0,0,0,0a.34.34,0,0,1-.18-.13.17.17,0,0,0-.18-.05c.08.11.22.14.31.23S138.17,118.83,138.2,118.8Z"/><path class="cls-1" d="M131.31,136.33c.07,0,.14.09.16.19,0-.1.19-.06.19-.19a.72.72,0,0,0-.29-.06S131.33,136.31,131.31,136.33Z"/><path class="cls-1" d="M132.68,127.54a.25.25,0,0,1-.12-.08.35.35,0,0,0-.38-.12.15.15,0,0,0,0,.16s0,0,.08,0a.13.13,0,0,1,.16.12s0,0,.08,0,.05-.14.22-.08S132.7,127.55,132.68,127.54Z"/><path class="cls-1" d="M141.32,136.13c0,.1,0,.12.13.1a2.16,2.16,0,0,0,0-.36A.3.3,0,0,0,141.32,136.13Z"/><path class="cls-1" d="M141.86,135a.13.13,0,0,0-.11,0,3.84,3.84,0,0,1-.23.78.23.23,0,0,0,.11-.11.62.62,0,0,1,.1-.16,2.52,2.52,0,0,0,.21-.25C142.05,135.1,142,135,141.86,135Z"/><path class="cls-1" d="M147.17,122s0,0,0,0a.06.06,0,0,0,0,.09.08.08,0,0,0,.11,0c.05-.09.15-.12.19-.23a4.13,4.13,0,0,0,.15-.5.16.16,0,0,0,0-.17s-.05,0-.06,0a.59.59,0,0,0-.24.3C147.25,121.65,147.13,121.79,147.17,122Z"/><path class="cls-1" d="M149.82,115.88c.05,0,0-.11,0-.18s0,0,0-.09-.17.1-.16.27S149.79,115.91,149.82,115.88Z"/><path class="cls-1" d="M139.89,141.16c-.12,0-.1.11-.09.18s0,.18.11.2C140,141.35,140,141.29,139.89,141.16Z"/><path class="cls-1" d="M140.76,116c.09,0,.07-.09.09-.15s-.09,0-.11,0S140.71,116,140.76,116Z"/><path class="cls-1" d="M148.49,119.17s0,0,0,.07a.32.32,0,0,0-.11.3.08.08,0,0,1,0,.07c0,.07,0,.14,0,.21s0,.05,0,.06.12,0,.18-.06.1,0,.14,0a.64.64,0,0,1,.1-.18.16.16,0,0,0-.05-.1.15.15,0,0,1-.06-.16v-.09c0-.06,0-.09-.11-.09Z"/><path class="cls-1" d="M146.76,116.52s.06,0,.07,0a.12.12,0,0,1-.06.19,2.36,2.36,0,0,1,.07.44.08.08,0,0,0,0,0c.06,0,.08.14.13.19a.19.19,0,0,1,0,.16s0,.08,0,.12a.89.89,0,0,1,0,.23.41.41,0,0,1,.05.27s0,0,0,.06a.28.28,0,0,1,0,.18c.07,0,0,.11.08.15a.87.87,0,0,1,.06.45c0,.08.05.16,0,.24a.12.12,0,0,0,.13,0,1.34,1.34,0,0,0,.14-.38c0-.08,0-.16,0-.22s-.07-.14-.05-.23a.07.07,0,0,0,0-.06.37.37,0,0,1-.11-.28s0-.06,0-.07-.06-.09,0-.15,0,0,0-.06,0-.17,0-.26a1,1,0,0,1,.17-.18.74.74,0,0,0,.18-.29l-.12-.1s-.1-.13-.21-.08a.16.16,0,0,1-.13,0c0-.07,0-.08.09-.06s0,0,.05,0a.5.5,0,0,0,0-.12.38.38,0,0,1-.11-.11c.07-.08.06-.2.1-.29a2.39,2.39,0,0,0,.1-.52c0-.08,0-.13-.12-.13h-.11a.4.4,0,0,0,0,.21c0,.09-.08.1-.11.1s0,.2-.14.25S146.78,116.44,146.76,116.52Zm.48.6c-.06,0-.13,0-.17.09h0l0-.15C147.15,117,147.22,117,147.24,117.12Z"/><path class="cls-1" d="M148,116.78c.05,0,0,0,.09,0s0-.09.05-.14-.08-.07-.09-.12.06,0,.08-.08,0-.09-.06-.12-.05,0-.05,0,0,0,0,.07,0,0-.06,0S148,116.67,148,116.78Z"/><path class="cls-1" d="M106.23,133.39a1.14,1.14,0,0,0,.51.21.16.16,0,0,0-.13-.11A2.36,2.36,0,0,0,106.23,133.39Z"/><path class="cls-1" d="M137.78,118c.09,0,.17,0,.22-.06s.08,0,.08,0,0,.11,0,.16a.19.19,0,0,1,0,.08s0,0-.07,0a.32.32,0,0,1-.16,0,.58.58,0,0,0-.19,0c-.11,0-.14.09-.22.12s.06.16.16.17-.06-.12,0-.19a.06.06,0,0,1,.08,0c.07,0,.15.06.22.11a2.11,2.11,0,0,0,.33.18c.13,0,.14,0,.16.19s.12.07.17,0a.16.16,0,0,0-.08-.14s-.09,0-.09-.09-.09-.18,0-.28,0,0,0,0,0-.12,0-.18-.13-.11-.23-.12-.17-.06-.26-.07a1,1,0,0,1-.25,0c-.09,0-.15.08-.26,0A1.79,1.79,0,0,0,137.78,118Z"/><path class="cls-1" d="M148.08,117.44c.07,0,.09,0,.07-.1a.39.39,0,0,1,0-.26s0-.08-.08-.08a.28.28,0,0,1,0,.24A.24.24,0,0,0,148.08,117.44Z"/><path class="cls-1" d="M149,116.07a.07.07,0,0,0,0,.09s.06,0,.1,0a.23.23,0,0,0,0-.21.48.48,0,0,1,0-.29s0-.08,0-.11-.05,0-.06,0A1.21,1.21,0,0,1,149,116.07Z"/><path class="cls-1" d="M104.58,108.37s.07.13.15.16a.07.07,0,0,1,0,0c0-.07,0-.13,0-.19s-.09-.13-.19-.1a.07.07,0,0,0,0,.08s0-.07.07-.07a.12.12,0,0,1,0,.1l-.06,0A.06.06,0,0,0,104.58,108.37Z"/><path class="cls-1" d="M90.36,90.06a1.76,1.76,0,0,1,.23.14.11.11,0,0,1,.06.12.42.42,0,0,0,0,.26c.11-.22.22-.41.32-.61l0,0a.8.8,0,0,1-.23.18.15.15,0,0,1-.2,0,.25.25,0,0,1-.08-.32s-.06-.09-.13-.08l-.07.19C90.26,90,90.28,90,90.36,90.06Z"/><path class="cls-1" d="M88.73,120.14a.11.11,0,0,0,0,.14.06.06,0,0,0,.07,0,.11.11,0,0,0,0-.13A.27.27,0,0,0,88.73,120.14Z"/><path class="cls-1" d="M92.23,91.38c-.06-.08-.1-.1-.13-.07s0,.08,0,.11S92.18,91.42,92.23,91.38Z"/><path class="cls-1" d="M87.18,111.71c0-.12-.09-.19-.13-.28s0,0,0-.07a.64.64,0,0,0-.15-.25.58.58,0,0,1-.12-.25s0,0,0,0,0,0-.06,0,0-.08-.07-.1a2.09,2.09,0,0,1-.39-.27s-.06,0-.08,0l-.28-.09s-.11-.06-.16,0,0,0-.06,0a4.94,4.94,0,0,0-.52-.13c-.17-.06-.33-.15-.5-.2s0-.07-.08-.07-.06,0-.07,0a.07.07,0,0,0-.07,0c-.25-.07-.47-.21-.73-.28a.61.61,0,0,1-.17-.07.41.41,0,0,0-.22-.07.57.57,0,0,1-.26,0,1.44,1.44,0,0,0-.25-.08.25.25,0,0,1-.21-.23.11.11,0,0,0-.1-.11.12.12,0,0,0-.13.05,1,1,0,0,0-.14.22s0,.07-.05.1a.41.41,0,0,1-.21.26.56.56,0,0,0-.24.54.51.51,0,0,1-.08.32,2.17,2.17,0,0,0-.3.61,1.94,1.94,0,0,1,0,.2A3.06,3.06,0,0,0,81,112s0,0,0,.06a.77.77,0,0,0-.1.25c0,.14-.13.25-.17.39a3.55,3.55,0,0,1-.21.44c-.07.15-.13.3-.21.44s-.1.26-.16.39a.73.73,0,0,1-.09.23c-.06.07,0,.17-.09.25a2.23,2.23,0,0,0-.27.56.57.57,0,0,1-.08.23.39.39,0,0,0-.08.2,1.83,1.83,0,0,1-.11.33.21.21,0,0,0,0,.1c0,.13-.07.23-.1.35a2.27,2.27,0,0,1-.21.45,3,3,0,0,0-.19.53v0c0,.13,0,.22-.1.33l0,0a.26.26,0,0,0,0,.29l.13.18s0,0,0,0,.17.14.13.18,0,.09,0,.14a.87.87,0,0,1,.09.11,1.1,1.1,0,0,0,.35.33l.14,0a.16.16,0,0,0,.16,0,.2.2,0,0,1,.11,0,.57.57,0,0,0,.32,0l0,0a.31.31,0,0,0,.21,0,.58.58,0,0,1,.23,0,2.43,2.43,0,0,1,.52.17.24.24,0,0,0,.15,0,.13.13,0,0,1,.09,0c.07.07.15.06.24.08a.23.23,0,0,1,.11,0l.49.17a1.73,1.73,0,0,1,.54.23.09.09,0,0,0,.07,0l.37,0c.19,0,.38-.08.56,0h0c.16,0,.32,0,.49-.06a.16.16,0,0,0,.09.18,1.18,1.18,0,0,0,.4.21s0,0,.06,0a.13.13,0,0,0,.17.06c0-.06-.11-.08-.15-.14a.07.07,0,0,0-.07,0,.45.45,0,0,1-.42-.31.46.46,0,0,1,.26-.18.2.2,0,0,0,.12-.12.79.79,0,0,1,.14-.18,1.19,1.19,0,0,0,.29-.34s0,0,0,0a.15.15,0,0,0,.08-.12.22.22,0,0,1,.15-.16.21.21,0,0,0,.11-.1,2.19,2.19,0,0,1,.16-.3,1.58,1.58,0,0,1,.38-.51s0,0,0,0,.14-.13.13-.24.16-.22.11-.2a2.07,2.07,0,0,1,.12-1.24c-.08-.17,0-.29.07-.44s.2-.2.34-.28l-.09,0c-.09,0-.14-.06-.14-.16a.82.82,0,0,0,0-.22.15.15,0,0,0,.08-.16.51.51,0,0,1,0-.13,2.23,2.23,0,0,1,.16-.43,2.39,2.39,0,0,0,.12-.22.93.93,0,0,0,.12-.29s0-.08,0-.11.06-.11.06-.18a1.5,1.5,0,0,1,.07-.59c0-.08,0-.2-.09-.24a.52.52,0,0,1-.17-.19.52.52,0,0,0,0-.18.32.32,0,0,1,.06-.27C87.26,111.79,87.18,111.77,87.18,111.71Z"/><path class="cls-1" d="M94.86,93.33l0,0a5.39,5.39,0,0,0,.3-.52.23.23,0,0,0,0-.24.07.07,0,0,0-.09,0,.46.46,0,0,1-.11.16.3.3,0,0,0-.08.2.36.36,0,0,1-.06.2A.19.19,0,0,0,94.86,93.33Z"/><path class="cls-1" d="M85.74,120.51s0,0,0-.07-.2-.1-.32-.06A.25.25,0,0,0,85.74,120.51Z"/><path class="cls-1" d="M88.89,110.14c.19-.1.23-.32.4-.47a.16.16,0,0,0-.15.06,2,2,0,0,1-.27.32A.05.05,0,0,0,88.89,110.14Z"/><path class="cls-1" d="M84,102a.64.64,0,0,0,.37.26,1,1,0,0,1,.23.11,1.68,1.68,0,0,0,.42.22,4.37,4.37,0,0,1,.48.25.29.29,0,0,1,.12.1l.3,0a.85.85,0,0,1,.42.08c.1,0,.21,0,.29.07a3.52,3.52,0,0,0,.51.19,1,1,0,0,1,.28.13.93.93,0,0,0,.41.12,1.42,1.42,0,0,0,.29,0c.2,0,.39,0,.58,0s.34-.13.52-.11h0a.48.48,0,0,1,.26-.09.24.24,0,0,0,.13-.09.49.49,0,0,1,.14-.11.77.77,0,0,0,.3-.32,1.23,1.23,0,0,1,.12-.26,2.25,2.25,0,0,0,.24-.36c.13-.23.27-.45.39-.69a2.49,2.49,0,0,0,.11-.29,2.3,2.3,0,0,0,.14-.53l0-.06c0-.1.11-.18.15-.28s.17-.31.26-.46.1-.17.13-.26a1.9,1.9,0,0,0,.15-.42.31.31,0,0,1,.07-.24s0,0,0,0a1,1,0,0,1,.17-.5,1.5,1.5,0,0,0,.16-.52c0-.13,0-.27.09-.37s0-.05,0-.07,0-.19.09-.26a.73.73,0,0,0,.17-.26.51.51,0,0,0,0-.09s-.08-.1-.07-.13a.82.82,0,0,1-.06-.19c0-.07.09-.06.08-.12s-.08,0-.09,0,0-.12,0-.17a.21.21,0,0,1-.06-.28s0-.06,0-.09a.36.36,0,0,0-.1-.18,3.14,3.14,0,0,0-.18-.31,1.13,1.13,0,0,1-.12-.18c-.05-.08-.17-.13-.12-.26l-.1-.07a.37.37,0,0,1-.19-.18.3.3,0,0,0-.09-.13.26.26,0,0,1-.12-.27.19.19,0,0,1-.27.06,1.06,1.06,0,0,0-.54-.16H90.4a.49.49,0,0,0-.22-.1.6.6,0,0,1-.32-.22.12.12,0,0,0,0-.05c-.1,0-.18-.16-.32-.14h0a.26.26,0,0,0-.24-.06.43.43,0,0,1-.34-.13s0,0,0-.05.13-.07.16-.15-.09,0-.13.06a.36.36,0,0,1-.34.08.32.32,0,0,0-.19,0,.16.16,0,0,1-.13,0,.08.08,0,0,0-.08,0,.74.74,0,0,1-.21,0c-.15,0-.35-.08-.37,0s-.07.29-.11.43a.77.77,0,0,1-.1.18c-.08.11-.19.2-.17.36a.11.11,0,0,1,0,.07,3.05,3.05,0,0,0-.2.53.84.84,0,0,1-.08.2c-.06.13-.13.25-.18.39a.43.43,0,0,1,0,.16.69.69,0,0,0-.12.31.25.25,0,0,1,0,.09.44.44,0,0,0-.09.18l-.13.4a1.17,1.17,0,0,1,0,.11A.71.71,0,0,0,86,97c-.06,0,0,.12-.07.18s-.1.09-.13.15,0,.13-.07.2a1.72,1.72,0,0,0-.24.49.21.21,0,0,1-.07.11.37.37,0,0,0-.11.19,1.17,1.17,0,0,1-.19.51.21.21,0,0,0,0,.1c0,.05,0,.07,0,.11a.21.21,0,0,0,0,.13,1.13,1.13,0,0,1-.23.54.32.32,0,0,1-.08.29.64.64,0,0,0-.1.26.16.16,0,0,1,0,.12.29.29,0,0,0,0,.1.48.48,0,0,0,0,.29s0,.07,0,.1-.17.34-.23.53a.24.24,0,0,1-.12.17.13.13,0,0,0,0,.07.44.44,0,0,1-.1.22A.24.24,0,0,0,84,102Z"/><path class="cls-1" d="M107.74,130l.06-.08a.33.33,0,0,0-.28-.1.12.12,0,0,0,0,.1C107.56,130,107.66,130,107.74,130Z"/><path class="cls-1" d="M77.75,110.25a.07.07,0,0,0,.09.06s.07,0,.08-.07,0-.06,0-.1a.18.18,0,0,1,0-.16s0-.06,0-.09-.1.07-.1.12a.33.33,0,0,1-.08.19S77.75,110.24,77.75,110.25Z"/><path class="cls-1" d="M78.67,108c-.07,0-.09,0-.14,0h0a1.52,1.52,0,0,0-.21,0,.37.37,0,0,0,0,.11s0,0,0,0a.16.16,0,0,0,.21,0s.08,0,.09,0a.11.11,0,0,0,0,.08c.09,0,.1-.11.18-.1V108A.58.58,0,0,1,78.67,108Z"/><path class="cls-1" d="M90.17,90.72s-.07,0-.09,0a.3.3,0,0,0,.25.17c.06-.09.17-.08.26-.12a.24.24,0,0,0-.14,0A.32.32,0,0,1,90.17,90.72Z"/><path class="cls-1" d="M76.18,114.64a.12.12,0,0,0-.12,0c0,.13-.14.13-.22.22.12,0,.2.12.32.13A1,1,0,0,0,76.18,114.64Z"/><path class="cls-1" d="M88.88,112.36a.08.08,0,0,0-.1,0c0,.06-.07.1-.06.19C88.77,112.45,88.86,112.45,88.88,112.36Z"/><path class="cls-1" d="M84.69,123.61s.08.07.12.11,0,.06,0,.09.17.09.28,0,0,0,0,0,.08-.06.17,0a.49.49,0,0,0,.17,0,.24.24,0,0,0-.17-.09c-.08,0-.16-.08-.24-.07a.26.26,0,0,1-.23-.1.83.83,0,0,0-.21-.16S84.67,123.56,84.69,123.61Z"/><path class="cls-1" d="M89.23,117.59a.29.29,0,0,1-.22.23c0,.07,0,.14.07.15s.16,0,.23,0a.88.88,0,0,1,.21-.12s0,0,0-.07a.31.31,0,0,0-.19-.25C89.3,117.52,89.25,117.53,89.23,117.59Z"/><path class="cls-1" d="M93.61,105.23s.09,0,.12,0,.07-.1.12-.13a.2.2,0,0,0,.09-.22l-.22-.07C93.63,105,93.66,105.1,93.61,105.23Z"/><path class="cls-1" d="M88.5,119.72c.06,0,0,.16.1.19s.09-.19.22-.11V120a.28.28,0,0,0,0,.18c.12,0,.25-.09.31-.21a.79.79,0,0,1,.17-.19s.11-.08.12-.13a3.58,3.58,0,0,0,.11-.35.63.63,0,0,0-.22-.07s0,.09-.1.1-.06-.07-.11,0,0,.11,0,.16,0,.12,0,.17c-.18.13-.27.2-.39-.1C88.59,119.5,88.59,119.66,88.5,119.72Z"/><path class="cls-1" d="M90.86,116s0-.09,0-.1-.1.09-.1.17A.19.19,0,0,0,90.86,116Z"/><path class="cls-1" d="M90.86,114.46l-.06.11c.06,0,.09,0,.14,0S91,114.5,90.86,114.46Z"/><path class="cls-1" d="M94.36,103.35s-.08,0-.1,0-.14.16-.16.28a.21.21,0,0,0,.14,0C94.27,103.57,94.38,103.49,94.36,103.35Z"/><path class="cls-1" d="M86.93,120.26l.06,0a.26.26,0,0,0,.21,0c0-.07,0-.1-.08-.15a.31.31,0,0,1,0-.32.66.66,0,0,1,.28,0c0,.06-.07.1,0,.15s.17,0,.19-.1a.22.22,0,0,1,.22-.21.13.13,0,0,0,.1,0c-.08-.17-.15-.35-.38-.38-.06.06-.14.1-.17.18a.44.44,0,0,1-.15.18,1.53,1.53,0,0,0-.21.14.17.17,0,0,1-.17,0s0,0-.09,0,0,0,0,.07S86.73,120.22,86.93,120.26Z"/><path class="cls-1" d="M89.35,113.72c0,.08,0,.18.07.23l.14,0c.09,0,.13,0,.13.09s0,.12,0,.19a1.37,1.37,0,0,0,.24.07c.12-.11.24-.21.19-.4s-.19-.13-.3,0a1.16,1.16,0,0,1-.18,0c-.17-.06-.17-.06-.2-.23A.09.09,0,0,0,89.35,113.72Z"/><path class="cls-1" d="M91.05,108.27a.57.57,0,0,0,0,.41c0-.07.13-.05.19-.08s0-.08.08-.11a.4.4,0,0,0,.12-.39.59.59,0,0,1,0-.23c0-.09,0-.18,0-.25s-.06-.05-.07-.09.11,0,.09-.11-.15.09-.23.12A1.56,1.56,0,0,1,91.05,108.27Z"/><path class="cls-1" d="M79.94,105.81a.07.07,0,0,0,0-.06.58.58,0,0,1-.41,0C79.61,105.88,79.87,105.91,79.94,105.81Z"/><path class="cls-1" d="M91.2,111.58a.51.51,0,0,1,.07-.24,1.69,1.69,0,0,1,.17-.36s0,0,0-.07a2.26,2.26,0,0,1,.11-.37v0s0,0-.08,0a.08.08,0,0,1,0,.05.49.49,0,0,1-.16.38.1.1,0,0,0,0,.07c0,.05,0,.07,0,.1a.76.76,0,0,0-.1.47S91.16,111.6,91.2,111.58Z"/><path class="cls-1" d="M94,102.1s0,0,0,0l.06-.07s0-.08,0-.1S94,102,94,102.1Z"/><path class="cls-1" d="M94.68,100.06c0-.06.06-.11,0-.2-.06.07-.06.14-.11.18S94.64,100.09,94.68,100.06Z"/><path class="cls-1" d="M93.2,91.71a.22.22,0,0,0,.24-.16.11.11,0,0,0,0-.14s-.07,0-.11,0a.13.13,0,0,1-.19,0,.09.09,0,0,0-.1,0A.31.31,0,0,0,93.2,91.71Z"/><path class="cls-1" d="M82.47,92.21c-.11-.08-.24,0-.35-.11a.59.59,0,0,0,0,.34A.41.41,0,0,1,82.47,92.21Z"/><path class="cls-1" d="M78.25,105.79c-.1,0-.19-.09-.31-.05C78,105.89,78.15,105.91,78.25,105.79Z"/><path class="cls-1" d="M6.39,80.09a7.6,7.6,0,0,0-.68,1.59c-.08.56-.26,1.12-.32,1.68-.15,1.41-.47,2.78-.69,4.17,0,.32.06.72-.17,1a1.38,1.38,0,0,0-.18,1.69c-1.33,1.2-1.19,3-1.85,4.45.34.83-.14,1.57-.25,2.34S2.09,98.51,2,99.28c-.1,1.14-.44,2.25-.46,3.42a4.39,4.39,0,0,1-.72,2.2,3.6,3.6,0,0,0-.44,1l1.81.68c.95.36,1.9.73,2.84,1.11.68.27,1.38.51,2.07.78,1.43.54,2.88,1.08,4.33,1.57.76.31,1.55.54,2.31.85L14,111c1.08.34,2.15.77,3.21,1.16s1.94.71,2.91,1.09c1.21.47,2.46.91,3.71,1.36,1.57.58,3.14,1.17,4.73,1.73.36.13.74.29,1.1.43.67.26,1.32.48,2,.71.83.3,1.66.59,2.48.91l.5.17c.89.32,1.77.67,2.66,1s1.73.62,2.59.92c1.33.45,2.64,1,3.95,1.45l.13,0c.78.2,1.61.58,2.42.85,1.06.36,2.12.75,3.18,1.16.26.1.54.19.81.28,1.06.35,2.09.73,3.13,1.14.51.2,1.05.38,1.57.58,1.33.5,2.68,1,4,1.49,1.07.38,2.14.78,3.21,1.14.36.12.74.28,1.11.41,1.5.53,3,1.1,4.46,1.65l.9.33c1.15.38,2.31.81,3.45,1.22l3.52,1.28c.77.29,1.55.56,2.3.86.29.12.53.17.81.28.87.32,1.76.62,2.62,1l.38.14c.88.29,1.74.61,2.61,1,.36.13.74.27,1.11.38s.69.25,1,.37c1,.37,2.05.69,3.07,1.1.2.09.45.17.67.25,1.51.54,3,1.1,4.5,1.66l.44.16c.43.14.83.29,1.26.46s.67.23,1,.35c.63.22,1.25.45,1.87.69,1.15.44,2.33.87,3.48,1.32.58.23,1.19.43,1.78.63.44.16.87.29,1.3.43.74.24,1.49.54,2.23.82,1.32.51,2.64,1,4,1.52s2.62,1,3.9,1.37c.27.08.48.19.73.28,1.1.4,2.19.8,3.27,1.21l2.92,1.07,5,1.79c.75.27,1.5.58,2.25.83.6.2,1.2.42,1.8.63.31.11.6.22.87.34s.48.19.73.28c1.1.41,2.23.81,3.31,1.22.9.35,1.81.68,2.7,1,1.14.41,2.27.84,3.42,1.22.7.24,1.45.51,2.16.8.47.2,1,.38,1.45.57,1.24.46,2.48.9,3.72,1.34l.67.23c.34.11.7.24,1,.38s.62.24.93.36c.77.3,1.53.55,2.29.83l3,1.11c.67.26,1.36.51,2,.76l4.45,1.69a5.52,5.52,0,0,0,1,.35c1.5.49,3,1,4.52,1.57.5.19,1,.33,1.49.52s1.25.43,1.87.65l2.79,1c.58.2,1.15.42,1.73.6l.37.14c1.12.43,2.25.8,3.37,1.21s2.21.81,3.32,1.2c1.29.45,2.58.93,3.86,1.39.76.27,1.5.55,2.23.84l.29.11c1.26.41,2.49.93,3.74,1.35.32.11.58.23.88.35,1.54.59,3.11,1.15,4.64,1.69,1.12.39,2.27.79,3.39,1.15s2.07.7,3.14,1.11,2.37.9,3.57,1.32c.69.25,1.35.5,2,.76l.81.31c.17.06.36.12.51.19a6.34,6.34,0,0,0,1,.41l.21.09a10,10,0,0,0,1.09.46,7.21,7.21,0,0,0,1.56-2.68c.13-.61.25-1.23.4-1.83a1,1,0,0,1,.58-.73,1.88,1.88,0,0,0,.91-1,10.56,10.56,0,0,1,.75-1.55,19.87,19.87,0,0,0,1.18-1.88c.26-.73.3-1.7,1.3-2,0,0,.1-.12.12-.19.21-.8.85-1.43.91-2.26.24-.08.37.21.55.08.25-.39-.4-.43-.2-.93a9.24,9.24,0,0,0,1.69-3.68c1.08-.05,1.22-.22,1.13-1.27a3.15,3.15,0,0,1,.42-2.5A1,1,0,0,0,228,162a25.13,25.13,0,0,0,.79-2.41,1.15,1.15,0,0,1,.76-1c.27.95-1,1.66-.4,2.78.61-1,.71-2.05,1.21-2.93a5.37,5.37,0,0,0,.31-1.9c-.56.08-.35.82-1,.82.1-.59,0-1.2.61-1.6a.52.52,0,0,0,.27-.46c-.06-.84.83-1.43.57-2.31a10.48,10.48,0,0,0,.91-3.14.58.58,0,0,1,.37-.43c.3.15.31.85.95.48a8.69,8.69,0,0,1,.27-2.43c-.5.56-.45,1.24-1.09,1.37-.19-.27-.36-.5-.15-.89a2.34,2.34,0,0,0,.42-1.45.7.7,0,0,1,.35-.73c.51-.14.67.49,1.12.42.34-1,.34-2.09,1-2.94a3.91,3.91,0,0,0,.58-2.32,2.94,2.94,0,0,1,.53-1.88c.12-.15.27-.3.24-.49-.17-1,.42-1.82.39-2.83a19.43,19.43,0,0,1,.63-4.31l-.54-.11a3.12,3.12,0,0,1-.54-.16l-.44-.15c-.3-.09-.53-.14-.9-.27-1.14-.42-2.31-.8-3.36-1.27l-.27-.12a35.46,35.46,0,0,0-3.48-1.31c-.59-.2-1.18-.44-1.77-.64-.14,0-.29-.11-.44-.15-.35-.1-.69-.23-1.08-.38s-.94-.35-1.41-.52c-.82-.3-1.66-.59-2.47-.9-1.74-.65-3.49-1.27-5.21-1.94-.75-.29-1.56-.58-2.35-.86s-1.44-.51-2.15-.79c-1-.39-1.95-.74-2.94-1-.49-.15-1-.36-1.53-.56l-.5-.19c-1.59-.55-3.14-1.16-4.7-1.73l-3.86-1.43c-.52-.2-1-.34-1.55-.55s-1.32-.48-1.95-.75c-.48-.2-1-.39-1.49-.54-1-.33-2.12-.7-3.2-1.09l-1.81-.66a11.08,11.08,0,0,1-1.08-.42,4.77,4.77,0,0,0-.5-.19c-.87-.31-1.74-.63-2.59-.9-.37-.12-.78-.26-1.12-.4-.53-.22-1.1-.41-1.62-.62a8.7,8.7,0,0,0-.9-.32c-.42-.14-.82-.29-1.25-.45-.59-.24-1.2-.46-1.79-.65l-.82-.29c-.88-.34-1.73-.61-2.59-.91s-2-.69-2.92-1.07l-.3-.11c-2.48-.86-5-1.75-7.41-2.69l-1.2-.44c-1-.37-2.09-.76-3.14-1.14-.58-.21-1.17-.42-1.75-.65-.3-.12-.64-.23-1-.34-.67-.22-1.35-.45-2.05-.72s-1.49-.56-2.25-.82l-1.13-.41c-.79-.29-1.59-.56-2.38-.86l-1-.35c-.67-.23-1.31-.49-1.95-.74l-.94-.33c-.63-.22-1.23-.45-1.86-.68s-1.49-.56-2.26-.83-1.4-.48-2.1-.74l-.14,0c-.86-.37-1.77-.67-2.67-1-1.08-.39-2.17-.79-3.25-1.16-.78-.26-1.54-.53-2.31-.81l-.67-.26c-1.08-.42-2.17-.83-3.28-1.22-.79-.27-1.59-.56-2.38-.87a13.54,13.54,0,0,0-1.59-.54,18.47,18.47,0,0,1-1.75-.63c-.92-.36-1.84-.69-2.77-1-.43-.15-.85-.3-1.27-.47l-.44-.16c-.88-.31-1.72-.67-2.58-1s-1.61-.6-2.41-.9l-.59-.21c-1.1-.38-2.2-.76-3.28-1.19l-.28-.11c-1.09-.37-2.15-.77-3.22-1.18a15.3,15.3,0,0,0-1.57-.53l-.36-.12c-1.18-.46-2.38-.89-3.57-1.33-.53-.2-.9-.38-1.33-.58l-2.52-.86-1.93-.71c-.34-.13-.66-.27-1-.37a4.35,4.35,0,0,1-.6-.25c-.66-.27-1.34-.5-2-.72a4.44,4.44,0,0,1-1-.41,1.1,1.1,0,0,0-.31-.15,1.28,1.28,0,0,1-.35,0c-.32-.14-.72-.27-1.11-.42s-.72-.25-1.08-.37l-.6-.2c-.73-.29-1.46-.56-2.2-.8l-.6-.22a5.2,5.2,0,0,0-.72-.26l-.3-.1c-1.47-.55-3-1.07-4.42-1.59-1-.35-1.92-.72-2.88-1.06-.41-.15-.81-.26-1.24-.45s-.82-.29-1.22-.47a3.16,3.16,0,0,0-.52-.18c-.65-.21-1.32-.48-2-.7l-.37-.14c-1.05-.42-2.09-.75-3.14-1.12-.35-.12-.7-.26-1-.39-1.36-.5-2.73-1-4.1-1.49-.66-.23-1.32-.48-2-.7-.84-.29-1.69-.61-2.54-.93l-1.2-.44c-1-.35-2-.71-2.92-1l-.82-.3c-1.36-.52-2.73-1-4.1-1.48L45,61.45c-1.41-.55-2.85-1-4.28-1.56-.47-.18-.92-.37-1.4-.51s-1-.36-1.44-.56l-.52-.18c-.52-.16-1.06-.36-1.56-.56-.75-.28-1.48-.55-2.23-.8-.35-.12-.67-.26-1-.39l-2.8-1L27.29,55l-2-.7c-.53-.18-1.05-.36-1.56-.56-.32-.13-.67-.24-1-.36-.67-.26-1.35-.51-2-.75-.63.89-1.27,1.77-2,2.61a12.9,12.9,0,0,0-1.27,2A11.43,11.43,0,0,1,16,59.52a18.94,18.94,0,0,0-1.27,2c-.67,1-1.11,2.1-1.82,3a16.33,16.33,0,0,0-2.1,5.1,12.13,12.13,0,0,1-1,3c0,.28.36.35.19.61-.47-.28-.57.09-.69.3-.09.41.51.53.31.92s-.49-.09-.69.06A9.43,9.43,0,0,0,6.67,79,5.83,5.83,0,0,1,6.39,80.09Zm139.05,38.72a.67.67,0,0,1,.15-.33.42.42,0,0,0,.09-.14,3.87,3.87,0,0,1,.21-.34c.07-.12.13-.24.19-.36a.25.25,0,0,1,0-.21c0-.12,0-.26.09-.39s.08-.19.18-.22a.18.18,0,0,0,.11-.1.72.72,0,0,1,.22-.35.26.26,0,0,0,.11-.14.61.61,0,0,1,.15-.23,1.15,1.15,0,0,0,.17-.33.4.4,0,0,0,.08-.27c0-.05,0-.11.09-.16a.36.36,0,0,0,.1-.14,1,1,0,0,1,.32-.34,2,2,0,0,0,.36-.46,1.07,1.07,0,0,1,.25-.31h0c.1-.19.31-.24.46-.36a.52.52,0,0,0,.11-.1s0-.06.08-.08a1.08,1.08,0,0,0,.32-.32c.05-.05.11-.09.13-.16l0,0c.14,0,.2-.13.3-.21a2.24,2.24,0,0,1,.34-.27.43.43,0,0,0,.12-.11.46.46,0,0,1,.17-.14.18.18,0,0,0,.07,0,.51.51,0,0,1,.24-.15.35.35,0,0,0,.12-.07.72.72,0,0,1,.19-.11,2.48,2.48,0,0,0,.32-.17l.06,0a.59.59,0,0,0,.29-.13c.07-.05.15-.06.21-.1a.64.64,0,0,0,.19-.13c.06-.06.16-.07.23-.11a4.84,4.84,0,0,1,.51-.14.33.33,0,0,1,.1,0,.18.18,0,0,0,.12,0,1.51,1.51,0,0,1,.42-.1.79.79,0,0,0,.39-.16,3.05,3.05,0,0,0,.43,0l.06,0,.67.16.29.09a1.7,1.7,0,0,0,.55,0H156c.08,0,.17,0,.25,0a.19.19,0,0,1,.13,0,1.06,1.06,0,0,0,.31,0,.78.78,0,0,1,.26,0,6.54,6.54,0,0,1,.73.19,3.7,3.7,0,0,1,.69.28l.19.08.29.11a.72.72,0,0,1,.23.12,1.08,1.08,0,0,0,.26.14.75.75,0,0,1,.2.15s0,0,.05,0a1.5,1.5,0,0,1,.53.28.31.31,0,0,1,.19.18l0,0a.62.62,0,0,1,.3.23,3.1,3.1,0,0,0,.61.47,3.08,3.08,0,0,1,.27.24l.1.07c.06,0,.15.06.13.17s0,0,0,0,.15.16.24.23a3.08,3.08,0,0,1,.51.51.43.43,0,0,0,.09.1.25.25,0,0,1,.12.16s0,.05,0,.06.13.16.21.23a.13.13,0,0,1,0,.1.3.3,0,0,0,.1.19.28.28,0,0,0,0,.18,2.37,2.37,0,0,0,.46.63s.08.06.07.12.12.24.21.34a.51.51,0,0,1,.17.28s0,0,.05.06a.15.15,0,0,1,0,.09,3.85,3.85,0,0,1,.08.49.27.27,0,0,0,0,.19,1,1,0,0,1,.05.23.34.34,0,0,0,0,.17s0,0,0,.06,0,.11.09.15.08.18.16.23a.05.05,0,0,1,0,.08c-.11.08-.1.19-.11.3a3.05,3.05,0,0,1-.05.52,1.29,1.29,0,0,0,0,.34,3.54,3.54,0,0,1,0,.46.17.17,0,0,0,0,.1,4.18,4.18,0,0,1,0,.71l0,.62c0,.15,0,.29,0,.43a3,3,0,0,1-.11.58,3.12,3.12,0,0,1-.18.42.56.56,0,0,0-.06.23,1.09,1.09,0,0,1-.15.35,2.69,2.69,0,0,0-.24.48.24.24,0,0,1-.06.09.25.25,0,0,0-.06.16.18.18,0,0,1,0,.09s-.05.12,0,.16,0,.2-.06.28-.13.21-.18.31a1.09,1.09,0,0,0-.09.47.5.5,0,0,1,0,.12,1.1,1.1,0,0,0-.11.44.36.36,0,0,1,0,.11c-.06.09-.09.19-.14.28a.32.32,0,0,1-.4.19,2.7,2.7,0,0,0-.28,0c-.12,0-.23-.08-.35-.1h-.08a.52.52,0,0,1-.29-.11,2.13,2.13,0,0,0-.49-.21l0,0a3.39,3.39,0,0,0-.41-.15.42.42,0,0,0-.15,0,.15.15,0,0,1-.11,0,3.57,3.57,0,0,0-.56-.26c-.06,0-.11-.08-.17-.1s-.17-.13-.28-.13a2.72,2.72,0,0,0-.62-.17,1.67,1.67,0,0,0-.49-.12c-.15,0-.3-.07-.45-.09a2.3,2.3,0,0,1-.34-.12,2.42,2.42,0,0,1-.55-.24,1.37,1.37,0,0,1-.22-.2c-.07,0,0-.13,0-.19a.52.52,0,0,0,0-.17s0-.07,0-.1a4.61,4.61,0,0,1,.2-.63.82.82,0,0,1,.12-.2.58.58,0,0,0,.09-.26,1,1,0,0,1,.15-.47,1.57,1.57,0,0,0,.14-.38,3.45,3.45,0,0,1,.14-.42s0,0,0,0,0-.22.07-.33,0-.2,0-.3a2.85,2.85,0,0,1,.09-.77.77.77,0,0,0,0-.56,2.44,2.44,0,0,0-.14-.28l-.22-.32a2,2,0,0,1-.18-.32s0-.07-.05-.08-.16-.22-.28-.29l0,0a1.22,1.22,0,0,0-.37-.41,1.53,1.53,0,0,0-.58-.3,1.84,1.84,0,0,0-.47-.06,1.61,1.61,0,0,1-.58-.1.28.28,0,0,0-.18,0,1.43,1.43,0,0,1-.42.09c-.06,0-.12.06-.19.07a1.76,1.76,0,0,0-.37.17s0,0-.06.06a.15.15,0,0,1-.08.08.51.51,0,0,0-.23.23,2.41,2.41,0,0,1-.34.37,1.06,1.06,0,0,0-.19.23,5,5,0,0,1-.34.46.7.7,0,0,0-.13.24.19.19,0,0,1,0,.13.25.25,0,0,0-.06.16.11.11,0,0,1,0,.06,2.44,2.44,0,0,0-.25.63,3,3,0,0,0-.12.47,2.27,2.27,0,0,1-.23.58,3.88,3.88,0,0,0-.15.36c-.12.42-.31.83-.45,1.24a2.5,2.5,0,0,1-.09.25c-.05.14-.09.29-.14.44s0,0,0,0a1.31,1.31,0,0,0-.15.37c-.07.19-.16.37-.22.56l-.13.36a5.17,5.17,0,0,1-.21.7c-.08.17-.09.36-.18.53s-.19.49-.3.73-.14.35-.23.53-.25.62-.38.94c0,.12-.12.22-.16.35a2.19,2.19,0,0,1-.12.33c-.07.18-.17.36-.25.54s-.11.28-.17.42-.13.34-.2.5-.12.24-.17.36a1.47,1.47,0,0,0-.08.28,4.15,4.15,0,0,1-.31.83,2.07,2.07,0,0,0-.19.61s0,.06,0,.09a4.53,4.53,0,0,0-.27.81c-.06.2-.13.39-.2.58a1,1,0,0,0-.08.29.32.32,0,0,1-.06.15.84.84,0,0,0-.14.4s0,.05,0,.07a5.55,5.55,0,0,1-.25.72c-.06.12-.08.26-.15.37a.85.85,0,0,0-.12.39,1.12,1.12,0,0,1-.08.26c-.05.15-.09.29-.15.44s-.06.26-.11.38-.12.32-.19.48a5,5,0,0,0-.2.54c-.08.26-.15.53-.21.8a.78.78,0,0,0,0,.16,2.08,2.08,0,0,1-.07.55c0,.11,0,.22,0,.33a1.64,1.64,0,0,0,0,.44.69.69,0,0,1,0,.35,1.48,1.48,0,0,0,0,.21,1.08,1.08,0,0,0,.15.47.25.25,0,0,1,0,.12c0,.06,0,.1.1.14a.6.6,0,0,1,.22.16.17.17,0,0,0,.13,0,.35.35,0,0,1,.25.14,1.07,1.07,0,0,0,.55.3l.06,0a2.72,2.72,0,0,0,.47.19.59.59,0,0,0,.23,0l.31,0a.15.15,0,0,1,.09,0,.86.86,0,0,0,.28,0c.05,0,.09,0,.12,0s0,0,.06,0,.2,0,.3,0a.44.44,0,0,0,.25-.06.22.22,0,0,1,.18,0,.19.19,0,0,0,.2-.07.52.52,0,0,1,.17-.12c.13-.07.23-.16.35-.23a1.78,1.78,0,0,0,.27-.21.68.68,0,0,1,.23-.14.32.32,0,0,0,.18-.14.28.28,0,0,1,.17-.11,6.17,6.17,0,0,1,.38-.72l.26-.57a6.75,6.75,0,0,0,.22-.73,5.91,5.91,0,0,1,.25-.94,2.6,2.6,0,0,0,.13-.36c.07-.23.15-.44.2-.67s.11-.45.16-.67.06-.21.1-.31a.2.2,0,0,0,0-.13.18.18,0,0,1,0-.16.16.16,0,0,0,0-.16.46.46,0,0,0-.27-.15s-.07,0-.1,0a4.57,4.57,0,0,0-.62-.22,1.74,1.74,0,0,1-.41-.2l-.32-.22a.48.48,0,0,0-.17-.1.19.19,0,0,1-.12-.1.41.41,0,0,0-.22-.17.3.3,0,0,1-.2-.35.53.53,0,0,1,.07-.26,1.06,1.06,0,0,0,.11-.21.84.84,0,0,0,.08-.3,1,1,0,0,1,.08-.29.33.33,0,0,1,.1-.14.71.71,0,0,0,.18-.3,2.81,2.81,0,0,0,.16-.49,1.09,1.09,0,0,1,.17-.34c0-.1.11-.19.15-.29a.93.93,0,0,0,.09-.46c.07-.12.07-.26.15-.37a1,1,0,0,0,.07-.15,2.84,2.84,0,0,0,.16-.57.72.72,0,0,1,.1-.24,2.35,2.35,0,0,0,.14-.45s0,0,0,0c.09-.2.14-.42.23-.63l.06-.07a.2.2,0,0,0,0-.13c0-.05,0-.09,0-.13s.12-.11.24-.07a1.51,1.51,0,0,1,.17.1,1.94,1.94,0,0,0,.66.24.44.44,0,0,1,.17.07.86.86,0,0,0,.24.11l.5.19c.2.07.39.2.6.26s.34.17.52.22a2.29,2.29,0,0,1,.23.1,4.19,4.19,0,0,1,.51.11,4,4,0,0,0,.48.19l.17.06a2.25,2.25,0,0,0,.35.09,3.18,3.18,0,0,1,.33.08.5.5,0,0,0,.24.06c.08,0,.15.06.22.08a1.21,1.21,0,0,0,.31.09.63.63,0,0,1,.31.1,1.22,1.22,0,0,0,.38.13l.07,0c.11,0,.24,0,.31.17s.19.11.29.16a2.52,2.52,0,0,0,.47.22,1.08,1.08,0,0,1,.38.17.33.33,0,0,0,.13,0,.35.35,0,0,1,.23.1.46.46,0,0,0,.23.09.29.29,0,0,1,.18.08.14.14,0,0,1,0,.09,1.44,1.44,0,0,1-.06.58c0,.06,0,.13-.08.2-.09.23-.15.47-.23.7a2.37,2.37,0,0,1-.27.61,1.38,1.38,0,0,0-.26.61c0,.1-.07.2-.1.31a3.52,3.52,0,0,1-.15.42,2,2,0,0,1-.24.4l0,.05-.15.35a.33.33,0,0,0,0,.22s0,.09,0,.14l-.17.31c-.09.14-.16.29-.25.43a2,2,0,0,0-.1.21,2.35,2.35,0,0,1-.22.45.36.36,0,0,0,0,.09.83.83,0,0,1-.12.27l0,.07a1.11,1.11,0,0,1-.18.38.89.89,0,0,0-.08.17,1.87,1.87,0,0,1-.12.25,3.43,3.43,0,0,0-.16.45,4.73,4.73,0,0,1-.25.66c0,.06,0,.13-.07.2a2,2,0,0,0-.11.48.35.35,0,0,1-.06.18,4.37,4.37,0,0,0-.33.69s-.06.09-.08.14a1.09,1.09,0,0,0-.12.36.33.33,0,0,1,0,.14c-.08.15-.11.32-.2.47l-.29.51-.05.12h0c-.09.14-.12.3-.21.44s-.18.34-.28.5a3.38,3.38,0,0,0-.22.52,1,1,0,0,1-.22.38,3.6,3.6,0,0,0-.28.4,1.05,1.05,0,0,1-.2.27l0,0a1.54,1.54,0,0,1-.33.47c-.11.13-.24.23-.35.36a.8.8,0,0,0-.15.17,1.91,1.91,0,0,1-.31.38c0,.07-.14.11-.2.17a1.24,1.24,0,0,0-.22.18l0,0c-.13,0-.24.13-.38.14a.28.28,0,0,0-.18.06.23.23,0,0,1-.1.05.93.93,0,0,0-.34.15.15.15,0,0,1-.07,0,1.33,1.33,0,0,0-.37.2s-.05.05-.08.05-.16,0-.24.11a.68.68,0,0,1-.26.11l-.21.07a1.33,1.33,0,0,1-.34.05,1,1,0,0,0-.47.16,2.14,2.14,0,0,1-.44.18s0,0-.07,0a.48.48,0,0,0-.26,0,.53.53,0,0,1-.39,0l-.26-.1s0,.06,0,.07a.35.35,0,0,1-.34.07.54.54,0,0,0-.19,0c.07-.17.22-.16.36-.18a.36.36,0,0,0-.42.08s0,.07,0,.12a.65.65,0,0,0-.33.06.07.07,0,0,1-.06,0c-.19,0-.38,0-.57,0a2.78,2.78,0,0,1-.64-.12,1.5,1.5,0,0,0-.42-.09.32.32,0,0,1-.09,0c-.29-.1-.58-.2-.86-.32a1.4,1.4,0,0,1-.33-.15.11.11,0,0,0-.08,0,.41.41,0,0,1-.22,0,1.14,1.14,0,0,0-.37-.11.16.16,0,0,1-.11-.05.46.46,0,0,0-.26-.1.47.47,0,0,1-.15-.06,3.16,3.16,0,0,0-.54-.31,4,4,0,0,1-.58-.31,2.43,2.43,0,0,1-.34-.3l-.35-.34-.14-.08a1.2,1.2,0,0,1-.28-.27c-.07-.1-.2-.15-.27-.25a1.12,1.12,0,0,0-.33-.28.71.71,0,0,1-.19-.23c0-.07-.11-.12-.16-.18s-.22-.26-.31-.41a3,3,0,0,0-.3-.32c-.14-.16-.29-.31-.44-.47s0,0,0-.07a.15.15,0,0,0,0-.07,1.16,1.16,0,0,1-.21-.5s0,0,0-.05a2,2,0,0,1-.21-.35.31.31,0,0,1-.07-.21.08.08,0,0,0,0,0c-.08-.11-.11-.26-.2-.37s0,0,0,0a3.69,3.69,0,0,1-.15-.75s0,0,0,0,0-.11,0-.17a.37.37,0,0,1,0-.21s0,0,0,0a.77.77,0,0,1,0-.37,1.6,1.6,0,0,1,0-.31.85.85,0,0,0,0-.17,1.75,1.75,0,0,0,0-.56.88.88,0,0,0-.06-.26c0-.05,0-.13,0-.2a.75.75,0,0,1,.06-.33c0-.05,0-.1,0-.15a.5.5,0,0,0,0-.27.47.47,0,0,1,0-.23.12.12,0,0,0,0-.14.3.3,0,0,0,.08-.2,1.14,1.14,0,0,1,.11-.37c0-.07,0-.15,0-.22s.05-.29.11-.41.14-.45.26-.65a.91.91,0,0,0,.14-.3,1.35,1.35,0,0,0,0-.29.49.49,0,0,1,.09-.28,1.92,1.92,0,0,0,.12-.25,5.66,5.66,0,0,1,.28-.72,2.77,2.77,0,0,0,.2-.66c0-.1,0-.21,0-.31a1.4,1.4,0,0,1,.22-.6.61.61,0,0,0,.05-.12c.11-.22.2-.44.29-.67s.1-.2.14-.31a.6.6,0,0,0,.06-.19.16.16,0,0,1,0-.09.18.18,0,0,0,0-.12.32.32,0,0,1,.07-.23c0-.05,0-.12,0-.19s.12-.4.17-.6a4.81,4.81,0,0,0,.16-.54,1.24,1.24,0,0,1,.12-.32.61.61,0,0,0,.08-.26,1.47,1.47,0,0,1,.13-.37l.06-.11a4.92,4.92,0,0,1,.3-.61,1.78,1.78,0,0,0,.18-.43c.06-.13.09-.27.15-.4a.4.4,0,0,0,.07-.24c0-.07.05-.12.08-.18a4.14,4.14,0,0,0,.21-.59c.05-.17.12-.33.17-.5s.21-.59.31-.9a2.22,2.22,0,0,0,.1-.39.55.55,0,0,1,0-.17,6.17,6.17,0,0,0,.19-.61,3.09,3.09,0,0,1,.28-.71,1.5,1.5,0,0,0,.14-.47,1.54,1.54,0,0,1,.19-.46,3.22,3.22,0,0,0,.14-.44,1.13,1.13,0,0,0,.05-.32s0-.07.06-.1a3.16,3.16,0,0,1,.26-.52c.05-.09.05-.2.09-.29l.27-.64a1.47,1.47,0,0,0,.08-.28.67.67,0,0,1,.07-.18.78.78,0,0,0,.12-.32c0-.13.05-.24.08-.36a2.62,2.62,0,0,1,.12-.54,4,4,0,0,1,.27-.64A.49.49,0,0,0,145.44,118.81Zm-25.47.66a.47.47,0,0,1,.06-.19,1.85,1.85,0,0,0,.15-.39,2,2,0,0,1,.18-.4,2.48,2.48,0,0,0,.13-.35.84.84,0,0,1,.08-.19s0,0,0,0a1.3,1.3,0,0,1,.23-.6.69.69,0,0,0,.05-.13,4,4,0,0,1,.15-.49,8.39,8.39,0,0,1,.3-.84c.08-.18.14-.36.23-.54a1.87,1.87,0,0,0,.07-.22c0-.13.11-.23.14-.36a3.39,3.39,0,0,1,.15-.41l.06-.2a1.07,1.07,0,0,1,.1-.22.56.56,0,0,0,.11-.26,1.86,1.86,0,0,1,.16-.45.39.39,0,0,0,.06-.21.19.19,0,0,1,0-.07c.09-.14.08-.33.2-.46s.1-.21.07-.34a.17.17,0,0,1,0-.13,1.12,1.12,0,0,1,.13-.24.15.15,0,0,0,0-.1.67.67,0,0,1,.08-.3c.07-.15.12-.32.2-.47a.71.71,0,0,0,.06-.25,1.87,1.87,0,0,1,.2-.51h0a1.71,1.71,0,0,0,.44-.65.8.8,0,0,1,.13-.22.42.42,0,0,0,0-.1,1.14,1.14,0,0,1,.15-.34s0-.06,0-.07,0,0,0-.06.1-.25.11-.39a.3.3,0,0,1,.1-.22.52.52,0,0,0,.16-.34.36.36,0,0,1,.1-.25.25.25,0,0,0,0-.07.09.09,0,0,1,0-.06c.23-.07.33-.27.49-.41a.14.14,0,0,0,0-.09c0-.12.11-.2.12-.3s0,0,0-.06a2.39,2.39,0,0,0,.28-.35c.05-.09.09-.2.14-.31s.16,0,.2-.14v0c.14,0,.2-.14.31-.18a.15.15,0,0,0,.06,0c0-.1.13-.13.21-.18l0,0a1.19,1.19,0,0,1,.42-.28s.09,0,.09-.11,0,0,0,0a1.31,1.31,0,0,1,.33-.21h0c0-.11.14-.1.2-.16a.18.18,0,0,1,.19,0s.08,0,.11,0,.18,0,.27,0,0-.07.07-.08.16-.14.27-.13.12-.08.18-.13a.42.42,0,0,1,.26-.12,1.09,1.09,0,0,0,.36-.12.67.67,0,0,1,.28,0c.06,0,.11,0,.14,0a.08.08,0,0,1,.09,0,.43.43,0,0,0,.4-.05,1.1,1.1,0,0,1,.39-.09.4.4,0,0,1,.11,0s0-.06.06-.08l.2,0a.67.67,0,0,0,.2,0,1.39,1.39,0,0,1,.5,0c.1,0,.2,0,.3,0a.18.18,0,0,1,.23-.07c.06,0,.13,0,.2,0s.2-.08.3-.06l.22,0c.06-.1.15-.08.24-.06l.49.16a2.86,2.86,0,0,0,.28.07s0,0,.06,0,0,0,.09,0a2.35,2.35,0,0,1,.53.09H135s0,0,0,0a.06.06,0,0,1,.08,0c.29.1.42.09.71.21.09,0,.28.13.38.09a.2.2,0,0,1,.24.08s.06,0,.08,0l.09.05s.06,0,.06,0,.33.22.38.22,0-.06.09-.07l.29.1c.05,0,.15.15.22.21a.34.34,0,0,0,.14.09.44.44,0,0,1,.16.14c.19.06.22.13.42.19a2,2,0,0,1,.21.1l0,0c0,.11.12.13.19.17a.83.83,0,0,0,.16.09.08.08,0,0,1,.05.09c0,.07.05.1.1.13s.07,0,.07.07,0,.11.08.16a.61.61,0,0,1,.09.18c0,.08.08.12.14.17a.19.19,0,0,0,0,.22.24.24,0,0,1,.07.12.49.49,0,0,0,.19.28s.08,0,.07.11,0,.07.06.09a.21.21,0,0,1,.1.15,1,1,0,0,0,.29.45c.06.08.13.15.18.23a.8.8,0,0,0,.15.21c0,.17.16.3.19.47a.08.08,0,0,0,0,.06c.11.09.09.21.11.34a.39.39,0,0,1,.11.2,4.37,4.37,0,0,1,.23.49.77.77,0,0,1,0,.15c0,.15,0,.3.06.45s0,.17.07.24a.08.08,0,0,1,0,.08s0,0,0,0,.07.23.11.34a2.93,2.93,0,0,1,.18.83,3.09,3.09,0,0,0,0,.43c0,.06,0,.12,0,.19s0,.26.05.4a2.75,2.75,0,0,1,0,.41,2.44,2.44,0,0,0,0,.27,2.66,2.66,0,0,0,0,.28,1.27,1.27,0,0,1,0,.55.94.94,0,0,0,0,.29.45.45,0,0,1,0,.28,3.5,3.5,0,0,1-.2.54c0,.09-.05.2-.08.29a3,3,0,0,0-.11.4,1.63,1.63,0,0,1-.13.37c-.05.15-.11.3-.17.44a4,4,0,0,0-.16.45c0,.06,0,.13,0,.19s-.12.25-.17.38a1.11,1.11,0,0,1-.17.3.52.52,0,0,0-.07.22.68.68,0,0,1-.07.23c-.06.14-.11.29-.18.42l-.15.28a.31.31,0,0,0,0,.22.25.25,0,0,1,0,.17c-.07.12-.07.27-.13.39l-.14.39,0,.17a4.76,4.76,0,0,1-.19.53c-.07.22-.17.44-.22.67s-.1.34-.13.52a1.66,1.66,0,0,1-.14.37,2.41,2.41,0,0,0-.08.25.88.88,0,0,1-.1.22.42.42,0,0,0,0,.1c-.06.18-.13.35-.19.52a1.24,1.24,0,0,1-.17.37.14.14,0,0,0,0,.06,2.37,2.37,0,0,1-.2.46,2.24,2.24,0,0,0-.1.37.64.64,0,0,1-.11.3,1.4,1.4,0,0,0-.09.29l-.09.19a2.69,2.69,0,0,0-.19.38c-.07.19-.12.38-.19.57s-.14.32-.2.48-.2.42-.29.63a.92.92,0,0,1-.09.23c0,.06,0,.15,0,.22a4.58,4.58,0,0,0-.2.79.14.14,0,0,1,0,.11,1,1,0,0,0-.17.35,1.47,1.47,0,0,1-.14.28,1.1,1.1,0,0,0-.13.41.3.3,0,0,1-.05.15.2.2,0,0,0,0,.08l-.16.49c0,.1-.08.19-.11.29a2.07,2.07,0,0,1,0,.22.84.84,0,0,1-.09.25c0,.05,0,.11,0,.16a5.55,5.55,0,0,1-.24.56l0,.07a2.32,2.32,0,0,1-.18.6c0,.1-.08.19-.12.29s-.13.33-.19.5a6.37,6.37,0,0,1-.23.61,1.85,1.85,0,0,0-.12.4,1.34,1.34,0,0,1-.16.37.77.77,0,0,0-.07.16,1.46,1.46,0,0,1-.12.33,1.28,1.28,0,0,0-.13.29c-.08.18-.17.35-.25.54a3.15,3.15,0,0,1-.37.67,1.1,1.1,0,0,0-.2.35,1,1,0,0,1-.13.27.59.59,0,0,0-.11.19l0,0c-.07.06-.11.13-.17.19s-.16.12-.2.23h0a1,1,0,0,0-.35.27c-.12.12-.27.21-.4.34a1,1,0,0,0-.21.31.24.24,0,0,1-.12.14.15.15,0,0,0-.09.06.16.16,0,0,1-.11.07.21.21,0,0,0-.13.07.25.25,0,0,1-.14.08H131c-.06.13-.21.13-.31.2l-.31.22a3.61,3.61,0,0,0-.53.33c-.15.11-.33.18-.48.29a.09.09,0,0,1-.06,0,2.78,2.78,0,0,0-.5.21,1.48,1.48,0,0,1-.36.1,1.36,1.36,0,0,0-.28.11.83.83,0,0,1-.37.11c-.09,0-.12.1-.2.09a.25.25,0,0,0-.22.07.37.37,0,0,0-.32.05s-.09,0-.14,0a.18.18,0,0,0-.17,0,.22.22,0,0,1-.21,0,.19.19,0,0,0-.13,0c-.08.05-.16,0-.24,0a.9.9,0,0,0-.23,0,.22.22,0,0,1-.14,0c-.14-.05-.28-.05-.41-.1a.23.23,0,0,0-.2,0,.21.21,0,0,1-.17,0,2,2,0,0,0-.35-.06.23.23,0,0,0-.14,0,.17.17,0,0,1-.14,0,.39.39,0,0,0-.26,0c-.11.05-.22,0-.33,0s-.28-.11-.44-.07h0a1.72,1.72,0,0,0-.55-.1,5.42,5.42,0,0,1-.9-.24,3.49,3.49,0,0,1-.44-.2,1.84,1.84,0,0,1-.25-.23.34.34,0,0,0-.11-.07c-.14-.05-.26-.13-.38-.18s0-.12-.13-.14a.21.21,0,0,1-.15-.08.17.17,0,0,0-.1-.06,1,1,0,0,1-.44-.28s0,0,0,0a.7.7,0,0,1-.32-.24.78.78,0,0,0-.2-.11c-.06,0-.11,0-.12-.12s0,0,0-.06a.73.73,0,0,1-.22-.21c0-.06-.12-.09-.19-.13s-.12,0-.09-.11,0,0,0-.05a.6.6,0,0,0-.13-.09.14.14,0,0,1-.07-.1.4.4,0,0,0-.18-.16s0-.06,0-.09a1.09,1.09,0,0,0-.17-.13s-.06,0,0-.09,0-.05,0-.06a.65.65,0,0,1-.28-.37l0,0a3.09,3.09,0,0,1-.45-.68,1.25,1.25,0,0,0-.16-.22.85.85,0,0,1-.17-.29.06.06,0,0,0,0,0c-.12-.09-.16-.24-.25-.35a.71.71,0,0,1-.1-.32.87.87,0,0,0-.09-.36c0-.07,0-.17-.08-.24s-.09-.25-.14-.39a.11.11,0,0,1-.09-.16.23.23,0,0,0,0-.12.8.8,0,0,0-.16-.35s0-.07,0-.1a.41.41,0,0,0,0-.29.62.62,0,0,1,0-.27.75.75,0,0,0,0-.26c0-.2,0-.4,0-.6a1.61,1.61,0,0,1,0-.44,1.71,1.71,0,0,0,0-.45c0-.16,0-.32,0-.48a.73.73,0,0,1,.06-.21c0-.11,0-.23.11-.33a.08.08,0,0,0,0-.07.6.6,0,0,1,.12-.3.18.18,0,0,0,0-.16c0-.07,0-.1,0-.14s0-.11,0-.16,0-.1.06-.15a.06.06,0,0,0,0-.06,1,1,0,0,1,.16-.46.89.89,0,0,0,.11-.36s0-.05,0-.08a2.38,2.38,0,0,0,.17-.47h0a1.26,1.26,0,0,1,.08-.47c0-.13.06-.26.09-.39a1.45,1.45,0,0,1,.09-.22,1.19,1.19,0,0,0,.05-.32.83.83,0,0,1,0-.15s-.06,0-.06-.09.06,0,.09,0,.09-.3.12-.45a.94.94,0,0,1,.1-.23,1.52,1.52,0,0,0,.19-.59,1,1,0,0,1,.07-.18.32.32,0,0,0,0-.27.12.12,0,0,1,0-.09,2.52,2.52,0,0,0,.12-.29,8.78,8.78,0,0,1,.33-.85.36.36,0,0,0,0-.09.38.38,0,0,1,.07-.21,1.08,1.08,0,0,0,.09-.29,2.64,2.64,0,0,1,.1-.3q.08-.23.15-.48a2.83,2.83,0,0,1,.21-.55,1.89,1.89,0,0,0,.09-.21.34.34,0,0,1,.06-.15l0,0a1.66,1.66,0,0,1,.16-.49.49.49,0,0,0,.06-.17,2.36,2.36,0,0,1,.26-.73,2.5,2.5,0,0,0,.18-.48.7.7,0,0,1,.08-.2A.29.29,0,0,0,120,119.47Zm-15.78-16.55s-.09,0-.12-.06a2.52,2.52,0,0,0,.1-.56.93.93,0,0,1,.12-.29c.07-.12.16-.23.23-.34a.81.81,0,0,0,.13-.3,6.58,6.58,0,0,1,.34-.83,3.41,3.41,0,0,1,.31-.6.55.55,0,0,0,.1-.25.75.75,0,0,1,.13-.32l0-.06a2.85,2.85,0,0,1,.25-.69c0-.07.08-.13.11-.2s.13-.18.09-.31.06-.19.19-.29c0,0-.06-.08,0-.14s0-.2.15-.26,0-.11,0-.17.07-.18.1-.26.1-.35.17-.51a.41.41,0,0,1,.07-.15.08.08,0,0,0,0-.07.29.29,0,0,1,.08-.23s.07,0,.12,0a.19.19,0,0,1,0-.15s-.09-.09-.09-.17a.34.34,0,0,0,.13-.33h0a1.75,1.75,0,0,0,0-.56.41.41,0,0,1,.11-.29.65.65,0,0,0,.17-.33,2.72,2.72,0,0,0,.11-.38c0-.06.07-.1.11-.14a.1.1,0,0,1,.12,0,.8.8,0,0,0,.15,0c.07,0,.12.07.18,0s0,.11.07.12a.53.53,0,0,0,.28,0,.21.21,0,0,1,.11,0,3.93,3.93,0,0,0,.56.24l.31.12a1.39,1.39,0,0,0,.36.12s.07.06.12.07a2.19,2.19,0,0,0,.55.17c.11,0,.21.08.32.09a1.26,1.26,0,0,1,.33.1l.64.26a1.55,1.55,0,0,1,.43.14c.13.1.21,0,.35.12a.27.27,0,0,1,.08.07c0,.1.15.09.25.13a.72.72,0,0,1,.27.15s0,.13.09.14a.94.94,0,0,1-.42.13.31.31,0,0,0-.24-.17c0,.07-.1,0-.15.1a.08.08,0,0,0,0,.07c.08.07.16.12.15.25s0,0,.06.06.12.11.17.18-.08.24.06.33a.15.15,0,0,0,.11-.13.87.87,0,0,1,.08-.14s0,0,.07,0a.05.05,0,0,1,0,.07,2.72,2.72,0,0,1-.11.25.38.38,0,0,0,0,.15c-.15,0-.18,0-.18-.15s-.11,0-.16,0a1.6,1.6,0,0,0,0,.21.14.14,0,0,1,0,.14.35.35,0,0,1,0,.08.31.31,0,0,0-.12.31s0,.07-.05.11a.2.2,0,0,0,0,.2.46.46,0,0,1-.06.34c0,.09-.11.17-.14.26s-.07,0-.08.1,0,.15.1.21,0,.14,0,.21a1.1,1.1,0,0,1,0,.16.65.65,0,0,0-.06.21s0,0,0,.06-.11.29-.2.42a.52.52,0,0,0-.1.27,2.07,2.07,0,0,1-.12.49c0,.11-.12.21-.16.33a4.39,4.39,0,0,0-.21.61,2.32,2.32,0,0,1-.22.57.63.63,0,0,0-.09.33.13.13,0,0,1,0,.06,3.52,3.52,0,0,1-.16.49.94.94,0,0,1-.15.32c-.07.07-.08.17-.13.24s0,0,0,0a.92.92,0,0,1-.14.53,2.75,2.75,0,0,0-.25.64,1.2,1.2,0,0,1-.19.47.51.51,0,0,0-.07.17,2.09,2.09,0,0,1-.22.62,1,1,0,0,0-.12.28,2.46,2.46,0,0,1-.13.41.53.53,0,0,1-.08.17,1.38,1.38,0,0,0-.25.5,5.69,5.69,0,0,1-.25.69,2.46,2.46,0,0,0-.07.29c0,.11-.06.22-.08.33s0,.2,0,.29a2.09,2.09,0,0,1-.13.35.75.75,0,0,0-.09.29,6.46,6.46,0,0,1-.18.76.29.29,0,0,0,0,.09.38.38,0,0,1-.16.32c-.06,0-.07.14-.11.21a.45.45,0,0,0-.07.23c0,.11,0,.22-.06.33a.46.46,0,0,1-.07.16,2.68,2.68,0,0,0-.18.28,1,1,0,0,0-.08.24c0,.16-.07.32-.1.48a.62.62,0,0,1-.14.25.52.52,0,0,0-.09.2c0,.21-.13.4-.16.6a1.66,1.66,0,0,1-.19.46l0,0a.53.53,0,0,1-.19.35.6.6,0,0,0-.06.22c0,.16-.06.32-.09.48s-.06.21-.1.31-.13.26-.17.39a2.91,2.91,0,0,1-.21.48c-.06.1-.1.22-.16.33s-.16.27-.24.4a.18.18,0,0,0,0,.09c0,.12,0,.23-.06.35a1.72,1.72,0,0,1-.17.48.67.67,0,0,0-.07.24.58.58,0,0,1-.09.25,2.25,2.25,0,0,0-.2.51,1.78,1.78,0,0,1-.14.36c-.08.16-.1.34-.17.5a1.7,1.7,0,0,0,0,.22,1,1,0,0,1-.12.23s0,.1-.08.14a.46.46,0,0,0-.11.28,5.47,5.47,0,0,1-.16.7c0,.13,0,.27-.08.4a1.49,1.49,0,0,1-.25.56.21.21,0,0,0,0,.1c0,.11-.07.21-.11.32a1.67,1.67,0,0,0-.08.3.35.35,0,0,1,0,.11.91.91,0,0,0-.13.46.07.07,0,0,1,0,0c-.08.13-.12.27-.19.4a4,4,0,0,0-.28.67c-.11.29-.11.6-.23.89a3.94,3.94,0,0,0-.09.6,1,1,0,0,0,.06.46c0,.14.09.2.18.26a.35.35,0,0,0,.33,0,.26.26,0,0,1,.21,0,2.36,2.36,0,0,0,.58.15l.09,0a4.28,4.28,0,0,0,.51.15l.32.1a.51.51,0,0,0,.21,0,.34.34,0,0,1,.19.07,1.37,1.37,0,0,0,.38.15.26.26,0,0,1,.11.07,1,1,0,0,0,.5.17,2,2,0,0,1,.32.1,2.34,2.34,0,0,1,.38.09,2.78,2.78,0,0,1,.4.16c.09.06.19.09.29.15a1.36,1.36,0,0,0,.21.1,4.16,4.16,0,0,1,.47.24l.3.1.3.11a1.39,1.39,0,0,0,.36.12.21.21,0,0,1,.1,0,2.66,2.66,0,0,0,.52.23,2.33,2.33,0,0,0,.25.07,6.5,6.5,0,0,1,.62.22.76.76,0,0,0,.2.06c.06,0,.1.06.15.08l.32.13a1.48,1.48,0,0,1,.37.21,3.11,3.11,0,0,0,.28.23l.11.07s0,0,0,0a1,1,0,0,1-.1.44c-.06.13-.14.25-.21.38a.79.79,0,0,0-.08.43.26.26,0,0,1,0,.15,1.53,1.53,0,0,0-.11.48,1.63,1.63,0,0,1-.22.59,2.18,2.18,0,0,1-.3.38,3.65,3.65,0,0,1-.24.31.08.08,0,0,0,0,.13.26.26,0,0,1,.05.19,1.28,1.28,0,0,0,0,.39c0,.06,0,.1,0,.16s-.06.05-.17.06,0,.06-.07.08a.62.62,0,0,0-.21.31c-.09.2-.18.41-.25.62a1,1,0,0,1-.22.31s-.08.06-.1.11a0,0,0,0,1,0,0,.14.14,0,0,0-.11.11,4.34,4.34,0,0,1-.52-.09c-.19-.06-.37-.15-.57-.2s-.56-.17-.85-.23a2.25,2.25,0,0,1-.44-.14l-.72-.29a1.28,1.28,0,0,0-.33-.06s-.07,0-.08,0-.28-.09-.39-.2a1.2,1.2,0,0,1-.27-.08,1.8,1.8,0,0,1-.41-.14c-.4-.15-.79-.33-1.19-.46s-.61-.24-.92-.34-.45-.16-.67-.24a3.82,3.82,0,0,1-.46-.21,1.28,1.28,0,0,0-.23-.06,1.22,1.22,0,0,1-.38-.13,2.42,2.42,0,0,0-.36-.1.2.2,0,0,1-.11,0l-.6-.18c-.1,0-.19-.09-.29-.11a3.33,3.33,0,0,1-.75-.26l-.91-.33-.62-.2c-.22-.06-.45-.14-.67-.22a2.6,2.6,0,0,0-.54-.17.22.22,0,0,1-.11-.05s0,0,.06,0a.58.58,0,0,0-.22,0,1.39,1.39,0,0,1-.36-.12.28.28,0,0,0-.18,0,.58.58,0,0,1-.19,0,1.91,1.91,0,0,1-.7-.26l-.17-.06a1.55,1.55,0,0,1-.49-.36.52.52,0,0,1-.11-.38,1.26,1.26,0,0,1,.1-.33.7.7,0,0,1,.09-.24s0-.07,0-.11a.78.78,0,0,1,.15-.32,1,1,0,0,0,.12-.32,2.49,2.49,0,0,0,.11-.29.77.77,0,0,1,.1-.29,2.75,2.75,0,0,1,.2-.38,2.44,2.44,0,0,0,.14-.28,4.46,4.46,0,0,1,.22-.5.28.28,0,0,0,0-.13.08.08,0,0,1,0-.07.26.26,0,0,0,.1-.22.78.78,0,0,1,.09-.24c.09-.2.16-.41.25-.61s.08-.23.12-.35,0-.06,0-.1a.13.13,0,0,1,0-.06c.08-.19.06-.43.21-.6a.25.25,0,0,0,0-.13.32.32,0,0,1,.11-.24.29.29,0,0,0,.08-.14,1,1,0,0,1,.16-.41.8.8,0,0,0,.07-.2c0-.2.18-.37.24-.56a1,1,0,0,1,.05-.18c.09-.16.07-.35.17-.51a.34.34,0,0,0,0-.17.77.77,0,0,1,.17-.39c.07-.11.1-.23.17-.34a.65.65,0,0,0,.1-.36.6.6,0,0,1,.06-.23,5.6,5.6,0,0,0,.21-.66c0-.11.09-.22.14-.34l.07-.18a5.39,5.39,0,0,1,.22-.68c0-.11.13-.21.1-.33a2.9,2.9,0,0,0,.14-.48,3.52,3.52,0,0,0,.13-.43v0c.11-.24.17-.51.29-.74s.2-.39.28-.59a4.5,4.5,0,0,1,.23-.43,3.32,3.32,0,0,0,.2-.47l.16-.42a4.7,4.7,0,0,0,.12-.51,2.13,2.13,0,0,1,.25-.72,1.11,1.11,0,0,0,.07-.16,2.94,2.94,0,0,1,.26-.57c.06-.11.14-.21.19-.32s.07-.05.12-.08a.43.43,0,0,1,0-.35,1.88,1.88,0,0,0,.12-.3c0-.16.08-.31.11-.47a4.34,4.34,0,0,1,.14-.48,4.78,4.78,0,0,0,.25-.84,3.15,3.15,0,0,1,.25-.91c.06-.14.14-.27.19-.41a2.23,2.23,0,0,0,.16-.56,1,1,0,0,1,.1-.31.7.7,0,0,0,.08-.27.4.4,0,0,1,.09-.21c.06-.13.09-.26.14-.39a1.28,1.28,0,0,0,.07-.28.94.94,0,0,1,.11-.36s0-.09,0-.13a1.35,1.35,0,0,1,.19-.38s0,0,0,0a3.94,3.94,0,0,1,.26-.55,2,2,0,0,0,.19-.64.19.19,0,0,1,0-.08,1.11,1.11,0,0,0,.13-.4,1.83,1.83,0,0,0,0-.47.89.89,0,0,1,.12-.37,5.27,5.27,0,0,1,.37-.59C104,103,104,103,104.19,102.92Zm-26.41-3a.3.3,0,0,0,0-.08c0-.08.1-.15.09-.24s.12-.35.22-.5,0-.06,0-.09a.85.85,0,0,1,.11-.26c0-.06,0-.13,0-.2l.13-.33c.09-.2.16-.4.24-.6a.72.72,0,0,1,.09-.2.6.6,0,0,0,.08-.2,1.94,1.94,0,0,1,.18-.51.43.43,0,0,0,0-.16,1.6,1.6,0,0,1,.12-.37,4.29,4.29,0,0,0,.24-.59,2.37,2.37,0,0,1,.09-.36c0-.08.07-.17.12-.26a3.85,3.85,0,0,0,.32-.79c0-.06,0-.13,0-.19.1-.21.2-.42.29-.65s.09-.19.12-.29c.06-.26.21-.49.28-.75,0,0,0-.06,0-.08a.17.17,0,0,0,.06-.12s0,0,0-.05a1.07,1.07,0,0,0,.2-.36,2.3,2.3,0,0,0,.26-.72.31.31,0,0,1,0-.12,1.48,1.48,0,0,0,.19-.35c0-.08.09-.15.08-.25l0,0c.09,0,.08-.14.12-.21a2.21,2.21,0,0,1,.12-.27A1.05,1.05,0,0,0,82,89.4a1.12,1.12,0,0,1,.11-.25.31.31,0,0,0,.06-.16.4.4,0,0,1,.17-.32l.06,0a.22.22,0,0,1,0-.26,1.06,1.06,0,0,0,.12-.42,1.74,1.74,0,0,1,.11-.39.68.68,0,0,0,.07-.28c0-.1.09-.17.12-.26l.07-.12s0,.07.08.09,0,0,0,0,0-.23,0-.34,0,0,0-.08a2.85,2.85,0,0,1,.2-.51,6.51,6.51,0,0,1,.31-.72.34.34,0,0,1,.13-.16.17.17,0,0,1,.18,0,3.75,3.75,0,0,1,.43.16.84.84,0,0,0,.17,0l.31.1c.22.07.44.12.66.17a1.25,1.25,0,0,1,.25.09,1.47,1.47,0,0,1,.47.23.53.53,0,0,0,.27.08.89.89,0,0,1,.36.11,5.45,5.45,0,0,0,.62.26,3.42,3.42,0,0,1,.54.18l.35.16s0,0,0,0a1,1,0,0,1,.37.12A1.28,1.28,0,0,1,89,87a.85.85,0,0,0,.22.09,3.93,3.93,0,0,1,.43.18.14.14,0,0,0,.09,0,.27.27,0,0,1,.22.1.08.08,0,0,0,.07,0,1.68,1.68,0,0,1,.69.21,2.5,2.5,0,0,0,.38.15c.12,0,.23.12.37.11l.06,0A1,1,0,0,0,92,88a1.15,1.15,0,0,1,.65.22s.08.07,0,.12.12,0,.16.08,0,0,0,0,.3.14.46.18.41.14.62.21a.17.17,0,0,1,.09.14,1.34,1.34,0,0,0,.37.16.57.57,0,0,1,.13.08c.12.08.26.13.37.22a.76.76,0,0,0,.22.11.87.87,0,0,1,.23.16,3.15,3.15,0,0,0,.38.35.55.55,0,0,1,.17.2.1.1,0,0,0,.06,0,.26.26,0,0,1,.13.16.16.16,0,0,0,.07.07,1.91,1.91,0,0,0,.28.15l.06,0c.16.2.39.34.49.6a.41.41,0,0,0,0,.09,2.42,2.42,0,0,1,.29.42.25.25,0,0,1,0,.17.21.21,0,0,1,.11.19s0,.06,0,.09l.17.33c.06.12.13.22.19.34a.36.36,0,0,0,.07.1.14.14,0,0,1,.06.12s0,0,0,.06a.63.63,0,0,1,.1.4c0,.2.07.4.1.59a1.92,1.92,0,0,1,0,.24,1.65,1.65,0,0,0,.14.57.64.64,0,0,1,0,.2s0,.1,0,.14,0,0,0,.06a.86.86,0,0,0,0,.39c0,.16,0,.31,0,.47s0,.11,0,.16a3.08,3.08,0,0,1,0,.61,1.06,1.06,0,0,1,0,.35.24.24,0,0,0,0,.2,1.48,1.48,0,0,1,0,.42.28.28,0,0,0,0,.09.24.24,0,0,1,0,.23.66.66,0,0,0,0,.28.53.53,0,0,1-.09.36.13.13,0,0,0,0,.06c0,.12-.07.22,0,.33a1.36,1.36,0,0,0-.11.25.19.19,0,0,0,0,.1c0,.12-.07.23-.07.35s0,0,0,0a.83.83,0,0,0-.14.3c-.1.22-.2.44-.29.66a1.62,1.62,0,0,0-.2.53.5.5,0,0,1-.08.2.34.34,0,0,0-.07.22.43.43,0,0,1,0,.11,2.07,2.07,0,0,0-.14.42.55.55,0,0,0-.06.22.33.33,0,0,1,0,.14.76.76,0,0,0-.11.32,1.76,1.76,0,0,1-.15.44,2.88,2.88,0,0,0-.18.49c0,.18-.15.33-.2.51s-.18.39-.27.59a4.68,4.68,0,0,1-.3.54s0,0,0,.07,0,.06,0,.07a.4.4,0,0,0-.16.22,1.58,1.58,0,0,1-.24.39c-.09.12-.18.24-.28.35s-.14.19-.21.28-.18.15-.23.26,0,0,0,0-.12.07-.17.12a1.39,1.39,0,0,1-.5.4,2.51,2.51,0,0,0-.24.19.27.27,0,0,1-.3,0c0,.08-.09.08-.13.11s-.07.11-.15.09,0,.07,0,.1a.25.25,0,0,0,0,.22,2.14,2.14,0,0,1,.16.42s0,.11,0,.17,0,.13.06.19,0,.09,0,.14,0,.15.08.19a.06.06,0,0,1,0,0c0,.06,0,.1,0,.14s0,.07,0,.11.09.17.1.26,0,.07,0,.09a4,4,0,0,1,.16.45.21.21,0,0,1,0,.11s0,.05,0,.06a.47.47,0,0,1,.09.36,0,0,0,0,0,0,0A.86.86,0,0,0,94,112c0,.08,0,.15,0,.22s.06.21.1.31a.42.42,0,0,1,0,.1.62.62,0,0,1,0,.42,1.27,1.27,0,0,0,0,.2,2.3,2.3,0,0,0,0,.26v0c-.08.18,0,.38-.06.56a4,4,0,0,1-.09.48.93.93,0,0,0-.1.25,0,0,0,0,0,0,0,3.42,3.42,0,0,1-.13.62.14.14,0,0,1,0,.06c-.06.25-.18.47-.26.71a1.1,1.1,0,0,1-.09.14,1.43,1.43,0,0,0-.22.56.07.07,0,0,1,0,0,1.51,1.51,0,0,0-.21.49,1.5,1.5,0,0,1-.19.38,2.18,2.18,0,0,0-.11.27,7.86,7.86,0,0,1-.36.84,4.61,4.61,0,0,0-.22.51,1.59,1.59,0,0,1-.17.31,1.27,1.27,0,0,1-.12.23,1.12,1.12,0,0,0-.11.25,3.11,3.11,0,0,1-.2.41,2,2,0,0,0-.3.67.54.54,0,0,1-.17.26.14.14,0,0,1,0,.15,4,4,0,0,0-.2.35.08.08,0,0,1,0,0,2.55,2.55,0,0,0-.33.52c0,.06,0,.15-.07.2-.05.22-.23.38-.32.58a1.05,1.05,0,0,1-.2.27,1.87,1.87,0,0,1-.3.26,1.42,1.42,0,0,0-.29.26,2.3,2.3,0,0,1-.53.5,1.87,1.87,0,0,1-.4.2.05.05,0,0,0,0,0s-.06,0-.08.07a2.43,2.43,0,0,1-.28.14.81.81,0,0,1-.37.12l-.07,0a.24.24,0,0,1-.13.07.18.18,0,0,0-.1.07.32.32,0,0,1-.26.1.12.12,0,0,0-.1,0,.47.47,0,0,1-.2.1,1.46,1.46,0,0,0-.5.2s0,0-.08,0A.22.22,0,0,0,86,126s-.12,0-.19,0-.06.12-.14.09a.13.13,0,0,0-.11,0c-.09.1-.2.06-.3.07s-.08,0-.12,0-.13,0-.19,0a.41.41,0,0,0-.19,0,.36.36,0,0,1-.23,0h0a1.11,1.11,0,0,1-.4.06.65.65,0,0,1-.24,0c-.18,0-.35,0-.53,0a1,1,0,0,0-.51,0c-.08,0-.17,0-.25.07s-.12,0-.17,0a.85.85,0,0,1-.17-.06,1.24,1.24,0,0,0-.43-.06,2.41,2.41,0,0,1-.38,0l-.29,0c-.15-.11-.33-.17-.49-.28a.14.14,0,0,1,.14-.1c.1,0,.11,0,.12-.1a.25.25,0,0,0-.31-.09c0,.07-.06.13-.06.21a.07.07,0,0,1-.09,0,.38.38,0,0,1-.1,0,.73.73,0,0,0-.35-.09,1.22,1.22,0,0,1-.39-.17.86.86,0,0,0-.38-.13.47.47,0,0,1-.26-.11c0-.13.17-.12.13-.26a.37.37,0,0,0-.14.07c-.12.06-.25.15-.4,0a.09.09,0,0,0-.06,0c-.18,0-.33-.1-.51-.11a.54.54,0,0,1-.21-.08c-.07-.06-.16-.06-.24-.1s-.43-.1-.63-.18a3.59,3.59,0,0,0-.43-.14c-.18,0-.34-.15-.52-.21a2.74,2.74,0,0,0-.39-.09,2.75,2.75,0,0,1-.45-.17l-.14-.06a1,1,0,0,1-.21-.1.25.25,0,0,0-.15,0c-.12,0-.18,0-.22-.16s0,0,0-.05a.45.45,0,0,1-.28,0H74a.22.22,0,0,1-.25-.13.24.24,0,0,1-.21-.05.61.61,0,0,0-.37-.1.33.33,0,0,1-.24-.1.72.72,0,0,0-.52-.16.13.13,0,0,1-.15-.06.37.37,0,0,0-.2-.12,2.62,2.62,0,0,0-.4-.11,1.14,1.14,0,0,1-.35-.17s0-.08,0-.09-.08.07-.14,0l-.12,0s0-.05,0-.08l-.24-.08s0,0,0,.06a1,1,0,0,1-.38-.08c-.06,0-.08-.06-.07-.13a1.4,1.4,0,0,0,0-.41.84.84,0,0,1,0-.31,3.86,3.86,0,0,1,.16-.48c.07-.13.1-.28.16-.41a.38.38,0,0,0,0-.21.12.12,0,0,1,0-.1c.06,0,.07-.11.1-.17a.33.33,0,0,1,.07-.16c.06-.08,0-.19.08-.27a.29.29,0,0,0,0-.18.18.18,0,0,1,0-.1c.08-.1.08-.23.16-.33s0-.18,0-.27a.73.73,0,0,1,.07-.19c0-.07,0-.15,0-.23a1.1,1.1,0,0,1,.15-.44.94.94,0,0,0,.11-.32.91.91,0,0,0,.09-.35c.12-.19.06-.44.19-.62,0,0,0,0,0,0a1.77,1.77,0,0,1,.12-.41c0-.1.09-.2.12-.3a1.93,1.93,0,0,1,.11-.34,1.09,1.09,0,0,0,0-.26.94.94,0,0,1,.22-.46.64.64,0,0,0,.14-.35,1.6,1.6,0,0,1,0-.21s0-.07,0-.1a.18.18,0,0,1,.06-.16.36.36,0,0,0,.08-.15,2.07,2.07,0,0,1,.13-.4.55.55,0,0,0,.06-.22.53.53,0,0,1,0-.12c.1-.24.15-.5.26-.74a2.88,2.88,0,0,1,.13-.31s0,0,0-.06a1.49,1.49,0,0,1,.22-.62.49.49,0,0,0,.06-.17,1.74,1.74,0,0,1,.14-.38,1,1,0,0,0,.08-.24c.11-.28.19-.57.28-.86a2.34,2.34,0,0,1,.17-.53c.11-.19.13-.4.24-.58s.09-.18.14-.26A.75.75,0,0,0,75,108a1.85,1.85,0,0,1,.2-.6,1.2,1.2,0,0,0,.08-.27,1.74,1.74,0,0,1,.14-.38.36.36,0,0,0,0-.11c0-.08,0-.18.06-.25a1.13,1.13,0,0,0,.08-.24c0-.15.1-.28.14-.43s0,0,0,0A3.46,3.46,0,0,0,76,105a1.11,1.11,0,0,1,.07-.16c0-.1,0-.22.09-.32a1.12,1.12,0,0,0,.11-.25,1.93,1.93,0,0,1,.19-.47.57.57,0,0,0,0-.14,2.57,2.57,0,0,1,.2-.59,4.6,4.6,0,0,0,.19-.56,3.59,3.59,0,0,1,.14-.43c0-.07,0-.15.06-.22.08-.23.15-.46.22-.69a4.37,4.37,0,0,1,.18-.46C77.61,100.45,77.68,100.2,77.78,100Z"/><path class="cls-1" d="M113.23,151.63c.74.19.74.14,0-.18C113,151.43,112.88,151.44,113.23,151.63Z"/><path class="cls-1" d="M81.67,94.85c.06,0,0-.08,0-.11l.05,0s0,0,0-.06a.51.51,0,0,0-.33.17C81.62,94.87,81.63,94.87,81.67,94.85Z"/><path class="cls-1" d="M72.76,119.79c0-.08,0-.09,0-.12a.12.12,0,0,0-.16,0A.23.23,0,0,0,72.76,119.79Z"/><path class="cls-1" d="M72.87,118.89a1.35,1.35,0,0,0-.5-.17.14.14,0,0,0-.09,0s0,0-.07.07a1.25,1.25,0,0,1,.44.13A.16.16,0,0,0,72.87,118.89Z"/><path class="cls-1" d="M61,132.42a3.73,3.73,0,0,1-.53-.26L59,131.63c.12.11.11.18.36.33.06,0,.12.07.11.08s.11.2.9.5l1.68.65c.54.21,1.08.4,1.65.61a6,6,0,0,0-.67-.33,5.15,5.15,0,0,1-1.09-.54A5.06,5.06,0,0,0,61,132.42Z"/><path class="cls-1" d="M4.44,111.88c.51.18.81.36,1.28.53.15,0,.16,0,0-.08A11.9,11.9,0,0,0,4.44,111.88Z"/><path class="cls-1" d="M210.76,187.47l-.27-.11A35.46,35.46,0,0,0,207,186c-.59-.2-1.18-.44-1.77-.64-.14-.05-.29-.11-.44-.15a10.08,10.08,0,0,1-1.08-.38l-1.41-.52-2.47-.89c-1.73-.65-3.49-1.27-5.21-1.94-.75-.29-1.56-.58-2.35-.86s-1.44-.51-2.15-.79c-1-.4-1.95-.75-2.94-1.05-.49-.14-1-.36-1.53-.55-.16-.07-.32-.14-.5-.2-1.59-.54-3.14-1.15-4.7-1.73l-3.86-1.43c-.52-.19-1-.34-1.55-.54s-1.32-.49-2-.75c-.48-.2-1-.39-1.49-.54-1.05-.34-2.12-.71-3.2-1.1l-1.81-.65c-.38-.14-.76-.27-1.07-.42-.15-.07-.34-.14-.51-.2-.87-.31-1.74-.63-2.59-.89-.37-.12-.78-.27-1.12-.41-.53-.21-1.1-.4-1.62-.62-.28-.11-.6-.23-.89-.32s-.83-.28-1.26-.45c-.59-.23-1.2-.45-1.79-.65l-.82-.28c-.88-.34-1.73-.62-2.59-.92s-2-.68-2.92-1.06l-.3-.11c-2.48-.87-5-1.75-7.41-2.7l-1.2-.44c-1-.36-2.09-.75-3.14-1.13-.58-.21-1.17-.42-1.75-.65-.3-.12-.64-.23-1-.34-.67-.22-1.35-.46-2.05-.73s-1.49-.56-2.25-.82c-.37-.12-.75-.26-1.13-.4-.79-.29-1.59-.56-2.38-.86-.36-.14-.68-.23-1-.35-.67-.24-1.31-.49-2-.74-.32-.13-.64-.24-.94-.34-.63-.21-1.23-.44-1.86-.67l-2.26-.84c-.7-.25-1.4-.47-2.1-.74l-.14-.05c-.86-.36-1.77-.67-2.67-1-1.08-.39-2.17-.78-3.25-1.15-.78-.27-1.54-.53-2.31-.82l-.67-.25c-1.08-.42-2.17-.83-3.28-1.22-.79-.28-1.59-.56-2.38-.87a15.74,15.74,0,0,0-1.59-.55,16,16,0,0,1-1.75-.62c-.92-.36-1.84-.69-2.77-1-.43-.14-.85-.29-1.27-.46l-.44-.17c-.88-.3-1.72-.66-2.58-1s-1.61-.6-2.41-.9c-.19-.08-.4-.14-.59-.21-1.1-.38-2.2-.76-3.28-1.19a1.82,1.82,0,0,0-.28-.11c-1.08-.37-2.15-.78-3.22-1.18a13.21,13.21,0,0,0-1.57-.53c-.09,0-.25-.08-.36-.13-1.18-.45-2.37-.89-3.57-1.33-.53-.19-.9-.38-1.33-.57l-2.52-.87c-.63-.22-1.29-.47-1.93-.71-.34-.12-.66-.27-1-.36a4.35,4.35,0,0,1-.6-.25c-.66-.27-1.34-.5-2-.72a4.87,4.87,0,0,1-1-.42,2.27,2.27,0,0,0-.31-.15.86.86,0,0,1-.35,0c-.32-.14-.72-.27-1.11-.43s-.72-.25-1.08-.36c-.2-.07-.4-.13-.59-.21-.74-.28-1.47-.55-2.21-.8l-.6-.21a5.2,5.2,0,0,0-.72-.26l-.3-.11c-1.47-.54-2.95-1.07-4.42-1.59-1-.35-1.92-.71-2.88-1.06-.41-.15-.81-.26-1.24-.45s-.82-.29-1.22-.46a3.84,3.84,0,0,0-.52-.19c-.65-.21-1.32-.48-2-.7-.12,0-.26-.08-.37-.13-1.05-.43-2.09-.75-3.14-1.12l-1-.39c-1.36-.51-2.73-1-4.1-1.5l-2-.7c-.84-.29-1.69-.61-2.54-.92l-1.2-.45c-1-.34-2-.71-2.92-1-.27-.09-.54-.2-.82-.31-1.36-.51-2.73-1-4.1-1.47l-.38-.13c-1.41-.55-2.85-1-4.28-1.57-.47-.17-.92-.36-1.4-.5s-1-.36-1.44-.56a4,4,0,0,0-.52-.19c-.52-.16-1.06-.36-1.56-.55-.75-.29-1.48-.55-2.23-.8-.35-.12-.67-.27-1-.4-.93-.33-1.88-.67-2.8-1L6.17,113c-.67-.24-1.35-.47-2-.69s-1.05-.36-1.56-.57c-.32-.13-.67-.24-1-.35q-.81-.32-1.62-.6a25.47,25.47,0,0,1,.14,3.49.88.88,0,0,0,.16.41c.7,1.47.24,3.09.56,4.6a.53.53,0,0,1-.08.32,1.82,1.82,0,0,0-.05,1.71c.22.56.47,1.11-.06,1.66a.56.56,0,0,0,0,.64c.6,1.05-.2,2.27.42,3.31-.3.42,0,.79.1,1.17,0,.21.25.47.09.63-.5.54-.25,1,0,1.52.13.22,0,.49,0,.75a7.19,7.19,0,0,0,.31,3.86c.4,1-.2,2.17.51,3.11,0,0,0,.06,0,.09-.36.46-.2,1-.26,1.52a4.28,4.28,0,0,0,.49,2.7,6.59,6.59,0,0,1,.89,2.22,3.85,3.85,0,0,1,.13,2c-.06.16.09.36.11.53.09.72.56,1.38.4,2.13a1,1,0,0,0,.28,1.11.52.52,0,0,1,.17.39,3.87,3.87,0,0,0,.6,2.84A11.5,11.5,0,0,0,6,155.32a3.2,3.2,0,0,1,.76,1.47A2.67,2.67,0,0,0,7.29,158a4.58,4.58,0,0,1,1.13,2.73c0,.78.62,1.48.42,2.33,0,.12.1.28.17.41A6.13,6.13,0,0,1,10.08,167a.78.78,0,0,0,.13.54,4.87,4.87,0,0,1,1.13,2.24c.86.63,1,1.82,2,2.37-.24.5-.4,1,.18,1.29a2.54,2.54,0,0,1,1.31,1.92,6.4,6.4,0,0,0,.67,1.75,13.9,13.9,0,0,0,2.48,3,3.2,3.2,0,0,1,.92,2,3.49,3.49,0,0,0,.19,1.05,5.8,5.8,0,0,1,1.31.75c.46.3,1-.13,1.47.17.1.37-.36.42-.31.71a.36.36,0,0,0,0,.11c.69.92,1.72,1.66,1.75,3a.43.43,0,0,0,.41.46c.48,0,.72.42,1.07.68.76.57,1.19,1.48,2.09,1.89a1,1,0,0,1,.54.92,1.36,1.36,0,0,0,.16.78l.59.26c.61.28,1.05.6,1,1.41,0,.51.91,1.22,1.43,1.12a.92.92,0,0,1,1,.3c-.08.27-.39.54-.18.94a9,9,0,0,0,1.74.47c-.22.52-.69.14-1,.47a9.83,9.83,0,0,1,2.43,2.67,1.21,1.21,0,0,0,.71.54c.79.18.92.8,1,1.44a2.32,2.32,0,0,0,.08,1c1,.19,1.16,1.28,1.84,2a1.53,1.53,0,0,1,1.11.63,9,9,0,0,0,2.33,1.65c.48.29.87.54.91,1.15a.92.92,0,0,0,.71.91,2.2,2.2,0,0,1,1.46,1.29,2.28,2.28,0,0,0,.53.71,28.06,28.06,0,0,1,3.74,3.23c.6.67,1.32,1.21,1.91,1.88a3.33,3.33,0,0,0,3,1.32c.25,0,.52-.13.76.06,0,.14.08.29.13.43.45,1.25.87,1.48,2.19,1.18.18-.05.47-.13.53-.05.59.76,1.52,1,2.23,1.53.08.06.1.2.14.31a2,2,0,0,0,1.28,1.14c1.91.89,3.93,1.49,5.89,2.28A4.58,4.58,0,0,1,68.67,226c.49.51,1.33.33,1.94.78,1,.75,2.33.92,3.36,1.67a1.53,1.53,0,0,0,.54.12,5.15,5.15,0,0,1,2.23,1,2.22,2.22,0,0,0,1.74.63,2.6,2.6,0,0,1,1,.2,13,13,0,0,0,2.88,1,3.87,3.87,0,0,0,1.55-.12c1.35,1,3,1.05,4.54,1.29.84.13,1.85-.17,2.38.85,0,.08.21.11.31.12a17.26,17.26,0,0,0,3.8,0,5.86,5.86,0,0,1,2.64.16l1.2.26c1.5.32,3.06.05,4.56.54.61.19,1.41,0,1.89.5s1.4,0,2,.43a1.53,1.53,0,0,0,1.09.18,1.89,1.89,0,0,1,1.1.1,1.7,1.7,0,0,0,1.87-.06c.6.49,1.16,1,2,.8a9,9,0,0,1,3.77.44,3.4,3.4,0,0,1,2.5-.91,25.19,25.19,0,0,0,2.75-.09c1-.07,2-.48,3.08-.1a.74.74,0,0,0,.63-.17c.61-.66,1.6-.15,2.22-.75,1,.35,2-.6,3,.07.24.16.55,0,.74-.16a.85.85,0,0,1,1-.06,2.23,2.23,0,0,0,1.85.15c.25-.07.48-.2.75-.08.8.36,1.43-.14,2.1-.41.16-.06.27-.26.47-.26,1.51,0,2.92-.74,4.45-.56a.71.71,0,0,0,.52-.17,2.07,2.07,0,0,1,1.24-.39,8.53,8.53,0,0,0,2.12-.64,6.63,6.63,0,0,1,2.76-.73c.58.06,1.09-.36,1.71-.23.28.06.31-.49.49-.51,1.39-.19,2.56-1,3.91-1.31a5.72,5.72,0,0,0,2.48-.86c.78-.69,1.92-.31,2.55-1.12,1.09,0,1.9-.76,2.87-1.06a17.68,17.68,0,0,1,2.56-1.07,5.56,5.56,0,0,0,2.15-.75c.59-.34,1.26-.24,1.8-.54a18.41,18.41,0,0,1,2.77-1,6.41,6.41,0,0,0,2.74-1.35,3,3,0,0,1,1.91-1.22c.17,0,.33-.28.49-.43s.31-.36.5-.43c1.7-.64,3.09-1.9,4.91-2.3a1.1,1.1,0,0,0,.89-.76,2.34,2.34,0,0,1,.74-1c.32-.06.71.15,1-.17.44-.58,1.14-.64,1.68-.95.75.46.75.46,1.37.43.23-.36,0-.92.49-1.18,1.22-.65,1.9-2,3.22-2.52a.59.59,0,0,0,.29-.33c.23-.83.88-1.12,1.61-1.37a3.27,3.27,0,0,0,2.25-2.6.9.9,0,0,0,.34-.05c.9-.52,1.63-1.29,2.57-1.75a2.73,2.73,0,0,0,1.53-1.51c0-.06.1-.1.16-.15,1.55-1.33,2.85-2.9,4.35-4.29a30,30,0,0,0,4.07-4.43,2.08,2.08,0,0,1,.65-.6,6.61,6.61,0,0,0,2.53-3.15c.36-.81.75-1.6,1.14-2.4C212.82,188.28,211.74,187.91,210.76,187.47Z"/><path class="cls-1" d="M100,146.88c.13,0,.34.09.35.06a6.37,6.37,0,0,0-1.52-.55C99.15,146.57,99.6,146.73,100,146.88Z"/><path class="cls-1" d="M84.65,141.34a8.24,8.24,0,0,0-1.13-.44c-.47-.16-1-.34-1.4-.48a4.11,4.11,0,0,1-.71-.26,9.51,9.51,0,0,0-1.69-.64l-1.53-.5A15.9,15.9,0,0,1,75.65,138l-.25-.12c-.17,0-.42-.17-.66-.21s-.17,0,0,.17c.91.34,1.85.65,2.74,1,.7.22,1.4.5,2.1.74a7.19,7.19,0,0,1,1,.42c.58.17,1.18.39,1.74.6l1.42.52c.82.31,1.65.58,2.46.93a3.39,3.39,0,0,0,1.08.31c-.62-.24-1.13-.46-1.74-.68C85.22,141.56,84.84,141.43,84.65,141.34Z"/><path class="cls-1" d="M96.42,145.69c.53.2,1.07.42,1.55.65a9.89,9.89,0,0,0-1.35-.63C96.42,145.63,96.35,145.63,96.42,145.69Z"/><path class="cls-1" d="M83.37,93.81c.18.1.28,0,.29-.13a1.52,1.52,0,0,1,0-.21.3.3,0,0,0-.33-.07.27.27,0,0,0,0,.16A.18.18,0,0,1,83.37,93.81Z"/><path class="cls-1" d="M79.59,103a.67.67,0,0,0,.21-.1.31.31,0,0,0-.26,0S79.54,103,79.59,103Z"/><path class="cls-1" d="M76.77,117.8a.14.14,0,0,1-.16,0,.16.16,0,0,0-.15-.09c-.11,0-.23-.06-.33,0s0,0,0,0a.78.78,0,0,1-.21,0s-.05,0-.07,0l.14.09a.91.91,0,0,1,.32.2.48.48,0,0,0,.22.15l.48.16a.37.37,0,0,0,.29,0,2,2,0,0,1,.19-.12s.07.08.14.08,0-.09-.06-.12-.11,0-.13-.06a.18.18,0,0,0-.13-.08l-.07,0A.49.49,0,0,0,76.77,117.8Z"/><path class="cls-1" d="M84.47,95.16c.07.12.12.14.24.06,0,0-.11,0-.14-.08s0-.13,0-.2a.32.32,0,0,0-.17,0c0,.06,0,.11,0,.17S84.45,95.13,84.47,95.16Z"/><path class="cls-1" d="M79.69,109.23a.66.66,0,0,0,.31.06c.11,0,.11,0,.15-.09l0,0c.09-.17.09-.2,0-.39v0a.23.23,0,0,0,0-.18.12.12,0,0,1,0-.08,1.72,1.72,0,0,0,0-.24c-.05,0-.05.06-.06.08a.55.55,0,0,1-.19.32c-.08.07-.1.18-.17.26A.29.29,0,0,0,79.69,109.23Z"/><path class="cls-1" d="M76.4,120.07a.89.89,0,0,0-.34-.16.06.06,0,0,0-.08,0c0,.09.06.12.12.15a1.9,1.9,0,0,1,.39.23c.06.07.17,0,.27,0a.3.3,0,0,0-.08-.08A.92.92,0,0,1,76.4,120.07Z"/><path class="cls-1" d="M77.92,112.39c-.1,0-.1.1-.13.17a1.76,1.76,0,0,1,.2-.09C78,112.41,78,112.39,77.92,112.39Z"/><path class="cls-1" d="M81.84,101.68c0,.15,0,.15.2.18a.67.67,0,0,1,.09-.14.65.65,0,0,0,.11-.33.16.16,0,0,0-.09-.15.12.12,0,0,0-.15,0,.41.41,0,0,1-.14.12s-.07.07-.07.12S81.83,101.62,81.84,101.68Z"/><path class="cls-1" d="M86,88.91c0-.11.06-.2.06-.3s0,0,0,0a.77.77,0,0,0,.1-.25s0-.08,0-.11a.53.53,0,0,0,.07-.2l0,0a.3.3,0,0,0-.32.12,1.37,1.37,0,0,1-.18.24c-.06.09-.11.2-.24.23s0,.15,0,.22A.47.47,0,0,0,86,88.91Z"/><path class="cls-1" d="M77.18,115.44s.07.1.15.06-.07-.2,0-.3-.09,0-.13,0a.5.5,0,0,1-.38,0,.35.35,0,0,0-.37,0l.11.1h0A.73.73,0,0,1,77.18,115.44Z"/><path class="cls-1" d="M75.43,114.51a.09.09,0,0,0-.06.07c.06.1.11.12.24.09a.61.61,0,0,1,0-.12A.08.08,0,0,0,75.43,114.51Z"/><path class="cls-1" d="M77.51,112.75c-.08,0-.13-.08-.22,0,.08.06.07.18.19.21s.24-.09.22-.27C77.65,112.71,77.57,112.72,77.51,112.75Z"/><path class="cls-1" d="M82.14,99.86s0,0,0,.07a.34.34,0,0,0,.18-.13.13.13,0,0,0-.11,0C82.23,99.82,82.23,99.82,82.14,99.86Z"/><path class="cls-1" d="M86.59,87.53l.15-.1c.15-.06.15-.06.13-.22s0-.06,0-.08-.09,0-.14,0a.57.57,0,0,1-.34,0,.26.26,0,0,0-.06.32Z"/><path class="cls-1" d="M74.14,120.28a.15.15,0,0,0-.18.09,1.18,1.18,0,0,0,.3.1C74.25,120.33,74.22,120.29,74.14,120.28Z"/><path class="cls-1" d="M101.58,118a.29.29,0,0,0,0-.4c-.06-.06-.12-.14-.19-.15a.9.9,0,0,0-.46,0,.76.76,0,0,0-.06.18.62.62,0,0,1-.07.23.22.22,0,0,0,0,.21s.08.06.13,0a.31.31,0,0,1,.19,0c.08,0,.17,0,.23,0s.16,0,.23-.08Z"/><path class="cls-1" d="M100.61,119.12c-.07,0,0,.08-.1.1a.1.1,0,0,1-.11-.11c0-.08,0-.12-.06-.18a.46.46,0,0,0,0-.29,1.22,1.22,0,0,0-.06.26.51.51,0,0,0,0,.32.38.38,0,0,0,.32.21s0,0,0-.06a0,0,0,0,0,0-.08C100.61,119.24,100.58,119.2,100.61,119.12Z"/><path class="cls-1" d="M105.93,104.7a.49.49,0,0,1-.17,0c-.05,0-.09,0-.12,0s-.08,0-.12,0c0,.18-.12.33-.08.51a.25.25,0,0,0,.12,0,0,0,0,0,0,0,0c0-.13.13-.19.19-.29a.06.06,0,0,1,.07,0h0c0-.08.1-.09.17-.12S106,104.68,105.93,104.7Z"/><path class="cls-1" d="M103,114.1c.15.06.16.06.27-.07v0a.23.23,0,0,1-.06-.12.49.49,0,0,0-.07-.19c0-.07-.13,0-.19,0s-.35,0-.52.07a.06.06,0,0,0,0,0,.18.18,0,0,1-.07.08.33.33,0,0,0-.12.28.18.18,0,0,0,.13.2c.16.07.33.09.49.16s0,0,.07,0a.07.07,0,0,0-.06-.07,1.2,1.2,0,0,1-.24-.15c-.14-.07-.11-.18-.13-.29a.25.25,0,0,1,.17,0Z"/><path class="cls-1" d="M103.54,120.35c0-.09-.05-.07-.1-.1s-.06.08-.12.09-.16,0-.21.07.09.08.13.11.05.1.09.15c.13-.1.3,0,.42-.15l-.12,0S103.53,120.39,103.54,120.35Z"/><path class="cls-1" d="M107.89,107.29c-.09-.1-.12-.1-.22,0C107.75,107.34,107.75,107.34,107.89,107.29Z"/><path class="cls-1" d="M102.39,119.83s0-.06,0-.07a.05.05,0,0,0-.07,0c0,.06,0,.09-.08.1s0,0,0,.06.09.06.06.13a.21.21,0,0,1-.16-.29,1,1,0,0,1,.08-.21c0-.06-.07-.1,0-.16a.06.06,0,0,0,0-.06.4.4,0,0,1,0-.32,1.13,1.13,0,0,0,.08-.24.1.1,0,0,1,.06-.08.58.58,0,0,0,.19-.27s0,0,0-.06,0-.13.08-.17a.24.24,0,0,0,.09-.17.36.36,0,0,1,.08-.2c.08-.1.07-.24.15-.34s0,0,0,0a.3.3,0,0,1,0-.24.13.13,0,0,0,0-.06,4.73,4.73,0,0,1,0-.53c0-.12.11-.18.19-.25a.09.09,0,0,1,.13,0c.11.08.25.1.33.2h0s0-.05,0-.1.09,0,.11.08,0,.05,0,.06-.1.11-.08.19,0,.1-.08.16,0,.07,0,.11l0,.2a.07.07,0,0,0,0,.09.08.08,0,0,0,.08,0,.49.49,0,0,0,.19-.3.05.05,0,0,1,0,0,1.24,1.24,0,0,1,.47,0,.3.3,0,0,0,.13,0c.09,0,.14,0,.14-.12a.23.23,0,0,0-.27,0,.26.26,0,0,1-.21,0l-.11,0c-.14,0-.17-.13-.19-.25s.13,0,.06-.25l-.17,0a.55.55,0,0,1-.17-.05.88.88,0,0,0-.17,0,.39.39,0,0,1-.39-.18c0-.05-.1-.06-.15-.07s-.07,0-.07.06.12.06.12.15a.72.72,0,0,0-.19.11.37.37,0,0,0-.15.45,1.46,1.46,0,0,1,.11.55.5.5,0,0,1-.17.4l-.26.23a.2.2,0,0,0-.08.24,1.34,1.34,0,0,1,0,.2,5.28,5.28,0,0,1,0,.55,1.52,1.52,0,0,1-.06.2.3.3,0,0,0,0,.29.06.06,0,0,1,0,0c0,.1,0,.2,0,.3s0,.18-.05.26a.09.09,0,0,0,0,.07c.07.06,0,.12,0,.18a.29.29,0,0,0,.16.13s.09.12.18.07a.2.2,0,0,1,0-.21A1.64,1.64,0,0,0,102.39,119.83Z"/><path class="cls-1" d="M102.87,120.11s0-.07,0-.1,0-.16,0-.25a.24.24,0,0,1,0-.17,1.59,1.59,0,0,0,.15-.21s.06-.09,0-.15a.08.08,0,0,1,0-.09.32.32,0,0,0,.09-.25.08.08,0,0,1,0,0,0,0,0,0,0,0-.06c0-.06,0-.12,0-.18s-.12,0-.18,0v0a.08.08,0,0,0,0,0c.07.07.08.07,0,.15a1,1,0,0,0-.07.15,1.51,1.51,0,0,0-.06.36.3.3,0,0,1-.29.32c-.07.08,0,.18-.06.26s0,.14.06.22-.13.07-.15.14a.65.65,0,0,1-.16.32.58.58,0,0,0,.31.08.32.32,0,0,0,.1-.24A.67.67,0,0,1,102.87,120.11Z"/><path class="cls-1" d="M99.23,124.31s0,.06,0,.08.25,0,.37,0C99.53,124.22,99.39,124.21,99.23,124.31Z"/><path class="cls-1" d="M101.73,125.5a.45.45,0,0,1,0,.11s0,0,0,0,.07,0,.1-.06S101.83,125.45,101.73,125.5Z"/><path class="cls-1" d="M103.25,118.48s0,0,.07,0a1.3,1.3,0,0,0,.09-.39.29.29,0,0,1,0-.16.22.22,0,0,0,0-.22c-.1,0-.16,0-.28.18,0,0,.07,0,.09.1s-.06.08-.06.16a.22.22,0,0,1,0,.12C103.15,118.42,103.15,118.42,103.25,118.48Z"/><path class="cls-1" d="M102.36,115.5c0-.18-.13-.25-.28-.3a2.85,2.85,0,0,0-.26.23c-.11.12-.17.28-.32.38s0,0,0,.07a.41.41,0,0,1-.12.19c-.08.09-.06.2-.1.29a.1.1,0,0,0,.06.1l.13.05a.09.09,0,0,0,.12,0s0-.08,0-.12a.14.14,0,0,1,0-.17.25.25,0,0,1,.2.07.66.66,0,0,0,.3.15c.17,0,.33.07.44-.14a.25.25,0,0,1,.28-.15l0,0a1,1,0,0,1-.12-.45A.68.68,0,0,1,102.36,115.5Z"/><path class="cls-1" d="M107.06,105c0-.08-.06-.11-.12-.12a2,2,0,0,1-.3-.09c0,.06-.08.07-.14.08l-.16,0a.25.25,0,0,0-.16.17.36.36,0,0,1-.17.24.5.5,0,0,0-.14.15.26.26,0,0,0,.32,0c.09,0,0-.12,0-.19a0,0,0,0,1,0,0c0-.1.05-.16.15-.13a.31.31,0,0,1,.1,0,.84.84,0,0,0,.45.18l.1,0a.89.89,0,0,0,.51.08h0c.08,0,.18,0,.21.12a.23.23,0,0,0,.21.17c.1,0,.19,0,.28,0a.08.08,0,0,0,.09-.09s0-.07,0-.11a1.79,1.79,0,0,1-.32-.13,2.61,2.61,0,0,0-.53-.26.55.55,0,0,0-.38,0A0,0,0,0,1,107.06,105Zm-.33.23a.06.06,0,0,1,0-.07.07.07,0,0,1,0-.07.17.17,0,0,1,.18,0C106.88,105.3,106.83,105.32,106.73,105.25Z"/><path class="cls-1" d="M105,107.54c0,.09.09.07.14.07s.14,0,.15-.11-.14-.06-.21-.09Z"/><path class="cls-1" d="M103.17,130.15l.34.13a.38.38,0,0,0-.23-.25c-.15-.08-.32-.09-.47-.16a.07.07,0,0,0-.09,0,.49.49,0,0,0,.24.16Z"/><path class="cls-1" d="M97.24,123.38a.05.05,0,0,1,.05,0c0,.08-.1.14,0,.25a.88.88,0,0,0,.21-.12C97.39,123.41,97.36,123.39,97.24,123.38Z"/><path class="cls-1" d="M97,123.57c.1-.14.1-.15.19-.2a.56.56,0,0,0-.28,0A.18.18,0,0,1,97,123.57Z"/><path class="cls-1" d="M102.57,132.1a.81.81,0,0,0-.61,0,.51.51,0,0,0,.17.23c.08.07.19.08.26.16a.57.57,0,0,0,.36.24.55.55,0,0,0,.23,0,.62.62,0,0,1-.15-.33.43.43,0,0,0,0-.07.2.2,0,0,0-.13-.09C102.6,132.21,102.63,132.13,102.57,132.1Z"/><path class="cls-1" d="M87.21,123.63a.39.39,0,0,1-.19-.12.34.34,0,0,0-.18-.09c-.11,0-.2,0-.31-.06.06,0,.08.11.12.17a.7.7,0,0,0,.22.26.27.27,0,0,1,.07.08c0,.06.08.06.14,0s.17-.15.27-.21S87.26,123.65,87.21,123.63Z"/><path class="cls-1" d="M104.74,130.12c.11.07.21,0,.3-.08-.06-.11-.19-.1-.28-.18v-.05s0,0,0,0,0,.11-.08.12-.28-.17-.46-.07c0,.05.07.06.11.07A1.63,1.63,0,0,1,104.74,130.12Z"/><path class="cls-1" d="M109.46,100.48a1,1,0,0,0-.42-.13A3.38,3.38,0,0,0,109.46,100.48Z"/><path class="cls-1" d="M105.38,129.29a1.11,1.11,0,0,0,.34.06.48.48,0,0,1-.2-.15.24.24,0,0,0-.24-.07A.2.2,0,0,1,105.38,129.29Z"/><path class="cls-1" d="M110.57,97.5a.51.51,0,0,0-.34-.06C110.37,97.57,110.4,97.58,110.57,97.5Z"/><path class="cls-1" d="M102.82,112.75a.71.71,0,0,0,.25.29.31.31,0,0,1,.14.18.33.33,0,0,0,.14.17.53.53,0,0,0,.25-.08.49.49,0,0,1,.27,0c0-.06,0-.1,0-.14s-.23-.15-.25-.3.1,0,.11-.05.12-.08.17-.11.15,0,.23-.07.06,0,.08,0a.08.08,0,0,1,.09,0,.32.32,0,0,0,.32-.08c0-.17,0-.19-.18-.21s-.21,0-.24-.15c-.06,0-.09,0-.13,0s-.1-.08-.17,0v0c-.12.1-.23.22-.42.14a.16.16,0,0,0-.13,0,.17.17,0,0,1-.18,0,.53.53,0,0,0-.25-.1c0-.05,0-.09,0-.11s.13-.15.22-.21l-.06-.08c-.16.07-.31,0-.46,0a.2.2,0,0,1-.16.07.22.22,0,0,0-.21.21,1.17,1.17,0,0,1,0,.26,2.27,2.27,0,0,1,.31.17,1.23,1.23,0,0,1,.28.23S102.81,112.74,102.82,112.75Z"/><path class="cls-1" d="M111.25,96.54a.32.32,0,0,1,.13,0c-.16,0-.26-.17-.42-.18A.26.26,0,0,0,111.25,96.54Z"/><path class="cls-1" d="M111,96.83a.52.52,0,0,0-.3-.08A.31.31,0,0,0,111,96.83Z"/><path class="cls-1" d="M88.58,117.22a.32.32,0,0,0,0,.17.28.28,0,0,0,.2.06.33.33,0,0,0,0-.3C88.73,117.13,88.73,117.13,88.58,117.22Z"/><path class="cls-1" d="M92,114.1c.07-.06.06-.15.1-.22s0-.11-.07-.19c-.19.08-.22.28-.33.42C91.82,114.21,91.87,114.21,92,114.1Z"/><path class="cls-1" d="M87.17,122.73a.82.82,0,0,0-.42-.15C86.88,122.71,87,122.69,87.17,122.73Z"/><path class="cls-1" d="M89.7,119.69l.12.1a.1.1,0,0,0,.12,0,.39.39,0,0,0,.27-.23,2.54,2.54,0,0,0,.1-.37l0-.06a1.06,1.06,0,0,1-.54.23C89.84,119.51,89.69,119.59,89.7,119.69Zm.23-.3a0,0,0,0,1,0,0s0,.1-.06.11a.06.06,0,0,1-.09,0,.11.11,0,0,1,0-.08A.07.07,0,0,1,89.93,119.39Z"/><path class="cls-1" d="M90.89,112.35a1.12,1.12,0,0,1-.22.42.13.13,0,0,0,.18,0,.42.42,0,0,1,.06-.29S91,112.41,90.89,112.35Z"/><path class="cls-1" d="M105.17,129.62a.17.17,0,0,0,.18.1,1,1,0,0,1,.39.07.89.89,0,0,1,.33.21c.15.15.28.33.42.5s.06.12.15.09,0,0,0,0,.06.06.09.07a2.13,2.13,0,0,1,.3.09h.06c.1-.07.2.05.31,0s.25.06.38.1,0-.08-.08-.09l-.17,0a.41.41,0,0,1-.3-.14.66.66,0,0,0-.32-.21,1.77,1.77,0,0,1-.36-.2s0,0-.07,0a.33.33,0,0,1-.32-.25c0-.08-.07-.16-.18-.14l0,0c0-.05-.09,0-.15,0a.54.54,0,0,1-.45-.18.57.57,0,0,0-.13-.1,1.67,1.67,0,0,1-.35-.24.2.2,0,0,0-.15-.06.42.42,0,0,1-.2-.08c.09.12.15.26.31.31A.47.47,0,0,1,105.17,129.62Z"/><path class="cls-1" d="M81.72,123.3a1,1,0,0,0-.44-.07,2.78,2.78,0,0,0,.56.24C81.86,123.37,81.79,123.33,81.72,123.3Z"/><path class="cls-1" d="M111.77,96.1s.16.22.19.26a.73.73,0,0,0,.42.18s0,0,.06,0a.06.06,0,0,0,0-.06c0-.08-.12-.13-.16-.2a.18.18,0,0,0-.18-.1.12.12,0,0,1-.11,0C111.9,96,111.88,96,111.77,96.1Z"/><path class="cls-1" d="M84.22,124.29a.94.94,0,0,0-.41,0c-.08,0-.18,0-.25-.06a.82.82,0,0,0-.26-.06c0,.07.06.09.08.15s.24.1.37.11.07,0,.29,0a.16.16,0,0,1,0,.1.06.06,0,0,0,0,.08s0-.05,0-.08a.07.07,0,0,1,.09,0,.76.76,0,0,0,.56.07c-.11-.08-.23-.12-.29-.23A.39.39,0,0,1,84.22,124.29Z"/><path class="cls-1" d="M106.78,96.68a.13.13,0,0,1,.14-.08c-.1,0-.09-.11-.11-.17s-.09.15-.13.24S106.76,96.72,106.78,96.68Z"/><path class="cls-1" d="M80.09,122.74s-.11,0-.15,0a.51.51,0,0,0-.27-.09l-.16,0c-.15-.06-.3-.13-.46-.18a1.22,1.22,0,0,1-.27-.15.82.82,0,0,0-.26-.14.15.15,0,0,1-.13-.14h-.1a.08.08,0,0,0-.11,0,1.36,1.36,0,0,1,.27.13,3.17,3.17,0,0,0,.41.21.89.89,0,0,1,.36.15c.11.08.24.12.35.2a2,2,0,0,0,.55.22.57.57,0,0,0,.26,0c.07.11.21.09.33.16,0-.09,0-.09-.08-.11A1.81,1.81,0,0,1,80.09,122.74Z"/><path class="cls-1" d="M80.67,122h-.12a.26.26,0,0,0,.14.09.85.85,0,0,1,.31.09l.15,0C81,122.1,80.82,122.11,80.67,122Z"/><path class="cls-1" d="M82,122.4l0,0a4.86,4.86,0,0,0-.56,0c.1,0,.17.09.27.08l0,0a1.8,1.8,0,0,0,.55.24c.09,0,.2,0,.27,0s.06,0,.09,0,.06,0,.1,0-.12-.08-.2-.09A1.12,1.12,0,0,1,82,122.4Z"/><path class="cls-1" d="M107.35,98.83a.69.69,0,0,0,.28.11,1.93,1.93,0,0,1,.44.2c.13.09.2.09.3,0a.18.18,0,0,0-.07-.1c-.12,0-.21.1-.33.06a.44.44,0,0,0-.16-.17.24.24,0,0,1-.11-.2.7.7,0,0,0-.11-.27.86.86,0,0,0-.17,0,.2.2,0,0,0-.17.15A.26.26,0,0,0,107.35,98.83Z"/><path class="cls-1" d="M108.77,98.89a1.88,1.88,0,0,0,.4,0c-.06-.05-.12-.06-.15-.1H109a.63.63,0,0,1-.36,0l-.14,0s-.08,0-.06.07S108.63,98.92,108.77,98.89Z"/><path class="cls-1" d="M109.84,97.48a.08.08,0,0,0,.1-.07.07.07,0,0,0,0-.09c-.13,0-.21-.12-.32-.18a.52.52,0,0,0-.39,0c.16.13.34.2.49.32A.51.51,0,0,0,109.84,97.48Z"/><path class="cls-1" d="M110.6,96.05l0,0a.25.25,0,0,0,.27.1,0,0,0,0,1,0,0s0,.07,0,.1.11,0,.14.06a.21.21,0,0,1,.26,0s.08.06.13,0a.29.29,0,0,0-.14-.13c-.07,0,0-.14-.09-.17l0,0a.16.16,0,0,1-.23,0l-.06,0c-.17-.09-.35-.16-.41-.37a.09.09,0,0,0-.06-.07.59.59,0,0,1-.39-.06.19.19,0,0,0-.21,0c.15,0,.26.12.38.17S110.46,96,110.6,96.05Z"/><path class="cls-1" d="M111.15,95.65a.24.24,0,0,1,.16.27.11.11,0,0,0,0,.1.25.25,0,0,1,.17,0c.08,0,.16,0,.23,0s.06,0,.08,0H112a.18.18,0,0,0,0-.14l-.2-.07c-.06,0-.11.07-.18.06s-.08-.1-.12-.13-.08,0-.11,0,0-.12.11-.1a.51.51,0,0,0,.25,0c-.08-.06-.14-.1-.16-.18a1.55,1.55,0,0,1-.31-.06s-.06,0-.09,0-.11,0-.15,0S111,95.58,111.15,95.65Z"/><path class="cls-1" d="M105.83,129.1a.23.23,0,0,0-.18,0l0,.09.09,0C105.71,129.13,105.78,129.12,105.83,129.1Z"/><path class="cls-1" d="M104.12,105.08c0-.16,0-.23-.17-.26a.06.06,0,0,0,0,.09A.5.5,0,0,1,104.12,105.08Z"/><path class="cls-1" d="M101.16,112.59c0,.1.1.13.19.1l.19,0c.15,0,.23-.14.36-.19s.08-.11.16-.12c-.16-.17-.16-.17-.3-.2a1.8,1.8,0,0,0-.2.19.28.28,0,0,1-.11.08A.79.79,0,0,0,101.16,112.59Z"/><path class="cls-1" d="M107.78,96.6c.06,0,.16,0,.19-.15a.31.31,0,0,0-.39-.08.17.17,0,0,1-.12,0s-.07,0-.09,0a.23.23,0,0,0,.19.15A.83.83,0,0,1,107.78,96.6Z"/><path class="cls-1" d="M106,129.16a.46.46,0,0,1,.33.29s0,0,0,.05a.84.84,0,0,0,.23.12,2.57,2.57,0,0,0,.33.18c.08,0,.14.07.13.17s.16,0,.2.06.1,0,.16,0c-.09-.1-.2-.17-.22-.31a.16.16,0,0,0-.1,0c-.07,0-.11,0-.13-.06s0,0,0,0a.51.51,0,0,0-.24-.17.72.72,0,0,1-.36-.26.19.19,0,0,0-.16-.08h-.27v0A.15.15,0,0,0,106,129.16Z"/><path class="cls-1" d="M107.3,95.3a.1.1,0,0,0,.06-.11.37.37,0,0,0-.1-.23c-.05,0,0,.08,0,.12s-.06,0-.08.11l0,0A.08.08,0,0,0,107.3,95.3Z"/></g></g></svg>