<svg xmlns="http://www.w3.org/2000/svg" viewBox="0 0 238.72 236.87"><defs><style>.cls-1{fill:#00a886;}</style></defs><title>link-menu</title><g id="Layer_2" data-name="Layer 2"><g id="Layer_1-2" data-name="Layer 1"><path class="cls-1" d="M130.89,143.18c.08.09.05.19,0,.3a.09.09,0,0,0,.07,0,.09.09,0,0,0,0-.06.5.5,0,0,0,0-.32C131,143.11,131,143.11,130.89,143.18Z"/><path class="cls-1" d="M142.61,111c.09.06.13,0,.18-.06s.15-.22.1-.29a.52.52,0,0,1-.07-.29c-.08-.08-.13,0-.18,0l-.14,0s0,0,0,0,0-.08-.06-.07a.06.06,0,0,0,0,.09c0,.08,0,.15,0,.23s.22.06.32.12S142.69,110.93,142.61,111Z"/><path class="cls-1" d="M133.39,134.93a.16.16,0,0,0,.18-.13.23.23,0,0,1-.09-.08,1.86,1.86,0,0,1,.1-.2.34.34,0,0,0,.1-.29.07.07,0,0,1,0-.06.37.37,0,0,0,.07-.39l-.08,0s0,.08,0,.1,0,.17-.11.22,0,.06,0,.09,0,.05,0,.08-.11.22-.19.33a1,1,0,0,0-.08.18C133.23,134.87,133.26,134.92,133.39,134.93Z"/><path class="cls-1" d="M130.65,140.23c-.11-.07-.18,0-.28,0C130.48,140.35,130.55,140.27,130.65,140.23Z"/><path class="cls-1" d="M134,130.63a1.23,1.23,0,0,0-.09.29c.17,0,.2-.13.29-.2s0-.09,0-.13.2-.1.25-.22,0,0,0-.05-.14-.16-.26-.1a.17.17,0,0,0-.07.17A.61.61,0,0,1,134,130.63Z"/><path class="cls-1" d="M138.61,126.26c0-.06-.08,0-.08-.09s0-.15-.05-.18-.16,0-.21.1A.61.61,0,0,0,138.61,126.26Z"/><path class="cls-1" d="M140.51,120.81c.06,0,.09-.13.16-.17s0-.2,0-.29l0,0c-.12-.07-.15,0-.21.07a.87.87,0,0,0,0,.32C140.38,120.78,140.43,120.82,140.51,120.81Z"/><path class="cls-1" d="M136.21,109.34l0-.08a0,0,0,0,0,0-.07c-.17-.07-.17-.07-.27.06C136,109.33,136.11,109.38,136.21,109.34Z"/><path class="cls-1" d="M137.41,128.26c-.08-.06-.15,0-.2,0s0,.15-.06.21-.12,0-.18,0a1,1,0,0,0,.37.08A1,1,0,0,0,137.41,128.26Z"/><path class="cls-1" d="M133.74,118.07a.64.64,0,0,1,0-.23s0-.1,0-.16a.61.61,0,0,0-.13.43S133.74,118.1,133.74,118.07Z"/><path class="cls-1" d="M131.74,129.82c.12-.07.07-.21.14-.3s-.09,0-.1,0a1,1,0,0,1-.08.18S131.67,129.8,131.74,129.82Z"/><path class="cls-1" d="M129.69,138.76a.48.48,0,0,0-.32-.11C129.49,138.81,129.57,138.84,129.69,138.76Z"/><path class="cls-1" d="M136,110.7c-.08,0-.15,0-.21,0C135.86,110.8,135.86,110.8,136,110.7Z"/><path class="cls-1" d="M108.93,102.14c.09,0,.1-.07.1-.11l0-.14s0-.07-.06-.1-.06,0-.1,0a.28.28,0,0,0-.1.21C108.82,102.08,108.87,102.15,108.93,102.14Z"/><path class="cls-1" d="M130,138.84a.85.85,0,0,0,.34.14c.11-.11.09-.27.18-.38s0,0,0,0h0c-.17.06-.29.2-.46.26Z"/><path class="cls-1" d="M130.67,139.68l.23-.17s0-.06,0-.11a.3.3,0,0,1-.26,0h-.07c-.08,0-.11.06-.08.14A.16.16,0,0,0,130.67,139.68Z"/><path class="cls-1" d="M131.34,134.34c-.05,0-.05.1-.07.15s.09,0,.12.08a.12.12,0,0,0,0,.14c-.06.07-.09,0-.14,0l-.08.08c0,.13,0,.13.17.08l.08,0a.1.1,0,0,0,.1-.07,1.24,1.24,0,0,1,.17-.27s0,0,0,0-.06,0-.08,0a0,0,0,0,1-.07,0s-.07,0,0-.08-.05-.06,0-.11.07-.08,0-.13a.13.13,0,0,0-.13,0C131.35,134.23,131.41,134.3,131.34,134.34Z"/><path class="cls-1" d="M133.78,128.1l0,0c.1,0,.13,0,.17-.1a.47.47,0,0,1,.13-.24,0,0,0,0,0,0,0,.19.19,0,0,0-.19,0,.26.26,0,0,0,0,.15s.06.08,0,.14S133.83,128.05,133.78,128.1Z"/><path class="cls-1" d="M136.19,130.71c.23.1.28-.1.38-.22a.46.46,0,0,0-.56,0C136,130.59,136.22,130.57,136.19,130.71Z"/><path class="cls-1" d="M143.28,121a.08.08,0,0,0,.05.09c.06,0,.08-.06.11-.11s0-.2.09-.27a.85.85,0,0,0,.12-.37c0-.06,0-.11,0-.17a1.06,1.06,0,0,1,0-.31s0-.06,0-.08,0,.07,0,.2,0,.07-.08.08a.13.13,0,0,0-.08.11.67.67,0,0,1-.16.3.26.26,0,0,0-.06.32A.54.54,0,0,1,143.28,121Z"/><path class="cls-1" d="M146.5,110.23a.14.14,0,0,1,.05-.08.3.3,0,0,0,.16-.17c-.1,0-.12,0-.16,0a.69.69,0,0,0-.14.3A.11.11,0,0,0,146.5,110.23Z"/><path class="cls-1" d="M135.75,132.66a.4.4,0,0,0-.25,0,1.29,1.29,0,0,1,.25.29s.08,0,.14,0A.36.36,0,0,1,135.75,132.66Z"/><path class="cls-1" d="M135.74,132.39a1.05,1.05,0,0,1,.16-.4.06.06,0,0,0,0-.06.1.1,0,0,0-.11,0c-.06.07,0,.21-.18.21a.38.38,0,0,1-.23.38c.05.05.09.08.13,0a.09.09,0,0,1,.1,0C135.69,132.5,135.71,132.46,135.74,132.39Z"/><path class="cls-1" d="M142.1,123.3c0-.08,0-.15,0-.23s-.14,0-.15.12S142,123.29,142.1,123.3Z"/><path class="cls-1" d="M119.71,132.27a.63.63,0,0,0,.19,0s0,.1.08.11a.15.15,0,0,0,.1-.08c-.12,0-.14-.11-.19-.18S119.77,132.23,119.71,132.27Z"/><path class="cls-1" d="M143.57,112.23c.05,0,.1,0,.13,0s0-.06,0-.09a.08.08,0,0,0,0-.09l-.11,0a.14.14,0,0,0-.13.13A.09.09,0,0,0,143.57,112.23Z"/><path class="cls-1" d="M142.61,123c-.1.07-.22.11-.24.26l.16,0a.31.31,0,0,0,.16-.22A.27.27,0,0,0,142.61,123Z"/><path class="cls-1" d="M147.14,114.11a1.61,1.61,0,0,1,.38,0,.12.12,0,0,0,.14-.1l-.07-.06a.27.27,0,0,1-.11-.33.44.44,0,0,0,0-.23c-.09,0-.18,0-.21,0a1.29,1.29,0,0,0-.26.54S147.09,114.05,147.14,114.11Z"/><path class="cls-1" d="M143.81,114a.55.55,0,0,0,.12-.19.42.42,0,0,1,.22-.3c-.05-.08.09-.15,0-.24s-.08.16-.16.19-.14.11-.23.1,0,0,0,0-.1.21-.22.26,0,0,0,0a.62.62,0,0,0,.06.37A3.23,3.23,0,0,1,143.81,114Z"/><path class="cls-1" d="M140.23,122.86c-.07-.12-.09-.13-.2-.11s.08.07.06.13-.12,0-.17.05C140,123.08,140.12,123.06,140.23,122.86Z"/><path class="cls-1" d="M145.27,110.54s.07,0,.1,0l.1-.1c0-.12,0-.12-.05-.16a.3.3,0,0,0-.16.17S145.24,110.52,145.27,110.54Z"/><path class="cls-1" d="M141.77,119.2a.39.39,0,0,0-.15.16.56.56,0,0,1-.16.21c0,.06,0,.09.12.08a.36.36,0,0,1,.19-.28A.1.1,0,0,0,141.77,119.2Z"/><path class="cls-1" d="M136.4,132.85a.09.09,0,0,0,.09-.08.22.22,0,0,1,.17-.19c0-.05.05-.09,0-.15a.15.15,0,0,0-.13,0c0,.05,0,.1-.08.12s-.18.16-.26.26S136.33,132.86,136.4,132.85Z"/><path class="cls-1" d="M139.73,126.12a.58.58,0,0,1,0,.18.37.37,0,0,0,.18,0,.38.38,0,0,1,.12-.16.12.12,0,0,0,0-.17l-.13,0A.14.14,0,0,0,139.73,126.12Z"/><path class="cls-1" d="M138,130a.91.91,0,0,1-.22.35c0,.06.1.09.13,0s.11-.09.17-.13a.15.15,0,0,0,.08-.18C138.12,130,138.09,130,138,130Z"/><path class="cls-1" d="M145.57,111.37l.24-.23a.51.51,0,0,0,.11-.22.34.34,0,0,1,.09-.19s0,0,0,0a.43.43,0,0,0-.15.2c-.07.19-.25.24-.41.34l0,.09C145.45,111.4,145.52,111.41,145.57,111.37Z"/><path class="cls-1" d="M122.67,126.25c-.13,0-.16.09-.12.21S122.62,126.33,122.67,126.25Z"/><path class="cls-1" d="M114.36,99.05c.16,0,.12-.18.14-.28a.23.23,0,0,0-.11-.19c-.14,0-.18.09-.19.2A.24.24,0,0,0,114.36,99.05Z"/><path class="cls-1" d="M115.59,99.94a.18.18,0,0,0,.07.08l.18.06c.11,0,.25,0,.25-.13a1,1,0,0,1,.06-.23.1.1,0,0,0-.07-.14,1,1,0,0,1-.25-.13s-.08-.07-.13-.07a.48.48,0,0,0-.15.29A1.26,1.26,0,0,0,115.59,99.94Z"/><path class="cls-1" d="M102.56,129.69a1.6,1.6,0,0,1,0,.29,1.93,1.93,0,0,0,0,.24l.07,0a.2.2,0,0,0,.28-.17.92.92,0,0,0,0-.37.86.86,0,0,1,0-.39.08.08,0,0,0,0,0,1.92,1.92,0,0,1-.24,0,.1.1,0,0,1,0,0,.23.23,0,0,0-.08.27Z"/><path class="cls-1" d="M101.32,129.51a.33.33,0,0,0,0,.2,1.32,1.32,0,0,1,.08.33.45.45,0,0,0,.12.21.69.69,0,0,0,.18-.16.84.84,0,0,0,.1-.29,1.68,1.68,0,0,0,.07-.44c0-.07,0-.13,0-.19a.48.48,0,0,0-.16-.44.24.24,0,0,0-.26.11,1.18,1.18,0,0,0-.11.19.54.54,0,0,0,0,.21C101.3,129.34,101.33,129.42,101.32,129.51Z"/><path class="cls-1" d="M120.23,101.44a.3.3,0,0,0-.25-.07c-.06,0-.06.07-.07.11S120.05,101.57,120.23,101.44Z"/><path class="cls-1" d="M103.92,121.45s0,0,0,0a1.59,1.59,0,0,0,.16-.32.32.32,0,0,0,0-.34.1.1,0,0,0-.07,0l-.12.31-.06.12C103.81,121.33,103.82,121.37,103.92,121.45Z"/><path class="cls-1" d="M118.64,100.8c0-.06.1-.12.07-.21a.41.41,0,0,0-.15-.25.35.35,0,0,0-.33,0,.17.17,0,0,0-.07.28A.46.46,0,0,0,118.64,100.8Zm-.29-.45s.06,0,.1,0,0,.09,0,.14a.12.12,0,0,1-.13,0A.24.24,0,0,1,118.35,100.35Z"/><path class="cls-1" d="M116.46,100a.12.12,0,0,0,.14,0,.12.12,0,0,1,.12,0,.73.73,0,0,0,.47-.06.54.54,0,0,0,0-.56l0,0c-.1,0-.19-.09-.29,0s-.06,0-.09,0a.31.31,0,0,0-.16.06c-.1,0-.14.13-.23.21a.27.27,0,0,1,0,.27A.09.09,0,0,0,116.46,100Z"/><path class="cls-1" d="M117.88,100.52a.23.23,0,0,0,.08-.14.16.16,0,0,0-.09-.15c-.06,0-.1,0-.13.06s-.07.08-.07.15A.32.32,0,0,0,117.88,100.52Z"/><path class="cls-1" d="M99.75,128l0,.12.06.06c.09.1.22.1.3-.06s0-.06,0-.07a.81.81,0,0,0,.22-.3.41.41,0,0,1,0-.08l-.06,0a.25.25,0,0,0-.22.08c-.11,0-.18.06-.26.12S99.75,128,99.75,128Z"/><path class="cls-1" d="M102.37,120.12a.32.32,0,0,0-.19.17c-.06.13-.16.24-.22.38a.36.36,0,0,1,0,.1c0,.07,0,.1.11.1s.12,0,.15-.06.12-.25.17-.38a.45.45,0,0,1,.16-.24C102.51,120.1,102.46,120.08,102.37,120.12Z"/><path class="cls-1" d="M135.37,108.89a.25.25,0,0,0,.19.11.68.68,0,0,1,.07-.45c0-.09-.1-.08-.16-.07a.33.33,0,0,0-.17.2v0A1.46,1.46,0,0,0,135.37,108.89Z"/><path class="cls-1" d="M103.67,118.36a.21.21,0,0,0-.27-.09l.13.16A.14.14,0,0,0,103.67,118.36Z"/><path class="cls-1" d="M107.75,105.09l-.06.19a.27.27,0,0,0,.1.28,1.76,1.76,0,0,0,.12-.53C107.81,105,107.78,105,107.75,105.09Z"/><path class="cls-1" d="M102.87,121.07c0-.09.07-.19.12-.28a.14.14,0,0,0,0-.17.33.33,0,0,1,0-.22.77.77,0,0,0,0-.15.21.21,0,0,0-.26-.07c-.06,0,0,.11,0,.16a.45.45,0,0,1,0,.36c0,.09-.1.17-.15.27s-.11.07-.1.15.08.09.11.15,0,0,0,0a1.19,1.19,0,0,1,.42,0H103a.43.43,0,0,0,.22,0,.44.44,0,0,1,.25.06c.13,0,.13.06.24-.06a.3.3,0,0,1,0-.1.12.12,0,0,0-.09-.1.29.29,0,0,1-.21-.19.16.16,0,0,0-.15-.11.14.14,0,0,0-.11.12.29.29,0,0,1-.13.19.19.19,0,0,1-.09.09S102.85,121.13,102.87,121.07Z"/><path class="cls-1" d="M109.48,102.69s.06,0,.1,0a.16.16,0,0,0,.08-.09,1.29,1.29,0,0,0,0-.33s0,0-.07-.06a0,0,0,0,0-.06,0,1.36,1.36,0,0,0-.14.33A.14.14,0,0,0,109.48,102.69Z"/><path class="cls-1" d="M99.07,129.76a1.75,1.75,0,0,0-.32.12c-.07.05,0,.14-.07.21s0,.09,0,.12.2.07.32.11.12-.07.13-.14a1.22,1.22,0,0,0,0-.33S99.11,129.75,99.07,129.76Z"/><path class="cls-1" d="M99.51,126.87c.06,0,.1,0,.13,0a.35.35,0,0,0,0-.29A.66.66,0,0,0,99.51,126.87Z"/><path class="cls-1" d="M103.56,130.34a.05.05,0,0,0,0-.09s-.07-.08-.13-.07,0,.07-.08.1a.08.08,0,0,0,.07.07Z"/><path class="cls-1" d="M130.7,112.09a.37.37,0,0,0,.15-.38A.68.68,0,0,0,130.7,112.09Z"/><path class="cls-1" d="M132.36,107.29a.29.29,0,0,0,.06-.11.32.32,0,0,1,.11-.17.74.74,0,0,0,.19-.16.1.1,0,0,0,0-.16c-.08,0-.1.06-.13.11a.28.28,0,0,1-.12.16.38.38,0,0,0-.23.35A.07.07,0,0,0,132.36,107.29Z"/><path class="cls-1" d="M125.05,116.47l-.1.13c.12.07.19,0,.31,0A1.11,1.11,0,0,0,125.05,116.47Z"/><path class="cls-1" d="M133.7,105.77a.06.06,0,0,1,0,.08c-.1.07-.1.07-.07.11a1.29,1.29,0,0,0,.31-.54.11.11,0,0,0,0-.11.15.15,0,0,1-.07,0c-.1,0-.17.11-.25.17a.14.14,0,0,0,0,.16A.18.18,0,0,0,133.7,105.77Z"/><path class="cls-1" d="M103.77,130.28a.21.21,0,0,0,.13.05,1.14,1.14,0,0,1,.16-.15c.06,0,.14-.06.16-.15A.15.15,0,0,0,104,130s-.08.07-.14.05,0,0,0,0Z"/><path class="cls-1" d="M132.38,116.89c0-.12.12-.21.09-.36a.33.33,0,0,0-.12.12c0,.09,0,.19-.08.3A.15.15,0,0,0,132.38,116.89Z"/><path class="cls-1" d="M133.09,110.05a.41.41,0,0,1,.07-.15,3.35,3.35,0,0,0,.29-.44,2.12,2.12,0,0,0,.11-.21.94.94,0,0,1,.25-.34.6.6,0,0,0,.11-.12l0,0h0a.7.7,0,0,0-.28.31.72.72,0,0,1-.15.27,1.71,1.71,0,0,0-.11.14c-.06.09-.1.2-.22.22a.41.41,0,0,1-.13.24s-.07.07,0,.12A.58.58,0,0,0,133.09,110.05Z"/><path class="cls-1" d="M128.11,121.51a.23.23,0,0,0,.09-.3A1.32,1.32,0,0,0,128.11,121.51Z"/><path class="cls-1" d="M124.73,127.34a.07.07,0,0,0,0-.08q-.33,0-.27.27C124.57,127.43,124.62,127.35,124.73,127.34Z"/><path class="cls-1" d="M107.52,132.15c.09-.14.09-.14,0-.24s-.1.08-.09.16S107.46,132.14,107.52,132.15Z"/><path class="cls-1" d="M105.79,133.19s0-.09,0-.14a.71.71,0,0,1,.17-.32.55.55,0,0,0,.14-.23c-.15-.07-.22,0-.24.11a.62.62,0,0,1-.23.45s0,.05-.06.07a.11.11,0,0,0,0,.13A.42.42,0,0,0,105.79,133.19Z"/><path class="cls-1" d="M104.61,132.14a.08.08,0,0,0,.07,0c.06-.1.16-.17.17-.3s-.1-.09-.19,0-.15.13-.24.18a.4.4,0,0,1-.22.31s0,0,0,0-.16.17-.2.31a2,2,0,0,0,.31-.24A.7.7,0,0,1,104.61,132.14Z"/><path class="cls-1" d="M103.59,132.43s0,.09.1.1a2.73,2.73,0,0,1,0-.5.11.11,0,0,0-.08-.13.41.41,0,0,0-.19.22s0,.08,0,.1S103.55,132.37,103.59,132.43Z"/><path class="cls-1" d="M108.91,132.84a.14.14,0,0,0,.18,0l.09-.09a.29.29,0,0,0,0-.3.1.1,0,0,0-.12,0c-.1.09-.26.13-.27.31S108.84,132.81,108.91,132.84Z"/><path class="cls-1" d="M120.35,129.61c.1.08.16-.08.25,0s-.06,0,0,.08.22,0,.29-.2c-.08-.06-.17,0-.28-.06C120.55,129.55,120.42,129.55,120.35,129.61Z"/><path class="cls-1" d="M118.88,135.09a.2.2,0,0,0,0-.22.13.13,0,0,0-.11-.06.14.14,0,0,0-.12.21.51.51,0,0,1,.07.34l-.12.11c-.1.06-.2.13-.33.07s-.09,0-.12,0,.1.08.15.13a.25.25,0,0,0,.41,0,.47.47,0,0,1,.12-.09C118.84,135.42,118.78,135.25,118.88,135.09Z"/><path class="cls-1" d="M122.3,127.1a.29.29,0,0,1,.06-.16.44.44,0,0,0-.22,0s-.09,0-.09.07-.07.12-.13.13-.22.17-.36.14,0,0,0,0A1.13,1.13,0,0,0,122.3,127.1Z"/><path class="cls-1" d="M130.42,136.46c.11,0,.16,0,.17.13v.13a.56.56,0,0,1-.17.09c-.07,0,0-.12-.12-.14-.05.19,0,.31.23.35.27-.19.31-.24.33-.37-.07,0-.12.12-.21.08s0-.2.19-.21l.08,0a.07.07,0,0,0,0-.06.07.07,0,0,0,0-.05.4.4,0,0,0-.19,0s-.08,0-.12,0a.23.23,0,0,0-.27.06v0S130.4,136.46,130.42,136.46Z"/><path class="cls-1" d="M166.59,128.69a2.93,2.93,0,0,0-.24,1.23l0,0a.05.05,0,0,0,.08,0,.05.05,0,0,0,0-.08c-.08-.09,0-.19,0-.29s.12-.27.32-.3h0a.53.53,0,0,0,.05-.3A1.55,1.55,0,0,1,166.59,128.69Z"/><path class="cls-1" d="M168.92,122.05a.32.32,0,0,1,.3-.1c.05-.07.09-.13.05-.22s-.14-.08-.23,0,0,0-.07,0,0-.09,0-.14,0,0,0,0a2.14,2.14,0,0,0-.09.27.11.11,0,0,0,0,.08.54.54,0,0,1,.06.25.07.07,0,0,0,0,.08C169,122.22,169,122.18,168.92,122.05Z"/><path class="cls-1" d="M169.41,121.9c0,.08-.12.16,0,.26s.12,0,.18,0,.11.11.24,0C169.73,122,169.64,121.91,169.41,121.9Z"/><path class="cls-1" d="M169,121.27c.14.07.14.07.2,0s0,0,0,0,.06-.17.06-.26-.08,0-.09,0S169,121.14,169,121.27Z"/><path class="cls-1" d="M170.21,121.29a.11.11,0,0,0-.09-.07.07.07,0,0,0-.07.06.27.27,0,0,1-.1.17.08.08,0,0,0,0,.1c.09.06.09.06.15,0a.35.35,0,0,1,.13-.11C170.2,121.38,170.23,121.34,170.21,121.29Z"/><path class="cls-1" d="M171,118.26l-.14,0a.11.11,0,0,0-.09.1,2.45,2.45,0,0,1,0,.27c.14.08.18.08.26,0s0-.1.1-.12S171.05,118.33,171,118.26Z"/><path class="cls-1" d="M169.74,120.07c-.05-.09-.08-.2-.2-.23s0,0-.06.11a2.09,2.09,0,0,1-.08.34.13.13,0,0,1-.1.1c-.06,0-.06.06,0,.11s.11-.09.15-.13C169.64,120.4,169.65,120.19,169.74,120.07Z"/><path class="cls-1" d="M170.58,120.37c.13,0,.09-.12.1-.2s-.05-.07-.1-.08a.38.38,0,0,0-.1.2A.19.19,0,0,0,170.58,120.37Z"/><path class="cls-1" d="M170.34,119.14a.53.53,0,0,0,.32.23c0,.07,0,.12,0,.18s.05,0,.08,0a.25.25,0,0,0,0-.19.08.08,0,0,1,0-.1.39.39,0,0,0,0-.26c0-.18-.06-.22-.25-.21S170.39,119,170.34,119.14Z"/><path class="cls-1" d="M170.13,122.14c0,.1,0,.1.11.12a.08.08,0,0,0,0-.09.1.1,0,0,1,0-.15c.06,0,0-.08,0-.13s0,0,0-.09,0-.09,0-.11a.12.12,0,0,0-.13,0c-.06.06-.15.12-.14.23s0,.07,0,.11Z"/><path class="cls-1" d="M168.2,128.92c0-.06.07-.09.1-.14a.31.31,0,0,0-.18-.05C168.17,128.78,168.14,128.86,168.2,128.92Z"/><path class="cls-1" d="M170,124.11c0-.11,0-.2,0-.29s-.08,0-.07-.1,0-.1-.07-.15a.07.07,0,0,0-.09,0,.07.07,0,0,0,0,.1.29.29,0,0,1,0,.16.93.93,0,0,1-.11.19A.89.89,0,0,0,170,124.11Z"/><path class="cls-1" d="M167.37,130.67c.12.12.16.25.26.35,0-.1.08-.18,0-.28S167.49,130.67,167.37,130.67Z"/><path class="cls-1" d="M169.73,123.22c-.06,0-.1,0-.16,0s-.09.05-.09.1,0,.13,0,.16a.19.19,0,0,0,.28-.13A.3.3,0,0,0,169.73,123.22Z"/><path class="cls-1" d="M170.11,123a.08.08,0,0,0,0,.08s.07,0,.11,0a.13.13,0,0,0,.05-.13.38.38,0,0,1,0-.15c-.1-.07-.09.06-.14.06s-.13-.06-.2,0a.57.57,0,0,0-.06.28.13.13,0,0,0,.12,0,.35.35,0,0,0,.06-.16c0-.05,0-.07.07-.05S170.12,122.93,170.11,123Z"/><path class="cls-1" d="M170.71,119.75a.06.06,0,0,0,0-.1l-.09-.06-.06,0a.64.64,0,0,1-.25.18.11.11,0,0,0-.07.12,1.92,1.92,0,0,1,0,.24c.07,0,.14,0,.21,0s0-.05.06-.07.08-.1,0-.19,0-.06,0-.08.05,0,.09,0A.72.72,0,0,0,170.71,119.75Z"/><path class="cls-1" d="M171,119.89c.07,0,0,.16.1.22.05-.1.17-.17.15-.31S171.17,119.73,171,119.89Z"/><path class="cls-1" d="M171.07,120.83a.42.42,0,0,0,0-.29.53.53,0,0,1,0-.28s0,0,0-.05-.13.13-.22.18.08,0,.08.11,0,.39-.12.54c0,0,.08,0,.1,0A1.42,1.42,0,0,0,171.07,120.83Z"/><path class="cls-1" d="M171.3,119a.15.15,0,0,0,.07.16c0-.07,0-.15,0-.22S171.31,118.94,171.3,119Z"/><path class="cls-1" d="M82.1,74.4a2.8,2.8,0,0,1-.53-.27l-1.43-.53c.12.11.11.18.36.33.06,0,.12.07.11.09s.11.19.9.49l1.68.65c.54.21,1.08.41,1.65.61a4.79,4.79,0,0,0-.67-.32,5.15,5.15,0,0,1-1.09-.54A5.06,5.06,0,0,0,82.1,74.4Z"/><path class="cls-1" d="M156.46,147.34s0,.07,0,.12a.06.06,0,0,0,.05,0,.07.07,0,0,0,.07,0,.33.33,0,0,0,0-.14S156.48,147.3,156.46,147.34Z"/><path class="cls-1" d="M117.54,87.66c.53.21,1.07.43,1.55.65a9.89,9.89,0,0,0-1.35-.63C117.54,87.61,117.47,87.6,117.54,87.66Z"/><path class="cls-1" d="M25.56,53.85c.51.18.81.36,1.28.53.15,0,.16,0,0-.08A11.9,11.9,0,0,0,25.56,53.85Z"/><path class="cls-1" d="M105.77,83.31a9.77,9.77,0,0,0-1.13-.44c-.47-.16-1-.33-1.41-.47a5.42,5.42,0,0,1-.7-.27,10.35,10.35,0,0,0-1.69-.64L99.31,81a17,17,0,0,1-2.54-1l-.25-.13c-.18,0-.42-.16-.66-.21s-.17,0,0,.17c.91.35,1.85.66,2.74,1,.7.22,1.4.5,2.1.74a7.19,7.19,0,0,1,1,.42c.58.17,1.18.39,1.74.6s1,.35,1.42.53c.82.3,1.65.57,2.46.92a3.7,3.7,0,0,0,1.08.32c-.62-.24-1.13-.47-1.74-.69C106.34,83.53,106,83.4,105.77,83.31Z"/><path class="cls-1" d="M26.16,49.69c.68.27,1.38.52,2.07.78,1.43.54,2.88,1.09,4.33,1.58.76.3,1.55.53,2.31.84l.22.08c1.08.34,2.15.78,3.21,1.17s1.94.7,2.91,1.08c1.21.48,2.46.92,3.71,1.37,1.57.57,3.14,1.16,4.73,1.73l1.1.42c.67.26,1.32.48,2,.72.83.29,1.66.58,2.48.9.19.08.33.12.5.18.89.32,1.77.66,2.66,1l2.59.92c1.33.46,2.64,1,4,1.45l.13.06c.78.2,1.61.57,2.42.85,1.06.36,2.12.74,3.18,1.15.26.1.54.19.81.28,1.05.36,2.09.74,3.13,1.14.51.2,1,.38,1.57.58,1.33.51,2.68,1,4,1.5,1.07.37,2.14.77,3.21,1.14l1.11.4c1.5.54,3,1.1,4.46,1.66.3.11.61.23.9.32,1.15.38,2.31.81,3.45,1.22l3.52,1.28c.77.29,1.55.57,2.3.87.29.11.53.17.81.27.87.33,1.76.63,2.62,1l.38.14c.88.28,1.74.61,2.61.94.36.14.74.28,1.11.39s.69.25,1,.37c1,.37,2,.68,3.06,1.1l.68.24c1.51.54,3,1.11,4.5,1.66l.44.16c.43.14.83.29,1.26.46s.67.23,1,.35c.63.22,1.25.46,1.87.69,1.15.45,2.33.87,3.48,1.32.58.23,1.19.43,1.78.64l1.3.43c.74.24,1.49.53,2.23.82,1.32.51,2.64,1,4,1.51s2.62.95,3.9,1.37c.27.09.48.19.73.28,1.1.4,2.19.8,3.27,1.21s1.95.72,2.92,1.07l5,1.79c.75.28,1.5.58,2.25.83l1.8.63c.3.11.6.22.87.34s.47.19.73.28c1.1.41,2.22.81,3.31,1.23q1.35.51,2.7,1c1.14.4,2.27.84,3.42,1.22.7.23,1.45.51,2.16.8l1.45.56c1.24.47,2.48.9,3.72,1.35l.67.22c.34.11.7.24,1,.38s.62.25.93.37c.77.3,1.53.54,2.29.83,1,.37,2,.73,3,1.11l2,.76,4.45,1.68a5.56,5.56,0,0,0,1,.36c1.5.48,3,1,4.52,1.56.5.19,1,.33,1.49.52s1.25.44,1.87.65l2.79,1c.57.21,1.15.42,1.73.61l.37.13c1.12.43,2.25.8,3.37,1.21s2.21.81,3.32,1.2l3.86,1.39c.76.28,1.5.56,2.23.85l.29.11c1.26.41,2.49.92,3.74,1.35l.88.34c1.54.59,3.11,1.15,4.64,1.69,1.12.39,2.27.79,3.39,1.15s2.07.71,3.13,1.11,2.38.9,3.58,1.33c.69.24,1.35.5,2,.75l.81.31c.17.06.36.13.51.2a7.43,7.43,0,0,0,1,.41l.21.08a11.06,11.06,0,0,0,1.3.55,5.45,5.45,0,0,0,.53-2.59c-.11-1.33.35-2.72-.39-4-.17-.3.09-.49.09-.73,0-.9.77-1.77,0-2.65a1.44,1.44,0,0,0,.47-1.44c-.14-.62.44-1.35-.24-1.95,0,0,.15-.19.14-.29,0-.84.4-1.71,0-2.5a7.52,7.52,0,0,1-.41-2.92c0-.26.12-.53-.07-.75a3.25,3.25,0,0,1-.51-2.22c0-1.75-.22-3.48-.21-5.23a2.33,2.33,0,0,0-.22-.86,1.29,1.29,0,0,1-.2-.74,3.75,3.75,0,0,0-.38-1.83,1.49,1.49,0,0,1-.2-.74c.18-1.14-.54-2-1-2.94a1.75,1.75,0,0,1-.14-1.64c.46-1,.68-1.51-.44-2.44a1.82,1.82,0,0,1-.21-.29,3.6,3.6,0,0,0-.9-3c-.18-.24-.47-.52-.45-.75.08-.74-.4-1.25-.61-1.87-.06-.17-.22-.35-.14-.52.33-.65-.1-1-.46-1.46a1.75,1.75,0,0,1-.46-1.63,1.66,1.66,0,0,0-.23-1.28,22,22,0,0,1-1.11-2.42,57.37,57.37,0,0,0-2.43-5.64.81.81,0,0,1-.1-.54,1.66,1.66,0,0,0-.25-1.07,4.08,4.08,0,0,0-1.33-1.8c-.18-.45.26-.9-.18-1.23-.38-.13-.71.23-1.2.09a3.89,3.89,0,0,1-.95-.93,4.72,4.72,0,0,1,.15-.45c.41-.85,0-1.66-.11-2.49-.76-.47-.65-1.34-1-2a1.91,1.91,0,0,0-.77-1.05,2.84,2.84,0,0,1-1.37-2,4.21,4.21,0,0,0-1-1.71c-1-1.23-2.53-2.11-2.88-3.86,0-.09-.17-.16-.22-.26a14.71,14.71,0,0,0-2-2.5c-.46-.59-.64-1.31-1.11-1.89-1.28-1.6-2.63-3.13-3.9-4.73a15.33,15.33,0,0,0-2.09-2,10.12,10.12,0,0,1-1.07-1,6.06,6.06,0,0,0-1.74-1.68,1.49,1.49,0,0,1-.69-.71,4.81,4.81,0,0,0-1.47-1.67,5.64,5.64,0,0,1-.94-1,9.39,9.39,0,0,0-1.67-1.78,25.08,25.08,0,0,1-2.13-1.54A41.09,41.09,0,0,1,193.42,26a18.65,18.65,0,0,0-4.11-3.1,14.31,14.31,0,0,0-1.79-1.14c-1.59-.72-3-1.72-4.57-2.54A16.38,16.38,0,0,1,179,16.93a1.7,1.7,0,0,0-.62-.23,7.68,7.68,0,0,1-3-1.56,13.93,13.93,0,0,0-3.87-2.54,32.32,32.32,0,0,1-3.44-1.47,5.56,5.56,0,0,0-1.05-.64c-1.22-.46-2.37-1.08-3.55-1.6A11.32,11.32,0,0,0,161.9,8a34.41,34.41,0,0,1-4.42-1.52c-.94-.37-1.87-1-3-.57-.31.1-.56-.12-.83-.24a4,4,0,0,0-2.13-.61,2.54,2.54,0,0,1-1.49-.36c-.49-.24-1-.68-1.53-.62A6.52,6.52,0,0,1,146,3.76c-.7-.2-1.44,0-2.08-.18a10.37,10.37,0,0,0-2.73-.48,2.5,2.5,0,0,1-.54-.13,14.39,14.39,0,0,1-2.89-1.15,7.24,7.24,0,0,0-2.21-.49c-.78-.15-1.49-.71-2.34-.3-1.3-.49-2.77.08-4-.72-.32-.2-.81-.13-1.2-.24-.91-.24-1.76.19-2.64.22-.67,0-1.34-.17-2-.16a8,8,0,0,0-1.88.64,3.39,3.39,0,0,1-1.23.11,31.7,31.7,0,0,1-4.45-.39A12.66,12.66,0,0,0,112,.32c-.38,0-.71.32-1.07.25-1.64-.32-3.11.43-4.66.7a8.35,8.35,0,0,1-2,.26.79.79,0,0,0-.64.12,1.21,1.21,0,0,1-1.17.2,2.93,2.93,0,0,0-1.1.08c-1.35.19-2.67.52-4,.64a8.44,8.44,0,0,0-4.21,1.27,3.1,3.1,0,0,1-2.15.64,2.51,2.51,0,0,0-1.18.25c-1.19.37-2.27,1.2-3.64.89a.55.55,0,0,0-.4.14c-.58.58-1.37.52-2.07.72s-1.48.23-2.18.45a37,37,0,0,0-6,2.87c-1.81.92-7.07,1.4-7,2.11a.6.6,0,0,1-.83.64,1.47,1.47,0,0,0-1.16.26c-.69.34-1.39.68-2.06,1.08a21.58,21.58,0,0,0-2,1c-1.16.86-2.33,1.7-3.49,2.55a19.12,19.12,0,0,1-3.19,1.78,32.26,32.26,0,0,0-3.84,2.27c-1.13.75-2.28,1.5-3.43,2.23-1.83,1.16-3.38,2.71-5.12,4a14.09,14.09,0,0,0-2.17,1.73,20.88,20.88,0,0,1-4.62,4,6.25,6.25,0,0,0-2.17,1.87A30,30,0,0,1,30.52,40,41.64,41.64,0,0,0,27,44a6.73,6.73,0,0,1-.64,1,22.84,22.84,0,0,0-2.76,3.59Z"/><path class="cls-1" d="M121.08,88.86c.13,0,.34.09.35,0a6.26,6.26,0,0,0-1.52-.54C120.27,88.55,120.72,88.7,121.08,88.86Z"/><path class="cls-1" d="M134.35,93.6c.74.19.74.15,0-.17C134.11,93.4,134,93.42,134.35,93.6Z"/><path class="cls-1" d="M166.81,127.81s0,0-.05,0-.19,0-.22-.13,0,0-.08,0a.59.59,0,0,0,0,.45,2,2,0,0,1,.07.23,1.81,1.81,0,0,1,0,.23s0,0,0,0a.05.05,0,0,0,0,0c0-.11,0-.21,0-.32a.57.57,0,0,1,.19-.19C166.86,128,166.86,128,166.81,127.81Z"/><path class="cls-1" d="M170.21,118.93c-.16.07-.26,0-.35-.14s-.1,0-.14,0a.12.12,0,0,1,0,.13.08.08,0,0,0,.05.13s0,.07.08.09A.34.34,0,0,0,170,119s.06,0,.11,0,0,.1,0,.15,0,.09,0,.11a.26.26,0,0,0-.08.27.29.29,0,0,0,.15.24h0l.06-.08a1.37,1.37,0,0,1,0-.19.15.15,0,0,0,0-.09c-.07-.08-.06-.15,0-.23S170.31,119.05,170.21,118.93Z"/><path class="cls-1" d="M162.85,135.87c.05.12.1.22.14.33s.14,0,.14-.2A.88.88,0,0,1,162.85,135.87Z"/><path class="cls-1" d="M118.94,134.6c.08-.06.08-.14.1-.24a.83.83,0,0,0-.38,0C118.77,134.47,118.82,134.58,118.94,134.6Z"/><path class="cls-1" d="M163.27,128.92c0,.09,0,.19,0,.28a.05.05,0,0,0,0,0c.09,0,.06-.09,0-.13S163.28,129,163.27,128.92Z"/><path class="cls-1" d="M171.69,118.52c0-.11,0-.13-.11-.11s0-.08,0-.13,0-.06,0-.07-.12-.16-.15-.25h0a1.59,1.59,0,0,0-.13.13l.17.14s0,.09,0,.13.06.07.09.12-.11,0-.13.06a.26.26,0,0,0,.24.13Z"/><path class="cls-1" d="M163.28,129.7a1.16,1.16,0,0,1-.08.32s0,.09,0,.12l0,0a1.19,1.19,0,0,0,.11-.26C163.4,129.76,163.38,129.73,163.28,129.7Z"/><path class="cls-1" d="M163.56,132.26a.74.74,0,0,0,.07-.37s0-.06-.11,0a.28.28,0,0,0-.07.19,1.19,1.19,0,0,1-.11.42c0,.08-.06.2-.16.24s0-.09-.09-.06a.32.32,0,0,0,0,.27.17.17,0,0,1,0,.17,3.73,3.73,0,0,1-.2.4.13.13,0,0,0,0,.17c.08,0,.07-.12.13-.15s.2-.23.32-.32a.28.28,0,0,0,.08-.15s0-.08,0-.13a1,1,0,0,0,.12-.41A.56.56,0,0,1,163.56,132.26Z"/><path class="cls-1" d="M167.44,120.47a.43.43,0,0,0-.05.31A.31.31,0,0,0,167.44,120.47Z"/><path class="cls-1" d="M171,121.69c.07,0,.08.06.14.06a.26.26,0,0,0,0-.24l-.06.06c0,.05.05.05,0,.1S171,121.67,171,121.69Z"/><path class="cls-1" d="M148.7,138.56a1.89,1.89,0,0,1-.22.6.19.19,0,0,0,0,.16.65.65,0,0,1,0,.34c.08,0,.15.05.13.15a.21.21,0,0,0,0,.07.36.36,0,0,1,0,.23c-.07.19-.09.39-.15.58a0,0,0,0,0,0,.05c0-.05,0-.05.08-.19s.08-.31.12-.47a2.5,2.5,0,0,0,.05-.47,1,1,0,0,0,0-.39.22.22,0,0,1,0-.14.76.76,0,0,0,.05-.3.57.57,0,0,0,0-.13c0-.09.07-.16.06-.26A.5.5,0,0,0,148.7,138.56Z"/><path class="cls-1" d="M155.41,122a.43.43,0,0,0,0,.25.08.08,0,0,1,0,.08c-.06.07,0,.16,0,.25s.07-.12.1-.17.12-.16.11-.26,0-.23,0-.34a.27.27,0,0,0,0-.2.13.13,0,0,1,0-.09c.05-.22,0-.45.08-.67a0,0,0,0,0-.06,0,1,1,0,0,0-.12.6A1.56,1.56,0,0,1,155.41,122Z"/><path class="cls-1" d="M151.52,130.57a.53.53,0,0,0,0-.44C151.55,130.28,151.54,130.42,151.52,130.57Z"/><path class="cls-1" d="M151.51,130.8a1,1,0,0,0,0,.3C151.56,130.94,151.56,130.92,151.51,130.8Z"/><path class="cls-1" d="M157.7,115.6c-.13,0-.17,0-.16.14C157.63,115.73,157.65,115.64,157.7,115.6Z"/><path class="cls-1" d="M151.86,129.11a0,0,0,0,0,0-.06.6.6,0,0,1-.06-.22c0,.06-.07.11,0,.19a.15.15,0,0,1,0,.09,2.63,2.63,0,0,0-.06.39s.06,0,.07,0S151.82,129.23,151.86,129.11Z"/><path class="cls-1" d="M151.68,129.82a.21.21,0,0,0,0-.19,0,0,0,0,0-.06,0,1.54,1.54,0,0,0-.07.42s0,0,0,0A.29.29,0,0,1,151.68,129.82Z"/><path class="cls-1" d="M157.92,115.89a.53.53,0,0,1,0,.41s0,.07,0,.1a.07.07,0,0,0,.07,0,.46.46,0,0,1,.08-.13.54.54,0,0,0,.09-.32.27.27,0,0,1,0-.13l.06-.21c-.06-.09-.14-.08-.22-.08s-.15.13-.11.29C157.92,115.87,157.92,115.88,157.92,115.89Z"/><path class="cls-1" d="M152.13,132.51a.1.1,0,0,0,0-.09,1.2,1.2,0,0,0-.12.7s.06,0,0-.06a.15.15,0,0,1,0-.16C152.11,132.77,152.08,132.63,152.13,132.51Z"/><path class="cls-1" d="M154.14,114.46c0-.08.1-.17,0-.26C154.05,114.35,154.05,114.38,154.14,114.46Z"/><path class="cls-1" d="M158.53,116.06a.24.24,0,0,0,0,.24c0-.1.06-.18.08-.27a1.05,1.05,0,0,1,.13-.26.13.13,0,0,1,.12-.06.31.31,0,0,1,.12.05c0,.06,0,.11,0,.17a.44.44,0,0,1-.09.33.28.28,0,0,0,0,.12.31.31,0,0,1-.06.21.13.13,0,0,0,0,.09c.07,0,.07.08.11.12a.2.2,0,0,0,.08-.08,5.18,5.18,0,0,1,.28-.58s0,0,0-.08a.3.3,0,0,0,0-.26c.05-.07.09,0,.13,0s0,0,0,0a.16.16,0,0,0-.26-.19l-.08.09s0-.09,0-.13-.29,0-.44,0a.16.16,0,0,0-.07.18C158.61,115.9,158.57,116,158.53,116.06Z"/><path class="cls-1" d="M155.53,118.81a.11.11,0,0,0,.05.12.1.1,0,0,0,.13,0c0-.06,0-.11,0-.18a.38.38,0,0,1,0-.21,2,2,0,0,1,.14-.41.7.7,0,0,0,.09-.35,1.63,1.63,0,0,1-.17.11.39.39,0,0,0-.12.19c0,.09,0,.17,0,.26A3.85,3.85,0,0,0,155.53,118.81Z"/><path class="cls-1" d="M119.55,133.28c-.09,0-.07-.21-.23-.17v.2C119.4,133.35,119.48,133.39,119.55,133.28Z"/><path class="cls-1" d="M154.4,113.86c.07-.13.09-.27.15-.4a.3.3,0,0,0-.06-.28c-.06.22-.12.41-.18.6C154.33,113.82,154.34,113.86,154.4,113.86Z"/><path class="cls-1" d="M119.67,132.68c.1,0,.11,0,.09-.12s-.12,0-.17.05-.08-.07-.07-.13a.23.23,0,0,1,.11-.09.14.14,0,0,0,.08-.12c-.11.1-.26,0-.38.08s0,0,0,0C119.39,132.63,119.36,132.67,119.67,132.68Z"/><path class="cls-1" d="M152.77,120.37c-.08-.16-.08-.16-.16-.13a.32.32,0,0,0,0,.13C152.68,120.39,152.73,120.42,152.77,120.37Z"/><path class="cls-1" d="M154.07,118.89c.17,0,.2,0,.18-.18-.1.09-.23,0-.33,0s0,.25,0,.37S154,119.13,154.07,118.89Z"/><path class="cls-1" d="M153.26,120.71s.06-.1,0-.15,0-.1,0-.15.08.11,0,.2a.31.31,0,0,0,.17-.12c.06-.11.08-.24.13-.35a.11.11,0,0,0,0-.08c-.15-.09-.24,0-.34.09s-.19.18-.29.27a.33.33,0,0,0,.17.12C153.24,120.57,153.18,120.68,153.26,120.71Z"/><path class="cls-1" d="M172.11,118.08a.18.18,0,0,1,.09,0c0-.06,0-.14-.06-.19.09-.08.09-.1,0-.26l-.12.21.09.08C172.13,118,172.09,118,172.11,118.08Z"/><path class="cls-1" d="M154.05,129.23a1.94,1.94,0,0,0,.2-.5A.53.53,0,0,0,154.05,129.23Z"/><path class="cls-1" d="M170.61,117.58l.19,0c0-.08-.06-.11-.07-.17s-.19.1-.29,0a.09.09,0,0,0-.1,0,.21.21,0,0,0-.15.16c.09,0,.16.15.27.17C170.52,117.64,170.52,117.64,170.61,117.58Z"/><path class="cls-1" d="M170.38,118.14c-.1.11,0,.24.13.27s.08-.06.13-.11,0-.24-.12-.36C170.44,118,170.43,118.08,170.38,118.14Z"/><path class="cls-1" d="M171.24,119.27c0,.06.11.1.08.19.12-.07.12-.08.06-.2A.17.17,0,0,0,171.24,119.27Z"/><path class="cls-1" d="M170.86,117.89a.08.08,0,0,0,0,.08.49.49,0,0,1,.08.18.87.87,0,0,0,.17-.09c.06,0,.06-.08,0-.13s-.08,0-.12,0a0,0,0,0,1,0,0s.07,0,.08,0a2.37,2.37,0,0,1,0-.54.11.11,0,0,0-.1.12.27.27,0,0,1-.1.26s0,.08,0,.12S170.84,117.81,170.86,117.89Z"/><path class="cls-1" d="M172.39,117.68a.79.79,0,0,0-.17-.14s-.06,0-.06.07C172.33,117.69,172.33,117.69,172.39,117.68Z"/><path class="cls-1" d="M170.55,122.5c-.05,0-.09,0-.14,0s0,.06,0,.09a.36.36,0,0,0,0,.11l.12.07a.12.12,0,0,0,.14,0s.07-.06,0-.1,0-.11,0-.17Z"/><path class="cls-1" d="M172.08,118.38l-.05-.06c0-.11,0-.1-.1-.08a0,0,0,0,1,0,0s.05,0,0-.07-.09.06-.07.11S172,118.38,172.08,118.38Z"/><path class="cls-1" d="M171.24,117.24c0,.09,0,.16,0,.25s.13.06.21,0-.11-.08-.1-.16.06-.06.07-.1a.23.23,0,0,1,.16.08.75.75,0,0,1-.15.34.16.16,0,0,0,0,.07c.19,0,.23,0,.18.16a.31.31,0,0,0-.15.08l.05.12a.13.13,0,0,0,.19,0s0-.12,0-.18-.05,0,0-.06.15,0,.22-.07.06-.15,0-.2a1.51,1.51,0,0,1-.17.1c0-.05,0-.12,0-.17s0-.17.11-.23l0-.14s0,0-.06.08-.05.06-.11,0l0-.21s0,.09-.11.07a.18.18,0,0,1,.05-.12s-.11,0-.1-.06-.06.07-.08.12a.23.23,0,0,0,.1.07l-.05,0C171.38,117.22,171.31,117.27,171.24,117.24Z"/><path class="cls-1" d="M169.07,116.26a.48.48,0,0,1,.24.06c.06,0,.05-.09.11-.08s0,.09,0,.13h.06c0-.14,0-.14-.1-.18l-.15,0a.12.12,0,0,0-.14,0A.2.2,0,0,0,169,116a.19.19,0,0,0-.23,0,.4.4,0,0,1,.26.21A.06.06,0,0,0,169.07,116.26Z"/><path class="cls-1" d="M169.93,118.16c.1,0,.17,0,.27,0a.06.06,0,0,0,.05-.08c-.06-.05-.12,0-.18,0s-.1-.08-.17-.11a.09.09,0,0,0-.06.1S169.89,118.17,169.93,118.16Z"/><path class="cls-1" d="M166.18,122.84c.17-.06.1-.2.13-.3S166.18,122.6,166.18,122.84Z"/><path class="cls-1" d="M164.65,123.48a.77.77,0,0,0-.3.67A2.43,2.43,0,0,0,164.65,123.48Z"/><path class="cls-1" d="M166.6,119.24c.05.1,0,.22,0,.33s0,.23,0,.34a.45.45,0,0,1-.09.21.47.47,0,0,0-.11.13c.07,0,.05.12,0,.2s.08.08.07.14a.4.4,0,0,0,0,.22,1,1,0,0,1,0,.37.56.56,0,0,1,0,.13s0,0,.08,0l0,0a3,3,0,0,1,.21-.59s0,0,0,0,0-.15,0-.23a.59.59,0,0,0,0-.26.58.58,0,0,1,0-.26c0-.06,0-.11,0-.17a.72.72,0,0,1,0-.29.53.53,0,0,0,0-.28c0-.06-.05-.11,0-.17s0-.06-.07-.06a1,1,0,0,1,0,.17S166.58,119.2,166.6,119.24Z"/><path class="cls-1" d="M168.71,118.09a.47.47,0,0,1-.24-.1l-.09,0a.31.31,0,0,0,0,.19c0,.05,0,.14.07.16l0-.11c.1-.1.22,0,.33-.05A.17.17,0,0,0,168.71,118.09Z"/><path class="cls-1" d="M169.15,119.55a.4.4,0,0,0,.26.14.21.21,0,0,0,0-.2.47.47,0,0,1,0-.31.12.12,0,0,0-.17,0,.12.12,0,0,0-.06.16A.17.17,0,0,1,169.15,119.55Z"/><path class="cls-1" d="M168.62,120.11l.37.23a0,0,0,0,0,0,0s0,0,0,0l-.21-.11c-.09-.06-.1-.07-.09-.19a.29.29,0,0,1-.11-.2s0-.05-.07-.08a.1.1,0,0,0-.1,0c0,.15.15.26.17.41S168.61,120.1,168.62,120.11Z"/><path class="cls-1" d="M121.17,101.5c.06,0,.09-.06.08-.13s0-.11-.09-.12a.15.15,0,0,0-.16.06.53.53,0,0,0-.08.17C121,101.59,121.07,101.57,121.17,101.5Z"/><path class="cls-1" d="M82.22,103.47c.09,0,.18,0,.27,0s0-.07,0-.08c-.21.08-.13,0-.2-.12s-.14.22-.1.33S82.2,103.5,82.22,103.47Z"/><path class="cls-1" d="M81,108a1.17,1.17,0,0,0-.1.26,1.52,1.52,0,0,1,0,.23.24.24,0,0,0,.14,0,2.65,2.65,0,0,0,.36-.94c.09,0,.12-.09.16-.16l-.19-.05c-.07,0-.1.12-.19.14C81.28,107.66,81.08,107.83,81,108Z"/><path class="cls-1" d="M80.22,111.19c.07,0,.16,0,.24,0s-.17,0-.2-.09a.3.3,0,0,0,.06-.18c.06,0,.07,0,.11,0s0,0,0-.09l.12,0s.08.09.15.07,0-.11-.06-.14a1.3,1.3,0,0,0-.34,0A1,1,0,0,0,80.22,111.19Z"/><path class="cls-1" d="M81.66,105.67c.19-.11.46,0,.44-.32l-.09-.07c0-.15,0-.16-.16-.13s0,.17,0,.25,0,0-.09.11-.28.17-.36,0a1.32,1.32,0,0,0-.23.28C81.36,106,81.5,105.76,81.66,105.67Z"/><path class="cls-1" d="M78.26,116.78c-.08.1.2.15.25.13s0,.09,0,.12.24.17.36.17a.66.66,0,0,1,.45.13c.07,0,.13,0,.18,0s-.08-.15-.11-.15-.1,0-.15.09,0-.22-.15-.26-.13.06-.22.08-.09-.16-.13-.24S78.43,116.92,78.26,116.78Z"/><path class="cls-1" d="M79.26,103.46c-.07,0-.32.1-.27.19C79.08,103.59,79.27,103.62,79.26,103.46Z"/><path class="cls-1" d="M80.34,113.45c-.13,0-.14.2-.21.27s-.1,0-.14,0h.21C80.24,113.66,80.36,113.59,80.34,113.45Z"/><path class="cls-1" d="M78.68,111.77c-.07,0-.08.1-.15.11l0,.06s-.09.06,0,.15c.13-.06.28.07.44,0a.32.32,0,0,0,.24-.33c.17,0,.25.18.4.18s.12-.26.14-.33,0-.11,0-.15.13,0,.14-.13-.1-.19,0-.26,0-.11,0-.17.12-.16,0-.23-.07,0,0,.17a.69.69,0,0,0-.12.54,1.45,1.45,0,0,1-.4.3,2.4,2.4,0,0,1-.24,0c-.11.07-.06.13-.14.22a.37.37,0,0,1-.38,0C78.63,111.87,78.72,111.84,78.68,111.77Z"/><path class="cls-1" d="M79.5,114.23a1.09,1.09,0,0,1-.08.15c.09.07.37-.25.34-.32l-.3.09S79.51,114.19,79.5,114.23Z"/><path class="cls-1" d="M76.6,116s.17-.23,0-.16,0,.1-.1.14-.09,0-.15,0,0,.06,0,.11S76.51,116.05,76.6,116Z"/><path class="cls-1" d="M78.66,111c.11-.09.44-.49.26-.6-.1.1-.17.23-.28.32s-.11,0-.15-.09-.14.14-.18.26C78.44,110.93,78.53,111,78.66,111Z"/><path class="cls-1" d="M79.36,116c.16.15.61-.39.49-.53-.14.09,0,.29-.26.3a1.55,1.55,0,0,1,0-.15C79.5,115.71,79.33,115.8,79.36,116Z"/><path class="cls-1" d="M78.48,103a.64.64,0,0,0-.2.14c0,.16.18.52.34.47C78.52,103.38,78.63,103.09,78.48,103Z"/><path class="cls-1" d="M77.49,107.79c-.13,0-.09.22,0,.29a.36.36,0,0,1,.15,0C77.52,108,77.42,107.92,77.49,107.79Z"/><path class="cls-1" d="M81,105.16c-.06.07-.13.17-.22.18s-.11-.08-.18,0-.09.16-.07.27.08.09.14.17l0,0c.11-.11.21,0,.32,0s0-.29,0-.42S81,105.21,81,105.16Z"/><path class="cls-1" d="M83.41,98.42c.24-.11.34-.62.37-.83a.28.28,0,0,0-.18,0s-.08,0-.09-.09a.29.29,0,0,1,.14-.13,1.07,1.07,0,0,1,0-.25,2.42,2.42,0,0,1,0-.25c0-.06.23-.42,0-.41a4.09,4.09,0,0,1-.18.49,1.1,1.1,0,0,0-.17.32c-.06.26,0,.54-.09.8S83.17,98.53,83.41,98.42Z"/><path class="cls-1" d="M81.31,103.06s0,0-.09,0a.23.23,0,0,0,0,.27C81.27,103.2,81.29,103.13,81.31,103.06Z"/><path class="cls-1" d="M81.65,102.11c.08.06.16-.06.2-.11s0-.08,0-.2-.15-.21,0-.28.07,0,.13.06a.51.51,0,0,0,.17-.24c0-.1.09-.12.15-.21s.22-.35.19-.45-.14.19-.26.22c0,.21,0,.3-.17.34s0-.2-.08-.29c-.08.09-.07.19-.1.3s-.1.18-.13.27S81.78,102,81.65,102.11Z"/><path class="cls-1" d="M80.9,110.09c-.09.15-.1.19-.07.32A.22.22,0,0,0,80.9,110.09Z"/><path class="cls-1" d="M84.76,106.74c0,.14,0,.14.12.16a.91.91,0,0,0,.07-.14.54.54,0,0,0,.09-.12C84.92,106.57,84.9,106.76,84.76,106.74Z"/><path class="cls-1" d="M85.23,105.39c.2,0,.25,0,.24-.25-.06,0-.24,0-.29.09A.14.14,0,0,1,85.23,105.39Z"/><path class="cls-1" d="M82.24,113.72c.12,0,.14-.12.06-.32,0,0-.09,0-.12,0s.07.09.11.14S82.22,113.67,82.24,113.72Z"/><path class="cls-1" d="M82.9,112.41c0-.08,0-.22.19-.19s0,.15-.08.21.33-.16.08-.26S82.84,112.24,82.9,112.41Z"/><path class="cls-1" d="M84.18,109.68c-.18.16-.21.23-.13.35A.57.57,0,0,0,84.18,109.68Z"/><path class="cls-1" d="M80.19,120.59c.12,0,.49-.2.48-.33S80.26,120.47,80.19,120.59Z"/><path class="cls-1" d="M83.74,111.75s.07-.13.05-.17,0,0-.05,0a3.36,3.36,0,0,0-.18.56c-.07.16-.27.36-.14.53l.12,0c0-.21.16-.35.18-.56A2.45,2.45,0,0,1,83.74,111.75Z"/><path class="cls-1" d="M84.84,108.15a.29.29,0,0,0,.39-.15.22.22,0,0,0,.17,0c0-.08,0-.15,0-.24s-.15.16-.2.24a.56.56,0,0,1-.31,0C85,108,84.81,108,84.84,108.15Z"/><path class="cls-1" d="M81.12,117.08c0-.14-.1-.18.08-.26a1.51,1.51,0,0,1,.07-.37c0-.12.14-.23.11-.38a2,2,0,0,1-.29.59c-.07.13-.28.38-.25.51S81.09,117.16,81.12,117.08Z"/><path class="cls-1" d="M81.84,110c0,.12-.15.19-.1.34C81.92,110.16,82,110.07,81.84,110Z"/><path class="cls-1" d="M83.11,108.08c.2,0,.18-.16.06-.27s0-.11-.13-.12S83,108,83.11,108.08Z"/><path class="cls-1" d="M82,112.28a.81.81,0,0,0,0-.11c-.06,0-.16,0-.15-.09s.1,0,.15-.07,0-.07,0-.1-.25.09-.28.18S81.91,112.32,82,112.28Z"/><path class="cls-1" d="M82.92,109.56c0-.07,0-.11,0-.17a0,0,0,0,0-.07,0s0,.09,0,.13,0,0-.07,0a.28.28,0,0,0,0,.31C82.82,109.72,82.76,109.59,82.92,109.56Z"/><path class="cls-1" d="M81.59,111.65c-.16,0-.21.16-.11.32C81.64,111.89,81.66,111.82,81.59,111.65Z"/><path class="cls-1" d="M81.51,113.31a.18.18,0,0,0,0-.21s-.22-.14-.2-.15.1.43.2.46a.84.84,0,0,1-.09.53l.13,0c0-.11,0-.29,0-.41s.11-.09.19-.11.22.08.32.13C82.22,113.38,81.54,113.35,81.51,113.31Z"/><path class="cls-1" d="M82.25,112.25c.18,0,.2,0,.28-.16A.78.78,0,0,0,82.25,112.25Z"/><path class="cls-1" d="M84.3,107.09a.34.34,0,0,1,0-.14c-.13-.16-.18,0-.21.15S84.24,107.12,84.3,107.09Z"/><path class="cls-1" d="M82.87,110.36s.23-.21.17-.28-.24,0-.28.1S82.81,110.31,82.87,110.36Z"/><path class="cls-1" d="M82.25,89.35c-.14.05-.11.13-.17.24s-.17.11-.13.2S82.28,89.45,82.25,89.35Z"/><path class="cls-1" d="M71,109.16a.83.83,0,0,1-.24.22s0,0,0,.07C70.92,109.34,71,109.25,71,109.16Z"/><path class="cls-1" d="M67.18,117.41a2.49,2.49,0,0,0-.11.29.42.42,0,0,0,0,.33c0-.08.11-.1.16-.15a1.45,1.45,0,0,1,0-.29c0-.08.17-.14.13-.24A.19.19,0,0,1,67.18,117.41Z"/><path class="cls-1" d="M68.52,113.93a3.13,3.13,0,0,0,.23-.37.14.14,0,0,0-.07-.08c-.1,0-.16.29-.21.38s-.21.2-.19.28S68.48,114,68.52,113.93Z"/><path class="cls-1" d="M78.23,85.05s0,0-.1,0-.06.07-.08.13S78.24,85.18,78.23,85.05Z"/><path class="cls-1" d="M73.88,98.58a4.34,4.34,0,0,0,.07-.52C73.81,98.07,73.67,98.56,73.88,98.58Z"/><path class="cls-1" d="M75.37,102.83c0-.18.11-.33.14-.5-.13,0-.11.13-.13.22S75.28,102.71,75.37,102.83Z"/><path class="cls-1" d="M73.37,103.35c.12-.15.17-.33.28-.49-.11-.06-.19,0-.24.15a1,1,0,0,0-.12.32A.07.07,0,0,0,73.37,103.35Z"/><path class="cls-1" d="M71.6,108.14c0,.14-.16.3-.16.43.24-.15.29-.64.3-.89A1.07,1.07,0,0,0,71.6,108.14Z"/><path class="cls-1" d="M68.74,117.2c-.13,0-.11.27-.08.36C68.85,117.67,68.76,117.27,68.74,117.2Z"/><path class="cls-1" d="M4.44,111.88c.51.18.81.36,1.28.53.15,0,.16,0,0-.08A11.9,11.9,0,0,0,4.44,111.88Z"/><path class="cls-1" d="M6.39,80.09a7.6,7.6,0,0,0-.68,1.59c-.08.56-.26,1.12-.32,1.68-.15,1.41-.47,2.78-.69,4.17,0,.32.06.72-.17,1a1.38,1.38,0,0,0-.18,1.69c-1.33,1.2-1.19,3-1.85,4.45.34.83-.14,1.57-.25,2.34S2.09,98.51,2,99.28c-.1,1.14-.44,2.25-.46,3.42a4.39,4.39,0,0,1-.72,2.2,3.6,3.6,0,0,0-.44,1l1.81.68c.95.36,1.9.73,2.84,1.11.68.27,1.38.51,2.07.78,1.43.54,2.88,1.08,4.33,1.57.76.31,1.55.54,2.31.85L14,111c1.08.34,2.15.77,3.21,1.16s1.94.71,2.91,1.09c1.21.47,2.46.91,3.71,1.36,1.57.58,3.14,1.17,4.73,1.73.36.13.74.29,1.1.43.67.26,1.32.48,2,.71.83.3,1.66.59,2.48.91l.5.17c.89.32,1.77.67,2.66,1s1.73.62,2.59.92c1.33.45,2.64,1,3.95,1.45l.13,0c.78.2,1.61.58,2.42.85,1.06.36,2.12.75,3.18,1.16.26.1.55.19.81.28,1.06.36,2.09.73,3.13,1.14.51.2,1.05.38,1.57.58,1.33.5,2.68,1,4,1.49,1.07.38,2.14.78,3.21,1.14.36.12.74.28,1.11.41,1.5.53,3,1.1,4.46,1.65l.9.33c1.15.38,2.31.81,3.45,1.22l3.52,1.28c.77.29,1.55.56,2.3.86.29.12.53.17.81.28.87.32,1.76.62,2.62,1l.38.14c.88.29,1.74.61,2.61,1,.36.13.74.27,1.11.38s.69.25,1,.37c1,.37,2.05.69,3.07,1.1.2.09.45.17.67.25,1.51.54,3,1.1,4.5,1.66l.44.16c.43.14.83.29,1.26.46s.67.23,1,.35c.63.22,1.25.45,1.87.69,1.15.45,2.33.87,3.48,1.32.58.23,1.19.43,1.78.63.44.16.87.29,1.3.43.74.24,1.49.54,2.23.82,1.32.51,2.64,1,4,1.52s2.62,1,3.9,1.37c.27.08.48.19.73.28,1.1.4,2.19.8,3.27,1.21l2.92,1.07,5,1.79c.75.27,1.5.58,2.25.83.6.2,1.2.42,1.8.63.31.11.6.22.87.34s.48.19.73.28c1.1.41,2.23.81,3.31,1.22.9.35,1.81.68,2.7,1,1.14.41,2.27.84,3.42,1.22.7.24,1.45.51,2.16.8.47.2,1,.38,1.45.57,1.24.46,2.48.9,3.72,1.34l.67.23c.34.11.7.24,1,.38s.62.24.93.36c.77.3,1.53.55,2.29.83l3,1.11c.67.26,1.36.51,2,.76l4.45,1.69a5.52,5.52,0,0,0,1,.35c1.5.49,3,1,4.52,1.57.5.19,1,.33,1.49.52s1.25.43,1.87.65l2.79,1c.58.2,1.15.42,1.73.6l.37.14c1.12.43,2.25.8,3.37,1.21s2.21.81,3.32,1.2c1.29.45,2.58.93,3.86,1.39.76.27,1.5.55,2.23.84l.29.11c1.26.41,2.49.93,3.74,1.35.32.11.58.23.88.35,1.54.59,3.11,1.15,4.64,1.69,1.12.39,2.27.79,3.39,1.15s2.07.7,3.14,1.11,2.37.9,3.57,1.32c.69.25,1.35.51,2,.76l.81.31c.17.06.36.12.51.19a6.34,6.34,0,0,0,1,.41l.21.09a10,10,0,0,0,1.09.46,7.21,7.21,0,0,0,1.56-2.68c.13-.61.25-1.23.4-1.83a1,1,0,0,1,.58-.73,1.88,1.88,0,0,0,.91-1,10.56,10.56,0,0,1,.75-1.55,19.87,19.87,0,0,0,1.18-1.88c.26-.73.3-1.7,1.3-2,0,0,.1-.12.12-.19.21-.8.85-1.43.91-2.26.24-.08.37.21.55.08.25-.39-.4-.43-.2-.93a9.24,9.24,0,0,0,1.69-3.68c1.08-.05,1.22-.22,1.13-1.27a3.15,3.15,0,0,1,.42-2.5A1,1,0,0,0,228,162a25.13,25.13,0,0,0,.79-2.41,1.15,1.15,0,0,1,.76-1c.27.95-1,1.66-.4,2.78.61-1,.71-2.05,1.21-2.93a5.37,5.37,0,0,0,.31-1.9c-.56.08-.35.82-1,.82.1-.59,0-1.2.61-1.6a.52.52,0,0,0,.27-.46c-.06-.84.83-1.43.57-2.31a10.48,10.48,0,0,0,.91-3.14.58.58,0,0,1,.37-.43c.3.15.31.85.95.48a8.69,8.69,0,0,1,.27-2.43c-.5.56-.45,1.24-1.09,1.37-.19-.27-.36-.5-.15-.89a2.34,2.34,0,0,0,.42-1.45.7.7,0,0,1,.35-.73c.51-.14.67.49,1.12.42.34-1,.34-2.09,1-2.94a3.91,3.91,0,0,0,.58-2.32,2.94,2.94,0,0,1,.53-1.88c.12-.15.27-.3.24-.49-.17-1,.42-1.82.39-2.83a19.43,19.43,0,0,1,.63-4.31l-.54-.11a3.12,3.12,0,0,1-.54-.16l-.44-.15c-.3-.09-.53-.14-.9-.27-1.14-.42-2.31-.8-3.36-1.27l-.27-.12a35.46,35.46,0,0,0-3.48-1.31c-.59-.2-1.18-.44-1.77-.64-.14,0-.29-.11-.44-.15-.35-.1-.69-.23-1.08-.38s-.94-.35-1.41-.52c-.82-.3-1.66-.59-2.47-.9-1.74-.65-3.49-1.27-5.21-1.94-.75-.29-1.56-.58-2.35-.86s-1.44-.51-2.15-.79c-1-.39-1.95-.74-2.94-1-.49-.15-1-.36-1.53-.56l-.5-.19c-1.59-.55-3.14-1.16-4.7-1.73l-3.86-1.43c-.52-.19-1-.34-1.55-.55s-1.32-.48-1.95-.75c-.48-.2-1-.39-1.49-.54-1-.33-2.12-.7-3.2-1.09l-1.81-.66a11.08,11.08,0,0,1-1.08-.42,4.77,4.77,0,0,0-.5-.19c-.87-.31-1.74-.63-2.59-.9-.37-.12-.78-.26-1.12-.4-.53-.22-1.1-.4-1.62-.62a8.7,8.7,0,0,0-.9-.32c-.42-.14-.82-.29-1.25-.45-.59-.24-1.2-.46-1.79-.65l-.82-.29c-.88-.34-1.73-.61-2.59-.91s-2-.69-2.92-1.07l-.3-.11c-2.48-.86-5-1.75-7.41-2.69l-1.2-.44c-1-.37-2.09-.76-3.14-1.14-.58-.21-1.17-.42-1.75-.65-.3-.12-.64-.23-1-.34-.67-.22-1.35-.45-2.05-.72s-1.49-.56-2.25-.82l-1.13-.41c-.79-.29-1.59-.56-2.38-.86l-1-.35c-.67-.23-1.31-.49-1.95-.74l-.94-.33-1.86-.67c-.75-.28-1.49-.57-2.26-.84s-1.4-.48-2.1-.74l-.14,0c-.86-.37-1.77-.67-2.67-1-1.08-.39-2.17-.79-3.25-1.16-.78-.26-1.54-.53-2.31-.81l-.67-.26c-1.08-.42-2.17-.83-3.28-1.22-.79-.27-1.59-.56-2.38-.87a13.54,13.54,0,0,0-1.59-.54,18.47,18.47,0,0,1-1.75-.63c-.92-.36-1.84-.69-2.77-1-.43-.15-.85-.3-1.27-.47l-.44-.16c-.88-.31-1.72-.67-2.58-1s-1.61-.59-2.41-.9l-.59-.21c-1.1-.38-2.2-.76-3.28-1.19l-.28-.11c-1.09-.37-2.15-.77-3.22-1.18a15.3,15.3,0,0,0-1.57-.53l-.36-.12c-1.18-.46-2.38-.89-3.57-1.33-.53-.2-.9-.38-1.33-.58l-2.52-.86-1.93-.71c-.34-.13-.66-.27-1-.37a4.35,4.35,0,0,1-.6-.25c-.66-.27-1.34-.5-2-.72a4.44,4.44,0,0,1-1-.41,1.1,1.1,0,0,0-.31-.15,1.28,1.28,0,0,1-.35,0c-.32-.14-.72-.27-1.11-.42s-.72-.25-1.08-.37l-.6-.2c-.73-.29-1.46-.56-2.2-.8l-.6-.22a5.2,5.2,0,0,0-.72-.26l-.3-.1c-1.47-.55-3-1.07-4.42-1.59-1-.35-1.92-.72-2.88-1.06-.41-.15-.81-.26-1.24-.45s-.82-.29-1.22-.47a3.16,3.16,0,0,0-.52-.18c-.65-.21-1.32-.48-2-.7l-.37-.14c-1.05-.42-2.09-.75-3.14-1.12L63,68c-1.36-.5-2.73-1-4.1-1.49-.66-.23-1.32-.48-2-.7-.84-.29-1.69-.61-2.54-.93l-1.2-.44c-1-.35-2-.71-2.92-1l-.82-.3c-1.36-.52-2.73-1-4.1-1.48L45,61.45c-1.41-.55-2.85-1-4.28-1.56-.47-.18-.92-.37-1.4-.51s-1-.36-1.44-.56l-.52-.18c-.52-.16-1.06-.36-1.56-.56-.75-.28-1.48-.55-2.23-.8-.35-.12-.67-.26-1-.39l-2.8-1L27.29,55l-2-.7c-.53-.18-1.05-.36-1.56-.56-.32-.13-.67-.24-1-.36-.67-.26-1.35-.51-2-.75-.63.89-1.27,1.77-2,2.61a12.9,12.9,0,0,0-1.27,2A11.43,11.43,0,0,1,16,59.52a18.94,18.94,0,0,0-1.27,2c-.67,1-1.11,2.1-1.82,3a16.33,16.33,0,0,0-2.1,5.1,12.13,12.13,0,0,1-1,3c0,.28.36.35.19.61-.47-.28-.57.09-.69.3-.09.41.51.53.31.92s-.49-.09-.69.06A9.43,9.43,0,0,0,6.67,79,5.83,5.83,0,0,1,6.39,80.09Zm164.78,36.76c.08-.09.16-.1.29,0-.09,0-.12,0-.13.1s-.06.1-.13.11S171.11,116.91,171.17,116.85Zm-.1,0c0,.14,0,.16-.2.17a.25.25,0,0,1,0-.09C171,117,171,116.85,171.07,116.89Zm-.35-.34c0,.07-.08.16.06.21-.06,0-.12,0-.15.08a.43.43,0,0,0-.06-.24C170.64,116.63,170.65,116.52,170.72,116.55Zm-.35-.17c.07,0,.15,0,.17.11s-.16,0-.23,0S170.33,116.37,170.37,116.38Zm-18.11,2.7s0-.09,0-.14a.5.5,0,0,0,0-.32.1.1,0,0,1,0-.09c.07-.11.13-.24.19-.35a.86.86,0,0,0,.16-.42.48.48,0,0,1,.12-.37.17.17,0,0,0,.05-.14.47.47,0,0,1,.14-.31s.05-.09.1-.1,0-.23.06-.33.06-.08.16-.09.15-.57.16-.66a2,2,0,0,1,.09-.54,1.19,1.19,0,0,1,.08-.2.82.82,0,0,0,.1-.26.8.8,0,0,1,.17-.36c.06-.06,0-.12,0-.17s.08-.06.1-.09a.11.11,0,0,0,0-.11.39.39,0,0,1,.06-.21.39.39,0,0,0,.09-.23.39.39,0,0,1,.15-.25.61.61,0,0,0,.07-.1c0-.11,0-.11.17-.11a.14.14,0,0,1,0-.17c0-.07-.09,0-.12-.1a.66.66,0,0,1,0-.15.16.16,0,0,0,0-.09.4.4,0,0,1,.07-.24.52.52,0,0,0,.08-.3.31.31,0,0,1,.1-.24.14.14,0,0,0,0-.12.29.29,0,0,1,.13-.27l.1-.1a.45.45,0,0,1,.28-.12.53.53,0,0,0,.16,0,.28.28,0,0,1,.18,0,1.84,1.84,0,0,1,.53.09c.19.09.4.13.59.21a3.09,3.09,0,0,1,.32.14.3.3,0,0,0,.18.06,2.29,2.29,0,0,1,.51.15c.18.05.34.13.52.18a.89.89,0,0,1,.41.18,1.8,1.8,0,0,0,.57.25l.68.25a.78.78,0,0,1,.43.26.24.24,0,0,0,.08.06.9.9,0,0,1,.37.52,1.34,1.34,0,0,1,0,.2,1.11,1.11,0,0,1-.14.47,3.3,3.3,0,0,0-.19.43l-.11.33c0,.07,0,.16-.05.24-.11.25-.19.53-.28.79,0,.1-.07.2-.11.31a5.86,5.86,0,0,1-.26.57.14.14,0,0,0,0,.06,1.2,1.2,0,0,1-.17.48.3.3,0,0,0,0,.1c-.05.15-.1.3-.14.45a.64.64,0,0,1-.08.19.19.19,0,0,0,0,.08c0,.09-.06.17-.08.25a1.87,1.87,0,0,1-.2.4c-.06.14-.14.27-.2.41s-.1.12-.13.19-.16.11-.2.2-.11.08-.18,0a.58.58,0,0,0-.23,0s-.08.09-.12.14.15,0,.21,0,0,.08.06.12c-.11.1-.21.21-.33.31.05,0,.05.1.07.14a.53.53,0,0,0,.14.06.23.23,0,0,1,.17.28,36.84,36.84,0,0,1-.21.84c0,.09-.05.19-.09.28s-.08.34-.14.51a1,1,0,0,0-.08.3,2,2,0,0,1-.13.42,2.69,2.69,0,0,1-.26.54.66.66,0,0,0-.11.24.89.89,0,0,1-.14.25,1.68,1.68,0,0,0-.16.33c-.16.45-.36.89-.48,1.36a2.74,2.74,0,0,0-.21.54,2.21,2.21,0,0,0-.18.62c0,.14-.06.28-.09.42-.06.34-.19.66-.28,1a4.71,4.71,0,0,1-.27.71c0,.08-.06.19-.1.27a3.86,3.86,0,0,1-.2.51.19.19,0,0,0,0,.08.41.41,0,0,1-.05.21c-.09.24-.21.48-.28.73a5.28,5.28,0,0,1-.28.79c-.08.18-.1.37-.17.56a.61.61,0,0,1-.05.12c-.08.19-.15.39-.22.58s-.17.48-.26.71a3.37,3.37,0,0,0-.23.6.5.5,0,0,1-.08.2c-.06.13-.05.28-.11.41a.64.64,0,0,1,0,.07,3.87,3.87,0,0,0-.23.65l-.12.32a.66.66,0,0,0-.06.27.19.19,0,0,1,0,.08c-.07.12-.05.26-.14.37s-.18.48-.23.73-.11.39-.17.59a1.37,1.37,0,0,1-.15.38.8.8,0,0,0-.11.25c-.06.19-.16.36-.24.55s-.24.61-.34.93-.18.52-.27.78c0,.08,0,.16-.07.24-.1.28-.16.57-.26.85a.28.28,0,0,0,0,.09,1,1,0,0,1-.08.39.41.41,0,0,0-.05.19.93.93,0,0,1,0,.23c0,.2,0,.41,0,.61a2.44,2.44,0,0,0,0,.27.62.62,0,0,0,.07.23.51.51,0,0,1,.08.32,1.54,1.54,0,0,0,0,.3c-.09.11.06.43.11.25a.55.55,0,0,0,.15-.08.16.16,0,0,1,.25.08c0,.15.12.19.23.23l.29.14a.08.08,0,0,1,0,0,.36.36,0,0,0,.22.16,4.65,4.65,0,0,0,.79.28,6.19,6.19,0,0,1,.62.13.11.11,0,0,0,.1,0,.26.26,0,0,1,.24,0c.15,0,.31,0,.47.07,0-.13.14-.15.25-.16h0a.94.94,0,0,1,.43-.16,2,2,0,0,0,.34-.13.31.31,0,0,1,.21,0,3.54,3.54,0,0,0,.26-.41,3.7,3.7,0,0,1,.29-.47,1,1,0,0,0,.14-.27,3.29,3.29,0,0,1,.16-.44.35.35,0,0,0,0-.13.19.19,0,0,1,0-.08c.09-.14.1-.3.19-.44a3.75,3.75,0,0,0,.21-.4.19.19,0,0,0,0-.07,1.29,1.29,0,0,1,.17-.5c.11-.22.27-.42.37-.64a1.75,1.75,0,0,0,.24-.52,2.09,2.09,0,0,0,.19-.4,2.69,2.69,0,0,0,.12-.34c0-.12.07-.24.11-.36s.07-.22.11-.32.11-.36.18-.53.09-.25.14-.37.13-.36.21-.53a2.24,2.24,0,0,0,.11-.31,1.34,1.34,0,0,1,.14-.38.58.58,0,0,0,.05-.14c.09-.3.17-.61.28-.9a3.36,3.36,0,0,1,.28-.68s0-.08.05-.13a.56.56,0,0,1,.13-.22.79.79,0,0,0,.2-.66.43.43,0,0,1,0-.25.64.64,0,0,0,.07-.27.18.18,0,0,1,0-.09c0-.05,0-.11.07-.16s0-.15.08-.2a.05.05,0,0,0,0,0,1,1,0,0,1,.22-.49.05.05,0,0,0,0,0,3.88,3.88,0,0,1,.15-.36c.09-.31.22-.6.3-.9s.11-.41.16-.61.16-.5.23-.75c0-.07.09-.13.12-.21s.12-.37.19-.56.06-.25.11-.37a4,4,0,0,1,.17-.49,5.16,5.16,0,0,0,.23-.66c0-.15.06-.29.11-.44a2.77,2.77,0,0,1,.1-.26.14.14,0,0,0,0-.06,5.25,5.25,0,0,1,.17-.52c.13-.44.31-.87.43-1.31.06-.21.1-.42.16-.63s.17-.39.22-.6l.06-.19a2.46,2.46,0,0,1,.38-.76,1.78,1.78,0,0,0,.17-.3,1.4,1.4,0,0,0,.16-.43c0-.15.07-.29.11-.43a1.85,1.85,0,0,1,.18-.44.79.79,0,0,0,.12-.3.85.85,0,0,1,.13-.25.82.82,0,0,0,.13-.4c0-.07,0-.14,0-.2a1.22,1.22,0,0,0,.06-.26.65.65,0,0,1,.13-.28,3,3,0,0,0,.32-.87.44.44,0,0,1,.08-.15,2.27,2.27,0,0,0,.35-.65.33.33,0,0,1,.06-.1.67.67,0,0,0,.18-.39c0-.11.07-.22.1-.33a.72.72,0,0,1,.18-.37.29.29,0,0,0,.05-.13c0-.2,0-.41.06-.62a3,3,0,0,1,.26-.76,1.43,1.43,0,0,1,.16-.3c0-.11.11-.14.1-.23s.2-.16.33-.14a1.16,1.16,0,0,1,.31.07,3.15,3.15,0,0,1,.5.3l.1,0a1.22,1.22,0,0,1,.24.1.25.25,0,0,0,.17,0,.15.15,0,0,1,.15,0,.44.44,0,0,0,.33.13.41.41,0,0,1,.18,0,2.93,2.93,0,0,1,.4.19.2.2,0,0,0,.13,0,.26.26,0,0,1,.28.22l-.06,0,.45.13a.15.15,0,0,0,0,.18s0,0-.06,0h0c0,.1,0,.16.1.18s.36.17.4.15.07.12.14.15c.06-.14.19-.17.31-.22a.25.25,0,0,0,0-.12.15.15,0,0,1,.18,0,.27.27,0,0,0,.21.07s0,0,.08,0-.06,0-.08.05.13.27.32,0c0,0,.17.19.21.09l.12,0s-.07,0-.1.08.09,0,.12,0,0,0,0,.07.08-.1.16-.08,0,.24.07.22,0,0,0,.06a1.31,1.31,0,0,0-.21.36c0,.1-.07.19-.1.3a4.84,4.84,0,0,1-.18.49l0,.13a2.84,2.84,0,0,1-.27.62,2.16,2.16,0,0,0-.17.34s-.05,0-.09.08a.23.23,0,0,1,0,.18.16.16,0,0,0,0,.1.07.07,0,0,1,0,.06.25.25,0,0,0-.13.2.13.13,0,0,1-.07.1.42.42,0,0,0-.08.18s0,0,0,0,0,.2-.05.29,0,.05,0,.07-.06.23-.09.29a.58.58,0,0,0-.07.28c0,.05,0,.1-.06.12a2.27,2.27,0,0,1-.23.57s0,.07,0,.13a.31.31,0,0,0,0,.23.12.12,0,0,1,0,.11.42.42,0,0,0-.08.26c0,.06,0,.11,0,.17s-.06.08-.14.06a.28.28,0,0,1,0,.19.91.91,0,0,1-.17.39c-.06.12-.14.24-.09.38s0,.08-.06.1-.11.16-.12.24,0,.25,0,.38a1.16,1.16,0,0,1-.15.52.35.35,0,0,0,0,.11.26.26,0,0,1-.07.11.28.28,0,0,0-.14.29.06.06,0,0,1,0,0,.85.85,0,0,0-.11.35c0,.14-.06.29-.08.44a.9.9,0,0,1-.07.27c-.11.2-.19.42-.3.62s-.07.2-.13.28,0,0,0,0a.69.69,0,0,1,0,.35.46.46,0,0,1-.21.28.53.53,0,0,1-.1.06,2,2,0,0,1,0,.42.16.16,0,0,1-.05.11.65.65,0,0,0-.12.36.61.61,0,0,1-.09.31,1.18,1.18,0,0,1-.25.3.29.29,0,0,0-.08.13.6.6,0,0,0-.06.11.36.36,0,0,1,0,.32.61.61,0,0,0-.05.12.32.32,0,0,1-.15.19.12.12,0,0,0-.08.15.16.16,0,0,1,0,.12,2.93,2.93,0,0,0-.15.6.7.7,0,0,1-.1.4.42.42,0,0,0-.05.17.59.59,0,0,1-.16.38l0,.06a4,4,0,0,1-.15.4.71.71,0,0,1-.08.18l-.06.15a1.63,1.63,0,0,1-.23.6.59.59,0,0,0-.07.16c0,.12-.15.21-.18.34a.74.74,0,0,1-.14.22l0,.07c-.07.2-.15.4-.21.6s0,.18-.05.26a1.82,1.82,0,0,1-.11.3.92.92,0,0,0-.05.25.94.94,0,0,1-.08.36.92.92,0,0,0-.08.25,1.9,1.9,0,0,1-.33.63.13.13,0,0,0,0,.08,2.57,2.57,0,0,0-.05.4.2.2,0,0,1,0,.18,1.26,1.26,0,0,1-.15.38.49.49,0,0,0,0,.11.18.18,0,0,1-.16.16,1.62,1.62,0,0,0-.3.78.3.3,0,0,1,0,.21,4.91,4.91,0,0,1-.37.92,2.07,2.07,0,0,1-.27.45s0,.09-.08.12,0,.22-.07.31a.7.7,0,0,0-.06.19.81.81,0,0,1-.16.43,1.58,1.58,0,0,0-.24.75,1,1,0,0,1-.07.55.44.44,0,0,0,0,.15.24.24,0,0,1-.07.13.51.51,0,0,0-.09.27,1,1,0,0,1-.18.46,2,2,0,0,0-.25.32s0,0,0,0a.54.54,0,0,0-.19.28,1.31,1.31,0,0,0-.09.34,3,3,0,0,0,0,.31.17.17,0,0,1-.1.17.34.34,0,0,0-.19.26c0,.06-.06.1-.09.16a1.82,1.82,0,0,0-.13.37.32.32,0,0,1-.1.17.68.68,0,0,0-.18.26,2.17,2.17,0,0,1-.19.33,2,2,0,0,0-.18.4.59.59,0,0,1-.2.35.56.56,0,0,1-.05.08.76.76,0,0,1-.17.23.91.91,0,0,0-.15.23c-.09.12-.19.23-.28.36a.38.38,0,0,1-.25.14,2.29,2.29,0,0,1-.41.52,1.07,1.07,0,0,1-.35.23.77.77,0,0,0-.31.16l0,0c-.14,0-.23.16-.35.22s-.3.14-.46.21-.09,0-.1.07a.05.05,0,0,1-.05.05c-.13,0-.23.11-.37.1a.17.17,0,0,0-.12,0,.44.44,0,0,1-.16.06c-.12,0-.26,0-.34.15s-.18.08-.27.1a.62.62,0,0,0-.39.14h-.07c-.07,0-.15,0-.21.07a3.2,3.2,0,0,0-.39.1s-.07,0-.1,0-.07,0-.11,0a.71.71,0,0,0-.29.05h-.1c-.14,0-.28,0-.43,0a.25.25,0,0,0-.11,0,1,1,0,0,1-.52,0c-.24,0-.47-.1-.71-.13h0a2.72,2.72,0,0,1-.57,0h-.36a.67.67,0,0,1-.24,0,5.55,5.55,0,0,0-1-.22c-.24,0-.49-.06-.72-.11a.25.25,0,0,1-.14-.06l-.27-.21a.73.73,0,0,0-.29-.15c-.23-.05-.43-.15-.65-.22a7.4,7.4,0,0,1-.8-.46,2,2,0,0,1-.29-.22,1.24,1.24,0,0,0-.2-.1,1.4,1.4,0,0,1-.39-.3.2.2,0,0,0-.07-.06l-.19-.13a1.64,1.64,0,0,1-.4-.43,1,1,0,0,1-.14-.24c0-.1-.12-.16-.13-.27s0,0,0,0a4.51,4.51,0,0,1-.4-.47,1.29,1.29,0,0,1-.19-.32l-.14-.25c-.08-.15-.17-.29-.25-.43a1.31,1.31,0,0,1-.08-.21,2,2,0,0,1-.18-.32.55.55,0,0,1-.07-.28.29.29,0,0,0-.05-.2l-.19-.35c0-.05,0-.1,0-.15a2,2,0,0,1-.08-.26,2.1,2.1,0,0,1-.06-.24,2.7,2.7,0,0,0-.14-.56.38.38,0,0,1,0-.21.33.33,0,0,0,0-.24.48.48,0,0,1-.07-.26c0-.11,0-.22,0-.33a1.18,1.18,0,0,0,0-.2,2.16,2.16,0,0,1,0-.44.29.29,0,0,0,0-.09,3.28,3.28,0,0,1,0-.7.28.28,0,0,1,0-.12,2.2,2.2,0,0,0,.07-.37,2.09,2.09,0,0,1,.08-.34,1,1,0,0,0,.09-.48.75.75,0,0,1,.07-.39,4.75,4.75,0,0,0,.18-.57c0-.2.12-.39.18-.59a.42.42,0,0,1,0-.1.2.2,0,0,0,0-.15.39.39,0,0,1,.07-.31.24.24,0,0,0,0-.23s0-.07,0-.1a1.26,1.26,0,0,0,.15-.38c.05-.2.11-.39.17-.59l0-.06a.14.14,0,0,0,0-.15.09.09,0,0,1,0-.11.63.63,0,0,0,.1-.3c0-.08.07-.14.1-.22s.13-.27.19-.4a3.35,3.35,0,0,0,.25-.69c0-.12,0-.24,0-.35a.29.29,0,0,1,.08-.14.12.12,0,0,1,0-.16c.05-.08.07-.16.12-.23s.13-.31.23-.44a.35.35,0,0,0,.06-.22.41.41,0,0,1,.05-.19c.08-.16.12-.34.2-.5a1.18,1.18,0,0,0,.08-.31c0-.16.14-.31.12-.49a.28.28,0,0,1,.07-.13,1.88,1.88,0,0,0,.17-.47,1.39,1.39,0,0,1,.12-.28c.05-.1.11-.18.16-.27a1,1,0,0,0,.05-.16,3.13,3.13,0,0,1,.2-.68,1.06,1.06,0,0,0,.16-.45c.11-.2.13-.43.23-.63l.09-.25a1.36,1.36,0,0,1,.11-.28,1.51,1.51,0,0,0,.14-.35.83.83,0,0,1,.08-.22.26.26,0,0,0,.06-.19.24.24,0,0,1,0-.14c.09-.31.2-.63.32-.94a.38.38,0,0,0,0-.18.28.28,0,0,1,0-.13.87.87,0,0,0,.15-.34,6.16,6.16,0,0,1,.26-.67,3.47,3.47,0,0,0,.19-.67,3.39,3.39,0,0,1,.15-.52c0-.1,0-.2.06-.3a.5.5,0,0,0,0-.12.67.67,0,0,1,.31-.44.66.66,0,0,0,.14-.15.18.18,0,0,0,0-.16.66.66,0,0,1-.06-.25.64.64,0,0,1,.13-.34,2.07,2.07,0,0,0,.3-.57,4,4,0,0,1,.17-.56c.06-.15.12-.31.19-.46a1.08,1.08,0,0,0,.1-.35,1.16,1.16,0,0,1,0-.18c.07-.2.08-.42.15-.62a1.83,1.83,0,0,1,.26-.59c.06-.08.11-.17.24-.14A.27.27,0,0,1,152.26,119.08Zm-22.47-17.44a.19.19,0,0,1,.15,0,1.31,1.31,0,0,0,.54.2,1.73,1.73,0,0,1,.41.2c.14.07.1.06.25,0a.64.64,0,0,0,.39.14.16.16,0,0,1,.09,0l0,0c.15,0,.29.1.45.07a.35.35,0,0,1,.22.06,1.79,1.79,0,0,0,.51.27c.14,0,.27,0,.41.06s.06,0,.09,0a.54.54,0,0,0,.37.15c.07,0,.12.06.19.08s0,.25.06.21a.08.08,0,0,1,.11,0,.65.65,0,0,0,.27.15c.22.08.44.15.67.21a.45.45,0,0,0,.16,0,.23.23,0,0,1,.12,0,3.31,3.31,0,0,0,.76.22,2,2,0,0,1,.32.11,1.65,1.65,0,0,0,.53.13.92.92,0,0,1,.29.11,3.68,3.68,0,0,0,.47.15.41.41,0,0,1,.19.11.12.12,0,0,0,.06.16,1,1,0,0,0,0,.48,1,1,0,0,1,0,.17.82.82,0,0,0,0,.27c0,.06,0,.12,0,.18a2.17,2.17,0,0,1,0,.36.9.9,0,0,0,0,.4,2.68,2.68,0,0,1,.05.75,2,2,0,0,0-.05.42.17.17,0,0,1,0,.12.11.11,0,0,0,0,.05c0,.14,0,.28,0,.42s0,.11,0,.17c0,.21,0,.43-.07.64a1.41,1.41,0,0,0,0,.46.25.25,0,0,1,0,.08,2.88,2.88,0,0,0,0,.59c0,.09,0,.18,0,.26s0,.18,0,.27a1.37,1.37,0,0,1-.05.28v0c.07.15,0,.29,0,.43s0,.27,0,.41a3.59,3.59,0,0,0-.05.46.93.93,0,0,1,0,.24.28.28,0,0,0,0,.2.39.39,0,0,1,0,.26.86.86,0,0,0,0,.32,0,0,0,0,1,0,0c-.05.09,0,.18,0,.27s-.06.36-.09.54a.29.29,0,0,0,0,.16.77.77,0,0,1,0,.37,1,1,0,0,0,0,.43.92.92,0,0,1,0,.16,2.29,2.29,0,0,0-.05.52c0,.15,0,.29,0,.44s0,.22,0,.33,0,0,0,.07,0,.28,0,.42,0,.24,0,.36,0,.32,0,.48a2.31,2.31,0,0,1-.05.46c0,.06,0,.12,0,.19l-.12.72a2,2,0,0,0,0,.69s0,.08,0,.11a.21.21,0,0,0,0,.17.21.21,0,0,1,0,.22,2.64,2.64,0,0,0-.08.49,2.32,2.32,0,0,0-.05.53c0,.12,0,.24,0,.36a.27.27,0,0,1-.05.23.68.68,0,0,0-.11.3.8.8,0,0,0,0,.15,1.51,1.51,0,0,0-.05.42l0,.16a1,1,0,0,0,0,.37.23.23,0,0,1,0,.12,1.47,1.47,0,0,0-.07.46c0,.24,0,.48,0,.72a.35.35,0,0,0,.06.18.59.59,0,0,0,.06.14.29.29,0,0,0,.13,0,.24.24,0,0,0,.28-.22,1.32,1.32,0,0,1,.15-.39c.07-.13.13-.26.19-.39a.35.35,0,0,1,.08-.13.25.25,0,0,0,.07-.19,2.3,2.3,0,0,1,.09-.64.82.82,0,0,0,.06-.38c0-.06,0-.11,0-.16a2.09,2.09,0,0,1,.17-.41.34.34,0,0,0,.05-.14,2.7,2.7,0,0,1,.08-.39,1.17,1.17,0,0,1,.1-.26.33.33,0,0,0,.08-.18.07.07,0,0,1,.06-.07c.06,0,.09.07.16.08s-.12-.09-.16-.17l.18-.53a.46.46,0,0,1,.26-.25l.11-.05a.11.11,0,0,0,0-.09c-.1-.06-.08-.15,0-.23a.76.76,0,0,1,.11-.22c.08-.13.15-.28.23-.42a.65.65,0,0,0,0-.2c0-.12,0-.24,0-.36a.34.34,0,0,1,.05-.14,3.29,3.29,0,0,1,.17-.39,1.14,1.14,0,0,0,.15-.4.25.25,0,0,1,.08-.14c.09-.08.1-.21.17-.3a.07.07,0,0,0,0-.06s0-.05,0-.08a.77.77,0,0,0,0-.37c0-.07,0-.13,0-.2a1.41,1.41,0,0,1,.14-.44c.07-.23.17-.44.23-.68a2,2,0,0,1,.18-.42l.14-.25a1.69,1.69,0,0,0,.05-.24,4.43,4.43,0,0,1,.18-.59,1.65,1.65,0,0,0,.14-.48,1.86,1.86,0,0,1,.05-.34.11.11,0,0,1,0-.08.75.75,0,0,0,.22-.35,1.61,1.61,0,0,0,.12-.33s0-.08.06-.1.11-.17.16-.25a.28.28,0,0,1,.06-.09.16.16,0,0,0,.08-.2c0-.08,0-.15.05-.23s0-.07.06-.12.06,0,.08-.07a.24.24,0,0,1,.07-.31A.18.18,0,0,0,142,111a.4.4,0,0,1,.16-.35.32.32,0,0,1,.1-.32.29.29,0,0,0,0-.13.16.16,0,0,1,.18-.18l0,0s0-.07,0-.11a.47.47,0,0,1,.06-.09s0-.07-.06-.12.05-.18.06-.28a.79.79,0,0,1,.06-.22c0-.09,0-.19.07-.29a1.06,1.06,0,0,1,.16-.38.37.37,0,0,0,.07-.14s0-.06,0-.07a.29.29,0,0,0,.13-.18,2.71,2.71,0,0,0,.13-.3s0-.07,0-.11a.2.2,0,0,1,0-.17c0-.12.07-.24.1-.37a.53.53,0,0,1,.08-.15,1.22,1.22,0,0,0,.17-.29c0-.13.1-.15.23-.12a3.2,3.2,0,0,1,.43.17,1.72,1.72,0,0,0,.45.16,1.89,1.89,0,0,1,.33.13c.18.07.33.22.52.28s.06.06.08.1a.39.39,0,0,1,.3,0c.14.05.26.12.4.16a3.49,3.49,0,0,1,.57.2H147a1.87,1.87,0,0,1,.64.22.44.44,0,0,0,.15,0,.84.84,0,0,1,.3.11s.05,0,.07,0,.11,0,.16.06a3,3,0,0,1,.32.12s.07,0,.11,0a.13.13,0,0,1,.17.06s.05.05.09.07a4.72,4.72,0,0,0,.53.18.33.33,0,0,1,.13,0s0,.09,0,.14a5.44,5.44,0,0,1-.3.65.13.13,0,0,0,0,.1,1,1,0,0,1-.14.4.94.94,0,0,0,0,.09c-.07.19-.14.39-.22.58a1.32,1.32,0,0,0-.1.39,1.69,1.69,0,0,1-.12.4s0,0,0,.06c-.06.21-.12.43-.17.64a1,1,0,0,1-.16.41s0,.08,0,.11-.06.15-.1.21a.45.45,0,0,0-.08.23,1.57,1.57,0,0,1-.09.43,1.15,1.15,0,0,1-.11.31.73.73,0,0,0-.16.45.07.07,0,0,1,0,.05,2.5,2.5,0,0,0-.11.39c0,.13-.09.27-.14.4s0,.13-.07.19-.09.24-.15.36-.05.14-.09.21a3.23,3.23,0,0,0-.23.66l0,.08a.58.58,0,0,0-.09.26,3.45,3.45,0,0,1-.12.43,3.54,3.54,0,0,0-.25.64l0,.06a1.08,1.08,0,0,0-.1.27,2.42,2.42,0,0,1-.13.46,5.7,5.7,0,0,1-.24.62.08.08,0,0,0,0,0c0,.12-.08.22-.1.33s0,.09,0,.12-.13.38-.23.56-.08.22-.14.32a.65.65,0,0,0-.08.17.32.32,0,0,1-.09.17.15.15,0,0,0,0,.09c-.06.24-.18.45-.23.69a.33.33,0,0,1-.11.21.17.17,0,0,0,0,.14.52.52,0,0,1-.09.34.8.8,0,0,0-.09.26c-.05.18-.1.37-.17.55a2.78,2.78,0,0,1-.16.4,4.48,4.48,0,0,0-.27.65,2.36,2.36,0,0,1-.12.28.18.18,0,0,0,0,.1,1.48,1.48,0,0,1-.1.36,1.24,1.24,0,0,1-.12.32,2.32,2.32,0,0,0-.13.37c-.06.12-.07.25-.14.37a.2.2,0,0,0,0,.14c0,.06,0,.11-.06.15a.38.38,0,0,0-.1.2,1.07,1.07,0,0,1-.15.37.85.85,0,0,0-.15.37s-.06.09-.08.14l-.19.29a.36.36,0,0,0,0,.11,1.15,1.15,0,0,1-.15.54.1.1,0,0,0,0,.09.49.49,0,0,1-.06.27,2.22,2.22,0,0,0-.21.56.56.56,0,0,1-.1.24.56.56,0,0,0-.07.18c-.08.25-.23.47-.32.71s-.18.54-.26.82a1.81,1.81,0,0,1-.16.42,3.19,3.19,0,0,0-.11.33c-.08.18-.09.38-.17.57a2.08,2.08,0,0,0-.15.57.76.76,0,0,1-.15.4.82.82,0,0,0-.14.48.82.82,0,0,1-.06.26.62.62,0,0,0-.07.23.8.8,0,0,1-.05.26c0,.15-.11.31-.17.46s-.08.19-.12.29,0,.22-.08.32a2.1,2.1,0,0,1-.2.49,2,2,0,0,0-.18.48c-.06.28-.19.54-.28.82a2,2,0,0,0-.15.59.88.88,0,0,1,0,.15,1.21,1.21,0,0,0-.11.49,1,1,0,0,1-.11.47.61.61,0,0,0,0,.11,2.83,2.83,0,0,1-.13.52,1.74,1.74,0,0,1-.2.58.75.75,0,0,0-.09.25.23.23,0,0,1-.06.12,1.16,1.16,0,0,0-.13.41.54.54,0,0,1-.09.25.8.8,0,0,0-.09.26c0,.06,0,.11,0,.17-.06.26-.23.49-.28.76-.09.1,0,.26-.12.36a.06.06,0,0,0,0,0,1.93,1.93,0,0,1-.22.58v0c0,.18-.15.31-.17.49a.34.34,0,0,1-.07.15c-.07.12-.1.26-.16.38a2,2,0,0,1-.2.42,0,0,0,0,0,0,0c0,.13-.08.22-.09.34a.69.69,0,0,1,0,.13c0,.06-.07.08-.14.07l-.08,0-1.74-.49a.46.46,0,0,1-.33-.21.16.16,0,0,0-.09-.06c-.12,0-.21-.06-.32-.08l-.24-.06c-.2-.05-.38-.15-.58-.2a1.27,1.27,0,0,1-.18-.06.63.63,0,0,0-.3-.1.49.49,0,0,1-.23-.08,2.08,2.08,0,0,0-.59-.26l-.41-.11a1,1,0,0,1-.4-.22.58.58,0,0,0-.34-.12.29.29,0,0,0-.13,0,.14.14,0,0,1-.11,0c-.09-.08-.22-.1-.31-.18a1,1,0,0,0-.17-.1c-.18-.07-.37-.1-.54-.18s-.21,0-.3-.06a.8.8,0,0,0-.39-.14,1.78,1.78,0,0,1-.48-.09c-.05-.1-.05-.13,0-.23a.51.51,0,0,0,.1-.26c0-.1,0-.2,0-.3a3.52,3.52,0,0,1,0-.86c0-.1,0-.19,0-.28a1,1,0,0,1,.07-.34.34.34,0,0,0,0-.28,0,0,0,0,1,0,0,2.81,2.81,0,0,0,.08-.31.22.22,0,0,0,0-.16,0,0,0,0,1,0-.06.41.41,0,0,0,0-.29c0-.1,0-.2,0-.29a.37.37,0,0,1,0-.18,1,1,0,0,0,.06-.35.24.24,0,0,1,0-.08s0-.06,0-.09a1.85,1.85,0,0,1,.08-.47.35.35,0,0,1,0-.08.8.8,0,0,1-.08-.64.19.19,0,0,1,0-.17,1.61,1.61,0,0,0,0-.31.9.9,0,0,1,0-.29c.08-.21,0-.44.15-.63a2.59,2.59,0,0,1,.09-.4.43.43,0,0,1,.13-.19,1.74,1.74,0,0,1-.12-.5v0c.08-.21,0-.43.07-.64s0-.3.05-.45a.51.51,0,0,0,0-.17c0-.21,0-.41,0-.61s0-.28,0-.43a1.33,1.33,0,0,1,0-.56c0-.18.07-.34.08-.52s.06-.12.05-.2a1.94,1.94,0,0,1,0-.24,1.27,1.27,0,0,1,0-.26,1.84,1.84,0,0,0,.07-.42,4.26,4.26,0,0,1,0-.62,1.66,1.66,0,0,1,0-.22,1.88,1.88,0,0,0,0-.53,1.35,1.35,0,0,1,0-.49c0-.06.05-.13,0-.19a.06.06,0,0,1,0,0,5.67,5.67,0,0,0,.1-.57,1.13,1.13,0,0,0,0-.45.27.27,0,0,1,0-.12.77.77,0,0,0,0-.4s0,0,0,0a5.7,5.7,0,0,0,0-.71,1.13,1.13,0,0,1,0-.18,1.31,1.31,0,0,0,0-.44c0-.15,0-.3,0-.45a1.07,1.07,0,0,1,.06-.32.8.8,0,0,0,0-.27,1.84,1.84,0,0,1,0-.47.43.43,0,0,1,.07-.2c0-.06-.16-.88,0-1.08,0,0-.34-.15-.41,0a2.62,2.62,0,0,0-.24.34c0,.12-.24.36-.26.48,0,.28-.18.37-.27.64,0,.08,0,.16,0,.24a2.78,2.78,0,0,1-.16.4l0,.06a1.63,1.63,0,0,1-.13.37c-.05.11-.07.23-.12.33a1.63,1.63,0,0,0-.13.37s0,0-.06.08a.54.54,0,0,0-.09.22.51.51,0,0,1-.06.21c-.07.13-.12.27-.19.4s0,.09,0,.13a4.19,4.19,0,0,0-.16.46.17.17,0,0,1-.06.11.25.25,0,0,0-.05.15.48.48,0,0,1-.11.3,1.53,1.53,0,0,0-.19.41c-.1.24-.17.48-.28.72s-.11.32-.17.48a.3.3,0,0,1-.08.16.16.16,0,0,0,0,.07,2.19,2.19,0,0,1-.17.49,4.48,4.48,0,0,1-.27.69.15.15,0,0,0,0,.07.32.32,0,0,1,0,.17,3.2,3.2,0,0,0-.22.66.34.34,0,0,1-.09.2.25.25,0,0,0-.06.16,1.82,1.82,0,0,1-.1.45l-.18.6a.9.9,0,0,0-.09.32s0,.1-.05.15a.89.89,0,0,0-.07.28.24.24,0,0,1,0,.16c0,.09,0,.2-.1.29s0,0,0,0a1.31,1.31,0,0,1-.2.54.07.07,0,0,0,0,.06,1,1,0,0,1-.12.42.56.56,0,0,0,0,.12,2.11,2.11,0,0,1-.18.45s0,0,0,.05a1.32,1.32,0,0,1-.12.43c0,.08,0,.16,0,.25a5.66,5.66,0,0,1-.2.58c-.06.13-.08.28-.14.41a3,3,0,0,1-.16.37,3.31,3.31,0,0,0-.15.33,2.27,2.27,0,0,0-.17.31c-.1.27-.27.5-.39.76s-.25.54-.38.8-.13.22-.18.34a.21.21,0,0,1-.27.06,2.77,2.77,0,0,0-.57-.13l-.12,0c-.29-.1-.59-.17-.88-.25a1.66,1.66,0,0,1-.33-.15.57.57,0,0,0-.33-.13.19.19,0,0,1-.1,0,.09.09,0,0,0-.06,0c-.19,0-.38-.13-.57-.17a5.66,5.66,0,0,1-.58-.2h0a1.27,1.27,0,0,1-.56-.24l-.13-.06c-.32-.09-.64-.17-1-.27a1.53,1.53,0,0,0-.37,0c-.13-.09-.11-.14,0-.25a1.62,1.62,0,0,1,.19-.37.61.61,0,0,0,.11-.28,4.52,4.52,0,0,0,.18-.47,3.09,3.09,0,0,1,.14-.43c0-.13.11-.26.17-.39s0,0,0,0a.19.19,0,0,1,0-.18,1,1,0,0,0,.13-.32.87.87,0,0,1,.07-.17,3.93,3.93,0,0,0,.24-.56v-.06a.51.51,0,0,0,.09-.25A.82.82,0,0,1,118,135a.27.27,0,0,1,.08-.07.23.23,0,0,0,.12-.17c0-.11.07-.19.08-.3a.69.69,0,0,0,0-.13c.07,0,.14,0,.14-.14s0,0,0,0a.14.14,0,0,1,0-.14c0-.11,0-.25.12-.34a.29.29,0,0,0,.09-.22.63.63,0,0,1,.1-.32.34.34,0,0,0,.07-.15.7.7,0,0,1,.16-.41s0-.06.06-.08a.09.09,0,0,0,0,0,.83.83,0,0,1,.14-.32s0-.09,0-.14a2,2,0,0,1,.18-.32c.06,0,.09.06.16,0a.12.12,0,0,0,0,.15s0,.09.1.08,0-.1,0-.15,0,0,0,0a.19.19,0,0,1,.17.09.2.2,0,0,0,.25,0,.41.41,0,0,1,.29-.34l.06-.14c-.1,0-.12,0-.15,0s0,.1-.16.07-.12,0-.19,0,0,.07.06.11a.12.12,0,0,1,0,.16.08.08,0,0,1-.1,0,0,0,0,0,1,0-.07.18.18,0,0,0,0-.1l-.16,0a.16.16,0,0,0-.15,0c-.1,0-.14,0-.14-.11a.8.8,0,0,1,.18-.49s0-.13.11-.13l.16,0c.07,0,.15,0,.2.08a.11.11,0,0,0,.1,0c.07-.08,0-.21.11-.26s-.05-.06-.05-.1.06,0,.07-.09-.2,0-.3,0,0,.14-.06.2-.06.05-.09,0-.08-.07-.06-.1,0-.21.08-.3a.66.66,0,0,1,.2-.24.19.19,0,0,0,.07-.08c0-.05-.07-.05-.09-.09s0-.06.15,0l.06-.11s-.08,0-.11-.06,0-.05,0-.06,0-.17.07-.24,0-.09,0-.13a.2.2,0,0,1,.23-.15s.06,0,.06,0-.09,0-.13,0a.09.09,0,0,1,0-.11,1,1,0,0,0,.07-.25.93.93,0,0,1,.17-.38.58.58,0,0,0,0-.14,1.79,1.79,0,0,1,.13-.39.18.18,0,0,0,.06-.1.19.19,0,0,1,.15-.16s0-.06,0-.08a.12.12,0,0,1,0-.08,1.14,1.14,0,0,1,.19-.42.1.1,0,0,1,.07,0,.11.11,0,0,0,.11,0c0-.06-.12,0-.16-.08a1.88,1.88,0,0,1,.2-.62l.16-.34s0,0,0-.08a.23.23,0,0,1,.23-.23c-.11-.06-.09-.13-.08-.22a4.65,4.65,0,0,1,.21-.63,6,6,0,0,0,.25-.71,2.5,2.5,0,0,0,.11-.39c.13-.16.13-.38.26-.54a.63.63,0,0,0,.11-.28,2,2,0,0,1,.13-.34.28.28,0,0,0,0-.12c0-.14.08-.26.09-.41a.39.39,0,0,1,.07-.23.16.16,0,0,0,0-.09.27.27,0,0,1,0-.15,1.22,1.22,0,0,0,.16-.37.13.13,0,0,1,0-.06,6,6,0,0,0,.29-.81l.07-.15c0-.06.06-.11,0-.18a.09.09,0,0,1,0-.07c.06-.06,0-.13.06-.2a2.29,2.29,0,0,1,.11-.58c.07-.19.13-.38.19-.57a.75.75,0,0,1,.09-.25.62.62,0,0,0,.07-.19,1.52,1.52,0,0,1,.18-.46s0-.1,0-.16.16,0,.22-.08-.19,0-.19-.14a2,2,0,0,1,.12-.27c.08-.12.08-.12.21-.09h.05s0,0-.07,0-.07,0-.09,0,0-.07,0-.09a.33.33,0,0,0,.07-.23.32.32,0,0,1,.07-.19c.09,0,.18-.18.07-.23a1.67,1.67,0,0,1,.21-.64c.07,0,.1,0,.12.09a.3.3,0,0,1-.19.37.4.4,0,0,0,.2,0s.07,0,.08-.08a.57.57,0,0,0,0-.26c0-.06,0-.1.07-.12a.25.25,0,0,0,.14-.11l.15-.14c-.05-.06-.1,0-.15,0l-.27.09s0,0-.14,0a.41.41,0,0,0,.09-.28c0-.14.07-.25.08-.39s.07-.07.08-.12.16-.37.22-.56.11-.29.17-.43.08-.25.13-.37,0-.14.1-.17,0,0,0-.05a.43.43,0,0,1,.15-.26.07.07,0,0,0,0-.11s0,0,0-.05.08,0,.12,0a.58.58,0,0,1,0-.43.08.08,0,0,0,0,0,1.83,1.83,0,0,1,.09-.39,2.09,2.09,0,0,1,.13-.35c0-.07.08-.17.22-.16,0-.05-.1-.09-.1-.15a.07.07,0,0,1,0-.07s0,0,.06,0,0,.06,0,.08.06,0,.09,0-.07-.18,0-.26-.09,0-.1-.1.15-.12.19-.22-.06,0-.07-.09.08,0,.12-.07,0-.09,0-.15a.83.83,0,0,0,.09-.21,1.75,1.75,0,0,1,.12-.32l0-.09a.62.62,0,0,1,.07-.23.58.58,0,0,0,.09-.25,1.15,1.15,0,0,1,.06-.17c0-.13.09-.25.13-.37s0-.15.08-.22a1.48,1.48,0,0,0,.13-.35.3.3,0,0,1,0-.1.21.21,0,0,0,0-.11,3.06,3.06,0,0,1,.1-.41,1.86,1.86,0,0,1,.16-.45c.05-.11.08-.22.13-.32s.13-.37.21-.55a1.27,1.27,0,0,0,.13-.47s0,0,0-.07a.38.38,0,0,0,.09-.25.22.22,0,0,1,.06-.15.76.76,0,0,0,.11-.26.55.55,0,0,1,.13-.29.31.31,0,0,0,0-.1c.06-.2.11-.4.17-.6s.09-.23.12-.35.1-.36.15-.53a6.08,6.08,0,0,1,.21-.6.09.09,0,0,0,0-.09.75.75,0,0,1,0-.15.17.17,0,0,0-.1-.22C129.72,101.7,129.78,101.68,129.79,101.64Zm-25.93,7.27a2,2,0,0,1,.12-.48,1.7,1.7,0,0,0,0-.22.38.38,0,0,1,.11-.25,1.42,1.42,0,0,0,.27-.48,1.35,1.35,0,0,0,.11-.34.88.88,0,0,1,.1-.27,1.77,1.77,0,0,0,.19-.59.68.68,0,0,1,.15-.36.28.28,0,0,0,0-.15,1.21,1.21,0,0,1,.19-.56s0,0,0,0a.93.93,0,0,0,.23-.49c0-.15.07-.3.11-.45s.13-.35.17-.54a1.58,1.58,0,0,1,.16-.35.43.43,0,0,0,0-.13.23.23,0,0,1,.11-.2,1.82,1.82,0,0,1,.19-.76l0,0a1.19,1.19,0,0,0,.23-.43,1.1,1.1,0,0,1,.17-.32.08.08,0,0,1,0,0c0-.2.16-.37.19-.58a.27.27,0,0,1,.08-.16.4.4,0,0,0,.11-.2.77.77,0,0,1,.07-.16,1,1,0,0,0,.15-.38.32.32,0,0,1,.06-.15,1.47,1.47,0,0,0,.14-.4,2.14,2.14,0,0,1,.2-.53c.11-.23.25-.44.34-.68a1,1,0,0,0,.08-.54s0,0,0,0a.52.52,0,0,0,0-.35.16.16,0,0,1,0-.07,2.38,2.38,0,0,1,.46-.91,1,1,0,0,0,.14-.22,1.82,1.82,0,0,0,.11-.46.6.6,0,0,1,.1-.31,3.54,3.54,0,0,0,.23-.53.6.6,0,0,0,.08-.29.9.9,0,0,1,.08-.23c.08,0,.14,0,.16-.1a.73.73,0,0,1,.46,0,2.86,2.86,0,0,0,.41.15,4.62,4.62,0,0,1,.62.23,3.17,3.17,0,0,1,.49.24.61.61,0,0,0,.14.07c.19.08.38.14.58.21s.24.11.37.15a.53.53,0,0,1,.29.16s0,0,0,0a.53.53,0,0,0,.15.11.1.1,0,0,0,.15,0,.1.1,0,0,1,.13,0,.1.1,0,0,1,.06.13,0,0,0,0,1,0,0s.09,0,.14.07.12-.07.2,0l.67.19a2.63,2.63,0,0,1,.35.15l.12,0a.86.86,0,0,1,.42.16,2.05,2.05,0,0,0,.38.16c.15,0,.28.11.42.15a.63.63,0,0,1,.27.1s.1,0,.11.12.08,0,.11,0,.06-.07.08,0,.11,0,.13.08a.19.19,0,0,0,.14.11l.36.14a.45.45,0,0,1,.21.1l.07,0a2.17,2.17,0,0,1,.42.11c0-.08.11-.06.19,0,.28.07.55.19.83.27a4.16,4.16,0,0,1,.5.16,4.74,4.74,0,0,1,.51.24l.11,0,.43.06c.1,0,.16.07.25.09s.31.18.49.22a.58.58,0,0,0,.19,0,.65.65,0,0,1,.32.11,1.89,1.89,0,0,0,.35.17.4.4,0,0,0,.24,0l.1,0,.53.19.31.12.33.16a1.41,1.41,0,0,0,.45.15,1.77,1.77,0,0,1,.31.08c.09,0,.19.08.28.1a1.05,1.05,0,0,1,.34.2s.07.06,0,.1,0,.09.06.14a1.26,1.26,0,0,1,0,.28,1.07,1.07,0,0,1-.16.36.93.93,0,0,0-.13.35,1.88,1.88,0,0,1-.18.5,1.52,1.52,0,0,0-.17.48,2.79,2.79,0,0,1-.1.39.5.5,0,0,0,0,.21,0,0,0,0,1,0,0c-.12.16-.13.38-.25.54a.79.79,0,0,0-.08.26c-.08.29-.16.59-.23.88a2.37,2.37,0,0,1-.23.54.76.76,0,0,0-.11.26.78.78,0,0,1,0,.14c0,.07,0,.16-.11.2a.58.58,0,0,1-.37,0,2.2,2.2,0,0,0-.37-.06,1.86,1.86,0,0,1-.39-.1.51.51,0,0,1-.26-.14s-.1,0-.15,0a1.31,1.31,0,0,0-.38-.09l-.33,0a1.23,1.23,0,0,1-.23-.09c-.15-.06-.24-.19-.38-.25a.5.5,0,0,0-.23,0,.75.75,0,0,1-.53-.12c-.11,0-.21-.12-.32-.16a1.19,1.19,0,0,1-.35-.15.35.35,0,0,0-.18,0,1.38,1.38,0,0,1-.44-.09c-.24-.08-.47-.22-.72-.29a.72.72,0,0,0-.21,0,.73.73,0,0,1-.23-.09c-.13-.08-.28-.14-.41-.23h-.07a1.53,1.53,0,0,1-.42-.11l-.84-.3,0,0a.49.49,0,0,0-.31-.11h-.09a4.94,4.94,0,0,0-.52-.13l-.69-.22a.3.3,0,0,0-.32.08s0,.06-.06.07a.66.66,0,0,0-.34.43,3.81,3.81,0,0,0-.22.75.94.94,0,0,1-.1.23,3.68,3.68,0,0,0-.15.35,3,3,0,0,0-.16.31,2.49,2.49,0,0,0-.12.47,1.93,1.93,0,0,1-.12.41c-.09.22-.11.45-.18.67a1.54,1.54,0,0,1-.17.42,1.28,1.28,0,0,0-.11.27c-.12.25-.21.53-.34.78a1.27,1.27,0,0,0-.11.38,2.1,2.1,0,0,1-.21.61,1.8,1.8,0,0,1-.17.34,3.23,3.23,0,0,0-.24.58.65.65,0,0,0,0,.2.11.11,0,0,1,0,.06,2,2,0,0,0-.22.52c-.06.17-.16.33-.21.51s-.17.47-.25.7a.17.17,0,0,0,0,.18.48.48,0,0,1,.08.16.32.32,0,0,0,.11.12c.1,0,.18.13.3.13a.45.45,0,0,1,.11,0l.65.24a.69.69,0,0,1,.15.07s.12,0,.18,0a2.28,2.28,0,0,1,.36.15.43.43,0,0,0,.18.06.18.18,0,0,1,.09,0,.78.78,0,0,0,.27.09h0c.43.12.85.27,1.26.43a2.83,2.83,0,0,1,.41.14s0,0,0,0,.16,0,.24.08a1.76,1.76,0,0,0,.39.19,5.55,5.55,0,0,1,.64.24,1.27,1.27,0,0,0,.46.13.18.18,0,0,1,.1,0,.28.28,0,0,0,.19.07l.06,0a.86.86,0,0,0,.44.15.56.56,0,0,1,.18.07,6.19,6.19,0,0,0,.58.28l.23.11a.1.1,0,0,1,.08.11,1.55,1.55,0,0,1-.08.64.65.65,0,0,0,0,.2c0,.09-.08.15-.12.22a3.91,3.91,0,0,0-.31.57,2.08,2.08,0,0,0-.22.45,3.24,3.24,0,0,1-.16.53,4.71,4.71,0,0,1-.21.52l-.2.4a1.17,1.17,0,0,0,0,.27,2.26,2.26,0,0,1-.17.56s0,0,0,0c-.08.22-.19.43-.25.66a2.26,2.26,0,0,1-.28.66.53.53,0,0,0,0,.17s-.12.06-.13.1-.36-.09-.45-.18-.1,0-.14-.07a2.23,2.23,0,0,0-.79-.3h-.08a1.66,1.66,0,0,1-.55-.26c-.2-.08-.42-.14-.62-.23a2.38,2.38,0,0,0-.63-.18c-.06,0-.12-.06-.17,0a.29.29,0,0,1-.28-.13,1.28,1.28,0,0,0-.2-.11c-.28-.13-.56-.23-.84-.33a2.42,2.42,0,0,0-.45-.1.28.28,0,0,1-.13,0s-.09,0-.14,0-.07-.13-.16-.12-.1,0-.15-.08a1.21,1.21,0,0,0-.46-.17.62.62,0,0,1-.19-.07l-.22-.07c-.07,0-.13-.06-.2,0a1.1,1.1,0,0,1-.36,0,.39.39,0,0,0-.35,0c-.09,0-.19.07-.24.17a1.19,1.19,0,0,0-.17.36,1.34,1.34,0,0,1-.12.3,1.72,1.72,0,0,0-.18.42,1.37,1.37,0,0,1-.2.35.28.28,0,0,0-.06.15.27.27,0,0,1,0,.18,1.34,1.34,0,0,0-.13.27,1.81,1.81,0,0,1-.18.37,2.86,2.86,0,0,0-.21.58,1.29,1.29,0,0,1-.08.28,2.12,2.12,0,0,0-.12.41,2.21,2.21,0,0,0-.11.51,2,2,0,0,1-.11.32c0,.2-.12.4-.16.6l0,.09c-.06.16-.1.32-.17.47a.5.5,0,0,0,0,.12,1.6,1.6,0,0,1-.13.44,2.64,2.64,0,0,1-.2.37s0,0,0,.06a3.35,3.35,0,0,0-.08.54,1.15,1.15,0,0,1,0,.19c0,.08,0,.16-.09.22a1,1,0,0,0-.26.57,1.6,1.6,0,0,1-.05.21.31.31,0,0,0,0,.32,1.12,1.12,0,0,0,.16.28s0,0,0,.05a1.83,1.83,0,0,0,.69.24h0a4.66,4.66,0,0,0,.5.25.9.9,0,0,0,.39.13h0a9,9,0,0,0,1,.4,2.41,2.41,0,0,1,.25.08c.11.05.24.06.35.12a2.23,2.23,0,0,0,.43.16.9.9,0,0,1,.39.16.44.44,0,0,0,.18.09l.41.17a6.46,6.46,0,0,0,.69.26,1,1,0,0,1,.21.1.18.18,0,0,0,.12.05c.13,0,.25.08.38.08s0,0,0,0,.23.08.32.17l.11.05.47.17h0c.06.11.19.11.27.17a.15.15,0,0,0,.11,0,.45.45,0,0,1,.44.15.79.79,0,0,0,.39.16.4.4,0,0,0,.19,0,.29.29,0,0,0,.18.11.35.35,0,0,1,.21.33,1,1,0,0,1,0,.48.24.24,0,0,0,0,.12.25.25,0,0,1-.05.19c-.1.18-.17.38-.27.57a1.69,1.69,0,0,1-.19.41v0a1.28,1.28,0,0,1,0,.27,2.62,2.62,0,0,1-.11.4,2.67,2.67,0,0,0-.15.48.42.42,0,0,1,0,.1,2.07,2.07,0,0,0-.15.34,3.11,3.11,0,0,1-.2.41,9.69,9.69,0,0,0-.46.89.34.34,0,0,1-.1.26c-.12.15-.21.31-.34.45l-.08.05a.86.86,0,0,1-.45,0c-.06,0-.1-.08-.17-.06s-.37-.16-.53-.26a2.5,2.5,0,0,0-.38-.15c-.09,0-.35,0-.41-.07a.36.36,0,0,1-.28-.07l-.09,0a.11.11,0,0,1-.1,0c-.09-.13-.11-.08-.24-.14a1.2,1.2,0,0,0-.28-.13.73.73,0,0,1-.25,0,.43.43,0,0,1-.25-.09l0,0c-.14,0-.07,0-.18,0a2.69,2.69,0,0,1-.34-.17,1,1,0,0,0-.28-.14l-.06,0a3.5,3.5,0,0,0-.64-.16s-.38-.16-.44-.22a.69.69,0,0,0-.17-.1s0,0-.08,0a.32.32,0,0,1-.16,0c-.1-.07-.09,0-.17-.08s-.16-.07-.24-.11H105c-.07,0,0-.08-.11-.12s-.23,0-.29,0-.33,0-.38-.13-.19-.13-.29-.16-.19-.11-.3-.12-.16-.09-.23-.11a1.29,1.29,0,0,1-.21-.06c-.12-.06-.25-.09-.37-.16s-.16,0-.49-.12-.46-.14-.58-.19l-.56-.22-.69-.23c-.1,0-.26-.16-.36-.2l-.47-.19a.72.72,0,0,0-.25-.07c-.08,0-.14-.11-.24-.08s-.31-.12-.43-.19a1.75,1.75,0,0,0-.38-.09L97.6,132l-.1-.05a.45.45,0,0,0-.23-.08.9.9,0,0,1-.28-.08c-.15-.09-.22,0-.35-.13l0,0c-.23-.07-.43-.21-.67-.27a.91.91,0,0,1-.13-.08.22.22,0,0,1-.08-.25,1.44,1.44,0,0,1,.22-.47,2,2,0,0,0,.2-.58.7.7,0,0,1,.09-.17c.12-.25.25-.5.39-.74a2.18,2.18,0,0,0,.3-.74,1.22,1.22,0,0,1,.18-.48,1.63,1.63,0,0,0,.1-.25,1.57,1.57,0,0,1,.14-.38.88.88,0,0,0,.07-.23,1.2,1.2,0,0,1,.18-.4l0-.1a4.92,4.92,0,0,1,.23-.6.22.22,0,0,0,0-.14.53.53,0,0,1,.2-.41.53.53,0,0,0,.11-.21,1,1,0,0,1,.11-.29.28.28,0,0,0,0-.12,2.59,2.59,0,0,1,.18-.6,1.11,1.11,0,0,1,.2-.37.49.49,0,0,0,.06-.17c0-.12.07-.24.1-.35a2.17,2.17,0,0,0,.07-.35.55.55,0,0,1,.12-.27.43.43,0,0,0,.1-.23,1.82,1.82,0,0,1,.14-.39c.08-.22.23-.41.3-.64s.15-.42.21-.63.1-.25.14-.38a1,1,0,0,0,0-.24,1.27,1.27,0,0,1,.17-.54.74.74,0,0,0,.1-.27.83.83,0,0,1,.07-.27c.08-.24.16-.48.26-.71s.1-.31.16-.46.17-.41.26-.62c0,0,0-.11,0-.16a2,2,0,0,1,.27-.61.36.36,0,0,0,.07-.17,1.78,1.78,0,0,1,.09-.33,5.17,5.17,0,0,1,.19-.64,3.68,3.68,0,0,1,.16-.54c.05-.12.08-.27.12-.4a2.35,2.35,0,0,1,.17-.44,1.81,1.81,0,0,0,.2-.5c0-.2.09-.4.13-.6s.09-.17.11-.26c.09-.29.19-.57.27-.86a.07.07,0,0,1,0-.06.31.31,0,0,0,.1-.24.84.84,0,0,1,.12-.31,2.66,2.66,0,0,0,.16-.39,2.56,2.56,0,0,0,.15-.56s0,0,0,0a.34.34,0,0,1,.09-.38,3.5,3.5,0,0,0,.31-.53A1.35,1.35,0,0,0,103.86,108.91ZM78.27,82.65a10,10,0,0,0,1.92.76c.3.13.63.17.93.31a6.8,6.8,0,0,0,1,.37c.35.1.64.31,1,.42a2.07,2.07,0,0,1,.42.14c.14.07.29.26.46.23s.62.13.62.35a4.12,4.12,0,0,1,.67.24c.23.08.47.13.69.21s.31.21.49.29.41.12.51.33-.09.57-.1.85c0,0,0,.12,0,.18a.76.76,0,0,1,0,.21c0,.16-.06.31-.08.47,0,.39,0,.79-.11,1.19a4.17,4.17,0,0,0-.1.6c0,.15-.09.38,0,.5l-.08.1c.09.21-.09.64-.13.86s-.09.23-.11.34,0,.19,0,.28-.08.22-.09.33,0,.17,0,.27a1.65,1.65,0,0,1-.22.7,2.64,2.64,0,0,1,0,1l-.12.57c0,.15,0,.35-.07.48a1.56,1.56,0,0,1,0,.68c0,.24-.06.48-.09.71s-.09.41-.13.62,0,.2-.07.3-.07.24-.08.34a1.5,1.5,0,0,1,0,.22,2,2,0,0,1-.07.31c0,.15,0,.3-.06.43s0,.27-.08.41,0,.49-.14.63.05,0,.06.07c-.07.25-.09.51-.14.78s-.14.66-.19,1-.07.56-.1.84a3.45,3.45,0,0,0-.07.55,1.76,1.76,0,0,0,.07.41c0,.17-.12.28-.14.42s0,.09,0,.13a.82.82,0,0,1-.06.19c-.06.15-.07.32-.14.47a2.05,2.05,0,0,0-.2.39c0,.1,0,.25,0,.37s-.09.37-.12.57-.06.26-.09.4a.76.76,0,0,0,0,.26c.17,0,.21-.4.27-.51.14-.26.39-.5.55-.76s.41-.86.69-1.25.44-.64.68-1,.59-.93.88-1.41.56-.93.8-1.43c.11-.23.2-.47.29-.7a7.15,7.15,0,0,1,.44-.76c.24-.39.53-.75.76-1.14.14-.23.3-.46.44-.7s.13-.14.19-.22.09-.24.17-.35.3-.53.48-.78a4.91,4.91,0,0,0,.33-.59l.42-.9c.08-.15.14-.3.22-.45s.18-.25.17-.34.15-.24.19-.3l.28-.48c.09-.16.2-.3.29-.46s.2-.35.29-.36.15-.22.19-.36c.19,0,.35-.37.45-.51s.38-.45.36-.57.1-.25.21-.28a.85.85,0,0,1,.13-.31s.08,0,.09-.07,0-.09,0-.13.1-.25.16-.35.13-.12.17-.22a1.91,1.91,0,0,1,.88.19l.94.33a6.78,6.78,0,0,0,.87.28c.17,0,.58.06.6.28.13,0,.23,0,.35,0s.25.15.38.22.63.16.89.34c0,0,0,.06,0,.09s.09,0,.13-.05a1.28,1.28,0,0,1,.32.09s0,.06,0,.09c.21.12.25.12.35,0l.68.2s0,.07,0,.12c.4.13.8.26,1.22.38a12.19,12.19,0,0,1,1.21.39c-.16.64-.39,1.27-.61,1.89-.11.29-.25.55-.33.84s-.17.64-.28.94c-.2.57-.4,1.13-.59,1.7-.09.28-.23.54-.31.81s0,.29-.09.44-.14.28-.19.43c-.22.57-.41,1.16-.6,1.74s-.42,1.14-.58,1.73-.32,1.26-.56,1.85c-.11.26-.22.53-.31.79s-.26.58-.33.87c-.15.59-.33,1.17-.54,1.75a6.41,6.41,0,0,0-.23.78c-.07.3-.19.58-.24.88s-.21.41-.35.63a4.76,4.76,0,0,0-.35.91c-.19.51-.39,1-.53,1.55s-.39,1-.55,1.47-.37,1.15-.58,1.72c-.09.22-.21.43-.28.66a3.58,3.58,0,0,0-.09.45c0,.15,0,.28-.07.42a2.66,2.66,0,0,0-.26.31,1.57,1.57,0,0,0-.12.3c0,.13,0,.26-.08.38s-.13.25-.17.38c-.22.63-.49,1.23-.71,1.86-.1.32-.26.62-.37,1s-.19.64-.3,1c-.2.64-.42,1.25-.6,1.9a5.07,5.07,0,0,1-.36.91c-.07.16-.18.29-.24.45a2,2,0,0,1-.22.47c.06,0,.13,0,.13,0s-.13,0-.18.08a1.53,1.53,0,0,0-.12.38,8.37,8.37,0,0,0-.23.82,9.2,9.2,0,0,1-.5,1.45c-.11.29-.22.24-.5.15l-.89-.28c-.25-.09-.44-.24-.68-.34s-.67-.15-.64-.32c0,0,0,0-.07,0a.41.41,0,0,1-.18,0s-.07-.09-.12-.11a1.09,1.09,0,0,0-.25-.1,5.08,5.08,0,0,1-.51-.17,2.65,2.65,0,0,1-.3-.11c-.08,0-.12-.11-.2-.16a4.64,4.64,0,0,0-1.18-.37,1.69,1.69,0,0,1-.51-.23,1.5,1.5,0,0,0-.48-.27,1.33,1.33,0,0,1,.21-.69l.2-.53c.19-.47.48-.92.64-1.4.07-.21.15-.39.21-.61s.19-.4.26-.62a2.12,2.12,0,0,1,.6-1.06.39.39,0,0,1,0-.36c.1-.14.13,0,.27-.09a2.11,2.11,0,0,0,.5-.36c0-.07-.08-.06-.13-.07a.94.94,0,0,1-.47.28c-.12-.11.13-.4.21-.46s.25,0,.27-.18.13-.17.24-.2.13-.17.17-.28-.16.08-.22,0c.09-.09,0-.19,0-.3l.16-.13a.74.74,0,0,1,0-.39c0-.11.11-.21.16-.32s.16-.49.25-.73a.19.19,0,0,1,0,.23c.09.14.09-.1.09-.15a1.2,1.2,0,0,1,0-.38,3.57,3.57,0,0,1,.3-.62c0-.12,0-.26.07-.38s.11-.28.17-.42.36-.72.19-.86c.2,0,.38-.74.42-.92.11-.45.34-.84.43-1.3a11.23,11.23,0,0,1,.42-1.43c.07-.19.12-.37.2-.55A1.58,1.58,0,0,0,90,111c0-.14,0-.26.08-.38s-.1-.23.08-.23c.12-.41.18-.86.28-1.28a1.2,1.2,0,0,0,0-.38.86.86,0,0,0,0-.23l0-.06s0,0,0-.07l-.09-.09c0-.09-.23.26-.15.34a2.84,2.84,0,0,1-.42.66c-.14.2-.23.44-.37.64a2.37,2.37,0,0,0-.3.67,4.64,4.64,0,0,1-.55.86c-.08.13-.16.27-.25.39s-.21.19-.26.31a2.54,2.54,0,0,1-.1.37c-.08.13-.17.26-.24.4a2.33,2.33,0,0,1-.11.28c-.07.13-.19.24-.27.36a5.62,5.62,0,0,1-.48.78,2.3,2.3,0,0,0-.43.65,4.15,4.15,0,0,1-.47.82c-.4.49-.62,1.13-1,1.64a13.66,13.66,0,0,0-.87,1.48c-.13.23-.28.45-.42.67s-.24.53-.39.79-.27.49-.42.74-.2.34-.29.5-.1.31-.17.45l-.38.73a2.39,2.39,0,0,1-.43.67,1.74,1.74,0,0,1-.23.45,5.39,5.39,0,0,0-.3.52,2.62,2.62,0,0,1-.43.85c-.22.24-.69-.07-.94-.14s-.72-.19-1.08-.31-.73-.21-1.08-.33c-.17-.06-.35-.08-.52-.13s-.31-.2-.51-.27-.7-.22-1-.35-.81-.09-1-.48a1.78,1.78,0,0,0,0-.47c0-.16.07-.31.1-.47s.13-.58.21-.85.14-.68.21-1a2.67,2.67,0,0,1,.16-.57c0-.14.17-.32.14-.47l.11-.08a4.69,4.69,0,0,1,.13-1.34c0-.22,0-.44.06-.67s.12-.41.16-.62c.09-.5,0-1,.15-1.53a7.3,7.3,0,0,0,.14-1.32c0-.44.15-.84.16-1.28s.22-.94.24-1.43.07-.83.09-1.25a4.72,4.72,0,0,1,.11-.74,2.88,2.88,0,0,1,.13-.65c-.07-.07-.07-.32-.07-.4a1.06,1.06,0,0,1,.08-.5c.11-.26.15-.68.39-.86.1,0,0-.51.18-.65a3.11,3.11,0,0,1,0-.32c-.09,0-.37,0-.36.17a.44.44,0,0,0-.25,0s0,.11-.09.13c.09.14-.12.45-.19.58a5.07,5.07,0,0,0-.34.75c-.19.5-.36,1-.54,1.5-.08.23-.23.4-.29.64a5.94,5.94,0,0,1-.23.75c-.18.48-.41.94-.62,1.4a16,16,0,0,0-.55,1.51c-.18.53-.39,1.05-.56,1.58s-.3,1.1-.48,1.63-.35.87-.52,1.31-.37.93-.59,1.39a10.35,10.35,0,0,0-.54,1.29c-.09.23-.17.47-.26.69a2.48,2.48,0,0,1-.24.66c-.23.27-.95-.15-1.23-.23-.93-.27-1.9-.54-2.8-.9a5.37,5.37,0,0,0-1.18-.36,4.74,4.74,0,0,1-.65-.16c-.22-.07-.18-.21-.15-.42a11.72,11.72,0,0,1,1.11-3.34l.37-.87c.12-.28.18-.59.3-.86a7.43,7.43,0,0,0,.33-.77c.07-.19.09-.6.26-.72a2,2,0,0,1,.17-.59c.09-.22.14-.45.21-.67.12-.42.29-.81.44-1.21.28-.8.59-1.57.88-2.36s.64-1.64,1-2.46.53-1.52.82-2.27c.62-1.59,1.13-3.19,1.7-4.8.29-.82.64-1.63.93-2.46s.68-1.62,1-2.45c.16-.45.31-.89.44-1.34s.21-.88.36-1.3a10.88,10.88,0,0,1,.52-1.38,6.5,6.5,0,0,0,.22-.62,2.18,2.18,0,0,1,.28-.62,3.86,3.86,0,0,1,.16-.48,4.24,4.24,0,0,1,.18-.5c.11-.28.21-.59.3-.88s.23-.53.32-.81a3.43,3.43,0,0,1,.19-.44c.07-.12.09-.32.19-.43a2.61,2.61,0,0,1,.22-.85c.09-.31.12-.65.21-.95a.85.85,0,0,1,0-.68C77.76,82.35,78.08,82.51,78.27,82.65Zm8.34,37.54c.1-.06.09-.18.17-.24a.24.24,0,0,1,.16,0C86.94,120.23,86.81,120.29,86.61,120.19Z"/><path class="cls-1" d="M84.65,141.34a8.24,8.24,0,0,0-1.13-.44c-.47-.16-1-.34-1.4-.48a4.11,4.11,0,0,1-.71-.26,9.51,9.51,0,0,0-1.69-.64l-1.53-.5A15.9,15.9,0,0,1,75.65,138l-.25-.12c-.17,0-.42-.17-.66-.21s-.17,0,0,.17c.91.34,1.85.65,2.74,1,.7.22,1.4.5,2.1.74a7.19,7.19,0,0,1,1,.42c.58.17,1.18.39,1.74.6l1.42.52c.82.31,1.65.58,2.46.93a3.39,3.39,0,0,0,1.08.31c-.62-.24-1.13-.46-1.74-.68C85.22,141.56,84.84,141.43,84.65,141.34Z"/><path class="cls-1" d="M61,132.42a3.73,3.73,0,0,1-.53-.26L59,131.63c.12.11.11.18.36.33.06,0,.12.07.11.08s.11.2.9.5l1.68.65c.54.21,1.08.4,1.65.61a6,6,0,0,0-.67-.33,5.15,5.15,0,0,1-1.09-.54A5.06,5.06,0,0,0,61,132.42Z"/><path class="cls-1" d="M210.76,187.47l-.27-.11A35.46,35.46,0,0,0,207,186c-.59-.2-1.18-.44-1.77-.64l-.44-.15a10.08,10.08,0,0,1-1.08-.38l-1.41-.52-2.47-.89c-1.73-.65-3.49-1.27-5.21-1.94-.75-.29-1.56-.58-2.35-.86s-1.44-.51-2.15-.79c-1-.4-1.95-.75-2.94-1.05-.49-.14-1-.36-1.53-.55-.16-.07-.32-.14-.5-.2-1.59-.54-3.14-1.15-4.7-1.73l-3.86-1.43c-.52-.19-1-.34-1.55-.54s-1.32-.49-2-.75c-.48-.2-1-.39-1.49-.54-1.05-.34-2.12-.71-3.2-1.1l-1.81-.65c-.38-.14-.76-.27-1.07-.42-.15-.07-.34-.14-.51-.2-.87-.31-1.74-.63-2.59-.89-.37-.12-.78-.27-1.12-.41-.53-.21-1.1-.4-1.62-.62-.28-.11-.6-.23-.89-.32s-.83-.28-1.26-.45c-.59-.23-1.2-.45-1.79-.65l-.82-.28c-.88-.34-1.73-.62-2.59-.92s-2-.68-2.92-1.06l-.3-.11c-2.48-.87-5-1.75-7.41-2.7l-1.2-.44c-1-.36-2.09-.75-3.14-1.13-.58-.21-1.17-.42-1.75-.65-.3-.12-.64-.23-1-.34-.67-.22-1.35-.46-2.05-.73s-1.49-.56-2.25-.82c-.37-.12-.75-.26-1.13-.4-.79-.29-1.59-.56-2.38-.86-.36-.14-.68-.23-1-.35-.67-.24-1.31-.49-2-.74-.32-.13-.64-.24-.94-.34-.63-.21-1.23-.44-1.86-.67l-2.26-.84c-.7-.25-1.4-.47-2.1-.74l-.14-.05c-.86-.36-1.77-.67-2.67-1-1.08-.39-2.17-.78-3.25-1.15-.78-.27-1.54-.53-2.31-.82l-.67-.25c-1.08-.42-2.17-.83-3.28-1.22-.79-.28-1.59-.56-2.38-.87a15.74,15.74,0,0,0-1.59-.55,16,16,0,0,1-1.75-.62c-.92-.36-1.84-.69-2.77-1-.43-.14-.85-.29-1.27-.46l-.44-.17c-.88-.3-1.72-.66-2.58-1s-1.61-.6-2.41-.9c-.19-.08-.4-.14-.59-.21-1.1-.38-2.2-.76-3.28-1.19a1.82,1.82,0,0,0-.28-.11c-1.08-.37-2.15-.78-3.22-1.18a13.21,13.21,0,0,0-1.57-.53c-.09,0-.25-.08-.36-.13-1.18-.45-2.37-.89-3.57-1.33-.53-.19-.9-.38-1.33-.57l-2.52-.87c-.63-.22-1.29-.47-1.93-.71-.34-.12-.66-.27-1-.36a4.35,4.35,0,0,1-.6-.25c-.66-.27-1.34-.5-2-.72a4.87,4.87,0,0,1-1-.42,2.27,2.27,0,0,0-.31-.15.86.86,0,0,1-.35,0c-.32-.14-.72-.27-1.11-.43s-.72-.25-1.08-.36c-.2-.07-.4-.13-.59-.21-.74-.28-1.47-.55-2.21-.8l-.6-.21a5.2,5.2,0,0,0-.72-.26l-.3-.11c-1.47-.54-2.95-1.07-4.42-1.59-1-.35-1.92-.71-2.88-1.06-.41-.15-.81-.26-1.24-.45s-.82-.29-1.22-.46a3.84,3.84,0,0,0-.52-.19c-.65-.21-1.32-.48-2-.7-.12,0-.26-.08-.37-.13-1.05-.43-2.09-.75-3.14-1.12l-1-.39c-1.36-.51-2.73-1-4.1-1.5l-2-.7c-.84-.29-1.69-.61-2.54-.92l-1.2-.44c-1-.35-2-.72-2.92-1l-.82-.3c-1.36-.52-2.73-1-4.1-1.48l-.38-.13c-1.41-.55-2.85-1-4.28-1.57-.47-.17-.92-.36-1.4-.5s-1-.36-1.44-.56a4,4,0,0,0-.52-.19c-.52-.16-1.06-.36-1.56-.55-.75-.29-1.48-.55-2.23-.8-.35-.12-.67-.27-1-.4-.93-.33-1.88-.67-2.8-1L6.17,113c-.67-.24-1.35-.47-2-.69s-1.05-.36-1.56-.57c-.32-.13-.67-.24-1-.35q-.81-.32-1.62-.6a25.53,25.53,0,0,1,.14,3.49.88.88,0,0,0,.16.41c.7,1.47.24,3.09.56,4.6a.53.53,0,0,1-.08.32,1.82,1.82,0,0,0-.05,1.71c.22.56.47,1.11-.06,1.66a.56.56,0,0,0,0,.64c.6,1.05-.2,2.27.42,3.31-.3.42,0,.79.1,1.17,0,.21.25.47.09.63-.5.54-.25,1,0,1.52.13.22,0,.49,0,.75a7.19,7.19,0,0,0,.31,3.86c.4,1-.2,2.17.51,3.11,0,0,0,.06,0,.09-.36.46-.2,1-.26,1.52a4.28,4.28,0,0,0,.49,2.7,6.59,6.59,0,0,1,.89,2.22,3.85,3.85,0,0,1,.13,2c-.06.16.09.36.11.53.09.72.56,1.38.4,2.13a1,1,0,0,0,.28,1.11.52.52,0,0,1,.17.39,3.87,3.87,0,0,0,.6,2.84A11.5,11.5,0,0,0,6,155.32a3.2,3.2,0,0,1,.76,1.47A2.67,2.67,0,0,0,7.29,158a4.58,4.58,0,0,1,1.13,2.73c0,.78.62,1.48.42,2.33,0,.12.1.28.17.41A6.13,6.13,0,0,1,10.08,167a.78.78,0,0,0,.13.54,4.87,4.87,0,0,1,1.13,2.24c.86.63,1,1.82,2,2.37-.24.5-.4,1,.18,1.29a2.54,2.54,0,0,1,1.31,1.92,6.4,6.4,0,0,0,.67,1.75,13.9,13.9,0,0,0,2.48,3,3.2,3.2,0,0,1,.92,2,3.49,3.49,0,0,0,.19,1.05,5.8,5.8,0,0,1,1.31.75c.46.31,1-.12,1.47.17.1.37-.36.42-.31.71a.36.36,0,0,0,0,.11c.69.92,1.72,1.66,1.75,3a.43.43,0,0,0,.41.46c.48,0,.72.42,1.07.68.76.57,1.19,1.48,2.09,1.89a1,1,0,0,1,.54.92,1.36,1.36,0,0,0,.16.78l.59.26c.61.28,1.05.6,1,1.41,0,.51.91,1.22,1.43,1.12a.92.92,0,0,1,1,.3c-.08.27-.39.54-.18.94a9,9,0,0,0,1.74.47c-.22.52-.69.14-1,.47a9.83,9.83,0,0,1,2.43,2.67,1.21,1.21,0,0,0,.71.54c.79.18.92.8,1,1.44a2.32,2.32,0,0,0,.08,1c1,.19,1.16,1.28,1.84,2a1.53,1.53,0,0,1,1.11.63,9,9,0,0,0,2.33,1.65c.48.29.87.54.91,1.15a.92.92,0,0,0,.71.91,2.2,2.2,0,0,1,1.46,1.29,2.28,2.28,0,0,0,.53.71,28.06,28.06,0,0,1,3.74,3.23c.6.67,1.32,1.21,1.91,1.88a3.33,3.33,0,0,0,3,1.32c.25,0,.52-.13.76.06,0,.14.08.29.13.43.45,1.25.87,1.48,2.19,1.18.18-.05.47-.13.53-.05.59.76,1.52,1,2.23,1.53.08.06.1.2.14.31a2,2,0,0,0,1.28,1.14c1.91.88,3.93,1.49,5.89,2.28A4.58,4.58,0,0,1,68.67,226c.49.51,1.33.33,1.94.78,1,.75,2.33.92,3.36,1.67.14.11.36.08.54.12a5.15,5.15,0,0,1,2.23,1,2.22,2.22,0,0,0,1.74.63,2.6,2.6,0,0,1,1,.2,13,13,0,0,0,2.88,1,3.87,3.87,0,0,0,1.55-.12c1.35,1,3,1.05,4.54,1.29.84.13,1.85-.17,2.38.85,0,.08.21.12.31.12a17.26,17.26,0,0,0,3.8,0,5.86,5.86,0,0,1,2.64.16c.4.08.8.18,1.2.27,1.5.31,3.06,0,4.56.53.61.19,1.41,0,1.89.5s1.4,0,2,.43a1.53,1.53,0,0,0,1.09.18,1.89,1.89,0,0,1,1.1.1,1.7,1.7,0,0,0,1.87-.06c.6.49,1.16,1,2,.8a9,9,0,0,1,3.77.44,3.4,3.4,0,0,1,2.5-.91,25.19,25.19,0,0,0,2.75-.09c1-.07,2-.48,3.08-.1a.74.74,0,0,0,.63-.17c.61-.66,1.6-.15,2.22-.75,1,.35,2-.6,3,.07.24.16.55,0,.74-.16a.85.85,0,0,1,1-.06,2.23,2.23,0,0,0,1.85.15c.25-.07.48-.2.75-.08.8.36,1.43-.14,2.1-.41.16-.06.27-.26.47-.26,1.51,0,2.92-.74,4.45-.56a.71.71,0,0,0,.52-.17,2.07,2.07,0,0,1,1.24-.39,8.53,8.53,0,0,0,2.12-.64,6.63,6.63,0,0,1,2.76-.73c.58.06,1.09-.36,1.71-.23.28.06.31-.49.49-.51,1.39-.19,2.56-1,3.91-1.31a5.72,5.72,0,0,0,2.48-.86c.78-.69,1.92-.31,2.55-1.12,1.09,0,1.9-.76,2.87-1.06a17.68,17.68,0,0,1,2.56-1.07,5.56,5.56,0,0,0,2.15-.75c.59-.34,1.26-.24,1.8-.54a18.41,18.41,0,0,1,2.77-1,6.41,6.41,0,0,0,2.74-1.35,3,3,0,0,1,1.91-1.22c.17,0,.33-.28.49-.43s.31-.36.5-.43c1.7-.64,3.09-1.9,4.91-2.3a1.1,1.1,0,0,0,.89-.76,2.34,2.34,0,0,1,.74-1c.32-.06.71.15,1-.17.44-.58,1.14-.64,1.68-.95.75.46.75.46,1.37.43.23-.36,0-.92.49-1.18,1.22-.65,1.9-2,3.22-2.52a.59.59,0,0,0,.29-.33c.23-.83.88-1.12,1.61-1.37a3.27,3.27,0,0,0,2.25-2.6.9.9,0,0,0,.34-.05c.9-.52,1.63-1.29,2.57-1.75a2.73,2.73,0,0,0,1.53-1.51c0-.06.1-.1.16-.15,1.55-1.33,2.85-2.9,4.35-4.29a30,30,0,0,0,4.07-4.43,2.08,2.08,0,0,1,.65-.6,6.61,6.61,0,0,0,2.53-3.15c.36-.81.75-1.6,1.14-2.4C212.82,188.28,211.74,187.91,210.76,187.47Z"/><path class="cls-1" d="M78,109.62c0-.12-.12-.16-.22-.22S77.92,109.76,78,109.62Z"/><path class="cls-1" d="M113.23,151.63c.74.19.74.14,0-.17C113,151.43,112.88,151.44,113.23,151.63Z"/><path class="cls-1" d="M100,146.88c.13,0,.34.09.35.06a6.37,6.37,0,0,0-1.52-.55C99.15,146.57,99.6,146.73,100,146.88Z"/><path class="cls-1" d="M96.42,145.69c.53.2,1.07.42,1.55.65a9.89,9.89,0,0,0-1.35-.63C96.42,145.63,96.35,145.63,96.42,145.69Z"/><path class="cls-1" d="M73.46,107.89c.1.14.18-.11.2-.17S73.5,107.8,73.46,107.89Z"/><path class="cls-1" d="M79.18,102.12c0-.08.14-.15,0-.24s-.19.31-.15.44.25.19.4.28.43-.16.46-.3,0-.16-.08-.23-.23.08-.3.14,0,0,0,.18c-.18.22-.17,0-.21-.14S79.18,102.28,79.18,102.12Z"/><path class="cls-1" d="M79.26,104a1.64,1.64,0,0,1,.63-.54c-.1-.07-.28.13-.38.17s-.25.16-.38.21C79.15,103.93,79.15,104,79.26,104Z"/><path class="cls-1" d="M79.32,100.75c-.07-.11.05-.65,0-.66-.19.18,0,.45-.08.67l.14.12c.17,0,.6-.58.39-.66C79.65,100.29,79.5,101,79.32,100.75Z"/><path class="cls-1" d="M83.42,90.72c-.11.07-.22.14-.21.3C83.32,91,83.41,90.88,83.42,90.72Z"/><path class="cls-1" d="M83.84,90.26a2.43,2.43,0,0,1,.43-.48c0-.09,0-.16-.13-.14s-.11.14-.19.22c-.08-.15,0-.31,0-.47a1.46,1.46,0,0,0-.18.45A.51.51,0,0,0,83.84,90.26Z"/><path class="cls-1" d="M78.8,106.64c-.1,0-.06.15-.17.08s.1-.22-.1-.22c0,.06,0,.12,0,.18s-.07,0-.08,0a.12.12,0,0,0,0,.08,1.57,1.57,0,0,1,.53.06c.2,0,.2-.13.37-.14a1.47,1.47,0,0,0,.13-.37s0,0-.08,0-.15.1-.18.19a.33.33,0,0,0-.33.22A.12.12,0,0,1,78.8,106.64Z"/><path class="cls-1" d="M78.75,105.78l-.06,0c0,.08.1.14.06.25C78.86,106,78.85,105.87,78.75,105.78Z"/><path class="cls-1" d="M81.13,100.58c.1-.29.29-.56.37-.87-.11-.18-.22-.19,0-.37,0,0,0,.1.07.1a2.21,2.21,0,0,0,.28-.65c0-.13,0-.26.07-.4s.09-.21.06-.32a1.41,1.41,0,0,0-.19.39c0,.11,0,.21,0,.32a2.21,2.21,0,0,1-.41.6c-.14.18-.07.37-.17.59a.89.89,0,0,0-.11.35c0,.14,0,.21-.08.32a.31.31,0,0,1-.28-.15c-.24.22,0,.3,0,.54C80.94,101.11,81,100.8,81.13,100.58Z"/><path class="cls-1" d="M81.18,95.69a.84.84,0,0,0,0-.42c.1-.09.11-.23,0-.19s-.14.17-.18.28,0,.25,0,.24S81.07,95.68,81.18,95.69Z"/><path class="cls-1" d="M73.34,110.21c0,.16-.16.28-.21.46.1,0,.34-.34.33-.44A.12.12,0,0,0,73.34,110.21Z"/><path class="cls-1" d="M82.86,113.61c0-.09.11-.11.13-.2s-.12.06-.18.1-.09,0-.12,0S82.68,113.61,82.86,113.61Z"/><path class="cls-1" d="M76.47,104.76c.1,0,.23.2.34.14a.79.79,0,0,0-.18-.28c0-.08.11-.13.13-.19a.44.44,0,0,0,0-.3c-.14.08-.17.34-.39.28a.48.48,0,0,0,0-.42.63.63,0,0,0-.09.67C76.29,104.75,76.37,104.72,76.47,104.76Z"/><path class="cls-1" d="M80,92.27c0-.13-.17,0-.15.06A.12.12,0,0,0,80,92.27Z"/><path class="cls-1" d="M77.9,101.63a.17.17,0,0,0,0-.16l-.13-.07C77.85,101.47,77.82,101.57,77.9,101.63Z"/><path class="cls-1" d="M71.85,112.84c0,.06-.17.38-.14.44S72.05,112.89,71.85,112.84Z"/><path class="cls-1" d="M79.67,98.48c.08-.1.08-.1.06-.2-.12.1-.06.15-.11.27s-.1.15-.15.23S79.73,98.58,79.67,98.48Z"/><path class="cls-1" d="M81.73,93.85s.28-.14.26-.16l-.09,0a.68.68,0,0,1,0-.31c.07,0,.1,0,.14,0s0,0,0-.06c-.24-.18-.52-.11-.52.21C81.6,93.71,81.61,93.84,81.73,93.85Z"/><path class="cls-1" d="M97.78,96c-.12,0-.3.45-.18.5C97.77,96.31,97.83,96.13,97.78,96Z"/><path class="cls-1" d="M96.07,99.08a.5.5,0,0,0,.17-.67,1.14,1.14,0,0,0-.07.33A3.37,3.37,0,0,0,96.07,99.08Z"/><path class="cls-1" d="M95.19,99.61a2.73,2.73,0,0,0-.07.64c.07,0,0-.08.09-.1a.14.14,0,0,1,.12,0c0,.17,0,.23-.11.25s0-.1,0-.12,0,.27-.21.37c0,.17-.18.31-.1.46.1,0,.19-.31.24-.4s.24-.32.36-.48.17-.15.22-.24a.58.58,0,0,0,.06-.26A2.51,2.51,0,0,1,96,99.2c-.18,0-.19.19-.28.3s-.09.35-.21.54c-.15-.05-.21.2-.32,0C95.18,99.93,95.3,99.61,95.19,99.61Z"/><path class="cls-1" d="M97.61,92.72a.43.43,0,0,0-.25.21C97.45,93,97.59,92.82,97.61,92.72Z"/><path class="cls-1" d="M88.61,120.3c.17,0,.17-.16.15-.25s-.05.12-.12.11,0-.08-.09-.09S88.55,120.28,88.61,120.3Z"/><path class="cls-1" d="M96.72,98.77c.11,0,.22,0,.31-.07a2,2,0,0,0,.1-.81C96.82,97.71,96.59,98.57,96.72,98.77Z"/><path class="cls-1" d="M97.48,96.94a.23.23,0,0,0,0-.3C97.43,96.67,97.38,96.89,97.48,96.94Z"/><path class="cls-1" d="M96.24,96.09c-.08-.14,0-.21.11-.31s.09-.23.15-.34.27-.45.44-.46a.16.16,0,0,0,0-.16c0-.06.15-.07.21-.14a1,1,0,0,0,.2-.39c-.17-.08-.23.1-.32.22a.66.66,0,0,1-.43.27,1.83,1.83,0,0,0-.21.5c.1.14-.15.45-.29.51C96.15,95.91,96.07,96.08,96.24,96.09Z"/><path class="cls-1" d="M98.48,93.44a.12.12,0,0,0-.09.14C98.49,93.63,98.56,93.52,98.48,93.44Z"/><path class="cls-1" d="M94.58,97.59c0-.12,0-.39.09-.45s.16.07.25,0c-.12-.06-.28-.07-.25-.25,0,0-.07,0-.12,0a2.43,2.43,0,0,0-.1.68S94.53,97.61,94.58,97.59Z"/><path class="cls-1" d="M95.22,96.68c-.06,0-.24.18-.27.23A.2.2,0,0,0,95.22,96.68Z"/><path class="cls-1" d="M93.76,99.07c-.13,0-.18.07-.2.21s.31-.25.3-.33a.14.14,0,0,0-.14,0S93.76,99,93.76,99.07Z"/><path class="cls-1" d="M91.12,105.5s0-.13,0-.16-.18-.3,0-.23c0,.16,0,.16.06.21a.89.89,0,0,0,.14-.55h0l-.14.25c-.1,0-.18-.07-.27,0s-.06.21-.08.26a2.36,2.36,0,0,0-.25.67c0,.22.19.23.36.11a.75.75,0,0,0,.23-.49S91.13,105.54,91.12,105.5Z"/><path class="cls-1" d="M96.52,91.24a.14.14,0,0,0-.1,0c0,.05,0,.11-.11.15s.09,0,.15,0S96.51,91.29,96.52,91.24Z"/><path class="cls-1" d="M104,113.82l.09-.11c.08-.07.14-.16.22-.22s.16-.18.27-.23l.17-.08a.39.39,0,0,0,.2-.13.19.19,0,0,0,.05-.2c0-.07-.08-.09-.14,0l-.06,0a.61.61,0,0,1-.16.16.24.24,0,0,0-.14.17.1.1,0,0,1-.08.07.13.13,0,0,0-.12.09c0,.06-.1.06-.11.12a.35.35,0,0,1-.12.17.53.53,0,0,0-.12.14,0,0,0,0,1,0,0Z"/><path class="cls-1" d="M93.3,100c.21.09.18-.2.18-.3S93.3,99.81,93.3,100Z"/><path class="cls-1" d="M94.25,102.42s0,0,.07,0,.05-.1,0-.16S94.25,102.29,94.25,102.42Z"/><path class="cls-1" d="M94,98.71a.64.64,0,0,0-.1.24c.1,0,.15-.27.21-.33l0-.1C93.91,98.61,93.91,98.61,94,98.71Z"/><path class="cls-1" d="M98.73,99.72s.14-.46.08-.45A.4.4,0,0,0,98.73,99.72Z"/><path class="cls-1" d="M95.43,98.29s0,.09.09.06.15-.39.07-.46C95.46,98,95.58,98.19,95.43,98.29Z"/><path class="cls-1" d="M103.41,114.49a2.52,2.52,0,0,0,.45-.47c-.06,0-.11,0-.15,0a2.75,2.75,0,0,0-.28.19,1,1,0,0,1-.22.2s0,0-.07.06,0,.07.08.07A.32.32,0,0,0,103.41,114.49Z"/><path class="cls-1" d="M96,102.07c.09-.09.12-.36.24-.41C96,101.75,96,101.88,96,102.07Z"/><path class="cls-1" d="M97,101.79c-.08,0-.09.48-.1.55s.44-.21.44-.32S97,101.77,97,101.79Z"/><path class="cls-1" d="M90.53,115.6s.2,0,.13-.1a.07.07,0,0,1-.06,0c.1-.07.25-.11.18-.27S90.56,115.53,90.53,115.6Z"/><path class="cls-1" d="M94.82,101.21c-.08,0-.27.41-.26.5s.11,0,.09-.15A.45.45,0,0,0,94.82,101.21Z"/><path class="cls-1" d="M80.07,120.24c0,.08,0,.4.12.35a.32.32,0,0,1,0-.3S80.12,120.24,80.07,120.24Z"/><path class="cls-1" d="M92.36,101.34a2.61,2.61,0,0,0-.14.65c-.16,0-.18.15-.21.25s.09.06.14.1-.17,0-.18.13c.15.24.22,0,.33,0a.88.88,0,0,0-.07-.23c.15,0,.22-.18.26-.31a2.76,2.76,0,0,1,.08-.27c0-.08.08-.11.09-.19s-.1,0-.15,0S92.46,101.3,92.36,101.34Z"/><path class="cls-1" d="M91.91,112.56c.1-.11.23-.18.3-.32s0,0-.06,0a.69.69,0,0,1,.08-.28c.06-.09.17-.15.19-.26C92.23,111.63,91.8,112.45,91.91,112.56Z"/><path class="cls-1" d="M97.41,98.89c.08.15.41.07.46-.07-.24-.36,0-.78.26-1a.78.78,0,0,0,.18-.3c0-.13,0-.26.08-.35s0-.11-.1-.08a2.54,2.54,0,0,0-.45.67,2.17,2.17,0,0,1-.15.4c0,.1,0,.19-.07.29S97.32,98.74,97.41,98.89Z"/><path class="cls-1" d="M98.51,96.36c-.05.1-.14.29-.05.38s.35-.26.47-.43.4-.43.35-.49a.24.24,0,0,1-.22,0c.08-.07.25-.17.23-.29.23-.07.35-.39.44-.61s.09-.3.21-.43c-.16-.06,0-.09,0-.2s-.1-.1-.12-.19.13-.18.25-.22,0-.17,0-.25a1.2,1.2,0,0,1,.08-.27c0-.17.25-.4.09-.55A.3.3,0,0,0,100,93a2.69,2.69,0,0,1,0,.49.77.77,0,0,1,0,.3c0,.05-.1.06-.13.12s0,.11,0,.15a4.39,4.39,0,0,1-.27.47,3.52,3.52,0,0,0-.15.42c0,.16-.07.12-.19.21s-.2.48-.42.45c0,.1.09.13.13.2s0,.18.08.27S98.22,96.11,98.51,96.36Z"/><path class="cls-1" d="M101.64,91.93c.15-.1.23,0,.41,0a1.83,1.83,0,0,0,.41,0,2.43,2.43,0,0,0-.69-.23c-.13,0-.24,0-.38-.07s-.34-.15-.4-.09.1.19,0,.31A4.62,4.62,0,0,0,101.64,91.93Z"/><path class="cls-1" d="M96.24,101.57c.17,0,.21-.2.22-.34a1.28,1.28,0,0,0,0-.52c-.11,0-.07.28-.07.35A.76.76,0,0,1,96.24,101.57Z"/><path class="cls-1" d="M100.12,97.53c0-.06.24-.3.12-.33A.3.3,0,0,0,100.12,97.53Z"/><path class="cls-1" d="M99.75,98s-.17.31,0,.32a1,1,0,0,1,.17-.32c.07-.08.22-.13.17-.26A1.48,1.48,0,0,0,99.75,98Z"/><path class="cls-1" d="M101.05,95.06a1.85,1.85,0,0,0-.13.29s.21-.33.25-.37,0-.09,0-.16C101.09,94.9,101.1,95,101.05,95.06Z"/><path class="cls-1" d="M94,113.61c.09-.06.17-.12.16-.25C94,113.42,94,113.52,94,113.61Z"/><path class="cls-1" d="M95.22,96.47c.11.1.37.09.35-.12-.06,0-.11-.06-.18,0s0,.1,0,.14S95.26,96.42,95.22,96.47Z"/><path class="cls-1" d="M79.91,108.18a.23.23,0,0,0-.18,0c0,.1-.06.21-.19.21a.26.26,0,0,1-.07.11.63.63,0,0,0-.19,0s0,.07-.06.12.08-.06.17-.08.12,0,.18,0C79.8,108.57,79.85,108.37,79.91,108.18Z"/><path class="cls-1" d="M77.7,116.57c0-.22-.24,0-.27.07S77.68,116.71,77.7,116.57Z"/><path class="cls-1" d="M77.94,115a.82.82,0,0,0,.35-.56,1.59,1.59,0,0,0-.52.67.24.24,0,0,0,.09.13C78,115.17,78,115.07,77.94,115Z"/><path class="cls-1" d="M76.58,119.78a1.64,1.64,0,0,0-.37,0C76.37,119.94,76.47,119.83,76.58,119.78Z"/><path class="cls-1" d="M86.05,110.24s0-.11,0-.18-.11.09-.15.12S86,110.25,86.05,110.24Z"/><path class="cls-1" d="M79.36,114.09c-.07-.18-.25.07-.25.18S79.43,114.25,79.36,114.09Z"/><path class="cls-1" d="M75.67,119.51c-.07.15,0,.22.09.25C75.71,119.68,75.8,119.57,75.67,119.51Z"/><path class="cls-1" d="M79,109.25c-.07,0-.06.22-.1.29.13,0,.09-.16.16-.2A.2.2,0,0,0,79,109.25Z"/><path class="cls-1" d="M84.28,115.24s.24-.27,0-.24c0,.1-.14.15-.2.24a2.2,2.2,0,0,0-.15.31,1.33,1.33,0,0,1-.13.33c-.07.1-.24.23-.2.37S84.17,115.34,84.28,115.24Z"/><path class="cls-1" d="M79.47,122.19c-.12-.09,0-.36,0-.47-.12-.06-.16.19-.22.26a.64.64,0,0,1-.41.22.38.38,0,0,1-.26-.36.7.7,0,0,1-.2.08c-.15,0-.07.09-.2,0s-.21-.22-.35,0a.2.2,0,0,1,.06.09s0,0,.09,0,.6.22.69.4c.25,0,.29.4.58.34a.93.93,0,0,0,.49-.62C79.68,122.06,79.6,122.28,79.47,122.19Z"/><path class="cls-1" d="M80,117.18c-.14-.13-.26,0-.37.11A.29.29,0,0,0,80,117.18Z"/><path class="cls-1" d="M95.3,93.42c.11-.1.12-.12.07-.24s-.13.09-.21.13S95.2,93.4,95.3,93.42Z"/><path class="cls-1" d="M77.94,120.1a.46.46,0,0,0,.07-.36c-.09,0-.25.24-.24.33S77.85,120.19,77.94,120.1Z"/><path class="cls-1" d="M78.14,118.35c-.14,0-.18,0-.19.23C78.1,118.63,78.16,118.55,78.14,118.35Z"/><path class="cls-1" d="M80.09,112c-.08.09-.21.11-.24.24s.1,0,.15,0S80.15,112.1,80.09,112Z"/><path class="cls-1" d="M77.16,121.52c-.08.08-.21.07-.28.17a.9.9,0,0,0,0,.4c.22.12.51-.23.57-.42l0-.09Z"/><path class="cls-1" d="M98.44,129.24q0-.23-.18-.24C98.27,129.15,98.33,129.22,98.44,129.24Z"/><path class="cls-1" d="M80.49,116.92c-.09,0-.24.19-.28.26s.12,0,.17,0S80.54,117.05,80.49,116.92Z"/><path class="cls-1" d="M93.65,94.3c-.11,0-.13,0-.14.14S93.65,94.43,93.65,94.3Z"/><path class="cls-1" d="M91.84,99.29c.08,0,.26-.05.29-.13s0,0-.07-.06a.28.28,0,0,1-.2.09A.13.13,0,0,0,91.84,99.29Z"/><path class="cls-1" d="M89.13,106c.05-.13.05-.13-.09-.16,0,.07,0,.11,0,.16A.17.17,0,0,0,89.13,106Z"/><path class="cls-1" d="M92.59,96.88a.1.1,0,0,0,.1,0c0-.14,0-.3.08-.42s.08-.06.1-.09a1,1,0,0,0,.08-.34s-.08,0-.12,0C92.81,96.3,92.51,96.57,92.59,96.88Z"/><path class="cls-1" d="M92.27,99c-.1,0-.1,0-.18.09C92.24,99.11,92.25,99.1,92.27,99Z"/><path class="cls-1" d="M91.75,99.33c0,.08-.09.13-.11.21S91.79,99.4,91.75,99.33Z"/><path class="cls-1" d="M90.14,107.62c0-.09,0-.17,0-.26s.11-.15.15-.23a.1.1,0,0,0-.12-.06c-.14.29-.47.59-.45.94C89.78,108.05,90.1,107.75,90.14,107.62Z"/><path class="cls-1" d="M90.89,101.79a.07.07,0,0,0,.07,0c-.18.08-.09.23-.13.35s.08,0,.14,0a.68.68,0,0,1,.08-.48C91,101.69,91,101.69,90.89,101.79Z"/><path class="cls-1" d="M89,106.4c-.13-.08-.24.08-.16.2S88.93,106.45,89,106.4Z"/><path class="cls-1" d="M92.15,96.24c0-.12.1-.17.12-.29s-.08,0-.14,0,0,.13-.12.15,0,.12,0,.19S92.11,96.25,92.15,96.24Z"/><path class="cls-1" d="M91.34,98.49s-.06.1-.1.11-.08,0-.11,0-.17.08-.11.16c.33.22.46-.38.72-.44a2.12,2.12,0,0,0,.11-.29.15.15,0,0,0-.18-.07c0,.07,0,.13,0,.17h-.11c-.11.17-.28.13-.43.12C91.05,98.42,91.23,98.35,91.34,98.49Z"/><path class="cls-1" d="M86.39,109.33c-.13,0-.15,0-.14.18C86.37,109.51,86.32,109.39,86.39,109.33Z"/><path class="cls-1" d="M83.16,117.74a.74.74,0,0,0,.13-.44A.53.53,0,0,0,83.16,117.74Z"/><path class="cls-1" d="M95.21,93.51a.24.24,0,0,0-.2,0C95,93.67,95.2,93.69,95.21,93.51Z"/><path class="cls-1" d="M90.52,102.76c.06,0,.3-.22.26-.29S90.53,102.54,90.52,102.76Z"/><path class="cls-1" d="M88.24,107.54c.09-.1.09-.25.18-.36s.1,0,.15-.12a.56.56,0,0,0-.32,0C88.33,107.16,88.11,107.46,88.24,107.54Z"/></g></g></svg>