<svg xmlns="http://www.w3.org/2000/svg" viewBox="0 0 255.15 113.27"><defs><style>.cls-1{fill:#fff;}</style></defs><title>logo-large</title><g id="Layer_2" data-name="Layer 2"><g id="Layer_1-2" data-name="Layer 1"><path class="cls-1" d="M113.62,11.12a.73.73,0,0,1,0,.33,9.77,9.77,0,0,0,0,2.59.63.63,0,0,1,0,.24,2.82,2.82,0,0,0,0,1.55,1.55,1.55,0,0,1-.11,1.19,1.07,1.07,0,0,0,0,.64q0,.49,0,1a5.67,5.67,0,0,0,.06,1.23,3.27,3.27,0,0,1-.06,1.39,14.26,14.26,0,0,0-.24,2.53.94.94,0,0,0,0,.41c.2.51-.28.36-.21.87,0,.24,0,.48.09.72a5.15,5.15,0,0,1,0,1,1.3,1.3,0,0,0,.09.73s0,.12,0,.15c-.28.39,0,.8-.06,1.2s0,.82,0,1.23a.67.67,0,0,0,.1.48,1.29,1.29,0,0,1,.13,1.11,8.36,8.36,0,0,0,0,2.12,3,3,0,0,1,0,.73.92.92,0,0,0,.05.57.71.71,0,0,1,.09.47,9,9,0,0,0-.12,1.87,5.69,5.69,0,0,0,.06,1.7c.1.31-.15.66.14.94a6.76,6.76,0,0,1,0,.9c-.07.51-.19,1-.29,1.53,0,.08-.06.15-.07.23,0,.39.17.75.08,1.14a1.74,1.74,0,0,0,0,1.06.68.68,0,0,1,0,.4,2.43,2.43,0,0,0,0,.89,1,1,0,0,1,0,.57.93.93,0,0,0,0,.86,6.37,6.37,0,0,0,0,1.51c0,.24-.22-.27-.16-.07a3.24,3.24,0,0,0,.24,2.33,1.18,1.18,0,0,1,.11.55c0,1-.09,1.92-.14,2.88a1.88,1.88,0,0,1-.31.72,1.67,1.67,0,0,1,.23,1,1.12,1.12,0,0,1-.1.48,1.59,1.59,0,0,0-.15.29,4.28,4.28,0,0,0-.19,2.5,2,2,0,0,0,.19.39c0,.13-.12.22-.18.41a1.75,1.75,0,0,1,.1,1.44c0,.12,0,.21,0,.32a18,18,0,0,1,0,3.2,2.17,2.17,0,0,0,0,.57.83.83,0,0,1,0,.56.47.47,0,0,0,0,.47.66.66,0,0,1,.08.7.58.58,0,0,0,0,.32,13.76,13.76,0,0,1,0,2c0,.52,0,1,0,1.57a1.37,1.37,0,0,0,.08.8.33.33,0,0,1,0,.24,3.85,3.85,0,0,0,0,1.69,4.92,4.92,0,0,1,0,1.15,4.28,4.28,0,0,1-.21.78,1.15,1.15,0,0,0,.55.58c0,.2-.17.21-.25.31a.49.49,0,0,0-.07.54,1.91,1.91,0,0,1,0,1.41,1.05,1.05,0,0,0,.11,1.09.37.37,0,0,1,0,.46c-.08.14-.17.27-.28.44a1.58,1.58,0,0,1,.28,1.23c0,.5,0,1-.08,1.49s0,.89-.37,1.17a6.06,6.06,0,0,1,.2,2.17c0,1.73-.14,3.46-.2,5.19a7.76,7.76,0,0,0,.08,2,.78.78,0,0,1,0,.4c-.08.24.09.48-.07.72s.17.36.19.58c.06.58.09.58-.38,1.18,0,.39.32.77,0,1.18a.16.16,0,0,0,0,.15c.3.24,0,.57.14.85a1.78,1.78,0,0,1,0,.89,9.77,9.77,0,0,1-.1,2,.86.86,0,0,0,.17.71,2.45,2.45,0,0,1,.37.9,1,1,0,0,1-.2.94c-.36.41-.44,1-.82,1.41a12.3,12.3,0,0,1-2.27.4,5.93,5.93,0,0,1-1.9-.54,9.21,9.21,0,0,1-.3-2.4c0-.67.35-1.12,0-1.88.31-.31.1-.75.24-1.13a.62.62,0,0,0-.06-.4,4.19,4.19,0,0,1-.19-1.93,6.71,6.71,0,0,0,0-2.05,5.33,5.33,0,0,1,0-1,1.86,1.86,0,0,1,0-.33c.14-.62-.13-1.24,0-1.87a7.46,7.46,0,0,0,.13-1.89c0-1.23,0-2.45,0-3.68a12.53,12.53,0,0,0,0-1.62,6.12,6.12,0,0,1,0-.74c0-.38,0-.77,0-1.15,0-.19,0-.38,0-.57a10.72,10.72,0,0,0-.09-2.12,1.63,1.63,0,0,1,0-.73,2.49,2.49,0,0,0,.08-1.3,2.18,2.18,0,0,1,0-.57,8.15,8.15,0,0,0,0-1.71.77.77,0,0,1,0-.4,3,3,0,0,0,.07-1.39c0-.36.07-.69,0-1.06a20.42,20.42,0,0,0-.26-2.19,4.86,4.86,0,0,1,.06-1.31c0-.44,0-2.08,0-2.53a17.55,17.55,0,0,1-.1-2.29,10.66,10.66,0,0,0-.15-2,2.64,2.64,0,0,1,.08-1.45.7.7,0,0,0,0-.4,7,7,0,0,1-.06-1.89c0-.59.51-1.8.33-2.35-.08-.22-.79-.29-1-.17s-.54.77-.74.76a1.8,1.8,0,0,0-1.32.3c-.34.26-.87.07-1.19.38a.58.58,0,0,1-.23.09,13.84,13.84,0,0,0-2.71,1c-.42.17-.77.5-1.22.65a1.17,1.17,0,0,1-.39.12,2.81,2.81,0,0,0-1.4.41c-.41.2-.41,0-.85.11-.18.07-.3.41-.49.41a1.72,1.72,0,0,0-.71.17,20.92,20.92,0,0,1-2.63.9,15.93,15.93,0,0,0-1.56.54,7.5,7.5,0,0,1-2.1.69,10.88,10.88,0,0,1-1.81.58c-.28,0-.48.29-.74.34s-.49.26-.75.31a2.13,2.13,0,0,0-.77.26.43.43,0,0,1-.23,0,.92.92,0,0,0-.82.27,5.66,5.66,0,0,0-1,.36,21,21,0,0,1-2.33.74,18.34,18.34,0,0,0-2.77,1.19.5.5,0,0,1-.23.09,4.68,4.68,0,0,0-1.81.5,3.2,3.2,0,0,1-.57.32,2.17,2.17,0,0,0-.77.6c-.22.23,0,.71,0,1s-.08.87-.09,1.31a4.76,4.76,0,0,1-.19,1.46.37.37,0,0,0,0,.23,2.41,2.41,0,0,1,.06,1.22c0,.33,0,.66,0,1a4.9,4.9,0,0,1-.08,1.62,2,2,0,0,0,0,.9,3.5,3.5,0,0,1,0,1.29,1,1,0,0,0,0,.48,20,20,0,0,1,.17,2,1.17,1.17,0,0,1,0,.32,2.89,2.89,0,0,0-.07.49A8.69,8.69,0,0,1,74.78,86a1.17,1.17,0,0,0,.12.63,1.09,1.09,0,0,1,0,.95.48.48,0,0,0-.07.23,16.87,16.87,0,0,0-.1,2.46,10,10,0,0,1,.06,1.55,1.41,1.41,0,0,0,0,.41,9,9,0,0,1-.07,3.1s0,.06,0,.08c.19.71-.07,1.43.07,2.13.06.35-.12.72.12,1a.11.11,0,0,1,0,.08,1.78,1.78,0,0,0,.1,1.43,1.29,1.29,0,0,1-.2,1c0,.23.21.27.27.39s0,.29-.08.41-.11.25-.17.38c0,.3.41.82.37,1.15,0,.52,0,1-.12,1.55a6.51,6.51,0,0,1-.49,1.18,6.58,6.58,0,0,1-2.46.43c-.22-.17,0-.5-.28-.66,0,0-.2.33-.34.46s-.11,0-.14,0-.24-.3-.43-.38a.9.9,0,0,1-.54-1,2.07,2.07,0,0,0-.3-1.26.79.79,0,0,1-.12-.3c0-.51-.22-1.33-.21-1.85,0-1.37.1-2.74.15-4.12a3.23,3.23,0,0,0,0-1,1.61,1.61,0,0,1,0-.49c.24-1.58,0-3.17.19-4.75a1,1,0,0,0,0-.49,3.42,3.42,0,0,1-.19-1.84c0-.39,0-.77.06-1.15,0-1.32.4-3.08.41-4.4a13.54,13.54,0,0,1-.06-1.8A1,1,0,0,0,70.1,81a1.3,1.3,0,0,1-.17-1.1c.1-.31-.06-.59-.06-.89a22,22,0,0,0-.12-2.69,9.88,9.88,0,0,1,0-1.72q0-.33,0-.66a6,6,0,0,1,0-1.94,2.33,2.33,0,0,0,0-1,3.76,3.76,0,0,1,0-1.06c0-.68.1-1.37.11-2s0-1.1.08-1.65c0-.26-.08-.54-.06-.8A3.35,3.35,0,0,1,70,64.07a.29.29,0,0,0,0-.24c-.25-.75.1-1.54-.16-2.28a.43.43,0,0,1,0-.25c.34-.63,0-1.29.06-1.94a7.66,7.66,0,0,0,0-2,1.4,1.4,0,0,1,.07-.81,1.09,1.09,0,0,0,.07-.64,4.45,4.45,0,0,1,0-1.15c0-.85-.12-1.7-.17-2.54a2.92,2.92,0,0,1,0-.66c.16-.84,0-1.69.13-2.54a2,2,0,0,0,0-.49,4.08,4.08,0,0,1,.06-1.87.53.53,0,0,0,0-.25,13.36,13.36,0,0,1-.1-2.61,9.68,9.68,0,0,0-.08-1.7c.25-.74-.15-1.54.17-2.27a7.55,7.55,0,0,1-.26-1.39q0-2.1.18-4.2a19.65,19.65,0,0,0,0-2c0-.66,0-1.32,0-2s.11-1.31.15-2c0-.47-.34-.49-.3-.95a7.51,7.51,0,0,0,.13-1.14c0-.36,0-.71,0-1A6.46,6.46,0,0,1,70,23.64a.62.62,0,0,0,0-.33,8,8,0,0,1-.07-2.13,4.42,4.42,0,0,0,0-1.31.25.25,0,0,1,0-.08,3.61,3.61,0,0,0,0-1.39.47.47,0,0,1-.08-.38.87.87,0,0,0-.16-.58.72.72,0,0,1,0-.83A2.12,2.12,0,0,1,70,16,4,4,0,0,0,70,15a2.18,2.18,0,0,1,0-.57c.05-.5.41-1.5.05-1.91,0,0,0-.33,0-.77a2.79,2.79,0,0,0-.31-.39c-.15-.15-.29-.32-.56-.23-.1,0-.24-.05-.4-.09a1.68,1.68,0,0,0,.3-.15c.1-.1,0-.19,0-.32a5.25,5.25,0,0,0,.65.18l.32,0a17.78,17.78,0,0,1,.06-1.86c.26-.35-.1-1.57-.08-1.59.42-.49,1.9-.81,2-.55a.23.23,0,0,0,.23.2c.27,0,.59,0,.78-.2a.92.92,0,0,1,1-.25l.19.06c.14.21.13.52.45.69s.4.7.42,1.1,0,.87,0,1.3-.12,2.34-.15,2.85A12.4,12.4,0,0,0,75,14a.68.68,0,0,1-.06.4c-.23.44.22.81.25,1.27a24.08,24.08,0,0,1,0,3.29c0,.79-.08,1.59-.13,2.38L75,22.38a2.28,2.28,0,0,0,0,.9A2,2,0,0,1,75,24c0,.55,0,1.1-.08,1.65a12.6,12.6,0,0,0,.16,2.94,6.11,6.11,0,0,1,0,1.48c0,.5-.44,1.1-.32,1.58A4.28,4.28,0,0,1,74.84,33a5.48,5.48,0,0,0,0,1.07,7.14,7.14,0,0,1,0,1.31,4.6,4.6,0,0,0,0,1A2.24,2.24,0,0,1,75,37c0,.85,0,1.7-.09,2.55a4,4,0,0,0,0,1.14,1,1,0,0,1,0,.57,2.4,2.4,0,0,0-.07,1.22,1.82,1.82,0,0,1,0,.57,12,12,0,0,0,.09,1.47,13.22,13.22,0,0,1-.1,1.89,4.82,4.82,0,0,0,0,1.47,2.46,2.46,0,0,1,0,.81,1.07,1.07,0,0,0,.44,1.12,1.57,1.57,0,0,0-.41,1.68.82.82,0,0,1,0,.49,5.34,5.34,0,0,0-.26,1.86,5.62,5.62,0,0,1,0,.58A2,2,0,0,0,75,56c0,.22-.16.3-.24.44a1,1,0,0,0-.16.78,2.24,2.24,0,0,1,0,1.06,1.1,1.1,0,0,0,0,.57.59.59,0,0,1,0,.48,1.29,1.29,0,0,0,.1,1.13l-.26.45a1.47,1.47,0,0,1-.06,1.45c.1.36.18.68.29,1a.55.55,0,0,0,.57.38,1.23,1.23,0,0,0,.69-.22c.77-.64,1.95-.68,2.81-1.15a6,6,0,0,1,1-.33c.87-.32,1.61-.46,2.46-.85A2.9,2.9,0,0,1,83.2,61a2.94,2.94,0,0,0,1.13-.43,14.17,14.17,0,0,1,1.85-.87,8.9,8.9,0,0,0,1.21-.57,4.45,4.45,0,0,1,1.31-.47,4.34,4.34,0,0,0,1-.44c.28-.12,1.81-.4,2.11-.47a4.69,4.69,0,0,0,1.06-.45c.55-.28,1.1-.21,1.65-.51a1.79,1.79,0,0,1,.39-.13,7.73,7.73,0,0,0,2-.77c.16-.11.07.23.25.2.78-.16.93-.62,1.7-.82a6.13,6.13,0,0,0,1.71-.61,2.55,2.55,0,0,1,1-.39,2.46,2.46,0,0,0,1-.41,4,4,0,0,1,.58-.3,9.51,9.51,0,0,0,1.35-.59.77.77,0,0,1,.39-.14,12.21,12.21,0,0,0,2.51-.23c.56-.18.33-2.24.37-2.84a.25.25,0,0,0,0-.08c0-.42-.09-.82-.09-1.23s.21-.73.19-1.12a1.19,1.19,0,0,0,0-.33.92.92,0,0,1,0-.71,1.57,1.57,0,0,0,0-1.05,2.35,2.35,0,0,1,0-1.46,1.73,1.73,0,0,0,.1-1.12.59.59,0,0,1,0-.32,8.77,8.77,0,0,0-.22-2,.73.73,0,0,1,0-.33,2,2,0,0,0,.07-1.37,2.71,2.71,0,0,1,0-.57c.06-1.15-.07-1.2,0-2.35,0-.38-.39-1.92-.2-2.27a.34.34,0,0,0,0-.24,2.2,2.2,0,0,1,.12-1.27.22.22,0,0,0,0-.16,3.51,3.51,0,0,1,0-1.61,8.08,8.08,0,0,0-.05-1.39,11,11,0,0,1,0-1.81,2,2,0,0,0,0-.65,1.32,1.32,0,0,1,0-.49c0-1.17-.11-2.35,0-3.53,0-.33.1-3.54.11-3.81a1.79,1.79,0,0,0-.13-.89,1.48,1.48,0,0,1-.07-.63,6.92,6.92,0,0,1,.18-1.7.49.49,0,0,0,0-.24,15.49,15.49,0,0,1,0-3.12,2,2,0,0,0-.12-1,.38.38,0,0,1,0-.23,9.53,9.53,0,0,0,.17-2.13c0-.45-.71-2.41.72-1.94a1.79,1.79,0,0,0,1.28-.16,22.63,22.63,0,0,0,2.76.27c.17.36.84-.09.89.25s-.41.93-.5,1.31c.64.17.42,1.31.67,1.78a1.65,1.65,0,0,0-.1,1.08M69.08,36c-.11-.45.14-.84.11-1.26.12.66.07,1.06-.11,1.26m-.61-25.31c-.2-.17,0-.48-.23-.65l.32-.1c.12.13.14.33.34.43a.39.39,0,0,0-.43.32m1.44-3.49a.84.84,0,0,1,0,.62c-.31,0-.53-.26-.84-.19.24-.2.56-.2.81-.43M120.32,76a8,8,0,0,0,0-1.62,6.11,6.11,0,0,1-.06-1c0-.15-.18-.24-.13-.37s0-.5,0-.76c0-.53,0-1.06,0-1.59a14.61,14.61,0,0,0,0-1.62c0-.41-.08-.82-.1-1.23s0-.87,0-1.3a20.94,20.94,0,0,0,.1-2.1c-.06-.64,0-1.29,0-1.94-.05-1.05.08-2.09,0-3.14s.08-1.94,0-2.91c0-.47-.07-.95-.07-1.43,0-.33,0-.67,0-1a.4.4,0,0,0-.05-.22,1.21,1.21,0,0,1-.16-.79c0-.26,0-.53,0-.8,0-.81.07-1.62,0-2.44,0-.42,0-.85-.13-1.26a2.84,2.84,0,0,1,0-1.23,3,3,0,0,0,0-.79,4.57,4.57,0,0,1,.06-1.52.94.94,0,0,0,0-.34,3.16,3.16,0,0,0-.11-.6,2,2,0,0,1-.06-.94c.07-.43-.13-1,0-1.47,0-.16.16-.28.17-.43a6.93,6.93,0,0,0,0-1.51c0-.41-.18-.82-.22-1.25a2,2,0,0,1,.12-1.07,2.4,2.4,0,0,0,.2-1.18c0-.44,0-.88,0-1.32,0-.62,0-1.25,0-1.88a8.21,8.21,0,0,0-.08-2.32,7.15,7.15,0,0,1-.14-.91,4.5,4.5,0,0,1,.1-.89,9.46,9.46,0,0,1,.19-1.59,1.66,1.66,0,0,0,.09-.37,19.2,19.2,0,0,1,.13-2c.09-.81-.09-1.62,0-2.44a1.57,1.57,0,0,0,.08-.49,2.31,2.31,0,0,1,0-.87c.07-.31,0-.6,0-.91a2.18,2.18,0,0,0,0-.57,3.19,3.19,0,0,1,0-.76,2.42,2.42,0,0,0,0-1.13,3.14,3.14,0,0,1-.11-.92c0-1.74.1-3.47.14-5.21a2,2,0,0,1,0-.35,3,3,0,0,0,.07-1.34A9.7,9.7,0,0,1,120.19,8a4.12,4.12,0,0,1,.06-.93,2.76,2.76,0,0,0,0-1c-.08-.49,0-1-.08-1.47s0-1.15,0-1.74a8.36,8.36,0,0,1,0-1.58A1,1,0,0,0,120,.54c-.35-.35-.59.09-1.06-.07a3.07,3.07,0,0,1-.42-.07,3.21,3.21,0,0,0-2.34-.05,3,3,0,0,1-.83.15c-.56,0-1.13,0-1.7,0a5.06,5.06,0,0,0-.87,0,4.4,4.4,0,0,1-1,.09c-.92,0-1.82-.15-2.74-.17a2.17,2.17,0,0,1-.72,0,2.59,2.59,0,0,0-.73-.07c-.57,0-1.13.06-1.69,0-.25,0-.48-.12-.73-.11a7.08,7.08,0,0,1-1.22,0,.69.69,0,0,0-.49,0,.41.41,0,0,1-.3,0c-.11,0-.13,0-.25.15a3.29,3.29,0,0,0-.42.21c-.45.16-.63,0-.74.43a3.85,3.85,0,0,0,0,.76,6.76,6.76,0,0,0,0,1.27,3.36,3.36,0,0,1,.08.95c0,.21.06.41,0,.62a.86.86,0,0,0,0,.81c.06.1,0,.23,0,.35a1.42,1.42,0,0,0,0,.46,1,1,0,0,1,0,.53c0,.25-.19.52,0,.78a2.16,2.16,0,0,0-.19,1c0,.46,0,.92-.07,1.38a4.54,4.54,0,0,0,.06,1.27,7.32,7.32,0,0,1,.1,1.69,2.37,2.37,0,0,0,0,.65,4.77,4.77,0,0,1,.08,1c0,.46-.11.9-.11,1.35,0,1.12-.15,2.24-.17,3.36,0,0,0,.05,0,.07a2.91,2.91,0,0,0-.06,1.21c0,.72.14,1.44.15,2.16a5.47,5.47,0,0,0,0,.57c0,.47.08.94.15,1.41a9,9,0,0,1,0,1.27c0,.63.06,1.26,0,1.88a1,1,0,0,0,0,.24,11.29,11.29,0,0,1,.1,1.84,8.52,8.52,0,0,0,0,1,6.35,6.35,0,0,1,.07,1.23c-.07.92,0,1.84-.14,2.75-.1.63-.08,1.28-.12,1.92,0,.86-.15,1.72-.16,2.59a8.14,8.14,0,0,1,0,1.48.59.59,0,0,0,0,.23c.12.5,0,1,.09,1.5s-.1.88,0,1.33a.77.77,0,0,1-.06.42.7.7,0,0,0,0,.38,2.44,2.44,0,0,1,0,.89c0,.4-.11.82-.57,1,0,0-.07.07-.12.1-.27.15-.43.45-.7.57a5.23,5.23,0,0,0-.94.57,6.45,6.45,0,0,1-.54.37,1.35,1.35,0,0,1-.3.14,1.84,1.84,0,0,1-.73.07,1.12,1.12,0,0,0-.83.31,1.6,1.6,0,0,1-1,.4,4,4,0,0,0-1.48.39c-.48.24-.92.54-1.42.74a9.75,9.75,0,0,1-1.57.47,3.42,3.42,0,0,0-1.29.37c-.33.21-.76.16-1.07.41-.3-.08-.54.16-.82.15a.28.28,0,0,0-.22.09c-.17.27-.47.29-.72.39-.53.23-1.11.32-1.63.6a.52.52,0,0,1-.4,0,1.12,1.12,0,0,0-.82.09,4,4,0,0,1-1.41.34.67.67,0,0,1-.78-.47,2.18,2.18,0,0,1,0-1.19,1.46,1.46,0,0,0,0-.72c0-.12,0-.24,0-.35a4.5,4.5,0,0,1,0-1.1c0-.17,0-.33,0-.49,0-.31,0-.62,0-.93a8.74,8.74,0,0,1,.08-1.35,7.74,7.74,0,0,0,.12-1.18c0-.77.06-1.54,0-2.31s0-1.73-.07-2.6a13.92,13.92,0,0,1,0-2.74c0-.2,0-.41,0-.62s0-.59,0-.87a5.23,5.23,0,0,1,0-1.31.5.5,0,0,0,0-.27A7.76,7.76,0,0,1,82.05,33a18.89,18.89,0,0,1,.15-2.25,3.52,3.52,0,0,1,.11-.84,1.84,1.84,0,0,0,0-.62c0-.44-.14-.86-.16-1.3a2.92,2.92,0,0,0,0-.72,3,3,0,0,1,0-.85c0-.28-.1-.56-.07-.84,0-.1-.12-.1-.12-.14a1.76,1.76,0,0,0,.22-1.06c0-.2-.21-.27-.23-.46a2,2,0,0,1,0-1,.11.11,0,0,0,0-.08c-.15-.22.07-.43,0-.63s.25-.34.14-.56a.81.81,0,0,0,.21-.68,10.14,10.14,0,0,1,.06-1.1,5,5,0,0,0,0-.95c0-.2,0-.48-.14-.58-.33-.26-.12-.53,0-.74a2,2,0,0,0,.19-.75c0-.1,0-.21-.09-.25-.23-.11-.19-.28-.16-.47a1.36,1.36,0,0,0,0-.45,14.13,14.13,0,0,1-.08-1.46,4.08,4.08,0,0,1,.09-1.39.62.62,0,0,0,0-.38,3.15,3.15,0,0,1,0-1.06A11.38,11.38,0,0,1,82.29,9c0-.18,0-.4.25-.54a.32.32,0,0,1-.18-.35c0-.22-.1-.47,0-.65a1.38,1.38,0,0,0,.24-1.07.4.4,0,0,1,0-.19A3.72,3.72,0,0,0,82.69,5c0-.39.19-.75.12-1.14a.92.92,0,0,1,.07-.61.27.27,0,0,0,0-.23c-.07-.17-.08-.35-.14-.52s0-.23-.14-.29-.12-.19-.11-.31a4.11,4.11,0,0,0-.16-1C81.92.6,81.65.17,81.1.19c.06-.31-1.71-.13-1.86-.12s-1-.28-1,.25A2.7,2.7,0,0,1,77.1.4c-.27,0-.76-.37-.82-.07-1,.37-3.46,0-3.54.16a3.34,3.34,0,0,1-.88.07,3.39,3.39,0,0,0-1.31,0,1.39,1.39,0,0,1-.5,0,3,3,0,0,0-1.28-.1,8.34,8.34,0,0,1-2.12,0,7.49,7.49,0,0,0-1.42,0,2.22,2.22,0,0,1-.45.06c-.5,0-.86-.21-1.31.07s-.71.44-.69,1,.09,1.31.07,2c0,.45.07.88,0,1.33s0,1-.05,1.54a.26.26,0,0,0,0,.15,3.24,3.24,0,0,1,0,1.16c0,.39.15.79-.09,1.16a.11.11,0,0,0,0,.08,5.28,5.28,0,0,1,.09.68A6.53,6.53,0,0,1,63,11.62c0,.1-.06.21-.05.3a9.57,9.57,0,0,1-.08,2.14.66.66,0,0,0,0,.2,1.06,1.06,0,0,1,0,.5c0,.25,0,.51,0,.77s0,.32.2.36a7.79,7.79,0,0,1,.13,1.41c0,.64.15,1.27.13,1.91,0,.17.12.33,0,.49a2.44,2.44,0,0,0-.09.89,4,4,0,0,1-.17,1.18.48.48,0,0,0,0,.37,2,2,0,0,1,.16.9,6,6,0,0,1-.09,1,8.87,8.87,0,0,0,0,1.36c0,.2,0,.4,0,.6,0,1-.09,2,0,3,.05.55.1,1.1.1,1.65a2.28,2.28,0,0,1,0,.64,6.19,6.19,0,0,0-.18,1.22,9,9,0,0,1-.09,1,2,2,0,0,0,0,.49A9,9,0,0,1,63,36.37a2,2,0,0,0,0,.73,6.64,6.64,0,0,1,0,1.26,7,7,0,0,1-.09,1.37,9.18,9.18,0,0,0,0,1.89,2,2,0,0,0,.18.93.73.73,0,0,1,.06.52c-.07.26-.06.53-.11.79s.06.24,0,.34a.91.91,0,0,0,0,.67,4.08,4.08,0,0,1,0,1.84c0,.11-.1.24-.06.33.15.4.06.84.21,1.24a.45.45,0,0,1,0,.23,16.52,16.52,0,0,0,0,2.9c.13.91,0,1.83.08,2.75.05.73,0,1.47,0,2.2a1.24,1.24,0,0,0,0,.47c.11.35,0,.72.1,1.07a.45.45,0,0,1,0,.34.37.37,0,0,0,0,.23,2.56,2.56,0,0,1,0,1.23.51.51,0,0,0,0,.27.44.44,0,0,1,0,.3c-.13.35,0,.71-.09,1.06,0,0,0,.05,0,.07a1.83,1.83,0,0,1,.05.7c0,.38,0,.77,0,1.16a3.09,3.09,0,0,1,0,.91,1.51,1.51,0,0,0,0,.6,1.37,1.37,0,0,1,0,.57,3.15,3.15,0,0,0,0,1.26,4.25,4.25,0,0,1,.08.61c0,1.43-.16,2.85,0,4.27,0,.26-.07.52.1.76a.14.14,0,0,1,0,.11,2.16,2.16,0,0,0,0,1.1c.07.67.06,1.33.07,2,0,.33-.07.67-.07,1s0,.63,0,.95c0,.62-.08,1.24-.14,1.86a11.52,11.52,0,0,0,0,1.66,13.14,13.14,0,0,1,0,1.4c0,.47-.05.94,0,1.42a9.39,9.39,0,0,1,0,1.3c0,.39,0,.78,0,1.18s0,1,0,1.45a7.26,7.26,0,0,0,0,1.32,16.18,16.18,0,0,1,0,2.09,1.36,1.36,0,0,1,0,.2,10.73,10.73,0,0,0-.18,1.6c0,.12,0,.23,0,.35-.05.87-.15,1.74-.15,2.61,0,.5,0,1,0,1.51,0,.3,0,.59,0,.89s0,.59,0,.88-.06.82-.06,1.24,0,1,0,1.54,0,1.21-.09,1.82a8.46,8.46,0,0,0,0,1.33c0,.25,0,.48,0,.73a11.93,11.93,0,0,1,0,2.39,9.36,9.36,0,0,0,0,2c0,.56.08,1.68.09,2.25s0,.23.25.6c.3,0,.66-.24.89,0,0,0,.88,0,.94,0,.44.09.25-.09.7-.07.11,0,.21.07.34,0a2.47,2.47,0,0,1,.9,0,5.21,5.21,0,0,0,1.31,0,9.38,9.38,0,0,1,2.31.12c.53.08,1.06.1,1.6.16.31,0,1-.08,1.28,0s1.08-.24,1.51-.26.57-.36,1.07,0c.2.12.58,0,.81,0,.42,0,.94.09,1.36.06s.76,0,1.26-.08a10.29,10.29,0,0,0,1.23.08c.53-.19.69,0,1.1-.36s.32-.27.33-.73.2-.78,0-1.18c0,0,0-.07,0-.11a1.58,1.58,0,0,0,.06-.94c-.06-.31,0-.64-.08-.94s-.12-.87-.23-1.31a3.39,3.39,0,0,1-.17-1.39,5.59,5.59,0,0,0-.09-.89,6.21,6.21,0,0,1,.12-1.56,7.82,7.82,0,0,0,.13-2.46c0-.26,0-.54-.13-.77a3.58,3.58,0,0,0,.07-1c0-.34.08-.68.11-1,.06-.81,0-1.63.07-2.45a.38.38,0,0,0,0-.15,2.45,2.45,0,0,1,0-1,19.31,19.31,0,0,0,.1-2.52,3.38,3.38,0,0,0,0-.45A12.06,12.06,0,0,1,82,90.41a7.17,7.17,0,0,1,.08-1.54,7.75,7.75,0,0,0,0-.84c0-.71.06-1.42.06-2.12s0-1.13,0-1.69c0-.73,0-1.46,0-2.18,0-.48,0-1,0-1.44A11.44,11.44,0,0,1,82.4,79c.08-.67,0-1.36.12-2a9.07,9.07,0,0,1,.13-1.37c0-.11.12-.22.08-.34-.09-.32.1-.53.26-.76a6.92,6.92,0,0,1,.74-.79,4,4,0,0,1,1.23-1,3.82,3.82,0,0,1,.93-.33,3.28,3.28,0,0,0,1.51-.67.43.43,0,0,1,.31-.12,1.15,1.15,0,0,0,.45-.07,4.24,4.24,0,0,1,1.1-.28.67.67,0,0,0,.29-.1A7.68,7.68,0,0,1,91,70.56a8.69,8.69,0,0,0,1.09-.36,2,2,0,0,1,.46-.27c.58-.18,1.16-.33,1.73-.49a2.22,2.22,0,0,0,.94-.34,1.31,1.31,0,0,1,.58-.28c.3-.09.59-.17.88-.27.49-.15.92-.42,1.42-.56a3.3,3.3,0,0,0,.71-.24,1.19,1.19,0,0,1,.63-.14,3.63,3.63,0,0,1,.92.28c.15.06.35.17.39.35a3,3,0,0,1,.16.79,9.23,9.23,0,0,0,0,1.82c.07.44.13.88.16,1.33a7.14,7.14,0,0,1,0,1.46,2.2,2.2,0,0,0,0,1c0,.06.09.12,0,.18a.79.79,0,0,0,0,.67.25.25,0,0,1,0,.19c-.13.23,0,.48,0,.71s.09.74.09,1.12a3.25,3.25,0,0,1,0,1,.51.51,0,0,0,0,.3,1.24,1.24,0,0,1,0,.43c0,1.68-.15,3.36-.06,5,.06,1.13-.08,2.25,0,3.38,0,.46,0,.92,0,1.38,0,.73,0,1.46,0,2.19,0,1.26-.08,2.52-.16,3.77a19.38,19.38,0,0,0,0,2.64c.06.72,0,1.45,0,2.17a31.87,31.87,0,0,1-.14,3.52,19.3,19.3,0,0,0,.07,2.28,19.59,19.59,0,0,1,0,2.3c0,.45.06.9,0,1.35s.07,1,.06,1.54c0,.24.06.49,0,.73a.52.52,0,0,0,.12.36c.06.07,0,.26,0,.35.08.36,0,.13,0,.49,0,.59.29,0,.73.2.12,0,1.15,0,1.5,0a8,8,0,0,0,.85,0c.89,0,1.78,0,2.67,0a7.34,7.34,0,0,0,1.24,0c.07,0,.57-.12.63-.12.76,0,1.18.3,1.93.32a9.73,9.73,0,0,0,1.42-.21l1.24-.06c.26,0,.54.12.77-.08a1.2,1.2,0,0,0,.82.26c.68,0,1.36-.07,2-.06.25,0,.5-.11.76-.13.49-.05.93.14,1.41.08,0,0,0,0,0-.07s.06-.77.17-.8,0-.06,0-.84c-.07-.08,0-.64,0-.75a6.24,6.24,0,0,1-.06-1c0-1,0-1.92.08-2.88a3.88,3.88,0,0,0,0-.57,9,9,0,0,1,0-1,10.54,10.54,0,0,0,0-1.12,4.21,4.21,0,0,1-.05-.72,3.1,3.1,0,0,0,.05-.58c-.07-.14-.21,0-.25-.14s0,0,0,0,.23,0,.23-.2-.1-.15-.22-.16a.12.12,0,0,1-.13-.12c.07-.22.29-.17.33-.35s-.14-.1-.2-.14-.13-.3,0-.33.25-.26.25-.45a4.84,4.84,0,0,1,0-.85,16.69,16.69,0,0,0,.18-2.11c.07-1.13.08-2.27,0-3.41,0-1.58.1-3.17,0-4.76,0-1.15.05-2.3.07-3.46a2.26,2.26,0,0,0,0-.73,1.78,1.78,0,0,1,0-.61c.07-.53,0-1.06.07-1.59,0-.1,0-.22,0-.3s-.1-.28-.1-.43-.12-.53.06-.78c-.09-.19.12-.28.15-.45q.12-.84.18-1.68c.08-1.18,0-2.36,0-3.54"/><path class="cls-1" d="M172.05,104.21c-.29.46,0,1.29-.41,1.68-.14.11-1.26-.2-1.8,0a1.64,1.64,0,0,1-1,0,3.58,3.58,0,0,0-1,0,24,24,0,0,1-2.68,0c-.68-.06-1.37,0-2,0-.38,0-1.22.51-1.59.35a1.4,1.4,0,0,0-.81,0,1.1,1.1,0,0,1-.57,0,3.56,3.56,0,0,0-.79-.15,1.58,1.58,0,0,1-.16.68,2.23,2.23,0,0,0-.12,1c0,.14.12.27,0,.42a1.3,1.3,0,0,1-.48.36.27.27,0,0,1-.08-.37c0-.07,0-.18.1-.24a1.67,1.67,0,0,0,.16-1.41c0-.26,0-.4.13-.48h-.27a3.42,3.42,0,0,1-1.05-.15.43.43,0,0,0-.24,0c-.7.22-1.33.33-2,.55a1.06,1.06,0,0,1-.31,0,.34.34,0,0,1-.12.12,2,2,0,0,0-.71,1,4.3,4.3,0,0,1-.61.94c0-.41.23-.68.23-1,0-.06.07-.11.11-.16a1.1,1.1,0,0,0,.28-1,1.83,1.83,0,0,0-.39.09.49.49,0,0,1-.17,0,21.14,21.14,0,0,0-2.87,0c-.38,0-.77-.06-1.15-.06a15.23,15.23,0,0,0-1.79,0,11.22,11.22,0,0,1-1.64,0c-.6,0-1.21-.06-1.81-.08a4.77,4.77,0,0,1-1.06-.07,1.58,1.58,0,0,0-.65,0,4.26,4.26,0,0,1-1.38,0c-.48-.07-.95-.2-1.43-.26a4.5,4.5,0,0,0-1.46.09h-.08a4.68,4.68,0,0,1,.17.53c.06.21-.15.32-.21.5a2.19,2.19,0,0,1-1,0,.32.32,0,0,1-.26-.28c0-.2-.17-.42,0-.62a4.34,4.34,0,0,1,.72-.63.12.12,0,0,1,.09,0s0,0,0-.06a5.62,5.62,0,0,1,0-.58c0-.43,0-.84-.42-1,0-.54.1-1-.24-1.47a4.32,4.32,0,0,0,.27-2.53,4.59,4.59,0,0,1,0-1c.06-.85.06-2.38.22-3.23a5.67,5.67,0,0,0,0-2.21,1.07,1.07,0,0,0-.06-.32,1.81,1.81,0,0,1,0-1.79.91.91,0,0,0,0-.63,3.29,3.29,0,0,1-.15-1.86,4.77,4.77,0,0,0,0-2.19,1,1,0,0,1,0-.48,3.6,3.6,0,0,0,0-2,.94.94,0,0,1-.06-.15,6.7,6.7,0,0,1-.26-2.36c.06-.91.07-1.83.08-2.75h0a.29.29,0,0,1-.39-.16c0-.09-.11-.17-.15-.24a11.65,11.65,0,0,1,.23-1.23,1,1,0,0,1,.25-.56,3.73,3.73,0,0,0,.24-1.75,3.88,3.88,0,0,1,0-.9,1.09,1.09,0,0,0-.09-.64,2.4,2.4,0,0,1-.07-1.69,4.71,4.71,0,0,0,.1-1.87,2.7,2.7,0,0,1,0-1.23,1.3,1.3,0,0,0,0-.48,6.11,6.11,0,0,1,.08-2.85l-.3,0c.09-.85-.17-1.68-.05-2.53a1.12,1.12,0,0,0-.07-.4c0-.19.48-1.92.63-2.57a2.74,2.74,0,0,0,0-1.39,2.68,2.68,0,0,1,0-1.13,4.38,4.38,0,0,0,0-1.4c-.09-.59,0-1.2-.11-1.8a9.4,9.4,0,0,1-.09-2.54,1.15,1.15,0,0,0,0-.49,3,3,0,0,1-.12-1.11,2.47,2.47,0,0,1,.06-1,.23.23,0,0,0,0-.16c-.18-.74.07-1.48-.08-2.22a1.16,1.16,0,0,1,0-.32c0-.71.45-1.66.15-2.33a.91.91,0,0,1-.06-.4,5.15,5.15,0,0,1,.18-1.79.47.47,0,0,0,0-.31,1.59,1.59,0,0,1,.24-1.51,2.06,2.06,0,0,1-.25-1.33c.07-.93,0-1.86,0-2.78.1-1.35.13-2.69.19-4,.05-1.13.11-2.25.15-3.38,0-.16,0-.32,0-.48,0-.55-.51-1.24-.35-1.79a.73.73,0,0,0,0-.33,19.85,19.85,0,0,1,0-3.36v-.23a.3.3,0,0,1-.14.13c-.16.06-.36-.06-.49-.29a.78.78,0,0,1,.08-.65c.08-.08.17-.14.28-.09s.23.09.25.22,0,.11,0,.17c0-.52,0-1,0-1.56s-.1-1-.13-1.47a7.82,7.82,0,0,1,.09-1.37,2,2,0,0,0,0-.73,4.54,4.54,0,0,1-.06-1.47,1.3,1.3,0,0,0-.14-.71c-.16-.26.23-.42.24-.72,0-.69.07-1.38.1-2.06a.89.89,0,0,0-.19-.77c.16-.13.31-.29.18-.49a1.78,1.78,0,0,1-.23-1.27A1.38,1.38,0,0,0,137,7.72c-.05,0,0-.53,0-.64.54-.26.67.18.77-.07,0-.09,2.47.1,3.29,0a26.72,26.72,0,0,1,3.69-.12,3.78,3.78,0,0,0,1.06,0,1.13,1.13,0,0,1,.41,0,14.06,14.06,0,0,0,2,.08c1.2,0,3-.11,4.15-.11.52,0,1,0,1.55,0a5.35,5.35,0,0,1,.89.08,6.07,6.07,0,0,0,.94,0h0c.16-.36.47-.3.76-.29h.15l.14.19c.26,0,.53-.1.83-.17a2,2,0,0,1,.49,0l2.05.1a4.27,4.27,0,0,0,1.07,0,1.32,1.32,0,0,1,.81.06,1.29,1.29,0,0,0,.8,0,3.18,3.18,0,0,1,1.15,0,18.74,18.74,0,0,0,2.12,0A10.41,10.41,0,0,1,169,7c.47.13,1.11-.23,1.59-.12a3.86,3.86,0,0,1,1.38.4c-.22.4.14,3.68-.06,4.07-.12.23.16.55-.06.68s-2.11-.12-2.35.12c-.39.41-1.88.28-2.42.19a1.69,1.69,0,0,0-1,0H166c-.92-.29-1.91,0-2.83-.3a.58.58,0,0,0-.32,0,2.65,2.65,0,0,1-1.37-.06,2.15,2.15,0,0,0-1.26.07c-.25-.1-.44-.2-.65-.27a1.78,1.78,0,0,0-1-.07,7.43,7.43,0,0,1-1.63.14,3.7,3.7,0,0,0-.57.07c-.08,0-.16.07-.23.06-.92-.18-1.86.2-2.77-.17a.8.8,0,0,0-.64.07,4.36,4.36,0,0,1-2.5.15,2,2,0,0,0-.49-.05c-.33,0-.66,0-1,0A2.47,2.47,0,0,0,148,12a1.34,1.34,0,0,1-.49.05c-.79,0-1.58,0-2.37-.06a2,2,0,0,0-.41.05,1.48,1.48,0,0,1-.56,0,6.3,6.3,0,0,0-1.55-.17,1.16,1.16,0,0,0-.48.08c-.31.08.12.7.12,1a29.56,29.56,0,0,0,.1,3.12c0,.27-.17.53-.07.8a1,1,0,0,1,.05.72,5,5,0,0,1,.12,1.6,12.86,12.86,0,0,1,0,1.64c0,.55,0,1.1-.07,1.65a8.23,8.23,0,0,0,.08,1.31,18,18,0,0,1,.12,2.2c-.05.74,0,1.47,0,2.2a11,11,0,0,0,0,2.36,9.78,9.78,0,0,1-.13,1.2c0,.88.1.89.07,1.76,0,.33,0,.66,0,1a1.07,1.07,0,0,1,0,.4,1.82,1.82,0,0,0,0,1.06,1.82,1.82,0,0,1,.12.8,1.28,1.28,0,0,0,.11.64c.16.48-.49.91-.63,1.41a4.59,4.59,0,0,0,.06,1.88,1.64,1.64,0,0,1,.07.48c-.14,1,.11,1.91.05,2.87,0,.35.13.7-.08,1a.56.56,0,0,0,0,.4,2.88,2.88,0,0,1,.1,1.13,5.78,5.78,0,0,0,.14,1.31c.12.51,0,1,.13,1.55a.4.4,0,0,1,0,.24,2.14,2.14,0,0,0,0,1.37,6.34,6.34,0,0,1,0,1.15c0,.58,0,1.81.57,1.93.27.05.54.1.8.17a2.34,2.34,0,0,0,1.36-.42,1,1,0,0,1,.71-.11,9.12,9.12,0,0,1,1.47.2,1.57,1.57,0,0,0,.57,0,19.92,19.92,0,0,1,3.54.08c.29,0,1.37-.32,1.67-.26a15.89,15.89,0,0,0,2.29.06c.08,0,.16,0,.24,0a17.94,17.94,0,0,0,3.27.24c.39,0,.77.05,1.15.06a2.81,2.81,0,0,1,.74.25c.59-.24.35-.8,1-.68.11,0,.23,0,.32,0a2.5,2.5,0,0,0,1.3.09c.59,0,1.19-.11,1.79-.14a.75.75,0,0,1,.86.85,2.41,2.41,0,0,1-.16,1.13A.51.51,0,0,0,166,56c.05.81.07,1.91,0,2.71,0,.4-.81,0-1.07.27a1,1,0,0,1-.77.39c-.68,0-1.69-.2-2.37-.18a19.45,19.45,0,0,1-2.29,0,2.88,2.88,0,0,0-1.21.12,1.5,1.5,0,0,1-.88.07,2.16,2.16,0,0,0-1,0,4.43,4.43,0,0,1-1.15.08,2.25,2.25,0,0,0-.73.08c-.24.06-.84-.42-1.08-.52a1.31,1.31,0,0,0-1,.08,2.11,2.11,0,0,1-1.21.16l-.08,0a6.85,6.85,0,0,1-1.28,0,2.62,2.62,0,0,0-1.29.18,1.87,1.87,0,0,1-.58,0c-.6,0-1.2-.06-1.8-.09a1.9,1.9,0,0,1-.25,0,3.75,3.75,0,0,0-2,0,1.89,1.89,0,0,1-1.22,0c-.26.17,0,0-.19.94-.09.5.3,1.78.22,2.23a.54.54,0,0,0,0,.25c.14.68,0,1.37.1,2,0,.08,0,.17,0,.23a.83.83,0,0,0,.14.83c0,.25-.34.44-.09.7a.35.35,0,0,1,.07.3,5.24,5.24,0,0,0,.07,1.31,2.15,2.15,0,0,1-.15.88,3.07,3.07,0,0,0-.08,1.05c.08.7.06,1.42.08,2.13a.86.86,0,0,0,0,.16,15.56,15.56,0,0,1-.16,3.27,10,10,0,0,0,0,1.1.84.84,0,0,1,.22.77c0,.06,0,.13,0,.19l.07.13a.73.73,0,0,0-.08.09,1.91,1.91,0,0,1-.06.58.23.23,0,0,1-.09.14,3.85,3.85,0,0,1,.13.66A1.25,1.25,0,0,0,143,80c.12.19-.13.33-.2.49,0,.36.29.69.11,1s.15.72-.26,1a1.57,1.57,0,0,1,.23.78,16.93,16.93,0,0,1-.14,2.13,4.25,4.25,0,0,0,0,1.29,4.18,4.18,0,0,1,0,1.06,4.62,4.62,0,0,0,.05,1.23,2.62,2.62,0,0,1,0,.74c0,.82-.14,1.65-.09,2.47s-.09,1.52-.09,2.28c0,.6,0,1.21.06,1.81a12.53,12.53,0,0,0,.27,1.5l-.35.64a1,1,0,0,1,0,.94.47.47,0,0,0,0,.16,14.07,14.07,0,0,0,.43,1.9,1,1,0,0,0,.38.28c0-.1,0-.2,0-.3a2.88,2.88,0,0,1,.12-.64.72.72,0,0,1,.59-.54,1.42,1.42,0,0,1,.85,1c.06.17.15.32.21.49,0,0,0,0,0,0h.2a9.13,9.13,0,0,1,1.48,0H147l0,0a.63.63,0,0,1,0-.79,1.15,1.15,0,0,0,.06-.17c.2-.12.43-.11.62-.24,0,0,.11.07.11.1,0,.42.33.67.51,1l.09.17a7.34,7.34,0,0,0,.81,0,6.54,6.54,0,0,1,1,0c.31,0,.62,0,.94,0v-.07c0-.07-.09,0-.14-.08.2,0,.23-.17.33-.27a.43.43,0,0,1,.63-.09.46.46,0,0,1-.14.42,12.23,12.23,0,0,0,2.7-.19,4.68,4.68,0,0,1,1,0,5.64,5.64,0,0,0,1.23-.06,17.28,17.28,0,0,1,3.59-.21c.39,0,.76-.06,1.15,0l1.89.06a3.66,3.66,0,0,0,.57,0,3.28,3.28,0,0,1,1.46.07,3.23,3.23,0,0,0,1.38.14,7.09,7.09,0,0,0,1.38-.06,2.18,2.18,0,0,1,.57,0l2.23.07a2,2,0,0,1,.88.14.53.53,0,0,1,.14.46c0,.22,0,.44,0,.66a1.36,1.36,0,0,0,.19.94.56.56,0,0,1,0,.63m-19.53,4.06c-.17-.15-.28-.36-.51-.45s-.12-.16-.11-.27a1,1,0,0,1,.3-.76.28.28,0,0,1,.33.25,7.12,7.12,0,0,0,.36,1.39.45.45,0,0,1-.37-.16M137,31.21c0-.27.07-.33.39-.3a6.05,6.05,0,0,1,.2,1.51.74.74,0,0,1-.54-.64c0-.18,0-.38-.05-.57m-1,25.76c-.16.26-.24.55-.37.81s-.08.25-.13.37-.13,0-.18,0,0,0,0-.06a1.28,1.28,0,0,1,.17-.51.79.79,0,0,0,.16-.55c0-.2.2-.28.2-.45a.34.34,0,0,1,.23-.35.26.26,0,0,0,.13-.27.66.66,0,0,1,.21-.58,1.75,1.75,0,0,0,.29-.58c0-.07.05-.15.09-.21a.24.24,0,0,1,.42,0,.54.54,0,0,1,.08.58,1.34,1.34,0,0,1-.4.56,4.44,4.44,0,0,0-.38.37,3.82,3.82,0,0,0-.51.87m.46,40.18c0,.14-.13.2-.3.22a1.84,1.84,0,0,1,.06-1,1,1,0,0,1,.24.81m-1.58,7.13c.43-.12.67,0,.72.46-.32.06-.54-.08-.72-.46m-.81-43.49c-.11,0-.2,0-.28-.11a.63.63,0,0,1,.12-.23,3.46,3.46,0,0,0,.4-.73,5.39,5.39,0,0,1,.56-.79c.09-.12.22-.11.42-.09a6.82,6.82,0,0,1-.76,1.69.89.89,0,0,1-.46.26m44.78,43.54a8.28,8.28,0,0,1-.08-1.41,6.68,6.68,0,0,0-.07-1.18,5.1,5.1,0,0,0-.14-.78.11.11,0,0,1,0-.08,6.28,6.28,0,0,0,.11-1.3c.07-.58.06-1.18.17-1.77a.74.74,0,0,0-.07-.56.65.65,0,0,1-.07-.34,2.86,2.86,0,0,0-.37-1.32,1,1,0,0,0-.88-.65,1,1,0,0,1-.6-.12,1.32,1.32,0,0,1-.52.12,2.06,2.06,0,0,1-1.18,0,1.36,1.36,0,0,0-1.35,0,.36.36,0,0,1-.29,0c-.29-.09-.63,0-.9-.19,0,0-.07,0-.11,0-.48,0-1,0-1.44,0a.87.87,0,0,1-.33,0c-.33-.14-.7,0-1-.14h-.07c-.35.13-.72,0-1.07.14a.65.65,0,0,1-.39,0,1.6,1.6,0,0,0-.65-.06c-.7,0-1.39,0-2.08,0l-1.27-.05a1.63,1.63,0,0,1-.58-.08,2.52,2.52,0,0,0-1.19-.06,4.72,4.72,0,0,1-1.3,0c-.35-.06-.71.05-1.07,0s-.49,0-.73,0a26.69,26.69,0,0,1-3.1-.07.44.44,0,0,0-.16,0,2.63,2.63,0,0,1-1.15,0,13.64,13.64,0,0,1-1.58-.19.12.12,0,0,0-.08,0,5.2,5.2,0,0,1-2.08,0c-.07,0-.11-.06-.16-.09a3.6,3.6,0,0,1-.7-.58,1,1,0,0,1-.41-.83,3.14,3.14,0,0,0,0-.61,2.6,2.6,0,0,1,.15-1.76,1.21,1.21,0,0,0,0-.68,1.91,1.91,0,0,0-.17-.51,13.54,13.54,0,0,1-.31-1.54.4.4,0,0,1,0-.19,8,8,0,0,0,.19-1.18,5.56,5.56,0,0,0-.07-1.29c0-.12-.09-.22-.07-.34a13.45,13.45,0,0,0,0-1.42,1.22,1.22,0,0,0,0-.27c-.11-.59-.09-1.18-.15-1.77a5.07,5.07,0,0,0,0-1,7.21,7.21,0,0,1-.19-1.46,6.16,6.16,0,0,1-.07-1.22,3.43,3.43,0,0,0-.06-.84,6.76,6.76,0,0,1,0-1.74,7.63,7.63,0,0,0,.13-1.16,2.65,2.65,0,0,1,.06-.84.91.91,0,0,0,0-.54.8.8,0,0,1,0-.46,3.36,3.36,0,0,0,.2-1.13,4.21,4.21,0,0,1,.07-1.28,3.57,3.57,0,0,0,0-.92,3.62,3.62,0,0,1,.09-1.14c0-.3.29-.46.48-.67a1.18,1.18,0,0,1,.91-.41,3.14,3.14,0,0,0,1-.26c.12-.24.33-.2.54-.21a4.7,4.7,0,0,1,.65,0,2.26,2.26,0,0,0,.58,0,3.77,3.77,0,0,1,1.38,0c.17,0,.34.15.49.07s.39,0,.54.18c.09-.17.23-.16.35-.16a2.63,2.63,0,0,0,.39-.06,5.56,5.56,0,0,1,1.29-.17,24.32,24.32,0,0,1,2.56.07,1.66,1.66,0,0,1,.64.1.85.85,0,0,0,.88.07c.14-.07.34,0,.5,0a8.34,8.34,0,0,1,1.87-.15c.62.06,1.26,0,1.89,0a4.44,4.44,0,0,0,1.72.16.5.5,0,0,1,.21-.09,6.35,6.35,0,0,1,2.38,0,2.42,2.42,0,0,1,.46.06c.33.14,1.36.35,1.36,0,0-.12.27-.29.25-.4a1,1,0,0,1,0-.49,6.65,6.65,0,0,0,.07-2c-.06-.67.06-1.33,0-2,0,0,0,0,0-.08a6.16,6.16,0,0,0-.1-1.66,3,3,0,0,1-.13-.75c0-.43.09-.85.14-1.27a10.84,10.84,0,0,0,.06-1.61,13.4,13.4,0,0,0-.07-1.55,5.65,5.65,0,0,1,.13-1.42,12.29,12.29,0,0,1,.27-1.82,1.29,1.29,0,0,0,.11-.72,1.62,1.62,0,0,1-.06-.58,4.16,4.16,0,0,0-.4-1.77.32.32,0,0,0-.32-.24c-.25,0-.49-.06-.73-.07a15.44,15.44,0,0,1-1.8-.17,1.42,1.42,0,0,0-.58,0,2.56,2.56,0,0,1-1.29,0,.34.34,0,0,0-.2,0,.83.83,0,0,1-.56,0,.55.55,0,0,0-.31,0,4.19,4.19,0,0,1-1.37.09,17.92,17.92,0,0,0-1.94,0,5,5,0,0,1-1.23-.12c-.25-.06-.48-.21-.71,0a.16.16,0,0,1-.12,0,8.16,8.16,0,0,0-1.21,0,37,37,0,0,0-3.8.07l-.15,0a1.85,1.85,0,0,1-.81,0,.61.61,0,0,0-.27,0,1.18,1.18,0,0,1-.53,0,6,6,0,0,0-1.12-.05c-.17,0-.34.11-.52,0a1.44,1.44,0,0,0-.46,0h-2a1.06,1.06,0,0,0-.31,0c-.32.13-.63,0-.94-.05a.55.55,0,0,1-.39-.23,2,2,0,0,0-.38-.33.49.49,0,0,1-.24-.45c0-.71,0-1.42,0-2.12,0-.53.08-1.05.07-1.58a5.6,5.6,0,0,1,.08-1.58.31.31,0,0,0,0-.19,1.9,1.9,0,0,1,0-.58,8.15,8.15,0,0,1,.09-1.78,7.61,7.61,0,0,0,.11-1.07,6.38,6.38,0,0,0,0-1.85,3.76,3.76,0,0,1-.08-1.11c.11-.81.07-1.62.15-2.43,0-.27,0-.54,0-.81a5.14,5.14,0,0,0,.07-1.3,18.07,18.07,0,0,1-.17-2,5.49,5.49,0,0,0-.1-1.21,8.07,8.07,0,0,1-.14-1.38c0-.33.11-.65.13-1A10,10,0,0,1,149,23.6a2.09,2.09,0,0,0,0-.71,11.61,11.61,0,0,1-.13-2.2,2,2,0,0,1,.48-1.49.83.83,0,0,0,.12-.25.8.8,0,0,1,.77-.52c.69,0,1.37-.08,2.05-.1.5,0,1-.16,1.5-.14.08,0,.17-.06.26-.07a1.76,1.76,0,0,1,.94,0,.43.43,0,0,0,.16,0h2.53a4.19,4.19,0,0,0,1.22-.13.31.31,0,0,1,.19,0c.44.1.89.13,1.34.19a1.78,1.78,0,0,0,.69,0,4.3,4.3,0,0,1,.61-.05c.74-.06,1.48.1,2.21.07A4.08,4.08,0,0,0,165.2,18a.91.91,0,0,1,.54,0,3.92,3.92,0,0,0,1.08.06,6.66,6.66,0,0,1,1,.12,2.38,2.38,0,0,0,1.53-.19,1.13,1.13,0,0,1,.66-.1c.45,0,.82.29,1.26.3a2.66,2.66,0,0,0,.69,0c.31-.06.63-.09.94-.18a3.68,3.68,0,0,1,1.1-.12c.15,0,.29-.11.45,0a1.4,1.4,0,0,0,.83.12,5.57,5.57,0,0,0,1.16-.11,5.27,5.27,0,0,1,1.05-.2,1.6,1.6,0,0,0,.93-.51c.19-.17.08-.41.1-.63a2.94,2.94,0,0,0,0-.42,2.68,2.68,0,0,1,0-.8,6.49,6.49,0,0,0,.09-1.65c-.08-.86-.16-1.72-.23-2.59a2,2,0,0,1,0-.76c.15-.56,0-1.14.14-1.69a.19.19,0,0,0,0-.08,1.57,1.57,0,0,1-.07-.61,8.47,8.47,0,0,0-.1-1.12,4,4,0,0,1,0-1.46,5,5,0,0,0,0-1.49,2.53,2.53,0,0,1,0-1.06,4.2,4.2,0,0,0,.08-1.12,5,5,0,0,0-.16-.79c-.1-.12-.26-.15-.28-.33s-.13-.18-.24-.21a2.9,2.9,0,0,0-1.09-.21c-.29,0-.57,0-.86,0a4.5,4.5,0,0,0-.9.09,3.61,3.61,0,0,1-1.35,0c-.34,0-.69-.08-1-.09l-.95,0c-.53,0-1.07,0-1.6,0a.61.61,0,0,0-.3,0,1.15,1.15,0,0,1-.68.12,5.89,5.89,0,0,1-1.11-.12,1.74,1.74,0,0,0-1,0,1.84,1.84,0,0,1-.52.1c-.52.06-1-.16-1.53-.11-.25,0-.49-.09-.75,0s-.8.18-1.21.26a1,1,0,0,1-.34,0A11.88,11.88,0,0,0,161,.3a7.67,7.67,0,0,0-1.51,0c-.82.07-1.65,0-2.47.09-.24,0-.43,0-.46.3a6,6,0,0,0-1.22.09.36.36,0,0,1-.23,0,1.65,1.65,0,0,0-.66-.06c-.36,0-.72,0-1.09,0a.56.56,0,0,1-.47-.16c-.11-.14-.29-.06-.43-.11s-.1.13-.17.2-.33,0-.35,0c-.1-.21-.27-.17-.43-.22a1.91,1.91,0,0,0-.79,0c-.42,0-.85,0-1.27,0a5.76,5.76,0,0,1-1.17,0,2.52,2.52,0,0,0-1.28,0,1,1,0,0,1-.39,0,5.48,5.48,0,0,0-1.07,0c-.66,0-1.31.1-2,.13-.24,0-.42.06-.48.32-.16,0-.3,0-.44,0s0,0-.05-.07a.28.28,0,0,0-.31-.28.31.31,0,0,0-.29.26.27.27,0,0,1-.37.18,2,2,0,0,1-.52-.16s.11,0,.08-.1a1.61,1.61,0,0,0-.93-.17c-.39,0-.76,0-1.14,0-.58,0-1.16,0-1.74,0a3.8,3.8,0,0,1-.46,0,9.68,9.68,0,0,0-1.53-.17,16.82,16.82,0,0,0-1.88,0,7.45,7.45,0,0,1-1.25,0A2.3,2.3,0,0,0,131,.43c0,.21-.14.32-.33.43a4,4,0,0,0,0,.69,1.86,1.86,0,0,1,.09.84,13.25,13.25,0,0,1-.1,1.67,1.57,1.57,0,0,0,0,.91,4.56,4.56,0,0,1,.13,1.33,2.09,2.09,0,0,1-.15.71,6.47,6.47,0,0,0-.33,2.89.32.32,0,0,0,.05.19c.17.28.42.54.36.92,0,0,0,.05,0,.08a2.61,2.61,0,0,1,.31,1.5c0,.72-.16,1.43-.25,2.14a5.93,5.93,0,0,0,0,1.63,4,4,0,0,1,0,1.19,1,1,0,0,0,0,.46,3,3,0,0,1,0,1.16,2.63,2.63,0,0,0,0,.49,1.25,1.25,0,0,1-.08.64.69.69,0,0,0-.07.52c.11.57-.07,1.16,0,1.73a.25.25,0,0,1,0,.12,3.55,3.55,0,0,0-.13,1,3.15,3.15,0,0,1-.2,1.36.27.27,0,0,0,0,.12,5.23,5.23,0,0,0,.21,2.22.67.67,0,0,0-.09.63.82.82,0,0,1,0,.38,4.19,4.19,0,0,0-.08,1.11c.06.54,0,1.08.07,1.61s.07.87.14,1.3a2.4,2.4,0,0,1-.15,1.52s0,0,0,.08a3.37,3.37,0,0,0,.05,1.67.69.69,0,0,1,0,.45,1.91,1.91,0,0,0,0,1.11A5.21,5.21,0,0,1,130.4,39a2.74,2.74,0,0,0,0,.81,5,5,0,0,1,.05,1,4.09,4.09,0,0,1-.27,1.52,1.22,1.22,0,0,0,0,.8,2.59,2.59,0,0,1,.1.61,9.5,9.5,0,0,0,.15,1.41,3.8,3.8,0,0,1,.15.83,8.33,8.33,0,0,1-.31,1.7,1,1,0,0,0,.14,1.11s0,.1,0,.15a6.35,6.35,0,0,1,.15,1.63,6.06,6.06,0,0,1-.05,1.2,2.37,2.37,0,0,0,0,.92.89.89,0,0,1,0,.75.31.31,0,0,0,0,.19c.08.85.08,1.7.13,2.55a5.39,5.39,0,0,0-.06.8c.1.57.18,1.15.25,1.72a5.27,5.27,0,0,1-.06,1.54,5.47,5.47,0,0,0,0,1.34c0,.4.08.81.06,1.19a12.23,12.23,0,0,0,.08,1.61c0,.63,0,1.26.12,1.89a6.39,6.39,0,0,0,.07,1,.87.87,0,0,1,0,.53,6.26,6.26,0,0,0-.13,1.88c0,.16.08.3.07.46,0,.64,0,1.28-.07,1.92,0,.46,0,.92,0,1.38,0,.71,0,1.43,0,2.14a3.42,3.42,0,0,0,.06.78,2.31,2.31,0,0,1,0,.83,3.3,3.3,0,0,0,.06,1.59,2.3,2.3,0,0,1,.09.69c0,.39,0,.78,0,1.16.06.63,0,1.26.06,1.89s-.19,1.33-.19,2a6.42,6.42,0,0,0,0,1.16,1.31,1.31,0,0,1,0,.73,1.49,1.49,0,0,0-.06.84,5.37,5.37,0,0,1,.15,1c0,.35.06.69.07,1,0,.18.08.34,0,.53a2.75,2.75,0,0,0-.15,1.18,6.57,6.57,0,0,0,.1,1.77,1,1,0,0,1,0,.34,3.32,3.32,0,0,0,0,.89,1.41,1.41,0,0,1-.1.67,1.52,1.52,0,0,0-.11,1.3.8.8,0,0,1,.06.38c0,.61-.06,1.23,0,1.85,0,.1,0,.2,0,.3a4,4,0,0,0-.11,1.23,2.31,2.31,0,0,1,.06.69,4.83,4.83,0,0,0,0,1.14,2.87,2.87,0,0,1,0,.77,4.27,4.27,0,0,0,0,1.47,6.29,6.29,0,0,1-.08,2.25c-.13.79-.26,1.58-.33,2.37a2,2,0,0,0-.06.53,5.65,5.65,0,0,1,0,1.75,4.55,4.55,0,0,0-.11,1.47.59.59,0,0,0,.46.59,1.2,1.2,0,0,0,.42.07c.68,0,1.36.12,2.05.08h.11c.47.17.58-.08,1.06,0a2.45,2.45,0,0,0,.85-.05,1,1,0,0,1,.67,0,1.63,1.63,0,0,0,.31,0c.76,0,1.53,0,2.29,0a6.18,6.18,0,0,1,1.12-.12c.39.06.94,0,1.34.08.23-.16.48,0,.71,0a2.56,2.56,0,0,1,.73,0c.48,0,1,0,1.44.06.3,0,.85.16,1.16.16.67,0,1.39,0,2,0s1.16,0,1.73,0c.37,0,1,0,1.73-.06a11.8,11.8,0,0,0,1.42-.17c.38.07.77,0,1.16.09a2.54,2.54,0,0,0,.6-.06,6.11,6.11,0,0,1,.74.08c.3-.09.59.07.91,0s.59.21.92.13c.25.27.86,0,1.14,0s.66-.27.79-.23.2.19.41.22c0,0,.54-.18.56-.22.25,0,.46.21.77.08.33.22.19-.06.53,0a1.57,1.57,0,0,0,.44,0c.11,0,.07-.17.21-.17a1.53,1.53,0,0,1,.54.1c.21.11,1.23.09,1.4.17a8.54,8.54,0,0,1,1.84-.2.45.45,0,0,0,.2,0,2.57,2.57,0,0,1,.87.08,7.84,7.84,0,0,0,1.07.14c.36,0,.12,0,.49-.14a.24.24,0,0,1,.12,0,1,1,0,0,0,.73,0c.12.06.64-.12.73-.14a3.62,3.62,0,0,1,.87.08c.39,0,.4-.11.77.14a.36.36,0,0,0,.3,0,.42.42,0,0,1,.27,0,1.1,1.1,0,0,0,.82-.09c.23.15.87-.21,1.15-.21a6.32,6.32,0,0,1,1.15,0c.54.1,1.13.09,1.67.19.17-.13.34,0,.52,0a2.32,2.32,0,0,0,1.18-.47.72.72,0,0,0,.18-.21c.21-.49.3-1,.46-1.52a1,1,0,0,0,0-.81,23.65,23.65,0,0,1,.34-2.82,8,8,0,0,0,.15-1.3,5.25,5.25,0,0,1,.07-1,.65.65,0,0,0,0-.31"/><path class="cls-1" d="M30.92,110.26c.18.39,0,.67-.16,1s.16.18.1.34c-.25,0-.49.16-.77,0a.29.29,0,0,0-.41.1.38.38,0,0,1-.32.18c-.14-.19,0-.33.06-.47s0-.33.1-.45-.35-.39-.08-.65a.84.84,0,0,0,1.13,0,.47.47,0,0,1,.35,0"/><path class="cls-1" d="M21.67,111.18a1,1,0,0,0,.15-.59c.43-.2.5-.74,1-.94a.82.82,0,0,1,.45.51.25.25,0,0,1-.17.37c-.11,0-.16.11-.24.18s-.33.35-.61.33a.31.31,0,0,0-.29.16c0,.07-.14.07-.25,0"/><path class="cls-1" d="M24.68,111.49c-.33.19-.6.28-.91.06a.47.47,0,0,1-.23-.37,1,1,0,0,1,.06-.46.46.46,0,0,1,.75-.18.34.34,0,0,1,.07.29.77.77,0,0,0,.26.66"/><path class="cls-1" d="M25.53,112.64c.09-.07.18-.11.24-.17a1,1,0,0,0,.11-.2,1.41,1.41,0,0,0,.56-.16,2.87,2.87,0,0,0,.74.63,1.16,1.16,0,0,1-.77.32.57.57,0,0,1-.33-.09.81.81,0,0,0-.75-.16c-.09,0-.2,0-.27-.16.15-.13.3-.08.47,0"/><path class="cls-1" d="M21.52,110.52a.78.78,0,0,1-.59-.07c-.1-.32-.31-.61-.18-1,.39-.16.53.17.74.35s.05.45,0,.69"/><path class="cls-1" d="M28.16,110.32c.17.42.19.6.07.85-.34-.07-.48-.2-.49-.42s.09-.35.42-.43"/><path class="cls-1" d="M24.78,110.53a.42.42,0,0,1,.2-.27.22.22,0,0,1,.24.1c.13.16,0,.3-.07.45-.19,0-.25-.19-.37-.28"/><path class="cls-1" d="M52.3,29.29c-.15.05-.34,0-.43.17-.15,0-.23-.17-.39-.17a.36.36,0,0,0-.33.21c-.14-.05-.32,0-.36-.18s.12-.32.32-.43a.43.43,0,0,0,.48.15,1,1,0,0,1,.68,0c.06.07,0,.15,0,.24M50,24.51c0-.11,0-.22-.05-.36.28,0,.26.34.53.44a.38.38,0,0,1-.48-.08m-1.73-1.84c.27.23.65.27.83.61-.51.12-.79-.09-.83-.61m-.78-6.78c-.11.12-.33,0-.44-.22.36-.23.73-.08,1.08-.13a1.44,1.44,0,0,0-.64.35m-.65,8L44,23.78a.36.36,0,0,1,0,.09.39.39,0,0,1-.36.09,2.52,2.52,0,0,1-.29-.1,2.27,2.27,0,0,1-1.34.09s-.12,0-.15,0a4.64,4.64,0,0,1-.74-1.42.85.85,0,0,1-.35.54c-.1-.13,0-.24,0-.35a.66.66,0,0,0,0-.44.38.38,0,0,1,0-.43,4,4,0,0,1-.32-1.4c0-.71-.13-.68-.37-.83h0v0a1.58,1.58,0,0,1-.47-.44,1.71,1.71,0,0,1-.17-.48l-.24.25c0-.31,0-.42.15-.49,0-.05,0-.09-.08-.1a2,2,0,0,1-1-.85,1.64,1.64,0,0,0-.34-.36c-.11-.12-.28-.21-.33-.35a1.44,1.44,0,0,0-.95-.85,3,3,0,0,1-.9-.7,10.52,10.52,0,0,0-1.68-.92,1.51,1.51,0,0,1-.51-.39c-.4-.51-.86-.34-1.4-.65a3.64,3.64,0,0,0-1.57-.43c-.17,0-.33,0-.5,0a3.45,3.45,0,0,1-1.52-.24c-.23-.09-.4.17-.64.15a1.83,1.83,0,0,1-1.39-.46c-.25,0-.25.15-.31.26-.15.3-.33-.19-.57-.2a8.18,8.18,0,0,0-3.4.79,11.16,11.16,0,0,1-2.1.82,1.28,1.28,0,0,0-.7.38,4.1,4.1,0,0,1-.94.64c-.28.17-1.28.19-1.33.51a.19.19,0,0,1,0,.08C17,16.18,16.72,16.8,16,17c-.17.17-.14.35-.19.5a1.48,1.48,0,0,1-.45.68c-.21.17,0,.34-.23.54s-1.21.79-1.14,1.22a1.57,1.57,0,0,1-.39,1.28,6.15,6.15,0,0,0-1,1.55c-.13.25-.05.32-.07.6a10.26,10.26,0,0,1-.18,1.22c-.06.38.22.64,0,1a3.61,3.61,0,0,0-.35.92,7.11,7.11,0,0,1,1.14.15c.11.12.06.3.25.38a3.75,3.75,0,0,1-1.47-.12,2.12,2.12,0,0,0,0,.81,5.73,5.73,0,0,1,.14,1.79,6,6,0,0,0,.19,2.1,2.89,2.89,0,0,1,.26,1.18,3,3,0,0,0,.1,1A1.72,1.72,0,0,1,13,34c.05.22.11.47.18.74a.5.5,0,0,1-.19.1c.17.4.34.72.53,1.12a.91.91,0,0,1,1.26-.17c-.37.35-.8.18-1.23.22l.19.41a2.33,2.33,0,0,1,.14.47,3.36,3.36,0,0,0,.64,1.62,3.94,3.94,0,0,1,.75,1.21,1.13,1.13,0,0,0,.41.68c1,.9.91,1.71,1.18,2A32.23,32.23,0,0,1,19.08,45l.1.13a1,1,0,0,1,.32.18.16.16,0,0,1-.08.12h0c.44.53.83.8,1.32,1.47A6.12,6.12,0,0,0,21.85,48a3.19,3.19,0,0,1,1,1,2.07,2.07,0,0,0,.7.68c.46.31.43.67.74,1.12.14.19.46.36.62.55a6.57,6.57,0,0,0,1.34,1.07,4.38,4.38,0,0,1,1.09,1.1,6.47,6.47,0,0,0,1.2,1.14,3.27,3.27,0,0,1,1,.67,11.84,11.84,0,0,0,2,1.85,7.56,7.56,0,0,1,.8.7c.71.72.52.43,1.23,1.15.45.44.77,1.14,1.34,1.44a3.51,3.51,0,0,0,1.13,1c.24.18.21.51.47.65s.69.83.92,1a1.35,1.35,0,0,1,.3.37,6.47,6.47,0,0,0,1,1.13,1.31,1.31,0,0,1,.37.53.58.58,0,0,0,.31.36c.08,0,.19.07.2.13.09.48.57.64.81,1a14.57,14.57,0,0,1,.93,1.8c0,.1.08.24.17.28.43.24.48.71.67,1.1a14.55,14.55,0,0,0,1.06,1.66,2.52,2.52,0,0,1,.4.88,1.75,1.75,0,0,0,.47,1c.31.3.31.75.51,1.11s.55.61.63,1a10.86,10.86,0,0,0,.33,1.11,1.28,1.28,0,0,0,.17.46,3.87,3.87,0,0,1,.53,2.2,1.63,1.63,0,0,0,.26.93,1.54,1.54,0,0,1,.29,1,.84.84,0,0,0,.29.73c.25.19.22.5.22.76,0,1.56-.33,2.73-.41,4.29,0,.57.59,1.2.17,1.65a1.13,1.13,0,0,0-.25.77,4.73,4.73,0,0,1-.19,1.05.43.43,0,0,1-.19.35c-.25.12-.08.74-.13,1a1.76,1.76,0,0,1-.48,1c-.09.08-.09.25-.15.37a3.13,3.13,0,0,1-.41.71c-.39.43-.33,1-.57,1.49a9.36,9.36,0,0,1-1.29,2,3.83,3.83,0,0,0-.62,1,6.55,6.55,0,0,1-1.73,2c-.63.2-1,.85-1.76.92-.13.45.18.89-.15,1.06s-1.59.32-1.92.71a12.56,12.56,0,0,1-3.68,1.74,9.76,9.76,0,0,0-1.59.78c-.61.34-1.07.09-1.81.2a19.33,19.33,0,0,1-2.84.35,1.94,1.94,0,0,1-1.28-.07,12,12,0,0,0-2.74-.49,2.26,2.26,0,0,1-.88-.2,20.17,20.17,0,0,0-2.53-.59,2.17,2.17,0,0,1-.25,0c-1-.48-2.12-.54-3-1.2-.22-.16-.51-.22-.74-.36a4.35,4.35,0,0,1-1.13-1.1c-.33-.43-.9-.61-1.25-1a1.39,1.39,0,0,0-.34-.24l-.33-.25c-.3-.24-.22-.73-.64-.92s-.53-.53-.74-.84a1.3,1.3,0,0,1-.35-.64.65.65,0,0,0-.27-.4c-.49-.46-1.11-.72-1.3-1.36a1,1,0,0,0-.14-.3,12.21,12.21,0,0,1-1.18-3,2.63,2.63,0,0,1-.13-.7l0,0a.26.26,0,0,0-.18.12.64.64,0,0,1-.57.28,1.68,1.68,0,0,1-.3-.4.61.61,0,0,1,.17-.34c.25-.34.25-.41,0-.75L7,91.17A.15.15,0,0,1,7.12,91a3.46,3.46,0,0,1,.72.09l0-.09a3.33,3.33,0,0,1-.17-1.13,1,1,0,0,0-.22-.61c.07-.14.13-.29.21-.45a10.38,10.38,0,0,0-.59-1.33,1.36,1.36,0,0,1-.22-1c.09-.57,0-2.15.12-2.73,0-.17,1.28-.17,2.07-.11H9.2a7.23,7.23,0,0,1,2.32.45c.28.09.57,3.18.67,3.82,0,.21.29.32.3.57a3,3,0,0,0,.14.73c.13.45,0,1,.28,1.36s.19.91.49,1.3a1,1,0,0,1,.12.63,2.62,2.62,0,0,0,.63,1.65c.2.23.27.52.51.74a5.48,5.48,0,0,0,.71.65,1.59,1.59,0,0,1,.56.59,2.66,2.66,0,0,0,.68.7,9.24,9.24,0,0,0,1.49,1c.39.21.64.59,1.06.75a.4.4,0,0,1,.16.18A2.76,2.76,0,0,0,21,99.89a6.85,6.85,0,0,1,1.22.44c.47.19,1.25.73,1.79.59.21-.06.43-.06.65-.1a.72.72,0,0,1,.48,0,2.41,2.41,0,0,0,.8.15c1.14.19,2-.31,3.17-.29a9.86,9.86,0,0,0,1.78-.23.72.72,0,0,0,.49-.29.86.86,0,0,1,.46-.33A18.17,18.17,0,0,1,34.67,99,1.83,1.83,0,0,0,36,98.23c.23-.3.54-.55.56-1a.5.5,0,0,1,.27-.39,19.17,19.17,0,0,0,1.36-1.5c.09-.09.7-.38.76-.5s.1-.34.22-.44a11.42,11.42,0,0,0,1.15-1.77A5.54,5.54,0,0,0,41,90.81a5.94,5.94,0,0,1,.29-1,5.33,5.33,0,0,0,.46-.84c0-.27-.47-.41-.36-.66a3.22,3.22,0,0,0,.17-1c.06-1.09.26-2.79.42-3.88.08-.56-.42-.86-.45-1.44a1.1,1.1,0,0,1,0-.4,1.1,1.1,0,0,0-.08-.87A4.69,4.69,0,0,1,41,79.16.47.47,0,0,0,41,79a13.79,13.79,0,0,0-.87-1.92c-.08-.11-.21-.23-.21-.35a11.84,11.84,0,0,0-1.48-3.1,6.27,6.27,0,0,1-.74-1.28c-.18-.38-.07-.9-.4-1.17a5.59,5.59,0,0,1-1.44-1.43c-.59-.33-.83-1-1.39-1.37a.43.43,0,0,1-.12-.11c-.3-.62-.82-.93-1.2-1.5a7.8,7.8,0,0,0-.94-1s-.09-.06-.13-.1c-.26-.26-.26-.7-.69-.87s-.57-.5-.84-.76a4.7,4.7,0,0,1-.6-.66,1.4,1.4,0,0,0-.65-.6c-.05,0-.12-.06-.13-.1C29,62.12,28.35,62,28,61.58a7.47,7.47,0,0,1-.62-.64c-.42-.56-.84-1.47-1.5-1.75a3.69,3.69,0,0,1-1.17-.87,5.79,5.79,0,0,0-1.21-1.1,11.88,11.88,0,0,1-1.36-1.12,8.67,8.67,0,0,1-.93-.89,10.32,10.32,0,0,0-1.12-1.07c-.43-.34-.68-.84-1.11-1.19a3.12,3.12,0,0,1-.34-.45,2.06,2.06,0,0,0-.44-.49,8.23,8.23,0,0,1-1.45-1.44c-.44-.51-.51-1.14-1.06-1.55a.15.15,0,0,1-.06-.05c-.16-.62-1.34-1-1.72-1.51a1.08,1.08,0,0,1-.28-.5,1.91,1.91,0,0,0-.9-1.21l-.23-.18a1.31,1.31,0,0,0-.49-1c-.16-.57-.29-.16-.56-.66s-.54-1.64-.81-2.12a.91.91,0,0,1-.11-.22c-.16-.61-.81-1-1.14-1.58a6.23,6.23,0,0,1-.46-1.23c-.11-.27.1-.32-.2-.49-.07-.05-.09-.19-.14-.29a4,4,0,0,0-.26-.6A2,2,0,0,1,7.77,36a.57.57,0,0,0-.18-.44.94.94,0,0,1-.3-.66c-.1-.76-.16-1.52-.22-2.28a.55.55,0,0,1,0-.25c.11-.31-.21-.16-.4-.43a.92.92,0,0,1-.17-.46c-.06-.92-.1-1.85-.15-2.78.22-.6-.22-1.31,0-1.92a2.25,2.25,0,0,0,.08-.73,15.07,15.07,0,0,1,.1-1.65A1.91,1.91,0,0,1,6.69,24a8.49,8.49,0,0,0,.49-1.39c0-.19.49-.25.34-.51a1,1,0,0,1,0-.8,4.48,4.48,0,0,1,.6-1.34.55.55,0,0,0,.12-.21,4.26,4.26,0,0,1,.5-1.28c0-.55.38-1,.48-1.48a.43.43,0,0,1,.11-.21c.5-.46.64-1.14,1-1.66.59-.81,1.36-1.32,2-2.11a3.22,3.22,0,0,1,.63-.53c.64-.42,1.09-1.17,1.77-1.53a8.56,8.56,0,0,0,1.35-.77c.54-.43,1.2-.64,1.72-1.1A2.4,2.4,0,0,1,19,8.67a1.83,1.83,0,0,0,.69-.24,1.46,1.46,0,0,1,.44-.2,11.76,11.76,0,0,0,2-.73,1.35,1.35,0,0,1,.4-.08,7.18,7.18,0,0,0,.81-.12,5.62,5.62,0,0,1,1.63-.13,7.15,7.15,0,0,0,2-.16,2.16,2.16,0,0,1,.57,0,4.88,4.88,0,0,0,2.05,0c.61.09.87.61,1.52.52a1.81,1.81,0,0,1,.64.12c.66.16,1.32.35,2,.48a18,18,0,0,0,1.72.54c.46.33,1,.42,1.47.86a6.15,6.15,0,0,0,1.18.88,2.33,2.33,0,0,1,.45.38c.1-.09.21,0,.31,0a1,1,0,0,0,.61.21c.19,0,.3.12.38.28,0,0-.08.05-.11,0-.28-.11-.57-.16-.85-.26.29.2.6.32.92.55a.29.29,0,0,0,.1-.12l-.06-.21a1.52,1.52,0,0,0,.7.15,1.52,1.52,0,0,1,.67.2c0,.11-.16.13-.25.2a1.2,1.2,0,0,0-1-.07A5.48,5.48,0,0,1,41.1,13a1.89,1.89,0,0,0,.32.37,1.65,1.65,0,0,0-.07-1.13c0-.12-.11-.22,0-.33A1.12,1.12,0,0,0,42,12a2.29,2.29,0,0,1,1,.22.76.76,0,0,1,.33.64c-.15-.06-.19-.17-.26-.26a1,1,0,0,0-.66-.44c-.35-.07-.49,0-.6.34a1.42,1.42,0,0,1-.05.16c.11.15.16.34.34.45a.38.38,0,0,1,.14.35.86.86,0,0,0,.2.57l-.11.16a5.65,5.65,0,0,1,.45.61c.3.44.54.92.88,1.34a.66.66,0,0,1,0-.37c0-.16,0-.33.07-.49s0-.09,0-.11c-.22-.24,0-.48,0-.75a1.8,1.8,0,0,1,.73,0,.86.86,0,0,1,.06.5c-.41.23-.39.64-.43,1,0,.22.15.33.34.41a.61.61,0,0,1-.26.29l.2.14a.89.89,0,0,1,.25.32c.36.64.77,1.27,1.07,1.94a14.68,14.68,0,0,1,.64,1.94c.1.34.13.7.19,1a1.07,1.07,0,0,0,.05.44c0-.11.09-.12.32-.13a3.57,3.57,0,0,0-.24.42c.16.51.37,1.09.2,1.2M18.85,18.76a2.17,2.17,0,0,1-.3.84.86.86,0,0,1-.42,0,.58.58,0,0,1-.15-.29,4.52,4.52,0,0,1,.87-.57m.17-.45c-.23-.12-.26-.32-.34-.56.36-.05.57.17.85.23,0,.36-.39.16-.51.33m5.29,29.54a5,5,0,0,1,.65.55c.19.15.23.48.44.65,0,.16-.08.31-.28.3s-.06-.21-.06-.32a.33.33,0,0,0-.29-.35,3.42,3.42,0,0,0-.72-.18c.2-.23.08-.48.26-.65m16,57.3a.54.54,0,0,0-.15-.6c.16-.15.28-.08.35,0a.82.82,0,0,1,.15.55c0,.15-.1.16-.35,0M25.8,108.86a.79.79,0,0,1,.83.06c-.41.32-.62.29-.83-.06M13.17,87.63c.24,0,.2.23.29.36s.46.1.54.38.26,0,.33.22c-.29-.09-.61,0-.73-.39,0-.08-.11-.12-.21-.15-.25-.06-.25-.07-.22-.42m2.69,2.52c.15-.06.07-.2.16-.29s.51,0,.57.35c-.41.19-.82-.08-1.19,0-.17-.11-.12-.3-.37-.39a.82.82,0,0,1,.83.34M33,3.06c.16.08.24-.07.32,0-.16.23-.21.24-.55.15a.51.51,0,0,0-.09-.55c.31,0,.21.32.32.36m2.8,0a1.78,1.78,0,0,1,1,.08,1,1,0,0,1-.81.25c-.2,0-.28-.12-.23-.33M40,4c.11.05,0,.2.15.25s.16-.07.28,0c.07.33.32.41.65.36.07.34.35.42.6.49.08.17,0,.36.11.5.16,0,.14-.18.25-.26.11.13.32.09.44.27-.06.25-.28.45-.22.71-.11.14-.23.1-.34.11-.29,0-.57.06-.85.06A1.39,1.39,0,0,1,40,6.21c0-.11.24,0,.26-.21a.45.45,0,0,0-.45-.36.52.52,0,0,1-.45-.28c.09-.2.31-.2.46-.31A.48.48,0,0,0,40,4.52c-.4,0-.42-.37-.61-.59-.14.07-.11.15-.17.22a.29.29,0,0,0-.37-.2c-.4.13-.76-.08-1.14-.12A12.27,12.27,0,0,1,40,4M46.17,14.1c-.11.23-.32.35-.35.58,0,.08-.13.07-.21.05-.14-.47,0-.65.56-.63M42.88,5.86c.26,0,.47.07.59.34a.74.74,0,0,0,.63.4c.31,0,.48.22.72.34,0,.12,0,.23,0,.33a6.55,6.55,0,0,0,1.21.9.48.48,0,0,1,.27.51c0,.1,0,.21,0,.31a.93.93,0,0,0,.53.25c.13,0,.25.06.27.23a.15.15,0,0,0,.08.12c.31.14.28.46.4.72-.19.08-.31.07-.37-.13s-.12-.14-.2-.21a2.31,2.31,0,0,0-.89-.4.9.9,0,0,1-.26-.17,5.74,5.74,0,0,0-.79-.61.52.52,0,0,1-.22-.3.47.47,0,0,0-.5-.34.46.46,0,0,1-.53-.34c0-.15-.17-.17-.27-.18a6.77,6.77,0,0,0-1-.17.48.48,0,0,1,.32,0,.5.5,0,0,0,.3,0c.14-.27,0-.42-.2-.55s-.3-.26-.55-.21c.27-.19.5-.38.44-.76M54.42,27.52a1.05,1.05,0,0,0-.14-.71c-.05-.06,0-.17,0-.26,0-.42,0-.83,0-1.24a10.35,10.35,0,0,0-.12-1.84c-.11-.81-.22-1.62-.37-2.43a16.42,16.42,0,0,0-.64-2.28A5.53,5.53,0,0,1,53,18a8.6,8.6,0,0,0-.36-1.12c-.15-.48-.6-.82-.7-1.34,0,0,0-.07-.06-.1-.09-.29-.35-.49-.45-.76s-.15-.49-.22-.74-.37-.4-.32-.71c-.27-.4-.48-.84-.71-1.26a2.23,2.23,0,0,1-.31-.77.66.66,0,0,0-.23-.42,2.29,2.29,0,0,1-.48-.5c-.31-.58-.66-1.15-.94-1.76a.63.63,0,0,0-.2-.28c-.22-.17-.48-.29-.54-.6,0,0-.05-.06-.08-.08-.3-.28-.47-.69-.91-.82,0,0-.06,0-.08-.07a.68.68,0,0,0-.44-.23.59.59,0,0,1-.42-.24.43.43,0,0,0-.19-.13,10.26,10.26,0,0,0-1.17-.65A.23.23,0,0,1,44,5.33a.65.65,0,0,0-.45-.27A1.22,1.22,0,0,1,43,4.7a.63.63,0,0,0-.37-.19.52.52,0,0,1-.38-.3.62.62,0,0,0-.32-.32,3.59,3.59,0,0,1-.67-.42A3.73,3.73,0,0,0,40,2.86a1.34,1.34,0,0,1-.39-.16,11,11,0,0,0-1.17-.52c-.41-.14-.81-.3-1.21-.47a9.06,9.06,0,0,0-1-.45A22.92,22.92,0,0,0,33.28.58C32.57.45,31.85.4,31.14.3c-.2,0-.39,0-.57,0A6,6,0,0,0,29.31.2a12.62,12.62,0,0,0-2.53.17l-.72.07a4.22,4.22,0,0,1-.61-.07A11.62,11.62,0,0,0,23.69.6c-.31,0-.62.19-.93.21-.47,0-.92.23-1.4.22a1.61,1.61,0,0,0-.53.07,4.9,4.9,0,0,1-1.68.39.53.53,0,0,0-.29.12.45.45,0,0,1-.19.11,13.22,13.22,0,0,0-1.43.45,3.22,3.22,0,0,0-.44.14c-.55.29-1.14.47-1.68.78a.41.41,0,0,1-.25.08c-.21,0-.37.14-.55.18s-.13.2-.25.22c-.54.11-.82.63-1.33.79-.14,0-.24.23-.36.35s-.06.15-.14.17a1.91,1.91,0,0,0-.67.44.75.75,0,0,1-.2.1c-.17.06-.39.1-.48.22a1.5,1.5,0,0,1-.57.38,1.37,1.37,0,0,0-.57.6c-.08.15-.17.25-.29.27a2.8,2.8,0,0,0-1,.67c-.41.3-.55.87-1,1.19a.21.21,0,0,0-.06.1.72.72,0,0,1-.2.28A8.87,8.87,0,0,0,6,10.7a.67.67,0,0,1-.17.2,1.14,1.14,0,0,0-.44.67,1.76,1.76,0,0,1-.51.92c-.2.18-.24.45-.45.62a2.55,2.55,0,0,0-.65,1,1.35,1.35,0,0,1-.65.81.32.32,0,0,1,0,.42,4,4,0,0,0-.34.56c-.13.27-.23.56-.35.84-.2.45-.45.89-.63,1.36a2.67,2.67,0,0,1-.32.78,1.45,1.45,0,0,0-.25.6,2.82,2.82,0,0,1-.48,1.24s0,.12,0,.18a7.89,7.89,0,0,0-.07,1c-.09.55-.2,1.09-.32,1.62-.06.24.06.54-.23.7,0,0,0,.07,0,.11a1.77,1.77,0,0,0,.05.65c0,.09.1.23.06.3-.18.33-.08.71-.18,1.05a1.19,1.19,0,0,0,0,.42,8.71,8.71,0,0,1,.12,2,.75.75,0,0,0,0,.42c.22.42,0,.93.3,1.33a3.88,3.88,0,0,0,.16,1,11.15,11.15,0,0,1,.1,1.15c0,.26.12.53.13.79a5.79,5.79,0,0,0,.25,1.65,2,2,0,0,1,.24.76,5.37,5.37,0,0,0,.09.89,1.26,1.26,0,0,0,.25.79.43.43,0,0,1,.06.22,2.81,2.81,0,0,0,.26.93,2.15,2.15,0,0,1,.29.66,7.08,7.08,0,0,0,.41.93,4.3,4.3,0,0,0,.55,1.09.84.84,0,0,1,.1.37,1.25,1.25,0,0,0,.13.59A10.65,10.65,0,0,1,4,43.55c.15.28.1.66.4.88,0,0,0,0,0,.07a1.14,1.14,0,0,0,.38.78c.4.41.48,1,.89,1.39,0,0,0,.07,0,.11a.49.49,0,0,0,.32.36.33.33,0,0,1,.24.27,2.85,2.85,0,0,1,.15.52c0,.06,0,.15.07.17.22.1.29.32.44.47.32.29.59.64.94.91a2.5,2.5,0,0,1,.31.34,8.49,8.49,0,0,0,.88,1,.31.31,0,0,1,.11.16,1.15,1.15,0,0,0,.51.69c.24.16.27.53.59.61.11.47.62.62.84,1,.24.06.32.27.45.44s.12.14.16.21c.23.32.59.46.85.75a3.06,3.06,0,0,1,.79,1.1.29.29,0,0,0,.15.16,3.06,3.06,0,0,1,.77.71c.16.22.45.34.5.65,0,0,.08.12.13.13.24.06.35.25.48.42a.57.57,0,0,0,.15.16c.31.2.45.61.85.72a0,0,0,0,1,0,0c.33.35.67.69,1,1a1.69,1.69,0,0,1,.23.36c0,.09.11.17.16.26.18.32.59.46.67.86,0,0,.08.08.12.09.3.07.35.48.68.51,0,0,0,0,0,0,0,.24.16.28.35.34a.48.48,0,0,1,.27.19c.16.28.48.43.59.74a.32.32,0,0,0,.18.14c.07,0,.17.07.19.12.06.3.33.37.51.53a6.76,6.76,0,0,1,.52.55s0,0,0,.07a1.46,1.46,0,0,0,.67.77c.52.26.75.84,1.26,1.11.05,0,.07.1.11.16a.91.91,0,0,0,.53.47.55.55,0,0,1,.29.25,2.85,2.85,0,0,0,.6.55,3.8,3.8,0,0,1,.52.46,1.94,1.94,0,0,0,.41.4c.39.28.68.67,1.09.94s.71.73,1.14,1a1.71,1.71,0,0,1,.53.54c.26.46.66.78.95,1.2a5.31,5.31,0,0,1,.77,1.06,2.93,2.93,0,0,0,.57.86,7.11,7.11,0,0,1,.73,1c.13.24.22.49.34.73a4.81,4.81,0,0,0,.77,1.13.59.59,0,0,1,.1.17c.26.55.56,1.08.79,1.64a5.06,5.06,0,0,1,.38.9,2.9,2.9,0,0,0,.07.34,5.71,5.71,0,0,1,.36,1.13c0,.06,0,.15,0,.18a1.86,1.86,0,0,1,.49,1.19,5.52,5.52,0,0,1,.29,1.66,3.37,3.37,0,0,1,0,1.67,2,2,0,0,1-.12.64,4.38,4.38,0,0,0-.4,1.17.45.45,0,0,1-.14.27.58.58,0,0,0-.14.34,6.52,6.52,0,0,1-.2,1.25c-.08.19-.19.36-.26.56a3.37,3.37,0,0,1-.72,1.17c-.38.41-.74.85-1.1,1.29,0,.07-.13.14-.13.23s-.17.33-.32.45a1.44,1.44,0,0,0-.3.24,1,1,0,0,1-.8.38.87.87,0,0,0-.73.37.35.35,0,0,1-.29.17c-.26,0-.51.11-.77.11a16.86,16.86,0,0,0-2,.17,2.16,2.16,0,0,1-.62,0,4,4,0,0,0-.91-.1c-.54,0-1.06-.09-1.58-.1a.54.54,0,0,1-.49-.26.65.65,0,0,0-.42-.25c-.18,0-.43-.06-.5-.23a.6.6,0,0,0-.44-.34c-.25-.1-.5-.16-.62-.46a.4.4,0,0,0-.22-.2.53.53,0,0,1-.28-.25,1,1,0,0,0-.32-.33c0-.18.14-.23.14-.36a1.15,1.15,0,0,1-.53-.75.85.85,0,0,0-.09-.22A2.69,2.69,0,0,1,20,89.53a2.51,2.51,0,0,0,0-.27,14.68,14.68,0,0,0-.54-1.79,1.42,1.42,0,0,1-.07-.64A1.54,1.54,0,0,0,19.3,86c-.06-.27,0-.62-.33-.76,0-.3-.18-.57-.14-.89a4.31,4.31,0,0,0,.16-.59,2.82,2.82,0,0,0-.13-.91c-.07-.22-.14-.44-.2-.66a10,10,0,0,0-.23-1.31,2.73,2.73,0,0,1-.12-.92,5.8,5.8,0,0,0,0-1.38,1.41,1.41,0,0,0-1.09-1c-.4-.06-.81-.13-1.22-.17a4.42,4.42,0,0,0-1,0,2.84,2.84,0,0,1-.92,0,3.56,3.56,0,0,0-1,0,5.78,5.78,0,0,1-1.44.07,4.26,4.26,0,0,0-.8-.08c-.53,0-1.06-.09-1.59-.07a1.71,1.71,0,0,0-.71,0,.29.29,0,0,1-.16,0,2.1,2.1,0,0,0-.79-.06,1.29,1.29,0,0,0-.89.07c-.07,0-.12,0-.18,0a2.25,2.25,0,0,0-1-.07,1.65,1.65,0,0,1-.83,0,2.83,2.83,0,0,0-.58,0,19.6,19.6,0,0,1-2.54,0,2.81,2.81,0,0,0-.58,0,.76.76,0,0,0-.72.54,1.59,1.59,0,0,0-.11.56,6.83,6.83,0,0,1,0,1c0,.28-.12.59.13.84,0,0,0,.1,0,.16a9.37,9.37,0,0,1,0,1.06,21.19,21.19,0,0,0,0,2.52,2.77,2.77,0,0,1,0,.76,1.77,1.77,0,0,0-.06.76,1.82,1.82,0,0,1,0,.77,1.5,1.5,0,0,0,.11,1,2.32,2.32,0,0,1,.33,1c0,.38.16.76.17,1.14a9.19,9.19,0,0,0,.31,1.74,1,1,0,0,1,0,.42.64.64,0,0,0,0,.49,1.42,1.42,0,0,1,.11.76.8.8,0,0,0,.11.58.33.33,0,0,1,0,.3c-.17.49.2.89.2,1.35,0,0,0,.06.07.09a.72.72,0,0,1,.18.33c.19.55.4,1.09.6,1.63.09.25.3.47.29.76.2.12.05.41.25.54a.59.59,0,0,1,.22.35,3.6,3.6,0,0,0,.26.52c.12.23.36.39.45.63.14.39.48.62.7,1a2.18,2.18,0,0,1,.5.92.25.25,0,0,0,.1.16c.16.12.31.23.32.46,0,.07.07.12.13.18a2.78,2.78,0,0,1,.66.79c.22.41.62.68.85,1.08a.1.1,0,0,0,.07,0c.3,0,.45.27.63.47a2.29,2.29,0,0,1,.48.55,1.07,1.07,0,0,0,.32.38c.07.07.17.11.22.21a7.66,7.66,0,0,0,.88.92c0,.07.13.07.2.09s.38.09.46.26a.56.56,0,0,0,.33.26c.13.06.24.11.29.27s.16.18.3.21a.89.89,0,0,1,.5.18,2.35,2.35,0,0,0,1,.53.56.56,0,0,1,.18.07c.73.53,1.65.65,2.4,1.15a8,8,0,0,1,1.62.57,1.14,1.14,0,0,1,.64.49,5.59,5.59,0,0,1,1.24.28,3.65,3.65,0,0,0,.91.32,1.83,1.83,0,0,1,.63.26,1,1,0,0,0,.57.21,5.22,5.22,0,0,1,1.11.16c.23.6.67.28,1,.24.56.43,1.2.29,1.28-.27-.05-.08-.13,0-.21,0a.48.48,0,0,0-.6-.07.24.24,0,0,1-.35-.11.46.46,0,0,0-.44-.26,7.81,7.81,0,0,1-1.58-.34c0-.26.09-.55-.1-.79-.29.06-.28.45-.57.51-.09-.15-.21-.28-.15-.48a.25.25,0,0,0-.06-.22.82.82,0,0,1-.16-.61.59.59,0,0,1,.75-.66,2.12,2.12,0,0,1,.56.16,2.43,2.43,0,0,0,1.09.2,2.18,2.18,0,0,1,1,.28c.35.17.69.36,1.08.08a.61.61,0,0,1,.19-.06c.23.17.25.54.56.66a1.73,1.73,0,0,0,.32-.11.35.35,0,0,1,.37,0,.71.71,0,0,0,.78.09c.19,0,.16.25.36.27a3.09,3.09,0,0,1,1-1.39c.14.21.18.43.38.56a1.53,1.53,0,0,1,.89.1c.13.07.29.08.43.14a.54.54,0,0,0,.64-.12.35.35,0,0,1,.36-.15,2,2,0,0,0,.38.86c.08.14.24.16.27,0a2.35,2.35,0,0,0,.09-.53.36.36,0,0,0-.19-.28.35.35,0,0,1-.13-.5.84.84,0,0,0,0-.74c0-.09-.11-.15-.07-.28.21-.15.5-.06.78-.19-.25.31-.1.64-.21.93a.24.24,0,0,0,.05.1c.28.22.5.53.9.54.1,0,.18,0,.2.14-.29.43-.3.8,0,1a.49.49,0,0,0,.29-.35.72.72,0,0,1,.43-.68c0-.11-.13-.17-.11-.27,0-.31-.15-.47-.36-.63a8.28,8.28,0,0,0-.87-.66c.27,0,.57,0,.74.19a6.59,6.59,0,0,1,.72.68.41.41,0,0,1,.05.49.88.88,0,0,0-.12.62,1,1,0,0,1-.05.41c-.06.2-.22.38-.41.36s-.28.09-.45.15c-.1-.11-.29,0-.39-.18.33-.59.27-.55,0-1.25-.12.12-.29.06-.42.17,0,.32-.12.64.24.84-.1.15-.27.14-.38.27a.53.53,0,0,1-.15.36c-.18.22-.45.24-.62.43a.22.22,0,0,1-.31,0c-.06-.05-.1-.12-.16-.09s0,.18-.09.28a.65.65,0,0,0-.48.25c-.08,0-.1-.15-.2-.1s0,.24-.17.33a.48.48,0,0,1-.43,0c-.1-.16,0-.35-.1-.49s-.43.12-.65.12a.27.27,0,0,0-.23.13c-.05.13-.14.16-.26.19a.39.39,0,0,0-.29.2,4.9,4.9,0,0,0,.48.22,1.13,1.13,0,0,0,1.27,0,.65.65,0,0,1,.56-.07c.19.07.41,0,.61.1a.52.52,0,0,0,.45-.06c.3-.2.73-.19.95-.54,0,0,0,0,.07,0a10.79,10.79,0,0,1,1.14-.36,1.82,1.82,0,0,0,.85-.33.47.47,0,0,1,.32-.12,4.93,4.93,0,0,0,.85-.1.85.85,0,0,0,.48-.11,9.54,9.54,0,0,0,1.06-.63,1.21,1.21,0,0,1,.61-.3,2.84,2.84,0,0,0,.68-.27c.41-.2.82-.42,1.25-.59A8.46,8.46,0,0,0,41,108.7a3.55,3.55,0,0,1,.86-.51.31.31,0,0,0,.16-.11.84.84,0,0,1,.55-.38.45.45,0,0,0,.32-.26.45.45,0,0,1,.29-.28,1,1,0,0,0,.27-.15,1.17,1.17,0,0,1,.62-.35,1.52,1.52,0,0,0,.89-.57,1.24,1.24,0,0,1,.14-.18,5.49,5.49,0,0,1,.37-.53,4.45,4.45,0,0,0,.86-1.08,3.87,3.87,0,0,1,.7-.75,3.54,3.54,0,0,0,.8-1,1.54,1.54,0,0,1,.3-.49c.21-.21.44-.39.63-.62s.28-.22.33-.41a.49.49,0,0,1,.18-.25,1.59,1.59,0,0,0,.28-.36c.15-.22.18-.48.32-.7a7.28,7.28,0,0,1,.8-1,9.19,9.19,0,0,0,.63-.87,8.22,8.22,0,0,0,.53-1.17,4.44,4.44,0,0,0,.33-1.25c.09-.56.35-1.07.48-1.62.06-.29.24-.54.31-.82s.31-.79.42-1.21a7.5,7.5,0,0,0,.39-1.48c0-.41.09-.82.13-1.23.09-.83.27-1.64.33-2.47a10.16,10.16,0,0,0,0-1.91c-.07-.61,0-1.24-.11-1.86a7.15,7.15,0,0,0-.14-.91c-.12-.52-.24-1-.38-1.56-.19-.72-.17-1.48-.35-2.21-.09-.37-.14-.75-.23-1.13-.06-.23-.18-.46-.23-.69a5.6,5.6,0,0,0-.36-1.14c-.21-.54-.42-1.08-.64-1.62a1,1,0,0,1-.07-.42,1.26,1.26,0,0,0-.13-.63,2.8,2.8,0,0,1-.13-.41,8,8,0,0,0-.35-1.18c-.18-.39-.4-.77-.58-1.16a8.78,8.78,0,0,0-.66-1.58s0-.08,0-.12a2.21,2.21,0,0,0-.3-.7,4.2,4.2,0,0,1-.5-.9c-.31-.57-.54-1.19-.84-1.77a3.81,3.81,0,0,0-.38-.65A5.22,5.22,0,0,1,47,63c-.05-.11-.24-.13-.26-.27,0-.36-.44-.49-.5-.83,0-.1-.21-.11-.25-.23-.08-.3-.34-.47-.52-.68s-.32-.53-.66-.6c0,0-.08-.09-.11-.15a1.11,1.11,0,0,0-.3-.31.69.69,0,0,1-.26-.32.83.83,0,0,0-.27-.37c-.42-.31-.63-.81-1.08-1.1-.11-.07-.18-.26-.3-.38a5.25,5.25,0,0,1-1-1.11s-.05-.06-.08-.08c-.31-.24-.64-.46-.93-.72a3.8,3.8,0,0,1-1-1c-.2-.38-.62-.53-.89-.85-.29,0-.44-.22-.65-.37a1.47,1.47,0,0,1-.51-.45.41.41,0,0,0-.23-.2.78.78,0,0,1-.47-.36c-.19-.27-.54-.39-.64-.74,0,0-.09-.09-.15-.12a.32.32,0,0,1-.18-.14c-.1-.26-.35-.32-.58-.4a1.35,1.35,0,0,1-.33-.19c-.32-.18-.47-.52-.75-.75s-.82-.73-1.24-1.09a11,11,0,0,0-1.24-1,.2.2,0,0,1-.08-.08c0-.2-.2-.26-.35-.33s-.09-.35-.29-.43a.24.24,0,0,1-.16-.21c0-.26-.22-.35-.44-.43l-.35-.11c-.08-.3-.09-.29-.39-.47a.65.65,0,0,1-.26-.26,1.49,1.49,0,0,0-.81-.79.51.51,0,0,1-.23-.21.92.92,0,0,0-.61-.42.94.94,0,0,0-.25-.39A9.2,9.2,0,0,1,26,42.68c-.18-.23-.28-.56-.63-.63-.05-.22-.34-.27-.37-.46-.06-.39-.46-.56-.54-.92-.34-.15-.37-.59-.72-.73a.18.18,0,0,1-.1-.15c0-.34-.42-.49-.46-.83a.07.07,0,0,0-.06,0c-.25-.1-.37-.33-.54-.51a4.7,4.7,0,0,1-.61-1.06c-.07-.12-.23-.19-.24-.35s-.3-.49-.31-.8c0-.08-.09-.15-.15-.22s-.09-.08-.09-.12c0-.3-.25-.53-.31-.82s-.36-.44-.42-.73-.3-.48-.36-.75-.24-.67-.34-1c0-.2-.09-.4-.13-.6-.06-.43-.18-.85-.28-1.28a.21.21,0,0,0,0-.07A2.35,2.35,0,0,1,19,29.11c0-.62.07-1.25.1-1.88,0-.23-.1-.43-.09-.65a20.83,20.83,0,0,1,.18-2.36,5.66,5.66,0,0,1,.77-1.51,1.47,1.47,0,0,0,.51-.81.74.74,0,0,1,.5-.53,1.53,1.53,0,0,0,.56-.45,6.35,6.35,0,0,1,1-1.27.58.58,0,0,0,.17-.21,1.39,1.39,0,0,1,.54-.48,3.43,3.43,0,0,1,1.07-.3,1.74,1.74,0,0,0,1-.43.44.44,0,0,1,.32-.13c.08,0,.18,0,.26-.06s.45-.06.66-.17a9.72,9.72,0,0,0,1.62,0c.08,0,.17,0,.22,0a.56.56,0,0,0,.7,0,5.07,5.07,0,0,1,1,.46.76.76,0,0,0,.44.13,1.64,1.64,0,0,1,.86.21,3.65,3.65,0,0,0,.71.29,1,1,0,0,1,.67.46.41.41,0,0,0,.25.22.45.45,0,0,1,.38.34.24.24,0,0,0,.11.15,1.17,1.17,0,0,1,.42.49,2.85,2.85,0,0,0,.76,1,.78.78,0,0,1,.33.63c.3.28.24.69.32,1a2.52,2.52,0,0,1,.1.56,8.09,8.09,0,0,0,.09,1.77,2.5,2.5,0,0,0,.07.41,6,6,0,0,1,.45,2.17,3.76,3.76,0,0,0,.08,1c.14.44.28.57.74.58s.85,0,1.27,0a9.51,9.51,0,0,0,1.85,0,5,5,0,0,1,1,0c.12.05.06.21.19.21s.1-.18.23-.16a.71.71,0,0,0,.73.19.41.41,0,0,1,.22,0,7,7,0,0,0,1.12.08l1.07-.07c.34,0,.66.08,1,.07,1.64,0,3.29-.06,4.94-.08.13,0,.28,0,.38,0a1.24,1.24,0,0,0,.59.16c.24.05.47.19.71.13.46-.11.86-.32,1.22-.05.13.1.48-.19.66-.26.41-.57.1-.67.17-1.36a10.94,10.94,0,0,0,.12-1.26"/><path class="cls-1" d="M199.1,112c.35.22.29.54.26.85,0,.13-.13.17-.26.17s-.24,0-.28-.16a.73.73,0,0,1,.28-.86"/><path class="cls-1" d="M233.85,76.36c0,.11,0,.22,0,.33a11.14,11.14,0,0,0-.15,2.45,1.69,1.69,0,0,0,.3.73l-.28.46a1.05,1.05,0,0,1,.25.82,9,9,0,0,1-.08,2.2,1,1,0,0,0,0,.49,3.4,3.4,0,0,1,0,.9c0,.44,0,.88,0,1.32,0,.71,0,1.43-.14,2.13a20.16,20.16,0,0,0-.62,2.24,1.42,1.42,0,0,1-.32,1.07c-.15.15-.16.45-.22.69s-.06.44-.1.66c-.34.24-.53,1.3-.61,1.67a2,2,0,0,1-.74,1.14,3.86,3.86,0,0,0-.71.9l-.3.49c-.41.74-.89.72-1.47,1.35a6,6,0,0,0-.57.9,2.85,2.85,0,0,1-.31.38c-.38.4-.46,1.2-.84,1.59a1.41,1.41,0,0,1-1,.5,1.9,1.9,0,0,0-.85.28c-.64.37-1.31,1.28-2,1.64l-.15,0-.22-.09c-.25.29-1.08.29-1.37.39-.9.32-2,1-2.87,1.25-.65.15-1.31.07-2,.21a4.83,4.83,0,0,1-1.14.08,6.16,6.16,0,0,0-1.87.18,2.48,2.48,0,0,1-.9.06c-.39-.06-1.36-.69-1.73-.56a4.83,4.83,0,0,1-1.78.24,14.83,14.83,0,0,0-2.21.05c-.88.08-1.75.13-2.62.17a8.16,8.16,0,0,0-1.4.07,9.49,9.49,0,0,0-2.44,0,5.74,5.74,0,0,1-1.94-.17.65.65,0,0,0-.41,0,14.45,14.45,0,0,1-1.85.26,3.52,3.52,0,0,1-1.54.09,2.77,2.77,0,0,1-.88-1.4,7.13,7.13,0,0,0-.26-.78c-.1-.28.31-4.09.29-4.43a.77.77,0,0,1,0-.4,1.72,1.72,0,0,0,.11-.5.47.47,0,0,1,0-.43,18.53,18.53,0,0,0-.13-3.16,2,2,0,0,1,0-.49A15.21,15.21,0,0,0,194,92a9.42,9.42,0,0,1,.06-1.06,16.85,16.85,0,0,0-.07-2.13c-.05-.82.08-1.65-.05-2.47a2.68,2.68,0,0,1,0-.49,7.4,7.4,0,0,0,0-1.56.7.7,0,0,1,0-.32,2,2,0,0,0-.07-1.29,1,1,0,0,1,0-.72,1.12,1.12,0,0,0,.06-.72,3.62,3.62,0,0,1-.05-1.39,2.71,2.71,0,0,0,0-.9c-.08-.39.08-.76,0-1.14,0-.07.12-.16.22-.29-.39-.56-.41-.58-.31-1.06a1.57,1.57,0,0,0,.06-.49c-.1-.57-.41-.92-.36-1.49a29,29,0,0,0,.07-4.17,1.86,1.86,0,0,1,0-.41c0-.33.06-.66.07-1h-.15c0-.18-.15-.27-.25-.42a2.11,2.11,0,0,0,0-.56,5.14,5.14,0,0,1,0-1c0-.12.05-.25.06-.38s.07-.18.21-.19a1.64,1.64,0,0,1,.13.43c0,.07,0,.14.07.22.06-.55,0-1.11.05-1.66a8.1,8.1,0,0,1,.07-1.7.81.81,0,0,0-.05-.48,1.18,1.18,0,0,1,0-.72,2.61,2.61,0,0,0,0-1.54,2.88,2.88,0,0,1,0-1.79c.19-.6,0-.8,0-1.39,0-.22,0-.44,0-.66a31.05,31.05,0,0,0,0-3.2c0-1,.07-2,.11-3a6.2,6.2,0,0,0,0-2,.9.9,0,0,1,0-.56,2.24,2.24,0,0,0,0-1.38,1.92,1.92,0,0,1-.12-1.2c.2-.46-.25-.83-.12-1.28a1.4,1.4,0,0,0,0-.41c0-.44,0-.88.07-1.32a12.4,12.4,0,0,1,.06-2.11c.07-.28-.19-.45-.25-.71.09-.17.18-.37.28-.57-.06-.24-.25-.42-.25-.68,0-.63,0-1.26-.05-1.89,0-.34.61-1.34.25-1.62a.15.15,0,0,1,0-.15,1.77,1.77,0,0,0,0-.65.47.47,0,0,1,.13-.37.67.67,0,0,0,.09-1,1,1,0,0,1-.15-.61c0-.52,0-1.05,0-1.57a3,3,0,0,0-.3-1.6,1.34,1.34,0,0,0,0-1.62,3.71,3.71,0,0,1,.15-.4,1.49,1.49,0,0,0,.08-1.27.79.79,0,0,1,0-.48,3.16,3.16,0,0,0-.07-1.3,5.69,5.69,0,0,1-.13-.81c0-1.07,0-2.14,0-3.21a2.68,2.68,0,0,0,0-.49,10.53,10.53,0,0,1,0-2.38,2.4,2.4,0,0,0-.06-1.22.49.49,0,0,1,0-.24,6.64,6.64,0,0,0,0-2,1.39,1.39,0,0,1,.09-.64,2.19,2.19,0,0,0,0-1.84A1.81,1.81,0,0,0,194,10.1a21.05,21.05,0,0,0-.46-2.71c.14,0,0-.6.14-.6a4.6,4.6,0,0,0,1.51-.29c.12,0,.88.74,1,.72a.87.87,0,0,0,.4-.07.9.9,0,0,1,.7-.1c.2,0,.26-.06.32-.37,0-.08,0-.16.13-.19a1.84,1.84,0,0,1,.94.18,1.08,1.08,0,0,0,.71.09,6.4,6.4,0,0,1,1-.12.56.56,0,0,1,.32,0,1.63,1.63,0,0,0,1.13,0,2.36,2.36,0,0,1,1.21,0,1.68,1.68,0,0,0,1.21,0,2.89,2.89,0,0,1,1.58-.27,3.63,3.63,0,0,0,.73-.08l.57-.06c1-.09,2.27.41,3.3.25a2,2,0,0,1,.49,0c1.27.2,2.92-.14,4.18.2a2.54,2.54,0,0,0,.73,0,3,3,0,0,1,1.45.25,2.35,2.35,0,0,0,.79.19c.6.07,1.19.18,1.78.28a.88.88,0,0,1,.22.1,3.8,3.8,0,0,0,1.08.4,9.43,9.43,0,0,1,.9.55c.92.54,1,.11,1.75.9a3.68,3.68,0,0,0,.39.3c.41.33.65,0,1,.42s.65.49.81.9c0,.06.12.11.18.16A14.21,14.21,0,0,1,228,12.82a2.23,2.23,0,0,1,.56.8,1.41,1.41,0,0,0,.34.56c.55.62,1.5.39,1.7,1.21l.21.88a3,3,0,0,0,.58,1.25,1.22,1.22,0,0,1,.22.44c.18.6.33,1.2.48,1.81.09.32.73,1.06.8,1.38a13.21,13.21,0,0,1,.52,3.31,1,1,0,0,0,0,.25,3.39,3.39,0,0,1,.09,1.14,3.67,3.67,0,0,0,.05.66,10,10,0,0,1,.2,1.54,5.67,5.67,0,0,0,.19,1.3,4.93,4.93,0,0,1,.17,1.38A24.09,24.09,0,0,0,234,34c.28.8-.29,1.45-.29,2.27a5.62,5.62,0,0,0,.17,2.12.61.61,0,0,1,0,.33,23.36,23.36,0,0,1-.23,2.35.84.84,0,0,0,0,.64,1.94,1.94,0,0,1,.09,1.51,2.16,2.16,0,0,0,0,1,10.08,10.08,0,0,0,.27,2.18,1.6,1.6,0,0,1,0,.49c0,.77-.1,1.54-.13,2.3a7.38,7.38,0,0,0,0,.82c0,.2,0,.39,0,.58-.07,1.78-.17,3.55-.16,5.34a26.9,26.9,0,0,0,0,2.84c0,.32-.11.68,0,1a4.52,4.52,0,0,1,.05,1.79c-.07.14,0,.33-.15.44s-.3,0-.33.23.23.09.38.19c0,.73-.07,1.5-.12,2.26a1.74,1.74,0,0,0,.14,1,1.46,1.46,0,0,1,.1.8,17.76,17.76,0,0,0,0,2.63,1.37,1.37,0,0,1-.05.4,3.86,3.86,0,0,0-.09.49c0,.82,0,1.64-.07,2.46,0,.25.05.49.05.74,0,.71.16.25.13,1a1.52,1.52,0,0,0,.28,1.19,1.09,1.09,0,0,0-.36,1m-37,36.15c0-.16-.11-.32-.16-.48s.18,0,.23-.1-.12-.28-.17-.46c.27.1.38.21.31.41a.5.5,0,0,0,.1.51c-.06.16-.17.16-.31.12M193,98.94s0-.12,0-.18a2.7,2.7,0,0,0,.15-1.09c0-.12.07-.19.17-.24.23.26.19.64.42.94-.3.25-.23.66-.39,1-.16-.14-.16-.35-.33-.44m-.61.89c-.25-.31.12-.46.18-.7-.09-.15-.27-.24-.29-.47.29,0,.31.31.52.33-.05.69-.05.69-.41.84m-1.06-62.48a1.24,1.24,0,0,1,.92-.17c-.3.24-.59.13-.92.17M241.6,81.78a2,2,0,0,0-.09-1.33c-.06-.11-.15-.24-.09-.36a1.16,1.16,0,0,0-.06-1,2,2,0,0,1-.05-1.27.74.74,0,0,0,0-.53,1.53,1.53,0,0,1-.05-.79,2.44,2.44,0,0,1,.06-.26.6.6,0,0,0-.08-.52.36.36,0,0,1,0-.4c0-.1.11-.2.1-.29-.07-.35.05-.69,0-1a2.35,2.35,0,0,0-.19-1.08.41.41,0,0,1,0-.4,1,1,0,0,0,.08-.53,12.68,12.68,0,0,1,0-1.51,1.93,1.93,0,0,0-.15-1,1.26,1.26,0,0,1,0-.92,4.06,4.06,0,0,0,.19-1,7.49,7.49,0,0,0-.31-2.35.73.73,0,0,1,0-.7c.05-.08,0-.18,0-.27a1.72,1.72,0,0,0-.15-.74c.12-.16.25-.29.23-.49a13.43,13.43,0,0,1,0-1.42,1.48,1.48,0,0,0-.24-.88.92.92,0,0,1-.16-.66,1.61,1.61,0,0,0,0-.31.52.52,0,0,1,.14-.39.88.88,0,0,0,.18-.93.88.88,0,0,1,0-.64,1.71,1.71,0,0,0,0-.81c-.08-.43,0-.87-.13-1.31a.78.78,0,0,1,0-.3,1,1,0,0,0,0-.57,3.75,3.75,0,0,1,0-2,2.59,2.59,0,0,0,0-1.38,1.63,1.63,0,0,1,0-.79,2.85,2.85,0,0,0,0-1.33,1.43,1.43,0,0,1,0-.74,3.27,3.27,0,0,0,.11-1c-.06-.42-.16-.83-.21-1.25a3.5,3.5,0,0,1,0-1,5.92,5.92,0,0,0,.13-1.26,15.92,15.92,0,0,0-.08-2.39.5.5,0,0,1,0-.27,2,2,0,0,0,.06-.65c0-.22,0-.44,0-.65a2.88,2.88,0,0,0,0-1,.78.78,0,0,1,0-.6.77.77,0,0,0,0-.56,2.65,2.65,0,0,1,0-1.45,1,1,0,0,0-.19-.91.67.67,0,0,1-.13-.57c0-.16.08-.32.1-.49a1.3,1.3,0,0,0,0-.73c-.06-.15-.09-.32-.14-.48a.33.33,0,0,1,0-.29,1.43,1.43,0,0,0,.13-1.16,2.51,2.51,0,0,1,0-1.46.25.25,0,0,0,0-.12,3.05,3.05,0,0,1-.06-1.56v0c0-.67,0-1.35,0-2a4.61,4.61,0,0,0-.12-1.11c-.09-.35-.15-.7-.22-1.05a7.62,7.62,0,0,1-.13-1.35.59.59,0,0,0,0-.26,2.49,2.49,0,0,1-.16-.83,5.9,5.9,0,0,0,0-1.11,5.41,5.41,0,0,0-.34-1.33,2.6,2.6,0,0,1-.29-1.36.54.54,0,0,0,0-.31c-.25-.38-.28-.88-.59-1.24a.88.88,0,0,1-.16-.6c-.25.05-.25-.07-.19-.23s.14,0,.18-.06.09-.34,0-.49a5.33,5.33,0,0,0-.38-.71,1,1,0,0,1-.15-1,.55.55,0,0,0-.08-.54.9.9,0,0,1-.24-.5c-.1-.08-.21,0-.26-.12-.22-.36-.05-.87-.46-1.17,0,0,0-.1,0-.15a.66.66,0,0,0-.13-.31l-.38-.1c-.08,0-.17-.06-.17-.14s-.2-.22-.31-.34c0-.35-.26-.56-.44-.8s-.48-.37-.65-.6-.76-.49-.95-.92a.21.21,0,0,0-.1-.06.35.35,0,0,1-.32-.29.21.21,0,0,0-.16-.1c-.33-.07-.44-.47-.76-.55-.07-.3-.32-.27-.54-.34s-.36,0-.57-.1c0-.17-.19-.31-.27-.47a1.11,1.11,0,0,0-.77-.63c-.15,0-.35-.08-.43-.25a.56.56,0,0,0-.64-.31.92.92,0,0,1-.74-.27A2.29,2.29,0,0,0,227.51,4a5,5,0,0,1-.51-.16.71.71,0,0,1-.46-.33.84.84,0,0,0-.68-.44,1.9,1.9,0,0,1-.62-.21,1.21,1.21,0,0,0-.37-.11,2.78,2.78,0,0,1-1-.28,1.17,1.17,0,0,0-.64-.12l-.54,0a1.36,1.36,0,0,1-.83-.13,3.59,3.59,0,0,0-1-.37,3.25,3.25,0,0,0-1.4-.28A4.73,4.73,0,0,1,218,1.4a4.37,4.37,0,0,0-1-.23c-.34,0-.68-.23-1.05-.12,0,0-.07,0-.11,0a8.52,8.52,0,0,0-2.36-.28c-.59.05-1.18-.11-1.78-.07h-.08a10.62,10.62,0,0,0-1.69-.15c-.34,0-.69,0-1,0a3.53,3.53,0,0,0-.92,0c-.32.06-1.13-.45-1.23-.32-.25.31-.55.2-.81.12s-.62,0-.91-.17a.16.16,0,0,0-.15,0,.77.77,0,0,1-.37,0,1.76,1.76,0,0,0-.91,0,1.21,1.21,0,0,1-.49.09,2.19,2.19,0,0,0-.8.12.86.86,0,0,1-.57,0,.71.71,0,0,0-.52,0c-.09,0-.2.09-.26,0a.51.51,0,0,0-.48-.15c-.25-.28-.52-.11-.72,0a1.36,1.36,0,0,1-1,.17,4.45,4.45,0,0,0-1.5,0,3.27,3.27,0,0,1-.88.07,9.41,9.41,0,0,1-1.59-.07,3.69,3.69,0,0,0-.88,0,1.05,1.05,0,0,1-.53-.07,1,1,0,0,0-.79,0,1.19,1.19,0,0,1-.64.1,6.87,6.87,0,0,1-1.75-.15.37.37,0,0,0-.15,0c-.4,0-.8,0-1.2,0a3.58,3.58,0,0,0-1.49.14c-.08,0-.19,0-.27,0a1.72,1.72,0,0,0-.79.21,4.91,4.91,0,0,0,0,.57,9.92,9.92,0,0,1,.13,1.8,7.35,7.35,0,0,0,.15,1.42c.11.46.11.93.18,1.38a1.61,1.61,0,0,1,0,.62,3.17,3.17,0,0,0,0,.87.21.21,0,0,0,.06.21.75.75,0,0,1,.18.54c0,.1,0,.23.08.28s.16.31.17.5,0,.25,0,.38a3.48,3.48,0,0,1,0,1.16.86.86,0,0,0,0,.42,12.6,12.6,0,0,0,.22,1.37.22.22,0,0,1,0,.22.83.83,0,0,0-.06.67c-.06.11-.13.2-.18.31a2.69,2.69,0,0,0-.25.88c0,.19.12.31.14.47s0,.52.21.72a5.42,5.42,0,0,1,.13,1.6c0,.42.18.82,0,1.23,0,0,0,0,0,0a1.26,1.26,0,0,1,0,.58c0,.21-.18.4-.21.59a3.92,3.92,0,0,0,0,1.08c.06.4.1.79.13,1.19s-.12.48-.11.72a5.62,5.62,0,0,0,.22,1.68.37.37,0,0,1,0,.23,12.54,12.54,0,0,1-.26,1.36,2.37,2.37,0,0,0,0,1.21,5,5,0,0,1,.24,1c0,1.13.07,2.26,0,3.39a8.6,8.6,0,0,1-.15,1.33,2.59,2.59,0,0,0,0,1.38,1,1,0,0,1,0,.38,8.46,8.46,0,0,1-.08.88c-.08.3.12.59,0,.87a3.94,3.94,0,0,1-.06,1.53s-.05.11,0,.15c.15.34,0,.64-.12,1a2.12,2.12,0,0,0-.19.93,4.75,4.75,0,0,1-.06,1.64,2,2,0,0,0,0,.77,6.94,6.94,0,0,1,.13,1.64,6,6,0,0,0,0,.84c.05.38,0,.75,0,1.12a1.33,1.33,0,0,1,.05.48,9.85,9.85,0,0,0-.1,1.08c-.05.24-.17.5,0,.74a.69.69,0,0,1,.08.59,1.31,1.31,0,0,0-.05.39,5.88,5.88,0,0,0,0,1.11c0,.16-.06.33,0,.5a2.76,2.76,0,0,1-.05,1.07,2.14,2.14,0,0,0-.09.79c.05.39,0,.77.05,1.16a4.42,4.42,0,0,1,0,.81.23.23,0,0,1-.07.17c-.15.12-.14.29-.17.46-.06.54.19,1.09,0,1.63a.11.11,0,0,0,0,.08,2,2,0,0,1,0,.77,2.21,2.21,0,0,0,.13.76.52.52,0,0,1,0,.44.25.25,0,0,0,0,.19,4.34,4.34,0,0,1,.08,1.39,9.57,9.57,0,0,0,0,1.2,5.58,5.58,0,0,1,0,.91,7.2,7.2,0,0,0,0,1.54,3.05,3.05,0,0,1,0,.8c0,.21.11.39.11.61a1,1,0,0,0,.15.73c.06.06,0,.16,0,.25,0,.6-.07,1.19,0,1.78a.61.61,0,0,0,.14.42,2.11,2.11,0,0,0,0,1.38,1.26,1.26,0,0,1,0,.58,3,3,0,0,0,.24,2,1.44,1.44,0,0,1,.14.71,3.38,3.38,0,0,0,.07,1.67c.07.14,0,.35,0,.49a3.37,3.37,0,0,1,.07,1.18,4.82,4.82,0,0,0,0,.85c.13.57,0,1.15.13,1.72a.62.62,0,0,1,0,.38.75.75,0,0,0,0,.57.64.64,0,0,1,0,.56,1.35,1.35,0,0,0,0,1,1.51,1.51,0,0,1,.06.37,4.66,4.66,0,0,1,0,1.12.75.75,0,0,0,0,.3,4.92,4.92,0,0,1,.12,1.43,3.48,3.48,0,0,0,0,.91,9,9,0,0,1,0,1,9.16,9.16,0,0,1,.05,1,3.72,3.72,0,0,0,0,.88,4.52,4.52,0,0,1,0,1c0,.68-.08,1.36-.13,2a.77.77,0,0,0,0,.15,2.33,2.33,0,0,1,.11,1.28.22.22,0,0,0,0,.16,2.43,2.43,0,0,1,.06.85,8.55,8.55,0,0,0,0,1.6.17.17,0,0,1,0,.12,1.5,1.5,0,0,0,0,.84,1,1,0,0,1,0,.38,8.45,8.45,0,0,0-.06,1.23c0,.35,0,.69,0,1a7,7,0,0,0,0,1,8.2,8.2,0,0,1,0,2,1.61,1.61,0,0,0,0,.69.53.53,0,0,1,0,.22,5.42,5.42,0,0,0,0,1.84.86.86,0,0,1,0,.5,2.07,2.07,0,0,0-.09,1.18,1.69,1.69,0,0,1-.15,1,2.2,2.2,0,0,1,0,1.49,3.07,3.07,0,0,0-.09.8,4.68,4.68,0,0,1,.06,1.12.12.12,0,0,0,.05.14.35.35,0,0,1,.11.42c-.07.26,0,0,.05.28.08.43.26.74.79.71.26,0,.52,0,.78,0a.84.84,0,0,0,.42,0c.18-.1.65.11.84.07.35-.07.7,0,1-.11a2.78,2.78,0,0,1,.91,0c.31,0,.62,0,.93,0a1.73,1.73,0,0,1,.72.1,1.19,1.19,0,0,0,.87,0,3,3,0,0,1,.84-.11,4.26,4.26,0,0,0,.5,0,3.15,3.15,0,0,1,1.26,0,1,1,0,0,0,.45,0c.56-.07.27.2.37-.34a.57.57,0,0,0-.14-.55c.09-.12.07-.28.27-.32.1.38.44.16.7.26,0,.25.13.47.1.72a.3.3,0,0,0,.16.29c.13.09.28,0,.42.05a.26.26,0,0,0,.28-.19c-.1-.19-.26-.41,0-.66.15.23.46.28.57.52a.63.63,0,0,0,.46.31c.11,0,.78-.08.9-.08.86,0,1.08.29,1.92,0a1.79,1.79,0,0,1,1.25,0,1.73,1.73,0,0,0,1.1,0,2.17,2.17,0,0,1,1.4,0,1.3,1.3,0,0,0,1.06,0l.33-.11a3.36,3.36,0,0,1,1.59.14c.35.09.73-.29,1.08-.18a2.94,2.94,0,0,0,.51,0,9.84,9.84,0,0,1,2.17-.08,6.67,6.67,0,0,0,1.67-.32,14.24,14.24,0,0,1,1.92-.4c.41-.07.82,0,1.23-.13a2.13,2.13,0,0,1,.67-.17,8.22,8.22,0,0,0,1.1-.12c.33,0,.63-.17.95-.19a8.46,8.46,0,0,1,1.14-.16.07.07,0,0,0,.07,0,2.65,2.65,0,0,1,1.08-.45,1.24,1.24,0,0,0,.79-.44.16.16,0,0,1,.09-.07,9.45,9.45,0,0,1,1.07-.32.55.55,0,0,0,.38-.23,1.28,1.28,0,0,1,.92-.57.58.58,0,0,0,.34-.17,2,2,0,0,1,.77-.49,1.87,1.87,0,0,0,.64-.4A1.29,1.29,0,0,1,230,108a1,1,0,0,0,.63-.58,1.85,1.85,0,0,1,.76-.76,4.3,4.3,0,0,0,1.11-1.14c.06-.07.09-.13.18-.16a1.25,1.25,0,0,0,.73-.71,4.62,4.62,0,0,1,.36-.48,4.24,4.24,0,0,1,.84-.9c.09-.07.15-.18.24-.25a2.36,2.36,0,0,0,.81-1,.26.26,0,0,1,.12-.15c.29-.16.33-.49.49-.74s.27-.67.47-1,.27-.34.37-.54c.32-.71.83-1.33,1.09-2.07a.3.3,0,0,1,.12-.15.55.55,0,0,0,.27-.59.78.78,0,0,1,.17-.5,1.5,1.5,0,0,0,.33-.76,1.4,1.4,0,0,1,.27-.83,1.12,1.12,0,0,0,.28-.66,1.14,1.14,0,0,1,.09-.3c.15-.49.32-1,.42-1.48a1.64,1.64,0,0,1,.21-.7.62.62,0,0,0,.13-.38c0-.07,0-.14,0-.22.35-.54.35-1.24.78-1.74.05-.06.05-.15.08-.22.18-.42,0-.88.16-1.3,0,0,0-.1,0-.15a3.86,3.86,0,0,1-.07-1.07,6,6,0,0,0,0-1,.61.61,0,0,1,0-.27,3.93,3.93,0,0,0,.07-1.08c0-.17,0-.34,0-.5s.09-.42,0-.65a2.21,2.21,0,0,1,0-1.25"/><path class="cls-1" d="M222.48,59.74a1.22,1.22,0,0,1,0,.6c0,.1.05.2.1.29s.17.27,0,.42c.05.39-.12.79,0,1.19a.63.63,0,0,1,0,.66c0,.05,0,.12,0,.18a4.53,4.53,0,0,1-.08,1.22,1.45,1.45,0,0,1-.12.53c-.07.13,0,.37,0,.56s-.07.49.16.69,0,.24,0,.37a6.78,6.78,0,0,0-.08,1.8,2.42,2.42,0,0,1-.08.84,3.7,3.7,0,0,0,0,.94,2.09,2.09,0,0,1,0,.5.88.88,0,0,0,0,.6,1.76,1.76,0,0,1,.06,1.06,9.49,9.49,0,0,0-.05,1.92.23.23,0,0,0,.08.17s.07.1.06.13c-.11.4.12.82-.11,1.21a1.94,1.94,0,0,0-.18.51c0,.23-.12.46.09.69a.75.75,0,0,1,.11.74.62.62,0,0,0,0,.38,1.11,1.11,0,0,1,0,.48c0,.19-.09.41.15.48a4.63,4.63,0,0,0,0,1.18,1.53,1.53,0,0,1,0,.64s0,.11,0,.15c.07.5,0,1,.07,1.49a5.37,5.37,0,0,1,0,1.33,3.39,3.39,0,0,0,.07,1,1.35,1.35,0,0,1,0,.77,1.8,1.8,0,0,0,0,.92.57.57,0,0,1,0,.34,9.47,9.47,0,0,0-.29,1.28,5.08,5.08,0,0,1-.29,1,4.34,4.34,0,0,0-.37,1.12c-.33.08-.47.38-.69.62s-.08.36-.18.53-.09.21-.21.26a.38.38,0,0,0-.12.1,3.39,3.39,0,0,1-1.6,1.08c-.58.24-1.14.54-1.7.82a12.27,12.27,0,0,1-1.17.38,1.89,1.89,0,0,1-1,0,3.43,3.43,0,0,0-1-.06c-.26,0-.52,0-.78,0a1.08,1.08,0,0,0-.31,0,3.14,3.14,0,0,1-1.33-.06.6.6,0,0,0-.35,0,1.84,1.84,0,0,1-.57,0,2.33,2.33,0,0,0-1,.22.55.55,0,0,1-.41.09,4.62,4.62,0,0,0-1.34.11,3.63,3.63,0,0,1-1,0c-.26,0-.51.11-.8,0a.8.8,0,0,0-.38-.46.94.94,0,0,1-.35-.66,1,1,0,0,1,0-.54,1.71,1.71,0,0,0,0-.84,2.25,2.25,0,0,1,0-.58,9.5,9.5,0,0,0,0-1.51,1.47,1.47,0,0,0-.13-.94.25.25,0,0,1,0-.19.53.53,0,0,0,0-.41.76.76,0,0,1,0-.66.44.44,0,0,0,0-.41,2.31,2.31,0,0,1,0-1.25.82.82,0,0,0,0-.27c0-.19-.09-.38.07-.55a.13.13,0,0,0,0-.11c-.08-.33,0-.7-.21-1,.07-.16.17-.34,0-.53a.17.17,0,0,1,0-.18,1.91,1.91,0,0,0,0-.92.87.87,0,0,1,0-.42.48.48,0,0,0,0-.31,5.23,5.23,0,0,1-.06-1.53,1.77,1.77,0,0,1,0-.76,1.07,1.07,0,0,0,0-.86,11.79,11.79,0,0,1,.07-1.57.8.8,0,0,0,0-.46,4,4,0,0,1-.12-1.65c0-.34,0-.68,0-1a.19.19,0,0,1,.15-.23c-.08-.07-.18-.11-.14-.24a2.17,2.17,0,0,0,0-.95,2,2,0,0,1,.06-.8.7.7,0,0,0,0-.38,6.07,6.07,0,0,1-.08-1.41s0-.07,0-.08c-.3-.29,0-.6,0-.9a4.69,4.69,0,0,0,0-.53,8.82,8.82,0,0,0,.09-1.78s0,0,0-.07c.2-.39,0-.7-.18-1a.86.86,0,0,0,.08-.79.44.44,0,0,1,.13-.55c.24-.2.12-.48,0-.68a.86.86,0,0,1,0-.65.69.69,0,0,0,0-.45,1.09,1.09,0,0,1,0-.92c.07-.12,0-.31,0-.46a2.6,2.6,0,0,0,0-.88,1,1,0,0,1,.1-.45.71.71,0,0,0-.09-.69.4.4,0,0,1-.08-.4,3.26,3.26,0,0,0,.11-.61,2.54,2.54,0,0,0-.09-.95,1,1,0,0,1,0-.52c.12-.46.33-.94,0-1.4a.14.14,0,0,1,0-.15,1,1,0,0,0,0-.42c0-.06,0-.14,0-.19.3-.64,0-1.3.08-2a2.74,2.74,0,0,1,0-1.14,3.51,3.51,0,0,0-.11-1.4.5.5,0,0,1,0-.34.62.62,0,0,0,0-.38c-.06-.34.05-.69,0-1,.26-.41.07-.85.1-1.28a3.52,3.52,0,0,1,.06-1.21.41.41,0,0,0,0-.19c-.09-.63,0-1.26,0-1.89,0-.42-.06-.84-.1-1.26,0,0,0,0,0,0a5.25,5.25,0,0,0-.12-1.53.59.59,0,0,1,0-.23,8.29,8.29,0,0,0,.18-1.3,1.71,1.71,0,0,0-.11-.79.62.62,0,0,1,0-.52,1.14,1.14,0,0,0,.13-.67,7,7,0,0,0-.15-1.44.42.42,0,0,1,0-.27,5.43,5.43,0,0,0,.27-1.32,1.9,1.9,0,0,0-.22-1.3.5.5,0,0,1,0-.37,5.06,5.06,0,0,1,.17-.67.75.75,0,0,0,0-.57.64.64,0,0,1,0-.49,1.83,1.83,0,0,0,.11-.8,5.82,5.82,0,0,0,0-1.18,5.18,5.18,0,0,1-.09-.78c0-.16.1-.31.06-.45a4.91,4.91,0,0,1,.09-1.33,8.46,8.46,0,0,0,0-1.59c0-.23.08-.48.06-.72a2.48,2.48,0,0,0-.06-.54,1.15,1.15,0,0,1,0-.61,1.13,1.13,0,0,0-.08-.9.53.53,0,0,1,0-.52.48.48,0,0,0,0-.27,5.74,5.74,0,0,0-.14-1.43.29.29,0,0,1,.16-.36,1.78,1.78,0,0,1,.55-.18,8.61,8.61,0,0,1,1.34-.08l.32,0s0-.07,0,0,0,0,0,0l0-.05a25.67,25.67,0,0,1,3.16-.1,4.84,4.84,0,0,0,1.2-.07.69.69,0,0,1,.35,0,2,2,0,0,0,1,0c.51-.09,1,.07,1.51,0,0,0,.09,0,.14.06a.91.91,0,0,0-.08.13,10.43,10.43,0,0,0,1.14.2c.34,0,.67.15,1,.21.18,0,.2.25.4.27a2.49,2.49,0,0,1,.46.19,2.45,2.45,0,0,1,.83.92,3,3,0,0,0,.93.88c0,.35.28.57.34.9,0,.14.22.18.34.24a.4.4,0,0,1,.28.45c0,.12,0,.24,0,.35s0,.36.25.43.16.15.22.26c.16.33.32.66.45,1a.31.31,0,0,0,.14.18.31.31,0,0,1,.16.25,2.13,2.13,0,0,0,.26.82,2.74,2.74,0,0,1,.09,1.14.9.9,0,0,0,.28.88,1.36,1.36,0,0,0,.19,1,.2.2,0,0,1,.05.14c-.05.2.05.4,0,.58a11.71,11.71,0,0,1-.06,1.19.7.7,0,0,0,0,.35.84.84,0,0,1-.06.6,1,1,0,0,0,0,.68,2.73,2.73,0,0,1-.1,1.3,1.16,1.16,0,0,0-.06.49c.06.61,0,1.23,0,1.84a3.19,3.19,0,0,1-.05,1.11.5.5,0,0,0,0,.27,9.41,9.41,0,0,1,.15,1.5,9.6,9.6,0,0,0,.13,1.5,1,1,0,0,0-.2,1,1,1,0,0,1-.08.71,1.37,1.37,0,0,0,0,1,.62.62,0,0,1,0,.48,1.3,1.3,0,0,0,0,.73,1.78,1.78,0,0,1,0,.61,4.62,4.62,0,0,0,0,1.53,2.76,2.76,0,0,1,.1,1s0,0,0,0c.2.28,0,.57,0,.85a.44.44,0,0,0,0,.23,2,2,0,0,1,0,1c0,.07-.06.18,0,.22.2.25.08.49,0,.73a.32.32,0,0,0,0,.3.87.87,0,0,1,0,.67c-.06.2-.12.41.11.56a.17.17,0,0,1,.05.24,1.44,1.44,0,0,0-.14.67s0,.09,0,.12a1.25,1.25,0,0,0,0,1,.58.58,0,0,1,0,.48.36.36,0,0,0,0,.32c0,.1.15.06.21.09a.82.82,0,0,0-.21.71c0,.27,0,.53-.06.8a12.3,12.3,0,0,0-.23,1.91c0,.32.1.63.12,1M204.31,99.28a.08.08,0,0,1-.1,0c-.11-.21-.19-.22-.31-.06l-.1.17c0,.06,0,.13-.1.17-.45-.29-.06-.78-.26-1.15a.49.49,0,0,0,.3-.55.52.52,0,0,1,.47,0l-.15.15a3.36,3.36,0,0,0,.27.7c-.11.08-.18,0-.26,0s-.07.18.08.2.27.06.16.36m-3.26-5c-.17-.17-.18-.34,0-.64.23.33.23.36,0,.64m-.47,1.3c-.09.11-.15.22-.29.26a.31.31,0,0,1-.17-.38c.06-.2,0-.41.1-.62s.08-.35.54-.38c-.31.25-.29.6-.53.78,0,.2.12.32.35.34m28.8-30.27c-.12-.35-.53-.6-.43-.95a5.59,5.59,0,0,0,.11-2.44,3.71,3.71,0,0,1,0-.58,10.78,10.78,0,0,1,.2-1.79,1.87,1.87,0,0,0-.05-1,3.3,3.3,0,0,1-.14-1.46c0-.49.07-1,.11-1.48a2.23,2.23,0,0,0-.11-.89A3,3,0,0,1,229,53a2.5,2.5,0,0,0-.08-1.84,1.32,1.32,0,0,1-.09-1,1.84,1.84,0,0,0,0-.74A4.11,4.11,0,0,1,229,47.3a1.15,1.15,0,0,0-.11-1.18.7.7,0,0,1-.07-.39,2,2,0,0,0-.08-.73.73.73,0,0,1,0-.56.81.81,0,0,0,0-.63,2.08,2.08,0,0,1,0-.66,12.61,12.61,0,0,0-.16-2.53c0-.27.4-.67.29-.91a2.78,2.78,0,0,1-.15-1.45,17.93,17.93,0,0,1,.1-2.54,1.07,1.07,0,0,0,0-.25c-.07-.87-.15-1.73-.21-2.61s0-1.47,0-2.21a10.12,10.12,0,0,0,0-2.13c-.09-.43.35-1.29.32-1.73a5.22,5.22,0,0,1-.13-2.26.9.9,0,0,0,0-.48,8.63,8.63,0,0,0-.28-.86,19,19,0,0,1-.84-2.4c-.17-.94-.86-1.18-1.24-2a.9.9,0,0,0-.15-.19,10.66,10.66,0,0,1-1-1.37,1.4,1.4,0,0,0-.33-.36l-2.17-2a2.93,2.93,0,0,0-.52-.41c-.6-.36-1.25-.22-1.71-.78a1,1,0,0,0-.33-.24,6.87,6.87,0,0,0-2.26-.72,2.22,2.22,0,0,1-.8-.15,5.49,5.49,0,0,0-2.5-.7,1.65,1.65,0,0,1-.32-.06,5.78,5.78,0,0,0-2.45-.09,2,2,0,0,1-.74,0,9.83,9.83,0,0,0-1.88,0,14.75,14.75,0,0,0-1.88.16,14,14,0,0,1-4.34.11,3.52,3.52,0,0,0-1.21.06,6.72,6.72,0,0,1-2.68.15.76.76,0,0,0-.8.31c-.21.3.17.39.2.75a15.14,15.14,0,0,0,.21,1.63,1.46,1.46,0,0,1,0,.72,5.75,5.75,0,0,0-.24,1.29,7.81,7.81,0,0,0,.18,1c0,.35-.16.69-.11,1.06a9.13,9.13,0,0,1,0,2.81,2,2,0,0,0,0,.65,5.43,5.43,0,0,1,0,.9,4.45,4.45,0,0,0,0,.82,4.34,4.34,0,0,1-.05,1.72,6.15,6.15,0,0,0-.1,2,7.17,7.17,0,0,1,0,1.31,2.69,2.69,0,0,0,.07,1.06,3.59,3.59,0,0,1,0,1.95,1.89,1.89,0,0,0,0,1.22,6.82,6.82,0,0,1,.28,2.1,9.06,9.06,0,0,1-.08,1.64,9.29,9.29,0,0,0,0,2,8.16,8.16,0,0,1,0,1.48,5.51,5.51,0,0,0,.05,1.72,1.88,1.88,0,0,1,0,.41,9.37,9.37,0,0,0,.06,1.4,10,10,0,0,1,0,1.64,17.19,17.19,0,0,0-.07,3.44c-.13.7-.07,1.41-.16,2.11a1.34,1.34,0,0,0,0,.4,6.19,6.19,0,0,1,0,1.72,3.9,3.9,0,0,0,0,1.32,4.62,4.62,0,0,1,0,1.39,3.56,3.56,0,0,0,.11,1.62c.18.48-.15,1.15-.15,1.64a10.78,10.78,0,0,0-.13,2.6,1.19,1.19,0,0,1,0,.41c0,.39-.18.78.06,1.16.05.08,0,.22,0,.33a5.63,5.63,0,0,0,0,.82,15.22,15.22,0,0,1,.16,2.94c0,.41-.49.46-.4.86.17.73,0,1.47.12,2.2a14.36,14.36,0,0,0,.13,2.78,16.44,16.44,0,0,0,.17,2.21,1.7,1.7,0,0,1-.08.73,1.26,1.26,0,0,0,0,.64,2.43,2.43,0,0,1,0,.66,15.16,15.16,0,0,0,.17,3.43,10.65,10.65,0,0,1,.07,1.78c0,.69-.05,1.37-.07,2.06a12.82,12.82,0,0,0,0,1.64,4.53,4.53,0,0,1,0,1.6s0,.11,0,.16c0,.42,0,.83,0,1.24,0,.6,0,1.21.07,1.81a27,27,0,0,1-.26,3.2,1.16,1.16,0,0,0,.07.31,3.43,3.43,0,0,1,.12,1.13,2.33,2.33,0,0,0,.13,1.36,1.13,1.13,0,0,1,0,.41c0,.27,0,.55,0,.82a10.09,10.09,0,0,0,.08,1.35.73.73,0,0,0,.49.62.68.68,0,0,1,.44-.29,1.35,1.35,0,0,1,.18.36c.63,0,1.48-.09,2-.09a20,20,0,0,0,2.05,0,9.59,9.59,0,0,1,2.77.27,2,2,0,0,0,.72,0,5.22,5.22,0,0,1,1.47-.07c.52.09,1,.08,1.43.14a7.54,7.54,0,0,0,1.77,0l.61-.07a.79.79,0,0,1,.05-.22c.05-.13-.07-.23,0-.34s.05-.46.15-.68a.62.62,0,0,0,0-.62.63.63,0,0,1,.78-.12c0,.13-.05.16-.09.21a.45.45,0,0,0,0,.63.37.37,0,0,1,0,.56.36.36,0,0,0-.11.24.29.29,0,0,1-.13.27l1.6-.14a8.65,8.65,0,0,1,.89-.11,5.94,5.94,0,0,0,2.77-.65c.45-.22.87-.47,1.31-.69.19-.1.44-.11.6-.24a15.39,15.39,0,0,1,1.39-.87,2.62,2.62,0,0,0,.61-.55c.37-.43.83-.32,1.24-.73s.93-.85,1.4-1.27a6.61,6.61,0,0,0,1.09-1.33A9,9,0,0,0,227,92a4.3,4.3,0,0,0,1.37-1.76l0-.08a16.17,16.17,0,0,0,.38-2.68c0-.26,0-.53,0-.81a4.38,4.38,0,0,0,.23-1.37,11.66,11.66,0,0,1,.15-1.78,2.37,2.37,0,0,1,.09-.65c.13-.38-.37-1.07-.45-1.46a1.61,1.61,0,0,1,.06-1,1.39,1.39,0,0,0,0-.88,4.75,4.75,0,0,1,0-2.28,1.84,1.84,0,0,0,0-.41,10,10,0,0,1,.05-2.68.86.86,0,0,0,0-.16l.15-3.13a2.53,2.53,0,0,0,0-.73,1.71,1.71,0,0,1,.06-1.2,2.88,2.88,0,0,0,.18-1.69,1.06,1.06,0,0,1,0-.66,1.91,1.91,0,0,0,0-1.29"/><path class="cls-1" d="M244.65,105.24a4.76,4.76,0,0,1,1.06-1.6,5,5,0,0,1,1.58-1,5,5,0,0,1,5.46,1,4.68,4.68,0,0,1,1.06,1.58,5.25,5.25,0,0,1,0,4,4.76,4.76,0,0,1-1.06,1.6,4.91,4.91,0,0,1-1.58,1.07,5,5,0,0,1-3.88,0,5,5,0,0,1-1.58-1.06,4.68,4.68,0,0,1-1.06-1.58,4.9,4.9,0,0,1-.39-2,5.07,5.07,0,0,1,.39-2m-.86,4.32a5.86,5.86,0,0,0,1.27,1.85,6.12,6.12,0,0,0,1.88,1.23,6,6,0,0,0,6.46-1.24,6.15,6.15,0,0,0,1.28-1.87,5.86,5.86,0,0,0,.47-2.34,5.73,5.73,0,0,0-.47-2.32,5.86,5.86,0,0,0-3.17-3.07,6,6,0,0,0-4.57,0,6,6,0,0,0-1.88,1.24,5.93,5.93,0,0,0-1.75,4.21,5.56,5.56,0,0,0,.48,2.31m4.19-4.85h1.47l.55,0a1.55,1.55,0,0,1,.49.14.88.88,0,0,1,.36.33,1,1,0,0,1,.13.56,1.13,1.13,0,0,1-.15.63,1,1,0,0,1-.41.33,1.76,1.76,0,0,1-.59.13c-.22,0-.45,0-.68,0H248Zm-.94,6H248v-2.92h1.22l1.86,2.92h1l-2-3a2.29,2.29,0,0,0,1.28-.51,1.62,1.62,0,0,0,.52-1.34,1.8,1.8,0,0,0-.59-1.49,2.87,2.87,0,0,0-1.81-.46H247Z"/></g></g></svg>