<svg xmlns="http://www.w3.org/2000/svg" viewBox="0 0 74.19 60"><defs><style>.cls-1{fill:#81bb27;}.cls-2{fill:#4d4129;}</style></defs><title>nn-logo</title><g id="Layer_2" data-name="Layer 2"><g id="Layer_1-2" data-name="Layer 1"><path class="cls-1" d="M32.64,57a.65.65,0,0,1,0,.24,4.44,4.44,0,0,0,0,.63,2.65,2.65,0,0,1-.06.69s0,0,0,0c.09.17,0,.35,0,.52a.67.67,0,0,1,0,.2.16.16,0,0,1-.16.18l-.12,0-2.71.2a.74.74,0,0,1-.59-.13.15.15,0,0,0-.15,0c-.16.09-.33,0-.5,0l-.36,0c-.31,0-.62,0-.92,0a.94.94,0,0,1-.29,0,1,1,0,0,0-.48,0,.63.63,0,0,1-.36,0,2.88,2.88,0,0,0-1-.07c-.22,0-.43,0-.64,0a1.18,1.18,0,0,1-.67-.11,1,1,0,0,0-.55,0,.47.47,0,0,0-.19.06.16.16,0,0,1-.16,0c-.17-.07-.36,0-.53-.1a1,1,0,0,0-.3,0c-.29,0-.57,0-.86,0s-.3.08-.45.06a1.3,1.3,0,0,0-.62,0,2.56,2.56,0,0,1-.72.13c-.14-.12-.14-.17-.09-.34a.67.67,0,0,0,0-.42,2.5,2.5,0,0,0-.12-.45,5.44,5.44,0,0,1-.37-1.23c0-.15-.13-.26-.15-.4a1.49,1.49,0,0,1-.07-.52.51.51,0,0,0-.12-.39.11.11,0,0,1,0-.08c0-.16-.05-.32,0-.48a.33.33,0,0,0-.07-.23.17.17,0,0,1,0-.1.54.54,0,0,0-.1-.41c-.08-.13-.13-.27-.21-.4A.52.52,0,0,1,17.8,54a1.6,1.6,0,0,0-.09-.53.19.19,0,0,1,0-.13.25.25,0,0,0,0-.15,2.71,2.71,0,0,1-.13-.69.32.32,0,0,1,0-.14,1.18,1.18,0,0,1-.44-.86.35.35,0,0,1-.15-.23,3.26,3.26,0,0,0-.15-.44,1.36,1.36,0,0,1-.13-.42c0-.33-.19-.63-.1-1a2.43,2.43,0,0,1-.08-.61.64.64,0,0,1,.07-.33,2.46,2.46,0,0,1-.41-.65l0,0c0-.33-.21-.61-.24-.94s-.15-.43-.16-.67a1,1,0,0,0-.12-.23c-.14-.27-.2-.57-.33-.84s-.16-.4-.24-.6a2.14,2.14,0,0,1-.23-.82c-.15-.24-.08-.52-.16-.77,0-.1,0-.21,0-.31s-.08-.24-.11-.35-.06-.26-.07-.4a2.2,2.2,0,0,0-.12-.61,5.48,5.48,0,0,1-.33-.88,3.38,3.38,0,0,1-.08-.34,2.51,2.51,0,0,0-.26-.74,1.8,1.8,0,0,1-.23-.71c0-.1,0-.2-.08-.27s0,0,0-.06a6.42,6.42,0,0,0-.14-.86,1.84,1.84,0,0,0-.17-.65.57.57,0,0,1,0-.18,1.34,1.34,0,0,0-.17-.59l0-.05a5.76,5.76,0,0,0-.32-1,2.51,2.51,0,0,1,0-.27,2.05,2.05,0,0,0-.19-.64c-.1-.21-.15-.43-.24-.64a1.61,1.61,0,0,1-.07-.49,1.34,1.34,0,0,0-.1-.38,3.12,3.12,0,0,1-.26-.66.73.73,0,0,1,0-.33c0-.1-.69-1.16-.57-1.51,0-.05-.56-.05-.6.16a3.48,3.48,0,0,0-.17.61c0,.18-.16.63-.11.81.09.41-.07.62-.06,1a2.29,2.29,0,0,0,.07.36,4.66,4.66,0,0,1,0,.65s0,.07,0,.1a2.41,2.41,0,0,1,0,.6c0,.17,0,.34,0,.52a2.91,2.91,0,0,0,0,.59c0,.05,0,.09,0,.14a.73.73,0,0,0,0,.36.93.93,0,0,1,0,.33c-.05.22,0,.45-.06.67a1.34,1.34,0,0,0,0,.2,5.9,5.9,0,0,0,0,.73.37.37,0,0,1,0,.18.29.29,0,0,0,0,.24.79.79,0,0,1,0,.48,3.18,3.18,0,0,0-.06.68c0,.39,0,.78,0,1.16a6.77,6.77,0,0,0,0,.78.58.58,0,0,1,0,.26.21.21,0,0,0,0,.12,3.31,3.31,0,0,1,0,.77,6,6,0,0,1,0,1.12.16.16,0,0,0,0,.1A.4.4,0,0,1,10,44a4.09,4.09,0,0,0,0,1,.72.72,0,0,1,0,.33.31.31,0,0,0,0,.25,2.34,2.34,0,0,1,.09.69c0,.31,0,.63.05.94a1.77,1.77,0,0,0,0,.51.65.65,0,0,1,0,.24,1.21,1.21,0,0,0,.05.42.63.63,0,0,1,0,.24c0,.16.06.31,0,.47s0,0,0,.06a2,2,0,0,1,0,.87.16.16,0,0,0,0,.1,1.77,1.77,0,0,1,.05.65.54.54,0,0,0,0,.18,3.66,3.66,0,0,1,0,.74.11.11,0,0,0,0,.08,2.16,2.16,0,0,1,0,.67c0,.13.05.25.07.37a7.21,7.21,0,0,1,0,.93c0,.22,0,.44,0,.66a4.09,4.09,0,0,1,0,.6,4.69,4.69,0,0,0-.06.54c0,.18-.07.34-.07.52,0,.44-.13.86-.16,1.29S10,58.3,10,58.75c0,.19-.07.38-.08.57s-.19.24-.35.22a4.32,4.32,0,0,0-.88.11H8.49c-.46,0-.92.07-1.37.1a1.68,1.68,0,0,1-.55,0,.92.92,0,0,0-.52,0,.22.22,0,0,1-.16,0,.18.18,0,0,0-.1,0c-.3.05-.6,0-.9.06a7.07,7.07,0,0,1-.92,0H3.91a1.84,1.84,0,0,1-.93,0,.67.67,0,0,0-.2,0l-1.5.11A1.89,1.89,0,0,0,.76,60c-.24-.06-.24-.13-.21-.33a3.31,3.31,0,0,1,.09-.62,1.13,1.13,0,0,0,0-.45,6.42,6.42,0,0,0,0-.76,5.12,5.12,0,0,1,0-.68c0-.2,0-.42,0-.63,0,0,0-.06,0-.09a.25.25,0,0,1-.05-.27,1.46,1.46,0,0,0,0-.51.94.94,0,0,1,0-.29,5.5,5.5,0,0,0,0-.91s0-.05,0-.08a1.07,1.07,0,0,0,0-.4,1.14,1.14,0,0,1,0-.52.26.26,0,0,1,.07-.14A.36.36,0,0,0,.78,53a3.42,3.42,0,0,0,0-.46.32.32,0,0,0-.09-.17c.09-.08.17-.16.12-.28s0-.05,0-.06a.21.21,0,0,1-.11-.18c0-.18-.08-.36,0-.55a.47.47,0,0,0,0-.35.89.89,0,0,1,0-.51.67.67,0,0,0,0-.24,1,1,0,0,1,0-.66s0-.11,0-.16a.19.19,0,0,0,0-.07,1.2,1.2,0,0,1,0-.53c0-.06,0-.14,0-.21A2,2,0,0,1,.84,48c.08-.06.15,0,.25,0a.19.19,0,0,0,.08.21c.06,0,.1.1.19.06s-.1-.12-.11-.2a.13.13,0,0,1,0-.05.28.28,0,0,1,.28,0A.3.3,0,0,0,1.92,48a.59.59,0,0,1,.24-.63v-.24c-.15,0-.17,0-.19.14s0,.16-.18.18-.19,0-.27.08.08.09.14.13a.17.17,0,0,1,.08.22A.09.09,0,0,1,1.6,48c-.05,0-.1,0-.08-.09a.24.24,0,0,0,0-.14l-.24,0a.29.29,0,0,0-.22.09c-.11.11-.2.07-.24-.08a1.16,1.16,0,0,1,0-.78c0-.08,0-.2.08-.24a1.07,1.07,0,0,1,.25,0,.53.53,0,0,1,.33,0,.15.15,0,0,0,.14,0c.06-.14-.09-.3,0-.41s-.1-.07-.12-.13.06-.09.05-.16c-.17-.09-.3,0-.46.08,0,.12.08.21,0,.32s-.06.09-.12.09-.14-.06-.13-.11-.06-.31,0-.47A1,1,0,0,1,1,45.47a.34.34,0,0,0,.07-.15c0-.08-.13,0-.18-.09s0-.11.21-.11c0-.06,0-.12,0-.18s-.13,0-.19,0,0-.08,0-.11,0-.24,0-.37,0-.13,0-.2.06-.31.26-.34c0,0,.07,0,.05-.09s-.11.07-.19.05-.05-.11,0-.17a1.63,1.63,0,0,0,0-.38A1.49,1.49,0,0,1,1,42.67a1.55,1.55,0,0,0,0-.22,2.15,2.15,0,0,1,0-.62.65.65,0,0,0,0-.18.24.24,0,0,1,.13-.29l-.07-.12S1,41.17,1,41.13a1.73,1.73,0,0,1,.05-.68.14.14,0,0,1,.1-.07.2.2,0,0,0,.14-.08c-.08-.07-.18,0-.27,0a3.23,3.23,0,0,1,0-1c0-.19,0-.38.06-.57s0-.08,0-.12c-.06-.19,0-.33.21-.45-.19,0-.2-.13-.23-.26a6.82,6.82,0,0,1,0-1,8.37,8.37,0,0,0,0-1.12A6.2,6.2,0,0,0,1,35.13c.11-.29,0-.6.1-.9a1.13,1.13,0,0,0,0-.45,2.44,2.44,0,0,1,0-.54.41.41,0,0,0,0-.19c-.05-.2,0-.42-.08-.63a.63.63,0,0,1,0-.36.23.23,0,0,0,0-.14.39.39,0,0,1,0-.24,2.09,2.09,0,0,0,0-.61S1,31,1,31a9.55,9.55,0,0,0,0-1.31c0-.08,0-.16,0-.24a.54.54,0,0,0,0-.28A.13.13,0,0,1,1,29c.05-.11,0-.2,0-.3a3.27,3.27,0,0,1-.13-.87c0-.31,0-.61,0-.92a1.7,1.7,0,0,1,0-.39.61.61,0,0,0,0-.3,2.42,2.42,0,0,1,0-.76.24.24,0,0,0-.05-.23c.09-.08.22-.11.27-.23C.9,25,.75,25.15.67,25a2.48,2.48,0,0,1,0-.45c0-.2,0-.2.25-.23H1c0-.05-.08,0-.13,0a.32.32,0,0,1-.14,0c-.05,0-.08-.09-.06-.14a.5.5,0,0,0,0-.36.51.51,0,0,1,0-.3c.11-.11.16-.35,0-.36a2.3,2.3,0,0,1,0-1,.13.13,0,0,1,.2.06.46.46,0,0,1-.06.63.84.84,0,0,0,.29-.05.14.14,0,0,0,.07-.16A.8.8,0,0,0,1,22.19c-.06-.08-.06-.14,0-.2a.57.57,0,0,0,.15-.23c.05-.09.09-.18.14-.28-.1-.06-.17,0-.24,0l-.34.26c-.05,0-.05,0-.2,0a.58.58,0,0,0,0-.45,4,4,0,0,1-.08-.59c0-.08.06-.14.05-.22,0-.3,0-.6,0-.9s0-.46,0-.7,0-.39,0-.59-.05-.2,0-.28,0-.05,0-.08a.64.64,0,0,1,.08-.45.12.12,0,0,0,0-.17s-.06,0-.06-.06.11,0,.15-.12a.85.85,0,0,1-.16-.62s0-.06,0-.08a2.46,2.46,0,0,1-.07-.6,3.49,3.49,0,0,1,0-.56c0-.12,0-.29.23-.34-.1-.06-.19-.08-.22-.18s0-.08,0-.1a.07.07,0,0,1,.11,0s0,.08.07.09.09,0,.14-.05-.2-.22-.16-.37-.14,0-.19-.08.15-.26.16-.41-.11,0-.14-.11.09-.08.12-.14-.12-.11-.15-.2a.89.89,0,0,0,0-.33,3,3,0,0,1,0-.52.76.76,0,0,0,0-.15,1.43,1.43,0,0,1,0-.36,1.08,1.08,0,0,0,0-.4,1.13,1.13,0,0,1,0-.26c0-.21,0-.41,0-.61s0-.22,0-.34a5.23,5.23,0,0,0,0-.56.43.43,0,0,1,0-.16.37.37,0,0,0,0-.18A4.5,4.5,0,0,1,.46,9a2.81,2.81,0,0,1,0-.71c0-.18,0-.36,0-.53s0-.59,0-.88a1.65,1.65,0,0,0-.06-.73A.17.17,0,0,1,.42,6a.61.61,0,0,0,0-.4.39.39,0,0,1,0-.24A.84.84,0,0,0,.45,5a.87.87,0,0,1,0-.48.47.47,0,0,0,0-.16c0-.32,0-.63-.07-.94s0-.37,0-.56S.39,2.26.36,2A7.53,7.53,0,0,1,.35,1a.23.23,0,0,0,0-.14A.46.46,0,0,1,.26.68C.25.51.16.44,0,.42,0,.32.08.27.07.2a.26.26,0,0,1,.22,0,2,2,0,0,0,.87,0,3,3,0,0,1,.67.07c.24,0,.18,0,.38-.07a.91.91,0,0,0,.63,0A.22.22,0,0,1,3,.16L3,.18c.21-.07.45,0,.66-.13a.47.47,0,0,1,.35,0,2.54,2.54,0,0,0,.86.11c.2,0,.41-.06.62-.12a.3.3,0,0,1,.13,0,.94.94,0,0,0,.62,0c.09,0,.19,0,.3,0s.12.37.19.27a.12.12,0,0,1,.17,0A1,1,0,0,0,7.4.38c.35,0,.71,0,1.06,0A.69.69,0,0,0,8.7.29a.36.36,0,0,1,.18,0A4.66,4.66,0,0,0,10.06.18a4.34,4.34,0,0,1,.51,0,2.84,2.84,0,0,0,.82-.1,1.48,1.48,0,0,1,.47,0c.25,0,.49,0,.74,0a.56.56,0,0,1,.33.06.18.18,0,0,0,.16.19,1.35,1.35,0,0,0,.29.67.57.57,0,0,1,.08.23,1.36,1.36,0,0,0,.14.4c.05.07,0,.17.06.25a2.46,2.46,0,0,1,.15.53A1.73,1.73,0,0,0,14,3a3.76,3.76,0,0,1,.46,1,4.42,4.42,0,0,0,.14.63.23.23,0,0,1,0,.18.11.11,0,0,0,0,.08c.13.18.1.41.23.58a.59.59,0,0,1,.07.26,6.27,6.27,0,0,1,.22.93,2.83,2.83,0,0,0,.21.66.56.56,0,0,1,0,.12,3.8,3.8,0,0,0,.24.86c0,.13,0,.27.07.4s.13.22.17.36a2,2,0,0,1,.08.41.1.1,0,0,1,0,0c.17.17.16.41.23.61a5.72,5.72,0,0,1,.17.59c.05.22.1.45.17.67a1.18,1.18,0,0,1,.06.36.5.5,0,0,0,.11.28c.12.11.11.24.15.36a1,1,0,0,0,.18.45l0,0c0,.15.07.26.09.4s.09.54.14.81a.62.62,0,0,0,.1.22,1.19,1.19,0,0,1,.2.51,1.75,1.75,0,0,0,.18.63.46.46,0,0,1,.06.23,4.85,4.85,0,0,0,.21.77c.09.21.09.43.17.65a3.38,3.38,0,0,1,.11.48s0,.08,0,.1.14.4.2.61a4.09,4.09,0,0,0,.18.49c.08.24.13.48.21.71a3.14,3.14,0,0,1,.17.67c0,.09.09.16.11.26l.21,1.08a2.88,2.88,0,0,0,.32,1,.53.53,0,0,1,0,.16.32.32,0,0,0,.14.22.35.35,0,0,1,.14.3,4.78,4.78,0,0,0,.13.74,5.12,5.12,0,0,0,.2.77c.08.16.12.34.21.51a.4.4,0,0,1,0,.35,1.11,1.11,0,0,0,0,.48c0,.08,0,.15,0,.22a2.63,2.63,0,0,0,.15.63,1,1,0,0,1,0,.24,1.71,1.71,0,0,0,.14.55.39.39,0,0,1,0,.18,3.16,3.16,0,0,0,.14.68c.11.34.24.68.36,1a.8.8,0,0,0,.18.23c.05.05.09.11.15.16a.5.5,0,0,0,.21,0,.37.37,0,0,0,.29-.45,1.53,1.53,0,0,1,0-.64c0-.21.05-.42.07-.64a.62.62,0,0,1,0-.23.41.41,0,0,0,0-.29,3.56,3.56,0,0,1-.2-1,1.32,1.32,0,0,0-.11-.55.5.5,0,0,1,0-.27,2,2,0,0,1,0-.65.41.41,0,0,0,0-.22,3,3,0,0,1-.08-.6,1.48,1.48,0,0,1,0-.42.51.51,0,0,0,0-.3c0-.05,0-.09.05-.13s.16.06.27,0c-.08-.12-.21-.07-.31-.16,0-.27,0-.56,0-.84a.71.71,0,0,1,.23-.49L22.5,22a.12.12,0,0,0-.1-.1c-.17,0-.18-.17-.19-.3a1.26,1.26,0,0,1,0-.38,5.65,5.65,0,0,0,.11-.7.65.65,0,0,0,0-.31c0-.18-.07-.36-.11-.54a.41.41,0,0,1,0-.22c0-.21,0-.42,0-.63a1.83,1.83,0,0,0,0-.66.42.42,0,0,1,0-.24c.08-.15,0-.33.08-.5s0-.06,0-.08a.13.13,0,0,1,0-.11,1.17,1.17,0,0,0-.13-.55c0-.09,0-.2,0-.3a2.21,2.21,0,0,1,0-.68c0-.37,0-.73,0-1.09a2.67,2.67,0,0,1,0-.69c0-.14.05-.28.07-.42s0-.24,0-.36a5.8,5.8,0,0,1-.05-.93,2.36,2.36,0,0,0-.06-.75,4.35,4.35,0,0,1-.1-.52.13.13,0,0,1,0-.12,1.23,1.23,0,0,0,.13-.6,4.68,4.68,0,0,0,0-.53.32.32,0,0,1,0-.18A1.12,1.12,0,0,0,22.15,9a.38.38,0,0,1,.05-.15.24.24,0,0,0,0-.33c-.08-.1,0-.23-.05-.35s0-.12,0-.2.09-.06.09-.14a.35.35,0,0,1-.06-.47.28.28,0,0,0,0-.22.61.61,0,0,1,.05-.57.49.49,0,0,1,0-.51.28.28,0,0,0,0-.2c0-.17,0-.29.16-.35,0,0,0,0,0,0a.6.6,0,0,1-.09-.15s0-.1,0-.16-.09-.08-.13-.13a.72.72,0,0,0-.07-.43,1.39,1.39,0,0,1,0-.35c0-.14,0-.29-.05-.44a1.5,1.5,0,0,1,0-.63.41.41,0,0,0,0-.22s0-.09,0-.12.08-.21.08-.33a2.53,2.53,0,0,0,0-.48c0-.06,0-.12-.05-.16a.32.32,0,0,1-.09-.24c0-.19,0-.38,0-.57a.57.57,0,0,1,0-.26,1.42,1.42,0,0,0,.08-.5c0-.2.07-.26.27-.28a5.43,5.43,0,0,1,.7,0,2.89,2.89,0,0,0,.72,0,1.89,1.89,0,0,1,.53,0c.3,0,.58.13.88.12.09,0,.12.06.16.11A.59.59,0,0,1,25.9.17c.22,0,.43,0,.65,0a5.53,5.53,0,0,1,.91,0l.09,0a3,3,0,0,1,1,0,1,1,0,0,0,.24,0,1.85,1.85,0,0,1,.47,0,.24.24,0,0,0,.12,0c.09,0,.17,0,.26,0h.51a.34.34,0,0,0,.15-.07.2.2,0,0,1,.28,0,.2.2,0,0,0,.15.05,4.72,4.72,0,0,0,.84,0,.37.37,0,0,1,.21,0,.28.28,0,0,1,0,.2,7.71,7.71,0,0,1-.08,1.07.29.29,0,0,0,0,.16,1.49,1.49,0,0,1,0,.63V2.3c0,.31,0,.62,0,.93a2.11,2.11,0,0,0,.06.61,2.74,2.74,0,0,1,0,.63.36.36,0,0,0,0,.1c0,.33,0,.66.09,1a1.47,1.47,0,0,1,0,.66c0,.07.05.12,0,.17s0,.23,0,.35a.74.74,0,0,0,0,.36,2.44,2.44,0,0,1,.09.66,1.29,1.29,0,0,1,0,.48A1.08,1.08,0,0,0,32,9a.11.11,0,0,1,0,.08,3.94,3.94,0,0,0,.05.6c0,.22,0,.43,0,.64s0,.2,0,.3,0,.4,0,.59,0,.23,0,.35a6.26,6.26,0,0,0,0,1.06.41.41,0,0,1,0,.11,1,1,0,0,0,0,.42,3.88,3.88,0,0,1,.06.67,5.17,5.17,0,0,0,0,1,.34.34,0,0,1,0,.1,1.48,1.48,0,0,0,0,.42,4.62,4.62,0,0,1,.06.74,8.41,8.41,0,0,1,0,1,.13.13,0,0,0,0,.06c.07.17,0,.34,0,.51a.41.41,0,0,1,0,.19,5.55,5.55,0,0,0,0,.91c0,.18,0,.36,0,.53a1.32,1.32,0,0,0,0,.28.45.45,0,0,1,0,.28A.29.29,0,0,0,32,20c0,.36,0,.73,0,1.09a.58.58,0,0,1-.06.36.22.22,0,0,0,0,.21.83.83,0,0,1,.05.54.9.9,0,0,0,0,.4c0,.29,0,.58,0,.87s0,.44,0,.66A6.23,6.23,0,0,0,32,25.2a1.63,1.63,0,0,1,0,.44.5.5,0,0,0,0,.17,2.09,2.09,0,0,1,0,.56,2.18,2.18,0,0,1,0,.51,4,4,0,0,0,0,.6,3.87,3.87,0,0,1,0,.59.24.24,0,0,0,0,.21c.05.07,0,.18,0,.25a.51.51,0,0,0,0,.32,2.07,2.07,0,0,1,0,.61,1.22,1.22,0,0,0,0,.6c0,.07,0,.16-.05.24s-.07.34-.11.51a.42.42,0,0,0,0,.16,1.93,1.93,0,0,1,.06.86.17.17,0,0,0,0,.14.56.56,0,0,1,.05.4,3.87,3.87,0,0,0,0,.9,1,1,0,0,1,0,.39.76.76,0,0,0,0,.3c0,.39-.09.78-.09,1.17s0,.86.06,1.28a2.58,2.58,0,0,1,0,.68,4.78,4.78,0,0,0,0,.53c0,.29.07.58.05.88a3.32,3.32,0,0,0,.08.89A1.2,1.2,0,0,1,32,40a1.11,1.11,0,0,0,.05.74,1.39,1.39,0,0,1,0,.4.93.93,0,0,0,0,.37,1.27,1.27,0,0,1,0,.39c0,.24,0,.49,0,.74a3.71,3.71,0,0,1,0,.47,2.84,2.84,0,0,0,.06.5,3,3,0,0,1,0,.79,2.49,2.49,0,0,0,0,.77c.06.43,0,.87,0,1.31a3.87,3.87,0,0,0,.09.9.7.7,0,0,1,0,.25,2.15,2.15,0,0,0,.09.75,1.35,1.35,0,0,1,.1.72.31.31,0,0,0,0,.17,4.33,4.33,0,0,1,.07.8,2.84,2.84,0,0,1,0,.92.9.9,0,0,0,0,.4.35.35,0,0,1,0,.2,1.78,1.78,0,0,0,0,.65,1.08,1.08,0,0,1,0,.4,1.13,1.13,0,0,0,0,.41c0,.09,0,.18,0,.26.06.41-.08.82,0,1.22-.07.2.09.39,0,.58,0,0,0,0,0,.06a2.9,2.9,0,0,1,0,.93s0,0,0,0C32.71,56.44,32.58,56.71,32.64,57ZM1.33,23.62a2,2,0,0,0-.34,0l-.08.24C1.12,23.89,1.18,23.71,1.33,23.62ZM2,53.86c-.07-.26-.24-.47-.17-.75a.32.32,0,0,0-.14-.3.15.15,0,0,0-.17,0,.21.21,0,0,0-.07.36.76.76,0,0,1,.27.44,1.43,1.43,0,0,1-.12.21c-.1.15-.21.29-.42.28a.16.16,0,0,0-.17.1c.09.08.2.06.29.1a.38.38,0,0,0,.57-.23A.38.38,0,0,1,2,53.86ZM1.08,49a.07.07,0,0,0,0,.05c.22.31.2.38.65.25.13,0,.14-.07.06-.23s-.17.08-.22.16-.14-.05-.16-.14a.33.33,0,0,1,.11-.19.17.17,0,0,0,0-.2C1.46,48.9,1.22,48.88,1.08,49Zm.69-4.85c-.14,0-.26.08-.43.06,0,.2-.16.27-.22.4.17.06.18-.21.34-.15s-.06.09,0,.13C1.72,44.59,1.77,44.52,1.77,44.16ZM1.7,52a1.33,1.33,0,0,0-.51.27c.18,0,.31.16.49.12A.53.53,0,0,0,1.7,52Zm.17-1.8c-.15,0-.21-.26-.42-.12,0,.1.07.2.1.29S1.83,50.4,1.87,50.21Zm.26-1.62c-.17.06-.25-.08-.36-.15s-.13.18-.2.27a1.45,1.45,0,0,0,.3-.06s.06.13.15.12A.23.23,0,0,0,2.13,48.59Zm.45-8.78a.81.81,0,0,0-.33.06.13.13,0,0,0-.09.15.2.2,0,0,1-.12.25c-.17.11-.21.35-.44.39,0,0,0,.05.08,0a1.56,1.56,0,0,0,.89-.65A.5.5,0,0,1,2.58,39.81Zm.08-1.15c-.17.08-.18.21-.06.37C2.76,38.93,2.63,38.8,2.66,38.66Zm3.5.35c-.3.14-.39.3-.23.53,0-.18.06-.32.2-.4A.09.09,0,0,0,6.16,39ZM6.8,5.83c-.11,0-.11.15-.11.23a.53.53,0,0,1-.1.28A.59.59,0,0,0,6.45,7a.11.11,0,0,0,.16-.1.36.36,0,0,0,0-.18.44.44,0,0,1,.08-.31,1.4,1.4,0,0,0,.18-.32A.17.17,0,0,0,6.8,5.83Zm0,8.07a1,1,0,0,0,0,.6A.55.55,0,0,0,6.75,13.9Zm1-9.58a2.09,2.09,0,0,0,.17-.93.16.16,0,0,0-.12-.13l-.07.07a1,1,0,0,0-.27.38.17.17,0,0,0,0,.23.25.25,0,0,0,.2.1s.09,0,.09.08S7.71,4.27,7.77,4.32Zm.12,24.37a2,2,0,0,0,0,.48A.36.36,0,0,0,7.89,28.69Zm1.7-20.5s0,0-.05,0a.05.05,0,0,0,0,0,.89.89,0,0,0-.24.58,1,1,0,0,1-.08.46,1,1,0,0,0-.08.25c0,.16,0,.34-.2.44a.62.62,0,0,1-.06.4c0,.06-.07.14.05.17a.52.52,0,0,0,.18-.12,1,1,0,0,1,0-.24,4.1,4.1,0,0,0,.18-.77A2.33,2.33,0,0,0,9.32,9a1.34,1.34,0,0,1,.17-.62A1.07,1.07,0,0,0,9.59,8.19Zm2,12.25c-.07-.17.06-.37-.07-.55-.06.1-.1.15-.1.21s0,.31,0,.47A.24.24,0,0,0,11.58,20.44ZM12,7.65A1.06,1.06,0,0,1,11.88,7a.18.18,0,0,0-.26,0,.49.49,0,0,0-.14.38v0c.07.07.12.16.2.23A.37.37,0,0,0,12,7.65Zm1.07-.1c-.28,0-.28,0-.35.23.13.08.25.12.37,0a.62.62,0,0,0,0-.13S13.13,7.57,13.08,7.55Zm.38,2.29c-.11,0-.22,0-.26.16C13.37,10,13.37,10,13.46,9.84Zm.65,11.57a1.09,1.09,0,0,1-.06-.36.53.53,0,0,0,0-.24,1,1,0,0,0,0,.69C14.09,21.47,14.13,21.44,14.11,21.41Zm3.26,17.15c-.08,0-.15,0-.13,0a1.45,1.45,0,0,1,0,.3c0,.07,0,.14.12.14C17.46,38.88,17.32,38.72,17.37,38.56ZM19,52.74a.69.69,0,0,0-.51,0C18.77,52.92,18.9,52.92,19,52.74Zm.29-2.88c.28-.41.32-.51.27-.69-.06.09-.1.22-.24.21-.1-.24-.08-.3.15-.39l.1-.07a.08.08,0,0,0,0-.11.09.09,0,0,0-.08-.05.55.55,0,0,0-.28.07c-.05,0-.09.09-.16.08a.35.35,0,0,0-.36.22l0,0s.06,0,.09,0,.24,0,.31.1,0,.11.07.18a.54.54,0,0,1-.2.22c-.11,0-.12-.14-.23-.14C18.84,49.78,19,49.91,19.32,49.86Zm-.27-4.47c0,.09.11.16,0,.25s0,.17,0,.25.15,0,.22,0a.18.18,0,0,0,.11.19c-.05.12-.15,0-.2.06a1.22,1.22,0,0,0-.07.17c.12.16.12.16.28,0a.23.23,0,0,1,.1-.07.16.16,0,0,0,.11-.15,1.53,1.53,0,0,1,.11-.47l0,0s-.11,0-.11.07a.08.08,0,0,1-.09.09c-.05,0-.11,0-.1-.09s-.1-.07-.12-.13,0-.16,0-.21A.17.17,0,0,0,19.05,45.39Zm.46-10.07c-.13,0-.14.15-.19.24l.05,0c.16,0,.19-.07.19-.23a.76.76,0,0,1,.06-.42s0,0,0-.07a.3.3,0,0,0-.28.05.28.28,0,0,0,.08.21S19.54,35.21,19.51,35.32Zm.66,16.76s0,0,0,0,0,0-.06,0c-.2.18-.31.44-.52.61,0,0,0,0,0,0a1.32,1.32,0,0,0,.56,0C20.21,52.49,20.1,52.28,20.17,52.08Zm.91.94a.48.48,0,0,1-.36.16s-.06,0-.09,0a.15.15,0,0,0-.05.25.24.24,0,0,0,.31.08l.24-.35C21.18,53.12,21.17,53.07,21.08,53Zm.07,1.31c-.2,0-.24.14-.4.17C21,54.59,21,54.43,21.15,54.33Zm.05-15.46c0-.19.23-.25.24-.43l-.06-.08c-.14-.15-.27-.14-.41,0s0,.18,0,.27A.8.8,0,0,1,21,39a2.27,2.27,0,0,0,0,.45c.24-.07.22-.29.31-.43Zm1.28,6.28c-.06,0-.13,0-.18-.07s0-.22.05-.34a.51.51,0,0,0,0-.45.09.09,0,0,1,0-.1c.11-.22,0-.41-.1-.6h-.13c0,.07.08.09.06.15s0,.25-.06.36,0,.09,0,.14a.23.23,0,0,1,0,.12c-.05.18,0,.37-.09.56a1,1,0,0,0,0,.3c0,.19.07.25.25.19A.24.24,0,0,0,22.48,45.15ZM23,6.41c0,.16.11.3.06.46.15,0,.16-.1.21-.17a.4.4,0,0,0,0-.48A.75.75,0,0,1,23,5.85c-.16-.07-.18.06-.23.15l-.22,0,0,0c0-.06-.05-.1-.12-.06a.09.09,0,0,0,0,.14c.11.1.08.22.08.35C22.63,6.44,22.8,6.37,23,6.41Zm.35,52.25a.84.84,0,0,0-.15-.46c-.12,0-.12,0-.17.18.16.08.17.24.2.4.06,0,.08,0,.1,0A.16.16,0,0,0,23.32,58.66Zm.39-20.85c.1.11.33,0,.36.2.38,0,.35-.28.43-.49A.7.7,0,0,0,23.71,37.81Zm.34,3.13a.14.14,0,0,1,.13-.11c.11,0,.12-.09.12-.2a1.78,1.78,0,0,1,0-.65s0-.06,0-.09a.14.14,0,0,0-.16,0c-.05.13.06.32-.15.39a.58.58,0,0,1-.12.66C24,41,24,41,24.05,40.94Zm0-6.42a1.17,1.17,0,0,0,.55-.08c0-.17,0-.35-.07-.52a.27.27,0,0,0-.27.12c-.05.14,0,.23,0,.33S24.13,34.46,24.06,34.52Zm.72,6.76a.55.55,0,0,1-.33-.28c-.12,0-.22,0-.36.07a3,3,0,0,1,.5.28C24.66,41.39,24.71,41.33,24.78,41.28Zm.43-10.81c-.05-.07-.13,0-.16-.07s0-.24-.16-.24-.25.05-.25.25A.85.85,0,0,0,25.21,30.47Zm-.47-9.21a1.1,1.1,0,0,0,.13.47c0,.1.11.12.22.07s.06-.24.14-.33-.12-.27-.16-.4l-.07,0C24.8,21,24.77,21.07,24.74,21.26ZM24.81,8c0,.09.09.12.2.09s.14,0,.18-.09,0-.09,0-.13a.13.13,0,0,0-.05-.12.37.37,0,0,0-.18,0C24.83,7.77,24.79,7.88,24.81,8Zm.9,32.42c0-.07,0-.16-.06-.22a.23.23,0,0,0-.17.07c0,.08,0,.16-.06.22s-.17.32-.23.5c.12.09.2,0,.28-.05a.14.14,0,0,0,.09-.16A.34.34,0,0,1,25.71,40.42Zm0-15.59c-.15-.12-.18-.13-.33,0,0,.07.15.05.15.15s-.16.06-.22.15C25.58,25.26,25.7,25.17,25.74,24.83Zm.05-14.36a.86.86,0,0,0,.27.49,3.12,3.12,0,0,1,.19-.49.82.82,0,0,0,.07-.33.61.61,0,0,1,.17-.54c-.12-.09,0-.26-.1-.36-.11.11,0,.27-.14.36s-.13.23-.27.26,0,.07,0,.09,0,.34-.17.46A.08.08,0,0,0,25.79,10.47ZM26,19.6a.6.6,0,0,1,.13-.49.16.16,0,0,0-.09-.24.62.62,0,0,0-.13.31.84.84,0,0,1-.11.38C25.85,19.63,25.9,19.67,26,19.6Zm.48,16.46c-.05-.08-.1-.08-.26,0a1.58,1.58,0,0,1-.12.61c.08.06.18.07.19,0a.55.55,0,0,1,.18-.28A.23.23,0,0,0,26.48,36.06Zm.19-31.3c0-.06.06-.13.1-.2s-.07-.17-.17-.2a.49.49,0,0,0-.13.33c0,.06,0,.11.07.13A.1.1,0,0,0,26.67,4.76Zm.44,24.65-.2,0a.21.21,0,0,0-.19.28.65.65,0,0,1,0,.28A.66.66,0,0,0,27,30a.73.73,0,0,1,.1-.28A.18.18,0,0,0,27.11,29.41Zm.57-24.7s-.07,0-.08,0a.58.58,0,0,0-.1.36c0,.3-.23.46-.41.69a.92.92,0,0,1,0,.15c.16,0,.25,0,.3-.07a3.11,3.11,0,0,0,.22-.45.69.69,0,0,0,0-.38A.47.47,0,0,1,27.68,4.71Zm.6-1.42c-.15,0-.19,0-.21.12a1.25,1.25,0,0,0,0,.51.19.19,0,0,0,.08-.17.18.18,0,0,1,0-.14A.44.44,0,0,0,28.28,3.29Zm.33,21.2c0-.13-.09-.2-.12-.31-.14.06-.18.12-.14.24S28.45,24.54,28.61,24.49Zm.67-5c0-.08,0-.18-.05-.26a2.26,2.26,0,0,1-.19-.42s0-.1-.07-.11,0,.12.07.29,0,.13-.07.16-.07.13-.06.2a1.11,1.11,0,0,1-.07.51.43.43,0,0,0,.07.49.53.53,0,0,1,.18.26.14.14,0,0,0,.11.1c.1-.05.1-.12.11-.21s-.06-.3,0-.44A.93.93,0,0,0,29.28,19.49Zm0,4.34a.24.24,0,0,0-.15-.06c-.1.15-.25.27-.2.49l.24,0A.42.42,0,0,0,29.32,23.83ZM31.69,8.49l-.11,0A.39.39,0,0,1,31.25,8a.88.88,0,0,0-.1-.34c-.16,0-.28,0-.3.12a1.82,1.82,0,0,0-.09.9c.1,0,.16.13.26.18a2.39,2.39,0,0,1,.53-.19A.18.18,0,0,0,31.69,8.49Z"/><path class="cls-2" d="M74.16,57a.65.65,0,0,1,0,.24,4.44,4.44,0,0,0,0,.63,2.65,2.65,0,0,1-.06.69.06.06,0,0,0,0,0c.1.17,0,.35,0,.52a.67.67,0,0,1,0,.2.16.16,0,0,1-.16.18l-.12,0-2.72.2a.72.72,0,0,1-.58-.13.15.15,0,0,0-.15,0c-.16.09-.34,0-.5,0l-.36,0c-.31,0-.62,0-.93,0a.88.88,0,0,1-.28,0,1,1,0,0,0-.48,0,.63.63,0,0,1-.36,0,2.93,2.93,0,0,0-1-.07c-.21,0-.42,0-.63,0a1.18,1.18,0,0,1-.67-.11,1,1,0,0,0-.55,0,.47.47,0,0,0-.19.06.16.16,0,0,1-.16,0c-.17-.07-.36,0-.53-.1a1,1,0,0,0-.3,0c-.29,0-.58,0-.86,0s-.3.08-.45.06a1.3,1.3,0,0,0-.62,0,2.56,2.56,0,0,1-.72.13c-.14-.12-.14-.17-.09-.34a.67.67,0,0,0,0-.42,2.5,2.5,0,0,0-.12-.45,5,5,0,0,1-.37-1.23c0-.15-.13-.26-.15-.4a1.77,1.77,0,0,1-.08-.52.5.5,0,0,0-.11-.39.11.11,0,0,1,0-.08,2.61,2.61,0,0,0-.05-.48.28.28,0,0,0-.06-.23.12.12,0,0,1,0-.1.55.55,0,0,0-.11-.41c-.08-.13-.13-.27-.2-.4a.43.43,0,0,1-.07-.25,1.6,1.6,0,0,0-.09-.53.19.19,0,0,1,0-.13.37.37,0,0,0,0-.15,2.34,2.34,0,0,1-.13-.69.32.32,0,0,1,0-.14,1.15,1.15,0,0,1-.44-.86.32.32,0,0,1-.15-.23,2.32,2.32,0,0,0-.16-.44,1.11,1.11,0,0,1-.12-.42c0-.33-.19-.63-.1-1a2,2,0,0,1-.08-.61.55.55,0,0,1,.07-.33,2.46,2.46,0,0,1-.41-.65.08.08,0,0,1,0,0c0-.33-.21-.61-.24-.94s-.16-.43-.17-.67c0-.07-.07-.15-.11-.23-.14-.27-.2-.57-.33-.84s-.16-.4-.24-.6a2.14,2.14,0,0,1-.23-.82c-.16-.24-.08-.52-.16-.77,0-.1,0-.21,0-.31a2.79,2.79,0,0,1-.11-.35c0-.13-.06-.26-.08-.4a1.87,1.87,0,0,0-.11-.61,5.48,5.48,0,0,1-.33-.88,1.87,1.87,0,0,1-.08-.34,2.51,2.51,0,0,0-.26-.74A1.8,1.8,0,0,1,55,38.6c0-.1,0-.2-.08-.27a.11.11,0,0,1,0-.06,8.55,8.55,0,0,0-.14-.86,1.84,1.84,0,0,0-.17-.65.38.38,0,0,1,0-.18,1.34,1.34,0,0,0-.17-.59.09.09,0,0,1,0-.05,5.79,5.79,0,0,0-.33-1,2.48,2.48,0,0,1,0-.27,2.05,2.05,0,0,0-.19-.64c-.1-.21-.15-.43-.24-.64a2,2,0,0,1-.08-.49.9.9,0,0,0-.1-.38,3.09,3.09,0,0,1-.25-.66.61.61,0,0,1,0-.33c0-.1-.69-1.16-.57-1.51,0-.05-.57-.05-.61.16a4.63,4.63,0,0,0-.17.61c0,.18-.15.63-.11.81.1.41-.06.62,0,1,0,.12,0,.24.06.36a3.51,3.51,0,0,1,0,.65.33.33,0,0,0,0,.1,2.41,2.41,0,0,1,0,.6c0,.17,0,.34,0,.52a2.33,2.33,0,0,0,0,.59c0,.05,0,.09,0,.14a.73.73,0,0,0,0,.36.74.74,0,0,1,0,.33c0,.22,0,.45,0,.67a1.34,1.34,0,0,0,0,.2,5.9,5.9,0,0,0,0,.73.38.38,0,0,1,0,.18.39.39,0,0,0,0,.24.66.66,0,0,1,0,.48,3.16,3.16,0,0,0,0,.68c0,.39,0,.78,0,1.16a6.77,6.77,0,0,0,0,.78.58.58,0,0,1,0,.26.21.21,0,0,0,0,.12,3.31,3.31,0,0,1,0,.77,6,6,0,0,1,0,1.12.11.11,0,0,0,0,.1.4.4,0,0,1,0,.26,4.6,4.6,0,0,0,0,1,.72.72,0,0,1,0,.33.31.31,0,0,0,0,.25,2.72,2.72,0,0,1,.09.69c0,.31,0,.63,0,.94a1.77,1.77,0,0,0,.05.51c0,.07,0,.16,0,.24a1,1,0,0,0,0,.42.63.63,0,0,1,0,.24c0,.16.06.31,0,.47s0,0,0,.06a1.83,1.83,0,0,1,0,.87.3.3,0,0,0,0,.1,1.77,1.77,0,0,1,.05.65.54.54,0,0,0,0,.18,4.58,4.58,0,0,1,0,.74.19.19,0,0,0,0,.08,2.52,2.52,0,0,1,0,.67c0,.13,0,.25.06.37a7.24,7.24,0,0,1,0,.93c0,.22,0,.44,0,.66a4.09,4.09,0,0,1,0,.6,3.19,3.19,0,0,0-.06.54c0,.18-.07.34-.07.52,0,.44-.13.86-.16,1.29s-.07.88-.12,1.33c0,.19-.07.38-.09.57s-.19.24-.35.22a4.23,4.23,0,0,0-.87.11H50c-.46,0-.92.07-1.38.1a1.64,1.64,0,0,1-.54,0,.92.92,0,0,0-.52,0,.25.25,0,0,1-.17,0,.16.16,0,0,0-.1,0c-.29.05-.59,0-.89.06a7.1,7.1,0,0,1-.92,0h-.06a1.83,1.83,0,0,1-.93,0,.67.67,0,0,0-.2,0l-1.5.11a1.89,1.89,0,0,0-.52.18c-.24-.06-.24-.13-.21-.33a3.31,3.31,0,0,1,.09-.62,1.13,1.13,0,0,0,0-.45,6.42,6.42,0,0,0,0-.76,3.85,3.85,0,0,1,0-.68c0-.2,0-.42,0-.63,0,0,0-.06,0-.09a.27.27,0,0,1,0-.27,1.46,1.46,0,0,0,0-.51,1.42,1.42,0,0,1,0-.29,5.5,5.5,0,0,0,0-.91s0-.05,0-.08a.9.9,0,0,0,0-.4.92.92,0,0,1,0-.52c0-.07,0-.1.07-.14A.36.36,0,0,0,42.3,53a3.42,3.42,0,0,0,0-.46.4.4,0,0,0-.09-.17c.09-.08.17-.16.12-.28s0-.05,0-.06a.19.19,0,0,1-.11-.18c0-.18-.08-.36,0-.55a.47.47,0,0,0,0-.35,1.1,1.1,0,0,1,0-.51.51.51,0,0,0,0-.24,1,1,0,0,1,0-.66s0-.11,0-.16a.11.11,0,0,0,0-.07,1.36,1.36,0,0,1,0-.53c0-.06,0-.14,0-.21a2.52,2.52,0,0,1,.08-.55c.08-.06.16,0,.26,0s0,.17.08.21.1.1.19.06-.1-.12-.11-.2a.13.13,0,0,1,0-.05.28.28,0,0,1,.28,0,.3.3,0,0,0,.38-.06.58.58,0,0,1,.23-.63v-.24c-.15,0-.17,0-.19.14s0,.16-.18.18-.2,0-.27.08.08.09.14.13a.17.17,0,0,1,.08.22.09.09,0,0,1-.13.07s-.1,0-.09-.09,0-.09,0-.14l-.23,0a.27.27,0,0,0-.22.09c-.11.11-.2.07-.25-.08a1.23,1.23,0,0,1,0-.78c0-.08,0-.2.08-.24a1,1,0,0,1,.25,0,.53.53,0,0,1,.33,0,.15.15,0,0,0,.14,0c.06-.14-.09-.3,0-.41s-.1-.07-.12-.13.06-.09,0-.16c-.17-.09-.3,0-.46.08,0,.12.08.21,0,.32s-.06.09-.12.09-.14-.06-.13-.11-.07-.31,0-.47a1,1,0,0,1,.15-.43.32.32,0,0,0,.06-.15c0-.08-.12,0-.17-.09s0-.11.2-.11l0-.18c-.06,0-.13,0-.19,0s0-.08,0-.11,0-.24,0-.37a1.34,1.34,0,0,0,0-.2c0-.18.06-.31.25-.34,0,0,.08,0,.06-.09s-.11.07-.19.05,0-.11,0-.17a1.22,1.22,0,0,0,0-.38,1.49,1.49,0,0,1,0-.63.81.81,0,0,0,0-.22,2.15,2.15,0,0,1,0-.62.4.4,0,0,0,0-.18.26.26,0,0,1,.14-.29l-.07-.12a.6.6,0,0,1-.06-.11,1.73,1.73,0,0,1,.06-.68.13.13,0,0,1,.1-.07.23.23,0,0,0,.14-.08c-.08-.07-.19,0-.27,0a2.94,2.94,0,0,1,0-1l.06-.57s0-.08,0-.12a.35.35,0,0,1,.2-.45c-.19,0-.2-.13-.22-.26a6.82,6.82,0,0,1,0-1,8.37,8.37,0,0,0,0-1.12,4.21,4.21,0,0,0,0-.62c.1-.29,0-.6.1-.9a1.13,1.13,0,0,0,0-.45,2,2,0,0,1,0-.54.41.41,0,0,0,0-.19c-.06-.2,0-.42-.08-.63a.63.63,0,0,1,0-.36.33.33,0,0,0,0-.14.33.33,0,0,1,0-.24,2.5,2.5,0,0,0,0-.61s0-.05,0-.08a11.45,11.45,0,0,0,0-1.31,1.94,1.94,0,0,1,0-.24.54.54,0,0,0,0-.28.17.17,0,0,1,0-.12c.06-.11,0-.2,0-.3a3.76,3.76,0,0,1-.14-.87c0-.31,0-.61,0-.92a1.7,1.7,0,0,1,0-.39.61.61,0,0,0,0-.3,2.42,2.42,0,0,1,0-.76.24.24,0,0,0,0-.23c.09-.08.21-.11.27-.23-.12,0-.27.11-.35-.09a2.48,2.48,0,0,1,.05-.45c0-.2,0-.2.24-.23h.08a.1.1,0,0,0-.13,0,.32.32,0,0,1-.14,0s-.09-.09-.06-.14a.5.5,0,0,0,0-.36.51.51,0,0,1,0-.3c.11-.11.16-.35,0-.36a2.3,2.3,0,0,1,0-1,.13.13,0,0,1,.2.06.45.45,0,0,1-.07.63.85.85,0,0,0,.3-.05c.07,0,.07-.1.07-.16a.94.94,0,0,0-.11-.37c-.06-.08-.06-.14,0-.2a.57.57,0,0,0,.15-.23c0-.09.09-.18.14-.28-.1-.06-.17,0-.24,0l-.34.26s0,0-.2,0a.63.63,0,0,0,0-.45,4,4,0,0,1-.08-.59c0-.08.06-.14,0-.22,0-.3,0-.6,0-.9s0-.46,0-.7,0-.39,0-.59,0-.2.05-.28,0-.05,0-.08a.71.71,0,0,1,.09-.45.12.12,0,0,0,0-.17s-.07,0-.06-.06.11,0,.15-.12a.8.8,0,0,1-.16-.62s0-.06,0-.08a2.46,2.46,0,0,1-.07-.6,2.62,2.62,0,0,1,0-.56c0-.12,0-.29.23-.34-.1-.06-.19-.08-.22-.18s0-.08,0-.1a.07.07,0,0,1,.11,0s0,.08.07.09.09,0,.14-.05-.2-.22-.16-.37-.14,0-.19-.08.15-.26.16-.41-.11,0-.14-.11.08-.08.12-.14-.12-.11-.15-.2a1.69,1.69,0,0,0,0-.33,3,3,0,0,1,0-.52c0-.05,0-.1,0-.15a1.08,1.08,0,0,1,0-.36,1.08,1.08,0,0,0,0-.4,2.26,2.26,0,0,1,0-.26c0-.21,0-.41,0-.61s0-.22,0-.34a3.47,3.47,0,0,0,0-.56.29.29,0,0,1,0-.16.37.37,0,0,0,0-.18C42,9.4,42,9.19,42,9a3.37,3.37,0,0,1,0-.71c0-.18,0-.36,0-.53s0-.59,0-.88a1.65,1.65,0,0,0-.06-.73.17.17,0,0,1,0-.12.55.55,0,0,0,0-.4.49.49,0,0,1,0-.24A.74.74,0,0,0,42,5a1,1,0,0,1,0-.48.5.5,0,0,0,0-.16c0-.32,0-.63-.08-.94s0-.37,0-.56-.05-.55-.07-.83a7.53,7.53,0,0,1,0-.95.18.18,0,0,0,0-.14.58.58,0,0,1-.07-.21c0-.17-.1-.24-.26-.26s.08-.15.07-.22a.25.25,0,0,1,.22,0,1.92,1.92,0,0,0,.86,0,3.08,3.08,0,0,1,.68.07c.24,0,.18,0,.38-.07a.88.88,0,0,0,.62,0,.26.26,0,0,1,.15,0l0,0c.22-.07.46,0,.67-.13a.47.47,0,0,1,.35,0,2.52,2.52,0,0,0,.85.11A6.18,6.18,0,0,0,47,0a.32.32,0,0,1,.14,0,.91.91,0,0,0,.61,0c.1,0,.2,0,.31,0s.12.37.19.27a.12.12,0,0,1,.17,0,1,1,0,0,0,.46.06c.35,0,.71,0,1.06,0a.69.69,0,0,0,.24-.05.36.36,0,0,1,.18,0A4.66,4.66,0,0,0,51.58.18a4.34,4.34,0,0,1,.51,0,2.84,2.84,0,0,0,.82-.1,1.48,1.48,0,0,1,.47,0c.25,0,.49,0,.74,0a.57.57,0,0,1,.33.06.18.18,0,0,0,.16.19A1.35,1.35,0,0,0,54.9,1a.57.57,0,0,1,.08.23,1.36,1.36,0,0,0,.14.4c.05.07,0,.17.06.25a3.21,3.21,0,0,1,.15.53,1.54,1.54,0,0,0,.22.57A3.45,3.45,0,0,1,56,4a6.42,6.42,0,0,0,.15.63c0,.06.05.12,0,.18a.22.22,0,0,0,0,.08c.13.18.1.41.23.58s0,.17.07.26a7.83,7.83,0,0,1,.22.93,2.42,2.42,0,0,0,.21.66.56.56,0,0,1,0,.12,3.8,3.8,0,0,0,.24.86c0,.13,0,.27.07.4s.13.22.17.36a2,2,0,0,1,.08.41s0,0,0,0c.17.17.16.41.23.61a5.72,5.72,0,0,1,.17.59c0,.22.1.45.17.67a1.18,1.18,0,0,1,.06.36.39.39,0,0,0,.11.28c.12.11.11.24.15.36a1,1,0,0,0,.18.45l0,0c0,.15.07.26.09.4s.09.54.14.81a.62.62,0,0,0,.1.22,1.19,1.19,0,0,1,.2.51,1.57,1.57,0,0,0,.18.63c0,.06,0,.16.06.23a6.2,6.2,0,0,0,.2.77c.1.21.1.43.18.65a3.38,3.38,0,0,1,.11.48s0,.08,0,.1.14.4.2.61a4.09,4.09,0,0,0,.18.49c.08.24.13.48.21.71a3.87,3.87,0,0,1,.17.67c0,.09.08.16.11.26.07.36.13.72.2,1.08a3.12,3.12,0,0,0,.33,1,.53.53,0,0,1,0,.16.34.34,0,0,0,.13.22.36.36,0,0,1,.15.3,4.78,4.78,0,0,0,.13.74,5.12,5.12,0,0,0,.2.77c.08.16.12.34.21.51a.4.4,0,0,1,0,.35,1.11,1.11,0,0,0,0,.48,1.46,1.46,0,0,0,0,.22,2.63,2.63,0,0,0,.15.63,1,1,0,0,1,0,.24,1.71,1.71,0,0,0,.14.55.39.39,0,0,1,0,.18,2.65,2.65,0,0,0,.14.68c.1.34.24.68.36,1a1,1,0,0,0,.17.23c.06.05.1.11.15.16a.49.49,0,0,0,.21,0,.35.35,0,0,0,.29-.45,1.72,1.72,0,0,1,0-.64c0-.21,0-.42.07-.64a.62.62,0,0,1,0-.23.41.41,0,0,0,0-.29,3.56,3.56,0,0,1-.2-1,1.32,1.32,0,0,0-.11-.55c0-.09,0-.18,0-.27a2.38,2.38,0,0,1,0-.65.41.41,0,0,0,0-.22,3.94,3.94,0,0,1-.09-.6,2,2,0,0,1,0-.42.51.51,0,0,0,0-.3c0-.05,0-.09,0-.13s.17.06.27,0c-.07-.12-.21-.07-.3-.16,0-.27,0-.56,0-.84a.67.67,0,0,1,.23-.49L64,22a.12.12,0,0,0-.1-.1c-.17,0-.19-.17-.19-.3a1,1,0,0,1,0-.38c0-.23.08-.47.11-.7a1.06,1.06,0,0,0,0-.31c0-.18-.07-.36-.11-.54a.53.53,0,0,1,0-.22c0-.21,0-.42,0-.63a2.09,2.09,0,0,0,0-.66.35.35,0,0,1,0-.24c.08-.15,0-.33.08-.5s0-.06,0-.08a.13.13,0,0,1-.05-.11,1.17,1.17,0,0,0-.13-.55c0-.09,0-.2-.05-.3a1.94,1.94,0,0,1,0-.68c0-.37,0-.73,0-1.09a2.67,2.67,0,0,1,0-.69c0-.14,0-.28.07-.42s-.05-.24-.05-.36a5.8,5.8,0,0,1,0-.93,2.36,2.36,0,0,0-.06-.75c0-.17-.08-.34-.11-.52a.25.25,0,0,1,0-.12,1.13,1.13,0,0,0,.14-.6,4.68,4.68,0,0,0,0-.53.32.32,0,0,1,0-.18A1.12,1.12,0,0,0,63.67,9a.38.38,0,0,1,0-.15.26.26,0,0,0,0-.33c-.08-.1,0-.23,0-.35s0-.12,0-.2.08-.06.09-.14a.35.35,0,0,1-.06-.47.33.33,0,0,0,0-.22.58.58,0,0,1,.05-.57.49.49,0,0,1,0-.51.35.35,0,0,0,0-.2c0-.17,0-.29.16-.35l0,0s-.07-.1-.08-.15,0-.1,0-.16-.09-.08-.14-.13,0-.29-.06-.43a1.39,1.39,0,0,1,0-.35c0-.14,0-.29,0-.44a1.5,1.5,0,0,1,0-.63.41.41,0,0,0,0-.22s0-.09,0-.12a.42.42,0,0,0,.08-.33,2.53,2.53,0,0,0,0-.48c0-.06,0-.12,0-.16a.28.28,0,0,1-.09-.24c0-.19,0-.38,0-.57a.74.74,0,0,1,0-.26,1.23,1.23,0,0,0,.09-.5c0-.2.07-.26.27-.28a5.3,5.3,0,0,1,.69,0,3,3,0,0,0,.73,0,1.89,1.89,0,0,1,.53,0c.3,0,.58.13.88.12.09,0,.12.06.16.11a.59.59,0,0,1,.44-.13c.22,0,.43,0,.65,0a5.53,5.53,0,0,1,.91,0l.09,0a2.91,2.91,0,0,1,1,0,1,1,0,0,0,.25,0,1.85,1.85,0,0,1,.47,0,.24.24,0,0,0,.12,0c.09,0,.17,0,.25,0h.52a.27.27,0,0,0,.14-.07c.1-.06.19-.09.28,0a.24.24,0,0,0,.16.05,4.72,4.72,0,0,0,.84,0,.34.34,0,0,1,.2,0,.21.21,0,0,1,0,.2,6.43,6.43,0,0,1-.08,1.07.43.43,0,0,0,0,.16,1.34,1.34,0,0,1,0,.63.75.75,0,0,0,0,.15c0,.31,0,.62,0,.93a2.54,2.54,0,0,0,.07.61,2.26,2.26,0,0,1,0,.63s0,.07,0,.1c0,.33,0,.66.09,1a1.47,1.47,0,0,1,0,.66c0,.07,0,.12,0,.17s0,.23,0,.35a.74.74,0,0,0,0,.36,2.44,2.44,0,0,1,.09.66,1.29,1.29,0,0,1,0,.48,1.14,1.14,0,0,0,0,.73.21.21,0,0,1,0,.08,3.94,3.94,0,0,0,0,.6c0,.22,0,.43,0,.64s0,.2,0,.3,0,.4,0,.59,0,.23,0,.35a6.26,6.26,0,0,0,0,1.06.41.41,0,0,1,0,.11,1,1,0,0,0,0,.42,3.88,3.88,0,0,1,.06.67,5.17,5.17,0,0,0,0,1,.34.34,0,0,1,0,.1,1.48,1.48,0,0,0,0,.42,3.69,3.69,0,0,1,0,.74,6.71,6.71,0,0,1,0,1,.07.07,0,0,0,0,.06,2.91,2.91,0,0,1,0,.51.41.41,0,0,1,0,.19c-.1.3,0,.61-.05.91s0,.36,0,.53a1.32,1.32,0,0,0,0,.28.45.45,0,0,1,0,.28.22.22,0,0,0,0,.16c0,.36,0,.73,0,1.09a.58.58,0,0,1-.06.36.2.2,0,0,0,0,.21.9.9,0,0,1,.05.54.9.9,0,0,0,0,.4c0,.29,0,.58,0,.87s0,.44,0,.66a6.23,6.23,0,0,0,0,1.06,2.16,2.16,0,0,1,0,.44.33.33,0,0,0,0,.17,2.09,2.09,0,0,1,0,.56,2.18,2.18,0,0,1,0,.51,4,4,0,0,0,0,.6,3.87,3.87,0,0,1,0,.59.27.27,0,0,0,0,.21c.06.07,0,.18,0,.25a.51.51,0,0,0,0,.32,2.07,2.07,0,0,1,0,.61,1.22,1.22,0,0,0,0,.6c0,.07,0,.16,0,.24s-.07.34-.11.51a.43.43,0,0,0,0,.16,1.94,1.94,0,0,1,.07.86.17.17,0,0,0,0,.14.7.7,0,0,1,.05.4,3.87,3.87,0,0,0,0,.9,1,1,0,0,1,0,.39.76.76,0,0,0,0,.3c0,.39-.09.78-.09,1.17s0,.86.06,1.28a2.58,2.58,0,0,1,0,.68,4.73,4.73,0,0,0,0,.53c0,.29.08.58.06.88a3.32,3.32,0,0,0,.08.89,1.2,1.2,0,0,1,0,.65,1.11,1.11,0,0,0,0,.74,1.39,1.39,0,0,1,0,.4.93.93,0,0,0,0,.37,1.27,1.27,0,0,1,.05.39c0,.24,0,.49,0,.74s0,.31,0,.47a2.84,2.84,0,0,0,.06.5,3.49,3.49,0,0,1,0,.79,2.49,2.49,0,0,0,0,.77c0,.43,0,.87,0,1.31a3.87,3.87,0,0,0,.09.9.7.7,0,0,1,0,.25,2.15,2.15,0,0,0,.09.75,1.45,1.45,0,0,1,.1.72.46.46,0,0,0,0,.17,5.42,5.42,0,0,1,.08.8,2.84,2.84,0,0,1,0,.92.9.9,0,0,0,0,.4.68.68,0,0,1,0,.2,1.78,1.78,0,0,0,0,.65,1.34,1.34,0,0,1,0,.4,1.13,1.13,0,0,0,0,.41,2.11,2.11,0,0,0,0,.26c.06.41-.08.82,0,1.22-.07.2.09.39,0,.58,0,0,0,0,0,.06a2.9,2.9,0,0,1,0,.93v0C74.23,56.44,74.1,56.71,74.16,57ZM42.85,23.62a2,2,0,0,0-.34,0c0,.09,0,.16-.08.24C42.64,23.89,42.7,23.71,42.85,23.62Zm.69,30.24c-.06-.26-.23-.47-.17-.75a.3.3,0,0,0-.13-.3.17.17,0,0,0-.18,0,.21.21,0,0,0-.06.36.82.82,0,0,1,.27.44,1.43,1.43,0,0,1-.12.21c-.1.15-.21.29-.42.28a.16.16,0,0,0-.17.1c.09.08.2.06.29.1a.38.38,0,0,0,.57-.23A.44.44,0,0,1,43.54,53.86ZM42.6,49a.07.07,0,0,0,0,.05c.21.31.2.38.64.25.14,0,.14-.07.07-.23s-.17.08-.22.16a.2.2,0,0,1-.17-.14.35.35,0,0,1,.12-.19.19.19,0,0,0,0-.2C43,48.9,42.74,48.88,42.6,49Zm.69-4.85c-.14,0-.26.08-.43.06,0,.2-.16.27-.22.4.17.06.18-.21.34-.15s-.06.09,0,.13C43.24,44.59,43.29,44.52,43.29,44.16ZM43.22,52a1.33,1.33,0,0,0-.51.27c.18,0,.31.16.49.12A.53.53,0,0,0,43.22,52Zm.17-1.8c-.15,0-.21-.26-.42-.12,0,.1.07.2.1.29S43.34,50.4,43.39,50.21Zm.26-1.62c-.17.06-.25-.08-.36-.15s-.14.18-.2.27a1.59,1.59,0,0,0,.3-.06s.06.13.15.12A.23.23,0,0,0,43.65,48.59Zm.45-8.78a.81.81,0,0,0-.33.06.13.13,0,0,0-.09.15.2.2,0,0,1-.12.25c-.17.11-.22.35-.44.39a.06.06,0,0,0,.08,0,1.56,1.56,0,0,0,.89-.65A.4.4,0,0,1,44.1,39.81Zm.08-1.15c-.17.08-.18.21-.06.37C44.28,38.93,44.15,38.8,44.18,38.66Zm3.5.35c-.3.14-.39.3-.23.53,0-.18,0-.32.2-.4A.09.09,0,0,0,47.68,39Zm.64-33.18c-.11,0-.11.15-.11.23a.46.46,0,0,1-.11.28A.63.63,0,0,0,48,7c.09,0,.15,0,.17-.1a.52.52,0,0,0,0-.18.44.44,0,0,1,.08-.31,1.4,1.4,0,0,0,.18-.32A.17.17,0,0,0,48.32,5.83Zm-.06,8.07a1,1,0,0,0,0,.6A.53.53,0,0,0,48.26,13.9Zm1-9.58a2,2,0,0,0,.16-.93.13.13,0,0,0-.11-.13s-.05.06-.08.07a1.15,1.15,0,0,0-.27.38.18.18,0,0,0,0,.23.24.24,0,0,0,.19.1c.06,0,.1,0,.1.08S49.23,4.27,49.29,4.32Zm.12,24.37a2,2,0,0,0,0,.48A.38.38,0,0,0,49.41,28.69Zm1.7-20.5s0,0,0,0a.07.07,0,0,0-.06,0,.93.93,0,0,0-.23.58,1,1,0,0,1-.08.46,1,1,0,0,0-.08.25c0,.16,0,.34-.21.44a.56.56,0,0,1,0,.4c0,.06-.07.14,0,.17a.52.52,0,0,0,.18-.12.49.49,0,0,1,0-.24,4.1,4.1,0,0,0,.18-.77A2.33,2.33,0,0,0,50.84,9,1.34,1.34,0,0,1,51,8.41,2.14,2.14,0,0,0,51.11,8.19Zm2,12.25c-.07-.17.06-.37-.07-.55-.07.1-.1.15-.1.21s0,.31,0,.47A.24.24,0,0,0,53.1,20.44Zm.43-12.79A1.06,1.06,0,0,1,53.4,7a.18.18,0,0,0-.26,0,.49.49,0,0,0-.14.38v0a2.05,2.05,0,0,0,.2.23A.37.37,0,0,0,53.53,7.65Zm1.07-.1c-.28,0-.28,0-.35.23.13.08.25.12.37,0a.62.62,0,0,0,0-.13S54.64,7.57,54.6,7.55ZM55,9.84c-.11,0-.22,0-.27.16C54.89,10,54.89,10,55,9.84Zm.65,11.57a1.09,1.09,0,0,1-.06-.36.71.71,0,0,0,0-.24,1,1,0,0,0,0,.69S55.64,21.44,55.63,21.41Zm3.25,17.15c-.07,0-.14,0-.13,0a1.46,1.46,0,0,1,0,.3c0,.07,0,.14.12.14C59,38.88,58.83,38.72,58.88,38.56Zm1.67,14.18a.69.69,0,0,0-.51,0C60.29,52.92,60.42,52.92,60.55,52.74Zm.29-2.88c.28-.41.32-.51.27-.69-.07.09-.1.22-.24.21-.1-.24-.08-.3.14-.39a.41.41,0,0,0,.11-.07.09.09,0,0,0,0-.11.11.11,0,0,0-.09-.05.52.52,0,0,0-.27.07s-.09.09-.16.08a.35.35,0,0,0-.36.22l0,0s.06,0,.09,0,.24,0,.31.1l.07.18a.73.73,0,0,1-.2.22c-.11,0-.12-.14-.23-.14C60.36,49.78,60.53,49.91,60.84,49.86Zm-.27-4.47c0,.09.11.16,0,.25s0,.17,0,.25.15,0,.22,0a.18.18,0,0,0,.11.19c0,.12-.15,0-.2.06a1.22,1.22,0,0,0-.07.17c.12.16.12.16.28,0a.23.23,0,0,1,.1-.07.16.16,0,0,0,.11-.15,1.29,1.29,0,0,1,.11-.47l0,0s-.11,0-.11.07a.08.08,0,0,1-.09.09c-.05,0-.11,0-.11-.09s-.09-.07-.11-.13.05-.16,0-.21A.17.17,0,0,0,60.57,45.39ZM61,35.32c-.13,0-.14.15-.19.24l0,0c.16,0,.19-.07.19-.23a.76.76,0,0,1,.06-.42.06.06,0,0,0,0-.07.3.3,0,0,0-.28.05.31.31,0,0,0,.07.21S61.06,35.21,61,35.32Zm.66,16.76s0,0,0,0a.06.06,0,0,0-.06,0c-.2.18-.31.44-.52.61,0,0,0,0,0,0a1.28,1.28,0,0,0,.55,0C61.73,52.49,61.62,52.28,61.69,52.08Zm.91.94a.48.48,0,0,1-.36.16s-.06,0-.09,0a.15.15,0,0,0,0,.25.24.24,0,0,0,.31.08c.08-.12.15-.24.24-.35S62.68,53.07,62.6,53Zm.07,1.31c-.2,0-.25.14-.4.17C62.49,54.59,62.54,54.43,62.67,54.33Zm0-15.46c0-.19.23-.25.24-.43l-.06-.08c-.14-.15-.27-.14-.41,0s-.05.18,0,.27a.8.8,0,0,1,0,.37,2.27,2.27,0,0,0,0,.45c.24-.07.22-.29.3-.43ZM64,45.15c-.06,0-.13,0-.18-.07s0-.22,0-.34a.51.51,0,0,0,0-.45.09.09,0,0,1,0-.1c.11-.22,0-.41-.1-.6h-.14c0,.07.09.09.06.15s0,.25,0,.36,0,.09,0,.14a.23.23,0,0,1,0,.12c0,.18,0,.37-.09.56a1,1,0,0,0,0,.3c0,.19.07.25.25.19A.24.24,0,0,0,64,45.15Zm.49-38.74c0,.16.11.3.06.46.15,0,.16-.1.21-.17a.42.42,0,0,0,0-.48.75.75,0,0,1-.24-.37c-.16-.07-.18.06-.23.15l-.22,0,0,0c0-.06,0-.1-.12-.06a.08.08,0,0,0,0,.14c.11.1.07.22.08.35C64.14,6.44,64.31,6.37,64.49,6.41Zm.35,52.25a.84.84,0,0,0-.15-.46c-.12,0-.12,0-.18.18.17.08.18.24.2.4.06,0,.09,0,.1,0A.12.12,0,0,0,64.84,58.66Zm.39-20.85c.1.11.33,0,.36.2.38,0,.35-.28.43-.49A.7.7,0,0,0,65.23,37.81Zm.33,3.13a.16.16,0,0,1,.14-.11c.11,0,.12-.09.12-.2a1.78,1.78,0,0,1,0-.65s0-.06,0-.09a.14.14,0,0,0-.16,0c-.05.13.06.32-.15.39a.57.57,0,0,1-.13.66C65.47,41,65.53,41,65.56,40.94Zm0-6.42a1.2,1.2,0,0,0,.56-.08c0-.17,0-.35-.07-.52a.27.27,0,0,0-.27.12c-.05.14,0,.23,0,.33S65.65,34.46,65.57,34.52Zm.73,6.76A.52.52,0,0,1,66,41c-.13,0-.22,0-.37.07a2.72,2.72,0,0,1,.51.28C66.17,41.39,66.23,41.33,66.3,41.28Zm.43-10.81c0-.07-.13,0-.17-.07s0-.24-.16-.24-.24.05-.24.25A.85.85,0,0,0,66.73,30.47Zm-.47-9.21a1.26,1.26,0,0,0,.12.47c0,.1.12.12.23.07s.06-.24.14-.33-.12-.27-.17-.4l-.06,0C66.32,21,66.29,21.07,66.26,21.26ZM66.33,8c0,.09.09.12.19.09s.15,0,.18-.09,0-.09,0-.13a.13.13,0,0,0-.05-.12.37.37,0,0,0-.18,0A.19.19,0,0,0,66.33,8Zm.9,32.42c0-.07,0-.16-.06-.22a.27.27,0,0,0-.18.07c0,.08,0,.16,0,.22s-.17.32-.24.5c.13.09.2,0,.29-.05a.14.14,0,0,0,.09-.16A.34.34,0,0,1,67.23,40.42Zm0-15.59c-.15-.12-.18-.13-.33,0,0,.07.15.05.15.15s-.17.06-.22.15C67.1,25.26,67.22,25.17,67.26,24.83Zm0-14.36a.86.86,0,0,0,.27.49,3.12,3.12,0,0,1,.19-.49.82.82,0,0,0,.07-.33A.63.63,0,0,1,68,9.6c-.11-.09,0-.26-.09-.36-.11.11,0,.27-.14.36s-.14.23-.28.26a.15.15,0,0,1,0,.09c-.11.13,0,.34-.18.46A.15.15,0,0,0,67.31,10.47Zm.21,9.13a.57.57,0,0,1,.13-.49.16.16,0,0,0-.09-.24.62.62,0,0,0-.13.31.74.74,0,0,1-.12.38C67.37,19.63,67.42,19.67,67.52,19.6ZM68,36.06c-.06-.08-.1-.08-.26,0a1.58,1.58,0,0,1-.12.61c.07.06.17.07.19,0a.55.55,0,0,1,.18-.28A.23.23,0,0,0,68,36.06Zm.19-31.3a1.21,1.21,0,0,0,.09-.2c-.06-.17-.06-.17-.16-.2a.49.49,0,0,0-.13.33c0,.06,0,.11.07.13S68.16,4.8,68.19,4.76Zm.44,24.65-.2,0a.21.21,0,0,0-.19.28.65.65,0,0,1,0,.28.66.66,0,0,0,.28,0,.73.73,0,0,1,.1-.28A.18.18,0,0,0,68.63,29.41Zm.57-24.7s-.07,0-.09,0a.75.75,0,0,0-.1.36c0,.3-.22.46-.4.69a.92.92,0,0,1,0,.15c.16,0,.25,0,.3-.07a4.66,4.66,0,0,0,.22-.45.8.8,0,0,0,0-.38A.47.47,0,0,1,69.2,4.71Zm.6-1.42c-.15,0-.19,0-.21.12a1.25,1.25,0,0,0,0,.51.21.21,0,0,0,.08-.17.18.18,0,0,1,0-.14A.44.44,0,0,0,69.8,3.29Zm.33,21.2c0-.13-.09-.2-.12-.31-.15.06-.18.12-.15.24S70,24.54,70.13,24.49Zm.66-5c0-.08,0-.18,0-.26a2.26,2.26,0,0,1-.19-.42s0-.1-.07-.11,0,.12.07.29,0,.13-.08.16-.06.13,0,.2a1.11,1.11,0,0,1-.07.51.43.43,0,0,0,.07.49.53.53,0,0,1,.18.26.13.13,0,0,0,.11.1c.09-.05.1-.12.11-.21s-.06-.3,0-.44A1,1,0,0,0,70.79,19.49Zm0,4.34a.2.2,0,0,0-.14-.06c-.1.15-.25.27-.21.49l.24,0A.38.38,0,0,0,70.83,23.83ZM73.21,8.49l-.11,0A.38.38,0,0,1,72.77,8a.76.76,0,0,0-.11-.34c-.15,0-.27,0-.29.12a2,2,0,0,0-.1.9c.1,0,.16.13.27.18a2.39,2.39,0,0,1,.53-.19A.18.18,0,0,0,73.21,8.49Z"/></g></g></svg>